<?xml version="1.0" encoding="utf-8" standalone="no"?>
<!DOCTYPE svg PUBLIC "-//W3C//DTD SVG 1.1//EN"
  "http://www.w3.org/Graphics/SVG/1.1/DTD/svg11.dtd">
<!-- Created with matplotlib (http://matplotlib.org/) -->
<svg height="288pt" version="1.1" viewBox="0 0 432 288" width="432pt" xmlns="http://www.w3.org/2000/svg" xmlns:xlink="http://www.w3.org/1999/xlink">
 <defs>
  <style type="text/css">
*{stroke-linecap:butt;stroke-linejoin:round;}
  </style>
 </defs>
 <g id="figure_1">
  <g id="patch_1">
   <path d="M 0 288 
L 432 288 
L 432 0 
L 0 0 
z
" style="fill:#ffffff;"/>
  </g>
  <g id="axes_1">
   <g id="patch_2">
    <path clip-path="url(#pba6899e1b3)" d="M 256.833514 202.490677 
C 245.05764 197.703728 234.97329 189.510887 227.876246 178.96489 
C 220.779202 168.418892 216.987045 155.991652 216.987045 143.28 
C 216.987045 130.568348 220.779202 118.141108 227.876246 107.59511 
C 234.97329 97.049113 245.05764 88.856272 256.833514 84.069323 
C 250.831855 77.137129 243.810949 71.157558 236.011808 66.335875 
C 228.212667 61.514192 219.725567 57.906209 210.841853 55.63578 
C 201.958138 53.365352 192.780639 52.458758 183.624399 52.94712 
C 174.46816 53.435483 165.439163 55.313149 156.847357 58.515661 
C 148.25555 61.718174 140.200385 66.208465 132.958377 71.832391 
C 125.716369 77.456317 119.371345 84.148781 114.141117 91.680045 
C 108.910889 99.211309 104.855997 107.494199 102.115636 116.244379 
C 99.375276 124.994559 97.981168 134.110746 97.981168 143.28 
C 97.981168 152.449254 99.375276 161.565441 102.115636 170.315621 
C 104.855997 179.065801 108.910889 187.348691 114.141117 194.879955 
C 119.371345 202.411219 125.716369 209.103683 132.958377 214.727609 
C 140.200385 220.351535 148.25555 224.841826 156.847357 228.044339 
C 165.439163 231.246851 174.46816 233.124517 183.624399 233.61288 
C 192.780639 234.101242 201.958138 233.194648 210.841853 230.92422 
C 219.725567 228.653791 228.212667 225.045808 236.011808 220.224125 
C 243.810949 215.402442 250.831855 209.422871 256.833514 202.490677 
" style="fill:#0072b2;"/>
   </g>
   <g id="patch_3">
    <path clip-path="url(#pba6899e1b3)" d="M 256.833514 84.069323 
C 271.064922 100.507256 278.903722 121.537447 278.903722 143.28 
C 278.903722 165.022553 271.064922 186.052744 256.833514 202.490677 
C 266.537171 206.43526 277.063349 207.934619 287.482466 206.856342 
C 297.901583 205.778066 307.897626 202.154859 316.587828 196.306693 
C 325.278031 190.458526 332.398819 182.562775 337.321345 173.316726 
C 342.24387 164.070677 344.818832 153.754764 344.818832 143.28 
C 344.818832 132.805236 342.24387 122.489323 337.321345 113.243274 
C 332.398819 103.997225 325.278031 96.101474 316.587828 90.253307 
C 307.897626 84.405141 297.901583 80.781934 287.482466 79.703658 
C 277.063349 78.625381 266.537171 80.12474 256.833514 84.069323 
" style="fill:#d55e00;"/>
   </g>
   <g id="patch_4">
    <path clip-path="url(#pba6899e1b3)" d="M 256.833514 202.490677 
C 271.064922 186.052744 278.903722 165.022553 278.903722 143.28 
C 278.903722 121.537447 271.064922 100.507256 256.833514 84.069323 
C 245.05764 88.856272 234.97329 97.049113 227.876246 107.59511 
C 220.779202 118.141108 216.987045 130.568348 216.987045 143.28 
C 216.987045 155.991652 220.779202 168.418892 227.876246 178.96489 
C 234.97329 189.510887 245.05764 197.703728 256.833514 202.490677 
" style="fill:#009e73;stroke:#009e73;stroke-linejoin:miter;stroke-width:0.3;"/>
   </g>
   <g id="text_1">
    <text style="fill:#262626;font-family:Arial;font-size:24px;font-style:normal;font-weight:normal;text-anchor:middle;" transform="rotate(-0, 157.484106, 149.484375)" x="157.484106" y="149.484375">3069</text>
   </g>
   <g id="text_2">
    <text style="fill:#262626;font-family:Arial;font-size:24px;font-style:normal;font-weight:normal;text-anchor:middle;" transform="rotate(-0, 311.861277, 149.484375)" x="311.861277" y="149.484375">1142</text>
   </g>
   <g id="text_3">
    <text style="fill:#262626;font-family:Arial;font-size:24px;font-style:normal;font-weight:normal;text-anchor:middle;" transform="rotate(-0, 247.945384, 149.484375)" x="247.945384" y="149.484375">779</text>
   </g>
   <g id="text_4">
    <text style="fill:#262626;font-family:Arial;font-size:28.8px;font-style:normal;font-weight:normal;" transform="translate(119.664445 261.737136)">NMM</text>
    <text style="fill:#262626;font-family:Arial;font-size:28.8px;font-style:normal;font-weight:normal;" transform="translate(77.976445 292.198536)">downreg</text>
   </g>
   <g id="text_5">
    <text style="fill:#262626;font-family:Arial;font-size:28.8px;font-style:normal;font-weight:normal;" transform="translate(280.902939 235.529252)">Drought</text>
    <text style="fill:#262626;font-family:Arial;font-size:28.8px;font-style:normal;font-weight:normal;" transform="translate(280.902939 266.328152)">downreg</text>
   </g>
  </g>
 </g>
 <defs>
  <clipPath id="pba6899e1b3">
   <rect height="217.44" width="283.35511" x="79.722445" y="34.56"/>
  </clipPath>
 </defs>
</svg>
