<?xml version="1.0" encoding="UTF-8" standalone="no"?>
<!DOCTYPE svg PUBLIC "-//W3C//DTD SVG 1.0//EN"
  "http://www.w3.org/TR/SVG/DTD/svg10.dtd">
<svg xmlns="http://www.w3.org/2000/svg" version="1.2" baseProfile="tiny"
     width="787px" height="728px" viewport-fill="#ffffff" >
<desc>
Created with Chemtool 1.6.13 from file /home/matthew/Documents/papers_and_thesis/thesis/introduction/figures/raw/drugs/nmm.svg 
</desc>
<g>
<line x1="301" y1="301" x2="356" y2="269"
style="stroke-width:2; stroke:#000000" />
<line x1="357" y1="266" x2="412" y2="298"
style="stroke-width:2; stroke:#000000" />
<line x1="355" y1="272" x2="410" y2="304"
style="stroke-width:2; stroke:#000000" />
<line x1="411" y1="301" x2="471" y2="282"
style="stroke-width:2; stroke:#000000" />
<line x1="471" y1="282" x2="507" y2="333"
style="stroke-width:2; stroke:#000000" />
<line x1="498" y1="332" x2="470" y2="291"
style="stroke-width:2; stroke:#000000" />
<line x1="507" y1="333" x2="470" y2="384"
style="stroke-width:2; stroke:#000000" />
<line x1="470" y1="384" x2="421" y2="368"
style="stroke-width:2; stroke:#000000" />
<line x1="410" y1="352" x2="410" y2="302"
style="stroke-width:2; stroke:#000000" />
<line x1="473" y1="382" x2="505" y2="437"
style="stroke-width:2; stroke:#000000" />
<line x1="467" y1="386" x2="499" y2="441"
style="stroke-width:2; stroke:#000000" />
<line x1="502" y1="439" x2="472" y2="493"
style="stroke-width:2; stroke:#000000" />
<line x1="472" y1="493" x2="509" y2="544"
style="stroke-width:2; stroke:#000000" />
<line x1="509" y1="544" x2="473" y2="594"
style="stroke-width:2; stroke:#000000" />
<line x1="472" y1="585" x2="500" y2="545"
style="stroke-width:2; stroke:#000000" />
<line x1="473" y1="594" x2="413" y2="576"
style="stroke-width:2; stroke:#000000" />
<line x1="413" y1="576" x2="413" y2="524"
style="stroke-width:2; stroke:#000000" />
<line x1="424" y1="508" x2="473" y2="494"
style="stroke-width:2; stroke:#000000" />
<line x1="468" y1="502" x2="432" y2="513"
style="stroke-width:2; stroke:#000000" />
<line x1="412" y1="573" x2="358" y2="603"
style="stroke-width:2; stroke:#000000" />
<line x1="414" y1="579" x2="360" y2="609"
style="stroke-width:2; stroke:#000000" />
<line x1="359" y1="606" x2="305" y2="576"
style="stroke-width:2; stroke:#000000" />
<line x1="305" y1="576" x2="245" y2="595"
style="stroke-width:2; stroke:#000000" />
<line x1="250" y1="587" x2="297" y2="571"
style="stroke-width:2; stroke:#000000" />
<line x1="305" y1="576" x2="305" y2="524"
style="stroke-width:2; stroke:#000000" />
<line x1="293" y1="508" x2="245" y2="493"
style="stroke-width:2; stroke:#000000" />
<line x1="245" y1="493" x2="208" y2="544"
style="stroke-width:2; stroke:#000000" />
<line x1="246" y1="502" x2="217" y2="543"
style="stroke-width:2; stroke:#000000" />
<line x1="208" y1="544" x2="245" y2="595"
style="stroke-width:2; stroke:#000000" />
<line x1="301" y1="301" x2="301" y2="351"
style="stroke-width:2; stroke:#000000" />
<line x1="294" y1="344" x2="294" y2="308"
style="stroke-width:2; stroke:#000000" />
<line x1="289" y1="367" x2="241" y2="383"
style="stroke-width:2; stroke:#000000" />
<line x1="241" y1="383" x2="204" y2="332"
style="stroke-width:2; stroke:#000000" />
<line x1="204" y1="332" x2="240" y2="281"
style="stroke-width:2; stroke:#000000" />
<line x1="241" y1="290" x2="213" y2="331"
style="stroke-width:2; stroke:#000000" />
<line x1="240" y1="281" x2="301" y2="301"
style="stroke-width:2; stroke:#000000" />
<line x1="238" y1="381" x2="206" y2="436"
style="stroke-width:2; stroke:#000000" />
<line x1="244" y1="385" x2="212" y2="440"
style="stroke-width:2; stroke:#000000" />
<line x1="209" y1="438" x2="245" y2="493"
style="stroke-width:2; stroke:#000000" />
<line x1="399" y1="370" x2="366" y2="390"
style="stroke-width:2; stroke:#000000" />
<line x1="507" y1="333" x2="571" y2="333"
style="stroke-width:2; stroke:#000000" />
<line x1="571" y1="333" x2="603" y2="279"
style="stroke-width:2; stroke:#000000" />
<line x1="603" y1="279" x2="667" y2="279"
style="stroke-width:2; stroke:#000000" />
<line x1="670" y1="281" x2="695" y2="237"
style="stroke-width:2; stroke:#000000" />
<line x1="664" y1="277" x2="689" y2="233"
style="stroke-width:2; stroke:#000000" />
<line x1="667" y1="279" x2="692" y2="323"
style="stroke-width:2; stroke:#000000" />
<line x1="509" y1="544" x2="573" y2="544"
style="stroke-width:2; stroke:#000000" />
<line x1="573" y1="544" x2="605" y2="599"
style="stroke-width:2; stroke:#000000" />
<line x1="605" y1="599" x2="669" y2="599"
style="stroke-width:2; stroke:#000000" />
<line x1="669" y1="599" x2="694" y2="643"
style="stroke-width:2; stroke:#000000" />
<line x1="672" y1="601" x2="697" y2="557"
style="stroke-width:2; stroke:#000000" />
<line x1="666" y1="597" x2="691" y2="553"
style="stroke-width:2; stroke:#000000" />
<line x1="208" y1="544" x2="144" y2="544"
style="stroke-width:2; stroke:#000000" />
<line x1="144" y1="544" x2="118" y2="587"
style="stroke-width:2; stroke:#000000" />
<line x1="245" y1="595" x2="219" y2="639"
style="stroke-width:2; stroke:#000000" />
<line x1="240" y1="281" x2="208" y2="226"
style="stroke-width:2; stroke:#000000" />
<line x1="208" y1="226" x2="232" y2="182"
style="stroke-width:2; stroke:#000000" />
<line x1="204" y1="332" x2="167" y2="332"
style="stroke-width:2; stroke:#000000" />
<line x1="471" y1="282" x2="495" y2="238"
style="stroke-width:2; stroke:#000000" />
<line x1="473" y1="594" x2="498" y2="638"
style="stroke-width:2; stroke:#000000" />
<text x="405" y="520" style="font-family:Helvetica; font-size:18pt; fill:#000000;text-anchor:start;" > 
<tspan>
N</tspan>
</text>
<text x="402" y="373" style="font-family:Helvetica; font-size:18pt; fill:#000000;text-anchor:start;" > 
<tspan>
N</tspan>
</text>
<text x="293" y="372" style="font-family:Helvetica; font-size:18pt; fill:#000000;text-anchor:start;" > 
<tspan>
N</tspan>
</text>
<text x="297" y="520" style="font-family:Helvetica; font-size:18pt; fill:#000000;text-anchor:start;" > 
<tspan>
NH</tspan>
</text>
<text x="133" y="340" style="font-family:Times; font-size:18pt; fill:#000000;text-anchor:start;" > 
<tspan>
H3C</tspan>
</text>
<text x="104" y="606" style="font-family:Times; font-size:18pt; fill:#000000;text-anchor:start;" > 
<tspan>
H3C</tspan>
</text>
<text x="205" y="658" style="font-family:Times; font-size:18pt; fill:#000000;text-anchor:start;" > 
<tspan>
H3C</tspan>
</text>
<text x="230" y="180" style="font-family:Times; font-size:18pt; fill:#000000;text-anchor:start;" > 
<tspan>
CH3</tspan>
</text>
<text x="493" y="236" style="font-family:Times; font-size:18pt; fill:#000000;text-anchor:start;" > 
<tspan>
CH3</tspan>
</text>
<text x="497" y="657" style="font-family:Times; font-size:18pt; fill:#000000;text-anchor:start;" > 
<tspan>
CH3</tspan>
</text>
<text x="348" y="405" style="font-family:Times; font-size:18pt; fill:#000000;text-anchor:start;" > 
<tspan>
H3C</tspan>
</text>
<text x="691" y="233" style="font-family:Times; font-size:18pt; fill:#000000;text-anchor:start;" > 
<tspan>
O</tspan>
</text>
<text x="693" y="553" style="font-family:Times; font-size:18pt; fill:#000000;text-anchor:start;" > 
<tspan>
O</tspan>
</text>
<text x="691" y="342" style="font-family:Times; font-size:18pt; fill:#000000;text-anchor:start;" > 
<tspan>
OH</tspan>
</text>
<text x="693" y="662" style="font-family:Times; font-size:18pt; fill:#000000;text-anchor:start;" > 
<tspan>
OH</tspan>
</text>
</g>
</svg>
