<?xml version="1.0" encoding="utf-8" standalone="no"?>
<!DOCTYPE svg PUBLIC "-//W3C//DTD SVG 1.1//EN"
  "http://www.w3.org/Graphics/SVG/1.1/DTD/svg11.dtd">
<!-- Created with matplotlib (http://matplotlib.org/) -->
<svg height="360pt" version="1.1" viewBox="0 0 396 360" width="396pt" xmlns="http://www.w3.org/2000/svg" xmlns:xlink="http://www.w3.org/1999/xlink">
 <defs>
  <style type="text/css">
*{stroke-linecap:butt;stroke-linejoin:round;}
  </style>
 </defs>
 <g id="figure_1">
  <g id="patch_1">
   <path d="M 0 360 
L 396 360 
L 396 0 
L 0 0 
z
" style="fill:none;opacity:0;"/>
  </g>
  <g id="axes_1">
   <g id="patch_2">
    <path d="M 117.472 281.48 
L 367.92 281.48 
L 367.92 28.08 
L 117.472 28.08 
z
" style="fill:#ffffff;"/>
   </g>
   <g id="matplotlib.axis_1">
    <g id="xtick_1">
     <g id="line2d_1">
      <defs>
       <path d="M 0 0 
L 0 2 
" id="m668f20094c" style="stroke:#262626;"/>
      </defs>
      <g>
       <use style="fill:#262626;stroke:#262626;" x="128.856" xlink:href="#m668f20094c" y="281.48"/>
      </g>
     </g>
     <g id="text_1">
      <text style="fill:#262626;font-family:Arial;font-size:20px;font-style:normal;font-weight:normal;text-anchor:middle;" transform="rotate(-0, 128.856, 304.795625)" x="128.856" y="304.795625">0</text>
     </g>
    </g>
    <g id="xtick_2">
     <g id="line2d_2">
      <g>
       <use style="fill:#262626;stroke:#262626;" x="210.170286" xlink:href="#m668f20094c" y="281.48"/>
      </g>
     </g>
     <g id="text_2">
      <text style="fill:#262626;font-family:Arial;font-size:20px;font-style:normal;font-weight:normal;text-anchor:middle;" transform="rotate(-0, 210.170286, 304.795625)" x="210.170286" y="304.795625">20</text>
     </g>
    </g>
    <g id="xtick_3">
     <g id="line2d_3">
      <g>
       <use style="fill:#262626;stroke:#262626;" x="291.484571" xlink:href="#m668f20094c" y="281.48"/>
      </g>
     </g>
     <g id="text_3">
      <text style="fill:#262626;font-family:Arial;font-size:20px;font-style:normal;font-weight:normal;text-anchor:middle;" transform="rotate(-0, 291.484571, 304.795625)" x="291.484571" y="304.795625">40</text>
     </g>
    </g>
    <g id="text_4">
     <text style="fill:#262626;font-family:Arial;font-size:22px;font-style:normal;font-weight:normal;text-anchor:middle;" transform="rotate(-0, 242.696, 328.785937)" x="242.696" y="328.785937">Number of Samples</text>
    </g>
   </g>
   <g id="matplotlib.axis_2">
    <g id="ytick_1">
     <g id="line2d_4">
      <defs>
       <path d="M 0 0 
L -2 0 
" id="m326ce677d3" style="stroke:#262626;"/>
      </defs>
      <g>
       <use style="fill:#262626;stroke:#262626;" x="117.472" xlink:href="#m326ce677d3" y="269.961818"/>
      </g>
     </g>
     <g id="text_5">
      <text style="fill:#262626;font-family:Arial;font-size:20px;font-style:normal;font-weight:normal;text-anchor:end;" transform="rotate(-0, 108.472, 277.119631)" x="108.472" y="277.119631">0</text>
     </g>
    </g>
    <g id="ytick_2">
     <g id="line2d_5">
      <g>
       <use style="fill:#262626;stroke:#262626;" x="117.472" xlink:href="#m326ce677d3" y="192.136265"/>
      </g>
     </g>
     <g id="text_6">
      <text style="fill:#262626;font-family:Arial;font-size:20px;font-style:normal;font-weight:normal;text-anchor:end;" transform="rotate(-0, 108.472, 199.294078)" x="108.472" y="199.294078">50</text>
     </g>
    </g>
    <g id="ytick_3">
     <g id="line2d_6">
      <g>
       <use style="fill:#262626;stroke:#262626;" x="117.472" xlink:href="#m326ce677d3" y="114.310713"/>
      </g>
     </g>
     <g id="text_7">
      <text style="fill:#262626;font-family:Arial;font-size:20px;font-style:normal;font-weight:normal;text-anchor:end;" transform="rotate(-0, 108.472, 121.468525)" x="108.472" y="121.468525">100</text>
     </g>
    </g>
    <g id="ytick_4">
     <g id="line2d_7">
      <g>
       <use style="fill:#262626;stroke:#262626;" x="117.472" xlink:href="#m326ce677d3" y="36.48516"/>
      </g>
     </g>
     <g id="text_8">
      <text style="fill:#262626;font-family:Arial;font-size:20px;font-style:normal;font-weight:normal;text-anchor:end;" transform="rotate(-0, 108.472, 43.642972)" x="108.472" y="43.642972">150</text>
     </g>
    </g>
    <g id="text_9">
     <text style="fill:#262626;font-family:Arial;font-size:22px;font-style:normal;font-weight:normal;" transform="translate(43.143 279.509688)rotate(-90)">Number of unique spliced</text>
     <text style="fill:#262626;font-family:Arial;font-size:22px;font-style:normal;font-weight:normal;" transform="translate(66.733875 255.050156)rotate(-90)">donor/acceptor pairs</text>
    </g>
   </g>
   <g id="PolyCollection_1">
    <defs>
     <path d="M 128.856 -90.038182 
L 128.856 -90.038182 
L 132.921714 -90.038182 
L 136.987429 -90.038182 
L 141.053143 -91.594693 
L 145.118857 -91.594693 
L 149.184571 -91.594693 
L 153.250286 -91.594693 
L 157.316 -91.594693 
L 161.381714 -91.594693 
L 165.447429 -93.151204 
L 169.513143 -93.151204 
L 173.578857 -94.707715 
L 177.644571 -94.707715 
L 181.710286 -96.264226 
L 185.776 -97.820737 
L 189.841714 -97.820737 
L 193.907429 -97.820737 
L 197.973143 -99.377248 
L 202.038857 -99.377248 
L 206.104571 -100.933759 
L 210.170286 -100.933759 
L 214.236 -100.933759 
L 218.301714 -100.933759 
L 222.367429 -100.933759 
L 226.433143 -102.49027 
L 230.498857 -102.49027 
L 234.564571 -104.046781 
L 238.630286 -104.046781 
L 242.696 -104.046781 
L 246.761714 -104.046781 
L 250.827429 -105.603292 
L 254.893143 -105.603292 
L 258.958857 -105.603292 
L 263.024571 -105.603292 
L 267.090286 -105.603292 
L 271.156 -105.603292 
L 275.221714 -105.603292 
L 279.287429 -107.159803 
L 283.353143 -107.159803 
L 287.418857 -107.159803 
L 291.484571 -107.159803 
L 295.550286 -107.159803 
L 299.616 -107.159803 
L 303.681714 -108.716314 
L 307.747429 -108.716314 
L 311.813143 -108.716314 
L 315.878857 -108.716314 
L 319.944571 -108.716314 
L 324.010286 -108.716314 
L 328.076 -108.716314 
L 332.141714 -108.716314 
L 336.207429 -108.716314 
L 340.273143 -108.716314 
L 344.338857 -110.272826 
L 348.404571 -110.272826 
L 352.470286 -110.272826 
L 356.536 -110.272826 
L 356.536 -110.272826 
L 356.536 -110.272826 
L 352.470286 -110.272826 
L 348.404571 -110.272826 
L 344.338857 -110.272826 
L 340.273143 -110.272826 
L 336.207429 -110.272826 
L 332.141714 -110.272826 
L 328.076 -110.272826 
L 324.010286 -110.272826 
L 319.944571 -110.272826 
L 315.878857 -110.272826 
L 311.813143 -110.272826 
L 307.747429 -110.272826 
L 303.681714 -110.272826 
L 299.616 -110.272826 
L 295.550286 -110.272826 
L 291.484571 -110.272826 
L 287.418857 -110.272826 
L 283.353143 -110.272826 
L 279.287429 -110.272826 
L 275.221714 -110.272826 
L 271.156 -110.272826 
L 267.090286 -110.272826 
L 263.024571 -110.272826 
L 258.958857 -110.272826 
L 254.893143 -110.272826 
L 250.827429 -110.272826 
L 246.761714 -110.272826 
L 242.696 -110.272826 
L 238.630286 -110.272826 
L 234.564571 -110.272826 
L 230.498857 -108.716314 
L 226.433143 -108.716314 
L 222.367429 -108.716314 
L 218.301714 -108.716314 
L 214.236 -108.716314 
L 210.170286 -108.716314 
L 206.104571 -108.716314 
L 202.038857 -108.716314 
L 197.973143 -107.159803 
L 193.907429 -107.159803 
L 189.841714 -105.603292 
L 185.776 -105.603292 
L 181.710286 -105.603292 
L 177.644571 -104.046781 
L 173.578857 -104.046781 
L 169.513143 -104.046781 
L 165.447429 -102.49027 
L 161.381714 -100.933759 
L 157.316 -99.377248 
L 153.250286 -97.820737 
L 149.184571 -97.820737 
L 145.118857 -96.264226 
L 141.053143 -93.151204 
L 136.987429 -91.594693 
L 132.921714 -90.038182 
L 128.856 -90.038182 
z
" id="m7838709f80" style="stroke:#d55e00;stroke-opacity:0.2;stroke-width:0.3;"/>
    </defs>
    <g clip-path="url(#p6d203ee5a1)">
     <use style="fill:#d55e00;fill-opacity:0.2;stroke:#d55e00;stroke-opacity:0.2;stroke-width:0.3;" x="0" xlink:href="#m7838709f80" y="360"/>
    </g>
   </g>
   <g id="PolyCollection_2">
    <defs>
     <path d="M 128.856 -90.038182 
L 128.856 -90.038182 
L 132.921714 -90.038182 
L 136.987429 -90.038182 
L 141.053143 -90.038182 
L 145.118857 -90.038182 
L 149.184571 -90.038182 
L 153.250286 -91.594693 
L 157.316 -94.707715 
L 161.381714 -97.820737 
L 165.447429 -100.933759 
L 169.513143 -104.046781 
L 173.578857 -108.716314 
L 177.644571 -111.829337 
L 181.710286 -114.942359 
L 185.776 -121.168403 
L 189.841714 -125.837936 
L 193.907429 -132.06398 
L 197.973143 -132.06398 
L 202.038857 -139.846536 
L 206.104571 -144.516069 
L 210.170286 -149.185602 
L 214.236 -155.933077 
L 218.301714 -153.855135 
L 222.367429 -158.524668 
L 226.433143 -169.941677 
L 230.498857 -169.420246 
L 234.564571 -175.64629 
L 238.630286 -177.202801 
L 242.696 -181.872334 
L 246.761714 -184.985356 
L 250.827429 -195.880934 
L 254.893143 -197.437445 
L 258.958857 -203.663489 
L 263.024571 -205.741431 
L 267.090286 -213.002555 
L 271.156 -211.446044 
L 275.221714 -216.637009 
L 279.287429 -219.750031 
L 283.353143 -227.011155 
L 287.418857 -237.906732 
L 291.484571 -237.906732 
L 295.550286 -236.350221 
L 299.616 -241.019754 
L 303.681714 -250.358821 
L 307.747429 -256.584865 
L 311.813143 -259.697887 
L 315.878857 -261.254398 
L 319.944571 -271.114896 
L 324.010286 -269.558385 
L 328.076 -275.262998 
L 332.141714 -279.932531 
L 336.207429 -286.158575 
L 340.273143 -289.271597 
L 344.338857 -295.497641 
L 348.404571 -298.610663 
L 352.470286 -307.94973 
L 356.536 -314.175774 
L 356.536 -320.401818 
L 356.536 -320.401818 
L 352.470286 -320.401818 
L 348.404571 -320.401818 
L 344.338857 -320.401818 
L 340.273143 -318.845307 
L 336.207429 -318.845307 
L 332.141714 -315.732285 
L 328.076 -314.175774 
L 324.010286 -312.619263 
L 319.944571 -311.062752 
L 315.878857 -307.94973 
L 311.813143 -306.393219 
L 307.747429 -304.836708 
L 303.681714 -300.167174 
L 299.616 -296.532721 
L 295.550286 -293.94113 
L 291.484571 -293.94113 
L 287.418857 -289.271597 
L 283.353143 -286.158575 
L 279.287429 -283.045553 
L 275.221714 -281.489042 
L 271.156 -275.262998 
L 267.090286 -276.819509 
L 263.024571 -270.593464 
L 258.958857 -267.480442 
L 254.893143 -262.810909 
L 250.827429 -258.141376 
L 246.761714 -251.915332 
L 242.696 -250.358821 
L 238.630286 -247.245799 
L 234.564571 -245.689287 
L 230.498857 -234.79371 
L 226.433143 -234.272279 
L 222.367429 -234.272279 
L 218.301714 -228.046235 
L 214.236 -222.341622 
L 210.170286 -216.115577 
L 206.104571 -217.672088 
L 202.038857 -208.333022 
L 197.973143 -203.663489 
L 193.907429 -197.437445 
L 189.841714 -194.324423 
L 185.776 -189.654889 
L 181.710286 -181.872334 
L 177.644571 -177.202801 
L 173.578857 -174.089779 
L 169.513143 -165.785792 
L 165.447429 -158.524668 
L 161.381714 -152.298624 
L 157.316 -142.959558 
L 153.250286 -133.620491 
L 149.184571 -122.724914 
L 145.118857 -113.385848 
L 141.053143 -104.046781 
L 136.987429 -93.151204 
L 132.921714 -90.038182 
L 128.856 -90.038182 
z
" id="m910963985b" style="stroke:#0072b2;stroke-opacity:0.2;stroke-width:0.3;"/>
    </defs>
    <g clip-path="url(#p6d203ee5a1)">
     <use style="fill:#0072b2;fill-opacity:0.2;stroke:#0072b2;stroke-opacity:0.2;stroke-width:0.3;" x="0" xlink:href="#m910963985b" y="360"/>
    </g>
   </g>
   <g id="line2d_8">
    <path clip-path="url(#p6d203ee5a1)" d="M 128.856 269.961818 
L 132.921714 269.961818 
L 136.987429 268.660575 
L 141.053143 267.592808 
L 145.118857 266.926622 
L 149.184571 266.095445 
L 153.250286 265.251816 
L 157.316 264.084432 
L 161.381714 263.091378 
L 165.447429 262.179263 
L 169.513143 261.388555 
L 173.578857 260.501344 
L 177.644571 259.931661 
L 181.710286 259.542533 
L 185.776 258.61174 
L 189.841714 258.144786 
L 193.907429 257.357192 
L 197.973143 256.952499 
L 202.038857 256.354799 
L 206.104571 255.878506 
L 210.170286 255.623238 
L 214.236 254.93526 
L 218.301714 254.835644 
L 222.367429 254.627071 
L 226.433143 253.861268 
L 230.498857 253.87372 
L 234.564571 253.627791 
L 238.630286 253.251115 
L 242.696 253.064334 
L 246.761714 252.700111 
L 250.827429 252.510216 
L 254.893143 252.258061 
L 258.958857 252.170897 
L 263.024571 252.030811 
L 267.090286 251.71017 
L 271.156 251.744413 
L 275.221714 251.7413 
L 279.287429 251.439337 
L 283.353143 251.271233 
L 287.418857 251.124921 
L 291.484571 251.087565 
L 295.550286 251.1436 
L 299.616 251.043983 
L 303.681714 250.782489 
L 307.747429 250.726455 
L 311.813143 250.689098 
L 315.878857 250.667307 
L 319.944571 250.399587 
L 324.010286 250.4743 
L 328.076 250.337327 
L 332.141714 250.327988 
L 336.207429 250.153658 
L 340.273143 250.128754 
L 344.338857 250.029138 
L 348.404571 249.920182 
L 352.470286 249.920182 
L 356.536 249.823678 
" style="fill:none;stroke:#d55e00;stroke-linecap:round;stroke-width:1.75;"/>
   </g>
   <g id="line2d_9">
    <path clip-path="url(#p6d203ee5a1)" d="M 128.856 269.961818 
L 132.921714 269.961818 
L 136.987429 267.247263 
L 141.053143 262.854789 
L 145.118857 258.966624 
L 149.184571 254.281526 
L 153.250286 249.219752 
L 157.316 241.141459 
L 161.381714 235.429064 
L 165.447429 229.663747 
L 169.513143 225.395794 
L 173.578857 219.191541 
L 177.644571 215.418558 
L 181.710286 211.52728 
L 185.776 204.351764 
L 189.841714 200.326627 
L 193.907429 195.38626 
L 197.973143 191.666199 
L 202.038857 184.278998 
L 206.104571 179.699742 
L 210.170286 178.15257 
L 214.236 170.295302 
L 218.301714 169.566855 
L 222.367429 164.430369 
L 226.433143 158.001978 
L 230.498857 157.404278 
L 234.564571 150.705054 
L 238.630286 147.865978 
L 242.696 144.382506 
L 246.761714 140.310673 
L 250.827429 133.533624 
L 254.893143 129.477356 
L 258.958857 124.375113 
L 263.024571 122.077703 
L 267.090286 115.303767 
L 271.156 116.225221 
L 275.221714 111.113639 
L 279.287429 107.496307 
L 283.353143 102.559054 
L 287.418857 96.79685 
L 291.484571 93.99513 
L 295.550286 94.446518 
L 299.616 90.02914 
L 303.681714 85.509032 
L 307.747429 80.328963 
L 311.813143 77.384044 
L 315.878857 75.706125 
L 319.944571 70.199189 
L 324.010286 69.041145 
L 328.076 65.084494 
L 332.141714 62.562946 
L 336.207429 56.900359 
L 340.273143 54.901799 
L 344.338857 51.440118 
L 348.404571 48.700658 
L 352.470286 45.78687 
L 356.536 42.742334 
" style="fill:none;stroke:#0072b2;stroke-linecap:round;stroke-width:1.75;"/>
   </g>
   <g id="patch_3">
    <path d="M 117.472 281.48 
L 117.472 28.08 
" style="fill:none;stroke:#262626;stroke-linecap:square;stroke-linejoin:miter;stroke-width:1.25;"/>
   </g>
   <g id="patch_4">
    <path d="M 367.92 281.48 
L 367.92 28.08 
" style="fill:none;stroke:#262626;stroke-linecap:square;stroke-linejoin:miter;stroke-width:1.25;"/>
   </g>
   <g id="patch_5">
    <path d="M 117.472 281.48 
L 367.92 281.48 
" style="fill:none;stroke:#262626;stroke-linecap:square;stroke-linejoin:miter;stroke-width:1.25;"/>
   </g>
   <g id="patch_6">
    <path d="M 117.472 28.08 
L 367.92 28.08 
" style="fill:none;stroke:#262626;stroke-linecap:square;stroke-linejoin:miter;stroke-width:1.25;"/>
   </g>
   <g id="legend_1">
    <g id="line2d_10">
     <path d="M 135.472 53.395625 
L 175.472 53.395625 
" style="fill:none;stroke:#d55e00;stroke-linecap:round;stroke-width:1.75;"/>
    </g>
    <g id="line2d_11"/>
    <g id="text_10">
     <text style="fill:#262626;font-family:Arial;font-size:20px;font-style:normal;font-weight:normal;text-anchor:start;" transform="rotate(-0, 191.472, 60.395625)" x="191.472" y="60.395625">Simulated</text>
    </g>
    <g id="line2d_12">
     <path d="M 135.472 81.68625 
L 175.472 81.68625 
" style="fill:none;stroke:#0072b2;stroke-linecap:round;stroke-width:1.75;"/>
    </g>
    <g id="line2d_13"/>
    <g id="text_11">
     <text style="fill:#262626;font-family:Arial;font-size:20px;font-style:normal;font-weight:normal;text-anchor:start;" transform="rotate(-0, 191.472, 88.68625)" x="191.472" y="88.68625">Real</text>
    </g>
   </g>
  </g>
 </g>
 <defs>
  <clipPath id="p6d203ee5a1">
   <rect height="253.4" width="250.448" x="117.472" y="28.08"/>
  </clipPath>
 </defs>
</svg>
