<?xml version="1.0" encoding="utf-8" standalone="no"?>
<!DOCTYPE svg PUBLIC "-//W3C//DTD SVG 1.1//EN"
  "http://www.w3.org/Graphics/SVG/1.1/DTD/svg11.dtd">
<!-- Created with matplotlib (http://matplotlib.org/) -->
<svg height="432pt" version="1.1" viewBox="0 0 396 432" width="396pt" xmlns="http://www.w3.org/2000/svg" xmlns:xlink="http://www.w3.org/1999/xlink">
 <defs>
  <style type="text/css">
*{stroke-linecap:butt;stroke-linejoin:round;}
  </style>
 </defs>
 <g id="figure_1">
  <g id="patch_1">
   <path d="M 0 432 
L 396 432 
L 396 0 
L 0 0 
z
" style="fill:#ffffff;"/>
  </g>
  <g id="axes_1">
   <g id="patch_2">
    <path d="M 62.795 378.08 
L 356.1425 378.08 
L 356.1425 88.776 
L 62.795 88.776 
z
" style="fill:#ffffff;"/>
   </g>
   <g id="matplotlib.axis_1">
    <g id="xtick_1">
     <g id="line2d_1">
      <defs>
       <path d="M 0 0 
L 0 2 
" id="m91b7ce0e08" style="stroke:#262626;"/>
      </defs>
      <g>
       <use style="fill:#262626;stroke:#262626;" x="62.795" xlink:href="#m91b7ce0e08" y="378.08"/>
      </g>
     </g>
     <g id="text_1">
      <text style="fill:#262626;font-family:Arial;font-size:20px;font-style:normal;font-weight:normal;text-anchor:middle;" transform="rotate(-0, 62.795, 401.395625)" x="62.795" y="401.395625">−1.0</text>
     </g>
    </g>
    <g id="xtick_2">
     <g id="line2d_2">
      <g>
       <use style="fill:#262626;stroke:#262626;" x="136.131875" xlink:href="#m91b7ce0e08" y="378.08"/>
      </g>
     </g>
     <g id="text_2">
      <text style="fill:#262626;font-family:Arial;font-size:20px;font-style:normal;font-weight:normal;text-anchor:middle;" transform="rotate(-0, 136.131875, 401.395625)" x="136.131875" y="401.395625">−0.5</text>
     </g>
    </g>
    <g id="xtick_3">
     <g id="line2d_3">
      <g>
       <use style="fill:#262626;stroke:#262626;" x="209.46875" xlink:href="#m91b7ce0e08" y="378.08"/>
      </g>
     </g>
     <g id="text_3">
      <text style="fill:#262626;font-family:Arial;font-size:20px;font-style:normal;font-weight:normal;text-anchor:middle;" transform="rotate(-0, 209.46875, 401.395625)" x="209.46875" y="401.395625">0.0</text>
     </g>
    </g>
    <g id="xtick_4">
     <g id="line2d_4">
      <g>
       <use style="fill:#262626;stroke:#262626;" x="282.805625" xlink:href="#m91b7ce0e08" y="378.08"/>
      </g>
     </g>
     <g id="text_4">
      <text style="fill:#262626;font-family:Arial;font-size:20px;font-style:normal;font-weight:normal;text-anchor:middle;" transform="rotate(-0, 282.805625, 401.395625)" x="282.805625" y="401.395625">0.5</text>
     </g>
    </g>
    <g id="xtick_5">
     <g id="line2d_5">
      <g>
       <use style="fill:#262626;stroke:#262626;" x="356.1425" xlink:href="#m91b7ce0e08" y="378.08"/>
      </g>
     </g>
     <g id="text_5">
      <text style="fill:#262626;font-family:Arial;font-size:20px;font-style:normal;font-weight:normal;text-anchor:middle;" transform="rotate(-0, 356.1425, 401.395625)" x="356.1425" y="401.395625">1.0</text>
     </g>
    </g>
    <g id="text_6">
     <text style="fill:#262626;font-family:Arial;font-size:22px;font-style:normal;font-weight:normal;text-anchor:middle;" transform="rotate(-0, 209.46875, 425.117813)" x="209.46875" y="425.117813">PG4 skew</text>
    </g>
   </g>
   <g id="matplotlib.axis_2">
    <g id="ytick_1">
     <g id="line2d_6">
      <defs>
       <path d="M 0 0 
L -2 0 
" id="m8d06468c40" style="stroke:#262626;"/>
      </defs>
      <g>
       <use style="fill:#262626;stroke:#262626;" x="62.795" xlink:href="#m8d06468c40" y="378.08"/>
      </g>
     </g>
     <g id="text_7">
      <text style="fill:#262626;font-family:Arial;font-size:20px;font-style:normal;font-weight:normal;text-anchor:end;" transform="rotate(-0, 53.795, 385.237813)" x="53.795" y="385.237813">−0.4</text>
     </g>
    </g>
    <g id="ytick_2">
     <g id="line2d_7">
      <g>
       <use style="fill:#262626;stroke:#262626;" x="62.795" xlink:href="#m8d06468c40" y="325.479273"/>
      </g>
     </g>
     <g id="text_8">
      <text style="fill:#262626;font-family:Arial;font-size:20px;font-style:normal;font-weight:normal;text-anchor:end;" transform="rotate(-0, 53.795, 332.637085)" x="53.795" y="332.637085">−0.2</text>
     </g>
    </g>
    <g id="ytick_3">
     <g id="line2d_8">
      <g>
       <use style="fill:#262626;stroke:#262626;" x="62.795" xlink:href="#m8d06468c40" y="272.878545"/>
      </g>
     </g>
     <g id="text_9">
      <text style="fill:#262626;font-family:Arial;font-size:20px;font-style:normal;font-weight:normal;text-anchor:end;" transform="rotate(-0, 53.795, 280.036358)" x="53.795" y="280.036358">0.0</text>
     </g>
    </g>
    <g id="ytick_4">
     <g id="line2d_9">
      <g>
       <use style="fill:#262626;stroke:#262626;" x="62.795" xlink:href="#m8d06468c40" y="220.277818"/>
      </g>
     </g>
     <g id="text_10">
      <text style="fill:#262626;font-family:Arial;font-size:20px;font-style:normal;font-weight:normal;text-anchor:end;" transform="rotate(-0, 53.795, 227.435631)" x="53.795" y="227.435631">0.2</text>
     </g>
    </g>
    <g id="ytick_5">
     <g id="line2d_10">
      <g>
       <use style="fill:#262626;stroke:#262626;" x="62.795" xlink:href="#m8d06468c40" y="167.677091"/>
      </g>
     </g>
     <g id="text_11">
      <text style="fill:#262626;font-family:Arial;font-size:20px;font-style:normal;font-weight:normal;text-anchor:end;" transform="rotate(-0, 53.795, 174.834903)" x="53.795" y="174.834903">0.4</text>
     </g>
    </g>
    <g id="ytick_6">
     <g id="line2d_11">
      <g>
       <use style="fill:#262626;stroke:#262626;" x="62.795" xlink:href="#m8d06468c40" y="115.076364"/>
      </g>
     </g>
     <g id="text_12">
      <text style="fill:#262626;font-family:Arial;font-size:20px;font-style:normal;font-weight:normal;text-anchor:end;" transform="rotate(-0, 53.795, 122.234176)" x="53.795" y="122.234176">0.6</text>
     </g>
    </g>
    <g id="text_13">
     <text style="fill:#262626;font-family:Arial;font-size:22px;font-style:normal;font-weight:normal;text-anchor:middle;" transform="rotate(-90, 5.94125, 233.428)" x="5.94125" y="233.428">Partial Dependence</text>
    </g>
   </g>
   <g id="line2d_12">
    <path clip-path="url(#pa273c01e9d)" d="M 62.795 272.315516 
L 65.758106 272.315516 
L 68.721212 272.315516 
L 71.684318 272.315516 
L 74.647424 272.306104 
L 77.61053 271.157507 
L 80.573636 271.157507 
L 83.536742 271.157507 
L 86.499848 271.275588 
L 89.462955 271.275588 
L 92.426061 271.275588 
L 95.389167 271.275588 
L 98.352273 271.275588 
L 101.315379 271.275588 
L 104.278485 271.275588 
L 107.241591 271.275588 
L 110.204697 270.9824 
L 113.167803 270.645997 
L 116.130909 270.645997 
L 119.094015 270.645997 
L 122.057121 270.645997 
L 125.020227 270.645997 
L 127.983333 270.645997 
L 130.946439 270.677011 
L 133.909545 270.677011 
L 136.872652 270.677011 
L 139.835758 270.677011 
L 142.798864 270.677011 
L 145.76197 270.677011 
L 148.725076 270.649031 
L 151.688182 270.649031 
L 154.651288 270.649031 
L 157.614394 270.649031 
L 160.5775 270.649031 
L 163.540606 270.64309 
L 166.503712 270.64309 
L 169.466818 270.64309 
L 172.429924 270.64309 
L 175.39303 270.64309 
L 178.356136 270.64309 
L 181.319242 270.64309 
L 184.282348 270.64309 
L 187.245455 270.649736 
L 190.208561 270.649736 
L 193.171667 270.649736 
L 196.134773 270.649736 
L 199.097879 270.649736 
L 202.060985 270.649736 
L 205.024091 270.649736 
L 207.987197 270.649736 
L 210.950303 270.649736 
L 213.913409 270.649736 
L 216.876515 270.649736 
L 219.839621 269.698675 
L 222.802727 269.698675 
L 225.765833 269.698675 
L 228.728939 269.698675 
L 231.692045 269.698675 
L 234.655152 269.698675 
L 237.618258 269.698675 
L 240.581364 269.698675 
L 243.54447 269.698675 
L 246.507576 269.698675 
L 249.470682 269.698675 
L 252.433788 269.92247 
L 255.396894 269.92247 
L 258.36 269.92247 
L 261.323106 269.92247 
L 264.286212 270.636656 
L 267.249318 270.636656 
L 270.212424 270.636656 
L 273.17553 270.604225 
L 276.138636 270.604225 
L 279.101742 270.55087 
L 282.064848 271.562812 
L 285.027955 271.562812 
L 287.991061 271.977131 
L 290.954167 271.977131 
L 293.917273 271.977131 
L 296.880379 272.145983 
L 299.843485 272.182682 
L 302.806591 272.182682 
L 305.769697 272.182682 
L 308.732803 272.16811 
L 311.695909 272.884062 
L 314.659015 272.884062 
L 317.622121 272.884062 
L 320.585227 272.884062 
L 323.548333 272.884062 
L 326.511439 274.617113 
L 329.474545 274.617113 
L 332.437652 274.617113 
L 335.400758 276.16539 
L 338.363864 276.16539 
L 341.32697 276.16539 
L 344.290076 277.632718 
L 347.253182 277.632718 
L 350.216288 277.632718 
L 353.179394 277.632718 
L 356.1425 277.632718 
" style="fill:none;stroke:#0072b2;stroke-linecap:round;stroke-width:1.75;"/>
   </g>
   <g id="patch_3">
    <path d="M 62.795 378.08 
L 62.795 88.776 
" style="fill:none;stroke:#262626;stroke-linecap:square;stroke-linejoin:miter;stroke-width:1.25;"/>
   </g>
   <g id="patch_4">
    <path d="M 356.1425 378.08 
L 356.1425 88.776 
" style="fill:none;stroke:#262626;stroke-linecap:square;stroke-linejoin:miter;stroke-width:1.25;"/>
   </g>
   <g id="patch_5">
    <path d="M 62.795 378.08 
L 356.1425 378.08 
" style="fill:none;stroke:#262626;stroke-linecap:square;stroke-linejoin:miter;stroke-width:1.25;"/>
   </g>
  </g>
  <g id="axes_2">
   <g id="patch_6">
    <path d="M 62.795 78.8 
L 356.1425 78.8 
L 356.1425 28.92 
L 62.795 28.92 
z
" style="fill:#ffffff;"/>
   </g>
   <g id="matplotlib.axis_3">
    <g id="xtick_6">
     <g id="line2d_13">
      <g>
       <use style="fill:#262626;stroke:#262626;" x="62.795" xlink:href="#m91b7ce0e08" y="78.8"/>
      </g>
     </g>
    </g>
    <g id="xtick_7">
     <g id="line2d_14">
      <g>
       <use style="fill:#262626;stroke:#262626;" x="136.131875" xlink:href="#m91b7ce0e08" y="78.8"/>
      </g>
     </g>
    </g>
    <g id="xtick_8">
     <g id="line2d_15">
      <g>
       <use style="fill:#262626;stroke:#262626;" x="209.46875" xlink:href="#m91b7ce0e08" y="78.8"/>
      </g>
     </g>
    </g>
    <g id="xtick_9">
     <g id="line2d_16">
      <g>
       <use style="fill:#262626;stroke:#262626;" x="282.805625" xlink:href="#m91b7ce0e08" y="78.8"/>
      </g>
     </g>
    </g>
    <g id="xtick_10">
     <g id="line2d_17">
      <g>
       <use style="fill:#262626;stroke:#262626;" x="356.1425" xlink:href="#m91b7ce0e08" y="78.8"/>
      </g>
     </g>
    </g>
   </g>
   <g id="matplotlib.axis_4">
    <g id="ytick_7"/>
    <g id="ytick_8"/>
   </g>
   <g id="patch_7">
    <path clip-path="url(#p10642f3a2a)" d="M 62.795 78.8 
L 92.12975 78.8 
L 92.12975 58.636847 
L 62.795 58.636847 
z
" style="fill:#0072b2;"/>
   </g>
   <g id="patch_8">
    <path clip-path="url(#p10642f3a2a)" d="M 92.12975 78.8 
L 121.4645 78.8 
L 121.4645 77.418451 
L 92.12975 77.418451 
z
" style="fill:#0072b2;"/>
   </g>
   <g id="patch_9">
    <path clip-path="url(#p10642f3a2a)" d="M 121.4645 78.8 
L 150.79925 78.8 
L 150.79925 73.301807 
L 121.4645 73.301807 
z
" style="fill:#0072b2;"/>
   </g>
   <g id="patch_10">
    <path clip-path="url(#p10642f3a2a)" d="M 150.79925 78.8 
L 180.134 78.8 
L 180.134 67.626253 
L 150.79925 67.626253 
z
" style="fill:#0072b2;"/>
   </g>
   <g id="patch_11">
    <path clip-path="url(#p10642f3a2a)" d="M 180.134 78.8 
L 209.46875 78.8 
L 209.46875 77.00772 
L 180.134 77.00772 
z
" style="fill:#0072b2;"/>
   </g>
   <g id="patch_12">
    <path clip-path="url(#p10642f3a2a)" d="M 209.46875 78.8 
L 238.8035 78.8 
L 238.8035 52.895949 
L 209.46875 52.895949 
z
" style="fill:#0072b2;"/>
   </g>
   <g id="patch_13">
    <path clip-path="url(#p10642f3a2a)" d="M 238.8035 78.8 
L 268.13825 78.8 
L 268.13825 65.367233 
L 238.8035 65.367233 
z
" style="fill:#0072b2;"/>
   </g>
   <g id="patch_14">
    <path clip-path="url(#p10642f3a2a)" d="M 268.13825 78.8 
L 297.473 78.8 
L 297.473 65.320559 
L 268.13825 65.320559 
z
" style="fill:#0072b2;"/>
   </g>
   <g id="patch_15">
    <path clip-path="url(#p10642f3a2a)" d="M 297.473 78.8 
L 326.80775 78.8 
L 326.80775 74.309965 
L 297.473 74.309965 
z
" style="fill:#0072b2;"/>
   </g>
   <g id="patch_16">
    <path clip-path="url(#p10642f3a2a)" d="M 326.80775 78.8 
L 356.1425 78.8 
L 356.1425 31.295238 
L 326.80775 31.295238 
z
" style="fill:#0072b2;"/>
   </g>
   <g id="patch_17">
    <path d="M 62.795 78.8 
L 356.1425 78.8 
" style="fill:none;stroke:#262626;stroke-linecap:square;stroke-linejoin:miter;stroke-width:1.25;"/>
   </g>
  </g>
 </g>
 <defs>
  <clipPath id="pa273c01e9d">
   <rect height="289.304" width="293.3475" x="62.795" y="88.776"/>
  </clipPath>
  <clipPath id="p10642f3a2a">
   <rect height="49.88" width="293.3475" x="62.795" y="28.92"/>
  </clipPath>
 </defs>
</svg>
