<?xml version="1.0" encoding="utf-8" standalone="no"?>
<!DOCTYPE svg PUBLIC "-//W3C//DTD SVG 1.1//EN"
  "http://www.w3.org/Graphics/SVG/1.1/DTD/svg11.dtd">
<!-- Created with matplotlib (http://matplotlib.org/) -->
<svg height="432pt" version="1.1" viewBox="0 0 396 432" width="396pt" xmlns="http://www.w3.org/2000/svg" xmlns:xlink="http://www.w3.org/1999/xlink">
 <defs>
  <style type="text/css">
*{stroke-linecap:butt;stroke-linejoin:round;}
  </style>
 </defs>
 <g id="figure_1">
  <g id="patch_1">
   <path d="M 0 432 
L 396 432 
L 396 0 
L 0 0 
z
" style="fill:#ffffff;"/>
  </g>
  <g id="axes_1">
   <g id="patch_2">
    <path d="M 62.795 378.08 
L 356.1425 378.08 
L 356.1425 88.776 
L 62.795 88.776 
z
" style="fill:#ffffff;"/>
   </g>
   <g id="matplotlib.axis_1">
    <g id="xtick_1">
     <g id="line2d_1">
      <defs>
       <path d="M 0 0 
L 0 2 
" id="m41463a9269" style="stroke:#262626;"/>
      </defs>
      <g>
       <use style="fill:#262626;stroke:#262626;" x="117.708616" xlink:href="#m41463a9269" y="378.08"/>
      </g>
     </g>
     <g id="text_1">
      <text style="fill:#262626;font-family:Arial;font-size:20px;font-style:normal;font-weight:normal;text-anchor:middle;" transform="rotate(-0, 117.708616, 401.395625)" x="117.708616" y="401.395625">0.35</text>
     </g>
    </g>
    <g id="xtick_2">
     <g id="line2d_2">
      <g>
       <use style="fill:#262626;stroke:#262626;" x="205.058487" xlink:href="#m41463a9269" y="378.08"/>
      </g>
     </g>
     <g id="text_2">
      <text style="fill:#262626;font-family:Arial;font-size:20px;font-style:normal;font-weight:normal;text-anchor:middle;" transform="rotate(-0, 205.058487, 401.395625)" x="205.058487" y="401.395625">0.40</text>
     </g>
    </g>
    <g id="xtick_3">
     <g id="line2d_3">
      <g>
       <use style="fill:#262626;stroke:#262626;" x="292.408357" xlink:href="#m41463a9269" y="378.08"/>
      </g>
     </g>
     <g id="text_3">
      <text style="fill:#262626;font-family:Arial;font-size:20px;font-style:normal;font-weight:normal;text-anchor:middle;" transform="rotate(-0, 292.408357, 401.395625)" x="292.408357" y="401.395625">0.45</text>
     </g>
    </g>
    <g id="text_4">
     <text style="fill:#262626;font-family:Arial;font-size:22px;font-style:normal;font-weight:normal;text-anchor:middle;" transform="rotate(-0, 209.46875, 425.117813)" x="209.46875" y="425.117813">GC content</text>
    </g>
   </g>
   <g id="matplotlib.axis_2">
    <g id="ytick_1">
     <g id="line2d_4">
      <defs>
       <path d="M 0 0 
L -2 0 
" id="m73e8fd9661" style="stroke:#262626;"/>
      </defs>
      <g>
       <use style="fill:#262626;stroke:#262626;" x="62.795" xlink:href="#m73e8fd9661" y="378.08"/>
      </g>
     </g>
     <g id="text_5">
      <text style="fill:#262626;font-family:Arial;font-size:20px;font-style:normal;font-weight:normal;text-anchor:end;" transform="rotate(-0, 53.795, 385.237813)" x="53.795" y="385.237813">−0.4</text>
     </g>
    </g>
    <g id="ytick_2">
     <g id="line2d_5">
      <g>
       <use style="fill:#262626;stroke:#262626;" x="62.795" xlink:href="#m73e8fd9661" y="325.479273"/>
      </g>
     </g>
     <g id="text_6">
      <text style="fill:#262626;font-family:Arial;font-size:20px;font-style:normal;font-weight:normal;text-anchor:end;" transform="rotate(-0, 53.795, 332.637085)" x="53.795" y="332.637085">−0.2</text>
     </g>
    </g>
    <g id="ytick_3">
     <g id="line2d_6">
      <g>
       <use style="fill:#262626;stroke:#262626;" x="62.795" xlink:href="#m73e8fd9661" y="272.878545"/>
      </g>
     </g>
     <g id="text_7">
      <text style="fill:#262626;font-family:Arial;font-size:20px;font-style:normal;font-weight:normal;text-anchor:end;" transform="rotate(-0, 53.795, 280.036358)" x="53.795" y="280.036358">0.0</text>
     </g>
    </g>
    <g id="ytick_4">
     <g id="line2d_7">
      <g>
       <use style="fill:#262626;stroke:#262626;" x="62.795" xlink:href="#m73e8fd9661" y="220.277818"/>
      </g>
     </g>
     <g id="text_8">
      <text style="fill:#262626;font-family:Arial;font-size:20px;font-style:normal;font-weight:normal;text-anchor:end;" transform="rotate(-0, 53.795, 227.435631)" x="53.795" y="227.435631">0.2</text>
     </g>
    </g>
    <g id="ytick_5">
     <g id="line2d_8">
      <g>
       <use style="fill:#262626;stroke:#262626;" x="62.795" xlink:href="#m73e8fd9661" y="167.677091"/>
      </g>
     </g>
     <g id="text_9">
      <text style="fill:#262626;font-family:Arial;font-size:20px;font-style:normal;font-weight:normal;text-anchor:end;" transform="rotate(-0, 53.795, 174.834903)" x="53.795" y="174.834903">0.4</text>
     </g>
    </g>
    <g id="ytick_6">
     <g id="line2d_9">
      <g>
       <use style="fill:#262626;stroke:#262626;" x="62.795" xlink:href="#m73e8fd9661" y="115.076364"/>
      </g>
     </g>
     <g id="text_10">
      <text style="fill:#262626;font-family:Arial;font-size:20px;font-style:normal;font-weight:normal;text-anchor:end;" transform="rotate(-0, 53.795, 122.234176)" x="53.795" y="122.234176">0.6</text>
     </g>
    </g>
    <g id="text_11">
     <text style="fill:#262626;font-family:Arial;font-size:22px;font-style:normal;font-weight:normal;text-anchor:middle;" transform="rotate(-90, 5.94125, 233.428)" x="5.94125" y="233.428">Partial Dependence</text>
    </g>
   </g>
   <g id="line2d_10">
    <path clip-path="url(#pf8b7094ee5)" d="M 62.795 280.708617 
L 65.758106 280.708617 
L 68.721212 280.708617 
L 71.684318 280.708617 
L 74.647424 280.708617 
L 77.61053 278.673616 
L 80.573636 278.044085 
L 83.536742 278.044085 
L 86.499848 278.044085 
L 89.462955 281.710265 
L 92.426061 278.434454 
L 95.389167 273.41152 
L 98.352273 271.198437 
L 101.315379 272.218625 
L 104.278485 276.615092 
L 107.241591 276.615092 
L 110.204697 277.399234 
L 113.167803 278.993374 
L 116.130909 278.993374 
L 119.094015 278.993374 
L 122.057121 279.749238 
L 125.020227 279.749238 
L 127.983333 279.749238 
L 130.946439 279.749238 
L 133.909545 280.899878 
L 136.872652 278.758443 
L 139.835758 278.914486 
L 142.798864 284.178943 
L 145.76197 281.098346 
L 148.725076 281.098346 
L 151.688182 279.833477 
L 154.651288 279.678562 
L 157.614394 279.678562 
L 160.5775 279.678562 
L 163.540606 278.931942 
L 166.503712 278.466005 
L 169.466818 274.829178 
L 172.429924 276.945225 
L 175.39303 283.756823 
L 178.356136 270.785606 
L 181.319242 269.570902 
L 184.282348 269.536057 
L 187.245455 269.536057 
L 190.208561 270.305044 
L 193.171667 275.616204 
L 196.134773 275.616204 
L 199.097879 265.201225 
L 202.060985 266.892762 
L 205.024091 266.892762 
L 207.987197 266.892762 
L 210.950303 266.892762 
L 213.913409 266.892762 
L 216.876515 266.869081 
L 219.839621 266.892518 
L 222.802727 267.964271 
L 225.765833 267.968971 
L 228.728939 267.880404 
L 231.692045 267.941707 
L 234.655152 267.941707 
L 237.618258 267.941707 
L 240.581364 267.941707 
L 243.54447 268.96528 
L 246.507576 268.96528 
L 249.470682 273.341083 
L 252.433788 273.341083 
L 255.396894 267.409188 
L 258.36 268.147944 
L 261.323106 266.953645 
L 264.286212 266.953645 
L 267.249318 266.953645 
L 270.212424 266.953645 
L 273.17553 266.953645 
L 276.138636 266.953645 
L 279.101742 270.563833 
L 282.064848 270.563833 
L 285.027955 270.563833 
L 287.991061 270.563833 
L 290.954167 270.563833 
L 293.917273 270.563833 
L 296.880379 274.020858 
L 299.843485 280.295547 
L 302.806591 280.295547 
L 305.769697 280.295547 
L 308.732803 280.295547 
L 311.695909 285.233036 
L 314.659015 285.233036 
L 317.622121 284.361402 
L 320.585227 284.361402 
L 323.548333 284.361402 
L 326.511439 284.301067 
L 329.474545 284.301067 
L 332.437652 284.301067 
L 335.400758 284.301067 
L 338.363864 275.106492 
L 341.32697 275.106492 
L 344.290076 272.069811 
L 347.253182 325.872615 
L 350.216288 311.469002 
L 353.179394 257.242536 
L 356.1425 291.150564 
" style="fill:none;stroke:#0072b2;stroke-linecap:round;stroke-width:1.75;"/>
   </g>
   <g id="patch_3">
    <path d="M 62.795 378.08 
L 62.795 88.776 
" style="fill:none;stroke:#262626;stroke-linecap:square;stroke-linejoin:miter;stroke-width:1.25;"/>
   </g>
   <g id="patch_4">
    <path d="M 356.1425 378.08 
L 356.1425 88.776 
" style="fill:none;stroke:#262626;stroke-linecap:square;stroke-linejoin:miter;stroke-width:1.25;"/>
   </g>
   <g id="patch_5">
    <path d="M 62.795 378.08 
L 356.1425 378.08 
" style="fill:none;stroke:#262626;stroke-linecap:square;stroke-linejoin:miter;stroke-width:1.25;"/>
   </g>
  </g>
  <g id="axes_2">
   <g id="patch_6">
    <path d="M 62.795 78.8 
L 356.1425 78.8 
L 356.1425 28.92 
L 62.795 28.92 
z
" style="fill:#ffffff;"/>
   </g>
   <g id="matplotlib.axis_3">
    <g id="xtick_4">
     <g id="line2d_11">
      <g>
       <use style="fill:#262626;stroke:#262626;" x="117.708616" xlink:href="#m41463a9269" y="78.8"/>
      </g>
     </g>
    </g>
    <g id="xtick_5">
     <g id="line2d_12">
      <g>
       <use style="fill:#262626;stroke:#262626;" x="205.058487" xlink:href="#m41463a9269" y="78.8"/>
      </g>
     </g>
    </g>
    <g id="xtick_6">
     <g id="line2d_13">
      <g>
       <use style="fill:#262626;stroke:#262626;" x="292.408357" xlink:href="#m41463a9269" y="78.8"/>
      </g>
     </g>
    </g>
   </g>
   <g id="matplotlib.axis_4">
    <g id="ytick_7"/>
    <g id="ytick_8"/>
   </g>
   <g id="patch_7">
    <path clip-path="url(#p173dd609ce)" d="M 62.795 78.8 
L 92.12975 78.8 
L 92.12975 76.105525 
L 62.795 76.105525 
z
" style="fill:#0072b2;"/>
   </g>
   <g id="patch_8">
    <path clip-path="url(#p173dd609ce)" d="M 92.12975 78.8 
L 121.4645 78.8 
L 121.4645 72.169249 
L 92.12975 72.169249 
z
" style="fill:#0072b2;"/>
   </g>
   <g id="patch_9">
    <path clip-path="url(#p173dd609ce)" d="M 121.4645 78.8 
L 150.79925 78.8 
L 150.79925 61.94196 
L 121.4645 61.94196 
z
" style="fill:#0072b2;"/>
   </g>
   <g id="patch_10">
    <path clip-path="url(#p173dd609ce)" d="M 150.79925 78.8 
L 180.134 78.8 
L 180.134 34.821486 
L 150.79925 34.821486 
z
" style="fill:#0072b2;"/>
   </g>
   <g id="patch_11">
    <path clip-path="url(#p173dd609ce)" d="M 180.134 78.8 
L 209.46875 78.8 
L 209.46875 31.295238 
L 180.134 31.295238 
z
" style="fill:#0072b2;"/>
   </g>
   <g id="patch_12">
    <path clip-path="url(#p173dd609ce)" d="M 209.46875 78.8 
L 238.8035 78.8 
L 238.8035 47.30979 
L 209.46875 47.30979 
z
" style="fill:#0072b2;"/>
   </g>
   <g id="patch_13">
    <path clip-path="url(#p173dd609ce)" d="M 238.8035 78.8 
L 268.13825 78.8 
L 268.13825 62.890884 
L 238.8035 62.890884 
z
" style="fill:#0072b2;"/>
   </g>
   <g id="patch_14">
    <path clip-path="url(#p173dd609ce)" d="M 268.13825 78.8 
L 297.473 78.8 
L 297.473 70.986023 
L 268.13825 70.986023 
z
" style="fill:#0072b2;"/>
   </g>
   <g id="patch_15">
    <path clip-path="url(#p173dd609ce)" d="M 297.473 78.8 
L 326.80775 78.8 
L 326.80775 75.203462 
L 297.473 75.203462 
z
" style="fill:#0072b2;"/>
   </g>
   <g id="patch_16">
    <path clip-path="url(#p173dd609ce)" d="M 326.80775 78.8 
L 356.1425 78.8 
L 356.1425 77.159885 
L 326.80775 77.159885 
z
" style="fill:#0072b2;"/>
   </g>
   <g id="patch_17">
    <path d="M 62.795 78.8 
L 356.1425 78.8 
" style="fill:none;stroke:#262626;stroke-linecap:square;stroke-linejoin:miter;stroke-width:1.25;"/>
   </g>
  </g>
 </g>
 <defs>
  <clipPath id="pf8b7094ee5">
   <rect height="289.304" width="293.3475" x="62.795" y="88.776"/>
  </clipPath>
  <clipPath id="p173dd609ce">
   <rect height="49.88" width="293.3475" x="62.795" y="28.92"/>
  </clipPath>
 </defs>
</svg>
