<?xml version="1.0" encoding="utf-8" standalone="no"?>
<!DOCTYPE svg PUBLIC "-//W3C//DTD SVG 1.1//EN"
  "http://www.w3.org/Graphics/SVG/1.1/DTD/svg11.dtd">
<!-- Created with matplotlib (http://matplotlib.org/) -->
<svg height="432pt" version="1.1" viewBox="0 0 432 432" width="432pt" xmlns="http://www.w3.org/2000/svg" xmlns:xlink="http://www.w3.org/1999/xlink">
 <defs>
  <style type="text/css">
*{stroke-linecap:butt;stroke-linejoin:round;}
  </style>
 </defs>
 <g id="figure_1">
  <g id="patch_1">
   <path d="M 0 432 
L 432 432 
L 432 0 
L 0 0 
z
" style="fill:#ffffff;"/>
  </g>
  <g id="axes_1">
   <g id="patch_2">
    <path d="M 92.439655 296.9579 
L 403.08 296.9579 
L 403.08 28.92 
L 92.439655 28.92 
z
" style="fill:#ffffff;"/>
   </g>
   <g id="matplotlib.axis_1">
    <g id="xtick_1">
     <g id="line2d_1">
      <defs>
       <path d="M 0 0 
L 0 2 
" id="md580be0502" style="stroke:#262626;"/>
      </defs>
      <g>
       <use style="fill:#262626;stroke:#262626;" x="123.503689" xlink:href="#md580be0502" y="296.9579"/>
      </g>
     </g>
     <g id="text_1">
      <text style="fill:#262626;font-family:Arial;font-size:20px;font-style:normal;font-weight:normal;" transform="translate(31.02736 370.599344)rotate(-30)">Constitutive</text>
     </g>
    </g>
    <g id="xtick_2">
     <g id="line2d_2">
      <g>
       <use style="fill:#262626;stroke:#262626;" x="185.631758" xlink:href="#md580be0502" y="296.9579"/>
      </g>
     </g>
     <g id="text_2">
      <text style="fill:#262626;font-family:Arial;font-size:20px;font-style:normal;font-weight:normal;" transform="translate(114.324337 358.377469)rotate(-30)">Alternate</text>
     </g>
    </g>
    <g id="xtick_3">
     <g id="line2d_3">
      <g>
       <use style="fill:#262626;stroke:#262626;" x="247.759827" xlink:href="#md580be0502" y="296.9579"/>
      </g>
     </g>
     <g id="text_3">
      <text style="fill:#262626;font-family:Arial;font-size:20px;font-style:normal;font-weight:normal;" transform="translate(145.66683 363.938407)rotate(-30)">Retained /</text>
      <text style="fill:#262626;font-family:Arial;font-size:20px;font-style:normal;font-weight:normal;" transform="translate(235.195452 336.675279)rotate(-30)"/>
      <text style="fill:#262626;font-family:Arial;font-size:20px;font-style:normal;font-weight:normal;" transform="translate(181.280498 392.229339)rotate(-30)">exitronic</text>
     </g>
    </g>
    <g id="xtick_4">
     <g id="line2d_4">
      <g>
       <use style="fill:#262626;stroke:#262626;" x="309.887896" xlink:href="#md580be0502" y="296.9579"/>
      </g>
     </g>
     <g id="text_4">
      <text style="fill:#262626;font-family:Arial;font-size:20px;font-style:normal;font-weight:normal;" transform="translate(241.345529 356.924501)rotate(-30)">Skipping</text>
     </g>
    </g>
    <g id="xtick_5">
     <g id="line2d_5">
      <g>
       <use style="fill:#262626;stroke:#262626;" x="372.015965" xlink:href="#md580be0502" y="296.9579"/>
      </g>
     </g>
     <g id="text_5">
      <text style="fill:#262626;font-family:Arial;font-size:20px;font-style:normal;font-weight:normal;" transform="translate(326.713664 343.363407)rotate(-30)">Other</text>
     </g>
    </g>
   </g>
   <g id="matplotlib.axis_2">
    <g id="ytick_1">
     <g id="line2d_6">
      <defs>
       <path d="M 0 0 
L -2 0 
" id="m5d5573032b" style="stroke:#262626;"/>
      </defs>
      <g>
       <use style="fill:#262626;stroke:#262626;" x="92.439655" xlink:href="#m5d5573032b" y="248.435958"/>
      </g>
     </g>
     <g id="text_6">
      <text style="fill:#262626;font-family:Arial;font-size:20px;font-style:normal;font-weight:normal;text-anchor:end;" transform="rotate(-0, 83.439655, 255.593771)" x="83.439655" y="255.593771">−5</text>
     </g>
    </g>
    <g id="ytick_2">
     <g id="line2d_7">
      <g>
       <use style="fill:#262626;stroke:#262626;" x="92.439655" xlink:href="#m5d5573032b" y="187.572073"/>
      </g>
     </g>
     <g id="text_7">
      <text style="fill:#262626;font-family:Arial;font-size:20px;font-style:normal;font-weight:normal;text-anchor:end;" transform="rotate(-0, 83.439655, 194.729885)" x="83.439655" y="194.729885">0</text>
     </g>
    </g>
    <g id="ytick_3">
     <g id="line2d_8">
      <g>
       <use style="fill:#262626;stroke:#262626;" x="92.439655" xlink:href="#m5d5573032b" y="126.708187"/>
      </g>
     </g>
     <g id="text_8">
      <text style="fill:#262626;font-family:Arial;font-size:20px;font-style:normal;font-weight:normal;text-anchor:end;" transform="rotate(-0, 83.439655, 133.866)" x="83.439655" y="133.866">5</text>
     </g>
    </g>
    <g id="ytick_4">
     <g id="line2d_9">
      <g>
       <use style="fill:#262626;stroke:#262626;" x="92.439655" xlink:href="#m5d5573032b" y="65.844302"/>
      </g>
     </g>
     <g id="text_9">
      <text style="fill:#262626;font-family:Arial;font-size:20px;font-style:normal;font-weight:normal;text-anchor:end;" transform="rotate(-0, 83.439655, 73.002114)" x="83.439655" y="73.002114">10</text>
     </g>
    </g>
    <g id="text_10">
     <text style="fill:#262626;font-family:Arial;font-size:22px;font-style:normal;font-weight:normal;text-anchor:middle;" transform="rotate(-90, 52.006217, 162.93895)" x="52.006217" y="162.93895">Log2CPM</text>
    </g>
   </g>
   <g id="PolyCollection_1">
    <defs>
     <path d="M 123.504125 -152.137368 
L 123.503254 -152.137368 
L 123.501894 -154.549076 
L 123.500388 -156.960784 
L 123.500981 -159.372492 
L 123.50269 -161.7842 
L 123.50334 -164.195908 
L 123.501402 -166.607616 
L 123.489425 -169.019324 
L 123.453851 -171.431032 
L 123.392074 -173.84274 
L 123.309856 -176.254448 
L 123.197316 -178.666156 
L 123.035233 -181.077864 
L 122.82709 -183.489572 
L 122.59868 -185.90128 
L 122.349675 -188.312988 
L 122.119386 -190.724696 
L 121.980785 -193.136404 
L 121.88053 -195.548112 
L 121.77966 -197.95982 
L 121.735489 -200.371528 
L 121.724376 -202.783236 
L 121.647763 -205.194944 
L 121.476221 -207.606652 
L 121.282232 -210.01836 
L 121.124502 -212.430068 
L 120.982733 -214.841776 
L 120.826689 -217.253484 
L 120.659739 -219.665192 
L 120.461197 -222.0769 
L 120.182217 -224.488608 
L 119.814725 -226.900316 
L 119.430086 -229.312024 
L 119.082599 -231.723732 
L 118.704588 -234.13544 
L 118.194403 -236.547148 
L 117.507855 -238.958856 
L 116.612739 -241.370564 
L 115.522856 -243.782272 
L 114.366249 -246.19398 
L 113.20668 -248.605688 
L 111.97509 -251.017396 
L 110.652162 -253.429104 
L 109.232074 -255.840812 
L 107.794257 -258.25252 
L 106.483341 -260.664228 
L 105.387323 -263.075936 
L 104.55999 -265.487644 
L 104.017804 -267.899352 
L 103.741395 -270.31106 
L 103.614137 -272.722768 
L 103.733718 -275.134476 
L 104.335074 -277.546184 
L 105.39021 -279.957892 
L 106.7569 -282.3696 
L 108.250548 -284.781308 
L 109.748626 -287.193016 
L 111.219271 -289.604724 
L 112.689845 -292.016432 
L 114.235242 -294.42814 
L 115.772527 -296.839848 
L 117.132757 -299.251556 
L 118.243058 -301.663264 
L 119.063709 -304.074972 
L 119.658424 -306.48668 
L 120.177469 -308.898388 
L 120.670427 -311.310096 
L 121.149756 -313.721804 
L 121.570903 -316.133512 
L 121.873415 -318.54522 
L 122.097367 -320.956927 
L 122.301239 -323.368635 
L 122.513156 -325.780343 
L 122.731102 -328.192051 
L 122.914096 -330.603759 
L 123.038944 -333.015467 
L 123.12554 -335.427175 
L 123.199026 -337.838883 
L 123.274698 -340.250591 
L 123.342619 -342.662299 
L 123.388096 -345.074007 
L 123.41635 -347.485715 
L 123.433217 -349.897423 
L 123.448342 -352.309131 
L 123.467849 -354.720839 
L 123.483398 -357.132547 
L 123.492311 -359.544255 
L 123.497054 -361.955963 
L 123.498639 -364.367671 
L 123.497706 -366.779379 
L 123.494812 -369.191087 
L 123.493541 -371.602795 
L 123.495391 -374.014503 
L 123.497204 -376.426211 
L 123.498754 -378.837919 
L 123.499617 -381.249627 
L 123.499239 -383.661335 
L 123.499825 -386.073043 
L 123.501857 -388.484751 
L 123.503272 -390.896459 
L 123.504106 -390.896459 
L 123.504106 -390.896459 
L 123.505522 -388.484751 
L 123.507553 -386.073043 
L 123.50814 -383.661335 
L 123.507762 -381.249627 
L 123.508625 -378.837919 
L 123.510175 -376.426211 
L 123.511988 -374.014503 
L 123.513838 -371.602795 
L 123.512567 -369.191087 
L 123.509672 -366.779379 
L 123.50874 -364.367671 
L 123.510325 -361.955963 
L 123.515067 -359.544255 
L 123.52398 -357.132547 
L 123.539529 -354.720839 
L 123.559036 -352.309131 
L 123.574162 -349.897423 
L 123.591029 -347.485715 
L 123.619283 -345.074007 
L 123.664759 -342.662299 
L 123.732681 -340.250591 
L 123.808352 -337.838883 
L 123.881839 -335.427175 
L 123.968434 -333.015467 
L 124.093282 -330.603759 
L 124.276277 -328.192051 
L 124.494222 -325.780343 
L 124.70614 -323.368635 
L 124.910012 -320.956927 
L 125.133964 -318.54522 
L 125.436475 -316.133512 
L 125.857622 -313.721804 
L 126.336951 -311.310096 
L 126.829909 -308.898388 
L 127.348954 -306.48668 
L 127.94367 -304.074972 
L 128.764321 -301.663264 
L 129.874622 -299.251556 
L 131.234852 -296.839848 
L 132.772136 -294.42814 
L 134.317533 -292.016432 
L 135.788107 -289.604724 
L 137.258753 -287.193016 
L 138.756831 -284.781308 
L 140.250479 -282.3696 
L 141.617168 -279.957892 
L 142.672304 -277.546184 
L 143.273661 -275.134476 
L 143.393242 -272.722768 
L 143.265983 -270.31106 
L 142.989574 -267.899352 
L 142.447388 -265.487644 
L 141.620056 -263.075936 
L 140.524037 -260.664228 
L 139.213122 -258.25252 
L 137.775304 -255.840812 
L 136.355216 -253.429104 
L 135.032289 -251.017396 
L 133.800698 -248.605688 
L 132.641129 -246.19398 
L 131.484523 -243.782272 
L 130.39464 -241.370564 
L 129.499523 -238.958856 
L 128.812975 -236.547148 
L 128.302791 -234.13544 
L 127.924779 -231.723732 
L 127.577292 -229.312024 
L 127.192653 -226.900316 
L 126.825162 -224.488608 
L 126.546181 -222.0769 
L 126.34764 -219.665192 
L 126.180689 -217.253484 
L 126.024646 -214.841776 
L 125.882876 -212.430068 
L 125.725147 -210.01836 
L 125.531157 -207.606652 
L 125.359616 -205.194944 
L 125.283003 -202.783236 
L 125.27189 -200.371528 
L 125.227719 -197.95982 
L 125.126848 -195.548112 
L 125.026593 -193.136404 
L 124.887992 -190.724696 
L 124.657704 -188.312988 
L 124.408699 -185.90128 
L 124.180288 -183.489572 
L 123.972145 -181.077864 
L 123.810062 -178.666156 
L 123.697522 -176.254448 
L 123.615305 -173.84274 
L 123.553527 -171.431032 
L 123.517953 -169.019324 
L 123.505976 -166.607616 
L 123.504038 -164.195908 
L 123.504688 -161.7842 
L 123.506398 -159.372492 
L 123.50699 -156.960784 
L 123.505484 -154.549076 
L 123.504125 -152.137368 
z
" id="m01170a9f3b" style="stroke:#2f2f2f;stroke-width:1.75;"/>
    </defs>
    <g clip-path="url(#p227e7c3332)">
     <use style="fill:#166c9c;stroke:#2f2f2f;stroke-width:1.75;" x="0" xlink:href="#m01170a9f3b" y="432"/>
    </g>
   </g>
   <g id="PolyCollection_2">
    <defs>
     <path d="M 185.636881 -161.597604 
L 185.626636 -161.597604 
L 185.614349 -163.552584 
L 185.581598 -165.507564 
L 185.50765 -167.462544 
L 185.362949 -169.417524 
L 185.10905 -171.372504 
L 184.693357 -173.327484 
L 184.037901 -175.282464 
L 183.032217 -177.237444 
L 181.547 -179.192424 
L 179.477104 -181.147404 
L 176.799046 -183.102384 
L 173.615644 -185.057364 
L 170.180156 -187.012344 
L 166.894136 -188.967324 
L 164.22992 -190.922304 
L 162.554372 -192.877284 
L 161.962908 -194.832264 
L 162.271737 -196.787243 
L 163.162638 -198.742223 
L 164.337584 -200.697203 
L 165.588452 -202.652183 
L 166.803649 -204.607163 
L 167.955273 -206.562143 
L 169.066331 -208.517123 
L 170.157737 -210.472103 
L 171.212528 -212.427083 
L 172.188739 -214.382063 
L 173.060135 -216.337043 
L 173.836655 -218.292023 
L 174.547883 -220.247003 
L 175.216791 -222.201983 
L 175.850378 -224.156963 
L 176.443637 -226.111943 
L 176.98478 -228.066923 
L 177.461448 -230.021902 
L 177.868751 -231.976882 
L 178.215021 -233.931862 
L 178.52302 -235.886842 
L 178.823382 -237.841822 
L 179.137263 -239.796802 
L 179.460455 -241.751782 
L 179.769968 -243.706762 
L 180.050331 -245.661742 
L 180.309353 -247.616722 
L 180.564599 -249.571702 
L 180.818228 -251.526682 
L 181.049061 -253.481662 
L 181.226535 -255.436642 
L 181.329562 -257.391622 
L 181.358348 -259.346602 
L 181.339417 -261.301582 
L 181.32166 -263.256562 
L 181.358107 -265.211541 
L 181.480538 -267.166521 
L 181.684819 -269.121501 
L 181.937606 -271.076481 
L 182.199467 -273.031461 
L 182.446467 -274.986441 
L 182.673038 -276.941421 
L 182.87998 -278.896401 
L 183.067643 -280.851381 
L 183.240741 -282.806361 
L 183.411292 -284.761341 
L 183.591291 -286.716321 
L 183.783657 -288.671301 
L 183.980923 -290.626281 
L 184.170104 -292.581261 
L 184.338638 -294.536241 
L 184.480743 -296.491221 
L 184.601807 -298.446201 
L 184.713567 -300.40118 
L 184.821375 -302.35616 
L 184.918546 -304.31114 
L 184.995614 -306.26612 
L 185.05157 -308.2211 
L 185.093231 -310.17608 
L 185.127571 -312.13106 
L 185.158774 -314.08604 
L 185.190276 -316.04102 
L 185.225059 -317.996 
L 185.263509 -319.95098 
L 185.303406 -321.90596 
L 185.342962 -323.86094 
L 185.382926 -325.81592 
L 185.42502 -327.7709 
L 185.468646 -329.72588 
L 185.50986 -331.68086 
L 185.544049 -333.635839 
L 185.569445 -335.590819 
L 185.587623 -337.545799 
L 185.601024 -339.500779 
L 185.610882 -341.455759 
L 185.617498 -343.410739 
L 185.621488 -345.365719 
L 185.624058 -347.320699 
L 185.626235 -349.275679 
L 185.628281 -351.230659 
L 185.629933 -353.185639 
L 185.630979 -355.140619 
L 185.632538 -355.140619 
L 185.632538 -355.140619 
L 185.633583 -353.185639 
L 185.635235 -351.230659 
L 185.637282 -349.275679 
L 185.639459 -347.320699 
L 185.642028 -345.365719 
L 185.646018 -343.410739 
L 185.652635 -341.455759 
L 185.662492 -339.500779 
L 185.675894 -337.545799 
L 185.694072 -335.590819 
L 185.719467 -333.635839 
L 185.753656 -331.68086 
L 185.79487 -329.72588 
L 185.838497 -327.7709 
L 185.880591 -325.81592 
L 185.920555 -323.86094 
L 185.960111 -321.90596 
L 186.000008 -319.95098 
L 186.038458 -317.996 
L 186.073241 -316.04102 
L 186.104743 -314.08604 
L 186.135946 -312.13106 
L 186.170286 -310.17608 
L 186.211947 -308.2211 
L 186.267903 -306.26612 
L 186.34497 -304.31114 
L 186.442141 -302.35616 
L 186.549949 -300.40118 
L 186.661709 -298.446201 
L 186.782773 -296.491221 
L 186.924879 -294.536241 
L 187.093412 -292.581261 
L 187.282593 -290.626281 
L 187.47986 -288.671301 
L 187.672226 -286.716321 
L 187.852225 -284.761341 
L 188.022775 -282.806361 
L 188.195874 -280.851381 
L 188.383537 -278.896401 
L 188.590479 -276.941421 
L 188.81705 -274.986441 
L 189.06405 -273.031461 
L 189.32591 -271.076481 
L 189.578698 -269.121501 
L 189.782979 -267.166521 
L 189.905409 -265.211541 
L 189.941857 -263.256562 
L 189.9241 -261.301582 
L 189.905168 -259.346602 
L 189.933955 -257.391622 
L 190.036982 -255.436642 
L 190.214455 -253.481662 
L 190.445288 -251.526682 
L 190.698917 -249.571702 
L 190.954163 -247.616722 
L 191.213186 -245.661742 
L 191.493549 -243.706762 
L 191.803062 -241.751782 
L 192.126254 -239.796802 
L 192.440134 -237.841822 
L 192.740497 -235.886842 
L 193.048495 -233.931862 
L 193.394765 -231.976882 
L 193.802068 -230.021902 
L 194.278737 -228.066923 
L 194.81988 -226.111943 
L 195.413139 -224.156963 
L 196.046726 -222.201983 
L 196.715634 -220.247003 
L 197.426862 -218.292023 
L 198.203382 -216.337043 
L 199.074777 -214.382063 
L 200.050988 -212.427083 
L 201.10578 -210.472103 
L 202.197186 -208.517123 
L 203.308243 -206.562143 
L 204.459868 -204.607163 
L 205.675065 -202.652183 
L 206.925933 -200.697203 
L 208.100879 -198.742223 
L 208.99178 -196.787243 
L 209.300609 -194.832264 
L 208.709145 -192.877284 
L 207.033597 -190.922304 
L 204.369381 -188.967324 
L 201.083361 -187.012344 
L 197.647872 -185.057364 
L 194.46447 -183.102384 
L 191.786413 -181.147404 
L 189.716516 -179.192424 
L 188.231299 -177.237444 
L 187.225616 -175.282464 
L 186.57016 -173.327484 
L 186.154467 -171.372504 
L 185.900568 -169.417524 
L 185.755867 -167.462544 
L 185.681919 -165.507564 
L 185.649167 -163.552584 
L 185.636881 -161.597604 
z
" id="md76a010a0d" style="stroke:#2f2f2f;stroke-width:1.75;"/>
    </defs>
    <g clip-path="url(#p227e7c3332)">
     <use style="fill:#ba611b;stroke:#2f2f2f;stroke-width:1.75;" x="0" xlink:href="#md76a010a0d" y="432"/>
    </g>
   </g>
   <g id="PolyCollection_3">
    <defs>
     <path d="M 247.760666 -147.225641 
L 247.758989 -147.225641 
L 247.758016 -149.306523 
L 247.756571 -151.387404 
L 247.754932 -153.468286 
L 247.753527 -155.549167 
L 247.752255 -157.630048 
L 247.74921 -159.71093 
L 247.738818 -161.791811 
L 247.709383 -163.872693 
L 247.640316 -165.953574 
L 247.499985 -168.034456 
L 247.24553 -170.115337 
L 246.825854 -172.196218 
L 246.188262 -174.2771 
L 245.286846 -176.357981 
L 244.08916 -178.438863 
L 242.581696 -180.519744 
L 240.781382 -182.600626 
L 238.757944 -184.681507 
L 236.657309 -186.762388 
L 234.701007 -188.84327 
L 233.137768 -190.924151 
L 232.154243 -193.005033 
L 231.796844 -195.085914 
L 231.96347 -197.166796 
L 232.468682 -199.247677 
L 233.127494 -201.328558 
L 233.806754 -203.40944 
L 234.43761 -205.490321 
L 235.00583 -207.571203 
L 235.529372 -209.652084 
L 236.028788 -211.732966 
L 236.505292 -213.813847 
L 236.94134 -215.894728 
L 237.320698 -217.97561 
L 237.647406 -220.056491 
L 237.944994 -222.137373 
L 238.237187 -224.218254 
L 238.529806 -226.299135 
L 238.81141 -228.380017 
L 239.069138 -230.460898 
L 239.299563 -232.54178 
L 239.501842 -234.622661 
L 239.663432 -236.703543 
L 239.759123 -238.784424 
L 239.769652 -240.865305 
L 239.704149 -242.946187 
L 239.604261 -245.027068 
L 239.522193 -247.10795 
L 239.487333 -249.188831 
L 239.488288 -251.269713 
L 239.486884 -253.350594 
L 239.453838 -255.431475 
L 239.396358 -257.512357 
L 239.355623 -259.593238 
L 239.3795 -261.67412 
L 239.495329 -263.755001 
L 239.702197 -265.835883 
L 239.982262 -267.916764 
L 240.317162 -269.997645 
L 240.696733 -272.078527 
L 241.117113 -274.159408 
L 241.574695 -276.24029 
L 242.063712 -278.321171 
L 242.577346 -280.402053 
L 243.106068 -282.482934 
L 243.632878 -284.563815 
L 244.134905 -286.644697 
L 244.59564 -288.725578 
L 245.01543 -290.80646 
L 245.40527 -292.887341 
L 245.768913 -294.968223 
L 246.094364 -297.049104 
L 246.364435 -299.129985 
L 246.573 -301.210867 
L 246.729758 -303.291748 
L 246.852524 -305.37263 
L 246.957506 -307.453511 
L 247.054463 -309.534392 
L 247.14629 -311.615274 
L 247.23089 -313.696155 
L 247.304448 -315.777037 
L 247.365085 -317.857918 
L 247.414739 -319.9388 
L 247.457689 -322.019681 
L 247.497236 -324.100562 
L 247.533958 -326.181444 
L 247.566851 -328.262325 
L 247.595461 -330.343207 
L 247.620686 -332.424088 
L 247.64396 -334.50497 
L 247.666073 -336.585851 
L 247.686813 -338.666732 
L 247.705505 -340.747614 
L 247.721614 -342.828495 
L 247.734831 -344.909377 
L 247.744946 -346.990258 
L 247.751934 -349.07114 
L 247.756164 -351.152021 
L 247.758359 -353.232902 
L 247.761295 -353.232902 
L 247.761295 -353.232902 
L 247.763491 -351.152021 
L 247.767721 -349.07114 
L 247.774709 -346.990258 
L 247.784823 -344.909377 
L 247.79804 -342.828495 
L 247.81415 -340.747614 
L 247.832842 -338.666732 
L 247.853582 -336.585851 
L 247.875694 -334.50497 
L 247.898969 -332.424088 
L 247.924194 -330.343207 
L 247.952803 -328.262325 
L 247.985697 -326.181444 
L 248.022419 -324.100562 
L 248.061966 -322.019681 
L 248.104915 -319.9388 
L 248.15457 -317.857918 
L 248.215207 -315.777037 
L 248.288764 -313.696155 
L 248.373365 -311.615274 
L 248.465191 -309.534392 
L 248.562149 -307.453511 
L 248.667131 -305.37263 
L 248.789897 -303.291748 
L 248.946655 -301.210867 
L 249.155219 -299.129985 
L 249.42529 -297.049104 
L 249.750741 -294.968223 
L 250.114385 -292.887341 
L 250.504224 -290.80646 
L 250.924014 -288.725578 
L 251.384749 -286.644697 
L 251.886777 -284.563815 
L 252.413587 -282.482934 
L 252.942308 -280.402053 
L 253.455943 -278.321171 
L 253.944959 -276.24029 
L 254.402542 -274.159408 
L 254.822922 -272.078527 
L 255.202493 -269.997645 
L 255.537392 -267.916764 
L 255.817457 -265.835883 
L 256.024326 -263.755001 
L 256.140155 -261.67412 
L 256.164032 -259.593238 
L 256.123297 -257.512357 
L 256.065817 -255.431475 
L 256.032771 -253.350594 
L 256.031367 -251.269713 
L 256.032322 -249.188831 
L 255.997461 -247.10795 
L 255.915394 -245.027068 
L 255.815506 -242.946187 
L 255.750003 -240.865305 
L 255.760532 -238.784424 
L 255.856222 -236.703543 
L 256.017812 -234.622661 
L 256.220092 -232.54178 
L 256.450517 -230.460898 
L 256.708244 -228.380017 
L 256.989848 -226.299135 
L 257.282468 -224.218254 
L 257.574661 -222.137373 
L 257.872249 -220.056491 
L 258.198957 -217.97561 
L 258.578315 -215.894728 
L 259.014363 -213.813847 
L 259.490866 -211.732966 
L 259.990283 -209.652084 
L 260.513824 -207.571203 
L 261.082045 -205.490321 
L 261.7129 -203.40944 
L 262.392161 -201.328558 
L 263.050973 -199.247677 
L 263.556184 -197.166796 
L 263.72281 -195.085914 
L 263.365411 -193.005033 
L 262.381887 -190.924151 
L 260.818648 -188.84327 
L 258.862345 -186.762388 
L 256.761711 -184.681507 
L 254.738273 -182.600626 
L 252.937959 -180.519744 
L 251.430494 -178.438863 
L 250.232808 -176.357981 
L 249.331392 -174.2771 
L 248.6938 -172.196218 
L 248.274125 -170.115337 
L 248.019669 -168.034456 
L 247.879339 -165.953574 
L 247.810272 -163.872693 
L 247.780837 -161.791811 
L 247.770445 -159.71093 
L 247.7674 -157.630048 
L 247.766128 -155.549167 
L 247.764722 -153.468286 
L 247.763084 -151.387404 
L 247.761639 -149.306523 
L 247.760666 -147.225641 
z
" id="m6e06458956" style="stroke:#2f2f2f;stroke-width:1.75;"/>
    </defs>
    <g clip-path="url(#p227e7c3332)">
     <use style="fill:#148a6a;stroke:#2f2f2f;stroke-width:1.75;" x="0" xlink:href="#m6e06458956" y="432"/>
    </g>
   </g>
   <g id="PolyCollection_4">
    <defs>
     <path d="M 309.939876 -155.121521 
L 309.835917 -155.121521 
L 309.795525 -157.161908 
L 309.729776 -159.202295 
L 309.626831 -161.242682 
L 309.471597 -163.283069 
L 309.245896 -165.323455 
L 308.929162 -167.363842 
L 308.499813 -169.404229 
L 307.937385 -171.444616 
L 307.225426 -173.485003 
L 306.355028 -175.52539 
L 305.328652 -177.565776 
L 304.16363 -179.606163 
L 302.894502 -181.64655 
L 301.573233 -183.686937 
L 300.2665 -185.727324 
L 299.049745 -187.76771 
L 297.998464 -189.808097 
L 297.178059 -191.848484 
L 296.634219 -193.888871 
L 296.385971 -195.929258 
L 296.423052 -197.969645 
L 296.708301 -200.010031 
L 297.184541 -202.050418 
L 297.784399 -204.090805 
L 298.440868 -206.131192 
L 299.096433 -208.171579 
L 299.709085 -210.211965 
L 300.254459 -212.252352 
L 300.724289 -214.292739 
L 301.122219 -216.333126 
L 301.458479 -218.373513 
L 301.744941 -220.4139 
L 301.991677 -222.454286 
L 302.205438 -224.494673 
L 302.389817 -226.53506 
L 302.546367 -228.575447 
L 302.675837 -230.615834 
L 302.778929 -232.65622 
L 302.856372 -234.696607 
L 302.90855 -236.736994 
L 302.935097 -238.777381 
L 302.934872 -240.817768 
L 302.906503 -242.858155 
L 302.849401 -244.898541 
L 302.764905 -246.938928 
L 302.657144 -248.979315 
L 302.533269 -251.019702 
L 302.402848 -253.060089 
L 302.276521 -255.100476 
L 302.164195 -257.140862 
L 302.073307 -259.181249 
L 302.007693 -261.221636 
L 301.967529 -263.262023 
L 301.950468 -265.30241 
L 301.953692 -267.342796 
L 301.976214 -269.383183 
L 302.020583 -271.42357 
L 302.093316 -273.463957 
L 302.203809 -275.504344 
L 302.362041 -277.544731 
L 302.57582 -279.585117 
L 302.84844 -281.625504 
L 303.17744 -283.665891 
L 303.554725 -285.706278 
L 303.967885 -287.746665 
L 304.402234 -289.787051 
L 304.843025 -291.827438 
L 305.277358 -293.867825 
L 305.695476 -295.908212 
L 306.09131 -297.948599 
L 306.462279 -299.988986 
L 306.80848 -302.029372 
L 307.13152 -304.069759 
L 307.43329 -306.110146 
L 307.715029 -308.150533 
L 307.976874 -310.19092 
L 308.217981 -312.231306 
L 308.437068 -314.271693 
L 308.63314 -316.31208 
L 308.806085 -318.352467 
L 308.956961 -320.392854 
L 309.087886 -322.433241 
L 309.201643 -324.473627 
L 309.301145 -326.514014 
L 309.388975 -328.554401 
L 309.467096 -330.594788 
L 309.5368 -332.635175 
L 309.59882 -334.675561 
L 309.653537 -336.715948 
L 309.701189 -338.756335 
L 309.742019 -340.796722 
L 309.776352 -342.837109 
L 309.804619 -344.877496 
L 309.827345 -346.917882 
L 309.845135 -348.958269 
L 309.858648 -350.998656 
L 309.868572 -353.039043 
L 309.875595 -355.07943 
L 309.880369 -357.119817 
L 309.895424 -357.119817 
L 309.895424 -357.119817 
L 309.900198 -355.07943 
L 309.90722 -353.039043 
L 309.917144 -350.998656 
L 309.930657 -348.958269 
L 309.948448 -346.917882 
L 309.971174 -344.877496 
L 309.999441 -342.837109 
L 310.033774 -340.796722 
L 310.074604 -338.756335 
L 310.122256 -336.715948 
L 310.176973 -334.675561 
L 310.238993 -332.635175 
L 310.308696 -330.594788 
L 310.386818 -328.554401 
L 310.474647 -326.514014 
L 310.57415 -324.473627 
L 310.687907 -322.433241 
L 310.818832 -320.392854 
L 310.969708 -318.352467 
L 311.142653 -316.31208 
L 311.338725 -314.271693 
L 311.557812 -312.231306 
L 311.798919 -310.19092 
L 312.060764 -308.150533 
L 312.342503 -306.110146 
L 312.644273 -304.069759 
L 312.967312 -302.029372 
L 313.313514 -299.988986 
L 313.684483 -297.948599 
L 314.080317 -295.908212 
L 314.498435 -293.867825 
L 314.932767 -291.827438 
L 315.373558 -289.787051 
L 315.807908 -287.746665 
L 316.221068 -285.706278 
L 316.598353 -283.665891 
L 316.927353 -281.625504 
L 317.199973 -279.585117 
L 317.413752 -277.544731 
L 317.571984 -275.504344 
L 317.682476 -273.463957 
L 317.75521 -271.42357 
L 317.799579 -269.383183 
L 317.822101 -267.342796 
L 317.825325 -265.30241 
L 317.808263 -263.262023 
L 317.7681 -261.221636 
L 317.702486 -259.181249 
L 317.611598 -257.140862 
L 317.499272 -255.100476 
L 317.372944 -253.060089 
L 317.242524 -251.019702 
L 317.118648 -248.979315 
L 317.010888 -246.938928 
L 316.926391 -244.898541 
L 316.869289 -242.858155 
L 316.840921 -240.817768 
L 316.840695 -238.777381 
L 316.867243 -236.736994 
L 316.919421 -234.696607 
L 316.996864 -232.65622 
L 317.099956 -230.615834 
L 317.229426 -228.575447 
L 317.385976 -226.53506 
L 317.570355 -224.494673 
L 317.784116 -222.454286 
L 318.030852 -220.4139 
L 318.317314 -218.373513 
L 318.653574 -216.333126 
L 319.051504 -214.292739 
L 319.521334 -212.252352 
L 320.066708 -210.211965 
L 320.67936 -208.171579 
L 321.334924 -206.131192 
L 321.991394 -204.090805 
L 322.591252 -202.050418 
L 323.067492 -200.010031 
L 323.352741 -197.969645 
L 323.389822 -195.929258 
L 323.141574 -193.888871 
L 322.597734 -191.848484 
L 321.777329 -189.808097 
L 320.726048 -187.76771 
L 319.509293 -185.727324 
L 318.20256 -183.686937 
L 316.881291 -181.64655 
L 315.612163 -179.606163 
L 314.447141 -177.565776 
L 313.420765 -175.52539 
L 312.550367 -173.485003 
L 311.838407 -171.444616 
L 311.275979 -169.404229 
L 310.846631 -167.363842 
L 310.529897 -165.323455 
L 310.304196 -163.283069 
L 310.148962 -161.242682 
L 310.046016 -159.202295 
L 309.980268 -157.161908 
L 309.939876 -155.121521 
z
" id="mb5b594a6aa" style="stroke:#2f2f2f;stroke-width:1.75;"/>
    </defs>
    <g clip-path="url(#p227e7c3332)">
     <use style="fill:#dad158;stroke:#2f2f2f;stroke-width:1.75;" x="0" xlink:href="#mb5b594a6aa" y="432"/>
    </g>
   </g>
   <g id="PolyCollection_5">
    <defs>
     <path d="M 372.109929 -163.450836 
L 371.922002 -163.450836 
L 371.815048 -165.406647 
L 371.617572 -167.362457 
L 371.279531 -169.318267 
L 370.739831 -171.274077 
L 369.931574 -173.229888 
L 368.790645 -175.185698 
L 367.267373 -177.141508 
L 365.340174 -179.097319 
L 363.02883 -181.053129 
L 360.40438 -183.008939 
L 357.592896 -184.96475 
L 354.770851 -186.92056 
L 352.149085 -188.87637 
L 349.942626 -190.832181 
L 348.328622 -192.787991 
L 347.404434 -194.743801 
L 347.164738 -196.699611 
L 347.511408 -198.655422 
L 348.293277 -200.611232 
L 349.356234 -202.567042 
L 350.580144 -204.522853 
L 351.890107 -206.478663 
L 353.245984 -208.434473 
L 354.624074 -210.390284 
L 356.003434 -212.346094 
L 357.360969 -214.301904 
L 358.672172 -216.257715 
L 359.912908 -218.213525 
L 361.060743 -220.169335 
L 362.097194 -222.125145 
L 363.011692 -224.080956 
L 363.805195 -226.036766 
L 364.489821 -227.992576 
L 365.08297 -229.948387 
L 365.598771 -231.904197 
L 366.042475 -233.860007 
L 366.411886 -235.815818 
L 366.705142 -237.771628 
L 366.929646 -239.727438 
L 367.106135 -241.683249 
L 367.265005 -243.639059 
L 367.43675 -245.594869 
L 367.641581 -247.550679 
L 367.883426 -249.50649 
L 368.150816 -251.4623 
L 368.423373 -253.41811 
L 368.680033 -255.373921 
L 368.904977 -257.329731 
L 369.089569 -259.285541 
L 369.231452 -261.241352 
L 369.333257 -263.197162 
L 369.402312 -265.152972 
L 369.450607 -267.108783 
L 369.493373 -269.064593 
L 369.545803 -271.020403 
L 369.619258 -272.976213 
L 369.718888 -274.932024 
L 369.8435 -276.887834 
L 369.987142 -278.843644 
L 370.141478 -280.799455 
L 370.298345 -282.755265 
L 370.452012 -284.711075 
L 370.600429 -286.666886 
L 370.744741 -288.622696 
L 370.887176 -290.578506 
L 371.028396 -292.534317 
L 371.165859 -294.490127 
L 371.294124 -296.445937 
L 371.406931 -298.401747 
L 371.499908 -300.357558 
L 371.572471 -302.313368 
L 371.627933 -304.269178 
L 371.671836 -306.224989 
L 371.709453 -308.180799 
L 371.743853 -310.136609 
L 371.775492 -312.09242 
L 371.803322 -314.04823 
L 371.826491 -316.00404 
L 371.845464 -317.959851 
L 371.861892 -319.915661 
L 371.877513 -321.871471 
L 371.893075 -323.827281 
L 371.908111 -325.783092 
L 371.921638 -327.738902 
L 371.933033 -329.694712 
L 371.942325 -331.650523 
L 371.949784 -333.606333 
L 371.955405 -335.562143 
L 371.958911 -337.517954 
L 371.960312 -339.473764 
L 371.960466 -341.429574 
L 371.961038 -343.385385 
L 371.963765 -345.341195 
L 371.969544 -347.297005 
L 371.977966 -349.252815 
L 371.987602 -351.208626 
L 371.996759 -353.164436 
L 372.004198 -355.120246 
L 372.009451 -357.076057 
L 372.02248 -357.076057 
L 372.02248 -357.076057 
L 372.027733 -355.120246 
L 372.035172 -353.164436 
L 372.044329 -351.208626 
L 372.053965 -349.252815 
L 372.062387 -347.297005 
L 372.068165 -345.341195 
L 372.070893 -343.385385 
L 372.071465 -341.429574 
L 372.071619 -339.473764 
L 372.07302 -337.517954 
L 372.076526 -335.562143 
L 372.082147 -333.606333 
L 372.089606 -331.650523 
L 372.098898 -329.694712 
L 372.110293 -327.738902 
L 372.12382 -325.783092 
L 372.138856 -323.827281 
L 372.154418 -321.871471 
L 372.170039 -319.915661 
L 372.186467 -317.959851 
L 372.20544 -316.00404 
L 372.228609 -314.04823 
L 372.256438 -312.09242 
L 372.288078 -310.136609 
L 372.322478 -308.180799 
L 372.360095 -306.224989 
L 372.403998 -304.269178 
L 372.45946 -302.313368 
L 372.532023 -300.357558 
L 372.625 -298.401747 
L 372.737807 -296.445937 
L 372.866072 -294.490127 
L 373.003535 -292.534317 
L 373.144755 -290.578506 
L 373.28719 -288.622696 
L 373.431502 -286.666886 
L 373.579919 -284.711075 
L 373.733586 -282.755265 
L 373.890453 -280.799455 
L 374.044789 -278.843644 
L 374.188431 -276.887834 
L 374.313043 -274.932024 
L 374.412673 -272.976213 
L 374.486128 -271.020403 
L 374.538558 -269.064593 
L 374.581324 -267.108783 
L 374.629619 -265.152972 
L 374.698674 -263.197162 
L 374.800479 -261.241352 
L 374.942362 -259.285541 
L 375.126954 -257.329731 
L 375.351898 -255.373921 
L 375.608558 -253.41811 
L 375.881115 -251.4623 
L 376.148505 -249.50649 
L 376.39035 -247.550679 
L 376.595181 -245.594869 
L 376.766926 -243.639059 
L 376.925796 -241.683249 
L 377.102285 -239.727438 
L 377.326789 -237.771628 
L 377.620045 -235.815818 
L 377.989456 -233.860007 
L 378.43316 -231.904197 
L 378.948961 -229.948387 
L 379.54211 -227.992576 
L 380.226736 -226.036766 
L 381.020239 -224.080956 
L 381.934737 -222.125145 
L 382.971188 -220.169335 
L 384.119023 -218.213525 
L 385.359759 -216.257715 
L 386.670962 -214.301904 
L 388.028497 -212.346094 
L 389.407857 -210.390284 
L 390.785947 -208.434473 
L 392.141824 -206.478663 
L 393.451787 -204.522853 
L 394.675697 -202.567042 
L 395.738654 -200.611232 
L 396.520523 -198.655422 
L 396.867193 -196.699611 
L 396.627497 -194.743801 
L 395.703309 -192.787991 
L 394.089304 -190.832181 
L 391.882846 -188.87637 
L 389.26108 -186.92056 
L 386.439034 -184.96475 
L 383.627551 -183.008939 
L 381.003101 -181.053129 
L 378.691757 -179.097319 
L 376.764558 -177.141508 
L 375.241286 -175.185698 
L 374.100357 -173.229888 
L 373.2921 -171.274077 
L 372.7524 -169.318267 
L 372.414359 -167.362457 
L 372.216883 -165.406647 
L 372.109929 -163.450836 
z
" id="m4e11ba9bbc" style="stroke:#2f2f2f;stroke-width:1.75;"/>
    </defs>
    <g clip-path="url(#p227e7c3332)">
     <use style="fill:#c283a6;stroke:#2f2f2f;stroke-width:1.75;" x="0" xlink:href="#m4e11ba9bbc" y="432"/>
    </g>
   </g>
   <g id="line2d_10">
    <path clip-path="url(#p227e7c3332)" d="M 123.503689 224.65193 
L 123.503689 103.873172 
" style="fill:none;stroke:#2f2f2f;stroke-linecap:round;stroke-width:1.75;"/>
   </g>
   <g id="line2d_11">
    <path clip-path="url(#p227e7c3332)" d="M 123.503689 179.360728 
L 123.503689 149.165011 
" style="fill:none;stroke:#2f2f2f;stroke-linecap:round;stroke-width:5.25;"/>
   </g>
   <g id="line2d_12">
    <path clip-path="url(#p227e7c3332)" d="M 185.631758 262.156692 
L 185.631758 141.716293 
" style="fill:none;stroke:#2f2f2f;stroke-linecap:round;stroke-width:1.75;"/>
   </g>
   <g id="line2d_13">
    <path clip-path="url(#p227e7c3332)" d="M 185.631758 236.448669 
L 185.631758 198.539505 
" style="fill:none;stroke:#2f2f2f;stroke-linecap:round;stroke-width:5.25;"/>
   </g>
   <g id="line2d_14">
    <path clip-path="url(#p227e7c3332)" d="M 247.759827 275.131609 
L 247.759827 96.128468 
" style="fill:none;stroke:#2f2f2f;stroke-linecap:round;stroke-width:1.75;"/>
   </g>
   <g id="line2d_15">
    <path clip-path="url(#p227e7c3332)" d="M 247.759827 232.420663 
L 247.759827 177.652483 
" style="fill:none;stroke:#2f2f2f;stroke-linecap:round;stroke-width:5.25;"/>
   </g>
   <g id="line2d_16">
    <path clip-path="url(#p227e7c3332)" d="M 309.887896 258.897993 
L 309.887896 92.860669 
" style="fill:none;stroke:#2f2f2f;stroke-linecap:round;stroke-width:1.75;"/>
   </g>
   <g id="line2d_17">
    <path clip-path="url(#p227e7c3332)" d="M 309.887896 232.929689 
L 309.887896 166.701588 
" style="fill:none;stroke:#2f2f2f;stroke-linecap:round;stroke-width:5.25;"/>
   </g>
   <g id="line2d_18">
    <path clip-path="url(#p227e7c3332)" d="M 372.015965 256.348579 
L 372.015965 166.571515 
" style="fill:none;stroke:#2f2f2f;stroke-linecap:round;stroke-width:1.75;"/>
   </g>
   <g id="line2d_19">
    <path clip-path="url(#p227e7c3332)" d="M 372.015965 238.084388 
L 372.015965 209.323621 
" style="fill:none;stroke:#2f2f2f;stroke-linecap:round;stroke-width:5.25;"/>
   </g>
   <g id="patch_3">
    <path d="M 92.439655 296.9579 
L 92.439655 28.92 
" style="fill:none;stroke:#262626;stroke-linecap:square;stroke-linejoin:miter;stroke-width:1.25;"/>
   </g>
   <g id="patch_4">
    <path d="M 403.08 296.9579 
L 403.08 28.92 
" style="fill:none;stroke:#262626;stroke-linecap:square;stroke-linejoin:miter;stroke-width:1.25;"/>
   </g>
   <g id="patch_5">
    <path d="M 92.439655 296.9579 
L 403.08 296.9579 
" style="fill:none;stroke:#262626;stroke-linecap:square;stroke-linejoin:miter;stroke-width:1.25;"/>
   </g>
   <g id="patch_6">
    <path d="M 92.439655 28.92 
L 403.08 28.92 
" style="fill:none;stroke:#262626;stroke-linecap:square;stroke-linejoin:miter;stroke-width:1.25;"/>
   </g>
   <g id="PathCollection_1">
    <defs>
     <path d="M 0 1.75 
C 0.464105 1.75 0.909265 1.565609 1.237437 1.237437 
C 1.565609 0.909265 1.75 0.464105 1.75 0 
C 1.75 -0.464105 1.565609 -0.909265 1.237437 -1.237437 
C 0.909265 -1.565609 0.464105 -1.75 0 -1.75 
C -0.464105 -1.75 -0.909265 -1.565609 -1.237437 -1.237437 
C -1.565609 -0.909265 -1.75 -0.464105 -1.75 0 
C -1.75 0.464105 -1.565609 0.909265 -1.237437 1.237437 
C -0.909265 1.565609 -0.464105 1.75 0 1.75 
z
" id="m58ba19e248" style="stroke:#2f2f2f;stroke-width:0.3;"/>
    </defs>
    <g clip-path="url(#p227e7c3332)">
     <use style="fill:#ffffff;stroke:#2f2f2f;stroke-width:0.3;" x="123.503689" xlink:href="#m58ba19e248" y="163.243389"/>
    </g>
   </g>
   <g id="PathCollection_2">
    <g clip-path="url(#p227e7c3332)">
     <use style="fill:#ffffff;stroke:#2f2f2f;stroke-width:0.3;" x="185.631758" xlink:href="#m58ba19e248" y="223.104181"/>
    </g>
   </g>
   <g id="PathCollection_3">
    <g clip-path="url(#p227e7c3332)">
     <use style="fill:#ffffff;stroke:#2f2f2f;stroke-width:0.3;" x="247.759827" xlink:href="#m58ba19e248" y="209.682481"/>
    </g>
   </g>
   <g id="PathCollection_4">
    <g clip-path="url(#p227e7c3332)">
     <use style="fill:#ffffff;stroke:#2f2f2f;stroke-width:0.3;" x="309.887896" xlink:href="#m58ba19e248" y="203.71592"/>
    </g>
   </g>
   <g id="PathCollection_5">
    <g clip-path="url(#p227e7c3332)">
     <use style="fill:#ffffff;stroke:#2f2f2f;stroke-width:0.3;" x="372.015965" xlink:href="#m58ba19e248" y="227.357334"/>
    </g>
   </g>
  </g>
 </g>
 <defs>
  <clipPath id="p227e7c3332">
   <rect height="268.0379" width="310.640345" x="92.439655" y="28.92"/>
  </clipPath>
 </defs>
</svg>
