<?xml version="1.0" encoding="utf-8" standalone="no"?>
<!DOCTYPE svg PUBLIC "-//W3C//DTD SVG 1.1//EN"
  "http://www.w3.org/Graphics/SVG/1.1/DTD/svg11.dtd">
<!-- Created with matplotlib (http://matplotlib.org/) -->
<svg height="432pt" version="1.1" viewBox="0 0 576 432" width="576pt" xmlns="http://www.w3.org/2000/svg" xmlns:xlink="http://www.w3.org/1999/xlink">
 <defs>
  <style type="text/css">
*{stroke-linecap:butt;stroke-linejoin:round;}
  </style>
 </defs>
 <g id="figure_1">
  <g id="patch_1">
   <path d="M 0 432 
L 576 432 
L 576 0 
L 0 0 
z
" style="fill:#ffffff;"/>
  </g>
  <g id="axes_1">
   <g id="patch_2">
    <path d="M 92.38875 294.1454 
L 547.08 294.1454 
L 547.08 28.92 
L 92.38875 28.92 
z
" style="fill:#ffffff;"/>
   </g>
   <g id="matplotlib.axis_1">
    <g id="xtick_1">
     <g id="line2d_1">
      <defs>
       <path d="M 0 0 
L 0 2 
" id="m5496d10c37" style="stroke:#262626;"/>
      </defs>
      <g>
       <use style="fill:#262626;stroke:#262626;" x="141.991432" xlink:href="#m5496d10c37" y="294.1454"/>
      </g>
     </g>
     <g id="text_1">
      <text style="fill:#262626;font-family:Arial;font-size:20px;font-style:normal;font-weight:normal;" transform="translate(85.151508 341.105594)rotate(-30)">All SJ</text>
      <text style="fill:#262626;font-family:Arial;font-size:20px;font-style:normal;font-weight:normal;" transform="translate(57.168602 381.687779)rotate(-30)">n=1.3e+05</text>
     </g>
    </g>
    <g id="xtick_2">
     <g id="line2d_2">
      <g>
       <use style="fill:#262626;stroke:#262626;" x="224.662568" xlink:href="#m5496d10c37" y="294.1454"/>
      </g>
     </g>
     <g id="text_2">
      <text style="fill:#262626;font-family:Arial;font-size:20px;font-style:normal;font-weight:normal;" transform="translate(125.1992 359.455594)rotate(-30)">Increased</text>
      <text style="fill:#262626;font-family:Arial;font-size:20px;font-style:normal;font-weight:normal;" transform="translate(151.326751 369.134842)rotate(-30)">Splicing</text>
      <text style="fill:#262626;font-family:Arial;font-size:20px;font-style:normal;font-weight:normal;" transform="translate(174.031504 380.723126)rotate(-30)">n=338</text>
     </g>
    </g>
    <g id="xtick_3">
     <g id="line2d_3">
      <g>
       <use style="fill:#262626;stroke:#262626;" x="307.333705" xlink:href="#m5496d10c37" y="294.1454"/>
      </g>
     </g>
     <g id="text_3">
      <text style="fill:#262626;font-family:Arial;font-size:20px;font-style:normal;font-weight:normal;" transform="translate(200.173535 363.899344)rotate(-30)">Decreased</text>
      <text style="fill:#262626;font-family:Arial;font-size:20px;font-style:normal;font-weight:normal;" transform="translate(233.997888 369.134842)rotate(-30)">Splicing</text>
      <text style="fill:#262626;font-family:Arial;font-size:20px;font-style:normal;font-weight:normal;" transform="translate(256.70264 380.723126)rotate(-30)">n=189</text>
     </g>
    </g>
    <g id="xtick_4">
     <g id="line2d_4">
      <g>
       <use style="fill:#262626;stroke:#262626;" x="390.004841" xlink:href="#m5496d10c37" y="294.1454"/>
      </g>
     </g>
    </g>
    <g id="xtick_5">
     <g id="line2d_5">
      <g>
       <use style="fill:#262626;stroke:#262626;" x="472.675977" xlink:href="#m5496d10c37" y="294.1454"/>
      </g>
     </g>
    </g>
   </g>
   <g id="matplotlib.axis_2">
    <g id="ytick_1">
     <g id="line2d_6">
      <defs>
       <path d="M 0 0 
L -2 0 
" id="mef415d7b0c" style="stroke:#262626;"/>
      </defs>
      <g>
       <use style="fill:#262626;stroke:#262626;" x="92.38875" xlink:href="#mef415d7b0c" y="294.1454"/>
      </g>
     </g>
     <g id="text_4">
      <text style="fill:#262626;font-family:Arial;font-size:20px;font-style:normal;font-weight:normal;text-anchor:end;" transform="rotate(-0, 83.38875, 301.303212)" x="83.38875" y="301.303212">0</text>
     </g>
    </g>
    <g id="ytick_2">
     <g id="line2d_7">
      <g>
       <use style="fill:#262626;stroke:#262626;" x="92.38875" xlink:href="#mef415d7b0c" y="243.626276"/>
      </g>
     </g>
     <g id="text_5">
      <text style="fill:#262626;font-family:Arial;font-size:20px;font-style:normal;font-weight:normal;text-anchor:end;" transform="rotate(-0, 83.38875, 250.784088)" x="83.38875" y="250.784088">20</text>
     </g>
    </g>
    <g id="ytick_3">
     <g id="line2d_8">
      <g>
       <use style="fill:#262626;stroke:#262626;" x="92.38875" xlink:href="#mef415d7b0c" y="193.107152"/>
      </g>
     </g>
     <g id="text_6">
      <text style="fill:#262626;font-family:Arial;font-size:20px;font-style:normal;font-weight:normal;text-anchor:end;" transform="rotate(-0, 83.38875, 200.264965)" x="83.38875" y="200.264965">40</text>
     </g>
    </g>
    <g id="ytick_4">
     <g id="line2d_9">
      <g>
       <use style="fill:#262626;stroke:#262626;" x="92.38875" xlink:href="#mef415d7b0c" y="142.588028"/>
      </g>
     </g>
     <g id="text_7">
      <text style="fill:#262626;font-family:Arial;font-size:20px;font-style:normal;font-weight:normal;text-anchor:end;" transform="rotate(-0, 83.38875, 149.745841)" x="83.38875" y="149.745841">60</text>
     </g>
    </g>
    <g id="ytick_5">
     <g id="line2d_10">
      <g>
       <use style="fill:#262626;stroke:#262626;" x="92.38875" xlink:href="#mef415d7b0c" y="92.068905"/>
      </g>
     </g>
     <g id="text_8">
      <text style="fill:#262626;font-family:Arial;font-size:20px;font-style:normal;font-weight:normal;text-anchor:end;" transform="rotate(-0, 83.38875, 99.226717)" x="83.38875" y="99.226717">80</text>
     </g>
    </g>
    <g id="ytick_6">
     <g id="line2d_11">
      <g>
       <use style="fill:#262626;stroke:#262626;" x="92.38875" xlink:href="#mef415d7b0c" y="41.549781"/>
      </g>
     </g>
     <g id="text_9">
      <text style="fill:#262626;font-family:Arial;font-size:20px;font-style:normal;font-weight:normal;text-anchor:end;" transform="rotate(-0, 83.38875, 48.707593)" x="83.38875" y="48.707593">100</text>
     </g>
    </g>
    <g id="text_10">
     <text style="fill:#262626;font-family:Arial;font-size:22px;font-style:normal;font-weight:normal;text-anchor:middle;" transform="rotate(-90, 41.392813, 161.5327)" x="41.392813" y="161.5327">Percentage</text>
    </g>
   </g>
   <g id="patch_3">
    <path clip-path="url(#pfe90e69782)" d="M 108.922977 294.1454 
L 175.059886 294.1454 
L 175.059886 41.549781 
L 108.922977 41.549781 
z
" style="fill:#cc79a7;"/>
   </g>
   <g id="patch_4">
    <path clip-path="url(#pfe90e69782)" d="M 108.922977 294.1454 
L 175.059886 294.1454 
L 175.059886 44.399375 
L 108.922977 44.399375 
z
" style="fill:#f0e442;"/>
   </g>
   <g id="patch_5">
    <path clip-path="url(#pfe90e69782)" d="M 108.922977 294.1454 
L 175.059886 294.1454 
L 175.059886 46.834694 
L 108.922977 46.834694 
z
" style="fill:#009e73;"/>
   </g>
   <g id="patch_6">
    <path clip-path="url(#pfe90e69782)" d="M 108.922977 294.1454 
L 175.059886 294.1454 
L 175.059886 74.819568 
L 108.922977 74.819568 
z
" style="fill:#d55e00;"/>
   </g>
   <g id="patch_7">
    <path clip-path="url(#pfe90e69782)" d="M 108.922977 294.1454 
L 175.059886 294.1454 
L 175.059886 110.435623 
L 108.922977 110.435623 
z
" style="fill:#0072b2;"/>
   </g>
   <g id="patch_8">
    <path clip-path="url(#pfe90e69782)" d="M 191.594114 294.1454 
L 257.731023 294.1454 
L 257.731023 41.549781 
L 191.594114 41.549781 
z
" style="fill:#cc79a7;"/>
   </g>
   <g id="patch_9">
    <path clip-path="url(#pfe90e69782)" d="M 191.594114 294.1454 
L 257.731023 294.1454 
L 257.731023 50.517673 
L 191.594114 50.517673 
z
" style="fill:#f0e442;"/>
   </g>
   <g id="patch_10">
    <path clip-path="url(#pfe90e69782)" d="M 191.594114 294.1454 
L 257.731023 294.1454 
L 257.731023 52.759646 
L 191.594114 52.759646 
z
" style="fill:#009e73;"/>
   </g>
   <g id="patch_11">
    <path clip-path="url(#pfe90e69782)" d="M 191.594114 294.1454 
L 257.731023 294.1454 
L 257.731023 87.883888 
L 191.594114 87.883888 
z
" style="fill:#d55e00;"/>
   </g>
   <g id="patch_12">
    <path clip-path="url(#pfe90e69782)" d="M 191.594114 294.1454 
L 257.731023 294.1454 
L 257.731023 127.492077 
L 191.594114 127.492077 
z
" style="fill:#0072b2;"/>
   </g>
   <g id="patch_13">
    <path clip-path="url(#pfe90e69782)" d="M 274.26525 294.1454 
L 340.402159 294.1454 
L 340.402159 41.549781 
L 274.26525 41.549781 
z
" style="fill:#cc79a7;"/>
   </g>
   <g id="patch_14">
    <path clip-path="url(#pfe90e69782)" d="M 274.26525 294.1454 
L 340.402159 294.1454 
L 340.402159 45.559235 
L 274.26525 45.559235 
z
" style="fill:#f0e442;"/>
   </g>
   <g id="patch_15">
    <path clip-path="url(#pfe90e69782)" d="M 274.26525 294.1454 
L 340.402159 294.1454 
L 340.402159 46.89572 
L 274.26525 46.89572 
z
" style="fill:#009e73;"/>
   </g>
   <g id="patch_16">
    <path clip-path="url(#pfe90e69782)" d="M 274.26525 294.1454 
L 340.402159 294.1454 
L 340.402159 95.009171 
L 274.26525 95.009171 
z
" style="fill:#d55e00;"/>
   </g>
   <g id="patch_17">
    <path clip-path="url(#pfe90e69782)" d="M 274.26525 294.1454 
L 340.402159 294.1454 
L 340.402159 144.459107 
L 274.26525 144.459107 
z
" style="fill:#0072b2;"/>
   </g>
   <g id="patch_18">
    <path d="M 92.38875 294.1454 
L 92.38875 28.92 
" style="fill:none;stroke:#262626;stroke-linecap:square;stroke-linejoin:miter;stroke-width:1.25;"/>
   </g>
   <g id="patch_19">
    <path d="M 547.08 294.1454 
L 547.08 28.92 
" style="fill:none;stroke:#262626;stroke-linecap:square;stroke-linejoin:miter;stroke-width:1.25;"/>
   </g>
   <g id="patch_20">
    <path d="M 92.38875 294.1454 
L 547.08 294.1454 
" style="fill:none;stroke:#262626;stroke-linecap:square;stroke-linejoin:miter;stroke-width:1.25;"/>
   </g>
   <g id="patch_21">
    <path d="M 92.38875 28.92 
L 547.08 28.92 
" style="fill:none;stroke:#262626;stroke-linecap:square;stroke-linejoin:miter;stroke-width:1.25;"/>
   </g>
   <g id="legend_1">
    <g id="patch_22">
     <path d="M 368.5925 61.235625 
L 408.5925 61.235625 
L 408.5925 47.235625 
L 368.5925 47.235625 
z
" style="fill:#0072b2;"/>
    </g>
    <g id="text_11">
     <text style="fill:#262626;font-family:Arial;font-size:20px;font-style:normal;font-weight:normal;text-anchor:start;" transform="rotate(-0, 424.5925, 61.235625)" x="424.5925" y="61.235625">Constitutive</text>
    </g>
    <g id="patch_23">
     <path d="M 368.5925 89.52625 
L 408.5925 89.52625 
L 408.5925 75.52625 
L 368.5925 75.52625 
z
" style="fill:#d55e00;"/>
    </g>
    <g id="text_12">
     <text style="fill:#262626;font-family:Arial;font-size:20px;font-style:normal;font-weight:normal;text-anchor:start;" transform="rotate(-0, 424.5925, 89.52625)" x="424.5925" y="89.52625">Alternate</text>
    </g>
    <g id="patch_24">
     <path d="M 368.5925 130.38125 
L 408.5925 130.38125 
L 408.5925 116.38125 
L 368.5925 116.38125 
z
" style="fill:#009e73;"/>
    </g>
    <g id="text_13">
     <text style="fill:#262626;font-family:Arial;font-size:20px;font-style:normal;font-weight:normal;" transform="translate(424.5925 117.816875)">Retained/</text>
     <text style="fill:#262626;font-family:Arial;font-size:20px;font-style:normal;font-weight:normal;" transform="translate(424.5925 138.970625)">exitronic</text>
    </g>
    <g id="patch_25">
     <path d="M 368.5925 167.505 
L 408.5925 167.505 
L 408.5925 153.505 
L 368.5925 153.505 
z
" style="fill:#f0e442;"/>
    </g>
    <g id="text_14">
     <text style="fill:#262626;font-family:Arial;font-size:20px;font-style:normal;font-weight:normal;text-anchor:start;" transform="rotate(-0, 424.5925, 167.505)" x="424.5925" y="167.505">Skipping</text>
    </g>
    <g id="patch_26">
     <path d="M 368.5925 196.03 
L 408.5925 196.03 
L 408.5925 182.03 
L 368.5925 182.03 
z
" style="fill:#cc79a7;"/>
    </g>
    <g id="text_15">
     <text style="fill:#262626;font-family:Arial;font-size:20px;font-style:normal;font-weight:normal;text-anchor:start;" transform="rotate(-0, 424.5925, 196.03)" x="424.5925" y="196.03">Other</text>
    </g>
   </g>
  </g>
 </g>
 <defs>
  <clipPath id="pfe90e69782">
   <rect height="265.2254" width="454.69125" x="92.38875" y="28.92"/>
  </clipPath>
 </defs>
</svg>
