<?xml version="1.0" encoding="utf-8" standalone="no"?>
<!DOCTYPE svg PUBLIC "-//W3C//DTD SVG 1.1//EN"
  "http://www.w3.org/Graphics/SVG/1.1/DTD/svg11.dtd">
<!-- Created with matplotlib (http://matplotlib.org/) -->
<svg height="360pt" version="1.1" viewBox="0 0 648 360" width="648pt" xmlns="http://www.w3.org/2000/svg" xmlns:xlink="http://www.w3.org/1999/xlink">
 <defs>
  <style type="text/css">
*{stroke-linecap:butt;stroke-linejoin:round;}
  </style>
 </defs>
 <g id="figure_1">
  <g id="patch_1">
   <path d="M 0 360 
L 648 360 
L 648 0 
L 0 0 
z
" style="fill:#ffffff;"/>
  </g>
  <g id="axes_1">
   <g id="patch_2">
    <path d="M 81.67 284.08 
L 334.415 284.08 
L 334.415 28.92 
L 81.67 28.92 
z
" style="fill:#ffffff;"/>
   </g>
   <g id="matplotlib.axis_1">
    <g id="xtick_1">
     <g id="line2d_1">
      <defs>
       <path d="M 0 0 
L 0 2 
" id="me44c4ff146" style="stroke:#262626;"/>
      </defs>
      <g>
       <use style="fill:#262626;stroke:#262626;" x="123.794167" xlink:href="#me44c4ff146" y="284.08"/>
      </g>
     </g>
     <g id="text_1">
      <text style="fill:#262626;font-family:Arial;font-size:20px;font-style:normal;font-weight:normal;text-anchor:middle;" transform="rotate(-0, 123.794167, 307.395625)" x="123.794167" y="307.395625">CHX</text>
     </g>
    </g>
    <g id="xtick_2">
     <g id="line2d_2">
      <g>
       <use style="fill:#262626;stroke:#262626;" x="208.0425" xlink:href="#me44c4ff146" y="284.08"/>
      </g>
     </g>
     <g id="text_2">
      <text style="fill:#262626;font-family:Arial;font-size:20px;font-style:normal;font-weight:normal;text-anchor:middle;" transform="rotate(-0, 208.0425, 307.395625)" x="208.0425" y="307.395625">NMM</text>
     </g>
    </g>
    <g id="xtick_3">
     <g id="line2d_3">
      <g>
       <use style="fill:#262626;stroke:#262626;" x="292.290833" xlink:href="#me44c4ff146" y="284.08"/>
      </g>
     </g>
     <g id="text_3">
      <text style="fill:#262626;font-family:Arial;font-size:20px;font-style:normal;font-weight:normal;" transform="translate(265.336146 307.395625)">CHX+</text>
      <text style="fill:#262626;font-family:Arial;font-size:20px;font-style:normal;font-weight:normal;" transform="translate(268.409583 328.549375)">NMM</text>
     </g>
    </g>
   </g>
   <g id="matplotlib.axis_2">
    <g id="ytick_1">
     <g id="line2d_4">
      <defs>
       <path d="M 0 0 
L -2 0 
" id="m6e2c8e7284" style="stroke:#262626;"/>
      </defs>
      <g>
       <use style="fill:#262626;stroke:#262626;" x="81.67" xlink:href="#m6e2c8e7284" y="259.018667"/>
      </g>
     </g>
     <g id="text_4">
      <text style="fill:#262626;font-family:Arial;font-size:20px;font-style:normal;font-weight:normal;text-anchor:end;" transform="rotate(-0, 72.67, 266.17648)" x="72.67" y="266.17648">−6</text>
     </g>
    </g>
    <g id="ytick_2">
     <g id="line2d_5">
      <g>
       <use style="fill:#262626;stroke:#262626;" x="81.67" xlink:href="#m6e2c8e7284" y="190.910347"/>
      </g>
     </g>
     <g id="text_5">
      <text style="fill:#262626;font-family:Arial;font-size:20px;font-style:normal;font-weight:normal;text-anchor:end;" transform="rotate(-0, 72.67, 198.068159)" x="72.67" y="198.068159">−4</text>
     </g>
    </g>
    <g id="ytick_3">
     <g id="line2d_6">
      <g>
       <use style="fill:#262626;stroke:#262626;" x="81.67" xlink:href="#m6e2c8e7284" y="122.802026"/>
      </g>
     </g>
     <g id="text_6">
      <text style="fill:#262626;font-family:Arial;font-size:20px;font-style:normal;font-weight:normal;text-anchor:end;" transform="rotate(-0, 72.67, 129.959839)" x="72.67" y="129.959839">−2</text>
     </g>
    </g>
    <g id="ytick_4">
     <g id="line2d_7">
      <g>
       <use style="fill:#262626;stroke:#262626;" x="81.67" xlink:href="#m6e2c8e7284" y="54.693706"/>
      </g>
     </g>
     <g id="text_7">
      <text style="fill:#262626;font-family:Arial;font-size:20px;font-style:normal;font-weight:normal;text-anchor:end;" transform="rotate(-0, 72.67, 61.851518)" x="72.67" y="61.851518">0</text>
     </g>
    </g>
    <g id="text_8">
     <text style="fill:#262626;font-family:Arial;font-size:22px;font-style:normal;font-weight:normal;text-anchor:middle;" transform="rotate(-90, 41.236563, 156.5)" x="41.236563" y="156.5">Log2FC (ΔΔCT)</text>
    </g>
   </g>
   <g id="PathCollection_1"/>
   <g id="PathCollection_2"/>
   <g id="PathCollection_3"/>
   <g id="patch_3">
    <path d="M 81.67 284.08 
L 81.67 28.92 
" style="fill:none;stroke:#262626;stroke-linecap:square;stroke-linejoin:miter;stroke-width:1.25;"/>
   </g>
   <g id="patch_4">
    <path d="M 334.415 284.08 
L 334.415 28.92 
" style="fill:none;stroke:#262626;stroke-linecap:square;stroke-linejoin:miter;stroke-width:1.25;"/>
   </g>
   <g id="patch_5">
    <path d="M 81.67 284.08 
L 334.415 284.08 
" style="fill:none;stroke:#262626;stroke-linecap:square;stroke-linejoin:miter;stroke-width:1.25;"/>
   </g>
   <g id="patch_6">
    <path d="M 81.67 28.92 
L 334.415 28.92 
" style="fill:none;stroke:#262626;stroke-linecap:square;stroke-linejoin:miter;stroke-width:1.25;"/>
   </g>
   <g id="PathCollection_4">
    <defs>
     <path d="M 0 2.5 
C 0.663008 2.5 1.29895 2.236584 1.767767 1.767767 
C 2.236584 1.29895 2.5 0.663008 2.5 0 
C 2.5 -0.663008 2.236584 -1.29895 1.767767 -1.767767 
C 1.29895 -2.236584 0.663008 -2.5 0 -2.5 
C -0.663008 -2.5 -1.29895 -2.236584 -1.767767 -1.767767 
C -2.236584 -1.29895 -2.5 -0.663008 -2.5 0 
C -2.5 0.663008 -2.236584 1.29895 -1.767767 1.767767 
C -1.29895 2.236584 -0.663008 2.5 0 2.5 
z
" id="C0_0_d57387c622"/>
    </defs>
    <g clip-path="url(#pd5084b8507)">
     <use style="fill:#0072b2;" x="130.81938" xlink:href="#C0_0_d57387c622" y="106.456029"/>
    </g>
    <g clip-path="url(#pd5084b8507)">
     <use style="fill:#d55e00;" x="123.78033" xlink:href="#C0_0_d57387c622" y="98.283031"/>
    </g>
    <g clip-path="url(#pd5084b8507)">
     <use style="fill:#009e73;" x="127.57245" xlink:href="#C0_0_d57387c622" y="194.656304"/>
    </g>
    <g clip-path="url(#pd5084b8507)">
     <use style="fill:#0072b2;" x="119.709965" xlink:href="#C0_0_d57387c622" y="154.131854"/>
    </g>
    <g clip-path="url(#pd5084b8507)">
     <use style="fill:#d55e00;" x="116.229304" xlink:href="#C0_0_d57387c622" y="138.126398"/>
    </g>
    <g clip-path="url(#pd5084b8507)">
     <use style="fill:#009e73;" x="123.152369" xlink:href="#C0_0_d57387c622" y="85.682992"/>
    </g>
    <g clip-path="url(#pd5084b8507)">
     <use style="fill:#0072b2;" x="124.076491" xlink:href="#C0_0_d57387c622" y="124.164193"/>
    </g>
    <g clip-path="url(#pd5084b8507)">
     <use style="fill:#d55e00;" x="120.907171" xlink:href="#C0_0_d57387c622" y="115.650653"/>
    </g>
    <g clip-path="url(#pd5084b8507)">
     <use style="fill:#009e73;" x="128.989865" xlink:href="#C0_0_d57387c622" y="133.699357"/>
    </g>
   </g>
   <g id="PathCollection_5">
    <defs>
     <path d="M 0 2.5 
C 0.663008 2.5 1.29895 2.236584 1.767767 1.767767 
C 2.236584 1.29895 2.5 0.663008 2.5 0 
C 2.5 -0.663008 2.236584 -1.29895 1.767767 -1.767767 
C 1.29895 -2.236584 0.663008 -2.5 0 -2.5 
C -0.663008 -2.5 -1.29895 -2.236584 -1.767767 -1.767767 
C -2.236584 -1.29895 -2.5 -0.663008 -2.5 0 
C -2.5 0.663008 -2.236584 1.29895 -1.767767 1.767767 
C -1.29895 2.236584 -0.663008 2.5 0 2.5 
z
" id="C1_0_1dfbc69887"/>
    </defs>
    <g clip-path="url(#pd5084b8507)">
     <use style="fill:#0072b2;" x="214.310072" xlink:href="#C1_0_1dfbc69887" y="181.715723"/>
    </g>
    <g clip-path="url(#pd5084b8507)">
     <use style="fill:#d55e00;" x="208.845839" xlink:href="#C1_0_1dfbc69887" y="214.407717"/>
    </g>
    <g clip-path="url(#pd5084b8507)">
     <use style="fill:#009e73;" x="214.461842" xlink:href="#C1_0_1dfbc69887" y="225.64559"/>
    </g>
    <g clip-path="url(#pd5084b8507)">
     <use style="fill:#0072b2;" x="200.714677" xlink:href="#C1_0_1dfbc69887" y="236.883463"/>
    </g>
    <g clip-path="url(#pd5084b8507)">
     <use style="fill:#d55e00;" x="212.477286" xlink:href="#C1_0_1dfbc69887" y="206.234719"/>
    </g>
    <g clip-path="url(#pd5084b8507)">
     <use style="fill:#009e73;" x="212.975719" xlink:href="#C1_0_1dfbc69887" y="130.975025"/>
    </g>
    <g clip-path="url(#pd5084b8507)">
     <use style="fill:#0072b2;" x="209.975828" xlink:href="#C1_0_1dfbc69887" y="214.407717"/>
    </g>
    <g clip-path="url(#pd5084b8507)">
     <use style="fill:#d55e00;" x="211.347568" xlink:href="#C1_0_1dfbc69887" y="214.067176"/>
    </g>
    <g clip-path="url(#pd5084b8507)">
     <use style="fill:#009e73;" x="209.464625" xlink:href="#C1_0_1dfbc69887" y="157.196728"/>
    </g>
   </g>
   <g id="PathCollection_6">
    <defs>
     <path d="M 0 2.5 
C 0.663008 2.5 1.29895 2.236584 1.767767 1.767767 
C 2.236584 1.29895 2.5 0.663008 2.5 0 
C 2.5 -0.663008 2.236584 -1.29895 1.767767 -1.767767 
C 1.29895 -2.236584 0.663008 -2.5 0 -2.5 
C -0.663008 -2.5 -1.29895 -2.236584 -1.767767 -1.767767 
C -2.236584 -1.29895 -2.5 -0.663008 -2.5 0 
C -2.5 0.663008 -2.236584 1.29895 -1.767767 1.767767 
C -1.29895 2.236584 -0.663008 2.5 0 2.5 
z
" id="C2_0_6b81d11fe6"/>
    </defs>
    <g clip-path="url(#pd5084b8507)">
     <use style="fill:#0072b2;" x="295.29133" xlink:href="#C2_0_6b81d11fe6" y="182.056265"/>
    </g>
    <g clip-path="url(#pd5084b8507)">
     <use style="fill:#d55e00;" x="292.851203" xlink:href="#C2_0_6b81d11fe6" y="195.337388"/>
    </g>
    <g clip-path="url(#pd5084b8507)">
     <use style="fill:#009e73;" x="289.732782" xlink:href="#C2_0_6b81d11fe6" y="270.937623"/>
    </g>
    <g clip-path="url(#pd5084b8507)">
     <use style="fill:#0072b2;" x="299.721662" xlink:href="#C2_0_6b81d11fe6" y="225.64559"/>
    </g>
    <g clip-path="url(#pd5084b8507)">
     <use style="fill:#d55e00;" x="284.079455" xlink:href="#C2_0_6b81d11fe6" y="222.240174"/>
    </g>
    <g clip-path="url(#pd5084b8507)">
     <use style="fill:#009e73;" x="287.450698" xlink:href="#C2_0_6b81d11fe6" y="207.256344"/>
    </g>
    <g clip-path="url(#pd5084b8507)">
     <use style="fill:#0072b2;" x="296.970789" xlink:href="#C2_0_6b81d11fe6" y="218.494217"/>
    </g>
    <g clip-path="url(#pd5084b8507)">
     <use style="fill:#d55e00;" x="292.363371" xlink:href="#C2_0_6b81d11fe6" y="194.996846"/>
    </g>
    <g clip-path="url(#pd5084b8507)">
     <use style="fill:#009e73;" x="294.384372" xlink:href="#C2_0_6b81d11fe6" y="243.353754"/>
    </g>
   </g>
  </g>
  <g id="axes_2">
   <g id="patch_7">
    <path d="M 366.335 284.08 
L 619.08 284.08 
L 619.08 28.92 
L 366.335 28.92 
z
" style="fill:#ffffff;"/>
   </g>
   <g id="matplotlib.axis_3">
    <g id="xtick_4">
     <g id="line2d_8">
      <g>
       <use style="fill:#262626;stroke:#262626;" x="408.459167" xlink:href="#me44c4ff146" y="284.08"/>
      </g>
     </g>
     <g id="text_9">
      <text style="fill:#262626;font-family:Arial;font-size:20px;font-style:normal;font-weight:normal;text-anchor:middle;" transform="rotate(-0, 408.459167, 307.395625)" x="408.459167" y="307.395625">CHX</text>
     </g>
    </g>
    <g id="xtick_5">
     <g id="line2d_9">
      <g>
       <use style="fill:#262626;stroke:#262626;" x="492.7075" xlink:href="#me44c4ff146" y="284.08"/>
      </g>
     </g>
     <g id="text_10">
      <text style="fill:#262626;font-family:Arial;font-size:20px;font-style:normal;font-weight:normal;text-anchor:middle;" transform="rotate(-0, 492.7075, 307.395625)" x="492.7075" y="307.395625">NMM</text>
     </g>
    </g>
    <g id="xtick_6">
     <g id="line2d_10">
      <g>
       <use style="fill:#262626;stroke:#262626;" x="576.955833" xlink:href="#me44c4ff146" y="284.08"/>
      </g>
     </g>
     <g id="text_11">
      <text style="fill:#262626;font-family:Arial;font-size:20px;font-style:normal;font-weight:normal;" transform="translate(550.001146 307.395625)">CHX+</text>
      <text style="fill:#262626;font-family:Arial;font-size:20px;font-style:normal;font-weight:normal;" transform="translate(553.074583 328.549375)">NMM</text>
     </g>
    </g>
   </g>
   <g id="matplotlib.axis_4">
    <g id="ytick_5">
     <g id="line2d_11">
      <g>
       <use style="fill:#262626;stroke:#262626;" x="366.335" xlink:href="#m6e2c8e7284" y="259.018667"/>
      </g>
     </g>
    </g>
    <g id="ytick_6">
     <g id="line2d_12">
      <g>
       <use style="fill:#262626;stroke:#262626;" x="366.335" xlink:href="#m6e2c8e7284" y="190.910347"/>
      </g>
     </g>
    </g>
    <g id="ytick_7">
     <g id="line2d_13">
      <g>
       <use style="fill:#262626;stroke:#262626;" x="366.335" xlink:href="#m6e2c8e7284" y="122.802026"/>
      </g>
     </g>
    </g>
    <g id="ytick_8">
     <g id="line2d_14">
      <g>
       <use style="fill:#262626;stroke:#262626;" x="366.335" xlink:href="#m6e2c8e7284" y="54.693706"/>
      </g>
     </g>
    </g>
   </g>
   <g id="PathCollection_7"/>
   <g id="PathCollection_8"/>
   <g id="PathCollection_9"/>
   <g id="patch_8">
    <path d="M 366.335 284.08 
L 366.335 28.92 
" style="fill:none;stroke:#262626;stroke-linecap:square;stroke-linejoin:miter;stroke-width:1.25;"/>
   </g>
   <g id="patch_9">
    <path d="M 619.08 284.08 
L 619.08 28.92 
" style="fill:none;stroke:#262626;stroke-linecap:square;stroke-linejoin:miter;stroke-width:1.25;"/>
   </g>
   <g id="patch_10">
    <path d="M 366.335 284.08 
L 619.08 284.08 
" style="fill:none;stroke:#262626;stroke-linecap:square;stroke-linejoin:miter;stroke-width:1.25;"/>
   </g>
   <g id="patch_11">
    <path d="M 366.335 28.92 
L 619.08 28.92 
" style="fill:none;stroke:#262626;stroke-linecap:square;stroke-linejoin:miter;stroke-width:1.25;"/>
   </g>
   <g id="PathCollection_10">
    <defs>
     <path d="M 0 2.5 
C 0.663008 2.5 1.29895 2.236584 1.767767 1.767767 
C 2.236584 1.29895 2.5 0.663008 2.5 0 
C 2.5 -0.663008 2.236584 -1.29895 1.767767 -1.767767 
C 1.29895 -2.236584 0.663008 -2.5 0 -2.5 
C -0.663008 -2.5 -1.29895 -2.236584 -1.767767 -1.767767 
C -2.236584 -1.29895 -2.5 -0.663008 -2.5 0 
C -2.5 0.663008 -2.236584 1.29895 -1.767767 1.767767 
C -1.29895 2.236584 -0.663008 2.5 0 2.5 
z
" id="C3_0_963042e5df"/>
    </defs>
    <g clip-path="url(#p8c04482a67)">
     <use style="fill:#0072b2;" x="400.676042" xlink:href="#C3_0_963042e5df" y="91.131657"/>
    </g>
    <g clip-path="url(#p8c04482a67)">
     <use style="fill:#d55e00;" x="406.624981" xlink:href="#C3_0_963042e5df" y="100.32628"/>
    </g>
    <g clip-path="url(#p8c04482a67)">
     <use style="fill:#009e73;" x="408.702014" xlink:href="#C3_0_963042e5df" y="176.948141"/>
    </g>
    <g clip-path="url(#p8c04482a67)">
     <use style="fill:#0072b2;" x="407.836475" xlink:href="#C3_0_963042e5df" y="150.045354"/>
    </g>
    <g clip-path="url(#p8c04482a67)">
     <use style="fill:#d55e00;" x="413.046799" xlink:href="#C3_0_963042e5df" y="103.391155"/>
    </g>
    <g clip-path="url(#p8c04482a67)">
     <use style="fill:#009e73;" x="400.810525" xlink:href="#C3_0_963042e5df" y="85.001908"/>
    </g>
    <g clip-path="url(#p8c04482a67)">
     <use style="fill:#0072b2;" x="401.442526" xlink:href="#C3_0_963042e5df" y="115.991194"/>
    </g>
    <g clip-path="url(#p8c04482a67)">
     <use style="fill:#d55e00;" x="406.630822" xlink:href="#C3_0_963042e5df" y="86.704616"/>
    </g>
    <g clip-path="url(#p8c04482a67)">
     <use style="fill:#009e73;" x="414.940311" xlink:href="#C3_0_963042e5df" y="90.791116"/>
    </g>
   </g>
   <g id="PathCollection_11">
    <defs>
     <path d="M 0 2.5 
C 0.663008 2.5 1.29895 2.236584 1.767767 1.767767 
C 2.236584 1.29895 2.5 0.663008 2.5 0 
C 2.5 -0.663008 2.236584 -1.29895 1.767767 -1.767767 
C 1.29895 -2.236584 0.663008 -2.5 0 -2.5 
C -0.663008 -2.5 -1.29895 -2.236584 -1.767767 -1.767767 
C -2.236584 -1.29895 -2.5 -0.663008 -2.5 0 
C -2.5 0.663008 -2.236584 1.29895 -1.767767 1.767767 
C -1.29895 2.236584 -0.663008 2.5 0 2.5 
z
" id="C4_0_65e7a59714"/>
    </defs>
    <g clip-path="url(#p8c04482a67)">
     <use style="fill:#0072b2;" x="488.393393" xlink:href="#C4_0_65e7a59714" y="138.46694"/>
    </g>
    <g clip-path="url(#p8c04482a67)">
     <use style="fill:#d55e00;" x="493.898542" xlink:href="#C4_0_65e7a59714" y="162.645394"/>
    </g>
    <g clip-path="url(#p8c04482a67)">
     <use style="fill:#009e73;" x="498.95288" xlink:href="#C4_0_65e7a59714" y="230.413173"/>
    </g>
    <g clip-path="url(#p8c04482a67)">
     <use style="fill:#0072b2;" x="488.212779" xlink:href="#C4_0_65e7a59714" y="178.991391"/>
    </g>
    <g clip-path="url(#p8c04482a67)">
     <use style="fill:#d55e00;" x="493.849005" xlink:href="#C4_0_65e7a59714" y="180.694099"/>
    </g>
    <g clip-path="url(#p8c04482a67)">
     <use style="fill:#009e73;" x="487.59805" xlink:href="#C4_0_65e7a59714" y="126.888525"/>
    </g>
    <g clip-path="url(#p8c04482a67)">
     <use style="fill:#0072b2;" x="496.376311" xlink:href="#C4_0_65e7a59714" y="42.434208"/>
    </g>
    <g clip-path="url(#p8c04482a67)">
     <use style="fill:#d55e00;" x="493.272615" xlink:href="#C4_0_65e7a59714" y="157.196728"/>
    </g>
    <g clip-path="url(#p8c04482a67)">
     <use style="fill:#009e73;" x="498.103455" xlink:href="#C4_0_65e7a59714" y="123.823651"/>
    </g>
   </g>
   <g id="PathCollection_12">
    <defs>
     <path d="M 0 2.5 
C 0.663008 2.5 1.29895 2.236584 1.767767 1.767767 
C 2.236584 1.29895 2.5 0.663008 2.5 0 
C 2.5 -0.663008 2.236584 -1.29895 1.767767 -1.767767 
C 1.29895 -2.236584 0.663008 -2.5 0 -2.5 
C -0.663008 -2.5 -1.29895 -2.236584 -1.767767 -1.767767 
C -2.236584 -1.29895 -2.5 -0.663008 -2.5 0 
C -2.5 0.663008 -2.236584 1.29895 -1.767767 1.767767 
C -1.29895 2.236584 -0.663008 2.5 0 2.5 
z
" id="C5_0_7da082f3f0"/>
    </defs>
    <g clip-path="url(#p8c04482a67)">
     <use style="fill:#0072b2;" x="575.267466" xlink:href="#C5_0_7da082f3f0" y="159.580519"/>
    </g>
    <g clip-path="url(#p8c04482a67)">
     <use style="fill:#d55e00;" x="578.708724" xlink:href="#C5_0_7da082f3f0" y="194.315763"/>
    </g>
    <g clip-path="url(#p8c04482a67)">
     <use style="fill:#009e73;" x="570.169131" xlink:href="#C5_0_7da082f3f0" y="251.867294"/>
    </g>
    <g clip-path="url(#p8c04482a67)">
     <use style="fill:#0072b2;" x="580.692362" xlink:href="#C5_0_7da082f3f0" y="174.223808"/>
    </g>
    <g clip-path="url(#p8c04482a67)">
     <use style="fill:#d55e00;" x="573.876183" xlink:href="#C5_0_7da082f3f0" y="220.878008"/>
    </g>
    <g clip-path="url(#p8c04482a67)">
     <use style="fill:#009e73;" x="570.222507" xlink:href="#C5_0_7da082f3f0" y="180.694099"/>
    </g>
    <g clip-path="url(#p8c04482a67)">
     <use style="fill:#0072b2;" x="583.786294" xlink:href="#C5_0_7da082f3f0" y="170.477851"/>
    </g>
    <g clip-path="url(#p8c04482a67)">
     <use style="fill:#d55e00;" x="582.195777" xlink:href="#C5_0_7da082f3f0" y="194.315763"/>
    </g>
    <g clip-path="url(#p8c04482a67)">
     <use style="fill:#009e73;" x="579.669314" xlink:href="#C5_0_7da082f3f0" y="161.283227"/>
    </g>
   </g>
  </g>
 </g>
 <defs>
  <clipPath id="pd5084b8507">
   <rect height="255.16" width="252.745" x="81.67" y="28.92"/>
  </clipPath>
  <clipPath id="p8c04482a67">
   <rect height="255.16" width="252.745" x="366.335" y="28.92"/>
  </clipPath>
 </defs>
</svg>
