<?xml version="1.0" encoding="utf-8" standalone="no"?>
<!DOCTYPE svg PUBLIC "-//W3C//DTD SVG 1.1//EN"
  "http://www.w3.org/Graphics/SVG/1.1/DTD/svg11.dtd">
<!-- Created with matplotlib (http://matplotlib.org/) -->
<svg height="396pt" version="1.1" viewBox="0 0 648 396" width="648pt" xmlns="http://www.w3.org/2000/svg" xmlns:xlink="http://www.w3.org/1999/xlink">
 <defs>
  <style type="text/css">
*{stroke-linecap:butt;stroke-linejoin:round;}
  </style>
 </defs>
 <g id="figure_1">
  <g id="patch_1">
   <path d="M 0 396 
L 648 396 
L 648 0 
L 0 0 
z
" style="fill:#ffffff;"/>
  </g>
  <g id="axes_1">
   <g id="patch_2">
    <path d="M 81.67 294.7675 
L 334.415 294.7675 
L 334.415 29.428296 
L 81.67 29.428296 
z
" style="fill:#ffffff;"/>
   </g>
   <g id="line2d_1">
    <path clip-path="url(#pe73d3d2f87)" d="M 81.67 63.706138 
L 84.22298 65.763177 
L 86.77596 67.820215 
L 89.328939 69.877254 
L 91.881919 71.934292 
L 94.434899 73.991331 
L 96.987879 76.048369 
L 99.540859 78.105408 
L 102.093838 80.162447 
L 104.646818 82.219485 
L 107.199798 84.276524 
L 109.752778 86.333562 
L 112.305758 88.390601 
L 114.858737 90.447639 
L 117.411717 92.504678 
L 119.964697 94.561717 
L 122.517677 96.618755 
L 125.070657 98.675794 
L 127.623636 100.732832 
L 130.176616 102.789871 
L 132.729596 104.846909 
L 135.282576 106.903948 
L 137.835556 108.960987 
L 140.388535 111.018025 
L 142.941515 113.075064 
L 145.494495 115.132102 
L 148.047475 117.189141 
L 150.600455 119.246179 
L 153.153434 121.303218 
L 155.706414 123.360257 
L 158.259394 125.417295 
L 160.812374 127.474334 
L 163.365354 129.531372 
L 165.918333 131.588411 
L 168.471313 133.645449 
L 171.024293 135.702488 
L 173.577273 137.759527 
L 176.130253 139.816565 
L 178.683232 141.873604 
L 181.236212 143.930642 
L 183.789192 145.987681 
L 186.342172 148.044719 
L 188.895152 150.101758 
L 191.448131 152.158797 
L 194.001111 154.215835 
L 196.554091 156.272874 
L 199.107071 158.329912 
L 201.660051 160.386951 
L 204.21303 162.443989 
L 206.76601 164.501028 
L 209.31899 166.558067 
L 211.87197 168.615105 
L 214.424949 170.672144 
L 216.977929 172.729182 
L 219.530909 174.786221 
L 222.083889 176.843259 
L 224.636869 178.900298 
L 227.189848 180.957337 
L 229.742828 183.014375 
L 232.295808 185.071414 
L 234.848788 187.128452 
L 237.401768 189.185491 
L 239.954747 191.242529 
L 242.507727 193.299568 
L 245.060707 195.356607 
L 247.613687 197.413645 
L 250.166667 199.470684 
L 252.719646 201.527722 
L 255.272626 203.584761 
L 257.825606 205.641799 
L 260.378586 207.698838 
L 262.931566 209.755877 
L 265.484545 211.812915 
L 268.037525 213.869954 
L 270.590505 215.926992 
L 273.143485 217.984031 
L 275.696465 220.041069 
L 278.249444 222.098108 
L 280.802424 224.155147 
L 283.355404 226.212185 
L 285.908384 228.269224 
L 288.461364 230.326262 
L 291.014343 232.383301 
L 293.567323 234.440339 
L 296.120303 236.497378 
L 298.673283 238.554417 
L 301.226263 240.611455 
L 303.779242 242.668494 
L 306.332222 244.725532 
L 308.885202 246.782571 
L 311.438182 248.839609 
L 313.991162 250.896648 
L 316.544141 252.953687 
L 319.097121 255.010725 
L 321.650101 257.067764 
L 324.203081 259.124802 
L 326.756061 261.181841 
L 329.30904 263.238879 
L 331.86202 265.295918 
L 334.415 267.352957 
" style="fill:none;stroke:#0072b2;stroke-linecap:round;stroke-width:2.625;"/>
   </g>
   <g id="matplotlib.axis_1">
    <g id="xtick_1">
     <g id="line2d_2">
      <defs>
       <path d="M 0 0 
L 0 2 
" id="me5da5d47b9" style="stroke:#262626;"/>
      </defs>
      <g>
       <use style="fill:#262626;stroke:#262626;" x="113.896111" xlink:href="#me5da5d47b9" y="294.7675"/>
      </g>
     </g>
     <g id="text_1">
      <text style="fill:#262626;font-family:Arial;font-size:20px;font-style:normal;font-weight:normal;text-anchor:middle;" transform="rotate(-0, 113.896111, 318.083125)" x="113.896111" y="318.083125">5</text>
     </g>
    </g>
    <g id="xtick_2">
     <g id="line2d_3">
      <g>
       <use style="fill:#262626;stroke:#262626;" x="213.197384" xlink:href="#me5da5d47b9" y="294.7675"/>
      </g>
     </g>
     <g id="text_2">
      <text style="fill:#262626;font-family:Arial;font-size:20px;font-style:normal;font-weight:normal;text-anchor:middle;" transform="rotate(-0, 213.197384, 318.083125)" x="213.197384" y="318.083125">10</text>
     </g>
    </g>
    <g id="xtick_3">
     <g id="line2d_4">
      <g>
       <use style="fill:#262626;stroke:#262626;" x="271.284906" xlink:href="#me5da5d47b9" y="294.7675"/>
      </g>
     </g>
     <g id="text_3">
      <text style="fill:#262626;font-family:Arial;font-size:20px;font-style:normal;font-weight:normal;text-anchor:middle;" transform="rotate(-0, 271.284906, 318.083125)" x="271.284906" y="318.083125">15</text>
     </g>
    </g>
    <g id="xtick_4">
     <g id="line2d_5">
      <g>
       <use style="fill:#262626;stroke:#262626;" x="312.498658" xlink:href="#me5da5d47b9" y="294.7675"/>
      </g>
     </g>
     <g id="text_4">
      <text style="fill:#262626;font-family:Arial;font-size:20px;font-style:normal;font-weight:normal;text-anchor:middle;" transform="rotate(-0, 312.498658, 318.083125)" x="312.498658" y="318.083125">20</text>
     </g>
    </g>
    <g id="text_5">
     <text style="fill:#262626;font-family:Arial;font-size:22px;font-style:normal;font-weight:normal;" transform="translate(160.350625 341.5475)">Berberine</text>
     <text style="fill:#262626;font-family:Arial;font-size:22px;font-style:normal;font-weight:normal;" transform="translate(113.677969 365.138375)">Concentration (μM)</text>
    </g>
   </g>
   <g id="matplotlib.axis_2">
    <g id="ytick_1">
     <g id="line2d_6">
      <defs>
       <path d="M 0 0 
L -2 0 
" id="m988b5de400" style="stroke:#262626;"/>
      </defs>
      <g>
       <use style="fill:#262626;stroke:#262626;" x="81.67" xlink:href="#m988b5de400" y="249.000658"/>
      </g>
     </g>
     <g id="text_6">
      <text style="fill:#262626;font-family:Arial;font-size:20px;font-style:normal;font-weight:normal;text-anchor:end;" transform="rotate(-0, 72.67, 256.158471)" x="72.67" y="256.158471">−3</text>
     </g>
    </g>
    <g id="ytick_2">
     <g id="line2d_7">
      <g>
       <use style="fill:#262626;stroke:#262626;" x="81.67" xlink:href="#m988b5de400" y="176.990725"/>
      </g>
     </g>
     <g id="text_7">
      <text style="fill:#262626;font-family:Arial;font-size:20px;font-style:normal;font-weight:normal;text-anchor:end;" transform="rotate(-0, 72.67, 184.148538)" x="72.67" y="184.148538">−2</text>
     </g>
    </g>
    <g id="ytick_3">
     <g id="line2d_8">
      <g>
       <use style="fill:#262626;stroke:#262626;" x="81.67" xlink:href="#m988b5de400" y="104.980792"/>
      </g>
     </g>
     <g id="text_8">
      <text style="fill:#262626;font-family:Arial;font-size:20px;font-style:normal;font-weight:normal;text-anchor:end;" transform="rotate(-0, 72.67, 112.138605)" x="72.67" y="112.138605">−1</text>
     </g>
    </g>
    <g id="ytick_4">
     <g id="line2d_9">
      <g>
       <use style="fill:#262626;stroke:#262626;" x="81.67" xlink:href="#m988b5de400" y="32.970859"/>
      </g>
     </g>
     <g id="text_9">
      <text style="fill:#262626;font-family:Arial;font-size:20px;font-style:normal;font-weight:normal;text-anchor:end;" transform="rotate(-0, 72.67, 40.128672)" x="72.67" y="40.128672">0</text>
     </g>
    </g>
    <g id="text_10">
     <text style="fill:#262626;font-family:Arial;font-size:22px;font-style:normal;font-weight:normal;text-anchor:middle;" transform="rotate(-90, 41.236563, 162.097898)" x="41.236563" y="162.097898">Log2FC (ΔΔCT)</text>
    </g>
   </g>
   <g id="PathCollection_1">
    <defs>
     <path d="M 0 3.5 
C 0.928211 3.5 1.81853 3.131218 2.474874 2.474874 
C 3.131218 1.81853 3.5 0.928211 3.5 0 
C 3.5 -0.928211 3.131218 -1.81853 2.474874 -2.474874 
C 1.81853 -3.131218 0.928211 -3.5 0 -3.5 
C -0.928211 -3.5 -1.81853 -3.131218 -2.474874 -2.474874 
C -3.131218 -1.81853 -3.5 -0.928211 -3.5 0 
C -3.5 0.928211 -3.131218 1.81853 -2.474874 2.474874 
C -1.81853 3.131218 -0.928211 3.5 0 3.5 
z
" id="C0_0_58d71b359b"/>
    </defs>
    <g clip-path="url(#pe73d3d2f87)">
     <use style="fill:#0072b2;stroke:#0072b2;stroke-width:0.3;" x="216.939147" xlink:href="#C0_0_58d71b359b" y="181.311321"/>
    </g>
    <g clip-path="url(#pe73d3d2f87)">
     <use style="fill:#d55e00;stroke:#d55e00;stroke-width:0.3;" x="213.860176" xlink:href="#C0_0_58d71b359b" y="132.344567"/>
    </g>
    <g clip-path="url(#pe73d3d2f87)">
     <use style="fill:#009e73;stroke:#009e73;stroke-width:0.3;" x="207.800571" xlink:href="#C0_0_58d71b359b" y="196.433407"/>
    </g>
    <g clip-path="url(#pe73d3d2f87)">
     <use style="fill:#0072b2;stroke:#0072b2;stroke-width:0.3;" x="215.61098" xlink:href="#C0_0_58d71b359b" y="192.112811"/>
    </g>
    <g clip-path="url(#pe73d3d2f87)">
     <use style="fill:#d55e00;stroke:#d55e00;stroke-width:0.3;" x="207.033052" xlink:href="#C0_0_58d71b359b" y="159.708341"/>
    </g>
    <g clip-path="url(#pe73d3d2f87)">
     <use style="fill:#009e73;stroke:#009e73;stroke-width:0.3;" x="216.1586" xlink:href="#C0_0_58d71b359b" y="191.392712"/>
    </g>
    <g clip-path="url(#pe73d3d2f87)">
     <use style="fill:#0072b2;stroke:#0072b2;stroke-width:0.3;" x="210.322222" xlink:href="#C0_0_58d71b359b" y="208.675096"/>
    </g>
    <g clip-path="url(#pe73d3d2f87)">
     <use style="fill:#d55e00;stroke:#d55e00;stroke-width:0.3;" x="209.378898" xlink:href="#C0_0_58d71b359b" y="174.110328"/>
    </g>
    <g clip-path="url(#pe73d3d2f87)">
     <use style="fill:#009e73;stroke:#009e73;stroke-width:0.3;" x="206.597051" xlink:href="#C0_0_58d71b359b" y="178.430924"/>
    </g>
    <g clip-path="url(#pe73d3d2f87)">
     <use style="fill:#0072b2;stroke:#0072b2;stroke-width:0.3;" x="316.928038" xlink:href="#C0_0_58d71b359b" y="211.555493"/>
    </g>
    <g clip-path="url(#pe73d3d2f87)">
     <use style="fill:#d55e00;stroke:#d55e00;stroke-width:0.3;" x="311.476362" xlink:href="#C0_0_58d71b359b" y="247.560459"/>
    </g>
    <g clip-path="url(#pe73d3d2f87)">
     <use style="fill:#009e73;stroke:#009e73;stroke-width:0.3;" x="307.978656" xlink:href="#C0_0_58d71b359b" y="261.962446"/>
    </g>
    <g clip-path="url(#pe73d3d2f87)">
     <use style="fill:#0072b2;stroke:#0072b2;stroke-width:0.3;" x="308.069043" xlink:href="#C0_0_58d71b359b" y="228.837877"/>
    </g>
    <g clip-path="url(#pe73d3d2f87)">
     <use style="fill:#d55e00;stroke:#d55e00;stroke-width:0.3;" x="315.848247" xlink:href="#C0_0_58d71b359b" y="242.519764"/>
    </g>
    <g clip-path="url(#pe73d3d2f87)">
     <use style="fill:#009e73;stroke:#009e73;stroke-width:0.3;" x="313.372578" xlink:href="#C0_0_58d71b359b" y="275.644333"/>
    </g>
    <g clip-path="url(#pe73d3d2f87)">
     <use style="fill:#0072b2;stroke:#0072b2;stroke-width:0.3;" x="317.868821" xlink:href="#C0_0_58d71b359b" y="227.397678"/>
    </g>
    <g clip-path="url(#pe73d3d2f87)">
     <use style="fill:#d55e00;stroke:#d55e00;stroke-width:0.3;" x="317.543127" xlink:href="#C0_0_58d71b359b" y="246.84036"/>
    </g>
    <g clip-path="url(#pe73d3d2f87)">
     <use style="fill:#009e73;stroke:#009e73;stroke-width:0.3;" x="317.434112" xlink:href="#C0_0_58d71b359b" y="261.242347"/>
    </g>
    <g clip-path="url(#pe73d3d2f87)">
     <use style="fill:#0072b2;stroke:#0072b2;stroke-width:0.3;" x="102.280802" xlink:href="#C0_0_58d71b359b" y="91.298905"/>
    </g>
    <g clip-path="url(#pe73d3d2f87)">
     <use style="fill:#d55e00;stroke:#d55e00;stroke-width:0.3;" x="117.464269" xlink:href="#C0_0_58d71b359b" y="42.33215"/>
    </g>
    <g clip-path="url(#pe73d3d2f87)">
     <use style="fill:#009e73;stroke:#009e73;stroke-width:0.3;" x="122.042669" xlink:href="#C0_0_58d71b359b" y="126.583772"/>
    </g>
    <g clip-path="url(#pe73d3d2f87)">
     <use style="fill:#0072b2;stroke:#0072b2;stroke-width:0.3;" x="116.840236" xlink:href="#C0_0_58d71b359b" y="115.782282"/>
    </g>
    <g clip-path="url(#pe73d3d2f87)">
     <use style="fill:#d55e00;stroke:#d55e00;stroke-width:0.3;" x="115.976253" xlink:href="#C0_0_58d71b359b" y="47.372846"/>
    </g>
    <g clip-path="url(#pe73d3d2f87)">
     <use style="fill:#009e73;stroke:#009e73;stroke-width:0.3;" x="98.216179" xlink:href="#C0_0_58d71b359b" y="78.337117"/>
    </g>
    <g clip-path="url(#pe73d3d2f87)">
     <use style="fill:#0072b2;stroke:#0072b2;stroke-width:0.3;" x="112.842466" xlink:href="#C0_0_58d71b359b" y="124.423474"/>
    </g>
    <g clip-path="url(#pe73d3d2f87)">
     <use style="fill:#d55e00;stroke:#d55e00;stroke-width:0.3;" x="118.017231" xlink:href="#C0_0_58d71b359b" y="57.454236"/>
    </g>
    <g clip-path="url(#pe73d3d2f87)">
     <use style="fill:#009e73;stroke:#009e73;stroke-width:0.3;" x="117.628624" xlink:href="#C0_0_58d71b359b" y="79.777316"/>
    </g>
   </g>
   <g id="PolyCollection_1">
    <path clip-path="url(#pe73d3d2f87)" d="M 81.67 42.341188 
L 81.67 84.378064 
L 84.22298 86.167557 
L 86.77596 87.932132 
L 89.328939 89.717741 
L 91.881919 91.516905 
L 94.434899 93.316068 
L 96.987879 95.115744 
L 99.540859 96.916971 
L 102.093838 98.716369 
L 104.646818 100.515767 
L 107.199798 102.315165 
L 109.752778 104.114563 
L 112.305758 105.913961 
L 114.858737 107.713173 
L 117.411717 109.52163 
L 119.964697 111.373395 
L 122.517677 113.20344 
L 125.070657 114.993416 
L 127.623636 116.795112 
L 130.176616 118.717 
L 132.729596 120.639259 
L 135.282576 122.452806 
L 137.835556 124.244101 
L 140.388535 126.109428 
L 142.941515 127.974755 
L 145.494495 129.840082 
L 148.047475 131.704283 
L 150.600455 133.35232 
L 153.153434 135.185028 
L 155.706414 137.08437 
L 158.259394 138.975398 
L 160.812374 140.821393 
L 163.365354 142.601931 
L 165.918333 144.381443 
L 168.471313 146.160956 
L 171.024293 147.943186 
L 173.577273 149.726264 
L 176.130253 151.504392 
L 178.683232 153.281899 
L 181.236212 155.123116 
L 183.789192 157.04036 
L 186.342172 158.864543 
L 188.895152 160.674836 
L 191.448131 162.578731 
L 194.001111 164.493017 
L 196.554091 166.301197 
L 199.107071 168.077928 
L 201.660051 169.974235 
L 204.21303 171.758361 
L 206.76601 173.783846 
L 209.31899 175.687396 
L 211.87197 177.68294 
L 214.424949 179.565299 
L 216.977929 181.49389 
L 219.530909 183.563826 
L 222.083889 185.596345 
L 224.636869 187.575744 
L 227.189848 189.53895 
L 229.742828 191.617864 
L 232.295808 193.681471 
L 234.848788 195.696963 
L 237.401768 197.781631 
L 239.954747 199.805937 
L 242.507727 201.903835 
L 245.060707 204.118246 
L 247.613687 206.370584 
L 250.166667 208.436905 
L 252.719646 210.663895 
L 255.272626 212.730527 
L 257.825606 214.865663 
L 260.378586 216.908943 
L 262.931566 219.165377 
L 265.484545 221.287113 
L 268.037525 223.524278 
L 270.590505 225.836214 
L 273.143485 228.013646 
L 275.696465 230.317656 
L 278.249444 232.516793 
L 280.802424 234.710447 
L 283.355404 236.791765 
L 285.908384 239.029631 
L 288.461364 241.267497 
L 291.014343 243.512491 
L 293.567323 245.747158 
L 296.120303 248.038213 
L 298.673283 250.346355 
L 301.226263 252.655289 
L 303.779242 255.015192 
L 306.332222 257.268274 
L 308.885202 259.568246 
L 311.438182 261.88466 
L 313.991162 264.20659 
L 316.544141 266.502363 
L 319.097121 268.752971 
L 321.650101 271.049419 
L 324.203081 273.389336 
L 326.756061 275.735216 
L 329.30904 278.043491 
L 331.86202 280.373703 
L 334.415 282.706627 
L 334.415 252.792075 
L 334.415 252.792075 
L 331.86202 250.881066 
L 329.30904 249.078868 
L 326.756061 247.276669 
L 324.203081 245.383202 
L 321.650101 243.473621 
L 319.097121 241.630026 
L 316.544141 239.685104 
L 313.991162 237.779557 
L 311.438182 236.063952 
L 308.885202 234.348348 
L 306.332222 232.632743 
L 303.779242 230.917139 
L 301.226263 228.990554 
L 298.673283 226.961083 
L 296.120303 224.931611 
L 293.567323 223.09762 
L 291.014343 221.392508 
L 288.461364 219.587853 
L 285.908384 217.903207 
L 283.355404 216.050862 
L 280.802424 214.044689 
L 278.249444 211.987221 
L 275.696465 209.894646 
L 273.143485 207.814394 
L 270.590505 205.72424 
L 268.037525 203.572446 
L 265.484545 201.573101 
L 262.931566 199.501037 
L 260.378586 197.423299 
L 257.825606 195.47247 
L 255.272626 193.599789 
L 252.719646 191.765368 
L 250.166667 189.968187 
L 247.613687 187.96328 
L 245.060707 186.048643 
L 242.507727 184.055378 
L 239.954747 181.989214 
L 237.401768 179.886803 
L 234.848788 177.824816 
L 232.295808 175.954698 
L 229.742828 173.862855 
L 227.189848 171.783265 
L 224.636869 169.694993 
L 222.083889 167.492552 
L 219.530909 165.405503 
L 216.977929 163.289958 
L 214.424949 161.25484 
L 211.87197 158.971286 
L 209.31899 156.796784 
L 206.76601 154.724078 
L 204.21303 152.731104 
L 201.660051 150.497554 
L 199.107071 148.338137 
L 196.554091 146.141665 
L 194.001111 143.945192 
L 191.448131 141.726168 
L 188.895152 139.473701 
L 186.342172 137.352951 
L 183.789192 135.251639 
L 181.236212 133.013029 
L 178.683232 130.912796 
L 176.130253 128.777337 
L 173.577273 126.652657 
L 171.024293 124.272531 
L 168.471313 121.890032 
L 165.918333 119.546328 
L 163.365354 117.270768 
L 160.812374 114.984288 
L 158.259394 112.606063 
L 155.706414 110.219575 
L 153.153434 107.834763 
L 150.600455 105.451783 
L 148.047475 103.156081 
L 145.494495 100.883469 
L 142.941515 98.610856 
L 140.388535 96.338243 
L 137.835556 93.95185 
L 135.282576 91.489964 
L 132.729596 89.245896 
L 130.176616 87.17045 
L 127.623636 84.765087 
L 125.070657 82.303905 
L 122.517677 80.064125 
L 119.964697 77.89869 
L 117.411717 75.493731 
L 114.858737 73.206498 
L 112.305758 70.748409 
L 109.752778 68.291547 
L 107.199798 65.996025 
L 104.646818 63.805209 
L 102.093838 61.360848 
L 99.540859 58.968024 
L 96.987879 56.701604 
L 94.434899 54.346995 
L 91.881919 51.94199 
L 89.328939 49.539121 
L 86.77596 47.140793 
L 84.22298 44.718182 
L 81.67 42.341188 
z
" style="fill:#0072b2;fill-opacity:0.15;"/>
   </g>
   <g id="patch_3">
    <path d="M 81.67 294.7675 
L 81.67 29.428296 
" style="fill:none;stroke:#262626;stroke-linecap:square;stroke-linejoin:miter;stroke-width:1.25;"/>
   </g>
   <g id="patch_4">
    <path d="M 334.415 294.7675 
L 334.415 29.428296 
" style="fill:none;stroke:#262626;stroke-linecap:square;stroke-linejoin:miter;stroke-width:1.25;"/>
   </g>
   <g id="patch_5">
    <path d="M 81.67 294.7675 
L 334.415 294.7675 
" style="fill:none;stroke:#262626;stroke-linecap:square;stroke-linejoin:miter;stroke-width:1.25;"/>
   </g>
   <g id="patch_6">
    <path d="M 81.67 29.428296 
L 334.415 29.428296 
" style="fill:none;stroke:#262626;stroke-linecap:square;stroke-linejoin:miter;stroke-width:1.25;"/>
   </g>
  </g>
  <g id="axes_2">
   <g id="patch_7">
    <path d="M 366.335 294.7675 
L 619.08 294.7675 
L 619.08 29.428296 
L 366.335 29.428296 
z
" style="fill:#ffffff;"/>
   </g>
   <g id="line2d_10">
    <path clip-path="url(#p3d43a019d8)" d="M 366.335 60.828771 
L 368.88798 61.919644 
L 371.44096 63.010518 
L 373.993939 64.101391 
L 376.546919 65.192264 
L 379.099899 66.283137 
L 381.652879 67.374011 
L 384.205859 68.464884 
L 386.758838 69.555757 
L 389.311818 70.646631 
L 391.864798 71.737504 
L 394.417778 72.828377 
L 396.970758 73.91925 
L 399.523737 75.010124 
L 402.076717 76.100997 
L 404.629697 77.19187 
L 407.182677 78.282744 
L 409.735657 79.373617 
L 412.288636 80.46449 
L 414.841616 81.555363 
L 417.394596 82.646237 
L 419.947576 83.73711 
L 422.500556 84.827983 
L 425.053535 85.918856 
L 427.606515 87.00973 
L 430.159495 88.100603 
L 432.712475 89.191476 
L 435.265455 90.28235 
L 437.818434 91.373223 
L 440.371414 92.464096 
L 442.924394 93.554969 
L 445.477374 94.645843 
L 448.030354 95.736716 
L 450.583333 96.827589 
L 453.136313 97.918463 
L 455.689293 99.009336 
L 458.242273 100.100209 
L 460.795253 101.191082 
L 463.348232 102.281956 
L 465.901212 103.372829 
L 468.454192 104.463702 
L 471.007172 105.554575 
L 473.560152 106.645449 
L 476.113131 107.736322 
L 478.666111 108.827195 
L 481.219091 109.918069 
L 483.772071 111.008942 
L 486.325051 112.099815 
L 488.87803 113.190688 
L 491.43101 114.281562 
L 493.98399 115.372435 
L 496.53697 116.463308 
L 499.089949 117.554181 
L 501.642929 118.645055 
L 504.195909 119.735928 
L 506.748889 120.826801 
L 509.301869 121.917675 
L 511.854848 123.008548 
L 514.407828 124.099421 
L 516.960808 125.190294 
L 519.513788 126.281168 
L 522.066768 127.372041 
L 524.619747 128.462914 
L 527.172727 129.553788 
L 529.725707 130.644661 
L 532.278687 131.735534 
L 534.831667 132.826407 
L 537.384646 133.917281 
L 539.937626 135.008154 
L 542.490606 136.099027 
L 545.043586 137.1899 
L 547.596566 138.280774 
L 550.149545 139.371647 
L 552.702525 140.46252 
L 555.255505 141.553394 
L 557.808485 142.644267 
L 560.361465 143.73514 
L 562.914444 144.826013 
L 565.467424 145.916887 
L 568.020404 147.00776 
L 570.573384 148.098633 
L 573.126364 149.189506 
L 575.679343 150.28038 
L 578.232323 151.371253 
L 580.785303 152.462126 
L 583.338283 153.553 
L 585.891263 154.643873 
L 588.444242 155.734746 
L 590.997222 156.825619 
L 593.550202 157.916493 
L 596.103182 159.007366 
L 598.656162 160.098239 
L 601.209141 161.189113 
L 603.762121 162.279986 
L 606.315101 163.370859 
L 608.868081 164.461732 
L 611.421061 165.552606 
L 613.97404 166.643479 
L 616.52702 167.734352 
L 619.08 168.825225 
" style="fill:none;stroke:#0072b2;stroke-linecap:round;stroke-width:2.625;"/>
   </g>
   <g id="matplotlib.axis_3">
    <g id="xtick_5">
     <g id="line2d_11">
      <g>
       <use style="fill:#262626;stroke:#262626;" x="390.207715" xlink:href="#me5da5d47b9" y="294.7675"/>
      </g>
     </g>
     <g id="text_11">
      <text style="fill:#262626;font-family:Arial;font-size:20px;font-style:normal;font-weight:normal;text-anchor:middle;" transform="rotate(-0, 390.207715, 318.083125)" x="390.207715" y="318.083125">5</text>
     </g>
    </g>
    <g id="xtick_6">
     <g id="line2d_12">
      <g>
       <use style="fill:#262626;stroke:#262626;" x="491.510226" xlink:href="#me5da5d47b9" y="294.7675"/>
      </g>
     </g>
     <g id="text_12">
      <text style="fill:#262626;font-family:Arial;font-size:20px;font-style:normal;font-weight:normal;text-anchor:middle;" transform="rotate(-0, 491.510226, 318.083125)" x="491.510226" y="318.083125">10</text>
     </g>
    </g>
    <g id="xtick_7">
     <g id="line2d_13">
      <g>
       <use style="fill:#262626;stroke:#262626;" x="550.768397" xlink:href="#me5da5d47b9" y="294.7675"/>
      </g>
     </g>
     <g id="text_13">
      <text style="fill:#262626;font-family:Arial;font-size:20px;font-style:normal;font-weight:normal;text-anchor:middle;" transform="rotate(-0, 550.768397, 318.083125)" x="550.768397" y="318.083125">15</text>
     </g>
    </g>
    <g id="xtick_8">
     <g id="line2d_14">
      <g>
       <use style="fill:#262626;stroke:#262626;" x="592.812738" xlink:href="#me5da5d47b9" y="294.7675"/>
      </g>
     </g>
     <g id="text_14">
      <text style="fill:#262626;font-family:Arial;font-size:20px;font-style:normal;font-weight:normal;text-anchor:middle;" transform="rotate(-0, 592.812738, 318.083125)" x="592.812738" y="318.083125">20</text>
     </g>
    </g>
    <g id="text_15">
     <text style="fill:#262626;font-family:Arial;font-size:22px;font-style:normal;font-weight:normal;" transform="translate(445.015625 341.5475)">Berberine</text>
     <text style="fill:#262626;font-family:Arial;font-size:22px;font-style:normal;font-weight:normal;" transform="translate(398.342969 365.138375)">Concentration (μM)</text>
    </g>
   </g>
   <g id="matplotlib.axis_4">
    <g id="ytick_5">
     <g id="line2d_15">
      <g>
       <use style="fill:#262626;stroke:#262626;" x="366.335" xlink:href="#m988b5de400" y="249.000658"/>
      </g>
     </g>
    </g>
    <g id="ytick_6">
     <g id="line2d_16">
      <g>
       <use style="fill:#262626;stroke:#262626;" x="366.335" xlink:href="#m988b5de400" y="176.990725"/>
      </g>
     </g>
    </g>
    <g id="ytick_7">
     <g id="line2d_17">
      <g>
       <use style="fill:#262626;stroke:#262626;" x="366.335" xlink:href="#m988b5de400" y="104.980792"/>
      </g>
     </g>
    </g>
    <g id="ytick_8">
     <g id="line2d_18">
      <g>
       <use style="fill:#262626;stroke:#262626;" x="366.335" xlink:href="#m988b5de400" y="32.970859"/>
      </g>
     </g>
    </g>
   </g>
   <g id="PathCollection_2">
    <defs>
     <path d="M 0 3.5 
C 0.928211 3.5 1.81853 3.131218 2.474874 2.474874 
C 3.131218 1.81853 3.5 0.928211 3.5 0 
C 3.5 -0.928211 3.131218 -1.81853 2.474874 -2.474874 
C 1.81853 -3.131218 0.928211 -3.5 0 -3.5 
C -0.928211 -3.5 -1.81853 -3.131218 -2.474874 -2.474874 
C -3.131218 -1.81853 -3.5 -0.928211 -3.5 0 
C -3.5 0.928211 -3.131218 1.81853 -2.474874 2.474874 
C -1.81853 3.131218 -0.928211 3.5 0 3.5 
z
" id="C1_0_1f0de38838"/>
    </defs>
    <g clip-path="url(#p3d43a019d8)">
     <use style="fill:#0072b2;stroke:#0072b2;stroke-width:0.3;" x="500.991487" xlink:href="#C1_0_1f0de38838" y="107.14109"/>
    </g>
    <g clip-path="url(#p3d43a019d8)">
     <use style="fill:#d55e00;stroke:#d55e00;stroke-width:0.3;" x="508.786112" xlink:href="#C1_0_1f0de38838" y="115.782282"/>
    </g>
    <g clip-path="url(#p3d43a019d8)">
     <use style="fill:#009e73;stroke:#009e73;stroke-width:0.3;" x="491.062017" xlink:href="#C1_0_1f0de38838" y="127.303871"/>
    </g>
    <g clip-path="url(#p3d43a019d8)">
     <use style="fill:#0072b2;stroke:#0072b2;stroke-width:0.3;" x="488.257941" xlink:href="#C1_0_1f0de38838" y="133.064666"/>
    </g>
    <g clip-path="url(#p3d43a019d8)">
     <use style="fill:#d55e00;stroke:#d55e00;stroke-width:0.3;" x="499.133315" xlink:href="#C1_0_1f0de38838" y="143.146057"/>
    </g>
    <g clip-path="url(#p3d43a019d8)">
     <use style="fill:#009e73;stroke:#009e73;stroke-width:0.3;" x="483.308501" xlink:href="#C1_0_1f0de38838" y="129.464169"/>
    </g>
    <g clip-path="url(#p3d43a019d8)">
     <use style="fill:#0072b2;stroke:#0072b2;stroke-width:0.3;" x="483.772982" xlink:href="#C1_0_1f0de38838" y="110.021487"/>
    </g>
    <g clip-path="url(#p3d43a019d8)">
     <use style="fill:#d55e00;stroke:#d55e00;stroke-width:0.3;" x="484.560121" xlink:href="#C1_0_1f0de38838" y="125.143573"/>
    </g>
    <g clip-path="url(#p3d43a019d8)">
     <use style="fill:#009e73;stroke:#009e73;stroke-width:0.3;" x="490.316985" xlink:href="#C1_0_1f0de38838" y="135.224964"/>
    </g>
    <g clip-path="url(#p3d43a019d8)">
     <use style="fill:#0072b2;stroke:#0072b2;stroke-width:0.3;" x="602.431891" xlink:href="#C1_0_1f0de38838" y="110.021487"/>
    </g>
    <g clip-path="url(#p3d43a019d8)">
     <use style="fill:#d55e00;stroke:#d55e00;stroke-width:0.3;" x="594.513786" xlink:href="#C1_0_1f0de38838" y="198.593705"/>
    </g>
    <g clip-path="url(#p3d43a019d8)">
     <use style="fill:#009e73;stroke:#009e73;stroke-width:0.3;" x="597.303799" xlink:href="#C1_0_1f0de38838" y="166.909335"/>
    </g>
    <g clip-path="url(#p3d43a019d8)">
     <use style="fill:#0072b2;stroke:#0072b2;stroke-width:0.3;" x="591.159434" xlink:href="#C1_0_1f0de38838" y="113.621984"/>
    </g>
    <g clip-path="url(#p3d43a019d8)">
     <use style="fill:#d55e00;stroke:#d55e00;stroke-width:0.3;" x="592.675029" xlink:href="#C1_0_1f0de38838" y="171.95003"/>
    </g>
    <g clip-path="url(#p3d43a019d8)">
     <use style="fill:#009e73;stroke:#009e73;stroke-width:0.3;" x="597.7482" xlink:href="#C1_0_1f0de38838" y="169.789732"/>
    </g>
    <g clip-path="url(#p3d43a019d8)">
     <use style="fill:#0072b2;stroke:#0072b2;stroke-width:0.3;" x="596.567508" xlink:href="#C1_0_1f0de38838" y="114.342083"/>
    </g>
    <g clip-path="url(#p3d43a019d8)">
     <use style="fill:#d55e00;stroke:#d55e00;stroke-width:0.3;" x="587.483179" xlink:href="#C1_0_1f0de38838" y="163.308838"/>
    </g>
    <g clip-path="url(#p3d43a019d8)">
     <use style="fill:#009e73;stroke:#009e73;stroke-width:0.3;" x="591.028607" xlink:href="#C1_0_1f0de38838" y="161.14854"/>
    </g>
    <g clip-path="url(#p3d43a019d8)">
     <use style="fill:#0072b2;stroke:#0072b2;stroke-width:0.3;" x="392.816328" xlink:href="#C1_0_1f0de38838" y="53.85374"/>
    </g>
    <g clip-path="url(#p3d43a019d8)">
     <use style="fill:#d55e00;stroke:#d55e00;stroke-width:0.3;" x="391.983687" xlink:href="#C1_0_1f0de38838" y="58.894435"/>
    </g>
    <g clip-path="url(#p3d43a019d8)">
     <use style="fill:#009e73;stroke:#009e73;stroke-width:0.3;" x="390.376212" xlink:href="#C1_0_1f0de38838" y="63.215031"/>
    </g>
    <g clip-path="url(#p3d43a019d8)">
     <use style="fill:#0072b2;stroke:#0072b2;stroke-width:0.3;" x="397.00049" xlink:href="#C1_0_1f0de38838" y="77.617018"/>
    </g>
    <g clip-path="url(#p3d43a019d8)">
     <use style="fill:#d55e00;stroke:#d55e00;stroke-width:0.3;" x="407.507328" xlink:href="#C1_0_1f0de38838" y="50.973342"/>
    </g>
    <g clip-path="url(#p3d43a019d8)">
     <use style="fill:#009e73;stroke:#009e73;stroke-width:0.3;" x="389.853201" xlink:href="#C1_0_1f0de38838" y="68.975826"/>
    </g>
    <g clip-path="url(#p3d43a019d8)">
     <use style="fill:#0072b2;stroke:#0072b2;stroke-width:0.3;" x="382.983109" xlink:href="#C1_0_1f0de38838" y="86.25821"/>
    </g>
    <g clip-path="url(#p3d43a019d8)">
     <use style="fill:#d55e00;stroke:#d55e00;stroke-width:0.3;" x="385.433739" xlink:href="#C1_0_1f0de38838" y="48.092945"/>
    </g>
    <g clip-path="url(#p3d43a019d8)">
     <use style="fill:#009e73;stroke:#009e73;stroke-width:0.3;" x="396.083649" xlink:href="#C1_0_1f0de38838" y="82.657713"/>
    </g>
   </g>
   <g id="PolyCollection_2">
    <path clip-path="url(#p3d43a019d8)" d="M 366.335 49.835374 
L 366.335 74.097603 
L 368.88798 74.94916 
L 371.44096 75.775267 
L 373.993939 76.640148 
L 376.546919 77.531435 
L 379.099899 78.381982 
L 381.652879 79.104952 
L 384.205859 79.905801 
L 386.758838 80.926853 
L 389.311818 81.78352 
L 391.864798 82.632389 
L 394.417778 83.48384 
L 396.970758 84.335023 
L 399.523737 85.184734 
L 402.076717 86.035309 
L 404.629697 86.826071 
L 407.182677 87.585858 
L 409.735657 88.587214 
L 412.288636 89.613389 
L 414.841616 90.639564 
L 417.394596 91.574819 
L 419.947576 92.549326 
L 422.500556 93.543376 
L 425.053535 94.633911 
L 427.606515 95.541741 
L 430.159495 96.51849 
L 432.712475 97.305145 
L 435.265455 98.18583 
L 437.818434 98.999509 
L 440.371414 99.852418 
L 442.924394 100.688425 
L 445.477374 101.774023 
L 448.030354 102.744908 
L 450.583333 103.665388 
L 453.136313 104.598718 
L 455.689293 105.823565 
L 458.242273 107.056035 
L 460.795253 108.190725 
L 463.348232 109.381013 
L 465.901212 110.538387 
L 468.454192 111.543709 
L 471.007172 112.833443 
L 473.560152 113.974856 
L 476.113131 114.936786 
L 478.666111 116.112149 
L 481.219091 117.304738 
L 483.772071 118.380272 
L 486.325051 119.559021 
L 488.87803 120.709323 
L 491.43101 121.999139 
L 493.98399 123.291784 
L 496.53697 124.478065 
L 499.089949 125.814418 
L 501.642929 127.085579 
L 504.195909 128.34689 
L 506.748889 129.515795 
L 509.301869 130.773723 
L 511.854848 132.052838 
L 514.407828 133.424152 
L 516.960808 134.795689 
L 519.513788 136.08571 
L 522.066768 137.486571 
L 524.619747 138.888279 
L 527.172727 140.284174 
L 529.725707 141.558008 
L 532.278687 142.791101 
L 534.831667 144.041897 
L 537.384646 145.407719 
L 539.937626 146.652343 
L 542.490606 147.952671 
L 545.043586 149.372187 
L 547.596566 150.715447 
L 550.149545 151.936305 
L 552.702525 153.231888 
L 555.255505 154.563699 
L 557.808485 155.894501 
L 560.361465 157.224597 
L 562.914444 158.554693 
L 565.467424 159.884789 
L 568.020404 161.214884 
L 570.573384 162.54498 
L 573.126364 163.875076 
L 575.679343 165.205171 
L 578.232323 166.535267 
L 580.785303 167.865363 
L 583.338283 169.195459 
L 585.891263 170.525554 
L 588.444242 171.918294 
L 590.997222 173.302108 
L 593.550202 174.619774 
L 596.103182 175.93744 
L 598.656162 177.255106 
L 601.209141 178.572772 
L 603.762121 179.890438 
L 606.315101 181.207397 
L 608.868081 182.533037 
L 611.421061 183.932039 
L 613.97404 185.33104 
L 616.52702 186.730042 
L 619.08 188.129044 
L 619.08 148.508172 
L 619.08 148.508172 
L 616.52702 147.743618 
L 613.97404 146.979348 
L 611.421061 146.220149 
L 608.868081 145.595783 
L 606.315101 144.919774 
L 603.762121 144.079764 
L 601.209141 143.254793 
L 598.656162 142.46867 
L 596.103182 141.648023 
L 593.550202 140.884267 
L 590.997222 140.119266 
L 588.444242 139.180102 
L 585.891263 138.345184 
L 583.338283 137.520268 
L 580.785303 136.69699 
L 578.232323 135.873712 
L 575.679343 135.061799 
L 573.126364 134.313071 
L 570.573384 133.504933 
L 568.020404 132.699151 
L 565.467424 131.857845 
L 562.914444 131.072843 
L 560.361465 130.287963 
L 557.808485 129.503871 
L 555.255505 128.621071 
L 552.702525 127.731691 
L 550.149545 126.853697 
L 547.596566 126.077976 
L 545.043586 125.280076 
L 542.490606 124.39431 
L 539.937626 123.506957 
L 537.384646 122.681007 
L 534.831667 121.8561 
L 532.278687 121.031194 
L 529.725707 120.227412 
L 527.172727 119.381602 
L 524.619747 118.488015 
L 522.066768 117.52981 
L 519.513788 116.683481 
L 516.960808 115.837152 
L 514.407828 114.881436 
L 511.854848 113.770546 
L 509.301869 112.82909 
L 506.748889 111.859324 
L 504.195909 110.969504 
L 501.642929 110.080377 
L 499.089949 109.065113 
L 496.53697 108.150787 
L 493.98399 107.296266 
L 491.43101 106.33377 
L 488.87803 105.29484 
L 486.325051 104.314799 
L 483.772071 103.401014 
L 481.219091 102.488825 
L 478.666111 101.505891 
L 476.113131 100.343697 
L 473.560152 99.489021 
L 471.007172 98.487675 
L 468.454192 97.482079 
L 465.901212 96.450801 
L 463.348232 95.447921 
L 460.795253 94.319747 
L 458.242273 93.283362 
L 455.689293 92.288864 
L 453.136313 91.175076 
L 450.583333 90.053334 
L 448.030354 89.024049 
L 445.477374 88.007882 
L 442.924394 86.989568 
L 440.371414 85.972623 
L 437.818434 84.89781 
L 435.265455 83.813953 
L 432.712475 82.792373 
L 430.159495 81.624593 
L 427.606515 80.456004 
L 425.053535 79.268449 
L 422.500556 78.025786 
L 419.947576 76.928472 
L 417.394596 75.773827 
L 414.841616 74.505219 
L 412.288636 73.249229 
L 409.735657 72.046065 
L 407.182677 70.800131 
L 404.629697 69.38878 
L 402.076717 68.195527 
L 399.523737 66.943365 
L 396.970758 65.814478 
L 394.417778 64.538971 
L 391.864798 63.125986 
L 389.311818 61.782347 
L 386.758838 60.595415 
L 384.205859 59.258021 
L 381.652879 57.861273 
L 379.099899 56.633776 
L 376.546919 55.398366 
L 373.993939 54.006962 
L 371.44096 52.616433 
L 368.88798 51.225904 
L 366.335 49.835374 
z
" style="fill:#0072b2;fill-opacity:0.15;"/>
   </g>
   <g id="patch_8">
    <path d="M 366.335 294.7675 
L 366.335 29.428296 
" style="fill:none;stroke:#262626;stroke-linecap:square;stroke-linejoin:miter;stroke-width:1.25;"/>
   </g>
   <g id="patch_9">
    <path d="M 619.08 294.7675 
L 619.08 29.428296 
" style="fill:none;stroke:#262626;stroke-linecap:square;stroke-linejoin:miter;stroke-width:1.25;"/>
   </g>
   <g id="patch_10">
    <path d="M 366.335 294.7675 
L 619.08 294.7675 
" style="fill:none;stroke:#262626;stroke-linecap:square;stroke-linejoin:miter;stroke-width:1.25;"/>
   </g>
   <g id="patch_11">
    <path d="M 366.335 29.428296 
L 619.08 29.428296 
" style="fill:none;stroke:#262626;stroke-linecap:square;stroke-linejoin:miter;stroke-width:1.25;"/>
   </g>
  </g>
 </g>
 <defs>
  <clipPath id="pe73d3d2f87">
   <rect height="265.339204" width="252.745" x="81.67" y="29.428296"/>
  </clipPath>
  <clipPath id="p3d43a019d8">
   <rect height="265.339204" width="252.745" x="366.335" y="29.428296"/>
  </clipPath>
 </defs>
</svg>
