<?xml version="1.0" encoding="utf-8" standalone="no"?>
<!DOCTYPE svg PUBLIC "-//W3C//DTD SVG 1.1//EN"
  "http://www.w3.org/Graphics/SVG/1.1/DTD/svg11.dtd">
<!-- Created with matplotlib (http://matplotlib.org/) -->
<svg height="432pt" version="1.1" viewBox="0 0 396 432" width="396pt" xmlns="http://www.w3.org/2000/svg" xmlns:xlink="http://www.w3.org/1999/xlink">
 <defs>
  <style type="text/css">
*{stroke-linecap:butt;stroke-linejoin:round;}
  </style>
 </defs>
 <g id="figure_1">
  <g id="patch_1">
   <path d="M 0 432 
L 396 432 
L 396 0 
L 0 0 
z
" style="fill:#ffffff;"/>
  </g>
  <g id="axes_1">
   <g id="patch_2">
    <path d="M 62.795 378.08 
L 356.1425 378.08 
L 356.1425 88.776 
L 62.795 88.776 
z
" style="fill:#ffffff;"/>
   </g>
   <g id="matplotlib.axis_1">
    <g id="xtick_1">
     <g id="line2d_1">
      <defs>
       <path d="M 0 0 
L 0 2 
" id="m81cf2b75d5" style="stroke:#262626;"/>
      </defs>
      <g>
       <use style="fill:#262626;stroke:#262626;" x="131.686009" xlink:href="#m81cf2b75d5" y="378.08"/>
      </g>
     </g>
     <g id="text_1">
      <text style="fill:#262626;font-family:Arial;font-size:20px;font-style:normal;font-weight:normal;text-anchor:middle;" transform="rotate(-0, 131.686009, 401.395625)" x="131.686009" y="401.395625">2</text>
     </g>
    </g>
    <g id="xtick_2">
     <g id="line2d_2">
      <g>
       <use style="fill:#262626;stroke:#262626;" x="209.864024" xlink:href="#m81cf2b75d5" y="378.08"/>
      </g>
     </g>
     <g id="text_2">
      <text style="fill:#262626;font-family:Arial;font-size:20px;font-style:normal;font-weight:normal;text-anchor:middle;" transform="rotate(-0, 209.864024, 401.395625)" x="209.864024" y="401.395625">4</text>
     </g>
    </g>
    <g id="xtick_3">
     <g id="line2d_3">
      <g>
       <use style="fill:#262626;stroke:#262626;" x="288.042039" xlink:href="#m81cf2b75d5" y="378.08"/>
      </g>
     </g>
     <g id="text_3">
      <text style="fill:#262626;font-family:Arial;font-size:20px;font-style:normal;font-weight:normal;text-anchor:middle;" transform="rotate(-0, 288.042039, 401.395625)" x="288.042039" y="401.395625">6</text>
     </g>
    </g>
    <g id="text_4">
     <text style="fill:#262626;font-family:Arial;font-size:22px;font-style:normal;font-weight:normal;text-anchor:middle;" transform="rotate(-0, 209.46875, 425.117813)" x="209.46875" y="425.117813">PG4 / kb</text>
    </g>
   </g>
   <g id="matplotlib.axis_2">
    <g id="ytick_1">
     <g id="line2d_4">
      <defs>
       <path d="M 0 0 
L -2 0 
" id="ma9832996bd" style="stroke:#262626;"/>
      </defs>
      <g>
       <use style="fill:#262626;stroke:#262626;" x="62.795" xlink:href="#ma9832996bd" y="378.08"/>
      </g>
     </g>
     <g id="text_5">
      <text style="fill:#262626;font-family:Arial;font-size:20px;font-style:normal;font-weight:normal;text-anchor:end;" transform="rotate(-0, 53.795, 385.237813)" x="53.795" y="385.237813">−0.4</text>
     </g>
    </g>
    <g id="ytick_2">
     <g id="line2d_5">
      <g>
       <use style="fill:#262626;stroke:#262626;" x="62.795" xlink:href="#ma9832996bd" y="325.479273"/>
      </g>
     </g>
     <g id="text_6">
      <text style="fill:#262626;font-family:Arial;font-size:20px;font-style:normal;font-weight:normal;text-anchor:end;" transform="rotate(-0, 53.795, 332.637085)" x="53.795" y="332.637085">−0.2</text>
     </g>
    </g>
    <g id="ytick_3">
     <g id="line2d_6">
      <g>
       <use style="fill:#262626;stroke:#262626;" x="62.795" xlink:href="#ma9832996bd" y="272.878545"/>
      </g>
     </g>
     <g id="text_7">
      <text style="fill:#262626;font-family:Arial;font-size:20px;font-style:normal;font-weight:normal;text-anchor:end;" transform="rotate(-0, 53.795, 280.036358)" x="53.795" y="280.036358">0.0</text>
     </g>
    </g>
    <g id="ytick_4">
     <g id="line2d_7">
      <g>
       <use style="fill:#262626;stroke:#262626;" x="62.795" xlink:href="#ma9832996bd" y="220.277818"/>
      </g>
     </g>
     <g id="text_8">
      <text style="fill:#262626;font-family:Arial;font-size:20px;font-style:normal;font-weight:normal;text-anchor:end;" transform="rotate(-0, 53.795, 227.435631)" x="53.795" y="227.435631">0.2</text>
     </g>
    </g>
    <g id="ytick_5">
     <g id="line2d_8">
      <g>
       <use style="fill:#262626;stroke:#262626;" x="62.795" xlink:href="#ma9832996bd" y="167.677091"/>
      </g>
     </g>
     <g id="text_9">
      <text style="fill:#262626;font-family:Arial;font-size:20px;font-style:normal;font-weight:normal;text-anchor:end;" transform="rotate(-0, 53.795, 174.834903)" x="53.795" y="174.834903">0.4</text>
     </g>
    </g>
    <g id="ytick_6">
     <g id="line2d_9">
      <g>
       <use style="fill:#262626;stroke:#262626;" x="62.795" xlink:href="#ma9832996bd" y="115.076364"/>
      </g>
     </g>
     <g id="text_10">
      <text style="fill:#262626;font-family:Arial;font-size:20px;font-style:normal;font-weight:normal;text-anchor:end;" transform="rotate(-0, 53.795, 122.234176)" x="53.795" y="122.234176">0.6</text>
     </g>
    </g>
    <g id="text_11">
     <text style="fill:#262626;font-family:Arial;font-size:22px;font-style:normal;font-weight:normal;text-anchor:middle;" transform="rotate(-90, 5.94125, 233.428)" x="5.94125" y="233.428">Partial Dependence</text>
    </g>
   </g>
   <g id="line2d_10">
    <path clip-path="url(#p444d1e031a)" d="M 62.795 285.974371 
L 65.758106 283.708988 
L 68.721212 290.248789 
L 71.684318 282.846317 
L 74.647424 282.900892 
L 77.61053 283.02774 
L 80.573636 283.02774 
L 83.536742 277.855464 
L 86.499848 275.064373 
L 89.462955 275.064373 
L 92.426061 273.780425 
L 95.389167 271.039245 
L 98.352273 269.946214 
L 101.315379 272.595385 
L 104.278485 272.431737 
L 107.241591 272.431737 
L 110.204697 272.134709 
L 113.167803 271.150492 
L 116.130909 271.150492 
L 119.094015 269.393256 
L 122.057121 270.147428 
L 125.020227 269.743328 
L 127.983333 269.743328 
L 130.946439 265.054615 
L 133.909545 264.851566 
L 136.872652 264.851566 
L 139.835758 264.851566 
L 142.798864 259.762009 
L 145.76197 259.246326 
L 148.725076 259.246326 
L 151.688182 259.246326 
L 154.651288 258.59946 
L 157.614394 258.761633 
L 160.5775 258.761633 
L 163.540606 248.957677 
L 166.503712 245.71188 
L 169.466818 245.71188 
L 172.429924 245.71188 
L 175.39303 245.707991 
L 178.356136 239.394864 
L 181.319242 233.483923 
L 184.282348 233.483923 
L 187.245455 233.483923 
L 190.208561 233.483923 
L 193.171667 224.577816 
L 196.134773 224.577816 
L 199.097879 224.577816 
L 202.060985 224.577816 
L 205.024091 220.597334 
L 207.987197 220.597334 
L 210.950303 220.597334 
L 213.913409 220.575793 
L 216.876515 221.504984 
L 219.839621 221.504984 
L 222.802727 221.504984 
L 225.765833 221.504984 
L 228.728939 221.504984 
L 231.692045 221.504984 
L 234.655152 221.504984 
L 237.618258 221.504984 
L 240.581364 221.504984 
L 243.54447 221.504984 
L 246.507576 221.504984 
L 249.470682 221.504984 
L 252.433788 221.504984 
L 255.396894 221.504984 
L 258.36 221.504984 
L 261.323106 221.504984 
L 264.286212 221.504984 
L 267.249318 221.504984 
L 270.212424 221.504984 
L 273.17553 221.504984 
L 276.138636 211.847174 
L 279.101742 211.756265 
L 282.064848 211.756265 
L 285.027955 211.756265 
L 287.991061 211.756265 
L 290.954167 211.756265 
L 293.917273 211.756265 
L 296.880379 211.756265 
L 299.843485 211.756265 
L 302.806591 247.730152 
L 305.769697 247.730152 
L 308.732803 197.075014 
L 311.695909 197.075014 
L 314.659015 181.900716 
L 317.622121 192.11482 
L 320.585227 192.11482 
L 323.548333 192.11482 
L 326.511439 192.11482 
L 329.474545 184.75505 
L 332.437652 184.75505 
L 335.400758 184.75505 
L 338.363864 184.75505 
L 341.32697 173.175788 
L 344.290076 173.175788 
L 347.253182 173.175788 
L 350.216288 173.175788 
L 353.179394 173.175788 
L 356.1425 173.175788 
" style="fill:none;stroke:#0072b2;stroke-linecap:round;stroke-width:1.75;"/>
   </g>
   <g id="patch_3">
    <path d="M 62.795 378.08 
L 62.795 88.776 
" style="fill:none;stroke:#262626;stroke-linecap:square;stroke-linejoin:miter;stroke-width:1.25;"/>
   </g>
   <g id="patch_4">
    <path d="M 356.1425 378.08 
L 356.1425 88.776 
" style="fill:none;stroke:#262626;stroke-linecap:square;stroke-linejoin:miter;stroke-width:1.25;"/>
   </g>
   <g id="patch_5">
    <path d="M 62.795 378.08 
L 356.1425 378.08 
" style="fill:none;stroke:#262626;stroke-linecap:square;stroke-linejoin:miter;stroke-width:1.25;"/>
   </g>
  </g>
  <g id="axes_2">
   <g id="patch_6">
    <path d="M 62.795 78.8 
L 356.1425 78.8 
L 356.1425 28.92 
L 62.795 28.92 
z
" style="fill:#ffffff;"/>
   </g>
   <g id="matplotlib.axis_3">
    <g id="xtick_4">
     <g id="line2d_11">
      <g>
       <use style="fill:#262626;stroke:#262626;" x="131.686009" xlink:href="#m81cf2b75d5" y="78.8"/>
      </g>
     </g>
    </g>
    <g id="xtick_5">
     <g id="line2d_12">
      <g>
       <use style="fill:#262626;stroke:#262626;" x="209.864024" xlink:href="#m81cf2b75d5" y="78.8"/>
      </g>
     </g>
    </g>
    <g id="xtick_6">
     <g id="line2d_13">
      <g>
       <use style="fill:#262626;stroke:#262626;" x="288.042039" xlink:href="#m81cf2b75d5" y="78.8"/>
      </g>
     </g>
    </g>
   </g>
   <g id="matplotlib.axis_4">
    <g id="ytick_7"/>
    <g id="ytick_8"/>
   </g>
   <g id="patch_7">
    <path clip-path="url(#pd2cee2da1c)" d="M 62.795 78.8 
L 92.12975 78.8 
L 92.12975 31.295238 
L 62.795 31.295238 
z
" style="fill:#0072b2;"/>
   </g>
   <g id="patch_8">
    <path clip-path="url(#pd2cee2da1c)" d="M 92.12975 78.8 
L 121.4645 78.8 
L 121.4645 42.731142 
L 92.12975 42.731142 
z
" style="fill:#0072b2;"/>
   </g>
   <g id="patch_9">
    <path clip-path="url(#pd2cee2da1c)" d="M 121.4645 78.8 
L 150.79925 78.8 
L 150.79925 62.196021 
L 121.4645 62.196021 
z
" style="fill:#0072b2;"/>
   </g>
   <g id="patch_10">
    <path clip-path="url(#pd2cee2da1c)" d="M 150.79925 78.8 
L 180.134 78.8 
L 180.134 71.140174 
L 150.79925 71.140174 
z
" style="fill:#0072b2;"/>
   </g>
   <g id="patch_11">
    <path clip-path="url(#pd2cee2da1c)" d="M 180.134 78.8 
L 209.46875 78.8 
L 209.46875 74.770132 
L 180.134 74.770132 
z
" style="fill:#0072b2;"/>
   </g>
   <g id="patch_12">
    <path clip-path="url(#pd2cee2da1c)" d="M 209.46875 78.8 
L 238.8035 78.8 
L 238.8035 76.554348 
L 209.46875 76.554348 
z
" style="fill:#0072b2;"/>
   </g>
   <g id="patch_13">
    <path clip-path="url(#pd2cee2da1c)" d="M 238.8035 78.8 
L 268.13825 78.8 
L 268.13825 77.600268 
L 238.8035 77.600268 
z
" style="fill:#0072b2;"/>
   </g>
   <g id="patch_14">
    <path clip-path="url(#pd2cee2da1c)" d="M 268.13825 78.8 
L 297.473 78.8 
L 297.473 78.007869 
L 268.13825 78.007869 
z
" style="fill:#0072b2;"/>
   </g>
   <g id="patch_15">
    <path clip-path="url(#pd2cee2da1c)" d="M 297.473 78.8 
L 326.80775 78.8 
L 326.80775 78.307802 
L 297.473 78.307802 
z
" style="fill:#0072b2;"/>
   </g>
   <g id="patch_16">
    <path clip-path="url(#pd2cee2da1c)" d="M 326.80775 78.8 
L 356.1425 78.8 
L 356.1425 78.476995 
L 326.80775 78.476995 
z
" style="fill:#0072b2;"/>
   </g>
   <g id="patch_17">
    <path d="M 62.795 78.8 
L 356.1425 78.8 
" style="fill:none;stroke:#262626;stroke-linecap:square;stroke-linejoin:miter;stroke-width:1.25;"/>
   </g>
  </g>
 </g>
 <defs>
  <clipPath id="p444d1e031a">
   <rect height="289.304" width="293.3475" x="62.795" y="88.776"/>
  </clipPath>
  <clipPath id="pd2cee2da1c">
   <rect height="49.88" width="293.3475" x="62.795" y="28.92"/>
  </clipPath>
 </defs>
</svg>
