<?xml version="1.0" encoding="utf-8" standalone="no"?>
<!DOCTYPE svg PUBLIC "-//W3C//DTD SVG 1.1//EN"
  "http://www.w3.org/Graphics/SVG/1.1/DTD/svg11.dtd">
<!-- Created with matplotlib (http://matplotlib.org/) -->
<svg height="432pt" version="1.1" viewBox="0 0 396 432" width="396pt" xmlns="http://www.w3.org/2000/svg" xmlns:xlink="http://www.w3.org/1999/xlink">
 <defs>
  <style type="text/css">
*{stroke-linecap:butt;stroke-linejoin:round;}
  </style>
 </defs>
 <g id="figure_1">
  <g id="patch_1">
   <path d="M 0 432 
L 396 432 
L 396 0 
L 0 0 
z
" style="fill:#ffffff;"/>
  </g>
  <g id="axes_1">
   <g id="patch_2">
    <path d="M 62.795 378.08 
L 356.1425 378.08 
L 356.1425 88.776 
L 62.795 88.776 
z
" style="fill:#ffffff;"/>
   </g>
   <g id="matplotlib.axis_1">
    <g id="xtick_1">
     <g id="line2d_1">
      <defs>
       <path d="M 0 0 
L 0 2 
" id="mce45dae6b0" style="stroke:#262626;"/>
      </defs>
      <g>
       <use style="fill:#262626;stroke:#262626;" x="188.850693" xlink:href="#mce45dae6b0" y="378.08"/>
      </g>
     </g>
     <g id="text_1">
      <text style="fill:#262626;font-family:Arial;font-size:20px;font-style:normal;font-weight:normal;text-anchor:middle;" transform="rotate(-0, 188.850693, 401.395625)" x="188.850693" y="401.395625">0.0</text>
     </g>
    </g>
    <g id="xtick_2">
     <g id="line2d_2">
      <g>
       <use style="fill:#262626;stroke:#262626;" x="315.473573" xlink:href="#mce45dae6b0" y="378.08"/>
      </g>
     </g>
     <g id="text_2">
      <text style="fill:#262626;font-family:Arial;font-size:20px;font-style:normal;font-weight:normal;text-anchor:middle;" transform="rotate(-0, 315.473573, 401.395625)" x="315.473573" y="401.395625">0.2</text>
     </g>
    </g>
    <g id="text_3">
     <text style="fill:#262626;font-family:Arial;font-size:22px;font-style:normal;font-weight:normal;text-anchor:middle;" transform="rotate(-0, 209.46875, 425.117813)" x="209.46875" y="425.117813">GC skew</text>
    </g>
   </g>
   <g id="matplotlib.axis_2">
    <g id="ytick_1">
     <g id="line2d_3">
      <defs>
       <path d="M 0 0 
L -2 0 
" id="m9c46d431a9" style="stroke:#262626;"/>
      </defs>
      <g>
       <use style="fill:#262626;stroke:#262626;" x="62.795" xlink:href="#m9c46d431a9" y="378.08"/>
      </g>
     </g>
     <g id="text_4">
      <text style="fill:#262626;font-family:Arial;font-size:20px;font-style:normal;font-weight:normal;text-anchor:end;" transform="rotate(-0, 53.795, 385.237813)" x="53.795" y="385.237813">−0.4</text>
     </g>
    </g>
    <g id="ytick_2">
     <g id="line2d_4">
      <g>
       <use style="fill:#262626;stroke:#262626;" x="62.795" xlink:href="#m9c46d431a9" y="325.479273"/>
      </g>
     </g>
     <g id="text_5">
      <text style="fill:#262626;font-family:Arial;font-size:20px;font-style:normal;font-weight:normal;text-anchor:end;" transform="rotate(-0, 53.795, 332.637085)" x="53.795" y="332.637085">−0.2</text>
     </g>
    </g>
    <g id="ytick_3">
     <g id="line2d_5">
      <g>
       <use style="fill:#262626;stroke:#262626;" x="62.795" xlink:href="#m9c46d431a9" y="272.878545"/>
      </g>
     </g>
     <g id="text_6">
      <text style="fill:#262626;font-family:Arial;font-size:20px;font-style:normal;font-weight:normal;text-anchor:end;" transform="rotate(-0, 53.795, 280.036358)" x="53.795" y="280.036358">0.0</text>
     </g>
    </g>
    <g id="ytick_4">
     <g id="line2d_6">
      <g>
       <use style="fill:#262626;stroke:#262626;" x="62.795" xlink:href="#m9c46d431a9" y="220.277818"/>
      </g>
     </g>
     <g id="text_7">
      <text style="fill:#262626;font-family:Arial;font-size:20px;font-style:normal;font-weight:normal;text-anchor:end;" transform="rotate(-0, 53.795, 227.435631)" x="53.795" y="227.435631">0.2</text>
     </g>
    </g>
    <g id="ytick_5">
     <g id="line2d_7">
      <g>
       <use style="fill:#262626;stroke:#262626;" x="62.795" xlink:href="#m9c46d431a9" y="167.677091"/>
      </g>
     </g>
     <g id="text_8">
      <text style="fill:#262626;font-family:Arial;font-size:20px;font-style:normal;font-weight:normal;text-anchor:end;" transform="rotate(-0, 53.795, 174.834903)" x="53.795" y="174.834903">0.4</text>
     </g>
    </g>
    <g id="ytick_6">
     <g id="line2d_8">
      <g>
       <use style="fill:#262626;stroke:#262626;" x="62.795" xlink:href="#m9c46d431a9" y="115.076364"/>
      </g>
     </g>
     <g id="text_9">
      <text style="fill:#262626;font-family:Arial;font-size:20px;font-style:normal;font-weight:normal;text-anchor:end;" transform="rotate(-0, 53.795, 122.234176)" x="53.795" y="122.234176">0.6</text>
     </g>
    </g>
    <g id="text_10">
     <text style="fill:#262626;font-family:Arial;font-size:22px;font-style:normal;font-weight:normal;text-anchor:middle;" transform="rotate(-90, 5.94125, 233.428)" x="5.94125" y="233.428">Partial Dependence</text>
    </g>
   </g>
   <g id="line2d_9">
    <path clip-path="url(#pbf2d478c22)" d="M 62.795 188.553635 
L 65.758106 188.553635 
L 68.721212 196.697996 
L 71.684318 196.697996 
L 74.647424 218.843886 
L 77.61053 218.843886 
L 80.573636 218.843886 
L 83.536742 218.843886 
L 86.499848 218.843886 
L 89.462955 218.810657 
L 92.426061 218.810657 
L 95.389167 218.810657 
L 98.352273 218.810657 
L 101.315379 224.89611 
L 104.278485 233.508361 
L 107.241591 274.538891 
L 110.204697 274.538891 
L 113.167803 274.538891 
L 116.130909 274.538891 
L 119.094015 279.30581 
L 122.057121 279.30581 
L 125.020227 279.30581 
L 127.983333 280.090853 
L 130.946439 296.843639 
L 133.909545 296.843639 
L 136.872652 296.843639 
L 139.835758 296.843639 
L 142.798864 296.843639 
L 145.76197 296.843639 
L 148.725076 296.82896 
L 151.688182 301.805721 
L 154.651288 301.805721 
L 157.614394 301.805721 
L 160.5775 301.805721 
L 163.540606 310.483913 
L 166.503712 300.901595 
L 169.466818 300.901595 
L 172.429924 300.901595 
L 175.39303 300.804054 
L 178.356136 300.804054 
L 181.319242 300.480045 
L 184.282348 296.564169 
L 187.245455 296.564169 
L 190.208561 296.564169 
L 193.171667 296.564169 
L 196.134773 296.58059 
L 199.097879 297.110169 
L 202.060985 288.579393 
L 205.024091 288.579393 
L 207.987197 288.579393 
L 210.950303 288.579393 
L 213.913409 288.213689 
L 216.876515 288.213689 
L 219.839621 288.213689 
L 222.802727 288.213689 
L 225.765833 288.213689 
L 228.728939 284.860967 
L 231.692045 273.269157 
L 234.655152 271.091144 
L 237.618258 271.091144 
L 240.581364 269.013779 
L 243.54447 269.013779 
L 246.507576 269.013779 
L 249.470682 267.213878 
L 252.433788 266.331578 
L 255.396894 257.999371 
L 258.36 256.183813 
L 261.323106 256.151339 
L 264.286212 256.151339 
L 267.249318 253.872082 
L 270.212424 253.872082 
L 273.17553 254.327338 
L 276.138636 251.182355 
L 279.101742 247.699417 
L 282.064848 240.129318 
L 285.027955 240.129318 
L 287.991061 234.821503 
L 290.954167 231.346341 
L 293.917273 231.346341 
L 296.880379 231.346341 
L 299.843485 231.346341 
L 302.806591 245.28339 
L 305.769697 219.53751 
L 308.732803 197.15874 
L 311.695909 197.15874 
L 314.659015 197.15874 
L 317.622121 197.15874 
L 320.585227 195.409893 
L 323.548333 195.409893 
L 326.511439 195.409893 
L 329.474545 189.138018 
L 332.437652 189.138018 
L 335.400758 189.138018 
L 338.363864 184.978913 
L 341.32697 178.169261 
L 344.290076 178.169261 
L 347.253182 178.169261 
L 350.216288 178.169261 
L 353.179394 170.158333 
L 356.1425 170.158333 
" style="fill:none;stroke:#0072b2;stroke-linecap:round;stroke-width:1.75;"/>
   </g>
   <g id="patch_3">
    <path d="M 62.795 378.08 
L 62.795 88.776 
" style="fill:none;stroke:#262626;stroke-linecap:square;stroke-linejoin:miter;stroke-width:1.25;"/>
   </g>
   <g id="patch_4">
    <path d="M 356.1425 378.08 
L 356.1425 88.776 
" style="fill:none;stroke:#262626;stroke-linecap:square;stroke-linejoin:miter;stroke-width:1.25;"/>
   </g>
   <g id="patch_5">
    <path d="M 62.795 378.08 
L 356.1425 378.08 
" style="fill:none;stroke:#262626;stroke-linecap:square;stroke-linejoin:miter;stroke-width:1.25;"/>
   </g>
  </g>
  <g id="axes_2">
   <g id="patch_6">
    <path d="M 62.795 78.8 
L 356.1425 78.8 
L 356.1425 28.92 
L 62.795 28.92 
z
" style="fill:#ffffff;"/>
   </g>
   <g id="matplotlib.axis_3">
    <g id="xtick_3">
     <g id="line2d_10">
      <g>
       <use style="fill:#262626;stroke:#262626;" x="188.850693" xlink:href="#mce45dae6b0" y="78.8"/>
      </g>
     </g>
    </g>
    <g id="xtick_4">
     <g id="line2d_11">
      <g>
       <use style="fill:#262626;stroke:#262626;" x="315.473573" xlink:href="#mce45dae6b0" y="78.8"/>
      </g>
     </g>
    </g>
   </g>
   <g id="matplotlib.axis_4">
    <g id="ytick_7"/>
    <g id="ytick_8"/>
   </g>
   <g id="patch_7">
    <path clip-path="url(#pbf15ada894)" d="M 62.795 78.8 
L 92.12975 78.8 
L 92.12975 77.282594 
L 62.795 77.282594 
z
" style="fill:#0072b2;"/>
   </g>
   <g id="patch_8">
    <path clip-path="url(#pbf15ada894)" d="M 92.12975 78.8 
L 121.4645 78.8 
L 121.4645 75.399682 
L 92.12975 75.399682 
z
" style="fill:#0072b2;"/>
   </g>
   <g id="patch_9">
    <path clip-path="url(#pbf15ada894)" d="M 121.4645 78.8 
L 150.79925 78.8 
L 150.79925 71.035757 
L 121.4645 71.035757 
z
" style="fill:#0072b2;"/>
   </g>
   <g id="patch_10">
    <path clip-path="url(#pbf15ada894)" d="M 150.79925 78.8 
L 180.134 78.8 
L 180.134 61.643349 
L 150.79925 61.643349 
z
" style="fill:#0072b2;"/>
   </g>
   <g id="patch_11">
    <path clip-path="url(#pbf15ada894)" d="M 180.134 78.8 
L 209.46875 78.8 
L 209.46875 43.910748 
L 180.134 43.910748 
z
" style="fill:#0072b2;"/>
   </g>
   <g id="patch_12">
    <path clip-path="url(#pbf15ada894)" d="M 209.46875 78.8 
L 238.8035 78.8 
L 238.8035 31.295238 
L 209.46875 31.295238 
z
" style="fill:#0072b2;"/>
   </g>
   <g id="patch_13">
    <path clip-path="url(#pbf15ada894)" d="M 238.8035 78.8 
L 268.13825 78.8 
L 268.13825 46.458218 
L 238.8035 46.458218 
z
" style="fill:#0072b2;"/>
   </g>
   <g id="patch_14">
    <path clip-path="url(#pbf15ada894)" d="M 268.13825 78.8 
L 297.473 78.8 
L 297.473 63.570565 
L 268.13825 63.570565 
z
" style="fill:#0072b2;"/>
   </g>
   <g id="patch_15">
    <path clip-path="url(#pbf15ada894)" d="M 297.473 78.8 
L 326.80775 78.8 
L 326.80775 72.575314 
L 297.473 72.575314 
z
" style="fill:#0072b2;"/>
   </g>
   <g id="patch_16">
    <path clip-path="url(#pbf15ada894)" d="M 326.80775 78.8 
L 356.1425 78.8 
L 356.1425 76.429746 
L 326.80775 76.429746 
z
" style="fill:#0072b2;"/>
   </g>
   <g id="patch_17">
    <path d="M 62.795 78.8 
L 356.1425 78.8 
" style="fill:none;stroke:#262626;stroke-linecap:square;stroke-linejoin:miter;stroke-width:1.25;"/>
   </g>
  </g>
 </g>
 <defs>
  <clipPath id="pbf2d478c22">
   <rect height="289.304" width="293.3475" x="62.795" y="88.776"/>
  </clipPath>
  <clipPath id="pbf15ada894">
   <rect height="49.88" width="293.3475" x="62.795" y="28.92"/>
  </clipPath>
 </defs>
</svg>
