<?xml version="1.0" encoding="utf-8" standalone="no"?>
<!DOCTYPE svg PUBLIC "-//W3C//DTD SVG 1.1//EN"
  "http://www.w3.org/Graphics/SVG/1.1/DTD/svg11.dtd">
<!-- Created with matplotlib (http://matplotlib.org/) -->
<svg height="432pt" version="1.1" viewBox="0 0 396 432" width="396pt" xmlns="http://www.w3.org/2000/svg" xmlns:xlink="http://www.w3.org/1999/xlink">
 <defs>
  <style type="text/css">
*{stroke-linecap:butt;stroke-linejoin:round;}
  </style>
 </defs>
 <g id="figure_1">
  <g id="patch_1">
   <path d="M 0 432 
L 396 432 
L 396 0 
L 0 0 
z
" style="fill:#ffffff;"/>
  </g>
  <g id="axes_1">
   <g id="patch_2">
    <path d="M 62.795 378.08 
L 356.1425 378.08 
L 356.1425 88.776 
L 62.795 88.776 
z
" style="fill:#ffffff;"/>
   </g>
   <g id="matplotlib.axis_1">
    <g id="xtick_1">
     <g id="line2d_1">
      <defs>
       <path d="M 0 0 
L 0 2 
" id="m63d481a207" style="stroke:#262626;"/>
      </defs>
      <g>
       <use style="fill:#262626;stroke:#262626;" x="62.795" xlink:href="#m63d481a207" y="378.08"/>
      </g>
     </g>
     <g id="text_1">
      <text style="fill:#262626;font-family:Arial;font-size:20px;font-style:normal;font-weight:normal;text-anchor:middle;" transform="rotate(-0, 62.795, 401.395625)" x="62.795" y="401.395625">−1.0</text>
     </g>
    </g>
    <g id="xtick_2">
     <g id="line2d_2">
      <g>
       <use style="fill:#262626;stroke:#262626;" x="136.131875" xlink:href="#m63d481a207" y="378.08"/>
      </g>
     </g>
     <g id="text_2">
      <text style="fill:#262626;font-family:Arial;font-size:20px;font-style:normal;font-weight:normal;text-anchor:middle;" transform="rotate(-0, 136.131875, 401.395625)" x="136.131875" y="401.395625">−0.5</text>
     </g>
    </g>
    <g id="xtick_3">
     <g id="line2d_3">
      <g>
       <use style="fill:#262626;stroke:#262626;" x="209.46875" xlink:href="#m63d481a207" y="378.08"/>
      </g>
     </g>
     <g id="text_3">
      <text style="fill:#262626;font-family:Arial;font-size:20px;font-style:normal;font-weight:normal;text-anchor:middle;" transform="rotate(-0, 209.46875, 401.395625)" x="209.46875" y="401.395625">0.0</text>
     </g>
    </g>
    <g id="xtick_4">
     <g id="line2d_4">
      <g>
       <use style="fill:#262626;stroke:#262626;" x="282.805625" xlink:href="#m63d481a207" y="378.08"/>
      </g>
     </g>
     <g id="text_4">
      <text style="fill:#262626;font-family:Arial;font-size:20px;font-style:normal;font-weight:normal;text-anchor:middle;" transform="rotate(-0, 282.805625, 401.395625)" x="282.805625" y="401.395625">0.5</text>
     </g>
    </g>
    <g id="xtick_5">
     <g id="line2d_5">
      <g>
       <use style="fill:#262626;stroke:#262626;" x="356.1425" xlink:href="#m63d481a207" y="378.08"/>
      </g>
     </g>
     <g id="text_5">
      <text style="fill:#262626;font-family:Arial;font-size:20px;font-style:normal;font-weight:normal;text-anchor:middle;" transform="rotate(-0, 356.1425, 401.395625)" x="356.1425" y="401.395625">1.0</text>
     </g>
    </g>
    <g id="text_6">
     <text style="fill:#262626;font-family:Arial;font-size:22px;font-style:normal;font-weight:normal;text-anchor:middle;" transform="rotate(-0, 209.46875, 425.117813)" x="209.46875" y="425.117813">PG4 skew</text>
    </g>
   </g>
   <g id="matplotlib.axis_2">
    <g id="ytick_1">
     <g id="line2d_6">
      <defs>
       <path d="M 0 0 
L -2 0 
" id="m1ccc5ff53c" style="stroke:#262626;"/>
      </defs>
      <g>
       <use style="fill:#262626;stroke:#262626;" x="62.795" xlink:href="#m1ccc5ff53c" y="378.08"/>
      </g>
     </g>
     <g id="text_7">
      <text style="fill:#262626;font-family:Arial;font-size:20px;font-style:normal;font-weight:normal;text-anchor:end;" transform="rotate(-0, 53.795, 385.237813)" x="53.795" y="385.237813">−0.4</text>
     </g>
    </g>
    <g id="ytick_2">
     <g id="line2d_7">
      <g>
       <use style="fill:#262626;stroke:#262626;" x="62.795" xlink:href="#m1ccc5ff53c" y="325.479273"/>
      </g>
     </g>
     <g id="text_8">
      <text style="fill:#262626;font-family:Arial;font-size:20px;font-style:normal;font-weight:normal;text-anchor:end;" transform="rotate(-0, 53.795, 332.637085)" x="53.795" y="332.637085">−0.2</text>
     </g>
    </g>
    <g id="ytick_3">
     <g id="line2d_8">
      <g>
       <use style="fill:#262626;stroke:#262626;" x="62.795" xlink:href="#m1ccc5ff53c" y="272.878545"/>
      </g>
     </g>
     <g id="text_9">
      <text style="fill:#262626;font-family:Arial;font-size:20px;font-style:normal;font-weight:normal;text-anchor:end;" transform="rotate(-0, 53.795, 280.036358)" x="53.795" y="280.036358">0.0</text>
     </g>
    </g>
    <g id="ytick_4">
     <g id="line2d_9">
      <g>
       <use style="fill:#262626;stroke:#262626;" x="62.795" xlink:href="#m1ccc5ff53c" y="220.277818"/>
      </g>
     </g>
     <g id="text_10">
      <text style="fill:#262626;font-family:Arial;font-size:20px;font-style:normal;font-weight:normal;text-anchor:end;" transform="rotate(-0, 53.795, 227.435631)" x="53.795" y="227.435631">0.2</text>
     </g>
    </g>
    <g id="ytick_5">
     <g id="line2d_10">
      <g>
       <use style="fill:#262626;stroke:#262626;" x="62.795" xlink:href="#m1ccc5ff53c" y="167.677091"/>
      </g>
     </g>
     <g id="text_11">
      <text style="fill:#262626;font-family:Arial;font-size:20px;font-style:normal;font-weight:normal;text-anchor:end;" transform="rotate(-0, 53.795, 174.834903)" x="53.795" y="174.834903">0.4</text>
     </g>
    </g>
    <g id="ytick_6">
     <g id="line2d_11">
      <g>
       <use style="fill:#262626;stroke:#262626;" x="62.795" xlink:href="#m1ccc5ff53c" y="115.076364"/>
      </g>
     </g>
     <g id="text_12">
      <text style="fill:#262626;font-family:Arial;font-size:20px;font-style:normal;font-weight:normal;text-anchor:end;" transform="rotate(-0, 53.795, 122.234176)" x="53.795" y="122.234176">0.6</text>
     </g>
    </g>
    <g id="text_13">
     <text style="fill:#262626;font-family:Arial;font-size:22px;font-style:normal;font-weight:normal;text-anchor:middle;" transform="rotate(-90, 5.94125, 233.428)" x="5.94125" y="233.428">Partial Dependence</text>
    </g>
   </g>
   <g id="line2d_12">
    <path clip-path="url(#p11ca7ebb88)" d="M 62.795 246.618594 
L 65.758106 246.618594 
L 68.721212 248.131609 
L 71.684318 248.131609 
L 74.647424 248.131609 
L 77.61053 249.245149 
L 80.573636 249.245149 
L 83.536742 267.376483 
L 86.499848 269.65339 
L 89.462955 275.664611 
L 92.426061 275.664611 
L 95.389167 275.664611 
L 98.352273 275.664611 
L 101.315379 275.664611 
L 104.278485 275.664611 
L 107.241591 275.664611 
L 110.204697 275.664611 
L 113.167803 275.664611 
L 116.130909 319.25922 
L 119.094015 277.530124 
L 122.057121 277.530124 
L 125.020227 277.530124 
L 127.983333 277.899618 
L 130.946439 277.899618 
L 133.909545 277.899618 
L 136.872652 277.882506 
L 139.835758 277.882506 
L 142.798864 277.882506 
L 145.76197 277.882506 
L 148.725076 277.923049 
L 151.688182 277.923049 
L 154.651288 277.923049 
L 157.614394 277.923049 
L 160.5775 277.923049 
L 163.540606 277.923049 
L 166.503712 277.923049 
L 169.466818 278.909054 
L 172.429924 278.909054 
L 175.39303 278.909054 
L 178.356136 278.909054 
L 181.319242 278.909054 
L 184.282348 278.909054 
L 187.245455 278.936905 
L 190.208561 278.936905 
L 193.171667 278.936905 
L 196.134773 277.358693 
L 199.097879 277.358693 
L 202.060985 277.358693 
L 205.024091 277.358693 
L 207.987197 277.358693 
L 210.950303 277.358693 
L 213.913409 277.358693 
L 216.876515 277.358693 
L 219.839621 277.358693 
L 222.802727 277.358693 
L 225.765833 277.358693 
L 228.728939 277.358693 
L 231.692045 277.358693 
L 234.655152 277.659076 
L 237.618258 277.659076 
L 240.581364 277.659076 
L 243.54447 277.659076 
L 246.507576 277.659076 
L 249.470682 277.659076 
L 252.433788 277.659076 
L 255.396894 277.659076 
L 258.36 277.659076 
L 261.323106 277.659076 
L 264.286212 279.02416 
L 267.249318 279.02416 
L 270.212424 278.691122 
L 273.17553 278.691122 
L 276.138636 278.691122 
L 279.101742 278.691122 
L 282.064848 281.290602 
L 285.027955 281.285405 
L 287.991061 281.285405 
L 290.954167 281.285405 
L 293.917273 281.285405 
L 296.880379 281.285405 
L 299.843485 281.285405 
L 302.806591 276.381928 
L 305.769697 275.941317 
L 308.732803 275.69417 
L 311.695909 272.119954 
L 314.659015 272.119954 
L 317.622121 272.119954 
L 320.585227 271.289172 
L 323.548333 271.289172 
L 326.511439 271.289172 
L 329.474545 271.289172 
L 332.437652 267.227116 
L 335.400758 269.193286 
L 338.363864 269.193286 
L 341.32697 269.804294 
L 344.290076 269.804294 
L 347.253182 271.271557 
L 350.216288 271.054466 
L 353.179394 268.675022 
L 356.1425 268.675022 
" style="fill:none;stroke:#0072b2;stroke-linecap:round;stroke-width:1.75;"/>
   </g>
   <g id="patch_3">
    <path d="M 62.795 378.08 
L 62.795 88.776 
" style="fill:none;stroke:#262626;stroke-linecap:square;stroke-linejoin:miter;stroke-width:1.25;"/>
   </g>
   <g id="patch_4">
    <path d="M 356.1425 378.08 
L 356.1425 88.776 
" style="fill:none;stroke:#262626;stroke-linecap:square;stroke-linejoin:miter;stroke-width:1.25;"/>
   </g>
   <g id="patch_5">
    <path d="M 62.795 378.08 
L 356.1425 378.08 
" style="fill:none;stroke:#262626;stroke-linecap:square;stroke-linejoin:miter;stroke-width:1.25;"/>
   </g>
  </g>
  <g id="axes_2">
   <g id="patch_6">
    <path d="M 62.795 78.8 
L 356.1425 78.8 
L 356.1425 28.92 
L 62.795 28.92 
z
" style="fill:#ffffff;"/>
   </g>
   <g id="matplotlib.axis_3">
    <g id="xtick_6">
     <g id="line2d_13">
      <g>
       <use style="fill:#262626;stroke:#262626;" x="62.795" xlink:href="#m63d481a207" y="78.8"/>
      </g>
     </g>
    </g>
    <g id="xtick_7">
     <g id="line2d_14">
      <g>
       <use style="fill:#262626;stroke:#262626;" x="136.131875" xlink:href="#m63d481a207" y="78.8"/>
      </g>
     </g>
    </g>
    <g id="xtick_8">
     <g id="line2d_15">
      <g>
       <use style="fill:#262626;stroke:#262626;" x="209.46875" xlink:href="#m63d481a207" y="78.8"/>
      </g>
     </g>
    </g>
    <g id="xtick_9">
     <g id="line2d_16">
      <g>
       <use style="fill:#262626;stroke:#262626;" x="282.805625" xlink:href="#m63d481a207" y="78.8"/>
      </g>
     </g>
    </g>
    <g id="xtick_10">
     <g id="line2d_17">
      <g>
       <use style="fill:#262626;stroke:#262626;" x="356.1425" xlink:href="#m63d481a207" y="78.8"/>
      </g>
     </g>
    </g>
   </g>
   <g id="matplotlib.axis_4">
    <g id="ytick_7"/>
    <g id="ytick_8"/>
   </g>
   <g id="patch_7">
    <path clip-path="url(#p2c5f1fd0ad)" d="M 62.795 78.8 
L 92.12975 78.8 
L 92.12975 58.636847 
L 62.795 58.636847 
z
" style="fill:#0072b2;"/>
   </g>
   <g id="patch_8">
    <path clip-path="url(#p2c5f1fd0ad)" d="M 92.12975 78.8 
L 121.4645 78.8 
L 121.4645 77.418451 
L 92.12975 77.418451 
z
" style="fill:#0072b2;"/>
   </g>
   <g id="patch_9">
    <path clip-path="url(#p2c5f1fd0ad)" d="M 121.4645 78.8 
L 150.79925 78.8 
L 150.79925 73.301807 
L 121.4645 73.301807 
z
" style="fill:#0072b2;"/>
   </g>
   <g id="patch_10">
    <path clip-path="url(#p2c5f1fd0ad)" d="M 150.79925 78.8 
L 180.134 78.8 
L 180.134 67.626253 
L 150.79925 67.626253 
z
" style="fill:#0072b2;"/>
   </g>
   <g id="patch_11">
    <path clip-path="url(#p2c5f1fd0ad)" d="M 180.134 78.8 
L 209.46875 78.8 
L 209.46875 77.00772 
L 180.134 77.00772 
z
" style="fill:#0072b2;"/>
   </g>
   <g id="patch_12">
    <path clip-path="url(#p2c5f1fd0ad)" d="M 209.46875 78.8 
L 238.8035 78.8 
L 238.8035 52.895949 
L 209.46875 52.895949 
z
" style="fill:#0072b2;"/>
   </g>
   <g id="patch_13">
    <path clip-path="url(#p2c5f1fd0ad)" d="M 238.8035 78.8 
L 268.13825 78.8 
L 268.13825 65.367233 
L 238.8035 65.367233 
z
" style="fill:#0072b2;"/>
   </g>
   <g id="patch_14">
    <path clip-path="url(#p2c5f1fd0ad)" d="M 268.13825 78.8 
L 297.473 78.8 
L 297.473 65.320559 
L 268.13825 65.320559 
z
" style="fill:#0072b2;"/>
   </g>
   <g id="patch_15">
    <path clip-path="url(#p2c5f1fd0ad)" d="M 297.473 78.8 
L 326.80775 78.8 
L 326.80775 74.309965 
L 297.473 74.309965 
z
" style="fill:#0072b2;"/>
   </g>
   <g id="patch_16">
    <path clip-path="url(#p2c5f1fd0ad)" d="M 326.80775 78.8 
L 356.1425 78.8 
L 356.1425 31.295238 
L 326.80775 31.295238 
z
" style="fill:#0072b2;"/>
   </g>
   <g id="patch_17">
    <path d="M 62.795 78.8 
L 356.1425 78.8 
" style="fill:none;stroke:#262626;stroke-linecap:square;stroke-linejoin:miter;stroke-width:1.25;"/>
   </g>
  </g>
 </g>
 <defs>
  <clipPath id="p11ca7ebb88">
   <rect height="289.304" width="293.3475" x="62.795" y="88.776"/>
  </clipPath>
  <clipPath id="p2c5f1fd0ad">
   <rect height="49.88" width="293.3475" x="62.795" y="28.92"/>
  </clipPath>
 </defs>
</svg>
