<?xml version="1.0" encoding="utf-8" standalone="no"?>
<!DOCTYPE svg PUBLIC "-//W3C//DTD SVG 1.1//EN"
  "http://www.w3.org/Graphics/SVG/1.1/DTD/svg11.dtd">
<!-- Created with matplotlib (http://matplotlib.org/) -->
<svg height="576pt" version="1.1" viewBox="0 0 648 576" width="648pt" xmlns="http://www.w3.org/2000/svg" xmlns:xlink="http://www.w3.org/1999/xlink">
 <defs>
  <style type="text/css">
*{stroke-linecap:butt;stroke-linejoin:round;}
  </style>
 </defs>
 <g id="figure_1">
  <g id="patch_1">
   <path d="M 0 576 
L 648 576 
L 648 0 
L 0 0 
z
" style="fill:#ffffff;"/>
  </g>
  <g id="axes_1">
   <g id="patch_2">
    <path d="M 190.385 503.8475 
L 622.08 503.8475 
L 622.08 72.1525 
L 190.385 72.1525 
z
" style="fill:#ffffff;"/>
   </g>
   <g id="matplotlib.axis_1"/>
   <g id="matplotlib.axis_2">
    <g id="ytick_1">
     <g id="line2d_1">
      <defs>
       <path d="M 0 0 
L -2 0 
" id="m071fd6f709" style="stroke:#262626;"/>
      </defs>
      <g>
       <use style="fill:#262626;stroke:#262626;" x="190.385" xlink:href="#m071fd6f709" y="108.127083"/>
      </g>
     </g>
     <g id="text_1">
      <text style="fill:#262626;font-family:Arial;font-size:20px;font-style:normal;font-weight:normal;text-anchor:end;" transform="rotate(-0, 181.385, 115.406771)" x="181.385" y="115.406771">Symmetric CpG / kb</text>
     </g>
    </g>
    <g id="ytick_2">
     <g id="line2d_2">
      <g>
       <use style="fill:#262626;stroke:#262626;" x="190.385" xlink:href="#m071fd6f709" y="180.07625"/>
      </g>
     </g>
     <g id="text_2">
      <text style="fill:#262626;font-family:Arial;font-size:20px;font-style:normal;font-weight:normal;text-anchor:end;" transform="rotate(-0, 181.385, 187.355938)" x="181.385" y="187.355938">Asymmetric CpG / kb</text>
     </g>
    </g>
    <g id="ytick_3">
     <g id="line2d_3">
      <g>
       <use style="fill:#262626;stroke:#262626;" x="190.385" xlink:href="#m071fd6f709" y="252.025417"/>
      </g>
     </g>
     <g id="text_3">
      <text style="fill:#262626;font-family:Arial;font-size:20px;font-style:normal;font-weight:normal;text-anchor:end;" transform="rotate(-0, 181.385, 259.183229)" x="181.385" y="259.183229">GC content</text>
     </g>
    </g>
    <g id="ytick_4">
     <g id="line2d_4">
      <g>
       <use style="fill:#262626;stroke:#262626;" x="190.385" xlink:href="#m071fd6f709" y="323.974583"/>
      </g>
     </g>
     <g id="text_4">
      <text style="fill:#262626;font-family:Arial;font-size:20px;font-style:normal;font-weight:normal;text-anchor:end;" transform="rotate(-0, 181.385, 331.132396)" x="181.385" y="331.132396">Absolute GC skew</text>
     </g>
    </g>
    <g id="ytick_5">
     <g id="line2d_5">
      <g>
       <use style="fill:#262626;stroke:#262626;" x="190.385" xlink:href="#m071fd6f709" y="395.92375"/>
      </g>
     </g>
     <g id="text_5">
      <text style="fill:#262626;font-family:Arial;font-size:20px;font-style:normal;font-weight:normal;text-anchor:end;" transform="rotate(-0, 181.385, 403.081563)" x="181.385" y="403.081563">G4 / kb</text>
     </g>
    </g>
    <g id="ytick_6">
     <g id="line2d_6">
      <g>
       <use style="fill:#262626;stroke:#262626;" x="190.385" xlink:href="#m071fd6f709" y="467.872917"/>
      </g>
     </g>
     <g id="text_6">
      <text style="fill:#262626;font-family:Arial;font-size:20px;font-style:normal;font-weight:normal;" transform="translate(116.91625 453.257292)">G4 / kb</text>
      <text style="fill:#262626;font-family:Arial;font-size:20px;font-style:normal;font-weight:normal;" transform="translate(31.350625 474.703542)">(GC cont &amp; skew</text>
      <text style="fill:#262626;font-family:Arial;font-size:20px;font-style:normal;font-weight:normal;" transform="translate(60.213125 496.384167)">partialled out)</text>
     </g>
    </g>
   </g>
   <g id="QuadMesh_1">
    <path clip-path="url(#p3b373e2995)" d="M 190.385 72.1525 
L 262.334167 72.1525 
L 262.334167 144.101667 
L 190.385 144.101667 
L 190.385 72.1525 
" style="fill:#08306b;"/>
    <path clip-path="url(#p3b373e2995)" d="M 262.334167 72.1525 
L 334.283333 72.1525 
L 334.283333 144.101667 
L 262.334167 144.101667 
L 262.334167 72.1525 
" style="fill:#a5cde3;"/>
    <path clip-path="url(#p3b373e2995)" d="M 334.283333 72.1525 
L 406.2325 72.1525 
L 406.2325 144.101667 
L 334.283333 144.101667 
L 334.283333 72.1525 
" style="fill:#cee0f2;"/>
    <path clip-path="url(#p3b373e2995)" d="M 406.2325 72.1525 
L 478.181667 72.1525 
L 478.181667 144.101667 
L 406.2325 144.101667 
L 406.2325 72.1525 
" style="fill:#e1edf8;"/>
    <path clip-path="url(#p3b373e2995)" d="M 478.181667 72.1525 
L 550.130833 72.1525 
L 550.130833 144.101667 
L 478.181667 144.101667 
L 478.181667 72.1525 
" style="fill:#dfecf7;"/>
    <path clip-path="url(#p3b373e2995)" d="M 550.130833 72.1525 
L 622.08 72.1525 
L 622.08 144.101667 
L 550.130833 144.101667 
L 550.130833 72.1525 
" style="fill:#f7fbff;"/>
    <path clip-path="url(#p3b373e2995)" d="M 190.385 144.101667 
L 262.334167 144.101667 
L 262.334167 216.050833 
L 190.385 216.050833 
L 190.385 144.101667 
" style="fill:#a5cde3;"/>
    <path clip-path="url(#p3b373e2995)" d="M 262.334167 144.101667 
L 334.283333 144.101667 
L 334.283333 216.050833 
L 262.334167 216.050833 
L 262.334167 144.101667 
" style="fill:#08306b;"/>
    <path clip-path="url(#p3b373e2995)" d="M 334.283333 144.101667 
L 406.2325 144.101667 
L 406.2325 216.050833 
L 334.283333 216.050833 
L 334.283333 144.101667 
" style="fill:#99c7e0;"/>
    <path clip-path="url(#p3b373e2995)" d="M 406.2325 144.101667 
L 478.181667 144.101667 
L 478.181667 216.050833 
L 406.2325 216.050833 
L 406.2325 144.101667 
" style="fill:#b4d3e9;"/>
    <path clip-path="url(#p3b373e2995)" d="M 478.181667 144.101667 
L 550.130833 144.101667 
L 550.130833 216.050833 
L 478.181667 216.050833 
L 478.181667 144.101667 
" style="fill:#87bddc;"/>
    <path clip-path="url(#p3b373e2995)" d="M 550.130833 144.101667 
L 622.08 144.101667 
L 622.08 216.050833 
L 550.130833 216.050833 
L 550.130833 144.101667 
" style="fill:#cee0f2;"/>
    <path clip-path="url(#p3b373e2995)" d="M 190.385 216.050833 
L 262.334167 216.050833 
L 262.334167 288 
L 190.385 288 
L 190.385 216.050833 
" style="fill:#cee0f2;"/>
    <path clip-path="url(#p3b373e2995)" d="M 262.334167 216.050833 
L 334.283333 216.050833 
L 334.283333 288 
L 262.334167 288 
L 262.334167 216.050833 
" style="fill:#99c7e0;"/>
    <path clip-path="url(#p3b373e2995)" d="M 334.283333 216.050833 
L 406.2325 216.050833 
L 406.2325 288 
L 334.283333 288 
L 334.283333 216.050833 
" style="fill:#08306b;"/>
    <path clip-path="url(#p3b373e2995)" d="M 406.2325 216.050833 
L 478.181667 216.050833 
L 478.181667 288 
L 406.2325 288 
L 406.2325 216.050833 
" style="fill:#d0e1f2;"/>
    <path clip-path="url(#p3b373e2995)" d="M 478.181667 216.050833 
L 550.130833 216.050833 
L 550.130833 288 
L 478.181667 288 
L 478.181667 216.050833 
" style="fill:#6fb0d7;"/>
    <path clip-path="url(#p3b373e2995)" d="M 550.130833 216.050833 
L 622.08 216.050833 
L 622.08 288 
L 550.130833 288 
L 550.130833 216.050833 
" style="fill:#f7fbff;"/>
    <path clip-path="url(#p3b373e2995)" d="M 190.385 288 
L 262.334167 288 
L 262.334167 359.949167 
L 190.385 359.949167 
L 190.385 288 
" style="fill:#e1edf8;"/>
    <path clip-path="url(#p3b373e2995)" d="M 262.334167 288 
L 334.283333 288 
L 334.283333 359.949167 
L 262.334167 359.949167 
L 262.334167 288 
" style="fill:#b4d3e9;"/>
    <path clip-path="url(#p3b373e2995)" d="M 334.283333 288 
L 406.2325 288 
L 406.2325 359.949167 
L 334.283333 359.949167 
L 334.283333 288 
" style="fill:#d0e1f2;"/>
    <path clip-path="url(#p3b373e2995)" d="M 406.2325 288 
L 478.181667 288 
L 478.181667 359.949167 
L 406.2325 359.949167 
L 406.2325 288 
" style="fill:#08306b;"/>
    <path clip-path="url(#p3b373e2995)" d="M 478.181667 288 
L 550.130833 288 
L 550.130833 359.949167 
L 478.181667 359.949167 
L 478.181667 288 
" style="fill:#9ac8e0;"/>
    <path clip-path="url(#p3b373e2995)" d="M 550.130833 288 
L 622.08 288 
L 622.08 359.949167 
L 550.130833 359.949167 
L 550.130833 288 
" style="fill:#f7fbff;"/>
    <path clip-path="url(#p3b373e2995)" d="M 190.385 359.949167 
L 262.334167 359.949167 
L 262.334167 431.898333 
L 190.385 431.898333 
L 190.385 359.949167 
" style="fill:#dfecf7;"/>
    <path clip-path="url(#p3b373e2995)" d="M 262.334167 359.949167 
L 334.283333 359.949167 
L 334.283333 431.898333 
L 262.334167 431.898333 
L 262.334167 359.949167 
" style="fill:#87bddc;"/>
    <path clip-path="url(#p3b373e2995)" d="M 334.283333 359.949167 
L 406.2325 359.949167 
L 406.2325 431.898333 
L 334.283333 431.898333 
L 334.283333 359.949167 
" style="fill:#6fb0d7;"/>
    <path clip-path="url(#p3b373e2995)" d="M 406.2325 359.949167 
L 478.181667 359.949167 
L 478.181667 431.898333 
L 406.2325 431.898333 
L 406.2325 359.949167 
" style="fill:#9ac8e0;"/>
    <path clip-path="url(#p3b373e2995)" d="M 478.181667 359.949167 
L 550.130833 359.949167 
L 550.130833 431.898333 
L 478.181667 431.898333 
L 478.181667 359.949167 
" style="fill:#08306b;"/>
    <path clip-path="url(#p3b373e2995)" d="M 550.130833 359.949167 
L 622.08 359.949167 
L 622.08 431.898333 
L 550.130833 431.898333 
L 550.130833 359.949167 
" style="fill:#125ea6;"/>
    <path clip-path="url(#p3b373e2995)" d="M 190.385 431.898333 
L 262.334167 431.898333 
L 262.334167 503.8475 
L 190.385 503.8475 
L 190.385 431.898333 
" style="fill:#f7fbff;"/>
    <path clip-path="url(#p3b373e2995)" d="M 262.334167 431.898333 
L 334.283333 431.898333 
L 334.283333 503.8475 
L 262.334167 503.8475 
L 262.334167 431.898333 
" style="fill:#cee0f2;"/>
    <path clip-path="url(#p3b373e2995)" d="M 334.283333 431.898333 
L 406.2325 431.898333 
L 406.2325 503.8475 
L 334.283333 503.8475 
L 334.283333 431.898333 
" style="fill:#f7fbff;"/>
    <path clip-path="url(#p3b373e2995)" d="M 406.2325 431.898333 
L 478.181667 431.898333 
L 478.181667 503.8475 
L 406.2325 503.8475 
L 406.2325 431.898333 
" style="fill:#f7fbff;"/>
    <path clip-path="url(#p3b373e2995)" d="M 478.181667 431.898333 
L 550.130833 431.898333 
L 550.130833 503.8475 
L 478.181667 503.8475 
L 478.181667 431.898333 
" style="fill:#125ea6;"/>
    <path clip-path="url(#p3b373e2995)" d="M 550.130833 431.898333 
L 622.08 431.898333 
L 622.08 503.8475 
L 550.130833 503.8475 
L 550.130833 431.898333 
" style="fill:#08306b;"/>
   </g>
   <g id="text_7">
    <text style="fill:#ffffff;font-family:Arial;font-size:24px;font-style:normal;font-weight:normal;text-anchor:middle;" transform="rotate(-0, 226.359583, 114.331458)" x="226.359583" y="114.331458">1.00</text>
   </g>
   <g id="text_8">
    <text style="fill:#262626;font-family:Arial;font-size:24px;font-style:normal;font-weight:normal;text-anchor:middle;" transform="rotate(-0, 298.30875, 114.331458)" x="298.30875" y="114.331458">0.35</text>
   </g>
   <g id="text_9">
    <text style="fill:#262626;font-family:Arial;font-size:24px;font-style:normal;font-weight:normal;text-anchor:middle;" transform="rotate(-0, 370.257917, 114.331458)" x="370.257917" y="114.331458">0.21</text>
   </g>
   <g id="text_10">
    <text style="fill:#262626;font-family:Arial;font-size:24px;font-style:normal;font-weight:normal;text-anchor:middle;" transform="rotate(-0, 442.207083, 114.331458)" x="442.207083" y="114.331458">0.11</text>
   </g>
   <g id="text_11">
    <text style="fill:#262626;font-family:Arial;font-size:24px;font-style:normal;font-weight:normal;text-anchor:middle;" transform="rotate(-0, 514.15625, 114.331458)" x="514.15625" y="114.331458">0.12</text>
   </g>
   <g id="text_12">
    <text style="fill:#262626;font-family:Arial;font-size:24px;font-style:normal;font-weight:normal;text-anchor:middle;" transform="rotate(-0, 586.105417, 114.331458)" x="586.105417" y="114.331458">-0.00</text>
   </g>
   <g id="text_13">
    <text style="fill:#262626;font-family:Arial;font-size:24px;font-style:normal;font-weight:normal;text-anchor:middle;" transform="rotate(-0, 226.359583, 186.280625)" x="226.359583" y="186.280625">0.35</text>
   </g>
   <g id="text_14">
    <text style="fill:#ffffff;font-family:Arial;font-size:24px;font-style:normal;font-weight:normal;text-anchor:middle;" transform="rotate(-0, 298.30875, 186.280625)" x="298.30875" y="186.280625">1.00</text>
   </g>
   <g id="text_15">
    <text style="fill:#262626;font-family:Arial;font-size:24px;font-style:normal;font-weight:normal;text-anchor:middle;" transform="rotate(-0, 370.257917, 186.280625)" x="370.257917" y="186.280625">0.39</text>
   </g>
   <g id="text_16">
    <text style="fill:#262626;font-family:Arial;font-size:24px;font-style:normal;font-weight:normal;text-anchor:middle;" transform="rotate(-0, 442.207083, 186.280625)" x="442.207083" y="186.280625">0.31</text>
   </g>
   <g id="text_17">
    <text style="fill:#262626;font-family:Arial;font-size:24px;font-style:normal;font-weight:normal;text-anchor:middle;" transform="rotate(-0, 514.15625, 186.280625)" x="514.15625" y="186.280625">0.43</text>
   </g>
   <g id="text_18">
    <text style="fill:#262626;font-family:Arial;font-size:24px;font-style:normal;font-weight:normal;text-anchor:middle;" transform="rotate(-0, 586.105417, 186.280625)" x="586.105417" y="186.280625">0.21</text>
   </g>
   <g id="text_19">
    <text style="fill:#262626;font-family:Arial;font-size:24px;font-style:normal;font-weight:normal;text-anchor:middle;" transform="rotate(-0, 226.359583, 258.229792)" x="226.359583" y="258.229792">0.21</text>
   </g>
   <g id="text_20">
    <text style="fill:#262626;font-family:Arial;font-size:24px;font-style:normal;font-weight:normal;text-anchor:middle;" transform="rotate(-0, 298.30875, 258.229792)" x="298.30875" y="258.229792">0.39</text>
   </g>
   <g id="text_21">
    <text style="fill:#ffffff;font-family:Arial;font-size:24px;font-style:normal;font-weight:normal;text-anchor:middle;" transform="rotate(-0, 370.257917, 258.229792)" x="370.257917" y="258.229792">1.00</text>
   </g>
   <g id="text_22">
    <text style="fill:#262626;font-family:Arial;font-size:24px;font-style:normal;font-weight:normal;text-anchor:middle;" transform="rotate(-0, 442.207083, 258.229792)" x="442.207083" y="258.229792">0.20</text>
   </g>
   <g id="text_23">
    <text style="fill:#ffffff;font-family:Arial;font-size:24px;font-style:normal;font-weight:normal;text-anchor:middle;" transform="rotate(-0, 514.15625, 258.229792)" x="514.15625" y="258.229792">0.49</text>
   </g>
   <g id="text_24">
    <text style="fill:#262626;font-family:Arial;font-size:24px;font-style:normal;font-weight:normal;text-anchor:middle;" transform="rotate(-0, 586.105417, 258.229792)" x="586.105417" y="258.229792">0.00</text>
   </g>
   <g id="text_25">
    <text style="fill:#262626;font-family:Arial;font-size:24px;font-style:normal;font-weight:normal;text-anchor:middle;" transform="rotate(-0, 226.359583, 330.178958)" x="226.359583" y="330.178958">0.11</text>
   </g>
   <g id="text_26">
    <text style="fill:#262626;font-family:Arial;font-size:24px;font-style:normal;font-weight:normal;text-anchor:middle;" transform="rotate(-0, 298.30875, 330.178958)" x="298.30875" y="330.178958">0.31</text>
   </g>
   <g id="text_27">
    <text style="fill:#262626;font-family:Arial;font-size:24px;font-style:normal;font-weight:normal;text-anchor:middle;" transform="rotate(-0, 370.257917, 330.178958)" x="370.257917" y="330.178958">0.20</text>
   </g>
   <g id="text_28">
    <text style="fill:#ffffff;font-family:Arial;font-size:24px;font-style:normal;font-weight:normal;text-anchor:middle;" transform="rotate(-0, 442.207083, 330.178958)" x="442.207083" y="330.178958">1.00</text>
   </g>
   <g id="text_29">
    <text style="fill:#262626;font-family:Arial;font-size:24px;font-style:normal;font-weight:normal;text-anchor:middle;" transform="rotate(-0, 514.15625, 330.178958)" x="514.15625" y="330.178958">0.38</text>
   </g>
   <g id="text_30">
    <text style="fill:#262626;font-family:Arial;font-size:24px;font-style:normal;font-weight:normal;text-anchor:middle;" transform="rotate(-0, 586.105417, 330.178958)" x="586.105417" y="330.178958">0.00</text>
   </g>
   <g id="text_31">
    <text style="fill:#262626;font-family:Arial;font-size:24px;font-style:normal;font-weight:normal;text-anchor:middle;" transform="rotate(-0, 226.359583, 402.128125)" x="226.359583" y="402.128125">0.12</text>
   </g>
   <g id="text_32">
    <text style="fill:#262626;font-family:Arial;font-size:24px;font-style:normal;font-weight:normal;text-anchor:middle;" transform="rotate(-0, 298.30875, 402.128125)" x="298.30875" y="402.128125">0.43</text>
   </g>
   <g id="text_33">
    <text style="fill:#ffffff;font-family:Arial;font-size:24px;font-style:normal;font-weight:normal;text-anchor:middle;" transform="rotate(-0, 370.257917, 402.128125)" x="370.257917" y="402.128125">0.49</text>
   </g>
   <g id="text_34">
    <text style="fill:#262626;font-family:Arial;font-size:24px;font-style:normal;font-weight:normal;text-anchor:middle;" transform="rotate(-0, 442.207083, 402.128125)" x="442.207083" y="402.128125">0.38</text>
   </g>
   <g id="text_35">
    <text style="fill:#ffffff;font-family:Arial;font-size:24px;font-style:normal;font-weight:normal;text-anchor:middle;" transform="rotate(-0, 514.15625, 402.128125)" x="514.15625" y="402.128125">1.00</text>
   </g>
   <g id="text_36">
    <text style="fill:#ffffff;font-family:Arial;font-size:24px;font-style:normal;font-weight:normal;text-anchor:middle;" transform="rotate(-0, 586.105417, 402.128125)" x="586.105417" y="402.128125">0.82</text>
   </g>
   <g id="text_37">
    <text style="fill:#262626;font-family:Arial;font-size:24px;font-style:normal;font-weight:normal;text-anchor:middle;" transform="rotate(-0, 226.359583, 474.077292)" x="226.359583" y="474.077292">-0.00</text>
   </g>
   <g id="text_38">
    <text style="fill:#262626;font-family:Arial;font-size:24px;font-style:normal;font-weight:normal;text-anchor:middle;" transform="rotate(-0, 298.30875, 474.077292)" x="298.30875" y="474.077292">0.21</text>
   </g>
   <g id="text_39">
    <text style="fill:#262626;font-family:Arial;font-size:24px;font-style:normal;font-weight:normal;text-anchor:middle;" transform="rotate(-0, 370.257917, 474.077292)" x="370.257917" y="474.077292">0.00</text>
   </g>
   <g id="text_40">
    <text style="fill:#262626;font-family:Arial;font-size:24px;font-style:normal;font-weight:normal;text-anchor:middle;" transform="rotate(-0, 442.207083, 474.077292)" x="442.207083" y="474.077292">0.00</text>
   </g>
   <g id="text_41">
    <text style="fill:#ffffff;font-family:Arial;font-size:24px;font-style:normal;font-weight:normal;text-anchor:middle;" transform="rotate(-0, 514.15625, 474.077292)" x="514.15625" y="474.077292">0.82</text>
   </g>
   <g id="text_42">
    <text style="fill:#ffffff;font-family:Arial;font-size:24px;font-style:normal;font-weight:normal;text-anchor:middle;" transform="rotate(-0, 586.105417, 474.077292)" x="586.105417" y="474.077292">1.00</text>
   </g>
  </g>
 </g>
 <defs>
  <clipPath id="p3b373e2995">
   <rect height="431.695" width="431.695" x="190.385" y="72.1525"/>
  </clipPath>
 </defs>
</svg>
