<?xml version="1.0" encoding="utf-8" standalone="no"?>
<!DOCTYPE svg PUBLIC "-//W3C//DTD SVG 1.1//EN"
  "http://www.w3.org/Graphics/SVG/1.1/DTD/svg11.dtd">
<!-- Created with matplotlib (http://matplotlib.org/) -->
<svg height="1008pt" version="1.1" viewBox="0 0 1008 1008" width="1008pt" xmlns="http://www.w3.org/2000/svg" xmlns:xlink="http://www.w3.org/1999/xlink">
 <defs>
  <style type="text/css">
*{stroke-linecap:butt;stroke-linejoin:round;}
  </style>
 </defs>
 <g id="figure_1">
  <g id="patch_1">
   <path d="M 0 1008 
L 1008 1008 
L 1008 0 
L 0 0 
z
" style="fill:#ffffff;"/>
  </g>
  <g id="axes_1">
   <g id="patch_2">
    <path d="M 109.995 316.026667 
L 979.08 316.026667 
L 979.08 28.92 
L 109.995 28.92 
z
" style="fill:#ffffff;"/>
   </g>
   <g id="matplotlib.axis_1">
    <g id="xtick_1">
     <g id="line2d_1">
      <defs>
       <path d="M 0 0 
L 0 2 
" id="me9f46ca71d" style="stroke:#262626;"/>
      </defs>
      <g>
       <use style="fill:#262626;stroke:#262626;" x="216.739483" xlink:href="#me9f46ca71d" y="316.026667"/>
      </g>
     </g>
    </g>
    <g id="xtick_2">
     <g id="line2d_2">
      <g>
       <use style="fill:#262626;stroke:#262626;" x="351.220721" xlink:href="#me9f46ca71d" y="316.026667"/>
      </g>
     </g>
    </g>
    <g id="xtick_3">
     <g id="line2d_3">
      <g>
       <use style="fill:#262626;stroke:#262626;" x="552.942577" xlink:href="#me9f46ca71d" y="316.026667"/>
      </g>
     </g>
    </g>
    <g id="xtick_4">
     <g id="line2d_4">
      <g>
       <use style="fill:#262626;stroke:#262626;" x="754.664434" xlink:href="#me9f46ca71d" y="316.026667"/>
      </g>
     </g>
    </g>
    <g id="xtick_5">
     <g id="line2d_5">
      <g>
       <use style="fill:#262626;stroke:#262626;" x="889.145672" xlink:href="#me9f46ca71d" y="316.026667"/>
      </g>
     </g>
    </g>
   </g>
   <g id="matplotlib.axis_2">
    <g id="ytick_1">
     <g id="line2d_6">
      <defs>
       <path d="M 0 0 
L -2 0 
" id="m59cc8b571a" style="stroke:#262626;"/>
      </defs>
      <g>
       <use style="fill:#262626;stroke:#262626;" x="109.995" xlink:href="#m59cc8b571a" y="311.625994"/>
      </g>
     </g>
     <g id="text_1">
      <text style="fill:#262626;font-family:Arial;font-size:20px;font-style:normal;font-weight:normal;text-anchor:end;" transform="rotate(-0, 100.995, 318.783806)" x="100.995" y="318.783806">14</text>
     </g>
    </g>
    <g id="ytick_2">
     <g id="line2d_7">
      <g>
       <use style="fill:#262626;stroke:#262626;" x="109.995" xlink:href="#m59cc8b571a" y="254.44947"/>
      </g>
     </g>
     <g id="text_2">
      <text style="fill:#262626;font-family:Arial;font-size:20px;font-style:normal;font-weight:normal;text-anchor:end;" transform="rotate(-0, 100.995, 261.607282)" x="100.995" y="261.607282">16</text>
     </g>
    </g>
    <g id="ytick_3">
     <g id="line2d_8">
      <g>
       <use style="fill:#262626;stroke:#262626;" x="109.995" xlink:href="#m59cc8b571a" y="197.272945"/>
      </g>
     </g>
     <g id="text_3">
      <text style="fill:#262626;font-family:Arial;font-size:20px;font-style:normal;font-weight:normal;text-anchor:end;" transform="rotate(-0, 100.995, 204.430758)" x="100.995" y="204.430758">18</text>
     </g>
    </g>
    <g id="ytick_4">
     <g id="line2d_9">
      <g>
       <use style="fill:#262626;stroke:#262626;" x="109.995" xlink:href="#m59cc8b571a" y="140.096421"/>
      </g>
     </g>
     <g id="text_4">
      <text style="fill:#262626;font-family:Arial;font-size:20px;font-style:normal;font-weight:normal;text-anchor:end;" transform="rotate(-0, 100.995, 147.254234)" x="100.995" y="147.254234">20</text>
     </g>
    </g>
    <g id="ytick_5">
     <g id="line2d_10">
      <g>
       <use style="fill:#262626;stroke:#262626;" x="109.995" xlink:href="#m59cc8b571a" y="82.919897"/>
      </g>
     </g>
     <g id="text_5">
      <text style="fill:#262626;font-family:Arial;font-size:20px;font-style:normal;font-weight:normal;text-anchor:end;" transform="rotate(-0, 100.995, 90.077709)" x="100.995" y="90.077709">22</text>
     </g>
    </g>
    <g id="text_6">
     <text style="fill:#262626;font-family:Arial;font-size:22px;font-style:normal;font-weight:normal;text-anchor:middle;" transform="rotate(-90, 70.120938, 172.473333)" x="70.120938" y="172.473333">G content (%)</text>
    </g>
   </g>
   <g id="line2d_11">
    <path clip-path="url(#pf79ce24d8e)" d="M 149.498864 233.971274 
L 152.860895 235.255524 
L 159.584956 236.796895 
L 162.946987 238.125979 
L 169.671049 240.215474 
L 183.119173 248.565979 
L 186.481204 250.407949 
L 189.843235 251.73477 
L 196.567297 255.394494 
L 199.929328 257.135034 
L 203.291359 259.646914 
L 206.65339 262.387154 
L 210.015421 264.813962 
L 213.377452 266.480287 
L 216.739483 267.994753 
L 223.463544 271.755478 
L 226.825575 273.351635 
L 230.187606 275.114675 
L 233.549637 276.563474 
L 236.911668 276.848667 
L 243.63573 276.735523 
L 246.997761 276.957859 
L 250.359792 277.509983 
L 253.721823 277.740604 
L 260.445885 276.002064 
L 263.807916 274.633623 
L 267.169947 272.54789 
L 270.531978 270.736325 
L 273.894009 269.78765 
L 277.25604 268.983928 
L 280.618071 268.953 
L 283.980102 271.467856 
L 287.342132 276.19778 
L 290.704163 282.450814 
L 294.066194 288.105128 
L 297.428225 290.084575 
L 300.790256 288.483227 
L 304.152287 289.859739 
L 307.514318 290.839638 
L 310.876349 292.102274 
L 314.23838 296.54312 
L 317.600411 302.52271 
L 320.962442 302.976364 
L 324.324473 302.407639 
L 327.686504 301.980328 
L 331.048535 301.952389 
L 334.410566 301.581017 
L 337.772597 302.37927 
L 341.134628 301.905477 
L 344.496659 300.391743 
L 347.85869 297.645569 
L 351.220721 293.882421 
L 354.582751 287.159473 
L 357.944782 277.8648 
L 361.306813 264.510274 
L 364.668844 242.10098 
L 368.030875 201.818558 
L 371.392906 156.877471 
L 374.754937 122.619347 
L 378.116968 100.317609 
L 381.478999 90.29725 
L 384.84103 101.011484 
L 388.203061 119.208127 
L 391.565092 129.952896 
L 394.927123 133.313516 
L 398.289154 133.237764 
L 401.651185 132.073102 
L 405.013216 129.893195 
L 411.737278 126.137071 
L 415.099309 124.761511 
L 421.82337 120.978153 
L 425.185401 119.405661 
L 428.547432 117.661219 
L 431.909463 116.380101 
L 435.271494 114.802682 
L 438.633525 113.042579 
L 441.995556 110.899675 
L 445.357587 109.097501 
L 448.719618 107.57349 
L 452.081649 106.569876 
L 455.44368 106.569924 
L 458.805711 106.766562 
L 462.167742 106.715287 
L 465.529773 107.43165 
L 468.891804 106.673334 
L 472.253835 106.096182 
L 475.615866 105.362259 
L 478.977897 105.08023 
L 482.339927 103.514325 
L 485.701958 103.558305 
L 489.063989 102.650783 
L 492.42602 101.904581 
L 502.512113 101.018637 
L 505.874144 101.031777 
L 509.236175 100.663837 
L 515.960237 98.845211 
L 522.684299 98.370161 
L 526.04633 98.041536 
L 529.408361 98.139607 
L 532.770392 97.631843 
L 536.132423 96.73613 
L 539.494454 94.987928 
L 542.856485 94.220632 
L 546.218515 92.683057 
L 552.942577 91.655273 
L 556.304608 92.284195 
L 559.666639 92.081653 
L 563.02867 92.133305 
L 566.390701 92.329436 
L 569.752732 91.897306 
L 573.114763 91.114371 
L 576.476794 91.131082 
L 579.838825 90.84719 
L 589.924918 87.752054 
L 596.64898 85.074046 
L 603.373042 83.571354 
L 606.735073 83.065511 
L 610.097103 82.069251 
L 613.459134 81.312078 
L 616.821165 79.838234 
L 620.183196 78.549586 
L 626.907258 75.188978 
L 630.269289 72.938646 
L 633.63132 71.302693 
L 636.993351 70.480987 
L 640.355382 69.422799 
L 643.717413 68.010872 
L 647.079444 67.417375 
L 650.441475 66.006367 
L 657.165537 60.94631 
L 660.527568 58.998171 
L 667.25163 53.380561 
L 670.613661 50.703189 
L 673.975691 48.438586 
L 677.337722 46.008161 
L 680.699753 43.898844 
L 684.061784 42.671806 
L 687.423815 42.034494 
L 690.785846 41.970303 
L 694.147877 43.507194 
L 697.509908 48.535715 
L 700.871939 58.991878 
L 704.23397 80.658502 
L 707.596001 106.298913 
L 710.958032 139.057637 
L 714.320063 170.242296 
L 717.682094 195.725309 
L 721.044125 209.912843 
L 724.406156 219.172208 
L 727.768187 220.456781 
L 731.130218 220.692266 
L 734.492249 221.438632 
L 737.854279 222.580564 
L 741.21631 225.854875 
L 744.578341 229.579032 
L 747.940372 233.79 
L 751.302403 238.847853 
L 758.026465 251.091273 
L 761.388496 257.916397 
L 768.112558 274.079606 
L 771.474589 280.837739 
L 774.83662 273.895579 
L 778.198651 265.804676 
L 781.560682 255.91726 
L 788.284744 233.971274 
L 791.646775 235.255524 
L 798.370837 236.796895 
L 801.732868 238.125979 
L 808.456929 240.215474 
L 821.905053 248.565979 
L 825.267084 250.407949 
L 828.629115 251.73477 
L 835.353177 255.394494 
L 838.715208 257.135034 
L 842.077239 259.646914 
L 845.43927 262.387154 
L 848.801301 264.813962 
L 852.163332 266.480287 
L 855.525363 267.994753 
L 862.249425 271.755478 
L 865.611456 273.351635 
L 868.973486 275.114675 
L 872.335517 276.563474 
L 875.697548 276.848667 
L 882.42161 276.735523 
L 885.783641 276.957859 
L 889.145672 277.509983 
L 892.507703 277.740604 
L 899.231765 276.002064 
L 902.593796 274.633623 
L 905.955827 272.54789 
L 909.317858 270.736325 
L 912.679889 269.78765 
L 916.04192 268.983928 
L 919.403951 268.953 
L 922.765982 271.467856 
L 926.128013 276.19778 
L 929.490044 282.450814 
L 932.852074 288.105128 
L 936.214105 290.084575 
L 939.576136 288.483227 
L 939.576136 288.483227 
" style="fill:none;stroke:#0072b2;stroke-linecap:round;stroke-width:1.75;"/>
   </g>
   <g id="line2d_12">
    <path clip-path="url(#pf79ce24d8e)" d="M 149.498864 245.547999 
L 152.860895 246.324768 
L 156.222926 247.673757 
L 159.584956 248.354501 
L 162.946987 248.775029 
L 166.309018 250.476306 
L 169.671049 251.889438 
L 173.03308 252.185131 
L 176.395111 253.103354 
L 179.757142 254.532439 
L 183.119173 255.123944 
L 186.481204 255.939809 
L 189.843235 257.706254 
L 193.205266 259.736296 
L 196.567297 260.914592 
L 199.929328 261.85853 
L 203.291359 262.652156 
L 206.65339 263.2804 
L 210.015421 263.786238 
L 213.377452 264.632127 
L 216.739483 265.932639 
L 220.101514 267.052173 
L 226.825575 268.48971 
L 230.187606 268.854499 
L 233.549637 268.379185 
L 236.911668 268.12423 
L 240.273699 267.990015 
L 243.63573 266.960576 
L 246.997761 266.265999 
L 250.359792 265.814185 
L 260.445885 262.419844 
L 270.531978 254.749488 
L 273.894009 250.723499 
L 277.25604 246.306411 
L 283.980102 237.834428 
L 287.342132 234.735043 
L 290.704163 232.676143 
L 294.066194 229.038586 
L 297.428225 222.960149 
L 300.790256 213.731636 
L 304.152287 207.53027 
L 310.876349 190.13647 
L 314.23838 182.714462 
L 317.600411 176.319904 
L 320.962442 164.040133 
L 324.324473 153.767293 
L 327.686504 145.754799 
L 331.048535 138.345354 
L 334.410566 133.184096 
L 337.772597 129.52951 
L 341.134628 127.673817 
L 344.496659 126.747905 
L 347.85869 127.517114 
L 351.220721 129.947979 
L 354.582751 135.391449 
L 357.944782 142.820175 
L 361.306813 154.258219 
L 364.668844 171.604194 
L 368.030875 194.431771 
L 371.392906 211.598385 
L 374.754937 203.241601 
L 378.116968 181.77088 
L 381.478999 152.228868 
L 384.84103 114.897926 
L 388.203061 81.40071 
L 391.565092 71.474973 
L 394.927123 72.111861 
L 398.289154 76.379331 
L 401.651185 82.484153 
L 405.013216 89.974634 
L 408.375247 98.502197 
L 411.737278 106.417478 
L 418.461339 121.26822 
L 421.82337 127.635639 
L 428.547432 139.971708 
L 431.909463 145.262154 
L 435.271494 150.199592 
L 438.633525 155.383705 
L 441.995556 159.558795 
L 448.719618 166.459539 
L 452.081649 169.409194 
L 458.805711 173.399984 
L 462.167742 175.578253 
L 465.529773 176.604211 
L 468.891804 178.19973 
L 472.253835 179.354128 
L 478.977897 181.181216 
L 482.339927 182.844002 
L 485.701958 184.283741 
L 489.063989 186.341889 
L 492.42602 188.13565 
L 495.788051 188.85556 
L 499.150082 189.874906 
L 502.512113 190.519172 
L 505.874144 190.51051 
L 512.598206 191.022469 
L 515.960237 190.913414 
L 519.322268 190.570776 
L 522.684299 190.668329 
L 526.04633 190.981411 
L 529.408361 190.14937 
L 536.132423 190.416233 
L 539.494454 190.754982 
L 542.856485 189.798342 
L 546.218515 190.500882 
L 549.580546 189.942338 
L 556.304608 188.259859 
L 559.666639 188.169118 
L 566.390701 188.456333 
L 569.752732 189.066811 
L 573.114763 188.901013 
L 579.838825 187.762737 
L 583.200856 187.469288 
L 586.562887 186.829914 
L 589.924918 186.821358 
L 593.286949 186.43705 
L 596.64898 186.198753 
L 600.011011 185.156356 
L 610.097103 183.533579 
L 613.459134 182.329532 
L 616.821165 181.462962 
L 620.183196 179.788085 
L 623.545227 177.969718 
L 630.269289 177.083844 
L 633.63132 176.892014 
L 636.993351 176.931175 
L 640.355382 176.609054 
L 647.079444 174.779185 
L 650.441475 174.387406 
L 653.803506 174.941012 
L 657.165537 176.038219 
L 660.527568 176.90519 
L 663.889599 177.909828 
L 670.613661 179.569221 
L 673.975691 179.476287 
L 680.699753 178.225114 
L 684.061784 177.437124 
L 687.423815 174.829093 
L 690.785846 171.347374 
L 694.147877 166.973772 
L 697.509908 160.485113 
L 700.871939 154.464634 
L 704.23397 169.639818 
L 707.596001 188.306691 
L 710.958032 209.072486 
L 714.320063 233.34918 
L 717.682094 260.331603 
L 721.044125 269.660233 
L 724.406156 278.641683 
L 727.768187 287.151121 
L 731.130218 294.635111 
L 734.492249 299.225311 
L 737.854279 301.359962 
L 741.21631 300.705211 
L 744.578341 300.441726 
L 747.940372 299.114845 
L 751.302403 297.658279 
L 754.664434 296.327407 
L 758.026465 296.181266 
L 761.388496 296.270117 
L 764.750527 296.759139 
L 768.112558 295.90593 
L 771.474589 289.217553 
L 774.83662 278.943976 
L 781.560682 257.345329 
L 784.922713 248.573455 
L 788.284744 245.547999 
L 791.646775 246.324768 
L 795.008806 247.673757 
L 798.370837 248.354501 
L 801.732868 248.775029 
L 805.094898 250.476306 
L 808.456929 251.889438 
L 811.81896 252.185131 
L 815.180991 253.103354 
L 818.543022 254.532439 
L 821.905053 255.123944 
L 825.267084 255.939809 
L 828.629115 257.706254 
L 831.991146 259.736296 
L 835.353177 260.914592 
L 838.715208 261.85853 
L 842.077239 262.652156 
L 845.43927 263.2804 
L 848.801301 263.786238 
L 852.163332 264.632127 
L 855.525363 265.932639 
L 858.887394 267.052173 
L 865.611456 268.48971 
L 868.973486 268.854499 
L 872.335517 268.379185 
L 875.697548 268.12423 
L 879.059579 267.990015 
L 882.42161 266.960576 
L 885.783641 266.265999 
L 889.145672 265.814185 
L 899.231765 262.419844 
L 909.317858 254.749488 
L 912.679889 250.723499 
L 916.04192 246.306411 
L 922.765982 237.834428 
L 926.128013 234.735043 
L 929.490044 232.676143 
L 932.852074 229.038586 
L 936.214105 222.960149 
L 939.576136 213.731636 
L 939.576136 213.731636 
" style="fill:none;stroke:#d55e00;stroke-linecap:round;stroke-width:1.75;"/>
   </g>
   <g id="line2d_13"/>
   <g id="line2d_14"/>
   <g id="line2d_15">
    <path clip-path="url(#pf79ce24d8e)" d="M 317.600411 316.026667 
L 317.600411 28.92 
" style="fill:none;stroke:#888888;stroke-dasharray:6.475,2.8;stroke-dashoffset:0;stroke-width:1.75;"/>
   </g>
   <g id="line2d_16">
    <path clip-path="url(#pf79ce24d8e)" d="M 384.84103 316.026667 
L 384.84103 28.92 
" style="fill:none;stroke:#888888;stroke-dasharray:6.475,2.8;stroke-dashoffset:0;stroke-width:1.75;"/>
   </g>
   <g id="line2d_17">
    <path clip-path="url(#pf79ce24d8e)" d="M 721.044125 316.026667 
L 721.044125 28.92 
" style="fill:none;stroke:#888888;stroke-dasharray:6.475,2.8;stroke-dashoffset:0;stroke-width:1.75;"/>
   </g>
   <g id="line2d_18">
    <path clip-path="url(#pf79ce24d8e)" d="M 788.284744 316.026667 
L 788.284744 28.92 
" style="fill:none;stroke:#888888;stroke-dasharray:6.475,2.8;stroke-dashoffset:0;stroke-width:1.75;"/>
   </g>
   <g id="patch_3">
    <path d="M 109.995 316.026667 
L 109.995 28.92 
" style="fill:none;stroke:#262626;stroke-linecap:square;stroke-linejoin:miter;stroke-width:1.25;"/>
   </g>
   <g id="patch_4">
    <path d="M 979.08 316.026667 
L 979.08 28.92 
" style="fill:none;stroke:#262626;stroke-linecap:square;stroke-linejoin:miter;stroke-width:1.25;"/>
   </g>
   <g id="patch_5">
    <path d="M 109.995 316.026667 
L 979.08 316.026667 
" style="fill:none;stroke:#262626;stroke-linecap:square;stroke-linejoin:miter;stroke-width:1.25;"/>
   </g>
   <g id="patch_6">
    <path d="M 109.995 28.92 
L 979.08 28.92 
" style="fill:none;stroke:#262626;stroke-linecap:square;stroke-linejoin:miter;stroke-width:1.25;"/>
   </g>
   <g id="legend_1">
    <g id="line2d_19">
     <path d="M 742.8175 54.479375 
L 782.8175 54.479375 
" style="fill:none;stroke:#0072b2;stroke-linecap:round;stroke-width:1.75;"/>
    </g>
    <g id="line2d_20"/>
    <g id="text_7">
     <text style="fill:#262626;font-family:Arial;font-size:20px;font-style:normal;font-weight:normal;text-anchor:start;" transform="rotate(-0, 798.8175, 61.479375)" x="798.8175" y="61.479375">Coding</text>
    </g>
    <g id="line2d_21">
     <path d="M 742.8175 83.004375 
L 782.8175 83.004375 
" style="fill:none;stroke:#d55e00;stroke-linecap:round;stroke-width:1.75;"/>
    </g>
    <g id="line2d_22"/>
    <g id="text_8">
     <text style="fill:#262626;font-family:Arial;font-size:20px;font-style:normal;font-weight:normal;text-anchor:start;" transform="rotate(-0, 798.8175, 90.004375)" x="798.8175" y="90.004375">Template</text>
    </g>
    <g id="line2d_23">
     <path d="M 742.8175 111.53875 
L 782.8175 111.53875 
" style="fill:none;stroke:#009e73;stroke-linecap:round;stroke-width:1.75;"/>
    </g>
    <g id="line2d_24"/>
    <g id="text_9">
     <text style="fill:#262626;font-family:Arial;font-size:20px;font-style:normal;font-weight:normal;text-anchor:start;" transform="rotate(-0, 798.8175, 118.53875)" x="798.8175" y="118.53875">Shuffled Coding</text>
    </g>
    <g id="line2d_25">
     <path d="M 742.8175 140.3075 
L 782.8175 140.3075 
" style="fill:none;stroke:#f0e442;stroke-linecap:round;stroke-width:1.75;"/>
    </g>
    <g id="line2d_26"/>
    <g id="text_10">
     <text style="fill:#262626;font-family:Arial;font-size:20px;font-style:normal;font-weight:normal;text-anchor:start;" transform="rotate(-0, 798.8175, 147.3075)" x="798.8175" y="147.3075">Shuffled Template</text>
    </g>
   </g>
  </g>
  <g id="axes_2">
   <g id="patch_7">
    <path d="M 109.995 635.053333 
L 979.08 635.053333 
L 979.08 347.946667 
L 109.995 347.946667 
z
" style="fill:#ffffff;"/>
   </g>
   <g id="matplotlib.axis_3">
    <g id="xtick_6">
     <g id="line2d_27">
      <g>
       <use style="fill:#262626;stroke:#262626;" x="216.739483" xlink:href="#me9f46ca71d" y="635.053333"/>
      </g>
     </g>
    </g>
    <g id="xtick_7">
     <g id="line2d_28">
      <g>
       <use style="fill:#262626;stroke:#262626;" x="351.220721" xlink:href="#me9f46ca71d" y="635.053333"/>
      </g>
     </g>
    </g>
    <g id="xtick_8">
     <g id="line2d_29">
      <g>
       <use style="fill:#262626;stroke:#262626;" x="552.942577" xlink:href="#me9f46ca71d" y="635.053333"/>
      </g>
     </g>
    </g>
    <g id="xtick_9">
     <g id="line2d_30">
      <g>
       <use style="fill:#262626;stroke:#262626;" x="754.664434" xlink:href="#me9f46ca71d" y="635.053333"/>
      </g>
     </g>
    </g>
    <g id="xtick_10">
     <g id="line2d_31">
      <g>
       <use style="fill:#262626;stroke:#262626;" x="889.145672" xlink:href="#me9f46ca71d" y="635.053333"/>
      </g>
     </g>
    </g>
   </g>
   <g id="matplotlib.axis_4">
    <g id="ytick_6">
     <g id="line2d_32">
      <g>
       <use style="fill:#262626;stroke:#262626;" x="109.995" xlink:href="#m59cc8b571a" y="622.00303"/>
      </g>
     </g>
     <g id="text_11">
      <text style="fill:#262626;font-family:Arial;font-size:20px;font-style:normal;font-weight:normal;text-anchor:end;" transform="rotate(-0, 100.995, 629.160843)" x="100.995" y="629.160843">0.00</text>
     </g>
    </g>
    <g id="ytick_7">
     <g id="line2d_33">
      <g>
       <use style="fill:#262626;stroke:#262626;" x="109.995" xlink:href="#m59cc8b571a" y="578.076571"/>
      </g>
     </g>
     <g id="text_12">
      <text style="fill:#262626;font-family:Arial;font-size:20px;font-style:normal;font-weight:normal;text-anchor:end;" transform="rotate(-0, 100.995, 585.234383)" x="100.995" y="585.234383">0.05</text>
     </g>
    </g>
    <g id="ytick_8">
     <g id="line2d_34">
      <g>
       <use style="fill:#262626;stroke:#262626;" x="109.995" xlink:href="#m59cc8b571a" y="534.150111"/>
      </g>
     </g>
     <g id="text_13">
      <text style="fill:#262626;font-family:Arial;font-size:20px;font-style:normal;font-weight:normal;text-anchor:end;" transform="rotate(-0, 100.995, 541.307924)" x="100.995" y="541.307924">0.10</text>
     </g>
    </g>
    <g id="ytick_9">
     <g id="line2d_35">
      <g>
       <use style="fill:#262626;stroke:#262626;" x="109.995" xlink:href="#m59cc8b571a" y="490.223652"/>
      </g>
     </g>
     <g id="text_14">
      <text style="fill:#262626;font-family:Arial;font-size:20px;font-style:normal;font-weight:normal;text-anchor:end;" transform="rotate(-0, 100.995, 497.381464)" x="100.995" y="497.381464">0.15</text>
     </g>
    </g>
    <g id="ytick_10">
     <g id="line2d_36">
      <g>
       <use style="fill:#262626;stroke:#262626;" x="109.995" xlink:href="#m59cc8b571a" y="446.297192"/>
      </g>
     </g>
     <g id="text_15">
      <text style="fill:#262626;font-family:Arial;font-size:20px;font-style:normal;font-weight:normal;text-anchor:end;" transform="rotate(-0, 100.995, 453.455005)" x="100.995" y="453.455005">0.20</text>
     </g>
    </g>
    <g id="ytick_11">
     <g id="line2d_37">
      <g>
       <use style="fill:#262626;stroke:#262626;" x="109.995" xlink:href="#m59cc8b571a" y="402.370733"/>
      </g>
     </g>
     <g id="text_16">
      <text style="fill:#262626;font-family:Arial;font-size:20px;font-style:normal;font-weight:normal;text-anchor:end;" transform="rotate(-0, 100.995, 409.528545)" x="100.995" y="409.528545">0.25</text>
     </g>
    </g>
    <g id="ytick_12">
     <g id="line2d_38">
      <g>
       <use style="fill:#262626;stroke:#262626;" x="109.995" xlink:href="#m59cc8b571a" y="358.444273"/>
      </g>
     </g>
     <g id="text_17">
      <text style="fill:#262626;font-family:Arial;font-size:20px;font-style:normal;font-weight:normal;text-anchor:end;" transform="rotate(-0, 100.995, 365.602086)" x="100.995" y="365.602086">0.30</text>
     </g>
    </g>
    <g id="text_18">
     <text style="fill:#262626;font-family:Arial;font-size:22px;font-style:normal;font-weight:normal;" transform="translate(30.095313 565.789531)rotate(-90)">3+ tetrad PG4s</text>
     <text style="fill:#262626;font-family:Arial;font-size:22px;font-style:normal;font-weight:normal;" transform="translate(53.442813 567.944844)rotate(-90)">per 1000 genes</text>
    </g>
   </g>
   <g id="line2d_39">
    <path clip-path="url(#p4d7a9a0475)" d="M 149.498864 507.275092 
L 152.860895 507.275092 
L 156.222926 500.104595 
L 162.946987 457.081618 
L 166.309018 471.422611 
L 169.671049 500.104595 
L 179.757142 607.662038 
L 183.119173 614.832534 
L 186.481204 600.491542 
L 189.843235 578.980053 
L 203.291359 550.298069 
L 206.65339 550.298069 
L 210.015421 543.127572 
L 213.377452 543.127572 
L 216.739483 557.468565 
L 223.463544 600.491542 
L 226.825575 593.321046 
L 233.549637 564.639061 
L 240.273699 521.616084 
L 243.63573 543.127572 
L 246.997761 557.468565 
L 250.359792 564.639061 
L 257.083854 607.662038 
L 260.445885 607.662038 
L 263.807916 614.832534 
L 267.169947 614.832534 
L 270.531978 600.491542 
L 277.25604 543.127572 
L 280.618071 528.78658 
L 290.704163 550.298069 
L 294.066194 543.127572 
L 297.428225 528.78658 
L 300.790256 500.104595 
L 304.152287 485.763603 
L 307.514318 492.934099 
L 310.876349 521.616084 
L 317.600411 550.298069 
L 324.324473 564.639061 
L 327.686504 550.298069 
L 331.048535 550.298069 
L 334.410566 557.468565 
L 337.772597 571.809557 
L 341.134628 578.980053 
L 344.496659 600.491542 
L 347.85869 614.832534 
L 351.220721 622.00303 
L 357.944782 607.662038 
L 364.668844 578.980053 
L 371.392906 564.639061 
L 374.754937 543.127572 
L 381.478999 543.127572 
L 398.289154 578.980053 
L 405.013216 535.957076 
L 408.375247 543.127572 
L 411.737278 543.127572 
L 415.099309 535.957076 
L 418.461339 535.957076 
L 421.82337 550.298069 
L 425.185401 557.468565 
L 431.909463 528.78658 
L 435.271494 535.957076 
L 438.633525 521.616084 
L 441.995556 521.616084 
L 445.357587 535.957076 
L 448.719618 557.468565 
L 452.081649 564.639061 
L 455.44368 550.298069 
L 458.805711 528.78658 
L 462.167742 528.78658 
L 465.529773 521.616084 
L 468.891804 521.616084 
L 472.253835 543.127572 
L 482.339927 543.127572 
L 485.701958 550.298069 
L 489.063989 564.639061 
L 492.42602 586.150549 
L 495.788051 564.639061 
L 499.150082 578.980053 
L 502.512113 571.809557 
L 505.874144 571.809557 
L 509.236175 550.298069 
L 512.598206 550.298069 
L 515.960237 528.78658 
L 519.322268 514.445588 
L 522.684299 507.275092 
L 526.04633 528.78658 
L 529.408361 535.957076 
L 539.494454 535.957076 
L 542.856485 521.616084 
L 552.942577 543.127572 
L 556.304608 543.127572 
L 559.666639 557.468565 
L 563.02867 564.639061 
L 566.390701 564.639061 
L 576.476794 543.127572 
L 579.838825 514.445588 
L 583.200856 500.104595 
L 586.562887 492.934099 
L 589.924918 492.934099 
L 593.286949 478.593107 
L 600.011011 478.593107 
L 603.373042 471.422611 
L 610.097103 428.399634 
L 613.459134 435.57013 
L 620.183196 464.252115 
L 623.545227 492.934099 
L 626.907258 535.957076 
L 630.269289 543.127572 
L 633.63132 507.275092 
L 636.993351 521.616084 
L 640.355382 521.616084 
L 643.717413 485.763603 
L 647.079444 464.252115 
L 650.441475 457.081618 
L 653.803506 421.229138 
L 657.165537 414.058641 
L 660.527568 428.399634 
L 663.889599 449.911122 
L 667.25163 485.763603 
L 670.613661 514.445588 
L 673.975691 521.616084 
L 677.337722 543.127572 
L 684.061784 557.468565 
L 687.423815 571.809557 
L 690.785846 571.809557 
L 694.147877 557.468565 
L 697.509908 564.639061 
L 704.23397 564.639061 
L 710.958032 593.321046 
L 717.682094 593.321046 
L 724.406156 578.980053 
L 731.130218 578.980053 
L 734.492249 593.321046 
L 744.578341 593.321046 
L 747.940372 578.980053 
L 751.302403 557.468565 
L 761.388496 535.957076 
L 771.474589 578.980053 
L 778.198651 550.298069 
L 784.922713 535.957076 
L 788.284744 507.275092 
L 791.646775 507.275092 
L 795.008806 500.104595 
L 801.732868 457.081618 
L 805.094898 471.422611 
L 808.456929 500.104595 
L 818.543022 607.662038 
L 821.905053 614.832534 
L 825.267084 600.491542 
L 828.629115 578.980053 
L 842.077239 550.298069 
L 845.43927 550.298069 
L 848.801301 543.127572 
L 852.163332 543.127572 
L 855.525363 557.468565 
L 862.249425 600.491542 
L 865.611456 593.321046 
L 872.335517 564.639061 
L 879.059579 521.616084 
L 882.42161 543.127572 
L 885.783641 557.468565 
L 889.145672 564.639061 
L 895.869734 607.662038 
L 899.231765 607.662038 
L 902.593796 614.832534 
L 905.955827 614.832534 
L 909.317858 600.491542 
L 916.04192 543.127572 
L 919.403951 528.78658 
L 929.490044 550.298069 
L 932.852074 543.127572 
L 936.214105 528.78658 
L 939.576136 500.104595 
L 939.576136 500.104595 
" style="fill:none;stroke:#0072b2;stroke-linecap:round;stroke-width:1.75;"/>
   </g>
   <g id="line2d_40">
    <path clip-path="url(#p4d7a9a0475)" d="M 149.498864 521.616084 
L 152.860895 528.78658 
L 156.222926 528.78658 
L 159.584956 507.275092 
L 162.946987 500.104595 
L 166.309018 507.275092 
L 169.671049 507.275092 
L 173.03308 528.78658 
L 176.395111 557.468565 
L 179.757142 578.980053 
L 196.567297 614.832534 
L 199.929328 614.832534 
L 203.291359 600.491542 
L 206.65339 578.980053 
L 213.377452 550.298069 
L 220.101514 507.275092 
L 223.463544 507.275092 
L 226.825575 514.445588 
L 233.549637 514.445588 
L 236.911668 521.616084 
L 240.273699 514.445588 
L 243.63573 485.763603 
L 246.997761 478.593107 
L 250.359792 492.934099 
L 257.083854 492.934099 
L 260.445885 521.616084 
L 263.807916 535.957076 
L 267.169947 543.127572 
L 270.531978 543.127572 
L 273.894009 535.957076 
L 277.25604 514.445588 
L 280.618071 485.763603 
L 283.980102 464.252115 
L 290.704163 478.593107 
L 297.428225 435.57013 
L 300.790256 428.399634 
L 304.152287 414.058641 
L 310.876349 399.717649 
L 314.23838 435.57013 
L 317.600411 457.081618 
L 324.324473 471.422611 
L 327.686504 500.104595 
L 331.048535 514.445588 
L 334.410566 514.445588 
L 337.772597 507.275092 
L 344.496659 507.275092 
L 347.85869 478.593107 
L 351.220721 478.593107 
L 354.582751 514.445588 
L 361.306813 557.468565 
L 364.668844 593.321046 
L 368.030875 607.662038 
L 378.116968 607.662038 
L 381.478999 600.491542 
L 384.84103 586.150549 
L 388.203061 557.468565 
L 391.565092 521.616084 
L 398.289154 492.934099 
L 405.013216 478.593107 
L 408.375247 485.763603 
L 411.737278 485.763603 
L 415.099309 500.104595 
L 418.461339 492.934099 
L 421.82337 500.104595 
L 425.185401 521.616084 
L 428.547432 521.616084 
L 431.909463 507.275092 
L 435.271494 521.616084 
L 438.633525 550.298069 
L 452.081649 607.662038 
L 455.44368 607.662038 
L 465.529773 586.150549 
L 468.891804 571.809557 
L 472.253835 564.639061 
L 478.977897 564.639061 
L 482.339927 543.127572 
L 485.701958 514.445588 
L 489.063989 507.275092 
L 492.42602 507.275092 
L 495.788051 521.616084 
L 502.512113 578.980053 
L 505.874144 586.150549 
L 509.236175 586.150549 
L 512.598206 564.639061 
L 515.960237 557.468565 
L 522.684299 557.468565 
L 526.04633 564.639061 
L 536.132423 607.662038 
L 539.494454 607.662038 
L 542.856485 600.491542 
L 546.218515 607.662038 
L 549.580546 607.662038 
L 552.942577 600.491542 
L 556.304608 600.491542 
L 559.666639 607.662038 
L 563.02867 600.491542 
L 566.390701 600.491542 
L 573.114763 614.832534 
L 576.476794 607.662038 
L 579.838825 614.832534 
L 583.200856 607.662038 
L 586.562887 607.662038 
L 589.924918 600.491542 
L 593.286949 607.662038 
L 596.64898 593.321046 
L 610.097103 564.639061 
L 613.459134 571.809557 
L 616.821165 586.150549 
L 620.183196 578.980053 
L 623.545227 578.980053 
L 626.907258 586.150549 
L 630.269289 586.150549 
L 636.993351 571.809557 
L 640.355382 586.150549 
L 643.717413 578.980053 
L 647.079444 578.980053 
L 650.441475 586.150549 
L 653.803506 607.662038 
L 657.165537 593.321046 
L 660.527568 564.639061 
L 670.613661 500.104595 
L 673.975691 500.104595 
L 680.699753 528.78658 
L 684.061784 535.957076 
L 687.423815 535.957076 
L 690.785846 528.78658 
L 700.871939 550.298069 
L 707.596001 593.321046 
L 710.958032 600.491542 
L 714.320063 600.491542 
L 717.682094 607.662038 
L 724.406156 593.321046 
L 727.768187 593.321046 
L 731.130218 600.491542 
L 734.492249 600.491542 
L 737.854279 607.662038 
L 741.21631 607.662038 
L 747.940372 593.321046 
L 754.664434 593.321046 
L 764.750527 614.832534 
L 768.112558 600.491542 
L 771.474589 578.980053 
L 774.83662 564.639061 
L 778.198651 543.127572 
L 781.560682 528.78658 
L 784.922713 521.616084 
L 788.284744 521.616084 
L 791.646775 528.78658 
L 795.008806 528.78658 
L 798.370837 507.275092 
L 801.732868 500.104595 
L 805.094898 507.275092 
L 808.456929 507.275092 
L 811.81896 528.78658 
L 815.180991 557.468565 
L 818.543022 578.980053 
L 835.353177 614.832534 
L 838.715208 614.832534 
L 842.077239 600.491542 
L 845.43927 578.980053 
L 852.163332 550.298069 
L 858.887394 507.275092 
L 862.249425 507.275092 
L 865.611456 514.445588 
L 872.335517 514.445588 
L 875.697548 521.616084 
L 879.059579 514.445588 
L 882.42161 485.763603 
L 885.783641 478.593107 
L 889.145672 492.934099 
L 895.869734 492.934099 
L 899.231765 521.616084 
L 902.593796 535.957076 
L 905.955827 543.127572 
L 909.317858 543.127572 
L 912.679889 535.957076 
L 916.04192 514.445588 
L 919.403951 485.763603 
L 922.765982 464.252115 
L 929.490044 478.593107 
L 936.214105 435.57013 
L 939.576136 428.399634 
L 939.576136 428.399634 
" style="fill:none;stroke:#d55e00;stroke-linecap:round;stroke-width:1.75;"/>
   </g>
   <g id="line2d_41">
    <path clip-path="url(#p4d7a9a0475)" d="M 317.600411 635.053333 
L 317.600411 347.946667 
" style="fill:none;stroke:#888888;stroke-dasharray:6.475,2.8;stroke-dashoffset:0;stroke-width:1.75;"/>
   </g>
   <g id="line2d_42">
    <path clip-path="url(#p4d7a9a0475)" d="M 384.84103 635.053333 
L 384.84103 347.946667 
" style="fill:none;stroke:#888888;stroke-dasharray:6.475,2.8;stroke-dashoffset:0;stroke-width:1.75;"/>
   </g>
   <g id="line2d_43">
    <path clip-path="url(#p4d7a9a0475)" d="M 721.044125 635.053333 
L 721.044125 347.946667 
" style="fill:none;stroke:#888888;stroke-dasharray:6.475,2.8;stroke-dashoffset:0;stroke-width:1.75;"/>
   </g>
   <g id="line2d_44">
    <path clip-path="url(#p4d7a9a0475)" d="M 788.284744 635.053333 
L 788.284744 347.946667 
" style="fill:none;stroke:#888888;stroke-dasharray:6.475,2.8;stroke-dashoffset:0;stroke-width:1.75;"/>
   </g>
   <g id="patch_8">
    <path d="M 109.995 635.053333 
L 109.995 347.946667 
" style="fill:none;stroke:#262626;stroke-linecap:square;stroke-linejoin:miter;stroke-width:1.25;"/>
   </g>
   <g id="patch_9">
    <path d="M 979.08 635.053333 
L 979.08 347.946667 
" style="fill:none;stroke:#262626;stroke-linecap:square;stroke-linejoin:miter;stroke-width:1.25;"/>
   </g>
   <g id="patch_10">
    <path d="M 109.995 635.053333 
L 979.08 635.053333 
" style="fill:none;stroke:#262626;stroke-linecap:square;stroke-linejoin:miter;stroke-width:1.25;"/>
   </g>
   <g id="patch_11">
    <path d="M 109.995 347.946667 
L 979.08 347.946667 
" style="fill:none;stroke:#262626;stroke-linecap:square;stroke-linejoin:miter;stroke-width:1.25;"/>
   </g>
   <g id="line2d_45">
    <path clip-path="url(#p4d7a9a0475)" d="M 149.498864 554.600366 
L 152.860895 561.770862 
L 156.222926 571.809557 
L 159.584956 576.828904 
L 162.946987 572.526607 
L 166.309018 571.092507 
L 169.671049 570.375458 
L 173.03308 571.092507 
L 176.395111 576.111855 
L 179.757142 583.282351 
L 183.119173 589.735798 
L 186.481204 591.169897 
L 193.205266 583.999401 
L 196.567297 579.697103 
L 199.929328 574.677756 
L 203.291359 578.263004 
L 206.65339 587.584649 
L 210.015421 594.755145 
L 213.377452 599.057443 
L 216.739483 601.208591 
L 220.101514 596.189244 
L 226.825575 578.980053 
L 230.187606 573.243656 
L 233.549637 571.092507 
L 236.911668 578.263004 
L 240.273699 583.999401 
L 243.63573 590.452847 
L 250.359792 607.662038 
L 257.083854 607.662038 
L 260.445885 606.227939 
L 263.807916 606.944988 
L 267.169947 605.510889 
L 273.894009 608.379088 
L 277.25604 611.247286 
L 283.980102 612.681385 
L 287.342132 604.793839 
L 290.704163 591.169897 
L 294.066194 569.658408 
L 297.428225 556.751515 
L 300.790256 543.127572 
L 304.152287 542.410523 
L 307.514318 553.166267 
L 310.876349 570.375458 
L 314.23838 580.414153 
L 317.600411 593.321046 
L 320.962442 601.208591 
L 324.324473 604.07679 
L 327.686504 607.662038 
L 331.048535 609.096137 
L 334.410566 609.813187 
L 337.772597 606.227939 
L 341.134628 605.510889 
L 344.496659 603.35974 
L 347.85869 602.642691 
L 351.220721 599.774492 
L 354.582751 599.057443 
L 361.306813 590.452847 
L 364.668844 581.131202 
L 368.030875 571.092507 
L 371.392906 561.770862 
L 378.116968 538.825275 
L 381.478999 531.654779 
L 384.84103 530.937729 
L 388.203061 534.522977 
L 394.927123 537.391175 
L 398.289154 536.674126 
L 401.651185 530.220679 
L 405.013216 520.181985 
L 408.375247 517.313786 
L 411.737278 507.992141 
L 415.099309 507.992141 
L 418.461339 510.14329 
L 421.82337 513.728538 
L 428.547432 522.333134 
L 431.909463 525.201332 
L 435.271494 521.616084 
L 438.633525 519.464935 
L 441.995556 508.709191 
L 445.357587 511.577389 
L 448.719618 515.879687 
L 452.081649 512.294439 
L 455.44368 507.275092 
L 458.805711 515.879687 
L 462.167742 521.616084 
L 465.529773 525.918382 
L 468.891804 539.542324 
L 472.253835 555.317416 
L 475.615866 545.278721 
L 478.977897 540.976424 
L 482.339927 528.06953 
L 485.701958 516.596737 
L 489.063989 501.538695 
L 492.42602 510.86034 
L 495.788051 512.294439 
L 499.150082 518.030836 
L 502.512113 524.484282 
L 505.874144 524.484282 
L 509.236175 520.899034 
L 512.598206 509.42624 
L 515.960237 495.802298 
L 519.322268 484.329504 
L 522.684299 482.178355 
L 526.04633 485.046553 
L 529.408361 494.368198 
L 532.770392 504.406893 
L 536.132423 507.992141 
L 539.494454 497.953447 
L 542.856485 481.461305 
L 546.218515 467.120313 
L 549.580546 453.49637 
L 552.942577 444.174725 
L 556.304608 449.911122 
L 559.666639 454.21342 
L 563.02867 455.647519 
L 566.390701 454.93047 
L 569.752732 457.081618 
L 573.114763 456.364569 
L 576.476794 457.798668 
L 579.838825 450.628172 
L 583.200856 445.608825 
L 586.562887 442.740626 
L 589.924918 447.042924 
L 593.286949 441.306527 
L 596.64898 443.457676 
L 600.011011 444.891775 
L 603.373042 442.740626 
L 606.735073 435.57013 
L 610.097103 430.550783 
L 613.459134 429.116683 
L 616.821165 429.116683 
L 620.183196 426.965534 
L 623.545227 416.20979 
L 626.907258 421.946187 
L 630.269289 430.550783 
L 633.63132 435.57013 
L 636.993351 439.155378 
L 640.355382 440.589477 
L 643.717413 424.814386 
L 647.079444 395.415351 
L 650.441475 373.903863 
L 653.803506 363.865168 
L 657.165537 360.99697 
L 660.527568 371.752714 
L 663.889599 395.415351 
L 667.25163 405.454046 
L 670.613661 414.775691 
L 673.975691 423.380286 
L 677.337722 430.550783 
L 680.699753 430.550783 
L 684.061784 449.911122 
L 687.423815 452.779321 
L 690.785846 459.949817 
L 694.147877 467.837363 
L 697.509908 476.441958 
L 700.871939 482.178355 
L 704.23397 508.709191 
L 707.596001 531.654779 
L 710.958032 546.712821 
L 714.320063 566.79021 
L 717.682094 577.545954 
L 721.044125 581.131202 
L 724.406156 581.848252 
L 727.768187 588.301698 
L 731.130218 589.735798 
L 734.492249 594.755145 
L 737.854279 593.321046 
L 741.21631 596.189244 
L 744.578341 591.169897 
L 747.940372 581.848252 
L 751.302403 574.677756 
L 754.664434 568.941359 
L 758.026465 565.356111 
L 761.388496 566.07316 
L 764.750527 573.243656 
L 768.112558 578.980053 
L 771.474589 586.867599 
L 774.83662 578.980053 
L 778.198651 569.658408 
L 781.560682 563.922011 
L 784.922713 560.336763 
L 788.284744 554.600366 
L 791.646775 561.770862 
L 795.008806 571.809557 
L 798.370837 576.828904 
L 801.732868 572.526607 
L 805.094898 571.092507 
L 808.456929 570.375458 
L 811.81896 571.092507 
L 815.180991 576.111855 
L 818.543022 583.282351 
L 821.905053 589.735798 
L 825.267084 591.169897 
L 831.991146 583.999401 
L 835.353177 579.697103 
L 838.715208 574.677756 
L 842.077239 578.263004 
L 845.43927 587.584649 
L 848.801301 594.755145 
L 852.163332 599.057443 
L 855.525363 601.208591 
L 858.887394 596.189244 
L 865.611456 578.980053 
L 868.973486 573.243656 
L 872.335517 571.092507 
L 875.697548 578.263004 
L 879.059579 583.999401 
L 882.42161 590.452847 
L 889.145672 607.662038 
L 895.869734 607.662038 
L 899.231765 606.227939 
L 902.593796 606.944988 
L 905.955827 605.510889 
L 912.679889 608.379088 
L 916.04192 611.247286 
L 922.765982 612.681385 
L 926.128013 604.793839 
L 929.490044 591.169897 
L 932.852074 569.658408 
L 936.214105 556.751515 
L 939.576136 543.127572 
L 939.576136 543.127572 
" style="fill:none;stroke:#009e73;stroke-linecap:round;stroke-width:1.75;"/>
   </g>
   <g id="line2d_46">
    <path clip-path="url(#p4d7a9a0475)" d="M 149.498864 566.79021 
L 152.860895 567.507259 
L 159.584956 578.980053 
L 166.309018 580.414153 
L 169.671049 577.545954 
L 173.03308 577.545954 
L 176.395111 583.999401 
L 179.757142 589.735798 
L 183.119173 592.603996 
L 186.481204 591.886946 
L 189.843235 592.603996 
L 193.205266 591.886946 
L 199.929328 597.623343 
L 203.291359 599.057443 
L 206.65339 598.340393 
L 210.015421 601.925641 
L 213.377452 601.208591 
L 220.101514 601.208591 
L 223.463544 601.925641 
L 226.825575 599.774492 
L 233.549637 605.510889 
L 236.911668 605.510889 
L 240.273699 594.755145 
L 243.63573 580.414153 
L 246.997761 570.375458 
L 250.359792 563.922011 
L 253.721823 553.883317 
L 257.083854 552.449217 
L 260.445885 561.770862 
L 263.807916 565.356111 
L 267.169947 564.639061 
L 270.531978 568.224309 
L 273.894009 573.243656 
L 277.25604 574.677756 
L 283.980102 576.111855 
L 287.342132 577.545954 
L 290.704163 576.828904 
L 294.066194 553.166267 
L 297.428225 522.333134 
L 300.790256 503.689843 
L 304.152287 490.065901 
L 307.514318 484.329504 
L 310.876349 497.953447 
L 314.23838 519.464935 
L 317.600411 523.050183 
L 320.962442 541.693473 
L 327.686504 564.639061 
L 331.048535 573.960706 
L 334.410566 589.735798 
L 337.772597 589.018748 
L 344.496659 584.71645 
L 347.85869 573.243656 
L 351.220721 565.356111 
L 354.582751 562.487912 
L 357.944782 561.053813 
L 361.306813 563.922011 
L 364.668844 575.394805 
L 368.030875 582.565301 
L 371.392906 584.71645 
L 374.754937 578.263004 
L 378.116968 565.356111 
L 381.478999 545.995771 
L 384.84103 523.767233 
L 388.203061 496.519347 
L 391.565092 483.612454 
L 394.927123 468.554412 
L 401.651185 467.120313 
L 408.375247 455.647519 
L 411.737278 455.647519 
L 418.461339 445.608825 
L 421.82337 454.93047 
L 425.185401 470.705561 
L 428.547432 488.631802 
L 431.909463 498.670496 
L 435.271494 518.747885 
L 438.633525 533.805927 
L 441.995556 535.957076 
L 445.357587 534.522977 
L 448.719618 535.957076 
L 452.081649 527.352481 
L 455.44368 521.616084 
L 458.805711 513.728538 
L 462.167742 502.255744 
L 465.529773 500.104595 
L 468.891804 506.558042 
L 472.253835 510.86034 
L 475.615866 518.747885 
L 478.977897 525.918382 
L 482.339927 519.464935 
L 485.701958 505.840992 
L 489.063989 496.519347 
L 492.42602 483.612454 
L 495.788051 477.159008 
L 499.150082 482.895405 
L 502.512113 491.5 
L 505.874144 493.651149 
L 509.236175 497.236397 
L 512.598206 497.953447 
L 515.960237 497.953447 
L 519.322268 498.670496 
L 522.684299 505.123943 
L 526.04633 521.616084 
L 529.408361 529.50363 
L 532.770392 529.50363 
L 536.132423 530.937729 
L 539.494454 520.899034 
L 542.856485 512.294439 
L 546.218515 512.294439 
L 549.580546 523.050183 
L 552.942577 526.635431 
L 556.304608 536.674126 
L 559.666639 536.674126 
L 563.02867 537.391175 
L 566.390701 530.937729 
L 569.752732 525.201332 
L 573.114763 518.747885 
L 576.476794 513.011489 
L 579.838825 510.86034 
L 583.200856 514.445588 
L 586.562887 520.899034 
L 589.924918 528.06953 
L 593.286949 537.391175 
L 596.64898 533.805927 
L 600.011011 522.333134 
L 603.373042 513.011489 
L 606.735073 501.538695 
L 610.097103 497.953447 
L 613.459134 509.42624 
L 616.821165 524.484282 
L 620.183196 538.825275 
L 623.545227 556.034466 
L 626.907258 563.204962 
L 630.269289 567.507259 
L 633.63132 565.356111 
L 636.993351 555.317416 
L 640.355382 550.298069 
L 643.717413 541.693473 
L 647.079444 527.352481 
L 650.441475 516.596737 
L 653.803506 522.333134 
L 657.165537 527.352481 
L 660.527568 533.805927 
L 663.889599 538.825275 
L 667.25163 543.127572 
L 670.613661 540.976424 
L 673.975691 534.522977 
L 677.337722 525.201332 
L 680.699753 517.313786 
L 684.061784 519.464935 
L 690.785846 520.899034 
L 694.147877 528.06953 
L 697.509908 543.844622 
L 700.871939 553.883317 
L 704.23397 569.658408 
L 710.958032 602.642691 
L 714.320063 609.813187 
L 717.682094 616.266633 
L 721.044125 613.398435 
L 724.406156 614.115485 
L 727.768187 613.398435 
L 731.130218 616.266633 
L 734.492249 617.700733 
L 737.854279 621.285981 
L 741.21631 620.568931 
L 744.578341 611.964336 
L 747.940372 609.813187 
L 751.302403 606.227939 
L 754.664434 601.925641 
L 758.026465 601.925641 
L 761.388496 608.379088 
L 764.750527 607.662038 
L 768.112558 604.07679 
L 771.474589 589.735798 
L 774.83662 586.150549 
L 778.198651 577.545954 
L 781.560682 563.204962 
L 784.922713 558.185614 
L 788.284744 566.79021 
L 791.646775 567.507259 
L 798.370837 578.980053 
L 805.094898 580.414153 
L 808.456929 577.545954 
L 811.81896 577.545954 
L 815.180991 583.999401 
L 818.543022 589.735798 
L 821.905053 592.603996 
L 825.267084 591.886946 
L 828.629115 592.603996 
L 831.991146 591.886946 
L 838.715208 597.623343 
L 842.077239 599.057443 
L 845.43927 598.340393 
L 848.801301 601.925641 
L 852.163332 601.208591 
L 858.887394 601.208591 
L 862.249425 601.925641 
L 865.611456 599.774492 
L 872.335517 605.510889 
L 875.697548 605.510889 
L 879.059579 594.755145 
L 882.42161 580.414153 
L 885.783641 570.375458 
L 889.145672 563.922011 
L 892.507703 553.883317 
L 895.869734 552.449217 
L 899.231765 561.770862 
L 902.593796 565.356111 
L 905.955827 564.639061 
L 909.317858 568.224309 
L 912.679889 573.243656 
L 916.04192 574.677756 
L 922.765982 576.111855 
L 926.128013 577.545954 
L 929.490044 576.828904 
L 932.852074 553.166267 
L 936.214105 522.333134 
L 939.576136 503.689843 
L 939.576136 503.689843 
" style="fill:none;stroke:#f0e442;stroke-linecap:round;stroke-width:1.75;"/>
   </g>
  </g>
  <g id="axes_3">
   <g id="patch_12">
    <path d="M 109.995 954.08 
L 979.08 954.08 
L 979.08 666.973333 
L 109.995 666.973333 
z
" style="fill:#ffffff;"/>
   </g>
   <g id="matplotlib.axis_5">
    <g id="xtick_11">
     <g id="line2d_47">
      <g>
       <use style="fill:#262626;stroke:#262626;" x="216.739483" xlink:href="#me9f46ca71d" y="954.08"/>
      </g>
     </g>
     <g id="text_19">
      <text style="fill:#262626;font-family:Arial;font-size:20px;font-style:normal;font-weight:normal;text-anchor:middle;" transform="rotate(-0, 216.739483, 977.395625)" x="216.739483" y="977.395625">Upstream</text>
     </g>
    </g>
    <g id="xtick_12">
     <g id="line2d_48">
      <g>
       <use style="fill:#262626;stroke:#262626;" x="351.220721" xlink:href="#me9f46ca71d" y="954.08"/>
      </g>
     </g>
     <g id="text_20">
      <text style="fill:#262626;font-family:Arial;font-size:20px;font-style:normal;font-weight:normal;text-anchor:middle;" transform="rotate(-0, 351.220721, 977.395625)" x="351.220721" y="977.395625">5'UTR</text>
     </g>
    </g>
    <g id="xtick_13">
     <g id="line2d_49">
      <g>
       <use style="fill:#262626;stroke:#262626;" x="552.942577" xlink:href="#me9f46ca71d" y="954.08"/>
      </g>
     </g>
     <g id="text_21">
      <text style="fill:#262626;font-family:Arial;font-size:20px;font-style:normal;font-weight:normal;text-anchor:middle;" transform="rotate(-0, 552.942577, 977.395625)" x="552.942577" y="977.395625">CDS</text>
     </g>
    </g>
    <g id="xtick_14">
     <g id="line2d_50">
      <g>
       <use style="fill:#262626;stroke:#262626;" x="754.664434" xlink:href="#me9f46ca71d" y="954.08"/>
      </g>
     </g>
     <g id="text_22">
      <text style="fill:#262626;font-family:Arial;font-size:20px;font-style:normal;font-weight:normal;text-anchor:middle;" transform="rotate(-0, 754.664434, 977.395625)" x="754.664434" y="977.395625">3'UTR</text>
     </g>
    </g>
    <g id="xtick_15">
     <g id="line2d_51">
      <g>
       <use style="fill:#262626;stroke:#262626;" x="889.145672" xlink:href="#me9f46ca71d" y="954.08"/>
      </g>
     </g>
     <g id="text_23">
      <text style="fill:#262626;font-family:Arial;font-size:20px;font-style:normal;font-weight:normal;text-anchor:middle;" transform="rotate(-0, 889.145672, 977.395625)" x="889.145672" y="977.395625">Downstream</text>
     </g>
    </g>
   </g>
   <g id="matplotlib.axis_6">
    <g id="ytick_13">
     <g id="line2d_52">
      <g>
       <use style="fill:#262626;stroke:#262626;" x="109.995" xlink:href="#m59cc8b571a" y="875.105553"/>
      </g>
     </g>
     <g id="text_24">
      <text style="fill:#262626;font-family:Arial;font-size:20px;font-style:normal;font-weight:normal;text-anchor:end;" transform="rotate(-0, 100.995, 882.263366)" x="100.995" y="882.263366">10</text>
     </g>
    </g>
    <g id="ytick_14">
     <g id="line2d_53">
      <g>
       <use style="fill:#262626;stroke:#262626;" x="109.995" xlink:href="#m59cc8b571a" y="794.705135"/>
      </g>
     </g>
     <g id="text_25">
      <text style="fill:#262626;font-family:Arial;font-size:20px;font-style:normal;font-weight:normal;text-anchor:end;" transform="rotate(-0, 100.995, 801.862947)" x="100.995" y="801.862947">20</text>
     </g>
    </g>
    <g id="ytick_15">
     <g id="line2d_54">
      <g>
       <use style="fill:#262626;stroke:#262626;" x="109.995" xlink:href="#m59cc8b571a" y="714.304716"/>
      </g>
     </g>
     <g id="text_26">
      <text style="fill:#262626;font-family:Arial;font-size:20px;font-style:normal;font-weight:normal;text-anchor:end;" transform="rotate(-0, 100.995, 721.462528)" x="100.995" y="721.462528">30</text>
     </g>
    </g>
    <g id="text_27">
     <text style="fill:#262626;font-family:Arial;font-size:22px;font-style:normal;font-weight:normal;" transform="translate(46.773438 878.39151)rotate(-90)">2 tetrad PG4s</text>
     <text style="fill:#262626;font-family:Arial;font-size:22px;font-style:normal;font-weight:normal;" transform="translate(70.120937 886.97151)rotate(-90)">per 1000 genes</text>
    </g>
   </g>
   <g id="line2d_55">
    <path clip-path="url(#p37cf024261)" d="M 149.498864 883.780819 
L 152.860895 884.830775 
L 156.222926 883.387085 
L 159.584956 880.237216 
L 162.946987 879.449748 
L 166.309018 880.040349 
L 169.671049 880.105971 
L 173.03308 882.862107 
L 176.395111 886.733822 
L 183.119173 890.211803 
L 186.481204 893.361672 
L 189.843235 896.708408 
L 193.205266 898.217721 
L 196.567297 899.267677 
L 199.929328 901.958191 
L 203.291359 903.139392 
L 206.65339 902.81128 
L 210.015421 903.467503 
L 213.377452 904.976816 
L 216.739483 905.501794 
L 220.101514 907.929818 
L 223.463544 911.210932 
L 226.825575 913.901446 
L 230.187606 915.804492 
L 233.549637 916.395093 
L 236.911668 915.410758 
L 240.273699 915.476381 
L 243.63573 915.935737 
L 246.997761 914.492047 
L 250.359792 913.44209 
L 257.083854 915.870114 
L 260.445885 916.066981 
L 263.807916 918.03565 
L 267.169947 919.019984 
L 270.531978 917.576294 
L 273.894009 915.542003 
L 277.25604 912.982734 
L 280.618071 910.751576 
L 283.980102 911.932778 
L 287.342132 913.901446 
L 290.704163 915.476381 
L 294.066194 918.691873 
L 297.428225 921.448008 
L 300.790256 920.660541 
L 304.152287 920.135563 
L 307.514318 919.216851 
L 310.876349 917.379427 
L 314.23838 916.395093 
L 317.600411 916.001359 
L 320.962442 915.345136 
L 324.324473 915.410758 
L 327.686504 916.198226 
L 331.048535 916.001359 
L 334.410566 915.935737 
L 337.772597 916.723204 
L 341.134628 915.73887 
L 344.496659 916.263848 
L 347.85869 917.248182 
L 351.220721 918.691873 
L 354.582751 917.904405 
L 357.944782 916.854449 
L 361.306813 913.048356 
L 364.668844 905.764283 
L 368.030875 886.274466 
L 371.392906 867.506493 
L 374.754937 833.579774 
L 378.116968 802.277946 
L 381.478999 778.128947 
L 384.84103 770.713629 
L 388.203061 766.776292 
L 394.927123 787.972289 
L 398.289154 794.993873 
L 401.651185 796.962541 
L 405.013216 797.093786 
L 408.375247 799.587432 
L 411.737278 799.128076 
L 415.099309 797.553142 
L 418.461339 798.471854 
L 421.82337 797.750009 
L 428.547432 798.799965 
L 431.909463 799.653055 
L 435.271494 796.568807 
L 438.633525 795.387606 
L 441.995556 790.728424 
L 445.357587 787.906666 
L 448.719618 787.644177 
L 452.081649 790.794047 
L 455.44368 792.762715 
L 458.805711 795.715718 
L 462.167742 798.340609 
L 465.529773 797.815631 
L 468.891804 794.600139 
L 472.253835 793.156449 
L 475.615866 790.990914 
L 478.977897 788.103533 
L 482.339927 786.397354 
L 485.701958 786.594221 
L 489.063989 783.313107 
L 492.42602 784.297441 
L 495.788051 782.722506 
L 499.150082 783.641218 
L 502.512113 786.397354 
L 505.874144 788.825378 
L 509.236175 789.087867 
L 512.598206 791.122158 
L 515.960237 791.45027 
L 519.322268 785.609887 
L 522.684299 784.166196 
L 526.04633 782.460017 
L 529.408361 781.606927 
L 532.770392 777.93208 
L 536.132423 778.52268 
L 539.494454 775.438433 
L 542.856485 774.979077 
L 546.218515 773.666631 
L 549.580546 777.800835 
L 552.942577 778.653925 
L 556.304608 781.869417 
L 559.666639 780.425726 
L 563.02867 779.178903 
L 566.390701 777.407101 
L 569.752732 776.029034 
L 573.114763 774.78221 
L 576.476794 774.257232 
L 579.838825 774.322854 
L 583.200856 770.910496 
L 586.562887 767.760626 
L 589.924918 763.888912 
L 593.286949 760.476553 
L 596.64898 754.833037 
L 600.011011 753.651836 
L 606.735073 755.948616 
L 610.097103 752.733124 
L 613.459134 752.929991 
L 620.183196 745.186561 
L 623.545227 740.26489 
L 626.907258 740.199268 
L 630.269289 735.408842 
L 633.63132 730.224681 
L 636.993351 726.352967 
L 640.355382 723.26872 
L 643.717413 717.493959 
L 647.079444 715.328424 
L 650.441475 712.244176 
L 653.803506 708.04435 
L 657.165537 704.435125 
L 660.527568 703.516413 
L 663.889599 698.135386 
L 667.25163 696.101095 
L 670.613661 690.588824 
L 673.975691 687.701443 
L 677.337722 689.210756 
L 680.699753 693.673071 
L 684.061784 696.166717 
L 687.423815 701.482122 
L 690.785846 703.450791 
L 694.147877 704.894481 
L 697.509908 718.543915 
L 700.871939 741.249225 
L 707.596001 826.164456 
L 710.958032 864.028512 
L 714.320063 890.211803 
L 717.682094 907.339218 
L 721.044125 905.370549 
L 724.406156 903.992482 
L 727.768187 904.254971 
L 731.130218 905.501794 
L 734.492249 907.798574 
L 737.854279 909.570375 
L 741.21631 910.685954 
L 744.578341 913.967068 
L 747.940372 915.73887 
L 751.302403 917.116938 
L 758.026465 922.891698 
L 761.388496 922.694832 
L 764.750527 926.369679 
L 768.112558 929.650793 
L 771.474589 931.29135 
L 774.83662 921.448008 
L 784.922713 894.017895 
L 788.284744 883.780819 
L 791.646775 884.830775 
L 795.008806 883.387085 
L 798.370837 880.237216 
L 801.732868 879.449748 
L 805.094898 880.040349 
L 808.456929 880.105971 
L 811.81896 882.862107 
L 815.180991 886.733822 
L 821.905053 890.211803 
L 825.267084 893.361672 
L 828.629115 896.708408 
L 831.991146 898.217721 
L 835.353177 899.267677 
L 838.715208 901.958191 
L 842.077239 903.139392 
L 845.43927 902.81128 
L 848.801301 903.467503 
L 852.163332 904.976816 
L 855.525363 905.501794 
L 858.887394 907.929818 
L 862.249425 911.210932 
L 865.611456 913.901446 
L 868.973486 915.804492 
L 872.335517 916.395093 
L 875.697548 915.410758 
L 879.059579 915.476381 
L 882.42161 915.935737 
L 885.783641 914.492047 
L 889.145672 913.44209 
L 895.869734 915.870114 
L 899.231765 916.066981 
L 902.593796 918.03565 
L 905.955827 919.019984 
L 909.317858 917.576294 
L 912.679889 915.542003 
L 916.04192 912.982734 
L 919.403951 910.751576 
L 922.765982 911.932778 
L 926.128013 913.901446 
L 929.490044 915.476381 
L 932.852074 918.691873 
L 936.214105 921.448008 
L 939.576136 920.660541 
L 939.576136 920.660541 
" style="fill:none;stroke:#0072b2;stroke-linecap:round;stroke-width:1.75;"/>
   </g>
   <g id="line2d_56">
    <path clip-path="url(#p37cf024261)" d="M 149.498864 896.905275 
L 152.860895 896.314675 
L 156.222926 898.545832 
L 159.584956 899.136433 
L 162.946987 898.742699 
L 166.309018 899.267677 
L 169.671049 899.3333 
L 173.03308 898.677077 
L 176.395111 899.005188 
L 179.757142 901.105101 
L 186.481204 906.223639 
L 189.843235 908.25793 
L 193.205266 910.095354 
L 196.567297 910.357843 
L 199.929328 910.292221 
L 203.291359 910.55471 
L 206.65339 910.357843 
L 210.015421 909.373509 
L 213.377452 907.207973 
L 216.739483 905.895528 
L 220.101514 906.092395 
L 223.463544 907.339218 
L 226.825575 907.995441 
L 230.187606 911.14531 
L 233.549637 913.44209 
L 236.911668 914.360802 
L 240.273699 913.573335 
L 243.63573 914.951402 
L 246.997761 914.426424 
L 250.359792 912.457756 
L 253.721823 910.620332 
L 257.083854 910.489087 
L 260.445885 909.176642 
L 263.807916 906.81424 
L 267.169947 906.486128 
L 270.531978 906.289261 
L 273.894009 904.779949 
L 277.25604 902.286302 
L 280.618071 900.055145 
L 287.342132 896.052186 
L 290.704163 894.73974 
L 294.066194 892.377338 
L 297.428225 889.096224 
L 300.790256 885.093265 
L 304.152287 880.827816 
L 307.514318 873.412499 
L 310.876349 867.900227 
L 314.23838 866.522159 
L 317.600411 863.306667 
L 320.962442 857.728773 
L 324.324473 855.760105 
L 327.686504 851.757146 
L 331.048535 846.572986 
L 334.410566 842.176293 
L 337.772597 840.010758 
L 341.134628 838.763934 
L 344.496659 838.63269 
L 347.85869 839.157668 
L 351.220721 840.207624 
L 354.582751 845.982385 
L 357.944782 850.707189 
L 364.668844 869.409539 
L 368.030875 881.943395 
L 371.392906 891.524248 
L 374.754937 876.234257 
L 378.116968 842.832516 
L 381.478999 804.640348 
L 388.203061 711.259842 
L 391.565092 688.357666 
L 394.927123 683.042261 
L 398.289154 680.023636 
L 405.013216 696.626073 
L 408.375247 708.503706 
L 411.737278 719.790739 
L 415.099309 735.802575 
L 418.461339 745.777162 
L 421.82337 754.570548 
L 425.185401 762.904577 
L 428.547432 770.648006 
L 431.909463 776.619634 
L 435.271494 783.509974 
L 438.633525 791.778381 
L 441.995556 798.93121 
L 445.357587 805.690305 
L 448.719618 810.874465 
L 452.081649 815.139913 
L 455.44368 819.011628 
L 458.805711 820.652185 
L 462.167742 820.061584 
L 465.529773 819.011628 
L 468.891804 819.470984 
L 472.253835 818.027293 
L 475.615866 817.896049 
L 478.977897 820.127206 
L 482.339927 823.014587 
L 485.701958 824.523899 
L 489.063989 829.117459 
L 492.42602 833.18604 
L 495.788051 836.664021 
L 499.150082 841.454448 
L 502.512113 844.40745 
L 505.874144 847.097964 
L 509.236175 850.050967 
L 512.598206 852.413369 
L 515.960237 852.610235 
L 519.322268 853.791437 
L 522.684299 852.74148 
L 526.04633 851.429034 
L 529.408361 849.591611 
L 532.770392 849.132255 
L 536.132423 850.838434 
L 539.494454 851.954013 
L 542.856485 851.232168 
L 546.218515 853.332081 
L 549.580546 854.710148 
L 552.942577 852.807102 
L 556.304608 853.59457 
L 559.666639 855.956972 
L 566.390701 858.77873 
L 569.752732 861.534866 
L 576.476794 861.403621 
L 579.838825 861.534866 
L 583.200856 860.747398 
L 586.562887 860.22242 
L 593.286949 862.847311 
L 596.64898 862.716067 
L 600.011011 862.912934 
L 603.373042 863.241045 
L 606.735073 861.928599 
L 610.097103 861.009887 
L 613.459134 860.22242 
L 616.821165 861.07551 
L 620.183196 860.353665 
L 623.545227 858.909974 
L 626.907258 858.122507 
L 630.269289 858.975597 
L 636.993351 859.36933 
L 640.355382 860.025553 
L 643.717413 859.041219 
L 647.079444 856.088216 
L 650.441475 852.544613 
L 653.803506 851.560279 
L 657.165537 852.216502 
L 660.527568 854.250793 
L 663.889599 857.138173 
L 667.25163 859.36933 
L 670.613661 859.303708 
L 673.975691 858.319374 
L 677.337722 856.547572 
L 680.699753 853.988303 
L 684.061784 850.838434 
L 687.423815 848.869765 
L 690.785846 847.229208 
L 694.147877 846.310497 
L 697.509908 844.604317 
L 700.871939 843.81685 
L 710.958032 892.967938 
L 714.320063 910.882821 
L 717.682094 930.175772 
L 721.044125 932.538174 
L 727.768187 938.18169 
L 731.130218 939.362891 
L 734.492249 939.03478 
L 737.854279 938.509801 
L 741.21631 937.000489 
L 744.578341 934.966198 
L 747.940372 933.784997 
L 751.302403 933.916242 
L 754.664434 933.128774 
L 758.026465 933.194397 
L 761.388496 934.572465 
L 764.750527 934.506842 
L 768.112558 934.178731 
L 771.474589 932.931907 
L 774.83662 926.10719 
L 778.198651 916.920071 
L 781.560682 909.570375 
L 784.922713 902.81128 
L 788.284744 896.905275 
L 791.646775 896.314675 
L 795.008806 898.545832 
L 798.370837 899.136433 
L 801.732868 898.742699 
L 805.094898 899.267677 
L 808.456929 899.3333 
L 811.81896 898.677077 
L 815.180991 899.005188 
L 818.543022 901.105101 
L 825.267084 906.223639 
L 828.629115 908.25793 
L 831.991146 910.095354 
L 835.353177 910.357843 
L 838.715208 910.292221 
L 842.077239 910.55471 
L 845.43927 910.357843 
L 848.801301 909.373509 
L 852.163332 907.207973 
L 855.525363 905.895528 
L 858.887394 906.092395 
L 862.249425 907.339218 
L 865.611456 907.995441 
L 868.973486 911.14531 
L 872.335517 913.44209 
L 875.697548 914.360802 
L 879.059579 913.573335 
L 882.42161 914.951402 
L 885.783641 914.426424 
L 889.145672 912.457756 
L 892.507703 910.620332 
L 895.869734 910.489087 
L 899.231765 909.176642 
L 902.593796 906.81424 
L 905.955827 906.486128 
L 909.317858 906.289261 
L 912.679889 904.779949 
L 916.04192 902.286302 
L 919.403951 900.055145 
L 926.128013 896.052186 
L 929.490044 894.73974 
L 932.852074 892.377338 
L 936.214105 889.096224 
L 939.576136 885.093265 
L 939.576136 885.093265 
" style="fill:none;stroke:#d55e00;stroke-linecap:round;stroke-width:1.75;"/>
   </g>
   <g id="line2d_57">
    <path clip-path="url(#p37cf024261)" d="M 317.600411 954.08 
L 317.600411 666.973333 
" style="fill:none;stroke:#888888;stroke-dasharray:6.475,2.8;stroke-dashoffset:0;stroke-width:1.75;"/>
   </g>
   <g id="line2d_58">
    <path clip-path="url(#p37cf024261)" d="M 384.84103 954.08 
L 384.84103 666.973333 
" style="fill:none;stroke:#888888;stroke-dasharray:6.475,2.8;stroke-dashoffset:0;stroke-width:1.75;"/>
   </g>
   <g id="line2d_59">
    <path clip-path="url(#p37cf024261)" d="M 721.044125 954.08 
L 721.044125 666.973333 
" style="fill:none;stroke:#888888;stroke-dasharray:6.475,2.8;stroke-dashoffset:0;stroke-width:1.75;"/>
   </g>
   <g id="line2d_60">
    <path clip-path="url(#p37cf024261)" d="M 788.284744 954.08 
L 788.284744 666.973333 
" style="fill:none;stroke:#888888;stroke-dasharray:6.475,2.8;stroke-dashoffset:0;stroke-width:1.75;"/>
   </g>
   <g id="patch_13">
    <path d="M 109.995 954.08 
L 109.995 666.973333 
" style="fill:none;stroke:#262626;stroke-linecap:square;stroke-linejoin:miter;stroke-width:1.25;"/>
   </g>
   <g id="patch_14">
    <path d="M 979.08 954.08 
L 979.08 666.973333 
" style="fill:none;stroke:#262626;stroke-linecap:square;stroke-linejoin:miter;stroke-width:1.25;"/>
   </g>
   <g id="patch_15">
    <path d="M 109.995 954.08 
L 979.08 954.08 
" style="fill:none;stroke:#262626;stroke-linecap:square;stroke-linejoin:miter;stroke-width:1.25;"/>
   </g>
   <g id="patch_16">
    <path d="M 109.995 666.973333 
L 979.08 666.973333 
" style="fill:none;stroke:#262626;stroke-linecap:square;stroke-linejoin:miter;stroke-width:1.25;"/>
   </g>
   <g id="line2d_61">
    <path clip-path="url(#p37cf024261)" d="M 149.498864 905.344301 
L 152.860895 904.963691 
L 156.222926 905.219618 
L 159.584956 905.213056 
L 162.946987 904.852133 
L 166.309018 905.173683 
L 169.671049 906.243326 
L 173.03308 906.879862 
L 183.119173 909.373509 
L 186.481204 909.563813 
L 189.843235 910.325032 
L 196.567297 912.844927 
L 199.929328 914.229557 
L 206.65339 917.53692 
L 213.377452 919.787765 
L 216.739483 921.323326 
L 220.101514 923.009819 
L 223.463544 924.374762 
L 226.825575 925.221289 
L 230.187606 925.746268 
L 233.549637 925.785641 
L 236.911668 925.477216 
L 240.273699 925.674083 
L 243.63573 926.494362 
L 246.997761 926.710915 
L 250.359792 926.251559 
L 257.083854 926.559984 
L 260.445885 926.126877 
L 263.807916 926.231873 
L 267.169947 926.750289 
L 270.531978 926.376242 
L 273.894009 925.267225 
L 277.25604 923.685728 
L 280.618071 922.990132 
L 283.980102 922.819514 
L 287.342132 923.324806 
L 290.704163 924.492882 
L 294.066194 925.956259 
L 297.428225 926.140001 
L 300.790256 925.916886 
L 304.152287 925.923448 
L 307.514318 925.595336 
L 310.876349 925.490341 
L 317.600411 925.805328 
L 320.962442 926.035006 
L 324.324473 925.857826 
L 327.686504 926.028444 
L 334.410566 926.737164 
L 341.134628 927.052151 
L 344.496659 926.953718 
L 347.85869 927.3737 
L 351.220721 927.511507 
L 354.582751 926.251559 
L 357.944782 924.54538 
L 361.306813 921.756433 
L 364.668844 914.820158 
L 368.030875 899.622038 
L 371.392906 883.853004 
L 374.754937 863.227921 
L 378.116968 846.691106 
L 381.478999 837.064317 
L 384.84103 837.30712 
L 388.203061 839.984509 
L 391.565092 848.128234 
L 394.927123 853.83081 
L 398.289154 856.193212 
L 401.651185 857.006928 
L 405.013216 855.956972 
L 408.375247 855.996345 
L 411.737278 856.790375 
L 415.099309 857.203795 
L 418.461339 857.006928 
L 421.82337 857.15786 
L 425.185401 856.980679 
L 428.547432 855.313873 
L 431.909463 854.565779 
L 435.271494 852.958034 
L 438.633525 852.354309 
L 441.995556 850.648129 
L 445.357587 850.313456 
L 448.719618 848.712272 
L 455.44368 850.057529 
L 458.805711 851.258417 
L 462.167742 850.543134 
L 465.529773 850.956554 
L 468.891804 848.915701 
L 472.253835 847.754187 
L 475.615866 845.345849 
L 482.339927 842.701271 
L 485.701958 842.688147 
L 489.063989 840.857285 
L 492.42602 841.244456 
L 499.150082 843.416554 
L 502.512113 844.814309 
L 505.874144 845.103047 
L 509.236175 844.630566 
L 512.598206 843.409992 
L 515.960237 841.585692 
L 519.322268 840.365118 
L 522.684299 841.198521 
L 526.04633 841.395388 
L 529.408361 841.244456 
L 532.770392 840.214187 
L 536.132423 838.672063 
L 539.494454 836.51309 
L 542.856485 835.049713 
L 546.218515 834.012881 
L 549.580546 834.524735 
L 556.304608 833.711019 
L 559.666639 833.776641 
L 563.02867 833.638834 
L 566.390701 832.59544 
L 569.752732 830.987694 
L 573.114763 830.318347 
L 576.476794 829.425884 
L 579.838825 828.809034 
L 583.200856 827.457215 
L 586.562887 827.312846 
L 589.924918 825.856032 
L 593.286949 823.67081 
L 596.64898 820.114082 
L 600.011011 818.90007 
L 603.373042 817.036397 
L 606.735073 814.851175 
L 610.097103 812.436275 
L 613.459134 812.226284 
L 620.183196 808.846736 
L 623.545227 807.219304 
L 626.907258 805.276884 
L 630.269289 801.949835 
L 633.63132 798.274987 
L 636.993351 795.938834 
L 643.717413 791.968686 
L 647.079444 790.321566 
L 653.803506 783.345918 
L 657.165537 779.113281 
L 660.527568 776.888685 
L 663.889599 774.42785 
L 667.25163 774.303168 
L 670.613661 773.226962 
L 677.337722 774.217859 
L 680.699753 774.434412 
L 684.061784 776.908372 
L 687.423815 781.219756 
L 690.785846 785.262088 
L 694.147877 791.115596 
L 697.509908 802.212324 
L 700.871939 817.922298 
L 707.596001 868.051158 
L 710.958032 889.73276 
L 714.320063 906.210515 
L 717.682094 916.336033 
L 721.044125 916.15229 
L 724.406156 916.119479 
L 727.768187 916.861011 
L 734.492249 919.689331 
L 741.21631 921.612064 
L 744.578341 923.147625 
L 747.940372 924.105711 
L 751.302403 925.470654 
L 754.664434 927.49182 
L 758.026465 929.37518 
L 761.388496 930.687625 
L 768.112558 935.478052 
L 771.474589 937.295789 
L 774.83662 931.737582 
L 778.198651 925.660959 
L 788.284744 905.344301 
L 791.646775 904.963691 
L 795.008806 905.219618 
L 798.370837 905.213056 
L 801.732868 904.852133 
L 805.094898 905.173683 
L 808.456929 906.243326 
L 811.81896 906.879862 
L 821.905053 909.373509 
L 825.267084 909.563813 
L 828.629115 910.325032 
L 835.353177 912.844927 
L 838.715208 914.229557 
L 845.43927 917.53692 
L 852.163332 919.787765 
L 855.525363 921.323326 
L 858.887394 923.009819 
L 862.249425 924.374762 
L 865.611456 925.221289 
L 868.973486 925.746268 
L 872.335517 925.785641 
L 875.697548 925.477216 
L 879.059579 925.674083 
L 882.42161 926.494362 
L 885.783641 926.710915 
L 889.145672 926.251559 
L 895.869734 926.559984 
L 899.231765 926.126877 
L 902.593796 926.231873 
L 905.955827 926.750289 
L 909.317858 926.376242 
L 912.679889 925.267225 
L 916.04192 923.685728 
L 919.403951 922.990132 
L 922.765982 922.819514 
L 926.128013 923.324806 
L 929.490044 924.492882 
L 932.852074 925.956259 
L 936.214105 926.140001 
L 939.576136 925.916886 
L 939.576136 925.916886 
" style="fill:none;stroke:#009e73;stroke-linecap:round;stroke-width:1.75;"/>
   </g>
   <g id="line2d_62">
    <path clip-path="url(#p37cf024261)" d="M 149.498864 915.850428 
L 152.860895 915.266389 
L 156.222926 915.850428 
L 162.946987 917.641916 
L 166.309018 918.166894 
L 169.671049 918.140645 
L 173.03308 917.760036 
L 176.395111 918.042212 
L 179.757142 918.521255 
L 183.119173 919.210289 
L 189.843235 921.251141 
L 193.205266 921.625188 
L 196.567297 921.756433 
L 203.291359 922.826076 
L 206.65339 922.977007 
L 213.377452 922.563587 
L 220.101514 923.285432 
L 226.825575 923.981028 
L 230.187606 924.650376 
L 236.911668 925.28035 
L 240.273699 925.286912 
L 243.63573 925.569088 
L 246.997761 925.004736 
L 250.359792 923.882595 
L 253.721823 922.957321 
L 257.083854 922.373282 
L 260.445885 921.592377 
L 267.169947 920.352116 
L 270.531978 919.394031 
L 273.894009 917.943779 
L 277.25604 915.686372 
L 283.980102 909.918174 
L 287.342132 907.837947 
L 290.704163 906.164579 
L 294.066194 903.775928 
L 297.428225 900.95417 
L 300.790256 897.476189 
L 304.152287 893.519165 
L 307.514318 887.357233 
L 310.876349 882.245258 
L 314.23838 878.491663 
L 317.600411 874.324648 
L 320.962442 869.284857 
L 324.324473 866.607468 
L 327.686504 864.586302 
L 331.048535 861.961411 
L 334.410566 859.881184 
L 337.772597 858.680296 
L 341.134628 857.853456 
L 344.496659 857.354726 
L 347.85869 857.833769 
L 351.220721 859.953369 
L 354.582751 864.730671 
L 357.944782 870.669487 
L 361.306813 877.986372 
L 364.668844 887.442542 
L 368.030875 898.158661 
L 371.392906 906.25645 
L 374.754937 900.068269 
L 378.116968 883.236154 
L 381.478999 860.255231 
L 388.203061 802.468251 
L 391.565092 786.272672 
L 394.927123 780.202611 
L 398.289154 779.152654 
L 401.651185 784.907728 
L 405.013216 791.207467 
L 411.737278 805.985605 
L 415.099309 812.751262 
L 418.461339 817.108581 
L 421.82337 821.656206 
L 425.185401 827.58846 
L 438.633525 849.447242 
L 445.357587 857.295666 
L 448.719618 860.872081 
L 452.081649 863.424787 
L 455.44368 865.793752 
L 458.805711 866.830584 
L 465.529773 866.948704 
L 468.891804 867.178382 
L 472.253835 867.073386 
L 475.615866 867.611489 
L 478.977897 869.074866 
L 482.339927 869.573595 
L 485.701958 871.411019 
L 492.42602 876.988913 
L 495.788051 879.121637 
L 499.150082 882.186198 
L 502.512113 884.207364 
L 505.874144 885.185136 
L 509.236175 885.985728 
L 512.598206 886.543517 
L 526.04633 885.939792 
L 529.408361 885.368878 
L 532.770392 885.611681 
L 536.132423 885.690427 
L 539.494454 886.11041 
L 542.856485 886.956937 
L 546.218515 888.367816 
L 549.580546 889.109348 
L 552.942577 889.358713 
L 556.304608 889.352151 
L 559.666639 888.945293 
L 566.390701 890.211803 
L 569.752732 891.110828 
L 573.114763 891.629244 
L 576.476794 891.675179 
L 583.200856 891.169888 
L 589.924918 891.629244 
L 593.286949 892.528269 
L 596.64898 893.23699 
L 600.011011 893.046685 
L 606.735073 893.066372 
L 610.097103 893.322299 
L 613.459134 892.613578 
L 616.821165 893.066372 
L 620.183196 893.151681 
L 630.269289 893.794779 
L 633.63132 893.466668 
L 636.993351 892.803883 
L 640.355382 892.672638 
L 643.717413 891.41269 
L 647.079444 890.986145 
L 650.441475 890.356172 
L 653.803506 890.041185 
L 660.527568 890.356172 
L 663.889599 889.739322 
L 667.25163 890.008373 
L 670.613661 890.500541 
L 673.975691 889.601515 
L 677.337722 889.995249 
L 680.699753 890.808965 
L 684.061784 891.012394 
L 690.785846 890.001811 
L 694.147877 888.262821 
L 697.509908 885.37544 
L 700.871939 883.925188 
L 704.23397 892.049226 
L 707.596001 900.855737 
L 710.958032 911.302804 
L 714.320063 923.318243 
L 717.682094 934.887451 
L 724.406156 939.349767 
L 727.768187 940.530968 
L 731.130218 940.996886 
L 734.492249 940.71471 
L 737.854279 941.029697 
L 741.21631 940.491594 
L 744.578341 940.24223 
L 751.302403 940.24223 
L 754.664434 939.658191 
L 758.026465 939.559758 
L 764.750527 938.831351 
L 768.112558 938.024196 
L 771.474589 936.97424 
L 774.83662 933.082839 
L 778.198651 928.554901 
L 781.560682 923.731664 
L 784.922713 919.544962 
L 788.284744 915.850428 
L 791.646775 915.266389 
L 795.008806 915.850428 
L 801.732868 917.641916 
L 805.094898 918.166894 
L 808.456929 918.140645 
L 811.81896 917.760036 
L 815.180991 918.042212 
L 818.543022 918.521255 
L 821.905053 919.210289 
L 828.629115 921.251141 
L 831.991146 921.625188 
L 835.353177 921.756433 
L 842.077239 922.826076 
L 845.43927 922.977007 
L 852.163332 922.563587 
L 858.887394 923.285432 
L 865.611456 923.981028 
L 868.973486 924.650376 
L 875.697548 925.28035 
L 879.059579 925.286912 
L 882.42161 925.569088 
L 885.783641 925.004736 
L 889.145672 923.882595 
L 892.507703 922.957321 
L 895.869734 922.373282 
L 899.231765 921.592377 
L 905.955827 920.352116 
L 909.317858 919.394031 
L 912.679889 917.943779 
L 916.04192 915.686372 
L 922.765982 909.918174 
L 926.128013 907.837947 
L 929.490044 906.164579 
L 932.852074 903.775928 
L 936.214105 900.95417 
L 939.576136 897.476189 
L 939.576136 897.476189 
" style="fill:none;stroke:#f0e442;stroke-linecap:round;stroke-width:1.75;"/>
   </g>
  </g>
 </g>
 <defs>
  <clipPath id="pf79ce24d8e">
   <rect height="287.106667" width="869.085" x="109.995" y="28.92"/>
  </clipPath>
  <clipPath id="p4d7a9a0475">
   <rect height="287.106667" width="869.085" x="109.995" y="347.946667"/>
  </clipPath>
  <clipPath id="p37cf024261">
   <rect height="287.106667" width="869.085" x="109.995" y="666.973333"/>
  </clipPath>
 </defs>
</svg>
