<?xml version="1.0" encoding="utf-8" standalone="no"?>
<!DOCTYPE svg PUBLIC "-//W3C//DTD SVG 1.1//EN"
  "http://www.w3.org/Graphics/SVG/1.1/DTD/svg11.dtd">
<!-- Created with matplotlib (http://matplotlib.org/) -->
<svg height="360pt" version="1.1" viewBox="0 0 576 360" width="576pt" xmlns="http://www.w3.org/2000/svg" xmlns:xlink="http://www.w3.org/1999/xlink">
 <defs>
  <style type="text/css">
*{stroke-linecap:butt;stroke-linejoin:round;}
  </style>
 </defs>
 <g id="figure_1">
  <g id="patch_1">
   <path d="M 0 360 
L 576 360 
L 576 0 
L 0 0 
z
" style="fill:#ffffff;"/>
  </g>
  <g id="axes_1">
   <g id="patch_2">
    <path d="M 92.295 282.08 
L 547.08 282.08 
L 547.08 28.92 
L 92.295 28.92 
z
" style="fill:#ffffff;"/>
   </g>
   <g id="matplotlib.axis_1">
    <g id="xtick_1">
     <g id="line2d_1">
      <defs>
       <path d="M 0 0 
L 0 2 
" id="m70bfbb9f8f" style="stroke:#262626;"/>
      </defs>
      <g>
       <use style="fill:#262626;stroke:#262626;" x="100.384967" xlink:href="#m70bfbb9f8f" y="282.08"/>
      </g>
     </g>
     <g id="text_1">
      <text style="fill:#262626;font-family:Arial;font-size:20px;font-style:normal;font-weight:normal;text-anchor:middle;" transform="rotate(-0, 100.384967, 305.395625)" x="100.384967" y="305.395625">100Mb</text>
     </g>
    </g>
    <g id="xtick_2">
     <g id="line2d_2">
      <g>
       <use style="fill:#262626;stroke:#262626;" x="299.847941" xlink:href="#m70bfbb9f8f" y="282.08"/>
      </g>
     </g>
     <g id="text_2">
      <text style="fill:#262626;font-family:Arial;font-size:20px;font-style:normal;font-weight:normal;text-anchor:middle;" transform="rotate(-0, 299.847941, 305.395625)" x="299.847941" y="305.395625">1Gb</text>
     </g>
    </g>
    <g id="xtick_3">
     <g id="line2d_3">
      <g>
       <use style="fill:#262626;stroke:#262626;" x="499.310915" xlink:href="#m70bfbb9f8f" y="282.08"/>
      </g>
     </g>
     <g id="text_3">
      <text style="fill:#262626;font-family:Arial;font-size:20px;font-style:normal;font-weight:normal;text-anchor:middle;" transform="rotate(-0, 499.310915, 305.395625)" x="499.310915" y="305.395625">10Gb</text>
     </g>
    </g>
    <g id="text_4">
     <text style="fill:#262626;font-family:Arial;font-size:22px;font-style:normal;font-weight:normal;text-anchor:middle;" transform="rotate(-0, 319.6875, 329.385938)" x="319.6875" y="329.385938">Log10 Genome Size</text>
    </g>
   </g>
   <g id="matplotlib.axis_2">
    <g id="ytick_1">
     <g id="line2d_4">
      <defs>
       <path d="M 0 0 
L -2 0 
" id="m0af38039c4" style="stroke:#262626;"/>
      </defs>
      <g>
       <use style="fill:#262626;stroke:#262626;" x="92.295" xlink:href="#m0af38039c4" y="257.580645"/>
      </g>
     </g>
     <g id="text_5">
      <text style="fill:#262626;font-family:Arial;font-size:20px;font-style:normal;font-weight:normal;text-anchor:end;" transform="rotate(-0, 83.295, 264.738458)" x="83.295" y="264.738458">0</text>
     </g>
    </g>
    <g id="ytick_2">
     <g id="line2d_5">
      <g>
       <use style="fill:#262626;stroke:#262626;" x="92.295" xlink:href="#m0af38039c4" y="175.916129"/>
      </g>
     </g>
     <g id="text_6">
      <text style="fill:#262626;font-family:Arial;font-size:20px;font-style:normal;font-weight:normal;text-anchor:end;" transform="rotate(-0, 83.295, 183.073942)" x="83.295" y="183.073942">100</text>
     </g>
    </g>
    <g id="ytick_3">
     <g id="line2d_6">
      <g>
       <use style="fill:#262626;stroke:#262626;" x="92.295" xlink:href="#m0af38039c4" y="94.251613"/>
      </g>
     </g>
     <g id="text_7">
      <text style="fill:#262626;font-family:Arial;font-size:20px;font-style:normal;font-weight:normal;text-anchor:end;" transform="rotate(-0, 83.295, 101.409425)" x="83.295" y="101.409425">200</text>
     </g>
    </g>
    <g id="text_8">
     <text style="fill:#262626;font-family:Arial;font-size:22px;font-style:normal;font-weight:normal;text-anchor:middle;" transform="rotate(-90, 41.556875, 155.5)" x="41.556875" y="155.5">Av. 3+ tetrad PG4 / Mb</text>
    </g>
   </g>
   <g id="PathCollection_1">
    <defs>
     <path d="M 0 3.5 
C 0.928211 3.5 1.81853 3.131218 2.474874 2.474874 
C 3.131218 1.81853 3.5 0.928211 3.5 0 
C 3.5 -0.928211 3.131218 -1.81853 2.474874 -2.474874 
C 1.81853 -3.131218 0.928211 -3.5 0 -3.5 
C -0.928211 -3.5 -1.81853 -3.131218 -2.474874 -2.474874 
C -3.131218 -1.81853 -3.5 -0.928211 -3.5 0 
C -3.5 0.928211 -3.131218 1.81853 -2.474874 2.474874 
C -1.81853 3.131218 -0.928211 3.5 0 3.5 
z
" id="m5113bfeb75" style="stroke:#0072b2;stroke-width:0.3;"/>
    </defs>
    <g clip-path="url(#p9554210b49)">
     <use style="fill:#0072b2;stroke:#0072b2;stroke-width:0.3;" x="403.632839" xlink:href="#m5113bfeb75" y="257.187455"/>
     <use style="fill:#0072b2;stroke:#0072b2;stroke-width:0.3;" x="187.040944" xlink:href="#m5113bfeb75" y="196.455571"/>
     <use style="fill:#0072b2;stroke:#0072b2;stroke-width:0.3;" x="231.952183" xlink:href="#m5113bfeb75" y="238.307084"/>
     <use style="fill:#0072b2;stroke:#0072b2;stroke-width:0.3;" x="436.349533" xlink:href="#m5113bfeb75" y="203.017887"/>
     <use style="fill:#0072b2;stroke:#0072b2;stroke-width:0.3;" x="185.356832" xlink:href="#m5113bfeb75" y="207.621724"/>
     <use style="fill:#0072b2;stroke:#0072b2;stroke-width:0.3;" x="234.987528" xlink:href="#m5113bfeb75" y="231.562004"/>
     <use style="fill:#0072b2;stroke:#0072b2;stroke-width:0.3;" x="197.909298" xlink:href="#m5113bfeb75" y="198.240349"/>
     <use style="fill:#0072b2;stroke:#0072b2;stroke-width:0.3;" x="183.435593" xlink:href="#m5113bfeb75" y="255.423836"/>
     <use style="fill:#0072b2;stroke:#0072b2;stroke-width:0.3;" x="200.168981" xlink:href="#m5113bfeb75" y="247.112071"/>
     <use style="fill:#0072b2;stroke:#0072b2;stroke-width:0.3;" x="214.387257" xlink:href="#m5113bfeb75" y="202.680123"/>
     <use style="fill:#0072b2;stroke:#0072b2;stroke-width:0.3;" x="226.132978" xlink:href="#m5113bfeb75" y="254.804019"/>
     <use style="fill:#0072b2;stroke:#0072b2;stroke-width:0.3;" x="202.870381" xlink:href="#m5113bfeb75" y="257.29501"/>
     <use style="fill:#0072b2;stroke:#0072b2;stroke-width:0.3;" x="205.284588" xlink:href="#m5113bfeb75" y="203.607586"/>
     <use style="fill:#0072b2;stroke:#0072b2;stroke-width:0.3;" x="205.871533" xlink:href="#m5113bfeb75" y="193.41365"/>
     <use style="fill:#0072b2;stroke:#0072b2;stroke-width:0.3;" x="219.124083" xlink:href="#m5113bfeb75" y="203.579739"/>
     <use style="fill:#0072b2;stroke:#0072b2;stroke-width:0.3;" x="205.894699" xlink:href="#m5113bfeb75" y="184.968477"/>
     <use style="fill:#0072b2;stroke:#0072b2;stroke-width:0.3;" x="214.894335" xlink:href="#m5113bfeb75" y="178.513877"/>
     <use style="fill:#0072b2;stroke:#0072b2;stroke-width:0.3;" x="221.707319" xlink:href="#m5113bfeb75" y="210.62853"/>
     <use style="fill:#0072b2;stroke:#0072b2;stroke-width:0.3;" x="270.02505" xlink:href="#m5113bfeb75" y="235.096281"/>
     <use style="fill:#0072b2;stroke:#0072b2;stroke-width:0.3;" x="524.844065" xlink:href="#m5113bfeb75" y="256.271253"/>
     <use style="fill:#0072b2;stroke:#0072b2;stroke-width:0.3;" x="414.280372" xlink:href="#m5113bfeb75" y="257.225926"/>
     <use style="fill:#0072b2;stroke:#0072b2;stroke-width:0.3;" x="365.553992" xlink:href="#m5113bfeb75" y="184.42647"/>
    </g>
   </g>
   <g id="PathCollection_2">
    <defs>
     <path d="M 0 3.5 
C 0.928211 3.5 1.81853 3.131218 2.474874 2.474874 
C 3.131218 1.81853 3.5 0.928211 3.5 0 
C 3.5 -0.928211 3.131218 -1.81853 2.474874 -2.474874 
C 1.81853 -3.131218 0.928211 -3.5 0 -3.5 
C -0.928211 -3.5 -1.81853 -3.131218 -2.474874 -2.474874 
C -3.131218 -1.81853 -3.5 -0.928211 -3.5 0 
C -3.5 0.928211 -3.131218 1.81853 -2.474874 2.474874 
C -1.81853 3.131218 -0.928211 3.5 0 3.5 
z
" id="m6379ef8aef" style="stroke:#d55e00;stroke-width:0.3;"/>
    </defs>
    <g clip-path="url(#p9554210b49)">
     <use style="fill:#d55e00;stroke:#d55e00;stroke-width:0.3;" x="163.270277" xlink:href="#m6379ef8aef" y="255.534892"/>
     <use style="fill:#d55e00;stroke:#d55e00;stroke-width:0.3;" x="115.938516" xlink:href="#m6379ef8aef" y="249.055686"/>
     <use style="fill:#d55e00;stroke:#d55e00;stroke-width:0.3;" x="250.571765" xlink:href="#m6379ef8aef" y="256.447134"/>
     <use style="fill:#d55e00;stroke:#d55e00;stroke-width:0.3;" x="285.586024" xlink:href="#m6379ef8aef" y="256.676799"/>
     <use style="fill:#d55e00;stroke:#d55e00;stroke-width:0.3;" x="237.809664" xlink:href="#m6379ef8aef" y="257.358741"/>
     <use style="fill:#d55e00;stroke:#d55e00;stroke-width:0.3;" x="190.75112" xlink:href="#m6379ef8aef" y="257.462683"/>
     <use style="fill:#d55e00;stroke:#d55e00;stroke-width:0.3;" x="200.376477" xlink:href="#m6379ef8aef" y="257.011831"/>
     <use style="fill:#d55e00;stroke:#d55e00;stroke-width:0.3;" x="157.71451" xlink:href="#m6379ef8aef" y="247.611531"/>
     <use style="fill:#d55e00;stroke:#d55e00;stroke-width:0.3;" x="297.957816" xlink:href="#m6379ef8aef" y="249.556755"/>
     <use style="fill:#d55e00;stroke:#d55e00;stroke-width:0.3;" x="276.234692" xlink:href="#m6379ef8aef" y="247.817652"/>
     <use style="fill:#d55e00;stroke:#d55e00;stroke-width:0.3;" x="395.816286" xlink:href="#m6379ef8aef" y="230.144961"/>
     <use style="fill:#d55e00;stroke:#d55e00;stroke-width:0.3;" x="256.915939" xlink:href="#m6379ef8aef" y="257.00588"/>
     <use style="fill:#d55e00;stroke:#d55e00;stroke-width:0.3;" x="252.976271" xlink:href="#m6379ef8aef" y="255.585695"/>
     <use style="fill:#d55e00;stroke:#d55e00;stroke-width:0.3;" x="223.202319" xlink:href="#m6379ef8aef" y="254.901886"/>
     <use style="fill:#d55e00;stroke:#d55e00;stroke-width:0.3;" x="334.516886" xlink:href="#m6379ef8aef" y="256.045777"/>
     <use style="fill:#d55e00;stroke:#d55e00;stroke-width:0.3;" x="243.380302" xlink:href="#m6379ef8aef" y="252.200987"/>
     <use style="fill:#d55e00;stroke:#d55e00;stroke-width:0.3;" x="224.1078" xlink:href="#m6379ef8aef" y="255.032516"/>
     <use style="fill:#d55e00;stroke:#d55e00;stroke-width:0.3;" x="171.555789" xlink:href="#m6379ef8aef" y="239.273502"/>
     <use style="fill:#d55e00;stroke:#d55e00;stroke-width:0.3;" x="283.039725" xlink:href="#m6379ef8aef" y="253.233006"/>
     <use style="fill:#d55e00;stroke:#d55e00;stroke-width:0.3;" x="281.66401" xlink:href="#m6379ef8aef" y="229.11705"/>
     <use style="fill:#d55e00;stroke:#d55e00;stroke-width:0.3;" x="207.909105" xlink:href="#m6379ef8aef" y="252.790131"/>
     <use style="fill:#d55e00;stroke:#d55e00;stroke-width:0.3;" x="196.939977" xlink:href="#m6379ef8aef" y="257.158605"/>
     <use style="fill:#d55e00;stroke:#d55e00;stroke-width:0.3;" x="237.390776" xlink:href="#m6379ef8aef" y="228.005841"/>
    </g>
   </g>
   <g id="PathCollection_3">
    <defs>
     <path d="M 0 3.5 
C 0.928211 3.5 1.81853 3.131218 2.474874 2.474874 
C 3.131218 1.81853 3.5 0.928211 3.5 0 
C 3.5 -0.928211 3.131218 -1.81853 2.474874 -2.474874 
C 1.81853 -3.131218 0.928211 -3.5 0 -3.5 
C -0.928211 -3.5 -1.81853 -3.131218 -2.474874 -2.474874 
C -3.131218 -1.81853 -3.5 -0.928211 -3.5 0 
C -3.5 0.928211 -3.131218 1.81853 -2.474874 2.474874 
C -1.81853 3.131218 -0.928211 3.5 0 3.5 
z
" id="m80b04db23f" style="stroke:#009e73;stroke-width:0.3;"/>
    </defs>
    <g clip-path="url(#p9554210b49)">
     <use style="fill:#009e73;stroke:#009e73;stroke-width:0.3;" x="269.730882" xlink:href="#m80b04db23f" y="254.083509"/>
     <use style="fill:#009e73;stroke:#009e73;stroke-width:0.3;" x="236.264726" xlink:href="#m80b04db23f" y="253.069024"/>
     <use style="fill:#009e73;stroke:#009e73;stroke-width:0.3;" x="165.740239" xlink:href="#m80b04db23f" y="247.644605"/>
    </g>
   </g>
   <g id="PathCollection_4">
    <defs>
     <path d="M 0 3.5 
C 0.928211 3.5 1.81853 3.131218 2.474874 2.474874 
C 3.131218 1.81853 3.5 0.928211 3.5 0 
C 3.5 -0.928211 3.131218 -1.81853 2.474874 -2.474874 
C 1.81853 -3.131218 0.928211 -3.5 0 -3.5 
C -0.928211 -3.5 -1.81853 -3.131218 -2.474874 -2.474874 
C -3.131218 -1.81853 -3.5 -0.928211 -3.5 0 
C -3.5 0.928211 -3.131218 1.81853 -2.474874 2.474874 
C -1.81853 3.131218 -0.928211 3.5 0 3.5 
z
" id="m04b98ec0b1" style="stroke:#f0e442;stroke-width:0.3;"/>
    </defs>
    <g clip-path="url(#p9554210b49)">
     <use style="fill:#f0e442;stroke:#f0e442;stroke-width:0.3;" x="325.530898" xlink:href="#m04b98ec0b1" y="226.87789"/>
     <use style="fill:#f0e442;stroke:#f0e442;stroke-width:0.3;" x="131.807431" xlink:href="#m04b98ec0b1" y="253.361383"/>
     <use style="fill:#f0e442;stroke:#f0e442;stroke-width:0.3;" x="397.528464" xlink:href="#m04b98ec0b1" y="157.125124"/>
     <use style="fill:#f0e442;stroke:#f0e442;stroke-width:0.3;" x="386.70453" xlink:href="#m04b98ec0b1" y="72.5754"/>
    </g>
   </g>
   <g id="patch_3">
    <path d="M 92.295 282.08 
L 92.295 28.92 
" style="fill:none;stroke:#262626;stroke-linecap:square;stroke-linejoin:miter;stroke-width:1.25;"/>
   </g>
   <g id="patch_4">
    <path d="M 547.08 282.08 
L 547.08 28.92 
" style="fill:none;stroke:#262626;stroke-linecap:square;stroke-linejoin:miter;stroke-width:1.25;"/>
   </g>
   <g id="patch_5">
    <path d="M 92.295 282.08 
L 547.08 282.08 
" style="fill:none;stroke:#262626;stroke-linecap:square;stroke-linejoin:miter;stroke-width:1.25;"/>
   </g>
   <g id="patch_6">
    <path d="M 92.295 28.92 
L 547.08 28.92 
" style="fill:none;stroke:#262626;stroke-linecap:square;stroke-linejoin:miter;stroke-width:1.25;"/>
   </g>
   <g id="patch_7">
    <path d="M 140.518474 259.383689 
Q 133.291058 256.661083 126.063643 253.938476 
L 125.006076 256.745887 
Q 121.968184 253.464296 118.930292 250.182704 
Q 123.378273 249.721082 127.826254 249.259459 
L 126.768687 252.06687 
Q 133.996103 254.789476 141.223519 257.512082 
L 140.518474 259.383689 
z
" style="stroke:#000000;stroke-linecap:round;stroke-width:0.3;"/>
   </g>
   <g id="text_9">
    <text style="fill:#262626;font-family:Arial;font-size:20px;font-style:normal;font-weight:normal;text-anchor:start;" transform="rotate(-0, 145.857962, 274.642128)" x="145.857962" y="274.642128">A. thaliana</text>
   </g>
   <g id="patch_8">
    <path d="M 422.813466 148.668728 
Q 415.58605 151.391334 408.358635 154.113941 
L 409.416201 156.921351 
Q 404.968221 156.459728 400.52024 155.998106 
Q 403.558132 152.716515 406.596024 149.434923 
L 407.65359 152.242334 
Q 414.881006 149.519727 422.108422 146.797121 
L 422.813466 148.668728 
z
" style="stroke:#000000;stroke-linecap:round;stroke-width:0.3;"/>
   </g>
   <g id="text_10">
    <text style="fill:#262626;font-family:Arial;font-size:20px;font-style:normal;font-weight:normal;text-anchor:start;" transform="rotate(-0, 427.44791, 141.879307)" x="427.44791" y="141.879307">H. sapiens</text>
   </g>
   <g id="patch_9">
    <path d="M 411.284488 82.903403 
Q 404.057072 80.180797 396.829656 77.45819 
L 395.772089 80.265601 
Q 392.734198 76.98401 389.696306 73.702418 
Q 394.144286 73.240796 398.592267 72.779173 
L 397.5347 75.586584 
Q 404.762116 78.30919 411.989532 81.031797 
L 411.284488 82.903403 
z
" style="stroke:#000000;stroke-linecap:round;stroke-width:0.3;"/>
   </g>
   <g id="text_11">
    <text style="fill:#262626;font-family:Arial;font-size:20px;font-style:normal;font-weight:normal;text-anchor:start;" transform="rotate(-0, 416.623976, 98.161842)" x="416.623976" y="98.161842">M. musculus</text>
   </g>
   <g id="legend_1">
    <g id="PathCollection_5">
     <g>
      <use style="fill:#0072b2;stroke:#0072b2;stroke-width:0.3;" x="130.295" xlink:href="#m5113bfeb75" y="55.985625"/>
     </g>
    </g>
    <g id="text_12">
     <text style="fill:#262626;font-family:Arial;font-size:20px;font-style:normal;font-weight:normal;text-anchor:start;" transform="rotate(-0, 166.295, 61.235625)" x="166.295" y="61.235625">Monocotyledon</text>
    </g>
    <g id="PathCollection_6">
     <g>
      <use style="fill:#d55e00;stroke:#d55e00;stroke-width:0.3;" x="130.295" xlink:href="#m6379ef8aef" y="84.510625"/>
     </g>
    </g>
    <g id="text_13">
     <text style="fill:#262626;font-family:Arial;font-size:20px;font-style:normal;font-weight:normal;text-anchor:start;" transform="rotate(-0, 166.295, 89.760625)" x="166.295" y="89.760625">Dicotyledon</text>
    </g>
    <g id="PathCollection_7">
     <g>
      <use style="fill:#009e73;stroke:#009e73;stroke-width:0.3;" x="130.295" xlink:href="#m80b04db23f" y="113.035625"/>
     </g>
    </g>
    <g id="text_14">
     <text style="fill:#262626;font-family:Arial;font-size:20px;font-style:normal;font-weight:normal;text-anchor:start;" transform="rotate(-0, 166.295, 118.285625)" x="166.295" y="118.285625">Non-Flowering</text>
    </g>
    <g id="PathCollection_8">
     <g>
      <use style="fill:#f0e442;stroke:#f0e442;stroke-width:0.3;" x="130.295" xlink:href="#m04b98ec0b1" y="141.560625"/>
     </g>
    </g>
    <g id="text_15">
     <text style="fill:#262626;font-family:Arial;font-size:20px;font-style:normal;font-weight:normal;text-anchor:start;" transform="rotate(-0, 166.295, 146.810625)" x="166.295" y="146.810625">Metazoa</text>
    </g>
   </g>
  </g>
 </g>
 <defs>
  <clipPath id="p9554210b49">
   <rect height="253.16" width="454.785" x="92.295" y="28.92"/>
  </clipPath>
 </defs>
</svg>
