<?xml version="1.0" encoding="utf-8" standalone="no"?>
<!DOCTYPE svg PUBLIC "-//W3C//DTD SVG 1.1//EN"
  "http://www.w3.org/Graphics/SVG/1.1/DTD/svg11.dtd">
<!-- Created with matplotlib (http://matplotlib.org/) -->
<svg height="360pt" version="1.1" viewBox="0 0 360 360" width="360pt" xmlns="http://www.w3.org/2000/svg" xmlns:xlink="http://www.w3.org/1999/xlink">
 <defs>
  <style type="text/css">
*{stroke-linecap:butt;stroke-linejoin:round;}
  </style>
 </defs>
 <g id="figure_1">
  <g id="patch_1">
   <path d="M 0 360 
L 360 360 
L 360 0 
L 0 0 
z
" style="fill:#ffffff;"/>
  </g>
  <g id="axes_1">
   <g id="patch_2">
    <path d="M 45 315 
L 324 315 
L 324 43.2 
L 45 43.2 
z
" style="fill:#ffffff;"/>
   </g>
   <g id="matplotlib.axis_1">
    <g id="xtick_1">
     <g id="line2d_1">
      <defs>
       <path d="M 0 0 
L 0 2 
" id="mc897a3dda4" style="stroke:#262626;"/>
      </defs>
      <g>
       <use style="fill:#262626;stroke:#262626;" x="79.875" xlink:href="#mc897a3dda4" y="315"/>
      </g>
     </g>
     <g id="text_1">
      <text style="fill:#262626;font-family:Arial;font-size:20px;font-style:normal;font-weight:normal;text-anchor:middle;" transform="rotate(-0, 79.875, 338.315625)" x="79.875" y="338.315625">0</text>
     </g>
    </g>
    <g id="xtick_2">
     <g id="line2d_2">
      <g>
       <use style="fill:#262626;stroke:#262626;" x="167.0625" xlink:href="#mc897a3dda4" y="315"/>
      </g>
     </g>
     <g id="text_2">
      <text style="fill:#262626;font-family:Arial;font-size:20px;font-style:normal;font-weight:normal;text-anchor:middle;" transform="rotate(-0, 167.0625, 338.315625)" x="167.0625" y="338.315625">5</text>
     </g>
    </g>
    <g id="xtick_3">
     <g id="line2d_3">
      <g>
       <use style="fill:#262626;stroke:#262626;" x="254.25" xlink:href="#mc897a3dda4" y="315"/>
      </g>
     </g>
     <g id="text_3">
      <text style="fill:#262626;font-family:Arial;font-size:20px;font-style:normal;font-weight:normal;text-anchor:middle;" transform="rotate(-0, 254.25, 338.315625)" x="254.25" y="338.315625">10</text>
     </g>
    </g>
    <g id="text_4">
     <text style="fill:#262626;font-family:Arial;font-size:22px;font-style:normal;font-weight:normal;text-anchor:middle;" transform="rotate(-0, 184.5, 362.305938)" x="184.5" y="362.305938">Dinucleotide Complexity</text>
    </g>
   </g>
   <g id="matplotlib.axis_2">
    <g id="ytick_1">
     <g id="line2d_4">
      <defs>
       <path d="M 0 0 
L -2 0 
" id="m0c59184858" style="stroke:#262626;"/>
      </defs>
      <g>
       <use style="fill:#262626;stroke:#262626;" x="45" xlink:href="#m0c59184858" y="315"/>
      </g>
     </g>
     <g id="text_5">
      <text style="fill:#262626;font-family:Arial;font-size:20px;font-style:normal;font-weight:normal;text-anchor:end;" transform="rotate(-0, 36, 322.157812)" x="36" y="322.157812">0.00</text>
     </g>
    </g>
    <g id="ytick_2">
     <g id="line2d_5">
      <g>
       <use style="fill:#262626;stroke:#262626;" x="45" xlink:href="#m0c59184858" y="266.519028"/>
      </g>
     </g>
     <g id="text_6">
      <text style="fill:#262626;font-family:Arial;font-size:20px;font-style:normal;font-weight:normal;text-anchor:end;" transform="rotate(-0, 36, 273.676841)" x="36" y="273.676841">0.05</text>
     </g>
    </g>
    <g id="ytick_3">
     <g id="line2d_6">
      <g>
       <use style="fill:#262626;stroke:#262626;" x="45" xlink:href="#m0c59184858" y="218.038056"/>
      </g>
     </g>
     <g id="text_7">
      <text style="fill:#262626;font-family:Arial;font-size:20px;font-style:normal;font-weight:normal;text-anchor:end;" transform="rotate(-0, 36, 225.195869)" x="36" y="225.195869">0.10</text>
     </g>
    </g>
    <g id="ytick_4">
     <g id="line2d_7">
      <g>
       <use style="fill:#262626;stroke:#262626;" x="45" xlink:href="#m0c59184858" y="169.557084"/>
      </g>
     </g>
     <g id="text_8">
      <text style="fill:#262626;font-family:Arial;font-size:20px;font-style:normal;font-weight:normal;text-anchor:end;" transform="rotate(-0, 36, 176.714897)" x="36" y="176.714897">0.15</text>
     </g>
    </g>
    <g id="ytick_5">
     <g id="line2d_8">
      <g>
       <use style="fill:#262626;stroke:#262626;" x="45" xlink:href="#m0c59184858" y="121.076112"/>
      </g>
     </g>
     <g id="text_9">
      <text style="fill:#262626;font-family:Arial;font-size:20px;font-style:normal;font-weight:normal;text-anchor:end;" transform="rotate(-0, 36, 128.233925)" x="36" y="128.233925">0.20</text>
     </g>
    </g>
    <g id="ytick_6">
     <g id="line2d_9">
      <g>
       <use style="fill:#262626;stroke:#262626;" x="45" xlink:href="#m0c59184858" y="72.59514"/>
      </g>
     </g>
     <g id="text_10">
      <text style="fill:#262626;font-family:Arial;font-size:20px;font-style:normal;font-weight:normal;text-anchor:end;" transform="rotate(-0, 36, 79.752953)" x="36" y="79.752953">0.25</text>
     </g>
    </g>
    <g id="text_11">
     <text style="fill:#262626;font-family:Arial;font-size:22px;font-style:normal;font-weight:normal;text-anchor:middle;" transform="rotate(-90, -11.552187, 179.1)" x="-11.552187" y="179.1">Density</text>
    </g>
   </g>
   <g id="patch_3">
    <path clip-path="url(#p27be4a119a)" d="M 79.875 315 
L 97.3125 315 
L 97.3125 315 
L 79.875 315 
z
" style="fill:#0072b2;opacity:0.4;"/>
   </g>
   <g id="patch_4">
    <path clip-path="url(#p27be4a119a)" d="M 97.3125 315 
L 114.75 315 
L 114.75 314.996301 
L 97.3125 314.996301 
z
" style="fill:#0072b2;opacity:0.4;"/>
   </g>
   <g id="patch_5">
    <path clip-path="url(#p27be4a119a)" d="M 114.75 315 
L 132.1875 315 
L 132.1875 315 
L 114.75 315 
z
" style="fill:#0072b2;opacity:0.4;"/>
   </g>
   <g id="patch_6">
    <path clip-path="url(#p27be4a119a)" d="M 132.1875 315 
L 149.625 315 
L 149.625 313.624045 
L 132.1875 313.624045 
z
" style="fill:#0072b2;opacity:0.4;"/>
   </g>
   <g id="patch_7">
    <path clip-path="url(#p27be4a119a)" d="M 149.625 315 
L 167.0625 315 
L 167.0625 310.128674 
L 149.625 310.128674 
z
" style="fill:#0072b2;opacity:0.4;"/>
   </g>
   <g id="patch_8">
    <path clip-path="url(#p27be4a119a)" d="M 167.0625 315 
L 184.5 315 
L 184.5 290.654468 
L 167.0625 290.654468 
z
" style="fill:#0072b2;opacity:0.4;"/>
   </g>
   <g id="patch_9">
    <path clip-path="url(#p27be4a119a)" d="M 184.5 315 
L 201.9375 315 
L 201.9375 232.842152 
L 184.5 232.842152 
z
" style="fill:#0072b2;opacity:0.4;"/>
   </g>
   <g id="patch_10">
    <path clip-path="url(#p27be4a119a)" d="M 201.9375 315 
L 219.375 315 
L 219.375 152.814815 
L 201.9375 152.814815 
z
" style="fill:#0072b2;opacity:0.4;"/>
   </g>
   <g id="patch_11">
    <path clip-path="url(#p27be4a119a)" d="M 219.375 315 
L 236.8125 315 
L 236.8125 56.142857 
L 219.375 56.142857 
z
" style="fill:#0072b2;opacity:0.4;"/>
   </g>
   <g id="patch_12">
    <path clip-path="url(#p27be4a119a)" d="M 236.8125 315 
L 254.25 315 
L 254.25 75.450617 
L 236.8125 75.450617 
z
" style="fill:#0072b2;opacity:0.4;"/>
   </g>
   <g id="patch_13">
    <path clip-path="url(#p27be4a119a)" d="M 254.25 315 
L 271.6875 315 
L 271.6875 175.85097 
L 254.25 175.85097 
z
" style="fill:#0072b2;opacity:0.4;"/>
   </g>
   <g id="patch_14">
    <path clip-path="url(#p27be4a119a)" d="M 271.6875 315 
L 289.125 315 
L 289.125 268.794533 
L 271.6875 268.794533 
z
" style="fill:#0072b2;opacity:0.4;"/>
   </g>
   <g id="patch_15">
    <path clip-path="url(#p27be4a119a)" d="M 289.125 315 
L 306.5625 315 
L 306.5625 304.880071 
L 289.125 304.880071 
z
" style="fill:#0072b2;opacity:0.4;"/>
   </g>
   <g id="patch_16">
    <path clip-path="url(#p27be4a119a)" d="M 306.5625 315 
L 324 315 
L 324 314.201058 
L 306.5625 314.201058 
z
" style="fill:#0072b2;opacity:0.4;"/>
   </g>
   <g id="patch_17">
    <path clip-path="url(#p27be4a119a)" d="M 79.875 315 
L 97.3125 315 
L 97.3125 315 
L 79.875 315 
z
" style="fill:#d55e00;opacity:0.4;"/>
   </g>
   <g id="patch_18">
    <path clip-path="url(#p27be4a119a)" d="M 97.3125 315 
L 114.75 315 
L 114.75 315 
L 97.3125 315 
z
" style="fill:#d55e00;opacity:0.4;"/>
   </g>
   <g id="patch_19">
    <path clip-path="url(#p27be4a119a)" d="M 114.75 315 
L 132.1875 315 
L 132.1875 315 
L 114.75 315 
z
" style="fill:#d55e00;opacity:0.4;"/>
   </g>
   <g id="patch_20">
    <path clip-path="url(#p27be4a119a)" d="M 132.1875 315 
L 149.625 315 
L 149.625 305.427983 
L 132.1875 305.427983 
z
" style="fill:#d55e00;opacity:0.4;"/>
   </g>
   <g id="patch_21">
    <path clip-path="url(#p27be4a119a)" d="M 149.625 315 
L 167.0625 315 
L 167.0625 277.488042 
L 149.625 277.488042 
z
" style="fill:#d55e00;opacity:0.4;"/>
   </g>
   <g id="patch_22">
    <path clip-path="url(#p27be4a119a)" d="M 167.0625 315 
L 184.5 315 
L 184.5 198.842282 
L 167.0625 198.842282 
z
" style="fill:#d55e00;opacity:0.4;"/>
   </g>
   <g id="patch_23">
    <path clip-path="url(#p27be4a119a)" d="M 184.5 315 
L 201.9375 315 
L 201.9375 120.196521 
L 184.5 120.196521 
z
" style="fill:#d55e00;opacity:0.4;"/>
   </g>
   <g id="patch_24">
    <path clip-path="url(#p27be4a119a)" d="M 201.9375 315 
L 219.375 315 
L 219.375 97.430643 
L 201.9375 97.430643 
z
" style="fill:#d55e00;opacity:0.4;"/>
   </g>
   <g id="patch_25">
    <path clip-path="url(#p27be4a119a)" d="M 219.375 315 
L 236.8125 315 
L 236.8125 107.77877 
L 219.375 107.77877 
z
" style="fill:#d55e00;opacity:0.4;"/>
   </g>
   <g id="patch_26">
    <path clip-path="url(#p27be4a119a)" d="M 236.8125 315 
L 254.25 315 
L 254.25 190.563781 
L 236.8125 190.563781 
z
" style="fill:#d55e00;opacity:0.4;"/>
   </g>
   <g id="patch_27">
    <path clip-path="url(#p27be4a119a)" d="M 254.25 315 
L 271.6875 315 
L 271.6875 265.328993 
L 254.25 265.328993 
z
" style="fill:#d55e00;opacity:0.4;"/>
   </g>
   <g id="patch_28">
    <path clip-path="url(#p27be4a119a)" d="M 271.6875 315 
L 289.125 315 
L 289.125 304.910577 
L 271.6875 304.910577 
z
" style="fill:#d55e00;opacity:0.4;"/>
   </g>
   <g id="patch_29">
    <path clip-path="url(#p27be4a119a)" d="M 289.125 315 
L 306.5625 315 
L 306.5625 312.412968 
L 289.125 312.412968 
z
" style="fill:#d55e00;opacity:0.4;"/>
   </g>
   <g id="patch_30">
    <path clip-path="url(#p27be4a119a)" d="M 306.5625 315 
L 324 315 
L 324 315 
L 306.5625 315 
z
" style="fill:#d55e00;opacity:0.4;"/>
   </g>
   <g id="patch_31">
    <path clip-path="url(#p27be4a119a)" d="M 79.875 315 
L 97.3125 315 
L 97.3125 315 
L 79.875 315 
z
" style="fill:#009e73;opacity:0.4;"/>
   </g>
   <g id="patch_32">
    <path clip-path="url(#p27be4a119a)" d="M 97.3125 315 
L 114.75 315 
L 114.75 315 
L 97.3125 315 
z
" style="fill:#009e73;opacity:0.4;"/>
   </g>
   <g id="patch_33">
    <path clip-path="url(#p27be4a119a)" d="M 114.75 315 
L 132.1875 315 
L 132.1875 315 
L 114.75 315 
z
" style="fill:#009e73;opacity:0.4;"/>
   </g>
   <g id="patch_34">
    <path clip-path="url(#p27be4a119a)" d="M 132.1875 315 
L 149.625 315 
L 149.625 307.162429 
L 132.1875 307.162429 
z
" style="fill:#009e73;opacity:0.4;"/>
   </g>
   <g id="patch_35">
    <path clip-path="url(#p27be4a119a)" d="M 149.625 315 
L 167.0625 315 
L 167.0625 278.499314 
L 149.625 278.499314 
z
" style="fill:#009e73;opacity:0.4;"/>
   </g>
   <g id="patch_36">
    <path clip-path="url(#p27be4a119a)" d="M 167.0625 315 
L 184.5 315 
L 184.5 177.954481 
L 167.0625 177.954481 
z
" style="fill:#009e73;opacity:0.4;"/>
   </g>
   <g id="patch_37">
    <path clip-path="url(#p27be4a119a)" d="M 184.5 315 
L 201.9375 315 
L 201.9375 64.421674 
L 184.5 64.421674 
z
" style="fill:#009e73;opacity:0.4;"/>
   </g>
   <g id="patch_38">
    <path clip-path="url(#p27be4a119a)" d="M 201.9375 315 
L 219.375 315 
L 219.375 65.765257 
L 201.9375 65.765257 
z
" style="fill:#009e73;opacity:0.4;"/>
   </g>
   <g id="patch_39">
    <path clip-path="url(#p27be4a119a)" d="M 219.375 315 
L 236.8125 315 
L 236.8125 147.05206 
L 219.375 147.05206 
z
" style="fill:#009e73;opacity:0.4;"/>
   </g>
   <g id="patch_40">
    <path clip-path="url(#p27be4a119a)" d="M 236.8125 315 
L 254.25 315 
L 254.25 227.443141 
L 236.8125 227.443141 
z
" style="fill:#009e73;opacity:0.4;"/>
   </g>
   <g id="patch_41">
    <path clip-path="url(#p27be4a119a)" d="M 254.25 315 
L 271.6875 315 
L 271.6875 288.576191 
L 254.25 288.576191 
z
" style="fill:#009e73;opacity:0.4;"/>
   </g>
   <g id="patch_42">
    <path clip-path="url(#p27be4a119a)" d="M 271.6875 315 
L 289.125 315 
L 289.125 308.953874 
L 271.6875 308.953874 
z
" style="fill:#009e73;opacity:0.4;"/>
   </g>
   <g id="patch_43">
    <path clip-path="url(#p27be4a119a)" d="M 289.125 315 
L 306.5625 315 
L 306.5625 314.776069 
L 289.125 314.776069 
z
" style="fill:#009e73;opacity:0.4;"/>
   </g>
   <g id="patch_44">
    <path clip-path="url(#p27be4a119a)" d="M 306.5625 315 
L 324 315 
L 324 314.776069 
L 306.5625 314.776069 
z
" style="fill:#009e73;opacity:0.4;"/>
   </g>
   <g id="line2d_10">
    <path clip-path="url(#p27be4a119a)" d="M 68.540625 314.996393 
L 108.454651 314.949411 
L 114.756865 314.798866 
L 121.05908 314.443781 
L 127.361294 313.87349 
L 133.663509 313.078605 
L 137.864985 312.312392 
L 142.066462 311.215533 
L 144.1672 310.493357 
L 146.267938 309.616461 
L 148.368676 308.543855 
L 150.469414 307.227289 
L 152.570153 305.618753 
L 154.670891 303.680768 
L 156.771629 301.394369 
L 158.872367 298.758824 
L 160.973105 295.779761 
L 163.073844 292.44837 
L 165.174582 288.721055 
L 167.27532 284.512569 
L 169.376058 279.712606 
L 171.476796 274.225636 
L 173.577534 268.020097 
L 175.678273 261.163053 
L 179.879749 246.191043 
L 186.181964 222.753195 
L 188.282702 214.48986 
L 190.38344 205.669812 
L 192.484178 196.184263 
L 196.685655 175.69423 
L 200.887131 155.03813 
L 207.189345 124.998191 
L 213.49156 93.07368 
L 215.592298 83.576844 
L 217.693036 75.979505 
L 219.793775 70.84371 
L 221.894513 68.250229 
L 223.995251 67.790788 
L 226.095989 68.771511 
L 228.196727 70.53682 
L 230.297466 72.762635 
L 232.398204 75.581375 
L 234.498942 79.48298 
L 236.59968 85.044818 
L 238.700418 92.623906 
L 240.801156 102.15794 
L 242.901895 113.162939 
L 249.204109 148.197177 
L 259.7078 203.841568 
L 263.909277 226.589858 
L 266.010015 237.040839 
L 268.110753 246.520588 
L 270.211491 254.976423 
L 272.312229 262.503037 
L 274.412968 269.262911 
L 276.513706 275.403996 
L 278.614444 281.009738 
L 280.715182 286.093967 
L 282.81592 290.630344 
L 284.916658 294.593477 
L 287.017397 297.989662 
L 289.118135 300.865774 
L 291.218873 303.297705 
L 293.319611 305.36859 
L 295.420349 307.148815 
L 297.521088 308.685764 
L 299.621826 310.004838 
L 301.722564 311.118051 
L 303.823302 312.034455 
L 305.92404 312.767671 
L 308.024779 313.338505 
L 312.226255 314.099827 
L 316.427731 314.526498 
L 322.729946 314.841172 
L 331.132899 314.976566 
L 335.334375 314.992985 
L 335.334375 314.992985 
" style="fill:none;stroke:#0072b2;stroke-linecap:round;stroke-width:1.75;"/>
   </g>
   <g id="line2d_11">
    <path clip-path="url(#p27be4a119a)" d="M 103.415625 314.906157 
L 108.482111 314.657665 
L 111.859769 314.23673 
L 115.237426 313.476814 
L 116.926255 312.935747 
L 118.615084 312.275669 
L 121.992741 310.592555 
L 125.370399 308.449988 
L 128.748056 305.859958 
L 130.436885 304.370987 
L 132.125714 302.71907 
L 133.814542 300.869679 
L 135.503371 298.787085 
L 137.1922 296.440877 
L 138.881029 293.811181 
L 140.569857 290.89029 
L 142.258686 287.679264 
L 143.947515 284.179707 
L 145.636344 280.382937 
L 147.325172 276.260467 
L 149.014001 271.760291 
L 150.70283 266.812514 
L 152.391658 261.345196 
L 154.080487 255.307647 
L 155.769316 248.694916 
L 159.146973 234.042294 
L 165.902288 203.464535 
L 176.035261 160.065505 
L 179.412918 145.076599 
L 181.101747 138.208063 
L 182.790576 132.122704 
L 184.479405 126.983118 
L 186.168233 122.802788 
L 187.857062 119.444184 
L 189.545891 116.662353 
L 194.612377 109.353488 
L 197.990034 104.736394 
L 199.678863 102.941285 
L 201.367692 101.770531 
L 203.056521 101.334923 
L 204.745349 101.612086 
L 206.434178 102.456523 
L 208.123007 103.654409 
L 211.500664 106.396008 
L 213.189493 107.86007 
L 214.878322 109.570679 
L 216.567151 111.799951 
L 218.255979 114.838196 
L 219.944808 118.90573 
L 221.633637 124.084322 
L 223.322466 130.289481 
L 225.011294 137.291183 
L 233.455438 174.515037 
L 238.521924 195.943468 
L 243.58841 218.786438 
L 246.966068 233.693669 
L 248.654897 240.591186 
L 250.343725 247.008247 
L 252.032554 252.947789 
L 255.410212 263.646964 
L 258.787869 273.281035 
L 262.165527 282.098264 
L 263.854355 286.132165 
L 265.543184 289.847218 
L 267.232013 293.200074 
L 268.920842 296.168429 
L 270.60967 298.754794 
L 272.298499 300.98355 
L 273.987328 302.893638 
L 275.676156 304.529867 
L 277.364985 305.935486 
L 279.053814 307.14759 
L 280.742643 308.195681 
L 284.1203 309.887233 
L 287.497958 311.154361 
L 290.875615 312.122046 
L 295.942101 313.230021 
L 301.008588 314.052622 
L 306.075074 314.587953 
L 311.14156 314.856245 
L 317.896875 314.930787 
L 317.896875 314.930787 
" style="fill:none;stroke:#d55e00;stroke-linecap:round;stroke-width:1.75;"/>
   </g>
   <g id="line2d_12">
    <path clip-path="url(#p27be4a119a)" d="M 103.415625 314.931122 
L 108.894021 314.686194 
L 112.546284 314.266456 
L 116.198548 313.496208 
L 118.02468 312.944928 
L 119.850812 312.271426 
L 121.676944 311.472121 
L 123.503076 310.54535 
L 125.329208 309.487646 
L 127.15534 308.289086 
L 128.981471 306.929121 
L 130.807603 305.374607 
L 132.633735 303.581341 
L 134.459867 301.499339 
L 136.285999 299.080449 
L 138.112131 296.285398 
L 139.938263 293.086682 
L 141.764395 289.464565 
L 143.590527 285.395902 
L 145.416658 280.839039 
L 147.24279 275.721252 
L 149.068922 269.936525 
L 150.895054 263.359583 
L 152.721186 255.876839 
L 154.547318 247.427657 
L 156.37345 238.042699 
L 160.025714 217.129641 
L 167.330241 173.778999 
L 172.808637 142.080371 
L 178.287032 108.927766 
L 180.113164 98.728366 
L 181.939296 89.819824 
L 183.765428 82.622857 
L 185.59156 77.314162 
L 187.417692 73.781179 
L 189.243824 71.671556 
L 191.069956 70.522876 
L 192.896088 69.927768 
L 194.722219 69.675276 
L 196.548351 69.817228 
L 198.374483 70.635828 
L 200.200615 72.525476 
L 202.026747 75.833486 
L 203.852879 80.718928 
L 205.679011 87.080613 
L 207.505143 94.578086 
L 216.635802 134.936898 
L 220.288066 150.636045 
L 223.94033 167.582974 
L 229.418725 193.652704 
L 233.070989 209.343993 
L 236.723253 223.664702 
L 245.853912 258.280577 
L 247.680044 264.567587 
L 249.506176 270.335853 
L 251.332308 275.525688 
L 253.15844 280.142627 
L 254.984572 284.241557 
L 256.810704 287.900681 
L 258.636836 291.195823 
L 260.462968 294.183204 
L 262.289099 296.894058 
L 264.115231 299.339661 
L 265.941363 301.522116 
L 267.767495 303.445427 
L 269.593627 305.12269 
L 271.419759 306.577665 
L 273.245891 307.841478 
L 275.072023 308.946743 
L 278.724286 310.786992 
L 282.37655 312.227537 
L 286.028814 313.297482 
L 289.681078 314.012754 
L 293.333342 314.431173 
L 298.811737 314.700546 
L 309.768529 314.829159 
L 333.508243 314.976177 
L 335.334375 314.960129 
L 335.334375 314.960129 
" style="fill:none;stroke:#009e73;stroke-linecap:round;stroke-width:1.75;"/>
   </g>
   <g id="patch_45">
    <path d="M 45 315 
L 45 43.2 
" style="fill:none;stroke:#262626;stroke-linecap:square;stroke-linejoin:miter;stroke-width:1.25;"/>
   </g>
   <g id="patch_46">
    <path d="M 324 315 
L 324 43.2 
" style="fill:none;stroke:#262626;stroke-linecap:square;stroke-linejoin:miter;stroke-width:1.25;"/>
   </g>
   <g id="patch_47">
    <path d="M 45 315 
L 324 315 
" style="fill:none;stroke:#262626;stroke-linecap:square;stroke-linejoin:miter;stroke-width:1.25;"/>
   </g>
   <g id="patch_48">
    <path d="M 45 43.2 
L 324 43.2 
" style="fill:none;stroke:#262626;stroke-linecap:square;stroke-linejoin:miter;stroke-width:1.25;"/>
   </g>
   <g id="legend_1">
    <g id="patch_49">
     <path d="M 63 75.515625 
L 103 75.515625 
L 103 61.515625 
L 63 61.515625 
z
" style="fill:#0072b2;opacity:0.4;"/>
    </g>
    <g id="text_12">
     <text style="fill:#262626;font-family:Arial;font-size:20px;font-style:normal;font-weight:normal;text-anchor:start;" transform="rotate(-0, 119, 75.515625)" x="119" y="75.515625">All</text>
    </g>
    <g id="patch_50">
     <path d="M 63 103.865625 
L 103 103.865625 
L 103 89.865625 
L 63 89.865625 
z
" style="fill:#d55e00;opacity:0.4;"/>
    </g>
    <g id="text_13">
     <text style="fill:#262626;font-family:Arial;font-size:20px;font-style:normal;font-weight:normal;text-anchor:start;" transform="rotate(-0, 119, 103.865625)" x="119" y="103.865625">hg19</text>
    </g>
    <g id="patch_51">
     <path d="M 63 132.390625 
L 103 132.390625 
L 103 118.390625 
L 63 118.390625 
z
" style="fill:#009e73;opacity:0.4;"/>
    </g>
    <g id="text_14">
     <text style="fill:#262626;font-family:Arial;font-size:20px;font-style:normal;font-weight:normal;text-anchor:start;" transform="rotate(-0, 119, 132.390625)" x="119" y="132.390625">mm10</text>
    </g>
   </g>
  </g>
 </g>
 <defs>
  <clipPath id="p27be4a119a">
   <rect height="271.8" width="279" x="45" y="43.2"/>
  </clipPath>
 </defs>
</svg>
