<?xml version="1.0" encoding="utf-8" standalone="no"?>
<!DOCTYPE svg PUBLIC "-//W3C//DTD SVG 1.1//EN"
  "http://www.w3.org/Graphics/SVG/1.1/DTD/svg11.dtd">
<!-- Created with matplotlib (http://matplotlib.org/) -->
<svg height="360pt" version="1.1" viewBox="0 0 360 360" width="360pt" xmlns="http://www.w3.org/2000/svg" xmlns:xlink="http://www.w3.org/1999/xlink">
 <defs>
  <style type="text/css">
*{stroke-linecap:butt;stroke-linejoin:round;}
  </style>
 </defs>
 <g id="figure_1">
  <g id="patch_1">
   <path d="M 0 360 
L 360 360 
L 360 0 
L 0 0 
z
" style="fill:#ffffff;"/>
  </g>
  <g id="axes_1">
   <g id="patch_2">
    <path clip-path="url(#p86e65abc6c)" d="M 122.756642 97.774881 
C 132.080162 96.708223 141.522037 97.424071 150.578168 99.884205 
C 159.6343 102.34434 168.140599 106.504185 175.642917 112.141649 
C 182.902408 105.617757 191.300678 100.48489 200.417485 96.999893 
C 209.534292 93.514895 219.214991 91.736882 228.975168 91.754824 
C 211.226723 91.232692 193.464029 91.474329 175.736355 92.479065 
C 158.008682 93.483801 140.332434 95.250707 122.756642 97.774881 
M 117.977722 98.480252 
C 40.013553 110.298769 -34.979652 136.904175 -102.960556 176.862724 
C -170.941461 216.821272 -230.66658 269.402053 -278.917366 331.771522 
C -327.168152 394.14099 -363.062016 465.158304 -384.664661 540.996386 
C -406.267306 616.834469 -413.183584 696.106112 -405.04078 774.53942 
C -396.897976 852.972727 -373.845037 929.133021 -337.124269 998.916072 
C -300.403502 1068.699123 -250.686591 1130.828481 -190.65275 1181.956036 
C -130.618909 1233.083591 -61.366257 1272.274134 13.373224 1297.41571 
C 88.112706 1322.557287 166.971906 1333.190015 245.701154 1328.740906 
C 324.430401 1324.291796 401.589605 1304.84223 473.020705 1271.440331 
C 544.451806 1238.038432 608.848208 1191.295178 662.739631 1133.729533 
C 716.631054 1076.163888 759.031733 1008.828824 787.656722 935.352985 
C 816.281711 861.877146 830.607412 783.604528 829.861821 704.753193 
C 829.11623 625.901858 813.312986 547.914129 783.303715 474.992715 
C 753.294444 402.071301 709.628067 335.550057 654.657736 279.013771 
C 599.687405 222.477485 534.41862 176.9603 462.368674 144.915108 
C 390.318729 112.869916 312.805537 94.882878 234.006236 91.923304 
C 246.665619 92.748755 258.94593 96.589893 269.81933 103.125222 
C 280.69273 109.660551 289.847151 118.702507 296.516385 129.494294 
C 303.18562 140.28608 307.178259 152.517974 308.160128 165.166186 
C 309.141997 177.814399 307.084915 190.515926 302.161056 202.207674 
C 297.237197 213.899422 289.587877 224.245836 279.853329 232.38094 
C 270.118781 240.516045 258.578387 246.206362 246.198058 248.975622 
C 233.817729 251.744882 220.952781 251.513608 208.679986 248.301156 
C 196.40719 245.088704 185.078778 238.987272 175.642917 230.507539 
C 166.711132 237.219147 156.374791 241.822537 145.411033 243.971602 
C 134.447275 246.120668 123.137935 245.760165 112.333306 242.917198 
C 101.528677 240.074232 91.506503 234.821883 83.020302 227.55505 
C 74.534101 220.288216 67.80202 211.1937 63.33021 200.955273 
C 58.858401 190.716846 56.761815 179.597697 57.198085 168.433821 
C 57.634356 157.269945 60.592267 146.348319 65.849429 136.490088 
C 71.106591 126.631858 78.527863 118.090437 87.555275 111.508014 
C 96.582688 104.925591 106.984182 100.471373 117.977722 98.480252 
" style="fill:#009e73;opacity:0.6;"/>
   </g>
   <g id="patch_3">
    <path clip-path="url(#p86e65abc6c)" d="M 175.642917 112.141649 
C 168.140599 106.504185 159.6343 102.34434 150.578168 99.884205 
C 141.522037 97.424071 132.080162 96.708223 122.756642 97.774881 
C 121.959701 97.889335 121.162983 98.005343 120.366494 98.122905 
C 119.570005 98.240467 118.773746 98.359583 117.977722 98.480252 
C 106.984182 100.471373 96.582688 104.925591 87.555275 111.508014 
C 78.527863 118.090437 71.106591 126.631858 65.849429 136.490088 
C 60.592267 146.348319 57.634356 157.269945 57.198085 168.433821 
C 56.761815 179.597697 58.858401 190.716846 63.33021 200.955273 
C 67.80202 211.1937 74.534101 220.288216 83.020302 227.55505 
C 91.506503 234.821883 101.528677 240.074232 112.333306 242.917198 
C 123.137935 245.760165 134.447275 246.120668 145.411033 243.971602 
C 156.374791 241.822537 166.711132 237.219147 175.642917 230.507539 
C 167.339778 223.045751 160.699115 213.919459 156.153686 203.723407 
C 151.608258 193.527355 149.258995 182.487945 149.258995 171.324594 
C 149.258995 160.161243 151.608258 149.121834 156.153686 138.925781 
C 160.699115 128.729729 167.339778 119.603438 175.642917 112.141649 
" style="fill:#0072b2;opacity:0.6;stroke:#0072b2;stroke-linejoin:miter;stroke-width:0.3;"/>
   </g>
   <g id="patch_4">
    <path clip-path="url(#p86e65abc6c)" d="M 175.642917 230.507539 
C 185.078778 238.987272 196.40719 245.088704 208.679986 248.301156 
C 220.952781 251.513608 233.817729 251.744882 246.198058 248.975622 
C 258.578387 246.206362 270.118781 240.516045 279.853329 232.38094 
C 289.587877 224.245836 297.237197 213.899422 302.161056 202.207674 
C 307.084915 190.515926 309.141997 177.814399 308.160128 165.166186 
C 307.178259 152.517974 303.18562 140.28608 296.516385 129.494294 
C 289.847151 118.702507 280.69273 109.660551 269.81933 103.125222 
C 258.94593 96.589893 246.665619 92.748755 234.006236 91.923304 
C 233.167843 91.891815 232.329387 91.862031 231.490873 91.83395 
C 230.652359 91.80587 229.813789 91.779495 228.975168 91.754824 
C 219.214991 91.736882 209.534292 93.514895 200.417485 96.999893 
C 191.300678 100.48489 182.902408 105.617757 175.642917 112.141649 
C 184.821221 119.038499 192.27055 127.976832 197.400206 138.247879 
C 202.529861 148.518927 205.200577 159.843837 205.200577 171.324594 
C 205.200577 182.805352 202.529861 194.130261 197.400206 204.401309 
C 192.27055 214.672357 184.821221 223.61069 175.642917 230.507539 
" style="fill:#d55e00;opacity:0.6;stroke:#d55e00;stroke-linejoin:miter;stroke-width:0.3;"/>
   </g>
   <g id="patch_5">
    <path clip-path="url(#p86e65abc6c)" d="M 175.642917 230.507539 
C 184.821221 223.61069 192.27055 214.672357 197.400206 204.401309 
C 202.529861 194.130261 205.200577 182.805352 205.200577 171.324594 
C 205.200577 159.843837 202.529861 148.518927 197.400206 138.247879 
C 192.27055 127.976832 184.821221 119.038499 175.642917 112.141649 
C 167.339778 119.603438 160.699115 128.729729 156.153686 138.925781 
C 151.608258 149.121834 149.258995 160.161243 149.258995 171.324594 
C 149.258995 182.487945 151.608258 193.527355 156.153686 203.723407 
C 160.699115 213.919459 167.339778 223.045751 175.642917 230.507539 
" style="fill:#95927d;opacity:0.6;stroke:#95927d;stroke-linejoin:miter;stroke-width:0.3;"/>
   </g>
   <g id="text_1">
    <text style="fill:#262626;font-family:Arial;font-size:18px;font-style:normal;font-weight:normal;text-anchor:middle;" transform="rotate(-0, 98.162173, 184.5933)" x="98.162173" y="184.5933">2745</text>
   </g>
   <g id="text_2">
    <text style="fill:#262626;font-family:Arial;font-size:18px;font-style:normal;font-weight:normal;text-anchor:middle;" transform="rotate(-0, 262.355344, 185.726722)" x="262.355344" y="185.726722">3327</text>
   </g>
   <g id="text_3">
    <text style="fill:#262626;font-family:Arial;font-size:18px;font-style:normal;font-weight:normal;text-anchor:middle;" transform="rotate(-0, 177.229786, 175.977875)" x="177.229786" y="175.977875">1003</text>
   </g>
   <g id="text_4">
    <text style="fill:#262626;font-family:Arial;font-size:21.6px;font-style:normal;font-weight:normal;text-anchor:end;" transform="rotate(-0, 94.156362, 97.295117)" x="94.156362" y="97.295117">hg19</text>
   </g>
   <g id="text_5">
    <text style="fill:#262626;font-family:Arial;font-size:21.6px;font-style:normal;font-weight:normal;text-anchor:start;" transform="rotate(-0, 268.613852, 91.754689)" x="268.613852" y="91.754689">mm10</text>
   </g>
   <g id="text_6">
    <text style="fill:#262626;font-family:Arial;font-size:18px;font-style:normal;font-weight:normal;text-anchor:start;" transform="rotate(-0, 30.318, 290.65224)" x="30.318" y="290.65224">All Possible: 2.6e+05</text>
   </g>
  </g>
 </g>
 <defs>
  <clipPath id="p86e65abc6c">
   <rect height="245.893867" width="315.12" x="22.44" y="57.053066"/>
  </clipPath>
 </defs>
</svg>
