<?xml version="1.0" encoding="utf-8" standalone="no"?>
<!DOCTYPE svg PUBLIC "-//W3C//DTD SVG 1.1//EN"
  "http://www.w3.org/Graphics/SVG/1.1/DTD/svg11.dtd">
<!-- Created with matplotlib (http://matplotlib.org/) -->
<svg height="360pt" version="1.1" viewBox="0 0 576 360" width="576pt" xmlns="http://www.w3.org/2000/svg" xmlns:xlink="http://www.w3.org/1999/xlink">
 <defs>
  <style type="text/css">
*{stroke-linecap:butt;stroke-linejoin:round;}
  </style>
 </defs>
 <g id="figure_1">
  <g id="patch_1">
   <path d="M 0 360 
L 576 360 
L 576 0 
L 0 0 
z
" style="fill:#ffffff;"/>
  </g>
  <g id="axes_1">
   <g id="patch_2">
    <path d="M 72 315 
L 518.4 315 
L 518.4 43.2 
L 72 43.2 
z
" style="fill:#ffffff;"/>
   </g>
   <g id="line2d_1">
    <path clip-path="url(#p0797a90038)" d="M 182.472727 315 
L 182.472727 43.2 
" style="fill:none;stroke:#000000;stroke-linecap:round;stroke-width:0.8;"/>
   </g>
   <g id="line2d_2">
    <path clip-path="url(#p0797a90038)" d="M 407.927273 315 
L 407.927273 43.2 
" style="fill:none;stroke:#000000;stroke-linecap:round;stroke-width:0.8;"/>
   </g>
   <g id="matplotlib.axis_1">
    <g id="xtick_1">
     <g id="line2d_3">
      <defs>
       <path d="M 0 0 
L 0 2 
" id="m63fadf5998" style="stroke:#262626;"/>
      </defs>
      <g>
       <use style="fill:#262626;stroke:#262626;" x="182.472727" xlink:href="#m63fadf5998" y="315"/>
      </g>
     </g>
     <g id="text_1">
      <text style="fill:#262626;font-family:Arial;font-size:20px;font-style:normal;font-weight:normal;text-anchor:middle;" transform="rotate(-0, 182.472727, 338.315625)" x="182.472727" y="338.315625">TSS</text>
     </g>
    </g>
    <g id="xtick_2">
     <g id="line2d_4">
      <g>
       <use style="fill:#262626;stroke:#262626;" x="407.927273" xlink:href="#m63fadf5998" y="315"/>
      </g>
     </g>
     <g id="text_2">
      <text style="fill:#262626;font-family:Arial;font-size:20px;font-style:normal;font-weight:normal;text-anchor:middle;" transform="rotate(-0, 407.927273, 338.315625)" x="407.927273" y="338.315625">TTS</text>
     </g>
    </g>
   </g>
   <g id="matplotlib.axis_2">
    <g id="ytick_1">
     <g id="line2d_5">
      <defs>
       <path d="M 0 0 
L -2 0 
" id="m043bb4c98b" style="stroke:#262626;"/>
      </defs>
      <g>
       <use style="fill:#262626;stroke:#262626;" x="72" xlink:href="#m043bb4c98b" y="291.241376"/>
      </g>
     </g>
     <g id="text_3">
      <text style="fill:#262626;font-family:Arial;font-size:20px;font-style:normal;font-weight:normal;text-anchor:end;" transform="rotate(-0, 63, 298.399188)" x="63" y="298.399188">−0.01</text>
     </g>
    </g>
    <g id="ytick_2">
     <g id="line2d_6">
      <g>
       <use style="fill:#262626;stroke:#262626;" x="72" xlink:href="#m043bb4c98b" y="204.785865"/>
      </g>
     </g>
     <g id="text_4">
      <text style="fill:#262626;font-family:Arial;font-size:20px;font-style:normal;font-weight:normal;text-anchor:end;" transform="rotate(-0, 63, 211.943678)" x="63" y="211.943678">0.00</text>
     </g>
    </g>
    <g id="ytick_3">
     <g id="line2d_7">
      <g>
       <use style="fill:#262626;stroke:#262626;" x="72" xlink:href="#m043bb4c98b" y="118.330355"/>
      </g>
     </g>
     <g id="text_5">
      <text style="fill:#262626;font-family:Arial;font-size:20px;font-style:normal;font-weight:normal;text-anchor:end;" transform="rotate(-0, 63, 125.488167)" x="63" y="125.488167">0.01</text>
     </g>
    </g>
   </g>
   <g id="PolyCollection_1">
    <defs>
     <path d="M 92.290909 -188.561188 
L 92.290909 -128.004304 
L 94.545455 -128.448837 
L 96.8 -131.134403 
L 99.054545 -131.902838 
L 101.309091 -133.658096 
L 103.563636 -136.929556 
L 105.818182 -137.854648 
L 108.072727 -136.605247 
L 110.327273 -139.13068 
L 112.581818 -138.25462 
L 114.836364 -139.824963 
L 117.090909 -138.766815 
L 119.345455 -139.178341 
L 121.6 -141.687807 
L 123.854545 -141.027208 
L 126.109091 -140.937493 
L 128.363636 -142.045663 
L 130.618182 -139.910837 
L 132.872727 -137.923898 
L 135.127273 -139.848445 
L 137.381818 -135.870361 
L 139.636364 -133.183122 
L 141.890909 -132.306076 
L 144.145455 -132.338465 
L 146.4 -128.228114 
L 148.654545 -127.249156 
L 150.909091 -133.829968 
L 153.163636 -138.277868 
L 155.418182 -144.328157 
L 157.672727 -148.387883 
L 159.927273 -143.099385 
L 162.181818 -142.434422 
L 164.436364 -143.967435 
L 166.690909 -141.214605 
L 168.945455 -142.750642 
L 171.2 -143.540671 
L 173.454545 -142.408521 
L 175.709091 -143.414926 
L 177.963636 -145.111478 
L 180.218182 -143.486936 
L 182.472727 -144.351594 
L 184.727273 -146.669021 
L 186.981818 -147.302648 
L 189.236364 -144.295488 
L 191.490909 -145.863311 
L 193.745455 -144.107765 
L 196 -135.336149 
L 198.254545 -129.05852 
L 200.509091 -119.491743 
L 202.763636 -111.897795 
L 205.018182 -115.320803 
L 207.272727 -119.005564 
L 209.527273 -117.10817 
L 211.781818 -113.932481 
L 214.036364 -108.283948 
L 216.290909 -105.61102 
L 218.545455 -103.438382 
L 220.8 -102.213399 
L 223.054545 -102.146205 
L 225.309091 -100.330618 
L 227.563636 -102.3391 
L 229.818182 -102.883967 
L 232.072727 -100.216107 
L 234.327273 -102.310365 
L 236.581818 -102.622089 
L 238.836364 -101.491961 
L 241.090909 -101.503795 
L 243.345455 -102.290249 
L 245.6 -105.27053 
L 247.854545 -106.782769 
L 250.109091 -103.979717 
L 252.363636 -101.926508 
L 254.618182 -101.99634 
L 256.872727 -102.507289 
L 259.127273 -103.890516 
L 261.381818 -104.555258 
L 263.636364 -105.011195 
L 265.890909 -103.131429 
L 268.145455 -100.93246 
L 270.4 -103.34201 
L 272.654545 -103.385509 
L 274.909091 -101.5277 
L 277.163636 -102.806284 
L 279.418182 -101.539837 
L 281.672727 -101.060025 
L 283.927273 -99.73939 
L 286.181818 -98.059683 
L 288.436364 -96.627029 
L 290.690909 -97.126803 
L 292.945455 -99.652606 
L 295.2 -99.527349 
L 297.454545 -95.570514 
L 299.709091 -93.566967 
L 301.963636 -95.271683 
L 304.218182 -96.347199 
L 306.472727 -96.136203 
L 308.727273 -96.855561 
L 310.981818 -103.505042 
L 313.236364 -104.476054 
L 315.490909 -104.023951 
L 317.745455 -101.508364 
L 320 -101.554953 
L 322.254545 -103.313559 
L 324.509091 -108.306575 
L 326.763636 -108.907126 
L 329.018182 -111.267438 
L 331.272727 -112.746792 
L 333.527273 -114.231932 
L 335.781818 -115.503661 
L 338.036364 -114.645463 
L 340.290909 -117.520732 
L 342.545455 -122.937542 
L 344.8 -126.794089 
L 347.054545 -132.224097 
L 349.309091 -135.376884 
L 351.563636 -138.83132 
L 353.818182 -143.198993 
L 356.072727 -144.107135 
L 358.327273 -146.687211 
L 360.581818 -145.804686 
L 362.836364 -149.817553 
L 365.090909 -155.249159 
L 367.345455 -155.406727 
L 369.6 -154.71097 
L 371.854545 -159.594817 
L 374.109091 -163.510307 
L 376.363636 -168.824259 
L 378.618182 -173.970014 
L 380.872727 -178.113634 
L 383.127273 -182.583416 
L 385.381818 -187.542451 
L 387.636364 -190.453695 
L 389.890909 -194.545743 
L 392.145455 -197.701012 
L 394.4 -199.835484 
L 396.654545 -200.888557 
L 398.909091 -202.024232 
L 401.163636 -201.730346 
L 403.418182 -200.100734 
L 405.672727 -202.162568 
L 407.927273 -200.39171 
L 410.181818 -198.310436 
L 412.436364 -199.787367 
L 414.690909 -197.152834 
L 416.945455 -194.210474 
L 419.2 -191.341172 
L 421.454545 -189.384767 
L 423.709091 -187.509696 
L 425.963636 -185.217046 
L 428.218182 -182.985584 
L 430.472727 -176.665953 
L 432.727273 -173.818936 
L 434.981818 -168.789478 
L 437.236364 -165.29423 
L 439.490909 -163.221854 
L 441.745455 -158.57943 
L 444 -156.364813 
L 446.254545 -152.444254 
L 448.509091 -149.728482 
L 450.763636 -150.215737 
L 453.018182 -150.229822 
L 455.272727 -149.681211 
L 457.527273 -146.589613 
L 459.781818 -145.945539 
L 462.036364 -142.857478 
L 464.290909 -141.453757 
L 466.545455 -139.558355 
L 468.8 -139.577683 
L 471.054545 -136.994842 
L 473.309091 -136.549085 
L 475.563636 -135.7418 
L 477.818182 -133.688174 
L 480.072727 -132.175861 
L 482.327273 -127.168563 
L 484.581818 -124.497877 
L 486.836364 -123.246358 
L 489.090909 -122.163796 
L 491.345455 -120.549563 
L 493.6 -122.096786 
L 495.854545 -121.065006 
L 498.109091 -120.08263 
L 498.109091 -178.978329 
L 498.109091 -178.978329 
L 495.854545 -180.097173 
L 493.6 -181.35814 
L 491.345455 -179.91908 
L 489.090909 -181.604549 
L 486.836364 -182.631234 
L 484.581818 -184.022043 
L 482.327273 -186.737401 
L 480.072727 -191.642271 
L 477.818182 -193.281841 
L 475.563636 -195.395843 
L 473.309091 -196.427428 
L 471.054545 -196.937815 
L 468.8 -199.388057 
L 466.545455 -199.474789 
L 464.290909 -201.271789 
L 462.036364 -202.724948 
L 459.781818 -205.802448 
L 457.527273 -206.474365 
L 455.272727 -209.577107 
L 453.018182 -210.055502 
L 450.763636 -209.95457 
L 448.509091 -209.537727 
L 446.254545 -212.062816 
L 444 -215.891796 
L 441.745455 -218.373362 
L 439.490909 -223.026788 
L 437.236364 -225.482847 
L 434.981818 -229.267212 
L 432.727273 -234.575893 
L 430.472727 -237.440108 
L 428.218182 -243.403729 
L 425.963636 -245.553332 
L 423.709091 -247.852688 
L 421.454545 -249.717475 
L 419.2 -251.992787 
L 416.945455 -254.882618 
L 414.690909 -257.946437 
L 412.436364 -260.58466 
L 410.181818 -259.307854 
L 407.927273 -261.571421 
L 405.672727 -263.684024 
L 403.418182 -261.74482 
L 401.163636 -263.691215 
L 398.909091 -264.293738 
L 396.654545 -262.961053 
L 394.4 -261.918462 
L 392.145455 -259.707738 
L 389.890909 -256.530237 
L 387.636364 -252.55982 
L 385.381818 -249.953234 
L 383.127273 -245.516929 
L 380.872727 -241.705835 
L 378.618182 -237.852973 
L 376.363636 -232.976537 
L 374.109091 -227.402493 
L 371.854545 -223.643553 
L 369.6 -219.146627 
L 367.345455 -220.252979 
L 365.090909 -220.332506 
L 362.836364 -215.16413 
L 360.581818 -211.407007 
L 358.327273 -212.362462 
L 356.072727 -209.461158 
L 353.818182 -208.429992 
L 351.563636 -204.248139 
L 349.309091 -200.675174 
L 347.054545 -197.593696 
L 344.8 -192.251262 
L 342.545455 -188.799036 
L 340.290909 -183.419272 
L 338.036364 -180.433746 
L 335.781818 -181.031427 
L 333.527273 -179.368569 
L 331.272727 -177.773797 
L 329.018182 -176.506172 
L 326.763636 -174.104387 
L 324.509091 -173.040767 
L 322.254545 -167.602614 
L 320 -165.86765 
L 317.745455 -165.555356 
L 315.490909 -167.55523 
L 313.236364 -167.972248 
L 310.981818 -167.23212 
L 308.727273 -160.785912 
L 306.472727 -160.18971 
L 304.218182 -160.648428 
L 301.963636 -159.508244 
L 299.709091 -157.549134 
L 297.454545 -158.970709 
L 295.2 -163.035595 
L 292.945455 -163.32989 
L 290.690909 -160.445444 
L 288.436364 -160.253887 
L 286.181818 -161.790431 
L 283.927273 -163.314062 
L 281.672727 -164.321602 
L 279.418182 -164.557701 
L 277.163636 -165.651428 
L 274.909091 -164.210602 
L 272.654545 -166.225481 
L 270.4 -166.55583 
L 268.145455 -164.237863 
L 265.890909 -166.31297 
L 263.636364 -167.98165 
L 261.381818 -167.723747 
L 259.127273 -167.07589 
L 256.872727 -165.807278 
L 254.618182 -165.627898 
L 252.363636 -165.585864 
L 250.109091 -167.395954 
L 247.854545 -169.655735 
L 245.6 -168.292105 
L 243.345455 -165.212776 
L 241.090909 -164.723269 
L 238.836364 -164.939274 
L 236.581818 -166.419375 
L 234.327273 -166.827761 
L 232.072727 -165.245573 
L 229.818182 -167.874852 
L 227.563636 -167.396926 
L 225.309091 -165.327426 
L 223.054545 -167.230328 
L 220.8 -167.561708 
L 218.545455 -169.057719 
L 216.290909 -171.196731 
L 214.036364 -173.876187 
L 211.781818 -179.419262 
L 209.527273 -183.124603 
L 207.272727 -185.341344 
L 205.018182 -182.10057 
L 202.763636 -179.118285 
L 200.509091 -186.550141 
L 198.254545 -195.938192 
L 196 -201.556416 
L 193.745455 -210.020888 
L 191.490909 -211.782535 
L 189.236364 -210.15779 
L 186.981818 -212.901975 
L 184.727273 -211.879372 
L 182.472727 -209.313045 
L 180.218182 -208.364848 
L 177.963636 -209.492051 
L 175.709091 -207.259828 
L 173.454545 -205.881391 
L 171.2 -206.620012 
L 168.945455 -205.543952 
L 166.690909 -203.72962 
L 164.436364 -205.573038 
L 162.181818 -203.755401 
L 159.927273 -204.039275 
L 157.672727 -208.736507 
L 155.418182 -204.738602 
L 153.163636 -198.530923 
L 150.909091 -194.27731 
L 148.654545 -187.541569 
L 146.4 -188.564579 
L 144.145455 -192.07463 
L 141.890909 -191.921415 
L 139.636364 -193.439655 
L 137.381818 -195.960173 
L 135.127273 -199.876409 
L 132.872727 -197.892809 
L 130.618182 -199.988418 
L 128.363636 -201.970306 
L 126.109091 -201.486731 
L 123.854545 -201.515932 
L 121.6 -202.183746 
L 119.345455 -199.85157 
L 117.090909 -199.152951 
L 114.836364 -199.971568 
L 112.581818 -198.835687 
L 110.327273 -199.617012 
L 108.072727 -197.377104 
L 105.818182 -198.525339 
L 103.563636 -197.916235 
L 101.309091 -194.045596 
L 99.054545 -192.488485 
L 96.8 -191.817403 
L 94.545455 -188.902964 
L 92.290909 -188.561188 
z
" id="m7cfbd56959" style="stroke:#0072b2;stroke-opacity:0.5;stroke-width:0.3;"/>
    </defs>
    <g clip-path="url(#p0797a90038)">
     <use style="fill:#0072b2;fill-opacity:0.5;stroke:#0072b2;stroke-opacity:0.5;stroke-width:0.3;" x="0" xlink:href="#m7cfbd56959" y="360"/>
    </g>
   </g>
   <g id="PolyCollection_2">
    <defs>
     <path d="M 92.290909 -156.915252 
L 92.290909 -131.626849 
L 94.545455 -130.751863 
L 96.8 -128.869341 
L 99.054545 -128.663609 
L 101.309091 -127.502704 
L 103.563636 -126.676691 
L 105.818182 -125.85949 
L 108.072727 -125.322661 
L 110.327273 -126.277724 
L 112.581818 -125.340276 
L 114.836364 -126.030833 
L 117.090909 -127.58741 
L 119.345455 -127.141819 
L 121.6 -127.307159 
L 123.854545 -126.526838 
L 126.109091 -126.914186 
L 128.363636 -128.374129 
L 130.618182 -127.720171 
L 132.872727 -126.436321 
L 135.127273 -126.785706 
L 137.381818 -127.669625 
L 139.636364 -128.475579 
L 141.890909 -129.73554 
L 144.145455 -129.982639 
L 146.4 -131.059162 
L 148.654545 -132.3121 
L 150.909091 -133.714649 
L 153.163636 -134.090283 
L 155.418182 -133.502413 
L 157.672727 -132.331985 
L 159.927273 -128.98203 
L 162.181818 -125.133674 
L 164.436364 -121.665789 
L 166.690909 -117.644877 
L 168.945455 -113.735497 
L 171.2 -110.533637 
L 173.454545 -106.665072 
L 175.709091 -103.308244 
L 177.963636 -101.398969 
L 180.218182 -97.715411 
L 182.472727 -92.98823 
L 184.727273 -87.516021 
L 186.981818 -82.299481 
L 189.236364 -77.261325 
L 191.490909 -72.799496 
L 193.745455 -68.76547 
L 196 -64.475328 
L 198.254545 -61.645538 
L 200.509091 -59.028115 
L 202.763636 -57.354545 
L 205.018182 -58.089817 
L 207.272727 -58.333165 
L 209.527273 -59.062285 
L 211.781818 -60.247109 
L 214.036364 -61.362204 
L 216.290909 -62.584469 
L 218.545455 -64.111581 
L 220.8 -64.13911 
L 223.054545 -64.692164 
L 225.309091 -65.315528 
L 227.563636 -65.194312 
L 229.818182 -66.718524 
L 232.072727 -69.307758 
L 234.327273 -72.004511 
L 236.581818 -73.838957 
L 238.836364 -75.827328 
L 241.090909 -78.80542 
L 243.345455 -81.601759 
L 245.6 -84.573426 
L 247.854545 -86.364892 
L 250.109091 -88.715004 
L 252.363636 -90.279195 
L 254.618182 -92.522957 
L 256.872727 -95.463836 
L 259.127273 -96.960632 
L 261.381818 -97.86884 
L 263.636364 -99.729459 
L 265.890909 -102.599271 
L 268.145455 -105.776249 
L 270.4 -108.373386 
L 272.654545 -111.457976 
L 274.909091 -114.287859 
L 277.163636 -115.74347 
L 279.418182 -117.273226 
L 281.672727 -119.296051 
L 283.927273 -120.164246 
L 286.181818 -121.121905 
L 288.436364 -122.220981 
L 290.690909 -123.262752 
L 292.945455 -124.849264 
L 295.2 -125.346991 
L 297.454545 -126.072823 
L 299.709091 -126.60323 
L 301.963636 -125.866792 
L 304.218182 -126.624924 
L 306.472727 -128.048238 
L 308.727273 -128.101379 
L 310.981818 -127.572322 
L 313.236364 -127.614187 
L 315.490909 -128.199081 
L 317.745455 -129.391005 
L 320 -131.738751 
L 322.254545 -134.310482 
L 324.509091 -135.508561 
L 326.763636 -137.091878 
L 329.018182 -139.116954 
L 331.272727 -140.692536 
L 333.527273 -142.58423 
L 335.781818 -143.947741 
L 338.036364 -146.200604 
L 340.290909 -147.730316 
L 342.545455 -150.875403 
L 344.8 -152.943192 
L 347.054545 -156.151228 
L 349.309091 -160.280237 
L 351.563636 -164.499966 
L 353.818182 -169.356263 
L 356.072727 -174.102657 
L 358.327273 -177.518675 
L 360.581818 -182.17763 
L 362.836364 -187.54589 
L 365.090909 -190.82372 
L 367.345455 -194.498566 
L 369.6 -200.151857 
L 371.854545 -205.768129 
L 374.109091 -211.40441 
L 376.363636 -218.740525 
L 378.618182 -225.508418 
L 380.872727 -231.70001 
L 383.127273 -238.45423 
L 385.381818 -246.511146 
L 387.636364 -252.559673 
L 389.890909 -258.119599 
L 392.145455 -263.60124 
L 394.4 -267.817744 
L 396.654545 -271.223711 
L 398.909091 -273.066853 
L 401.163636 -275.390893 
L 403.418182 -277.465376 
L 405.672727 -277.565365 
L 407.927273 -274.590538 
L 410.181818 -273.493861 
L 412.436364 -269.962575 
L 414.690909 -264.964521 
L 416.945455 -260.456456 
L 419.2 -255.667393 
L 421.454545 -247.696909 
L 423.709091 -240.107691 
L 425.963636 -233.352195 
L 428.218182 -225.175553 
L 430.472727 -216.283209 
L 432.727273 -208.844688 
L 434.981818 -202.568703 
L 437.236364 -195.756488 
L 439.490909 -189.406375 
L 441.745455 -183.063577 
L 444 -177.815874 
L 446.254545 -172.3566 
L 448.509091 -168.20984 
L 450.763636 -163.36682 
L 453.018182 -160.226469 
L 455.272727 -156.455319 
L 457.527273 -153.97719 
L 459.781818 -153.236832 
L 462.036364 -151.397902 
L 464.290909 -149.90192 
L 466.545455 -149.795932 
L 468.8 -150.105535 
L 471.054545 -150.623977 
L 473.309091 -151.047003 
L 475.563636 -149.860501 
L 477.818182 -149.142108 
L 480.072727 -148.46914 
L 482.327273 -147.930115 
L 484.581818 -146.904713 
L 486.836364 -145.19998 
L 489.090909 -144.452734 
L 491.345455 -143.46581 
L 493.6 -141.605939 
L 495.854545 -142.415147 
L 498.109091 -144.054249 
L 498.109091 -169.603939 
L 498.109091 -169.603939 
L 495.854545 -168.067515 
L 493.6 -167.3277 
L 491.345455 -169.163702 
L 489.090909 -170.141736 
L 486.836364 -170.910242 
L 484.581818 -172.572025 
L 482.327273 -173.633423 
L 480.072727 -174.023221 
L 477.818182 -174.680434 
L 475.563636 -175.475655 
L 473.309091 -176.650398 
L 471.054545 -176.344576 
L 468.8 -175.826498 
L 466.545455 -175.562631 
L 464.290909 -175.595934 
L 462.036364 -177.010712 
L 459.781818 -178.846188 
L 457.527273 -179.508056 
L 455.272727 -182.009171 
L 453.018182 -185.868245 
L 450.763636 -188.959429 
L 448.509091 -193.81254 
L 446.254545 -197.971825 
L 444 -203.421824 
L 441.745455 -208.673165 
L 439.490909 -215.152246 
L 437.236364 -221.51897 
L 434.981818 -228.450497 
L 432.727273 -234.88688 
L 430.472727 -242.423287 
L 428.218182 -251.461892 
L 425.963636 -259.582765 
L 423.709091 -266.409638 
L 421.454545 -274.004846 
L 419.2 -282.1058 
L 416.945455 -287.056813 
L 414.690909 -291.715786 
L 412.436364 -296.80674 
L 410.181818 -300.358253 
L 407.927273 -301.459758 
L 405.672727 -304.445455 
L 403.418182 -304.403042 
L 401.163636 -302.361635 
L 398.909091 -300.011055 
L 396.654545 -298.156872 
L 394.4 -294.681422 
L 392.145455 -290.476088 
L 389.890909 -285.006182 
L 387.636364 -279.307702 
L 385.381818 -273.186888 
L 383.127273 -265.01499 
L 380.872727 -258.19809 
L 378.618182 -251.947186 
L 376.363636 -245.108767 
L 374.109091 -237.749699 
L 371.854545 -231.988365 
L 369.6 -226.181253 
L 367.345455 -220.473736 
L 365.090909 -216.804809 
L 362.836364 -213.497968 
L 360.581818 -208.074289 
L 358.327273 -203.201049 
L 356.072727 -199.743023 
L 353.818182 -194.985241 
L 351.563636 -190.097936 
L 349.309091 -185.837188 
L 347.054545 -181.749888 
L 344.8 -178.496563 
L 342.545455 -176.45975 
L 340.290909 -173.282274 
L 338.036364 -171.734727 
L 335.781818 -169.509641 
L 333.527273 -168.151257 
L 331.272727 -166.205403 
L 329.018182 -164.554732 
L 326.763636 -162.530544 
L 324.509091 -161.072186 
L 322.254545 -159.912236 
L 320 -157.278633 
L 317.745455 -154.815694 
L 315.490909 -153.665473 
L 313.236364 -153.165419 
L 310.981818 -153.152657 
L 308.727273 -153.621658 
L 306.472727 -153.557687 
L 304.218182 -152.095055 
L 301.963636 -151.274769 
L 299.709091 -151.921672 
L 297.454545 -151.267859 
L 295.2 -150.50032 
L 292.945455 -149.935555 
L 290.690909 -148.34648 
L 288.436364 -147.325631 
L 286.181818 -146.237199 
L 283.927273 -145.40473 
L 281.672727 -144.538521 
L 279.418182 -142.465445 
L 277.163636 -140.885733 
L 274.909091 -139.375818 
L 272.654545 -136.614943 
L 270.4 -133.506924 
L 268.145455 -130.971392 
L 265.890909 -127.803817 
L 263.636364 -124.997253 
L 261.381818 -123.156596 
L 259.127273 -122.287129 
L 256.872727 -120.693958 
L 254.618182 -117.801992 
L 252.363636 -115.631021 
L 250.109091 -114.002376 
L 247.854545 -111.703283 
L 245.6 -109.873778 
L 243.345455 -106.855665 
L 241.090909 -104.049965 
L 238.836364 -100.969401 
L 236.581818 -98.949244 
L 234.327273 -97.097993 
L 232.072727 -94.408716 
L 229.818182 -91.866752 
L 227.563636 -90.40509 
L 225.309091 -90.524531 
L 223.054545 -89.883534 
L 220.8 -89.427857 
L 218.545455 -89.458723 
L 216.290909 -88.003933 
L 214.036364 -86.854652 
L 211.781818 -85.946665 
L 209.527273 -84.868089 
L 207.272727 -84.230295 
L 205.018182 -84.188295 
L 202.763636 -83.595532 
L 200.509091 -85.409386 
L 198.254545 -88.106944 
L 196 -91.055308 
L 193.745455 -95.286417 
L 191.490909 -99.345801 
L 189.236364 -103.743458 
L 186.981818 -108.732914 
L 184.727273 -113.98517 
L 182.472727 -119.37359 
L 180.218182 -124.067328 
L 177.963636 -127.698469 
L 175.709091 -129.466735 
L 173.454545 -132.74531 
L 171.2 -136.458361 
L 168.945455 -139.527152 
L 166.690909 -143.286174 
L 164.436364 -147.198112 
L 162.181818 -150.533663 
L 159.927273 -154.279638 
L 157.672727 -157.498493 
L 155.418182 -158.546347 
L 153.163636 -159.081854 
L 150.909091 -158.576169 
L 148.654545 -157.222882 
L 146.4 -155.891946 
L 144.145455 -154.826813 
L 141.890909 -154.677807 
L 139.636364 -153.380545 
L 137.381818 -152.681146 
L 135.127273 -151.773734 
L 132.872727 -151.475156 
L 130.618182 -152.86818 
L 128.363636 -153.552796 
L 126.109091 -152.201885 
L 123.854545 -151.815081 
L 121.6 -152.534774 
L 119.345455 -152.339879 
L 117.090909 -152.787538 
L 114.836364 -151.258849 
L 112.581818 -150.545941 
L 110.327273 -151.475717 
L 108.072727 -150.525457 
L 105.818182 -151.072317 
L 103.563636 -151.863895 
L 101.309091 -152.835737 
L 99.054545 -153.983265 
L 96.8 -154.153613 
L 94.545455 -156.037677 
L 92.290909 -156.915252 
z
" id="m5e2d3c5e1f" style="stroke:#d55e00;stroke-opacity:0.5;stroke-width:0.3;"/>
    </defs>
    <g clip-path="url(#p0797a90038)">
     <use style="fill:#d55e00;fill-opacity:0.5;stroke:#d55e00;stroke-opacity:0.5;stroke-width:0.3;" x="0" xlink:href="#m5e2d3c5e1f" y="360"/>
    </g>
   </g>
   <g id="line2d_8">
    <path clip-path="url(#p0797a90038)" d="M 92.290909 201.631669 
L 94.545455 201.201567 
L 96.8 198.430969 
L 99.054545 197.734216 
L 101.309091 196.080586 
L 103.563636 192.517058 
L 105.818182 191.743981 
L 108.072727 193.025487 
L 110.327273 190.715412 
L 112.581818 191.559778 
L 114.836364 190.217375 
L 117.090909 191.168101 
L 119.345455 190.61767 
L 121.6 188.120053 
L 123.854545 188.784235 
L 126.109091 188.803663 
L 128.363636 188.027728 
L 132.872727 192.066716 
L 135.127273 190.167602 
L 137.381818 194.097409 
L 139.636364 196.715302 
L 141.890909 197.928139 
L 144.145455 197.819426 
L 146.4 201.594951 
L 148.654545 202.591643 
L 150.909091 195.902307 
L 153.163636 191.539085 
L 155.418182 185.386679 
L 157.672727 181.402002 
L 159.927273 186.428809 
L 162.181818 186.843239 
L 164.436364 185.202387 
L 166.690909 187.5677 
L 168.945455 185.841149 
L 171.2 184.909498 
L 173.454545 185.814652 
L 175.709091 184.715008 
L 177.963636 182.760407 
L 180.218182 184.074158 
L 182.472727 183.172383 
L 184.727273 180.681139 
L 186.981818 179.873052 
L 189.236364 182.73834 
L 191.490909 181.242552 
L 193.745455 183.003756 
L 196 191.681983 
L 198.254545 197.614263 
L 200.509091 207.160921 
L 202.763636 214.673964 
L 205.018182 211.460259 
L 207.272727 208.01293 
L 209.527273 210.031631 
L 211.781818 213.474926 
L 214.036364 219.15356 
L 216.290909 221.899975 
L 218.545455 224.086249 
L 220.8 225.34339 
L 223.054545 225.549564 
L 225.309091 227.419565 
L 227.563636 225.360053 
L 229.818182 224.909834 
L 232.072727 227.544591 
L 234.327273 225.689838 
L 236.581818 225.649092 
L 238.836364 226.980302 
L 241.090909 227.009367 
L 243.345455 226.394592 
L 245.6 223.28487 
L 247.854545 221.800465 
L 250.109091 224.376208 
L 252.363636 226.313315 
L 254.618182 226.255844 
L 256.872727 225.891086 
L 259.127273 224.475495 
L 261.381818 223.784303 
L 263.636364 223.425663 
L 265.890909 225.203283 
L 268.145455 227.313181 
L 270.4 224.969179 
L 272.654545 225.104541 
L 274.909091 227.01829 
L 277.163636 225.631744 
L 279.418182 226.786951 
L 281.672727 227.175926 
L 283.927273 228.306839 
L 288.436364 231.477741 
L 290.690909 231.110604 
L 292.945455 228.444164 
L 295.2 228.600375 
L 297.454545 232.609747 
L 299.709091 234.272425 
L 301.963636 232.420451 
L 304.218182 231.342438 
L 306.472727 231.690178 
L 308.727273 230.980696 
L 310.981818 224.50348 
L 313.236364 223.646812 
L 315.490909 224.086205 
L 317.745455 226.366676 
L 320 226.202482 
L 322.254545 224.441825 
L 324.509091 219.248209 
L 326.763636 218.424289 
L 329.018182 216.129245 
L 331.272727 214.713271 
L 333.527273 213.06022 
L 335.781818 211.595586 
L 338.036364 212.299575 
L 340.290909 209.429773 
L 342.545455 204.054319 
L 344.8 200.451152 
L 347.054545 195.05966 
L 349.309091 192.01251 
L 351.563636 188.538503 
L 353.818182 184.292911 
L 356.072727 183.264176 
L 358.327273 180.576217 
L 360.581818 181.501413 
L 362.836364 177.589111 
L 365.090909 172.335336 
L 367.345455 172.326365 
L 369.6 173.279256 
L 371.854545 168.636983 
L 374.109091 164.749216 
L 376.363636 159.368063 
L 378.618182 154.379589 
L 383.127273 146.287926 
L 385.381818 141.538377 
L 387.636364 138.731313 
L 389.890909 134.720912 
L 392.145455 131.589009 
L 394.4 129.36604 
L 398.909091 127.067089 
L 401.163636 127.514598 
L 403.418182 129.300111 
L 405.672727 127.259941 
L 407.927273 129.191372 
L 410.181818 131.282166 
L 412.436364 129.928419 
L 414.690909 132.51684 
L 419.2 138.375611 
L 421.454545 140.505791 
L 423.709091 142.4139 
L 428.218182 146.85959 
L 430.472727 152.94333 
L 432.727273 155.832652 
L 434.981818 160.968881 
L 437.236364 164.590582 
L 439.490909 166.810469 
L 441.745455 171.427854 
L 444 173.801345 
L 446.254545 177.681949 
L 448.509091 180.233309 
L 450.763636 179.836754 
L 453.018182 179.772807 
L 455.272727 180.284957 
L 457.527273 183.337267 
L 459.781818 183.977345 
L 462.036364 187.077593 
L 464.290909 188.419783 
L 466.545455 190.313923 
L 468.8 190.354571 
L 471.054545 192.846993 
L 473.309091 193.356983 
L 475.563636 194.309023 
L 477.818182 196.386723 
L 480.072727 197.938119 
L 482.327273 202.8725 
L 484.581818 205.620802 
L 486.836364 206.964791 
L 489.090909 208.004952 
L 491.345455 209.699553 
L 493.6 208.275552 
L 498.109091 210.478986 
L 498.109091 210.478986 
" style="fill:none;stroke:#0072b2;stroke-linecap:round;stroke-width:1.75;"/>
   </g>
   <g id="line2d_9">
    <path clip-path="url(#p0797a90038)" d="M 92.290909 215.813585 
L 94.545455 216.697109 
L 96.8 218.596855 
L 99.054545 218.769977 
L 101.309091 219.922122 
L 105.818182 221.618124 
L 108.072727 222.121249 
L 110.327273 221.157507 
L 112.581818 222.074485 
L 114.836364 221.362155 
L 117.090909 219.81181 
L 119.345455 220.265648 
L 121.6 220.085971 
L 123.854545 220.809703 
L 126.109091 220.411739 
L 128.363636 218.987335 
L 130.618182 219.636236 
L 132.872727 221.006531 
L 135.127273 220.673719 
L 137.381818 219.789217 
L 139.636364 219.040941 
L 141.890909 217.715352 
L 144.145455 217.543265 
L 146.4 216.49746 
L 150.909091 213.82381 
L 153.163636 213.433457 
L 155.418182 213.989169 
L 157.672727 215.105939 
L 159.927273 218.376431 
L 162.181818 222.181126 
L 164.436364 225.567872 
L 168.945455 233.364066 
L 171.2 236.488272 
L 173.454545 240.290453 
L 175.709091 243.598906 
L 177.963636 245.418986 
L 180.218182 249.096218 
L 182.472727 253.801649 
L 186.981818 264.479599 
L 189.236364 269.496557 
L 191.490909 273.941695 
L 196 282.26075 
L 198.254545 285.163653 
L 200.509091 287.833889 
L 202.763636 289.570366 
L 205.018182 288.93179 
L 207.272727 288.825257 
L 209.527273 288.13504 
L 216.290909 284.835934 
L 218.545455 283.326349 
L 220.8 283.33407 
L 223.054545 282.837377 
L 225.309091 282.210384 
L 227.563636 282.34221 
L 229.818182 280.842744 
L 234.327273 275.58136 
L 238.836364 271.681746 
L 241.090909 268.649324 
L 243.345455 265.816852 
L 245.6 262.787268 
L 247.854545 260.959553 
L 250.109091 258.627195 
L 252.363636 257.018897 
L 254.618182 254.818767 
L 256.872727 251.896165 
L 259.127273 250.343973 
L 261.381818 249.451935 
L 263.636364 247.62843 
L 265.890909 244.785941 
L 268.145455 241.638834 
L 270.4 239.054132 
L 272.654545 235.944884 
L 274.909091 233.139117 
L 279.418182 230.094129 
L 281.672727 228.059677 
L 286.181818 226.268424 
L 290.690909 224.190654 
L 292.945455 222.601733 
L 295.2 222.059022 
L 297.454545 221.288118 
L 299.709091 220.699578 
L 301.963636 221.400765 
L 304.218182 220.627251 
L 306.472727 219.181872 
L 308.727273 219.120679 
L 310.981818 219.611043 
L 313.236364 219.568683 
L 315.490909 219.015806 
L 317.745455 217.846639 
L 320 215.467227 
L 322.254545 212.846744 
L 324.509091 211.679383 
L 326.763636 210.133396 
L 329.018182 208.12074 
L 331.272727 206.504281 
L 333.527273 204.58916 
L 335.781818 203.210841 
L 338.036364 200.970597 
L 340.290909 199.441967 
L 342.545455 196.298726 
L 344.8 194.240646 
L 347.054545 191.002949 
L 351.563636 182.634119 
L 356.072727 172.98863 
L 358.327273 169.525115 
L 360.581818 164.766209 
L 362.836364 159.35802 
L 365.090909 156.014197 
L 367.345455 152.359676 
L 374.109091 135.269913 
L 376.363636 127.935836 
L 378.618182 121.135048 
L 380.872727 114.905479 
L 383.127273 108.152696 
L 385.381818 100.043496 
L 387.636364 93.950533 
L 392.145455 82.888766 
L 394.4 78.686543 
L 396.654545 75.278242 
L 398.909091 73.437345 
L 401.163636 71.117545 
L 403.418182 69.060962 
L 405.672727 68.979334 
L 407.927273 71.98321 
L 410.181818 73.125359 
L 412.436364 76.665356 
L 414.690909 81.679417 
L 416.945455 86.267343 
L 419.2 91.148198 
L 421.454545 99.156971 
L 423.709091 106.730438 
L 425.963636 113.514046 
L 428.218182 121.64052 
L 430.472727 130.593459 
L 432.727273 138.078605 
L 434.981818 144.416788 
L 437.236364 151.292545 
L 441.745455 164.020947 
L 446.254545 174.699037 
L 448.509091 178.859926 
L 450.763636 183.735943 
L 453.018182 186.82326 
L 455.272727 190.626985 
L 457.527273 193.107793 
L 459.781818 193.843221 
L 462.036364 195.695558 
L 464.290909 197.139214 
L 466.545455 197.234669 
L 468.8 196.96901 
L 471.054545 196.46099 
L 473.309091 196.087381 
L 475.563636 197.291184 
L 480.072727 198.75318 
L 482.327273 199.212779 
L 484.581818 200.257333 
L 486.836364 201.946835 
L 489.090909 202.711259 
L 491.345455 203.711796 
L 493.6 205.566439 
L 495.854545 204.806601 
L 498.109091 203.23866 
L 498.109091 203.23866 
" style="fill:none;stroke:#d55e00;stroke-linecap:round;stroke-width:1.75;"/>
   </g>
   <g id="patch_3">
    <path d="M 72 315 
L 72 43.2 
" style="fill:none;stroke:#262626;stroke-linecap:square;stroke-linejoin:miter;stroke-width:1.25;"/>
   </g>
   <g id="patch_4">
    <path d="M 518.4 315 
L 518.4 43.2 
" style="fill:none;stroke:#262626;stroke-linecap:square;stroke-linejoin:miter;stroke-width:1.25;"/>
   </g>
   <g id="patch_5">
    <path d="M 72 315 
L 518.4 315 
" style="fill:none;stroke:#262626;stroke-linecap:square;stroke-linejoin:miter;stroke-width:1.25;"/>
   </g>
   <g id="patch_6">
    <path d="M 72 43.2 
L 518.4 43.2 
" style="fill:none;stroke:#262626;stroke-linecap:square;stroke-linejoin:miter;stroke-width:1.25;"/>
   </g>
   <g id="legend_1">
    <g id="line2d_10">
     <path d="M 205.495312 68.759375 
L 245.495312 68.759375 
" style="fill:none;stroke:#0072b2;stroke-linecap:round;stroke-width:1.75;"/>
    </g>
    <g id="line2d_11"/>
    <g id="text_6">
     <text style="fill:#262626;font-family:Arial;font-size:20px;font-style:normal;font-weight:normal;text-anchor:start;" transform="rotate(-0, 261.495312, 75.759375)" x="261.495312" y="75.759375">G4 containing</text>
    </g>
    <g id="line2d_12">
     <path d="M 205.495312 97.284375 
L 245.495312 97.284375 
" style="fill:none;stroke:#d55e00;stroke-linecap:round;stroke-width:1.75;"/>
    </g>
    <g id="line2d_13"/>
    <g id="text_7">
     <text style="fill:#262626;font-family:Arial;font-size:20px;font-style:normal;font-weight:normal;text-anchor:start;" transform="rotate(-0, 261.495312, 104.284375)" x="261.495312" y="104.284375">non-G4</text>
    </g>
   </g>
  </g>
 </g>
 <defs>
  <clipPath id="p0797a90038">
   <rect height="271.8" width="446.4" x="72" y="43.2"/>
  </clipPath>
 </defs>
</svg>
