<?xml version="1.0" encoding="utf-8" standalone="no"?>
<!DOCTYPE svg PUBLIC "-//W3C//DTD SVG 1.1//EN"
  "http://www.w3.org/Graphics/SVG/1.1/DTD/svg11.dtd">
<!-- Created with matplotlib (http://matplotlib.org/) -->
<svg height="360pt" version="1.1" viewBox="0 0 576 360" width="576pt" xmlns="http://www.w3.org/2000/svg" xmlns:xlink="http://www.w3.org/1999/xlink">
 <defs>
  <style type="text/css">
*{stroke-linecap:butt;stroke-linejoin:round;}
  </style>
 </defs>
 <g id="figure_1">
  <g id="patch_1">
   <path d="M 0 360 
L 576 360 
L 576 0 
L 0 0 
z
" style="fill:#ffffff;"/>
  </g>
  <g id="axes_1">
   <g id="patch_2">
    <path d="M 72 315 
L 518.4 315 
L 518.4 43.2 
L 72 43.2 
z
" style="fill:#ffffff;"/>
   </g>
   <g id="line2d_1">
    <path clip-path="url(#p0f7eb68201)" d="M 182.472727 315 
L 182.472727 43.2 
" style="fill:none;stroke:#000000;stroke-linecap:round;stroke-width:0.8;"/>
   </g>
   <g id="line2d_2">
    <path clip-path="url(#p0f7eb68201)" d="M 407.927273 315 
L 407.927273 43.2 
" style="fill:none;stroke:#000000;stroke-linecap:round;stroke-width:0.8;"/>
   </g>
   <g id="matplotlib.axis_1">
    <g id="xtick_1">
     <g id="line2d_3">
      <defs>
       <path d="M 0 0 
L 0 2 
" id="mfd3f754a0d" style="stroke:#262626;"/>
      </defs>
      <g>
       <use style="fill:#262626;stroke:#262626;" x="182.472727" xlink:href="#mfd3f754a0d" y="315"/>
      </g>
     </g>
     <g id="text_1">
      <text style="fill:#262626;font-family:Arial;font-size:20px;font-style:normal;font-weight:normal;text-anchor:middle;" transform="rotate(-0, 182.472727, 338.315625)" x="182.472727" y="338.315625">TSS</text>
     </g>
    </g>
    <g id="xtick_2">
     <g id="line2d_4">
      <g>
       <use style="fill:#262626;stroke:#262626;" x="407.927273" xlink:href="#mfd3f754a0d" y="315"/>
      </g>
     </g>
     <g id="text_2">
      <text style="fill:#262626;font-family:Arial;font-size:20px;font-style:normal;font-weight:normal;text-anchor:middle;" transform="rotate(-0, 407.927273, 338.315625)" x="407.927273" y="338.315625">TTS</text>
     </g>
    </g>
   </g>
   <g id="matplotlib.axis_2">
    <g id="ytick_1">
     <g id="line2d_5">
      <defs>
       <path d="M 0 0 
L -2 0 
" id="m21b2f65218" style="stroke:#262626;"/>
      </defs>
      <g>
       <use style="fill:#262626;stroke:#262626;" x="72" xlink:href="#m21b2f65218" y="292.16988"/>
      </g>
     </g>
     <g id="text_3">
      <text style="fill:#262626;font-family:Arial;font-size:20px;font-style:normal;font-weight:normal;text-anchor:end;" transform="rotate(-0, 63, 299.327693)" x="63" y="299.327693">−0.01</text>
     </g>
    </g>
    <g id="ytick_2">
     <g id="line2d_6">
      <g>
       <use style="fill:#262626;stroke:#262626;" x="72" xlink:href="#m21b2f65218" y="209.453328"/>
      </g>
     </g>
     <g id="text_4">
      <text style="fill:#262626;font-family:Arial;font-size:20px;font-style:normal;font-weight:normal;text-anchor:end;" transform="rotate(-0, 63, 216.61114)" x="63" y="216.61114">0.00</text>
     </g>
    </g>
    <g id="ytick_3">
     <g id="line2d_7">
      <g>
       <use style="fill:#262626;stroke:#262626;" x="72" xlink:href="#m21b2f65218" y="126.736775"/>
      </g>
     </g>
     <g id="text_5">
      <text style="fill:#262626;font-family:Arial;font-size:20px;font-style:normal;font-weight:normal;text-anchor:end;" transform="rotate(-0, 63, 133.894587)" x="63" y="133.894587">0.01</text>
     </g>
    </g>
    <g id="ytick_4">
     <g id="line2d_8">
      <g>
       <use style="fill:#262626;stroke:#262626;" x="72" xlink:href="#m21b2f65218" y="44.020222"/>
      </g>
     </g>
     <g id="text_6">
      <text style="fill:#262626;font-family:Arial;font-size:20px;font-style:normal;font-weight:normal;text-anchor:end;" transform="rotate(-0, 63, 51.178035)" x="63" y="51.178035">0.02</text>
     </g>
    </g>
   </g>
   <g id="PolyCollection_1">
    <defs>
     <path d="M 92.290909 -182.450374 
L 92.290909 -113.720924 
L 94.545455 -109.113796 
L 96.8 -107.665312 
L 99.054545 -108.152069 
L 101.309091 -106.596694 
L 103.563636 -107.799698 
L 105.818182 -109.769747 
L 108.072727 -108.825865 
L 110.327273 -113.219501 
L 112.581818 -114.37145 
L 114.836364 -115.746247 
L 117.090909 -116.103929 
L 119.345455 -118.698181 
L 121.6 -117.636211 
L 123.854545 -120.50803 
L 126.109091 -123.21856 
L 128.363636 -124.4417 
L 130.618182 -121.401526 
L 132.872727 -121.577287 
L 135.127273 -123.058677 
L 137.381818 -123.646559 
L 139.636364 -124.683841 
L 141.890909 -127.100102 
L 144.145455 -127.791451 
L 146.4 -131.44547 
L 148.654545 -132.897799 
L 150.909091 -134.798296 
L 153.163636 -135.989573 
L 155.418182 -139.660767 
L 157.672727 -140.013066 
L 159.927273 -138.835614 
L 162.181818 -136.889782 
L 164.436364 -136.358435 
L 166.690909 -136.857228 
L 168.945455 -133.834216 
L 171.2 -133.410559 
L 173.454545 -132.311552 
L 175.709091 -134.905594 
L 177.963636 -136.828817 
L 180.218182 -135.313328 
L 182.472727 -133.111884 
L 184.727273 -135.243931 
L 186.981818 -133.872495 
L 189.236364 -131.498999 
L 191.490909 -129.379074 
L 193.745455 -126.998831 
L 196 -122.637007 
L 198.254545 -120.094953 
L 200.509091 -111.755207 
L 202.763636 -108.792218 
L 205.018182 -109.089816 
L 207.272727 -111.661653 
L 209.527273 -110.81315 
L 211.781818 -109.710873 
L 214.036364 -110.107202 
L 216.290909 -107.625408 
L 218.545455 -109.841569 
L 220.8 -109.746308 
L 223.054545 -109.916274 
L 225.309091 -106.030268 
L 227.563636 -110.470744 
L 229.818182 -111.958523 
L 232.072727 -114.034417 
L 234.327273 -117.120588 
L 236.581818 -119.594402 
L 238.836364 -119.677682 
L 241.090909 -116.919944 
L 243.345455 -115.562896 
L 245.6 -121.91547 
L 247.854545 -122.142416 
L 250.109091 -118.606117 
L 252.363636 -117.964281 
L 254.618182 -118.839165 
L 256.872727 -121.252493 
L 259.127273 -125.058213 
L 261.381818 -126.587389 
L 263.636364 -121.939219 
L 265.890909 -120.60197 
L 268.145455 -119.353691 
L 270.4 -122.072393 
L 272.654545 -121.72184 
L 274.909091 -120.664865 
L 277.163636 -120.805958 
L 279.418182 -119.508635 
L 281.672727 -117.020346 
L 283.927273 -117.71166 
L 286.181818 -118.618788 
L 288.436364 -117.867852 
L 290.690909 -113.164701 
L 292.945455 -114.163421 
L 295.2 -116.037476 
L 297.454545 -112.460712 
L 299.709091 -108.886874 
L 301.963636 -105.955396 
L 304.218182 -103.586481 
L 306.472727 -103.217926 
L 308.727273 -105.554467 
L 310.981818 -108.313666 
L 313.236364 -106.044478 
L 315.490909 -105.120593 
L 317.745455 -101.875176 
L 320 -98.272998 
L 322.254545 -95.876828 
L 324.509091 -94.197712 
L 326.763636 -93.897968 
L 329.018182 -95.170786 
L 331.272727 -95.406746 
L 333.527273 -93.178707 
L 335.781818 -94.837141 
L 338.036364 -96.796385 
L 340.290909 -94.804562 
L 342.545455 -95.27481 
L 344.8 -97.432449 
L 347.054545 -102.571477 
L 349.309091 -102.471111 
L 351.563636 -104.242123 
L 353.818182 -104.227515 
L 356.072727 -103.441549 
L 358.327273 -106.845857 
L 360.581818 -106.0469 
L 362.836364 -109.32114 
L 365.090909 -115.510941 
L 367.345455 -116.52758 
L 369.6 -118.6698 
L 371.854545 -123.048132 
L 374.109091 -123.981656 
L 376.363636 -124.786215 
L 378.618182 -126.238785 
L 380.872727 -129.022431 
L 383.127273 -129.412335 
L 385.381818 -132.884686 
L 387.636364 -141.24256 
L 389.890909 -146.542631 
L 392.145455 -148.899326 
L 394.4 -151.079471 
L 396.654545 -150.851412 
L 398.909091 -156.163052 
L 401.163636 -158.98916 
L 403.418182 -159.54285 
L 405.672727 -165.662558 
L 407.927273 -167.375509 
L 410.181818 -165.107557 
L 412.436364 -168.071591 
L 414.690909 -167.088177 
L 416.945455 -167.018934 
L 419.2 -167.362834 
L 421.454545 -170.749696 
L 423.709091 -171.912157 
L 425.963636 -169.119949 
L 428.218182 -167.459169 
L 430.472727 -167.529587 
L 432.727273 -164.701757 
L 434.981818 -160.087401 
L 437.236364 -155.572941 
L 439.490909 -154.125008 
L 441.745455 -153.118172 
L 444 -147.862492 
L 446.254545 -144.109153 
L 448.509091 -143.060289 
L 450.763636 -139.236903 
L 453.018182 -138.014139 
L 455.272727 -139.2874 
L 457.527273 -135.640427 
L 459.781818 -135.632189 
L 462.036364 -129.303878 
L 464.290909 -126.289005 
L 466.545455 -121.965809 
L 468.8 -122.16908 
L 471.054545 -123.765367 
L 473.309091 -125.106823 
L 475.563636 -123.257049 
L 477.818182 -119.439036 
L 480.072727 -119.16083 
L 482.327273 -116.204468 
L 484.581818 -115.942107 
L 486.836364 -114.811826 
L 489.090909 -114.730351 
L 491.345455 -110.378116 
L 493.6 -110.500169 
L 495.854545 -110.697304 
L 498.109091 -110.104305 
L 498.109091 -178.041422 
L 498.109091 -178.041422 
L 495.854545 -178.434104 
L 493.6 -178.478315 
L 491.345455 -177.86626 
L 489.090909 -182.510104 
L 486.836364 -182.714443 
L 484.581818 -184.018838 
L 482.327273 -184.214408 
L 480.072727 -187.267233 
L 477.818182 -187.242404 
L 475.563636 -190.76056 
L 473.309091 -192.378395 
L 471.054545 -191.335921 
L 468.8 -189.803678 
L 466.545455 -189.932536 
L 464.290909 -194.407285 
L 462.036364 -196.893115 
L 459.781818 -203.194045 
L 457.527273 -203.157874 
L 455.272727 -206.289531 
L 453.018182 -204.805602 
L 450.763636 -206.064866 
L 448.509091 -209.716913 
L 446.254545 -211.415303 
L 444 -215.124827 
L 441.745455 -220.393556 
L 439.490909 -221.932279 
L 437.236364 -223.693294 
L 434.981818 -228.495943 
L 432.727273 -233.072847 
L 430.472727 -236.245339 
L 428.218182 -236.597057 
L 425.963636 -238.036341 
L 423.709091 -240.822345 
L 421.454545 -239.527651 
L 419.2 -236.057981 
L 416.945455 -235.897788 
L 414.690909 -236.063789 
L 412.436364 -237.11178 
L 410.181818 -234.419439 
L 407.927273 -236.741087 
L 405.672727 -235.183931 
L 403.418182 -229.199402 
L 401.163636 -228.750388 
L 398.909091 -225.526344 
L 396.654545 -220.451242 
L 394.4 -220.590575 
L 392.145455 -218.634641 
L 389.890909 -216.049171 
L 387.636364 -211.326603 
L 385.381818 -203.276303 
L 383.127273 -200.113145 
L 380.872727 -199.79881 
L 378.618182 -196.846961 
L 376.363636 -195.993216 
L 374.109091 -195.398545 
L 371.854545 -194.723921 
L 369.6 -190.695967 
L 367.345455 -189.046305 
L 365.090909 -188.432909 
L 362.836364 -182.656151 
L 360.581818 -179.614495 
L 358.327273 -180.604337 
L 356.072727 -176.716579 
L 353.818182 -177.551345 
L 351.563636 -177.871391 
L 349.309091 -176.214943 
L 347.054545 -176.683918 
L 344.8 -171.654643 
L 342.545455 -169.218077 
L 340.290909 -168.292153 
L 338.036364 -169.96184 
L 335.781818 -168.0325 
L 333.527273 -166.549535 
L 331.272727 -168.453749 
L 329.018182 -168.320858 
L 326.763636 -167.435145 
L 324.509091 -167.776563 
L 322.254545 -169.400781 
L 320 -171.874634 
L 317.745455 -175.696201 
L 315.490909 -178.524629 
L 313.236364 -178.874176 
L 310.981818 -181.875293 
L 308.727273 -179.678181 
L 306.472727 -177.184948 
L 304.218182 -177.335856 
L 301.963636 -179.435913 
L 299.709091 -182.0085 
L 297.454545 -185.692771 
L 295.2 -189.406496 
L 292.945455 -187.472478 
L 290.690909 -186.685206 
L 288.436364 -191.302682 
L 286.181818 -192.071561 
L 283.927273 -191.076241 
L 281.672727 -189.781595 
L 279.418182 -191.743916 
L 277.163636 -192.523736 
L 274.909091 -192.177494 
L 272.654545 -193.002543 
L 270.4 -193.469046 
L 268.145455 -191.300727 
L 265.890909 -191.870397 
L 263.636364 -192.650475 
L 261.381818 -197.030133 
L 259.127273 -195.222479 
L 256.872727 -191.128628 
L 254.618182 -189.091435 
L 252.363636 -188.074906 
L 250.109091 -189.072989 
L 247.854545 -192.64585 
L 245.6 -192.335635 
L 243.345455 -186.473171 
L 241.090909 -187.614487 
L 238.836364 -190.453268 
L 236.581818 -190.547266 
L 234.327273 -188.40615 
L 232.072727 -185.973116 
L 229.818182 -184.106724 
L 227.563636 -183.234092 
L 225.309091 -179.190979 
L 223.054545 -183.069822 
L 220.8 -183.027711 
L 218.545455 -183.540547 
L 216.290909 -181.369368 
L 214.036364 -184.753524 
L 211.781818 -184.379205 
L 209.527273 -186.114615 
L 207.272727 -187.414801 
L 205.018182 -184.683673 
L 202.763636 -184.467852 
L 200.509091 -187.224772 
L 198.254545 -194.736433 
L 196 -197.430291 
L 193.745455 -201.456472 
L 191.490909 -203.588705 
L 189.236364 -205.459986 
L 186.981818 -207.697539 
L 184.727273 -208.282578 
L 182.472727 -205.389801 
L 180.218182 -207.191079 
L 177.963636 -208.000394 
L 175.709091 -205.953133 
L 173.454545 -203.036621 
L 171.2 -203.936816 
L 168.945455 -203.643196 
L 166.690909 -206.662675 
L 164.436364 -205.317095 
L 162.181818 -205.190433 
L 159.927273 -206.966638 
L 157.672727 -207.884888 
L 155.418182 -207.243721 
L 153.163636 -203.832407 
L 150.909091 -202.52174 
L 148.654545 -200.248327 
L 146.4 -198.790607 
L 144.145455 -195.121443 
L 141.890909 -194.326766 
L 139.636364 -192.434381 
L 137.381818 -191.528562 
L 135.127273 -190.889213 
L 132.872727 -189.657202 
L 130.618182 -189.585713 
L 128.363636 -192.380566 
L 126.109091 -192.046239 
L 123.854545 -189.857968 
L 121.6 -186.691174 
L 119.345455 -187.847024 
L 117.090909 -185.1818 
L 114.836364 -184.741994 
L 112.581818 -183.452892 
L 110.327273 -182.323197 
L 108.072727 -177.974734 
L 105.818182 -178.934705 
L 103.563636 -177.449383 
L 101.309091 -176.160899 
L 99.054545 -177.647213 
L 96.8 -176.818533 
L 94.545455 -177.976507 
L 92.290909 -182.450374 
z
" id="md51b09fbbc" style="stroke:#0072b2;stroke-opacity:0.5;stroke-width:0.3;"/>
    </defs>
    <g clip-path="url(#p0f7eb68201)">
     <use style="fill:#0072b2;fill-opacity:0.5;stroke:#0072b2;stroke-opacity:0.5;stroke-width:0.3;" x="0" xlink:href="#md51b09fbbc" y="360"/>
    </g>
   </g>
   <g id="PolyCollection_2">
    <defs>
     <path d="M 92.290909 -154.651376 
L 92.290909 -135.44734 
L 94.545455 -136.14603 
L 96.8 -135.718007 
L 99.054545 -136.063842 
L 101.309091 -135.013925 
L 103.563636 -134.98326 
L 105.818182 -133.659793 
L 108.072727 -133.678514 
L 110.327273 -133.914259 
L 112.581818 -133.148272 
L 114.836364 -133.924737 
L 117.090909 -134.085841 
L 119.345455 -133.917902 
L 121.6 -133.632689 
L 123.854545 -132.613093 
L 126.109091 -133.369585 
L 128.363636 -135.042079 
L 130.618182 -135.333945 
L 132.872727 -134.261643 
L 135.127273 -134.956107 
L 137.381818 -136.138919 
L 139.636364 -136.630016 
L 141.890909 -138.088903 
L 144.145455 -138.911048 
L 146.4 -139.937741 
L 148.654545 -141.76659 
L 150.909091 -143.730002 
L 153.163636 -144.807421 
L 155.418182 -144.602812 
L 157.672727 -144.769406 
L 159.927273 -141.889341 
L 162.181818 -139.236446 
L 164.436364 -135.681386 
L 166.690909 -131.604304 
L 168.945455 -127.517502 
L 171.2 -123.829623 
L 173.454545 -119.296209 
L 175.709091 -114.847703 
L 177.963636 -111.405734 
L 180.218182 -106.170193 
L 182.472727 -101.011748 
L 184.727273 -95.400989 
L 186.981818 -89.14767 
L 189.236364 -83.564387 
L 191.490909 -79.17624 
L 193.745455 -74.079541 
L 196 -69.412764 
L 198.254545 -64.801983 
L 200.509091 -61.637666 
L 202.763636 -58.276693 
L 205.018182 -57.526653 
L 207.272727 -57.354545 
L 209.527273 -57.467042 
L 211.781818 -59.30908 
L 214.036364 -61.25271 
L 216.290909 -62.941927 
L 218.545455 -64.874495 
L 220.8 -65.656679 
L 223.054545 -67.802275 
L 225.309091 -70.633003 
L 227.563636 -71.974521 
L 229.818182 -73.879886 
L 232.072727 -76.72687 
L 234.327273 -79.695226 
L 236.581818 -81.308459 
L 238.836364 -83.668269 
L 241.090909 -85.765057 
L 243.345455 -88.073751 
L 245.6 -90.680616 
L 247.854545 -93.465734 
L 250.109091 -96.661148 
L 252.363636 -98.572904 
L 254.618182 -101.251444 
L 256.872727 -103.64531 
L 259.127273 -105.133488 
L 261.381818 -106.004944 
L 263.636364 -107.684929 
L 265.890909 -110.331268 
L 268.145455 -113.014054 
L 270.4 -114.554907 
L 272.654545 -117.128169 
L 274.909091 -118.730728 
L 277.163636 -119.376682 
L 279.418182 -120.675033 
L 281.672727 -122.724374 
L 283.927273 -123.20056 
L 286.181818 -124.3252 
L 288.436364 -125.061115 
L 290.690909 -125.932335 
L 292.945455 -126.518441 
L 295.2 -126.595808 
L 297.454545 -126.769149 
L 299.709091 -127.17055 
L 301.963636 -127.115033 
L 304.218182 -128.124968 
L 306.472727 -129.54543 
L 308.727273 -129.926938 
L 310.981818 -130.061018 
L 313.236364 -130.195545 
L 315.490909 -131.283508 
L 317.745455 -132.250461 
L 320 -135.038286 
L 322.254545 -137.251536 
L 324.509091 -137.95823 
L 326.763636 -138.945085 
L 329.018182 -140.968336 
L 331.272727 -142.545609 
L 333.527273 -145.27887 
L 335.781818 -147.539122 
L 338.036364 -150.463655 
L 340.290909 -152.81129 
L 342.545455 -155.773611 
L 344.8 -158.79938 
L 347.054545 -161.67845 
L 349.309091 -164.830287 
L 351.563636 -168.427798 
L 353.818182 -172.659524 
L 356.072727 -176.576656 
L 358.327273 -180.232903 
L 360.581818 -184.273768 
L 362.836364 -188.477366 
L 365.090909 -191.544761 
L 367.345455 -195.300655 
L 369.6 -201.550026 
L 371.854545 -207.96342 
L 374.109091 -214.132285 
L 376.363636 -221.972582 
L 378.618182 -228.840081 
L 380.872727 -235.068985 
L 383.127273 -241.788751 
L 385.381818 -249.911598 
L 387.636364 -256.422152 
L 389.890909 -261.637163 
L 392.145455 -267.464638 
L 394.4 -272.951564 
L 396.654545 -277.108996 
L 398.909091 -279.463872 
L 401.163636 -282.162449 
L 403.418182 -283.274716 
L 405.672727 -284.085085 
L 407.927273 -282.362663 
L 410.181818 -281.354083 
L 412.436364 -279.272299 
L 414.690909 -275.05093 
L 416.945455 -270.792987 
L 419.2 -265.843656 
L 421.454545 -258.013382 
L 423.709091 -250.669251 
L 425.963636 -243.18026 
L 428.218182 -234.916523 
L 430.472727 -225.925758 
L 432.727273 -217.890229 
L 434.981818 -211.00155 
L 437.236364 -203.676023 
L 439.490909 -196.683082 
L 441.745455 -190.283006 
L 444 -184.226493 
L 446.254545 -178.324977 
L 448.509091 -173.893627 
L 450.763636 -168.917156 
L 453.018182 -166.010711 
L 455.272727 -163.198096 
L 457.527273 -159.976435 
L 459.781818 -158.604759 
L 462.036364 -156.375948 
L 464.290909 -154.694999 
L 466.545455 -153.908691 
L 468.8 -153.344797 
L 471.054545 -154.299247 
L 473.309091 -154.354203 
L 475.563636 -152.674489 
L 477.818182 -152.483071 
L 480.072727 -151.928331 
L 482.327273 -151.05735 
L 484.581818 -149.722433 
L 486.836364 -147.952684 
L 489.090909 -147.398883 
L 491.345455 -146.663795 
L 493.6 -145.433184 
L 495.854545 -145.11816 
L 498.109091 -145.110265 
L 498.109091 -164.550029 
L 498.109091 -164.550029 
L 495.854545 -164.607961 
L 493.6 -164.865733 
L 491.345455 -166.063822 
L 489.090909 -166.795353 
L 486.836364 -167.432985 
L 484.581818 -169.250086 
L 482.327273 -170.618444 
L 480.072727 -171.555644 
L 477.818182 -172.080474 
L 475.563636 -172.241029 
L 473.309091 -173.98754 
L 471.054545 -173.996419 
L 468.8 -173.005828 
L 466.545455 -173.565709 
L 464.290909 -174.334458 
L 462.036364 -175.981376 
L 459.781818 -178.172656 
L 457.527273 -179.516866 
L 455.272727 -182.768787 
L 453.018182 -185.489994 
L 450.763636 -188.345346 
L 448.509091 -193.328138 
L 446.254545 -197.794761 
L 444 -203.76034 
L 441.745455 -209.800587 
L 439.490909 -216.132583 
L 437.236364 -223.090743 
L 434.981818 -230.451476 
L 432.727273 -237.391319 
L 430.472727 -245.486505 
L 428.218182 -254.511304 
L 425.963636 -262.810852 
L 423.709091 -270.371698 
L 421.454545 -277.789948 
L 419.2 -285.681574 
L 416.945455 -290.780565 
L 414.690909 -295.106467 
L 412.436364 -299.393167 
L 410.181818 -301.496387 
L 407.927273 -302.64278 
L 405.672727 -304.445455 
L 403.418182 -303.716309 
L 401.163636 -302.557902 
L 398.909091 -299.781348 
L 396.654545 -297.41821 
L 394.4 -293.271804 
L 392.145455 -287.779046 
L 389.890909 -281.836704 
L 387.636364 -276.586184 
L 385.381818 -270.086429 
L 383.127273 -261.854595 
L 380.872727 -255.013532 
L 378.618182 -248.729611 
L 376.363636 -241.763403 
L 374.109091 -233.8056 
L 371.854545 -227.549243 
L 369.6 -221.101804 
L 367.345455 -214.85124 
L 365.090909 -211.061985 
L 362.836364 -207.947423 
L 360.581818 -203.62993 
L 358.327273 -199.5114 
L 356.072727 -195.890387 
L 353.818182 -191.986533 
L 351.563636 -187.650468 
L 349.309091 -184.052785 
L 347.054545 -180.902955 
L 344.8 -178.048046 
L 342.545455 -175.060957 
L 340.290909 -172.077111 
L 338.036364 -169.753195 
L 335.781818 -166.859309 
L 333.527273 -164.584974 
L 331.272727 -161.890101 
L 329.018182 -160.352233 
L 326.763636 -158.359885 
L 324.509091 -157.333551 
L 322.254545 -156.625706 
L 320 -154.434758 
L 317.745455 -151.622376 
L 315.490909 -150.644975 
L 313.236364 -149.63048 
L 310.981818 -149.507149 
L 308.727273 -149.353322 
L 306.472727 -149.013903 
L 304.218182 -147.559109 
L 301.963636 -146.540143 
L 299.709091 -146.581105 
L 297.454545 -146.178122 
L 295.2 -145.990618 
L 292.945455 -145.87201 
L 290.690909 -145.297398 
L 288.436364 -144.463653 
L 286.181818 -143.696293 
L 283.927273 -142.568424 
L 281.672727 -142.023361 
L 279.418182 -140.003015 
L 277.163636 -138.737434 
L 274.909091 -138.057078 
L 272.654545 -136.482749 
L 270.4 -133.908314 
L 268.145455 -132.330637 
L 265.890909 -129.671819 
L 263.636364 -127.09088 
L 261.381818 -125.428576 
L 259.127273 -124.525054 
L 256.872727 -122.978733 
L 254.618182 -120.602837 
L 252.363636 -117.936116 
L 250.109091 -116.040919 
L 247.854545 -112.83662 
L 245.6 -110.015738 
L 243.345455 -107.455875 
L 241.090909 -105.154418 
L 238.836364 -103.106685 
L 236.581818 -100.771727 
L 234.327273 -99.196296 
L 232.072727 -96.191932 
L 229.818182 -93.443737 
L 227.563636 -91.476541 
L 225.309091 -90.209056 
L 223.054545 -87.465824 
L 220.8 -85.298439 
L 218.545455 -84.536767 
L 216.290909 -82.640001 
L 214.036364 -81.068864 
L 211.781818 -79.296718 
L 209.527273 -77.615033 
L 207.272727 -77.591547 
L 205.018182 -77.799778 
L 202.763636 -78.591516 
L 200.509091 -81.957546 
L 198.254545 -85.089488 
L 196 -89.674563 
L 193.745455 -94.293466 
L 191.490909 -99.349251 
L 189.236364 -103.655995 
L 186.981818 -109.215487 
L 184.727273 -115.385568 
L 182.472727 -120.989957 
L 180.218182 -126.055017 
L 177.963636 -131.160588 
L 175.709091 -134.565315 
L 173.454545 -138.936587 
L 171.2 -143.373885 
L 168.945455 -146.983577 
L 166.690909 -150.936911 
L 164.436364 -154.797608 
L 162.181818 -158.233902 
L 159.927273 -160.809739 
L 157.672727 -163.654584 
L 155.418182 -163.511305 
L 153.163636 -163.689411 
L 150.909091 -162.571016 
L 148.654545 -160.563498 
L 146.4 -158.753748 
L 144.145455 -157.759731 
L 141.890909 -156.997822 
L 139.636364 -155.539586 
L 137.381818 -155.109769 
L 135.127273 -154.018388 
L 132.872727 -153.307339 
L 130.618182 -154.4011 
L 128.363636 -154.046391 
L 126.109091 -152.416214 
L 123.854545 -151.692094 
L 121.6 -152.718669 
L 119.345455 -153.065049 
L 117.090909 -153.173036 
L 114.836364 -153.075734 
L 112.581818 -152.374378 
L 110.327273 -153.129601 
L 108.072727 -152.932388 
L 105.818182 -152.983024 
L 103.563636 -154.30073 
L 101.309091 -154.396789 
L 99.054545 -155.403249 
L 96.8 -154.996585 
L 94.545455 -155.406614 
L 92.290909 -154.651376 
z
" id="m52eb3a39e4" style="stroke:#d55e00;stroke-opacity:0.5;stroke-width:0.3;"/>
    </defs>
    <g clip-path="url(#p0f7eb68201)">
     <use style="fill:#d55e00;fill-opacity:0.5;stroke:#d55e00;stroke-opacity:0.5;stroke-width:0.3;" x="0" xlink:href="#m52eb3a39e4" y="360"/>
    </g>
   </g>
   <g id="line2d_9">
    <path clip-path="url(#p0f7eb68201)" d="M 92.290909 212.048488 
L 94.545455 216.518453 
L 96.8 217.846507 
L 99.054545 217.20701 
L 101.309091 218.765951 
L 103.563636 217.546308 
L 105.818182 215.766839 
L 108.072727 216.669818 
L 110.327273 212.296748 
L 112.581818 211.151655 
L 114.836364 209.834906 
L 117.090909 209.425 
L 119.345455 206.730429 
L 121.6 207.856539 
L 123.854545 204.817786 
L 126.109091 202.398233 
L 128.363636 201.68087 
L 130.618182 204.60397 
L 132.872727 204.430818 
L 135.127273 203.045855 
L 137.381818 202.442374 
L 139.636364 201.509034 
L 141.890909 199.332386 
L 144.145455 198.620541 
L 146.4 194.962843 
L 148.654545 193.575458 
L 150.909091 191.522072 
L 153.163636 190.292785 
L 155.418182 186.798988 
L 157.672727 186.334136 
L 159.927273 187.340562 
L 162.181818 189.224674 
L 164.436364 189.423971 
L 166.690909 188.489239 
L 168.945455 191.464501 
L 171.2 191.484765 
L 173.454545 192.440861 
L 175.709091 189.692469 
L 177.963636 187.756621 
L 180.218182 188.890817 
L 182.472727 190.889952 
L 184.727273 188.389001 
L 186.981818 189.362367 
L 189.236364 191.622557 
L 191.490909 193.586224 
L 193.745455 195.770834 
L 196 199.956502 
L 198.254545 202.553817 
L 200.509091 210.479804 
L 202.763636 213.317633 
L 205.018182 213.058343 
L 207.272727 210.424214 
L 209.527273 211.516772 
L 211.781818 212.987151 
L 214.036364 212.640594 
L 216.290909 215.577697 
L 218.545455 213.394006 
L 220.8 213.659593 
L 223.054545 213.583493 
L 225.309091 217.441597 
L 227.563636 213.210315 
L 229.818182 212.034236 
L 232.072727 210.012956 
L 234.327273 207.239588 
L 236.581818 204.915698 
L 238.836364 204.94494 
L 241.090909 207.673767 
L 243.345455 208.862121 
L 245.6 202.762925 
L 247.854545 202.529893 
L 250.109091 206.072232 
L 252.363636 206.788689 
L 254.618182 205.810058 
L 256.872727 203.576738 
L 259.127273 199.599971 
L 261.381818 197.968731 
L 263.636364 202.429742 
L 265.890909 203.57104 
L 268.145455 204.4277 
L 270.4 202.051732 
L 272.654545 202.440684 
L 274.909091 203.359829 
L 277.163636 203.145586 
L 279.418182 204.195736 
L 281.672727 206.470959 
L 283.927273 205.406404 
L 286.181818 204.550719 
L 288.436364 205.351908 
L 290.690909 210.008053 
L 292.945455 209.15567 
L 295.2 207.279073 
L 299.709091 214.684896 
L 301.963636 217.400106 
L 304.218182 219.662024 
L 306.472727 219.889658 
L 308.727273 217.542776 
L 310.981818 214.990951 
L 313.236364 217.680145 
L 315.490909 218.263724 
L 317.745455 221.359857 
L 320 225.099178 
L 322.254545 227.474502 
L 324.509091 229.122412 
L 326.763636 229.470003 
L 329.018182 228.473428 
L 331.272727 228.282526 
L 333.527273 230.37388 
L 335.781818 228.78853 
L 338.036364 226.811002 
L 340.290909 228.619745 
L 342.545455 227.931972 
L 344.8 225.555112 
L 347.054545 220.459565 
L 349.309091 220.72154 
L 351.563636 219.049911 
L 353.818182 219.186832 
L 356.072727 220.027147 
L 358.327273 216.342126 
L 360.581818 217.280684 
L 362.836364 214.024643 
L 365.090909 207.999976 
L 367.345455 207.263279 
L 369.6 205.403254 
L 371.854545 201.194509 
L 376.363636 199.703931 
L 378.618182 198.590529 
L 380.872727 195.758144 
L 383.127273 195.40543 
L 385.381818 192.068805 
L 387.636364 183.937966 
L 389.890909 178.996229 
L 392.145455 176.578547 
L 394.4 174.515826 
L 396.654545 174.668817 
L 398.909091 169.451222 
L 401.163636 166.412801 
L 403.418182 165.934944 
L 405.672727 159.859098 
L 407.927273 158.282046 
L 410.181818 160.586853 
L 412.436364 157.763027 
L 414.690909 158.798732 
L 416.945455 158.869153 
L 419.2 158.549421 
L 421.454545 155.145762 
L 423.709091 153.840452 
L 425.963636 156.630638 
L 428.218182 158.156845 
L 430.472727 158.327631 
L 432.727273 161.271126 
L 437.236364 170.351979 
L 439.490909 171.962634 
L 441.745455 173.255104 
L 444 178.576667 
L 446.254545 182.224547 
L 448.509091 183.571856 
L 450.763636 187.280199 
L 453.018182 188.582842 
L 455.272727 187.194542 
L 457.527273 190.618895 
L 459.781818 190.544244 
L 462.036364 196.921519 
L 464.290909 199.675976 
L 466.545455 204.061038 
L 468.8 204.04615 
L 471.054545 202.448094 
L 473.309091 201.272893 
L 475.563636 202.99433 
L 477.818182 206.585203 
L 480.072727 206.702458 
L 482.327273 209.696885 
L 484.581818 209.914589 
L 486.836364 211.098936 
L 489.090909 211.224772 
L 491.345455 215.756858 
L 493.6 215.358397 
L 495.854545 215.298039 
L 498.109091 215.740165 
L 498.109091 215.740165 
" style="fill:none;stroke:#0072b2;stroke-linecap:round;stroke-width:1.75;"/>
   </g>
   <g id="line2d_10">
    <path clip-path="url(#p0f7eb68201)" d="M 92.290909 214.923551 
L 94.545455 214.205767 
L 96.8 214.62947 
L 99.054545 214.262411 
L 101.309091 215.27768 
L 103.563636 215.333159 
L 105.818182 216.66876 
L 108.072727 216.693446 
L 110.327273 216.477458 
L 112.581818 217.251204 
L 114.836364 216.535166 
L 117.090909 216.396685 
L 119.345455 216.533186 
L 121.6 216.840208 
L 123.854545 217.857189 
L 126.109091 217.111122 
L 128.363636 215.469513 
L 130.618182 215.157921 
L 132.872727 216.234302 
L 135.127273 215.528484 
L 137.381818 214.388294 
L 139.636364 213.93846 
L 141.890909 212.449286 
L 144.145455 211.627429 
L 146.4 210.63084 
L 148.654545 208.810172 
L 150.909091 206.831641 
L 153.163636 205.730384 
L 155.418182 205.922845 
L 157.672727 205.757855 
L 159.927273 208.602855 
L 162.181818 211.224258 
L 164.436364 214.706819 
L 168.945455 222.698951 
L 171.2 226.358657 
L 175.709091 235.256207 
L 177.963636 238.679222 
L 182.472727 248.985049 
L 184.727273 254.575733 
L 186.981818 260.820511 
L 189.236364 266.399969 
L 191.490909 270.747158 
L 193.745455 275.82822 
L 198.254545 285.067856 
L 200.509091 288.227705 
L 202.763636 291.604135 
L 205.018182 292.368377 
L 207.272727 292.561947 
L 209.527273 292.490288 
L 218.545455 285.294441 
L 220.8 284.528812 
L 223.054545 282.401446 
L 225.309091 279.598899 
L 227.563636 278.330183 
L 229.818182 276.401934 
L 232.072727 273.606132 
L 234.327273 270.629697 
L 236.581818 269.022923 
L 238.836364 266.681092 
L 241.090909 264.606985 
L 243.345455 262.312481 
L 245.6 259.695778 
L 247.854545 256.863459 
L 250.109091 253.675562 
L 252.363636 251.776038 
L 254.618182 249.117934 
L 256.872727 246.730255 
L 259.127273 245.21832 
L 261.381818 244.342022 
L 263.636364 242.686172 
L 268.145455 237.38081 
L 270.4 235.821533 
L 272.654545 233.210464 
L 274.909091 231.608423 
L 277.163636 230.940957 
L 279.418182 229.653923 
L 281.672727 227.635122 
L 283.927273 227.142868 
L 286.181818 226.008756 
L 290.690909 224.447673 
L 292.945455 223.883939 
L 297.454545 223.594399 
L 299.709091 223.185823 
L 301.963636 223.22345 
L 304.218182 222.208546 
L 306.472727 220.766227 
L 308.727273 220.397159 
L 313.236364 220.133122 
L 317.745455 218.123576 
L 320 215.322928 
L 322.254545 213.118545 
L 324.509091 212.40974 
L 326.763636 211.395937 
L 329.018182 209.366379 
L 331.272727 207.792707 
L 333.527273 205.06377 
L 335.781818 202.776938 
L 338.036364 199.853074 
L 340.290909 197.514624 
L 349.309091 185.582657 
L 351.563636 181.97584 
L 353.818182 177.710935 
L 356.072727 173.799666 
L 358.327273 170.13924 
L 362.836364 161.779405 
L 365.090909 158.698864 
L 367.345455 154.941807 
L 374.109091 136.02967 
L 376.363636 128.158602 
L 378.618182 121.252397 
L 380.872727 114.992638 
L 383.127273 108.232924 
L 385.381818 100.063383 
L 387.636364 93.541092 
L 389.890909 88.302984 
L 392.145455 82.402579 
L 394.4 76.899634 
L 396.654545 72.765075 
L 398.909091 70.390497 
L 401.163636 67.646444 
L 403.418182 66.509455 
L 405.672727 65.741072 
L 407.927273 67.504824 
L 410.181818 68.563025 
L 412.436364 70.640486 
L 416.945455 79.223354 
L 419.2 84.253632 
L 421.454545 92.101203 
L 425.963636 107.017865 
L 428.218182 115.297497 
L 430.472727 124.318949 
L 432.727273 132.393493 
L 434.981818 139.304732 
L 439.490909 153.604289 
L 444 166.009871 
L 446.254545 171.958954 
L 448.509091 176.40289 
L 450.763636 181.393793 
L 455.272727 187.061488 
L 457.527273 190.303158 
L 459.781818 191.660074 
L 462.036364 193.892477 
L 464.290909 195.557696 
L 466.545455 196.344654 
L 468.8 196.901234 
L 471.054545 195.933175 
L 473.309091 195.915101 
L 475.563636 197.617139 
L 477.818182 197.799093 
L 480.072727 198.33728 
L 482.327273 199.238817 
L 484.581818 200.568894 
L 486.836364 202.349412 
L 489.090909 202.953211 
L 491.345455 203.686816 
L 493.6 204.914299 
L 495.854545 205.198825 
L 498.109091 205.21531 
L 498.109091 205.21531 
" style="fill:none;stroke:#d55e00;stroke-linecap:round;stroke-width:1.75;"/>
   </g>
   <g id="patch_3">
    <path d="M 72 315 
L 72 43.2 
" style="fill:none;stroke:#262626;stroke-linecap:square;stroke-linejoin:miter;stroke-width:1.25;"/>
   </g>
   <g id="patch_4">
    <path d="M 518.4 315 
L 518.4 43.2 
" style="fill:none;stroke:#262626;stroke-linecap:square;stroke-linejoin:miter;stroke-width:1.25;"/>
   </g>
   <g id="patch_5">
    <path d="M 72 315 
L 518.4 315 
" style="fill:none;stroke:#262626;stroke-linecap:square;stroke-linejoin:miter;stroke-width:1.25;"/>
   </g>
   <g id="patch_6">
    <path d="M 72 43.2 
L 518.4 43.2 
" style="fill:none;stroke:#262626;stroke-linecap:square;stroke-linejoin:miter;stroke-width:1.25;"/>
   </g>
   <g id="legend_1">
    <g id="line2d_11">
     <path d="M 205.495312 68.759375 
L 245.495312 68.759375 
" style="fill:none;stroke:#0072b2;stroke-linecap:round;stroke-width:1.75;"/>
    </g>
    <g id="line2d_12"/>
    <g id="text_7">
     <text style="fill:#262626;font-family:Arial;font-size:20px;font-style:normal;font-weight:normal;text-anchor:start;" transform="rotate(-0, 261.495312, 75.759375)" x="261.495312" y="75.759375">G4 containing</text>
    </g>
    <g id="line2d_13">
     <path d="M 205.495312 97.284375 
L 245.495312 97.284375 
" style="fill:none;stroke:#d55e00;stroke-linecap:round;stroke-width:1.75;"/>
    </g>
    <g id="line2d_14"/>
    <g id="text_8">
     <text style="fill:#262626;font-family:Arial;font-size:20px;font-style:normal;font-weight:normal;text-anchor:start;" transform="rotate(-0, 261.495312, 104.284375)" x="261.495312" y="104.284375">non-G4</text>
    </g>
   </g>
  </g>
 </g>
 <defs>
  <clipPath id="p0f7eb68201">
   <rect height="271.8" width="446.4" x="72" y="43.2"/>
  </clipPath>
 </defs>
</svg>
