<?xml version="1.0" encoding="utf-8" standalone="no"?>
<!DOCTYPE svg PUBLIC "-//W3C//DTD SVG 1.1//EN"
  "http://www.w3.org/Graphics/SVG/1.1/DTD/svg11.dtd">
<!-- Created with matplotlib (http://matplotlib.org/) -->
<svg height="360pt" version="1.1" viewBox="0 0 648 360" width="648pt" xmlns="http://www.w3.org/2000/svg" xmlns:xlink="http://www.w3.org/1999/xlink">
 <defs>
  <style type="text/css">
*{stroke-linecap:butt;stroke-linejoin:round;}
  </style>
 </defs>
 <g id="figure_1">
  <g id="patch_1">
   <path d="M 0 360 
L 648 360 
L 648 0 
L 0 0 
z
" style="fill:#ffffff;"/>
  </g>
  <g id="axes_1">
   <g id="patch_2">
    <path d="M 100.995 281.98625 
L 344.0775 281.98625 
L 344.0775 28.92 
L 100.995 28.92 
z
" style="fill:#ffffff;"/>
   </g>
   <g id="matplotlib.axis_1">
    <g id="xtick_1">
     <g id="line2d_1">
      <defs>
       <path d="M 0 0 
L 0 2 
" id="m82f4d0cfa0" style="stroke:#262626;"/>
      </defs>
      <g>
       <use style="fill:#262626;stroke:#262626;" x="113.149125" xlink:href="#m82f4d0cfa0" y="281.98625"/>
      </g>
     </g>
     <g id="text_1">
      <text style="fill:#262626;font-family:Arial;font-size:20px;font-style:normal;font-weight:normal;text-anchor:middle;" transform="rotate(-0, 113.149125, 305.301875)" x="113.149125" y="305.301875">225</text>
     </g>
    </g>
    <g id="xtick_2">
     <g id="line2d_2">
      <g>
       <use style="fill:#262626;stroke:#262626;" x="173.91975" xlink:href="#m82f4d0cfa0" y="281.98625"/>
      </g>
     </g>
     <g id="text_2">
      <text style="fill:#262626;font-family:Arial;font-size:20px;font-style:normal;font-weight:normal;text-anchor:middle;" transform="rotate(-0, 173.91975, 305.301875)" x="173.91975" y="305.301875">250</text>
     </g>
    </g>
    <g id="xtick_3">
     <g id="line2d_3">
      <g>
       <use style="fill:#262626;stroke:#262626;" x="234.690375" xlink:href="#m82f4d0cfa0" y="281.98625"/>
      </g>
     </g>
     <g id="text_3">
      <text style="fill:#262626;font-family:Arial;font-size:20px;font-style:normal;font-weight:normal;text-anchor:middle;" transform="rotate(-0, 234.690375, 305.301875)" x="234.690375" y="305.301875">275</text>
     </g>
    </g>
    <g id="xtick_4">
     <g id="line2d_4">
      <g>
       <use style="fill:#262626;stroke:#262626;" x="295.461" xlink:href="#m82f4d0cfa0" y="281.98625"/>
      </g>
     </g>
     <g id="text_4">
      <text style="fill:#262626;font-family:Arial;font-size:20px;font-style:normal;font-weight:normal;text-anchor:middle;" transform="rotate(-0, 295.461, 305.301875)" x="295.461" y="305.301875">300</text>
     </g>
    </g>
    <g id="text_5">
     <text style="fill:#262626;font-family:Arial;font-size:22px;font-style:normal;font-weight:normal;text-anchor:middle;" transform="rotate(-0, 222.53625, 329.292188)" x="222.53625" y="329.292188">Wavelength (nm)</text>
    </g>
   </g>
   <g id="matplotlib.axis_2">
    <g id="ytick_1">
     <g id="line2d_5">
      <defs>
       <path d="M 0 0 
L -2 0 
" id="m8026b43d7f" style="stroke:#262626;"/>
      </defs>
      <g>
       <use style="fill:#262626;stroke:#262626;" x="100.995" xlink:href="#m8026b43d7f" y="278.623424"/>
      </g>
     </g>
     <g id="text_6">
      <text style="fill:#262626;font-family:Arial;font-size:20px;font-style:normal;font-weight:normal;text-anchor:end;" transform="rotate(-0, 91.995, 285.781236)" x="91.995" y="285.781236">−10</text>
     </g>
    </g>
    <g id="ytick_2">
     <g id="line2d_6">
      <g>
       <use style="fill:#262626;stroke:#262626;" x="100.995" xlink:href="#m8026b43d7f" y="199.146558"/>
      </g>
     </g>
     <g id="text_7">
      <text style="fill:#262626;font-family:Arial;font-size:20px;font-style:normal;font-weight:normal;text-anchor:end;" transform="rotate(-0, 91.995, 206.304371)" x="91.995" y="206.304371">0</text>
     </g>
    </g>
    <g id="ytick_3">
     <g id="line2d_7">
      <g>
       <use style="fill:#262626;stroke:#262626;" x="100.995" xlink:href="#m8026b43d7f" y="119.669692"/>
      </g>
     </g>
     <g id="text_8">
      <text style="fill:#262626;font-family:Arial;font-size:20px;font-style:normal;font-weight:normal;text-anchor:end;" transform="rotate(-0, 91.995, 126.827505)" x="91.995" y="126.827505">10</text>
     </g>
    </g>
    <g id="ytick_4">
     <g id="line2d_8">
      <g>
       <use style="fill:#262626;stroke:#262626;" x="100.995" xlink:href="#m8026b43d7f" y="40.192827"/>
      </g>
     </g>
     <g id="text_9">
      <text style="fill:#262626;font-family:Arial;font-size:20px;font-style:normal;font-weight:normal;text-anchor:end;" transform="rotate(-0, 91.995, 47.350639)" x="91.995" y="47.350639">20</text>
     </g>
    </g>
    <g id="text_10">
     <!-- $Δε(M^{−1}·cm^{−1})$ -->
     <g style="fill:#262626;" transform="translate(49.6975 231.903125)rotate(-90)">
      <text>
       <tspan style="font-family:DejaVu Sans;font-size:22px;font-style:book;font-weight:book;" x="0 26.941406 79.351439 144.198112" y="-0.35625000000000284">Δ(·)</tspan>
       <tspan style="font-family:DejaVu Sans;font-size:22px;font-style:oblique;font-weight:oblique;" x="15.049805 35.524414 86.344603 98.440306" y="-0.35625000000000284">εMcm</tspan>
       <tspan style="font-family:DejaVu Sans;font-size:15.4px;font-style:book;font-weight:book;" x="56.048411 68.951927 120.895085 133.7986" y="-8.778125000000003">−1−1</tspan>
      </text>
     </g>
    </g>
   </g>
   <g id="PolyCollection_1">
    <path clip-path="url(#p54837fc914)" d="M 100.995 248.118604 
L 100.995 248.118604 
L 103.425825 247.65536 
L 105.85665 247.926445 
L 108.287475 248.34261 
L 110.7183 251.004078 
L 113.149125 253.410021 
L 115.57995 255.90611 
L 118.010775 259.405821 
L 120.4416 264.318783 
L 122.872425 268.466761 
L 125.30325 270.483239 
L 127.734075 270.292971 
L 130.1649 268.941794 
L 132.595725 266.632108 
L 135.02655 263.35104 
L 137.457375 260.048713 
L 139.8882 256.782031 
L 142.319025 254.131936 
L 144.74985 252.02512 
L 147.180675 250.499856 
L 149.6115 248.925247 
L 152.042325 247.966928 
L 154.47315 246.756805 
L 156.903975 243.788347 
L 159.3348 240.127587 
L 161.765625 236.151191 
L 164.19645 233.37991 
L 166.627275 229.635087 
L 169.0581 225.344044 
L 171.488925 217.684976 
L 173.91975 210.244889 
L 176.350575 203.623499 
L 178.7814 197.837391 
L 181.212225 190.938169 
L 183.64305 183.300695 
L 186.073875 176.054133 
L 188.5047 171.262259 
L 190.935525 167.881586 
L 193.36635 165.754434 
L 195.797175 163.591798 
L 198.228 161.770728 
L 200.658825 160.418601 
L 203.08965 159.514608 
L 205.520475 159.896906 
L 207.9513 161.36822 
L 210.382125 163.534174 
L 212.81295 165.72839 
L 215.243775 167.789913 
L 217.6746 170.142138 
L 220.105425 172.650778 
L 222.53625 175.445793 
L 224.967075 177.739501 
L 227.3979 179.682206 
L 229.828725 181.182822 
L 232.25955 183.859143 
L 234.690375 186.899902 
L 237.1212 190.124769 
L 239.552025 192.503584 
L 241.98285 194.961465 
L 244.413675 198.349687 
L 246.8445 202.659909 
L 249.275325 206.034706 
L 251.70615 208.639731 
L 254.136975 210.779467 
L 256.5678 212.348926 
L 258.998625 213.214029 
L 261.42945 213.360042 
L 263.860275 213.738692 
L 266.2911 214.14166 
L 268.721925 214.330772 
L 271.15275 214.768037 
L 273.583575 215.017934 
L 276.0144 214.507883 
L 278.445225 212.876248 
L 280.87605 211.195252 
L 283.306875 209.834196 
L 285.7377 208.577616 
L 288.168525 207.690239 
L 290.59935 206.884851 
L 293.030175 206.407175 
L 295.461 206.268588 
L 297.891825 206.219051 
L 300.32265 207.33397 
L 302.753475 208.881752 
L 305.1843 209.938516 
L 307.615125 210.793671 
L 310.04595 212.01911 
L 312.476775 214.158888 
L 314.9076 216.101568 
L 317.338425 218.015658 
L 319.76925 219.955335 
L 322.200075 221.84104 
L 324.6309 222.843092 
L 327.061725 223.601467 
L 329.49255 224.62524 
L 331.923375 225.505957 
L 334.3542 225.249702 
L 336.785025 223.691127 
L 339.21585 222.060169 
L 341.646675 220.902583 
L 344.0775 219.177349 
L 344.0775 219.177349 
L 344.0775 219.177349 
L 341.646675 220.902583 
L 339.21585 222.060169 
L 336.785025 223.691127 
L 334.3542 225.249702 
L 331.923375 225.505957 
L 329.49255 224.62524 
L 327.061725 223.601467 
L 324.6309 222.843092 
L 322.200075 221.84104 
L 319.76925 219.955335 
L 317.338425 218.015658 
L 314.9076 216.101568 
L 312.476775 214.158888 
L 310.04595 212.01911 
L 307.615125 210.793671 
L 305.1843 209.938516 
L 302.753475 208.881752 
L 300.32265 207.33397 
L 297.891825 206.219051 
L 295.461 206.268588 
L 293.030175 206.407175 
L 290.59935 206.884851 
L 288.168525 207.690239 
L 285.7377 208.577616 
L 283.306875 209.834196 
L 280.87605 211.195252 
L 278.445225 212.876248 
L 276.0144 214.507883 
L 273.583575 215.017934 
L 271.15275 214.768037 
L 268.721925 214.330772 
L 266.2911 214.14166 
L 263.860275 213.738692 
L 261.42945 213.360042 
L 258.998625 213.214029 
L 256.5678 212.348926 
L 254.136975 210.779467 
L 251.70615 208.639731 
L 249.275325 206.034706 
L 246.8445 202.659909 
L 244.413675 198.349687 
L 241.98285 194.961465 
L 239.552025 192.503584 
L 237.1212 190.124769 
L 234.690375 186.899902 
L 232.25955 183.859143 
L 229.828725 181.182822 
L 227.3979 179.682206 
L 224.967075 177.739501 
L 222.53625 175.445793 
L 220.105425 172.650778 
L 217.6746 170.142138 
L 215.243775 167.789913 
L 212.81295 165.72839 
L 210.382125 163.534174 
L 207.9513 161.36822 
L 205.520475 159.896906 
L 203.08965 159.514608 
L 200.658825 160.418601 
L 198.228 161.770728 
L 195.797175 163.591798 
L 193.36635 165.754434 
L 190.935525 167.881586 
L 188.5047 171.262259 
L 186.073875 176.054133 
L 183.64305 183.300695 
L 181.212225 190.938169 
L 178.7814 197.837391 
L 176.350575 203.623499 
L 173.91975 210.244889 
L 171.488925 217.684976 
L 169.0581 225.344044 
L 166.627275 229.635087 
L 164.19645 233.37991 
L 161.765625 236.151191 
L 159.3348 240.127587 
L 156.903975 243.788347 
L 154.47315 246.756805 
L 152.042325 247.966928 
L 149.6115 248.925247 
L 147.180675 250.499856 
L 144.74985 252.02512 
L 142.319025 254.131936 
L 139.8882 256.782031 
L 137.457375 260.048713 
L 135.02655 263.35104 
L 132.595725 266.632108 
L 130.1649 268.941794 
L 127.734075 270.292971 
L 125.30325 270.483239 
L 122.872425 268.466761 
L 120.4416 264.318783 
L 118.010775 259.405821 
L 115.57995 255.90611 
L 113.149125 253.410021 
L 110.7183 251.004078 
L 108.287475 248.34261 
L 105.85665 247.926445 
L 103.425825 247.65536 
L 100.995 248.118604 
z
" style="fill:#0072b2;fill-opacity:0.2;"/>
   </g>
   <g id="PolyCollection_2">
    <path clip-path="url(#p54837fc914)" d="M 100.995 71.618353 
L 100.995 71.618353 
L 103.425825 73.876151 
L 105.85665 78.97259 
L 108.287475 85.760083 
L 110.7183 93.323949 
L 113.149125 100.479768 
L 115.57995 108.482489 
L 118.010775 116.23208 
L 120.4416 122.942746 
L 122.872425 129.279377 
L 125.30325 136.836308 
L 127.734075 145.293421 
L 130.1649 154.505109 
L 132.595725 162.801061 
L 135.02655 171.755899 
L 137.457375 179.854509 
L 139.8882 184.596205 
L 142.319025 187.541802 
L 144.74985 189.552115 
L 147.180675 191.266203 
L 149.6115 193.135255 
L 152.042325 194.180317 
L 154.47315 194.412671 
L 156.903975 194.658437 
L 159.3348 193.481936 
L 161.765625 190.079983 
L 164.19645 183.180512 
L 166.627275 173.850303 
L 169.0581 163.592593 
L 171.488925 151.594157 
L 173.91975 138.937267 
L 176.350575 126.151335 
L 178.7814 113.347061 
L 181.212225 102.275693 
L 183.64305 92.482155 
L 186.073875 83.778224 
L 188.5047 76.230535 
L 190.935525 69.510001 
L 193.36635 62.742579 
L 195.797175 56.166355 
L 198.228 49.175287 
L 200.658825 44.295929 
L 203.08965 41.199514 
L 205.520475 40.423011 
L 207.9513 41.233286 
L 210.382125 43.086335 
L 212.81295 46.314707 
L 215.243775 50.551607 
L 217.6746 55.571343 
L 220.105425 60.843715 
L 222.53625 66.926712 
L 224.967075 73.972654 
L 227.3979 81.572321 
L 229.828725 89.320218 
L 232.25955 97.090924 
L 234.690375 104.044352 
L 237.1212 110.114146 
L 239.552025 115.339578 
L 241.98285 120.543147 
L 244.413675 125.005793 
L 246.8445 128.461699 
L 249.275325 130.233082 
L 251.70615 130.665455 
L 254.136975 131.248475 
L 256.5678 131.657688 
L 258.998625 132.617567 
L 261.42945 133.224958 
L 263.860275 134.219922 
L 266.2911 136.392161 
L 268.721925 138.551537 
L 271.15275 141.323354 
L 273.583575 143.001997 
L 276.0144 144.961982 
L 278.445225 146.340515 
L 280.87605 148.159051 
L 283.306875 149.725011 
L 285.7377 151.000662 
L 288.168525 151.427072 
L 290.59935 151.05902 
L 293.030175 150.502859 
L 295.461 150.218563 
L 297.891825 150.34316 
L 300.32265 151.014831 
L 302.753475 150.949293 
L 305.1843 150.731563 
L 307.615125 150.531402 
L 310.04595 151.193878 
L 312.476775 153.216524 
L 314.9076 154.671432 
L 317.338425 156.750603 
L 319.76925 158.82099 
L 322.200075 161.442129 
L 324.6309 163.776308 
L 327.061725 164.843218 
L 329.49255 166.442516 
L 331.923375 167.431311 
L 334.3542 168.129418 
L 336.785025 168.053718 
L 339.21585 168.311729 
L 341.646675 168.059786 
L 344.0775 167.905631 
L 344.0775 167.905631 
L 344.0775 167.905631 
L 341.646675 168.059786 
L 339.21585 168.311729 
L 336.785025 168.053718 
L 334.3542 168.129418 
L 331.923375 167.431311 
L 329.49255 166.442516 
L 327.061725 164.843218 
L 324.6309 163.776308 
L 322.200075 161.442129 
L 319.76925 158.82099 
L 317.338425 156.750603 
L 314.9076 154.671432 
L 312.476775 153.216524 
L 310.04595 151.193878 
L 307.615125 150.531402 
L 305.1843 150.731563 
L 302.753475 150.949293 
L 300.32265 151.014831 
L 297.891825 150.34316 
L 295.461 150.218563 
L 293.030175 150.502859 
L 290.59935 151.05902 
L 288.168525 151.427072 
L 285.7377 151.000662 
L 283.306875 149.725011 
L 280.87605 148.159051 
L 278.445225 146.340515 
L 276.0144 144.961982 
L 273.583575 143.001997 
L 271.15275 141.323354 
L 268.721925 138.551537 
L 266.2911 136.392161 
L 263.860275 134.219922 
L 261.42945 133.224958 
L 258.998625 132.617567 
L 256.5678 131.657688 
L 254.136975 131.248475 
L 251.70615 130.665455 
L 249.275325 130.233082 
L 246.8445 128.461699 
L 244.413675 125.005793 
L 241.98285 120.543147 
L 239.552025 115.339578 
L 237.1212 110.114146 
L 234.690375 104.044352 
L 232.25955 97.090924 
L 229.828725 89.320218 
L 227.3979 81.572321 
L 224.967075 73.972654 
L 222.53625 66.926712 
L 220.105425 60.843715 
L 217.6746 55.571343 
L 215.243775 50.551607 
L 212.81295 46.314707 
L 210.382125 43.086335 
L 207.9513 41.233286 
L 205.520475 40.423011 
L 203.08965 41.199514 
L 200.658825 44.295929 
L 198.228 49.175287 
L 195.797175 56.166355 
L 193.36635 62.742579 
L 190.935525 69.510001 
L 188.5047 76.230535 
L 186.073875 83.778224 
L 183.64305 92.482155 
L 181.212225 102.275693 
L 178.7814 113.347061 
L 176.350575 126.151335 
L 173.91975 138.937267 
L 171.488925 151.594157 
L 169.0581 163.592593 
L 166.627275 173.850303 
L 164.19645 183.180512 
L 161.765625 190.079983 
L 159.3348 193.481936 
L 156.903975 194.658437 
L 154.47315 194.412671 
L 152.042325 194.180317 
L 149.6115 193.135255 
L 147.180675 191.266203 
L 144.74985 189.552115 
L 142.319025 187.541802 
L 139.8882 184.596205 
L 137.457375 179.854509 
L 135.02655 171.755899 
L 132.595725 162.801061 
L 130.1649 154.505109 
L 127.734075 145.293421 
L 125.30325 136.836308 
L 122.872425 129.279377 
L 120.4416 122.942746 
L 118.010775 116.23208 
L 115.57995 108.482489 
L 113.149125 100.479768 
L 110.7183 93.323949 
L 108.287475 85.760083 
L 105.85665 78.97259 
L 103.425825 73.876151 
L 100.995 71.618353 
z
" style="fill:#d55e00;fill-opacity:0.2;"/>
   </g>
   <g id="line2d_9">
    <path clip-path="url(#p54837fc914)" d="M 100.995 248.118604 
L 103.425825 247.65536 
L 105.85665 247.926445 
L 108.287475 248.34261 
L 110.7183 251.004078 
L 113.149125 253.410021 
L 115.57995 255.90611 
L 118.010775 259.405821 
L 120.4416 264.318783 
L 122.872425 268.466761 
L 125.30325 270.483239 
L 127.734075 270.292971 
L 130.1649 268.941794 
L 132.595725 266.632108 
L 135.02655 263.35104 
L 137.457375 260.048713 
L 139.8882 256.782031 
L 142.319025 254.131936 
L 144.74985 252.02512 
L 147.180675 250.499856 
L 149.6115 248.925247 
L 152.042325 247.966928 
L 154.47315 246.756805 
L 156.903975 243.788347 
L 159.3348 240.127587 
L 161.765625 236.151191 
L 164.19645 233.37991 
L 166.627275 229.635087 
L 169.0581 225.344044 
L 171.488925 217.684976 
L 173.91975 210.244889 
L 176.350575 203.623499 
L 178.7814 197.837391 
L 181.212225 190.938169 
L 183.64305 183.300695 
L 186.073875 176.054133 
L 188.5047 171.262259 
L 190.935525 167.881586 
L 193.36635 165.754434 
L 195.797175 163.591798 
L 198.228 161.770728 
L 200.658825 160.418601 
L 203.08965 159.514608 
L 205.520475 159.896906 
L 207.9513 161.36822 
L 210.382125 163.534174 
L 212.81295 165.72839 
L 215.243775 167.789913 
L 217.6746 170.142138 
L 220.105425 172.650778 
L 222.53625 175.445793 
L 224.967075 177.739501 
L 227.3979 179.682206 
L 229.828725 181.182822 
L 232.25955 183.859143 
L 234.690375 186.899902 
L 237.1212 190.124769 
L 239.552025 192.503584 
L 241.98285 194.961465 
L 244.413675 198.349687 
L 246.8445 202.659909 
L 249.275325 206.034706 
L 251.70615 208.639731 
L 254.136975 210.779467 
L 256.5678 212.348926 
L 258.998625 213.214029 
L 261.42945 213.360042 
L 263.860275 213.738692 
L 266.2911 214.14166 
L 268.721925 214.330772 
L 271.15275 214.768037 
L 273.583575 215.017934 
L 276.0144 214.507883 
L 278.445225 212.876248 
L 280.87605 211.195252 
L 283.306875 209.834196 
L 285.7377 208.577616 
L 288.168525 207.690239 
L 290.59935 206.884851 
L 293.030175 206.407175 
L 295.461 206.268588 
L 297.891825 206.219051 
L 300.32265 207.33397 
L 302.753475 208.881752 
L 305.1843 209.938516 
L 307.615125 210.793671 
L 310.04595 212.01911 
L 312.476775 214.158888 
L 314.9076 216.101568 
L 317.338425 218.015658 
L 319.76925 219.955335 
L 322.200075 221.84104 
L 324.6309 222.843092 
L 327.061725 223.601467 
L 329.49255 224.62524 
L 331.923375 225.505957 
L 334.3542 225.249702 
L 336.785025 223.691127 
L 339.21585 222.060169 
L 341.646675 220.902583 
L 344.0775 219.177349 
" style="fill:none;stroke:#0072b2;stroke-linecap:round;stroke-width:1.75;"/>
   </g>
   <g id="line2d_10">
    <path clip-path="url(#p54837fc914)" d="M 100.995 71.618353 
L 103.425825 73.876151 
L 105.85665 78.97259 
L 108.287475 85.760083 
L 110.7183 93.323949 
L 113.149125 100.479768 
L 115.57995 108.482489 
L 118.010775 116.23208 
L 120.4416 122.942746 
L 122.872425 129.279377 
L 125.30325 136.836308 
L 127.734075 145.293421 
L 130.1649 154.505109 
L 132.595725 162.801061 
L 135.02655 171.755899 
L 137.457375 179.854509 
L 139.8882 184.596205 
L 142.319025 187.541802 
L 144.74985 189.552115 
L 147.180675 191.266203 
L 149.6115 193.135255 
L 152.042325 194.180317 
L 154.47315 194.412671 
L 156.903975 194.658437 
L 159.3348 193.481936 
L 161.765625 190.079983 
L 164.19645 183.180512 
L 166.627275 173.850303 
L 169.0581 163.592593 
L 171.488925 151.594157 
L 173.91975 138.937267 
L 176.350575 126.151335 
L 178.7814 113.347061 
L 181.212225 102.275693 
L 183.64305 92.482155 
L 186.073875 83.778224 
L 188.5047 76.230535 
L 190.935525 69.510001 
L 193.36635 62.742579 
L 195.797175 56.166355 
L 198.228 49.175287 
L 200.658825 44.295929 
L 203.08965 41.199514 
L 205.520475 40.423011 
L 207.9513 41.233286 
L 210.382125 43.086335 
L 212.81295 46.314707 
L 215.243775 50.551607 
L 217.6746 55.571343 
L 220.105425 60.843715 
L 222.53625 66.926712 
L 224.967075 73.972654 
L 227.3979 81.572321 
L 229.828725 89.320218 
L 232.25955 97.090924 
L 234.690375 104.044352 
L 237.1212 110.114146 
L 239.552025 115.339578 
L 241.98285 120.543147 
L 244.413675 125.005793 
L 246.8445 128.461699 
L 249.275325 130.233082 
L 251.70615 130.665455 
L 254.136975 131.248475 
L 256.5678 131.657688 
L 258.998625 132.617567 
L 261.42945 133.224958 
L 263.860275 134.219922 
L 266.2911 136.392161 
L 268.721925 138.551537 
L 271.15275 141.323354 
L 273.583575 143.001997 
L 276.0144 144.961982 
L 278.445225 146.340515 
L 280.87605 148.159051 
L 283.306875 149.725011 
L 285.7377 151.000662 
L 288.168525 151.427072 
L 290.59935 151.05902 
L 293.030175 150.502859 
L 295.461 150.218563 
L 297.891825 150.34316 
L 300.32265 151.014831 
L 302.753475 150.949293 
L 305.1843 150.731563 
L 307.615125 150.531402 
L 310.04595 151.193878 
L 312.476775 153.216524 
L 314.9076 154.671432 
L 317.338425 156.750603 
L 319.76925 158.82099 
L 322.200075 161.442129 
L 324.6309 163.776308 
L 327.061725 164.843218 
L 329.49255 166.442516 
L 331.923375 167.431311 
L 334.3542 168.129418 
L 336.785025 168.053718 
L 339.21585 168.311729 
L 341.646675 168.059786 
L 344.0775 167.905631 
" style="fill:none;stroke:#d55e00;stroke-linecap:round;stroke-width:1.75;"/>
   </g>
   <g id="patch_3">
    <path d="M 100.995 281.98625 
L 100.995 28.92 
" style="fill:none;stroke:#262626;stroke-linecap:square;stroke-linejoin:miter;stroke-width:1.25;"/>
   </g>
   <g id="patch_4">
    <path d="M 344.0775 281.98625 
L 344.0775 28.92 
" style="fill:none;stroke:#262626;stroke-linecap:square;stroke-linejoin:miter;stroke-width:1.25;"/>
   </g>
   <g id="patch_5">
    <path d="M 100.995 281.98625 
L 344.0775 281.98625 
" style="fill:none;stroke:#262626;stroke-linecap:square;stroke-linejoin:miter;stroke-width:1.25;"/>
   </g>
   <g id="patch_6">
    <path d="M 100.995 28.92 
L 344.0775 28.92 
" style="fill:none;stroke:#262626;stroke-linecap:square;stroke-linejoin:miter;stroke-width:1.25;"/>
   </g>
  </g>
  <g id="axes_2">
   <g id="patch_7">
    <path d="M 375.9975 281.98625 
L 619.08 281.98625 
L 619.08 28.92 
L 375.9975 28.92 
z
" style="fill:#ffffff;"/>
   </g>
   <g id="matplotlib.axis_3">
    <g id="xtick_5">
     <g id="line2d_11">
      <g>
       <use style="fill:#262626;stroke:#262626;" x="388.151625" xlink:href="#m82f4d0cfa0" y="281.98625"/>
      </g>
     </g>
     <g id="text_11">
      <text style="fill:#262626;font-family:Arial;font-size:20px;font-style:normal;font-weight:normal;text-anchor:middle;" transform="rotate(-0, 388.151625, 305.301875)" x="388.151625" y="305.301875">225</text>
     </g>
    </g>
    <g id="xtick_6">
     <g id="line2d_12">
      <g>
       <use style="fill:#262626;stroke:#262626;" x="448.92225" xlink:href="#m82f4d0cfa0" y="281.98625"/>
      </g>
     </g>
     <g id="text_12">
      <text style="fill:#262626;font-family:Arial;font-size:20px;font-style:normal;font-weight:normal;text-anchor:middle;" transform="rotate(-0, 448.92225, 305.301875)" x="448.92225" y="305.301875">250</text>
     </g>
    </g>
    <g id="xtick_7">
     <g id="line2d_13">
      <g>
       <use style="fill:#262626;stroke:#262626;" x="509.692875" xlink:href="#m82f4d0cfa0" y="281.98625"/>
      </g>
     </g>
     <g id="text_13">
      <text style="fill:#262626;font-family:Arial;font-size:20px;font-style:normal;font-weight:normal;text-anchor:middle;" transform="rotate(-0, 509.692875, 305.301875)" x="509.692875" y="305.301875">275</text>
     </g>
    </g>
    <g id="xtick_8">
     <g id="line2d_14">
      <g>
       <use style="fill:#262626;stroke:#262626;" x="570.4635" xlink:href="#m82f4d0cfa0" y="281.98625"/>
      </g>
     </g>
     <g id="text_14">
      <text style="fill:#262626;font-family:Arial;font-size:20px;font-style:normal;font-weight:normal;text-anchor:middle;" transform="rotate(-0, 570.4635, 305.301875)" x="570.4635" y="305.301875">300</text>
     </g>
    </g>
    <g id="text_15">
     <text style="fill:#262626;font-family:Arial;font-size:22px;font-style:normal;font-weight:normal;text-anchor:middle;" transform="rotate(-0, 497.53875, 329.292188)" x="497.53875" y="329.292188">Wavelength (nm)</text>
    </g>
   </g>
   <g id="matplotlib.axis_4">
    <g id="ytick_5">
     <g id="line2d_15">
      <g>
       <use style="fill:#262626;stroke:#262626;" x="375.9975" xlink:href="#m8026b43d7f" y="278.623424"/>
      </g>
     </g>
    </g>
    <g id="ytick_6">
     <g id="line2d_16">
      <g>
       <use style="fill:#262626;stroke:#262626;" x="375.9975" xlink:href="#m8026b43d7f" y="199.146558"/>
      </g>
     </g>
    </g>
    <g id="ytick_7">
     <g id="line2d_17">
      <g>
       <use style="fill:#262626;stroke:#262626;" x="375.9975" xlink:href="#m8026b43d7f" y="119.669692"/>
      </g>
     </g>
    </g>
    <g id="ytick_8">
     <g id="line2d_18">
      <g>
       <use style="fill:#262626;stroke:#262626;" x="375.9975" xlink:href="#m8026b43d7f" y="40.192827"/>
      </g>
     </g>
    </g>
   </g>
   <g id="PolyCollection_3">
    <path clip-path="url(#p034a3772f1)" d="M 375.9975 149.46689 
L 375.9975 149.46689 
L 378.428325 149.523861 
L 380.85915 150.568231 
L 383.289975 151.079291 
L 385.7208 152.057253 
L 388.151625 153.851539 
L 390.58245 157.994057 
L 393.013275 163.776321 
L 395.4441 170.731332 
L 397.874925 176.037107 
L 400.30575 179.605397 
L 402.736575 181.730844 
L 405.1674 184.651145 
L 407.598225 187.111881 
L 410.02905 187.185343 
L 412.459875 186.449722 
L 414.8907 183.956992 
L 417.321525 182.490478 
L 419.75235 182.599438 
L 422.183175 183.537579 
L 424.614 184.245394 
L 427.044825 183.833822 
L 429.47565 182.845416 
L 431.906475 181.383859 
L 434.3373 180.362947 
L 436.768125 177.95288 
L 439.19895 174.628232 
L 441.629775 171.427318 
L 444.0606 168.742628 
L 446.491425 166.587919 
L 448.92225 165.477157 
L 451.353075 164.618184 
L 453.7839 164.352574 
L 456.214725 163.614923 
L 458.64555 162.911348 
L 461.076375 162.652382 
L 463.5072 163.465736 
L 465.938025 164.874394 
L 468.36885 165.590469 
L 470.799675 166.982732 
L 473.2305 167.640632 
L 475.661325 168.430685 
L 478.09215 167.86908 
L 480.522975 167.013643 
L 482.9538 166.595671 
L 485.384625 165.452169 
L 487.81545 164.339305 
L 490.246275 163.177381 
L 492.6771 162.145608 
L 495.107925 161.05347 
L 497.53875 159.404335 
L 499.969575 157.646747 
L 502.4004 155.877849 
L 504.831225 154.099479 
L 507.26205 153.256422 
L 509.692875 152.607049 
L 512.1237 152.467345 
L 514.554525 152.203725 
L 516.98535 151.443484 
L 519.416175 151.800481 
L 521.847 152.323286 
L 524.277825 153.476778 
L 526.70865 154.23945 
L 529.139475 154.915266 
L 531.5703 154.785163 
L 534.001125 153.993397 
L 536.43195 153.602995 
L 538.862775 154.275384 
L 541.2936 156.13211 
L 543.724425 157.912596 
L 546.15525 160.532109 
L 548.586075 163.328251 
L 551.0169 166.184023 
L 553.447725 168.705601 
L 555.87855 170.901895 
L 558.309375 172.903849 
L 560.7402 175.006668 
L 563.171025 177.080468 
L 565.60185 179.419129 
L 568.032675 180.9526 
L 570.4635 182.016331 
L 572.894325 181.790034 
L 575.32515 182.129569 
L 577.755975 183.225438 
L 580.1868 183.880548 
L 582.617625 184.342764 
L 585.04845 183.999122 
L 587.479275 183.855236 
L 589.9101 183.563055 
L 592.340925 183.198476 
L 594.77175 183.042885 
L 597.202575 183.263138 
L 599.6334 183.619372 
L 602.064225 183.509123 
L 604.49505 183.969944 
L 606.925875 184.548227 
L 609.3567 184.350409 
L 611.787525 184.034887 
L 614.21835 184.081124 
L 616.649175 183.67522 
L 619.08 182.963294 
L 619.08 182.963294 
L 619.08 182.963294 
L 616.649175 183.67522 
L 614.21835 184.081124 
L 611.787525 184.034887 
L 609.3567 184.350409 
L 606.925875 184.548227 
L 604.49505 183.969944 
L 602.064225 183.509123 
L 599.6334 183.619372 
L 597.202575 183.263138 
L 594.77175 183.042885 
L 592.340925 183.198476 
L 589.9101 183.563055 
L 587.479275 183.855236 
L 585.04845 183.999122 
L 582.617625 184.342764 
L 580.1868 183.880548 
L 577.755975 183.225438 
L 575.32515 182.129569 
L 572.894325 181.790034 
L 570.4635 182.016331 
L 568.032675 180.9526 
L 565.60185 179.419129 
L 563.171025 177.080468 
L 560.7402 175.006668 
L 558.309375 172.903849 
L 555.87855 170.901895 
L 553.447725 168.705601 
L 551.0169 166.184023 
L 548.586075 163.328251 
L 546.15525 160.532109 
L 543.724425 157.912596 
L 541.2936 156.13211 
L 538.862775 154.275384 
L 536.43195 153.602995 
L 534.001125 153.993397 
L 531.5703 154.785163 
L 529.139475 154.915266 
L 526.70865 154.23945 
L 524.277825 153.476778 
L 521.847 152.323286 
L 519.416175 151.800481 
L 516.98535 151.443484 
L 514.554525 152.203725 
L 512.1237 152.467345 
L 509.692875 152.607049 
L 507.26205 153.256422 
L 504.831225 154.099479 
L 502.4004 155.877849 
L 499.969575 157.646747 
L 497.53875 159.404335 
L 495.107925 161.05347 
L 492.6771 162.145608 
L 490.246275 163.177381 
L 487.81545 164.339305 
L 485.384625 165.452169 
L 482.9538 166.595671 
L 480.522975 167.013643 
L 478.09215 167.86908 
L 475.661325 168.430685 
L 473.2305 167.640632 
L 470.799675 166.982732 
L 468.36885 165.590469 
L 465.938025 164.874394 
L 463.5072 163.465736 
L 461.076375 162.652382 
L 458.64555 162.911348 
L 456.214725 163.614923 
L 453.7839 164.352574 
L 451.353075 164.618184 
L 448.92225 165.477157 
L 446.491425 166.587919 
L 444.0606 168.742628 
L 441.629775 171.427318 
L 439.19895 174.628232 
L 436.768125 177.95288 
L 434.3373 180.362947 
L 431.906475 181.383859 
L 429.47565 182.845416 
L 427.044825 183.833822 
L 424.614 184.245394 
L 422.183175 183.537579 
L 419.75235 182.599438 
L 417.321525 182.490478 
L 414.8907 183.956992 
L 412.459875 186.449722 
L 410.02905 187.185343 
L 407.598225 187.111881 
L 405.1674 184.651145 
L 402.736575 181.730844 
L 400.30575 179.605397 
L 397.874925 176.037107 
L 395.4441 170.731332 
L 393.013275 163.776321 
L 390.58245 157.994057 
L 388.151625 153.851539 
L 385.7208 152.057253 
L 383.289975 151.079291 
L 380.85915 150.568231 
L 378.428325 149.523861 
L 375.9975 149.46689 
z
" style="fill:#0072b2;fill-opacity:0.2;"/>
   </g>
   <g id="PolyCollection_4">
    <path clip-path="url(#p034a3772f1)" d="M 375.9975 200.123453 
L 375.9975 200.123453 
L 378.428325 202.493712 
L 380.85915 207.536578 
L 383.289975 212.855388 
L 385.7208 217.595337 
L 388.151625 222.338607 
L 390.58245 228.980219 
L 393.013275 236.769853 
L 395.4441 244.88937 
L 397.874925 251.451258 
L 400.30575 257.349538 
L 402.736575 260.761467 
L 405.1674 262.537919 
L 407.598225 262.978885 
L 410.02905 263.153167 
L 412.459875 263.431439 
L 414.8907 263.721406 
L 417.321525 263.629794 
L 419.75235 264.707879 
L 422.183175 266.026531 
L 424.614 266.023593 
L 427.044825 264.25079 
L 429.47565 261.913434 
L 431.906475 261.163975 
L 434.3373 261.10545 
L 436.768125 259.897471 
L 439.19895 256.4294 
L 441.629775 251.941273 
L 444.0606 248.137678 
L 446.491425 244.377635 
L 448.92225 240.157379 
L 451.353075 234.840441 
L 453.7839 229.018499 
L 456.214725 222.564225 
L 458.64555 216.537338 
L 461.076375 210.866544 
L 463.5072 207.068244 
L 465.938025 204.83914 
L 468.36885 203.536034 
L 470.799675 202.960715 
L 473.2305 202.560802 
L 475.661325 201.938311 
L 478.09215 201.172765 
L 480.522975 200.326313 
L 482.9538 199.874579 
L 485.384625 200.238994 
L 487.81545 201.252649 
L 490.246275 203.046755 
L 492.6771 205.339152 
L 495.107925 208.023378 
L 497.53875 211.512233 
L 499.969575 214.939886 
L 502.4004 217.709915 
L 504.831225 220.214203 
L 507.26205 222.391921 
L 509.692875 224.487256 
L 512.1237 226.067869 
L 514.554525 227.35606 
L 516.98535 229.56208 
L 519.416175 231.553997 
L 521.847 233.408756 
L 524.277825 233.759806 
L 526.70865 232.401719 
L 529.139475 230.902897 
L 531.5703 228.914232 
L 534.001125 226.84919 
L 536.43195 225.729659 
L 538.862775 225.323354 
L 541.2936 226.405023 
L 543.724425 227.760357 
L 546.15525 229.691159 
L 548.586075 232.012952 
L 551.0169 234.607103 
L 553.447725 237.52341 
L 555.87855 240.211831 
L 558.309375 242.33443 
L 560.7402 243.269039 
L 563.171025 243.355531 
L 565.60185 242.528688 
L 568.032675 241.395198 
L 570.4635 239.82026 
L 572.894325 238.770209 
L 575.32515 237.601452 
L 577.755975 235.457231 
L 580.1868 232.535979 
L 582.617625 229.172378 
L 585.04845 226.389377 
L 587.479275 225.741922 
L 589.9101 225.588959 
L 592.340925 225.995454 
L 594.77175 226.885267 
L 597.202575 227.049437 
L 599.6334 227.195388 
L 602.064225 226.674753 
L 604.49505 226.003931 
L 606.925875 225.405147 
L 609.3567 224.869861 
L 611.787525 224.422763 
L 614.21835 223.978307 
L 616.649175 222.454628 
L 619.08 220.282275 
L 619.08 220.282275 
L 619.08 220.282275 
L 616.649175 222.454628 
L 614.21835 223.978307 
L 611.787525 224.422763 
L 609.3567 224.869861 
L 606.925875 225.405147 
L 604.49505 226.003931 
L 602.064225 226.674753 
L 599.6334 227.195388 
L 597.202575 227.049437 
L 594.77175 226.885267 
L 592.340925 225.995454 
L 589.9101 225.588959 
L 587.479275 225.741922 
L 585.04845 226.389377 
L 582.617625 229.172378 
L 580.1868 232.535979 
L 577.755975 235.457231 
L 575.32515 237.601452 
L 572.894325 238.770209 
L 570.4635 239.82026 
L 568.032675 241.395198 
L 565.60185 242.528688 
L 563.171025 243.355531 
L 560.7402 243.269039 
L 558.309375 242.33443 
L 555.87855 240.211831 
L 553.447725 237.52341 
L 551.0169 234.607103 
L 548.586075 232.012952 
L 546.15525 229.691159 
L 543.724425 227.760357 
L 541.2936 226.405023 
L 538.862775 225.323354 
L 536.43195 225.729659 
L 534.001125 226.84919 
L 531.5703 228.914232 
L 529.139475 230.902897 
L 526.70865 232.401719 
L 524.277825 233.759806 
L 521.847 233.408756 
L 519.416175 231.553997 
L 516.98535 229.56208 
L 514.554525 227.35606 
L 512.1237 226.067869 
L 509.692875 224.487256 
L 507.26205 222.391921 
L 504.831225 220.214203 
L 502.4004 217.709915 
L 499.969575 214.939886 
L 497.53875 211.512233 
L 495.107925 208.023378 
L 492.6771 205.339152 
L 490.246275 203.046755 
L 487.81545 201.252649 
L 485.384625 200.238994 
L 482.9538 199.874579 
L 480.522975 200.326313 
L 478.09215 201.172765 
L 475.661325 201.938311 
L 473.2305 202.560802 
L 470.799675 202.960715 
L 468.36885 203.536034 
L 465.938025 204.83914 
L 463.5072 207.068244 
L 461.076375 210.866544 
L 458.64555 216.537338 
L 456.214725 222.564225 
L 453.7839 229.018499 
L 451.353075 234.840441 
L 448.92225 240.157379 
L 446.491425 244.377635 
L 444.0606 248.137678 
L 441.629775 251.941273 
L 439.19895 256.4294 
L 436.768125 259.897471 
L 434.3373 261.10545 
L 431.906475 261.163975 
L 429.47565 261.913434 
L 427.044825 264.25079 
L 424.614 266.023593 
L 422.183175 266.026531 
L 419.75235 264.707879 
L 417.321525 263.629794 
L 414.8907 263.721406 
L 412.459875 263.431439 
L 410.02905 263.153167 
L 407.598225 262.978885 
L 405.1674 262.537919 
L 402.736575 260.761467 
L 400.30575 257.349538 
L 397.874925 251.451258 
L 395.4441 244.88937 
L 393.013275 236.769853 
L 390.58245 228.980219 
L 388.151625 222.338607 
L 385.7208 217.595337 
L 383.289975 212.855388 
L 380.85915 207.536578 
L 378.428325 202.493712 
L 375.9975 200.123453 
z
" style="fill:#d55e00;fill-opacity:0.2;"/>
   </g>
   <g id="line2d_19">
    <path clip-path="url(#p034a3772f1)" d="M 375.9975 149.46689 
L 378.428325 149.523861 
L 380.85915 150.568231 
L 383.289975 151.079291 
L 385.7208 152.057253 
L 388.151625 153.851539 
L 390.58245 157.994057 
L 393.013275 163.776321 
L 395.4441 170.731332 
L 397.874925 176.037107 
L 400.30575 179.605397 
L 402.736575 181.730844 
L 405.1674 184.651145 
L 407.598225 187.111881 
L 410.02905 187.185343 
L 412.459875 186.449722 
L 414.8907 183.956992 
L 417.321525 182.490478 
L 419.75235 182.599438 
L 422.183175 183.537579 
L 424.614 184.245394 
L 427.044825 183.833822 
L 429.47565 182.845416 
L 431.906475 181.383859 
L 434.3373 180.362947 
L 436.768125 177.95288 
L 439.19895 174.628232 
L 441.629775 171.427318 
L 444.0606 168.742628 
L 446.491425 166.587919 
L 448.92225 165.477157 
L 451.353075 164.618184 
L 453.7839 164.352574 
L 456.214725 163.614923 
L 458.64555 162.911348 
L 461.076375 162.652382 
L 463.5072 163.465736 
L 465.938025 164.874394 
L 468.36885 165.590469 
L 470.799675 166.982732 
L 473.2305 167.640632 
L 475.661325 168.430685 
L 478.09215 167.86908 
L 480.522975 167.013643 
L 482.9538 166.595671 
L 485.384625 165.452169 
L 487.81545 164.339305 
L 490.246275 163.177381 
L 492.6771 162.145608 
L 495.107925 161.05347 
L 497.53875 159.404335 
L 499.969575 157.646747 
L 502.4004 155.877849 
L 504.831225 154.099479 
L 507.26205 153.256422 
L 509.692875 152.607049 
L 512.1237 152.467345 
L 514.554525 152.203725 
L 516.98535 151.443484 
L 519.416175 151.800481 
L 521.847 152.323286 
L 524.277825 153.476778 
L 526.70865 154.23945 
L 529.139475 154.915266 
L 531.5703 154.785163 
L 534.001125 153.993397 
L 536.43195 153.602995 
L 538.862775 154.275384 
L 541.2936 156.13211 
L 543.724425 157.912596 
L 546.15525 160.532109 
L 548.586075 163.328251 
L 551.0169 166.184023 
L 553.447725 168.705601 
L 555.87855 170.901895 
L 558.309375 172.903849 
L 560.7402 175.006668 
L 563.171025 177.080468 
L 565.60185 179.419129 
L 568.032675 180.9526 
L 570.4635 182.016331 
L 572.894325 181.790034 
L 575.32515 182.129569 
L 577.755975 183.225438 
L 580.1868 183.880548 
L 582.617625 184.342764 
L 585.04845 183.999122 
L 587.479275 183.855236 
L 589.9101 183.563055 
L 592.340925 183.198476 
L 594.77175 183.042885 
L 597.202575 183.263138 
L 599.6334 183.619372 
L 602.064225 183.509123 
L 604.49505 183.969944 
L 606.925875 184.548227 
L 609.3567 184.350409 
L 611.787525 184.034887 
L 614.21835 184.081124 
L 616.649175 183.67522 
L 619.08 182.963294 
" style="fill:none;stroke:#0072b2;stroke-linecap:round;stroke-width:1.75;"/>
   </g>
   <g id="line2d_20">
    <path clip-path="url(#p034a3772f1)" d="M 375.9975 200.123453 
L 378.428325 202.493712 
L 380.85915 207.536578 
L 383.289975 212.855388 
L 385.7208 217.595337 
L 388.151625 222.338607 
L 390.58245 228.980219 
L 393.013275 236.769853 
L 395.4441 244.88937 
L 397.874925 251.451258 
L 400.30575 257.349538 
L 402.736575 260.761467 
L 405.1674 262.537919 
L 407.598225 262.978885 
L 410.02905 263.153167 
L 412.459875 263.431439 
L 414.8907 263.721406 
L 417.321525 263.629794 
L 419.75235 264.707879 
L 422.183175 266.026531 
L 424.614 266.023593 
L 427.044825 264.25079 
L 429.47565 261.913434 
L 431.906475 261.163975 
L 434.3373 261.10545 
L 436.768125 259.897471 
L 439.19895 256.4294 
L 441.629775 251.941273 
L 444.0606 248.137678 
L 446.491425 244.377635 
L 448.92225 240.157379 
L 451.353075 234.840441 
L 453.7839 229.018499 
L 456.214725 222.564225 
L 458.64555 216.537338 
L 461.076375 210.866544 
L 463.5072 207.068244 
L 465.938025 204.83914 
L 468.36885 203.536034 
L 470.799675 202.960715 
L 473.2305 202.560802 
L 475.661325 201.938311 
L 478.09215 201.172765 
L 480.522975 200.326313 
L 482.9538 199.874579 
L 485.384625 200.238994 
L 487.81545 201.252649 
L 490.246275 203.046755 
L 492.6771 205.339152 
L 495.107925 208.023378 
L 497.53875 211.512233 
L 499.969575 214.939886 
L 502.4004 217.709915 
L 504.831225 220.214203 
L 507.26205 222.391921 
L 509.692875 224.487256 
L 512.1237 226.067869 
L 514.554525 227.35606 
L 516.98535 229.56208 
L 519.416175 231.553997 
L 521.847 233.408756 
L 524.277825 233.759806 
L 526.70865 232.401719 
L 529.139475 230.902897 
L 531.5703 228.914232 
L 534.001125 226.84919 
L 536.43195 225.729659 
L 538.862775 225.323354 
L 541.2936 226.405023 
L 543.724425 227.760357 
L 546.15525 229.691159 
L 548.586075 232.012952 
L 551.0169 234.607103 
L 553.447725 237.52341 
L 555.87855 240.211831 
L 558.309375 242.33443 
L 560.7402 243.269039 
L 563.171025 243.355531 
L 565.60185 242.528688 
L 568.032675 241.395198 
L 570.4635 239.82026 
L 572.894325 238.770209 
L 575.32515 237.601452 
L 577.755975 235.457231 
L 580.1868 232.535979 
L 582.617625 229.172378 
L 585.04845 226.389377 
L 587.479275 225.741922 
L 589.9101 225.588959 
L 592.340925 225.995454 
L 594.77175 226.885267 
L 597.202575 227.049437 
L 599.6334 227.195388 
L 602.064225 226.674753 
L 604.49505 226.003931 
L 606.925875 225.405147 
L 609.3567 224.869861 
L 611.787525 224.422763 
L 614.21835 223.978307 
L 616.649175 222.454628 
L 619.08 220.282275 
" style="fill:none;stroke:#d55e00;stroke-linecap:round;stroke-width:1.75;"/>
   </g>
   <g id="line2d_21"/>
   <g id="line2d_22"/>
   <g id="patch_8">
    <path d="M 375.9975 281.98625 
L 375.9975 28.92 
" style="fill:none;stroke:#262626;stroke-linecap:square;stroke-linejoin:miter;stroke-width:1.25;"/>
   </g>
   <g id="patch_9">
    <path d="M 619.08 281.98625 
L 619.08 28.92 
" style="fill:none;stroke:#262626;stroke-linecap:square;stroke-linejoin:miter;stroke-width:1.25;"/>
   </g>
   <g id="patch_10">
    <path d="M 375.9975 281.98625 
L 619.08 281.98625 
" style="fill:none;stroke:#262626;stroke-linecap:square;stroke-linejoin:miter;stroke-width:1.25;"/>
   </g>
   <g id="patch_11">
    <path d="M 375.9975 28.92 
L 619.08 28.92 
" style="fill:none;stroke:#262626;stroke-linecap:square;stroke-linejoin:miter;stroke-width:1.25;"/>
   </g>
   <g id="legend_1">
    <g id="line2d_23">
     <path d="M 458.939375 54.235625 
L 498.939375 54.235625 
" style="fill:none;stroke:#d55e00;stroke-linecap:round;stroke-width:1.75;"/>
    </g>
    <g id="line2d_24"/>
    <g id="text_16">
     <text style="fill:#262626;font-family:Arial;font-size:20px;font-style:normal;font-weight:normal;text-anchor:start;" transform="rotate(-0, 514.939375, 61.235625)" x="514.939375" y="61.235625">50mM K+</text>
    </g>
    <g id="line2d_25">
     <path d="M 458.939375 82.52625 
L 498.939375 82.52625 
" style="fill:none;stroke:#0072b2;stroke-linecap:round;stroke-width:1.75;"/>
    </g>
    <g id="line2d_26"/>
    <g id="text_17">
     <text style="fill:#262626;font-family:Arial;font-size:20px;font-style:normal;font-weight:normal;text-anchor:start;" transform="rotate(-0, 514.939375, 89.52625)" x="514.939375" y="89.52625">0mM K+</text>
    </g>
   </g>
  </g>
 </g>
 <defs>
  <clipPath id="p54837fc914">
   <rect height="253.06625" width="243.0825" x="100.995" y="28.92"/>
  </clipPath>
  <clipPath id="p034a3772f1">
   <rect height="253.06625" width="243.0825" x="375.9975" y="28.92"/>
  </clipPath>
 </defs>
</svg>
