<?xml version="1.0" encoding="UTF-8" standalone="no"?>
<!-- Created with Inkscape (http://www.inkscape.org/) -->

<svg
   xmlns:dc="http://purl.org/dc/elements/1.1/"
   xmlns:cc="http://creativecommons.org/ns#"
   xmlns:rdf="http://www.w3.org/1999/02/22-rdf-syntax-ns#"
   xmlns:svg="http://www.w3.org/2000/svg"
   xmlns="http://www.w3.org/2000/svg"
   xmlns:xlink="http://www.w3.org/1999/xlink"
   xmlns:sodipodi="http://sodipodi.sourceforge.net/DTD/sodipodi-0.dtd"
   xmlns:inkscape="http://www.inkscape.org/namespaces/inkscape"
   width="188.94861mm"
   height="101.70796mm"
   viewBox="0 0 669.50294 360.38254"
   id="svg6106"
   version="1.1"
   inkscape:version="0.91 r13725"
   sodipodi:docname="g4rna_roc_pr.svg">
  <defs
     id="defs6108"
     style="stroke-linecap:butt;stroke-linejoin:round">
    <style
       id="style7247"
       type="text/css">
*{stroke-linecap:butt;stroke-linejoin:round;}
  </style>
  </defs>
  <sodipodi:namedview
     id="base"
     pagecolor="#ffffff"
     bordercolor="#666666"
     borderopacity="1.0"
     inkscape:pageopacity="0.0"
     inkscape:pageshadow="2"
     inkscape:zoom="0.3852489"
     inkscape:cx="187.30587"
     inkscape:cy="-161.43476"
     inkscape:document-units="px"
     inkscape:current-layer="layer1"
     showgrid="false"
     fit-margin-top="5"
     fit-margin-left="5"
     fit-margin-right="5"
     fit-margin-bottom="5"
     inkscape:window-width="1555"
     inkscape:window-height="989"
     inkscape:window-x="45"
     inkscape:window-y="0"
     inkscape:window-maximized="1" />
  <metadata
     id="metadata6111">
    <rdf:RDF>
      <cc:Work
         rdf:about="">
        <dc:format>image/svg+xml</dc:format>
        <dc:type
           rdf:resource="http://purl.org/dc/dcmitype/StillImage" />
        <dc:title></dc:title>
      </cc:Work>
    </rdf:RDF>
  </metadata>
  <g
     inkscape:label="Layer 1"
     inkscape:groupmode="layer"
     id="layer1"
     transform="translate(-25.715284,-10.544909)">
    <g
       style="stroke-linecap:butt;stroke-linejoin:round"
       id="axes_1"
       transform="matrix(0.86572016,0,0,0.86572016,39.654949,49.779773)">
      <g
         style="stroke-linecap:butt;stroke-linejoin:round"
         id="patch_2">
        <path
           inkscape:connector-curvature="0"
           d="m 65.675,303.2 288.925,0 0,-290.9 -288.925,0 z"
           style="fill:#ffffff;stroke-linecap:butt;stroke-linejoin:round"
           id="path7255" />
      </g>
      <g
         style="stroke-linecap:butt;stroke-linejoin:round"
         id="matplotlib.axis_1">
        <g
           style="stroke-linecap:butt;stroke-linejoin:round"
           id="xtick_1">
          <g
             style="stroke-linecap:butt;stroke-linejoin:round"
             id="line2d_1">
            <defs
               id="defs7260">
              <path
                 inkscape:connector-curvature="0"
                 d="M 0,0 0,2"
                 id="m3d3595af61"
                 style="stroke:#262626;stroke-linecap:butt;stroke-linejoin:round" />
            </defs>
            <g
               style="stroke-linecap:butt;stroke-linejoin:round"
               id="g7263">
              <use
                 height="100%"
                 width="100%"
                 style="fill:#262626;stroke:#262626;stroke-linecap:butt;stroke-linejoin:round"
                 x="78.807953"
                 xlink:href="#m3d3595af61"
                 y="303.20001"
                 id="use7265" />
            </g>
          </g>
          <g
             style="stroke-linecap:butt;stroke-linejoin:round"
             id="text_1">
            <text
               style="font-style:normal;font-weight:normal;font-size:20px;font-family:Arial;text-anchor:middle;fill:#262626;stroke-linecap:butt;stroke-linejoin:round"
               x="78.807953"
               y="326.51562"
               id="text7268">0.0</text>
          </g>
        </g>
        <g
           style="stroke-linecap:butt;stroke-linejoin:round"
           id="xtick_2">
          <g
             style="stroke-linecap:butt;stroke-linejoin:round"
             id="line2d_2">
            <g
               style="stroke-linecap:butt;stroke-linejoin:round"
               id="g7272">
              <use
                 height="100%"
                 width="100%"
                 style="fill:#262626;stroke:#262626;stroke-linecap:butt;stroke-linejoin:round"
                 x="210.1375"
                 xlink:href="#m3d3595af61"
                 y="303.20001"
                 id="use7274" />
            </g>
          </g>
          <g
             style="stroke-linecap:butt;stroke-linejoin:round"
             id="text_2">
            <text
               style="font-style:normal;font-weight:normal;font-size:20px;font-family:Arial;text-anchor:middle;fill:#262626;stroke-linecap:butt;stroke-linejoin:round"
               x="210.1375"
               y="326.51562"
               id="text7277">0.5</text>
          </g>
        </g>
        <g
           style="stroke-linecap:butt;stroke-linejoin:round"
           id="xtick_3">
          <g
             style="stroke-linecap:butt;stroke-linejoin:round"
             id="line2d_3">
            <g
               style="stroke-linecap:butt;stroke-linejoin:round"
               id="g7281">
              <use
                 height="100%"
                 width="100%"
                 style="fill:#262626;stroke:#262626;stroke-linecap:butt;stroke-linejoin:round"
                 x="341.46704"
                 xlink:href="#m3d3595af61"
                 y="303.20001"
                 id="use7283" />
            </g>
          </g>
          <g
             style="stroke-linecap:butt;stroke-linejoin:round"
             id="text_3">
            <text
               style="font-style:normal;font-weight:normal;font-size:20px;font-family:Arial;text-anchor:middle;fill:#262626;stroke-linecap:butt;stroke-linejoin:round"
               x="341.46704"
               y="326.51562"
               id="text7286">1.0</text>
          </g>
        </g>
        <g
           style="stroke-linecap:butt;stroke-linejoin:round"
           id="text_4">
          <text
             style="font-style:normal;font-weight:normal;font-size:22px;font-family:Arial;text-anchor:middle;fill:#262626;stroke-linecap:butt;stroke-linejoin:round"
             x="210.1375"
             y="350.23782"
             id="text7289">False Positive Rate</text>
        </g>
      </g>
      <g
         style="stroke-linecap:butt;stroke-linejoin:round"
         id="matplotlib.axis_2">
        <g
           style="stroke-linecap:butt;stroke-linejoin:round"
           id="ytick_1">
          <g
             style="stroke-linecap:butt;stroke-linejoin:round"
             id="line2d_4">
            <defs
               id="defs7294">
              <path
                 inkscape:connector-curvature="0"
                 d="M 0,0 -2,0"
                 id="m60e99a2783"
                 style="stroke:#262626;stroke-linecap:butt;stroke-linejoin:round" />
            </defs>
            <g
               style="stroke-linecap:butt;stroke-linejoin:round"
               id="g7297">
              <use
                 height="100%"
                 width="100%"
                 style="fill:#262626;stroke:#262626;stroke-linecap:butt;stroke-linejoin:round"
                 x="65.675003"
                 xlink:href="#m60e99a2783"
                 y="289.97726"
                 id="use7299" />
            </g>
          </g>
          <g
             style="stroke-linecap:butt;stroke-linejoin:round"
             id="text_5">
            <text
               style="font-style:normal;font-weight:normal;font-size:20px;font-family:Arial;text-anchor:end;fill:#262626;stroke-linecap:butt;stroke-linejoin:round"
               x="56.674999"
               y="297.13507"
               id="text7302">0.0</text>
          </g>
        </g>
        <g
           style="stroke-linecap:butt;stroke-linejoin:round"
           id="ytick_2">
          <g
             style="stroke-linecap:butt;stroke-linejoin:round"
             id="line2d_5">
            <g
               style="stroke-linecap:butt;stroke-linejoin:round"
               id="g7306">
              <use
                 height="100%"
                 width="100%"
                 style="fill:#262626;stroke:#262626;stroke-linecap:butt;stroke-linejoin:round"
                 x="65.675003"
                 xlink:href="#m60e99a2783"
                 y="237.08636"
                 id="use7308" />
            </g>
          </g>
          <g
             style="stroke-linecap:butt;stroke-linejoin:round"
             id="text_6">
            <text
               style="font-style:normal;font-weight:normal;font-size:20px;font-family:Arial;text-anchor:end;fill:#262626;stroke-linecap:butt;stroke-linejoin:round"
               x="56.674999"
               y="244.24417"
               id="text7311">0.2</text>
          </g>
        </g>
        <g
           style="stroke-linecap:butt;stroke-linejoin:round"
           id="ytick_3">
          <g
             style="stroke-linecap:butt;stroke-linejoin:round"
             id="line2d_6">
            <g
               style="stroke-linecap:butt;stroke-linejoin:round"
               id="g7315">
              <use
                 height="100%"
                 width="100%"
                 style="fill:#262626;stroke:#262626;stroke-linecap:butt;stroke-linejoin:round"
                 x="65.675003"
                 xlink:href="#m60e99a2783"
                 y="184.19545"
                 id="use7317" />
            </g>
          </g>
          <g
             style="stroke-linecap:butt;stroke-linejoin:round"
             id="text_7">
            <text
               style="font-style:normal;font-weight:normal;font-size:20px;font-family:Arial;text-anchor:end;fill:#262626;stroke-linecap:butt;stroke-linejoin:round"
               x="56.674999"
               y="191.35327"
               id="text7320">0.4</text>
          </g>
        </g>
        <g
           style="stroke-linecap:butt;stroke-linejoin:round"
           id="ytick_4">
          <g
             style="stroke-linecap:butt;stroke-linejoin:round"
             id="line2d_7">
            <g
               style="stroke-linecap:butt;stroke-linejoin:round"
               id="g7324">
              <use
                 height="100%"
                 width="100%"
                 style="fill:#262626;stroke:#262626;stroke-linecap:butt;stroke-linejoin:round"
                 x="65.675003"
                 xlink:href="#m60e99a2783"
                 y="131.30455"
                 id="use7326" />
            </g>
          </g>
          <g
             style="stroke-linecap:butt;stroke-linejoin:round"
             id="text_8">
            <text
               style="font-style:normal;font-weight:normal;font-size:20px;font-family:Arial;text-anchor:end;fill:#262626;stroke-linecap:butt;stroke-linejoin:round"
               x="56.674999"
               y="138.46236"
               id="text7329">0.6</text>
          </g>
        </g>
        <g
           style="stroke-linecap:butt;stroke-linejoin:round"
           id="ytick_5">
          <g
             style="stroke-linecap:butt;stroke-linejoin:round"
             id="line2d_8">
            <g
               style="stroke-linecap:butt;stroke-linejoin:round"
               id="g7333">
              <use
                 height="100%"
                 width="100%"
                 style="fill:#262626;stroke:#262626;stroke-linecap:butt;stroke-linejoin:round"
                 x="65.675003"
                 xlink:href="#m60e99a2783"
                 y="78.413635"
                 id="use7335" />
            </g>
          </g>
          <g
             style="stroke-linecap:butt;stroke-linejoin:round"
             id="text_9">
            <text
               style="font-style:normal;font-weight:normal;font-size:20px;font-family:Arial;text-anchor:end;fill:#262626;stroke-linecap:butt;stroke-linejoin:round"
               x="56.674999"
               y="85.571449"
               id="text7338">0.8</text>
          </g>
        </g>
        <g
           style="stroke-linecap:butt;stroke-linejoin:round"
           id="ytick_6">
          <g
             style="stroke-linecap:butt;stroke-linejoin:round"
             id="line2d_9">
            <g
               style="stroke-linecap:butt;stroke-linejoin:round"
               id="g7342">
              <use
                 height="100%"
                 width="100%"
                 style="fill:#262626;stroke:#262626;stroke-linecap:butt;stroke-linejoin:round"
                 x="65.675003"
                 xlink:href="#m60e99a2783"
                 y="25.522726"
                 id="use7344" />
            </g>
          </g>
          <g
             style="stroke-linecap:butt;stroke-linejoin:round"
             id="text_10">
            <text
               style="font-style:normal;font-weight:normal;font-size:20px;font-family:Arial;text-anchor:end;fill:#262626;stroke-linecap:butt;stroke-linejoin:round"
               x="56.674999"
               y="32.680538"
               id="text7347">1.0</text>
          </g>
        </g>
        <g
           style="stroke-linecap:butt;stroke-linejoin:round"
           id="text_11">
          <text
             style="font-style:normal;font-weight:normal;font-size:22px;font-family:Arial;text-anchor:middle;fill:#262626;stroke-linecap:butt;stroke-linejoin:round"
             transform="matrix(0,-1,1,0,-137.2475,178.2525)"
             x="20.502501"
             y="157.75"
             id="text7350">True Positive Rate</text>
        </g>
      </g>
      <g
         style="stroke-linecap:butt;stroke-linejoin:round"
         id="line2d_10">
        <path
           inkscape:connector-curvature="0"
           clip-path="url(#p1e00d5c3f6)"
           d="m 78.807955,288.41245 0,-65.72243 0,-3.12964 0,-10.95374 1.475612,0 0,-14.08338 2.951226,0 0,-17.21301 1.475613,0 0,-1.56482 1.475613,0 0,-23.4723 1.475613,0 0,-1.56482 2.951226,0 0,-12.51856 1.475612,0 0,-3.12964 1.475613,0 0,-18.77783 1.475613,0 0,-4.69446 1.475613,0 0,-3.12964 1.475613,0 0,-1.56482 2.951228,0 0,-9.388922 4.42684,0 0,-4.69446 1.47561,0 0,-9.388918 1.47561,0 0,-4.69446 2.95123,0 0,-1.564819 1.47561,0 0,-1.56482 2.95123,0 0,-1.56482 1.47561,0 0,-1.56482 2.95122,0 0,-6.259279 1.47562,0 0,-4.694459 1.47561,0 0,-3.12964 2.95123,0 0,-1.56482 2.95122,0 0,-1.56482 1.47561,0 0,-1.564819 1.47562,0 0,-1.56482 1.47561,0 0,-1.56482 2.95123,0 0,-1.56482 4.42683,0 0,-1.56482 7.37807,0 0,-1.564819 2.95122,0 0,-1.56482 1.47562,0 0,-1.56482 4.42684,0 0,-1.56482 7.37806,0 0,-1.56482 2.95123,0 0,-1.564819 10.32929,0 0,-1.56482 1.47561,0 0,-1.56482 36.89032,0 0,-1.56482 11.8049,0 0,-1.56482 38.36594,0 0,-1.564819 16.23174,0 0,-3.12964 19.18297,0 0,-1.56482 39.84154,0"
           style="fill:none;stroke:#0072b2;stroke-width:3;stroke-linecap:round;stroke-linejoin:round"
           id="path7353" />
      </g>
      <g
         style="stroke-linecap:butt;stroke-linejoin:round"
         id="line2d_11">
        <path
           inkscape:connector-curvature="0"
           clip-path="url(#p1e00d5c3f6)"
           d="m 78.807955,288.41245 0,-12.51856 1.475612,0 0,-14.08337 1.475613,0 0,-1.56482 1.475613,0 0,-1.56482 2.951226,0 0,-4.69446 1.475613,0 0,-6.25928 1.475613,0 0,-37.55568 1.475613,0 0,-26.60193 1.475612,0 0,-4.69446 4.426839,0 0,-4.69446 1.475613,0 0,-3.12964 1.475613,0 0,-1.56482 2.951225,0 0,-3.12964 2.95123,0 0,-6.25928 2.95122,0 0,-3.12964 1.47561,0 0,-3.12964 4.42684,0 0,-6.25928 2.95123,0 0,-1.56482 1.47561,0 0,-1.56482 1.47561,0 0,-4.69446 1.47562,0 0,-3.12964 1.47561,0 0,-1.56482 1.47561,0 0,-4.69446 4.42684,0 0,-1.56482 1.47561,0 0,-3.12964 1.47562,0 0,-4.69445 1.47561,0 0,-3.12965 1.47561,0 0,-6.25927 2.95123,0 0,-1.56482 1.47561,0 0,-4.69446 1.47561,0 0,-1.56482 2.95123,0 0,-7.824102 1.47561,0 0,-7.824099 2.95123,0 0,-1.56482 1.47561,0 0,-1.564819 7.37807,0 0,-3.12964 2.95122,0 0,-1.56482 1.47561,0 0,-1.56482 2.95123,0 0,-1.564819 2.95123,0 0,-1.56482 1.47561,0 0,-1.56482 1.47561,0 0,-4.694459 2.95123,0 0,-3.12964 1.47561,0 0,-1.56482 1.47561,0 0,-1.56482 5.90245,0 0,-1.564819 2.95123,0 0,-4.69446 1.47561,0 0,-4.694459 1.47562,0 0,-1.56482 2.95122,0 0,-1.56482 2.95123,0 0,-1.56482 1.47561,0 0,-1.564819 2.95123,0 0,-1.56482 16.23174,0 0,-3.12964 8.85368,0 0,-1.56482 1.47561,0 0,-1.564819 2.95122,0 0,-1.56482 1.47562,0 0,-1.56482 16.23174,0 0,-3.12964 8.85368,0 0,-1.564819 5.90245,0 0,-1.56482 5.90245,0 0,-1.56482 5.90245,0 0,-1.56482 69.3538,0"
           style="fill:none;stroke:#d55e00;stroke-width:3;stroke-linecap:round;stroke-linejoin:round"
           id="path7356" />
      </g>
      <g
         style="stroke-linecap:butt;stroke-linejoin:round"
         id="line2d_12">
        <path
           inkscape:connector-curvature="0"
           clip-path="url(#p1e00d5c3f6)"
           d="m 78.807955,288.41245 0,-1.56482 1.475612,0 0,-14.08338 1.475613,0 0,-34.42603 1.475613,0 0,-1.56482 1.475613,0 0,-25.03712 1.475613,0 0,-3.12964 1.475613,0 0,-4.69446 1.475613,0 0,-12.51855 2.951225,0 0,-7.8241 1.475613,0 0,-7.8241 1.475613,0 0,-18.77784 2.951226,0 0,-3.12964 1.475613,0 0,-3.12964 1.475615,0 0,-6.25928 1.47561,0 0,-6.25928 2.95123,0 0,-1.56482 1.47561,0 0,-9.38892 1.47561,0 0,-6.25927 1.47561,0 0,-9.38892 1.47562,0 0,-4.69446 2.95122,0 0,-3.12964 2.95123,0 0,-3.12964 1.47561,0 0,-4.694462 1.47561,0 0,-3.12964 5.90246,0 0,-4.694459 1.47561,0 0,-3.129639 4.42684,0 0,-6.25928 1.47561,0 0,-1.564819 1.47561,0 0,-3.12964 1.47562,0 0,-3.12964 1.47561,0 0,-6.259279 1.47561,0 0,-6.259279 4.42684,0 0,-3.12964 1.47561,0 0,-3.129639 2.95123,0 0,-4.69446 5.90245,0 0,-1.564819 5.90245,0 0,-1.56482 1.47561,0 0,-1.56482 10.32929,0 0,-3.12964 10.32929,0 0,-1.564819 1.47562,0 0,-1.56482 13.28051,0 0,-3.12964 26.56104,0 0,-1.56482 20.65858,0 0,-1.564819 47.21961,0 0,-1.56482 13.28051,0 0,-1.56482 25.08542,0 0,-1.56482 11.8049,0"
           style="fill:none;stroke:#009e73;stroke-width:3;stroke-linecap:round;stroke-linejoin:round"
           id="path7359" />
      </g>
      <g
         style="stroke-linecap:butt;stroke-linejoin:round"
         id="line2d_13">
        <path
           inkscape:connector-curvature="0"
           clip-path="url(#p1e00d5c3f6)"
           d="M 78.807955,289.97727 341.46704,25.522727"
           style="fill:none;stroke:#555555;stroke-width:1.75;stroke-linecap:butt;stroke-linejoin:round;stroke-dasharray:6.475, 2.8;stroke-dashoffset:0"
           id="path7362" />
      </g>
      <g
         style="stroke-linecap:butt;stroke-linejoin:round"
         id="patch_3">
        <path
           inkscape:connector-curvature="0"
           d="m 65.675,303.2 0,-290.9"
           style="fill:none;stroke:#262626;stroke-width:1.25;stroke-linecap:square;stroke-linejoin:miter"
           id="path7365" />
      </g>
      <g
         style="stroke-linecap:butt;stroke-linejoin:round"
         id="patch_4">
        <path
           inkscape:connector-curvature="0"
           d="m 354.6,303.2 0,-290.9"
           style="fill:none;stroke:#262626;stroke-width:1.25;stroke-linecap:square;stroke-linejoin:miter"
           id="path7368" />
      </g>
      <g
         style="stroke-linecap:butt;stroke-linejoin:round"
         id="patch_5">
        <path
           inkscape:connector-curvature="0"
           d="m 65.675,303.2 288.925,0"
           style="fill:none;stroke:#262626;stroke-width:1.25;stroke-linecap:square;stroke-linejoin:miter"
           id="path7371" />
      </g>
      <g
         style="stroke-linecap:butt;stroke-linejoin:round"
         id="patch_6">
        <path
           inkscape:connector-curvature="0"
           d="m 65.675,12.3 288.925,0"
           style="fill:none;stroke:#262626;stroke-width:1.25;stroke-linecap:square;stroke-linejoin:miter"
           id="path7374" />
      </g>
      <g
         style="stroke-linecap:butt;stroke-linejoin:round"
         id="legend_1">
        <g
           style="stroke-linecap:butt;stroke-linejoin:round"
           id="line2d_14">
          <path
             inkscape:connector-curvature="0"
             d="m 182.775,208.56687 40,0"
             style="fill:none;stroke:#0072b2;stroke-width:3;stroke-linecap:round;stroke-linejoin:round"
             id="path7378" />
        </g>
        <g
           style="stroke-linecap:butt;stroke-linejoin:round"
           id="line2d_15" />
        <g
           style="stroke-linecap:butt;stroke-linejoin:round"
           id="text_12">
          <text
             style="font-style:normal;font-weight:normal;font-size:20px;font-family:Arial;fill:#262626;stroke-linecap:butt;stroke-linejoin:round"
             transform="translate(238.775,203.0025)"
             id="text7382">G4RNA</text>
          <text
             style="font-style:normal;font-weight:normal;font-size:20px;font-family:Arial;fill:#262626;stroke-linecap:butt;stroke-linejoin:round"
             transform="translate(238.775,224.15625)"
             id="text7384">Screener</text>
        </g>
        <g
           style="stroke-linecap:butt;stroke-linejoin:round"
           id="line2d_16">
          <path
             inkscape:connector-curvature="0"
             d="m 182.775,245.69062 40,0"
             style="fill:none;stroke:#d55e00;stroke-width:3;stroke-linecap:round;stroke-linejoin:round"
             id="path7387" />
        </g>
        <g
           style="stroke-linecap:butt;stroke-linejoin:round"
           id="line2d_17" />
        <g
           style="stroke-linecap:butt;stroke-linejoin:round"
           id="text_13">
          <text
             style="font-style:normal;font-weight:normal;font-size:20px;font-family:Arial;text-anchor:start;fill:#262626;stroke-linecap:butt;stroke-linejoin:round"
             x="238.77499"
             y="252.69063"
             id="text7391">G4Seeqer</text>
        </g>
        <g
           style="stroke-linecap:butt;stroke-linejoin:round"
           id="line2d_18">
          <path
             inkscape:connector-curvature="0"
             d="m 182.775,274.225 40,0"
             style="fill:none;stroke:#009e73;stroke-width:3;stroke-linecap:round;stroke-linejoin:round"
             id="path7394" />
        </g>
        <g
           style="stroke-linecap:butt;stroke-linejoin:round"
           id="line2d_19" />
        <g
           style="stroke-linecap:butt;stroke-linejoin:round"
           id="text_14">
          <text
             style="font-style:normal;font-weight:normal;font-size:20px;font-family:Arial;text-anchor:start;fill:#262626;stroke-linecap:butt;stroke-linejoin:round"
             x="238.77499"
             y="281.22501"
             id="text7398">rG4Seeqer</text>
        </g>
      </g>
    </g>
    <g
       style="stroke-linecap:butt;stroke-linejoin:round"
       id="axes_2"
       transform="matrix(0.86572016,0,0,0.86572016,60.394733,49.779773)">
      <g
         style="stroke-linecap:butt;stroke-linejoin:round"
         id="patch_7">
        <path
           inkscape:connector-curvature="0"
           d="m 423.275,303.2 288.925,0 0,-290.9 -288.925,0 z"
           style="fill:#ffffff;stroke-linecap:butt;stroke-linejoin:round"
           id="path7402" />
      </g>
      <g
         style="stroke-linecap:butt;stroke-linejoin:round"
         id="matplotlib.axis_3">
        <g
           style="stroke-linecap:butt;stroke-linejoin:round"
           id="xtick_4">
          <g
             style="stroke-linecap:butt;stroke-linejoin:round"
             id="line2d_20">
            <g
               style="stroke-linecap:butt;stroke-linejoin:round"
               id="g7407">
              <use
                 height="100%"
                 width="100%"
                 style="fill:#262626;stroke:#262626;stroke-linecap:butt;stroke-linejoin:round"
                 x="436.40796"
                 xlink:href="#m3d3595af61"
                 y="303.20001"
                 id="use7409" />
            </g>
          </g>
          <g
             style="stroke-linecap:butt;stroke-linejoin:round"
             id="text_15">
            <text
               style="font-style:normal;font-weight:normal;font-size:20px;font-family:Arial;text-anchor:middle;fill:#262626;stroke-linecap:butt;stroke-linejoin:round"
               x="436.40796"
               y="326.51562"
               id="text7412">0.0</text>
          </g>
        </g>
        <g
           style="stroke-linecap:butt;stroke-linejoin:round"
           id="xtick_5">
          <g
             style="stroke-linecap:butt;stroke-linejoin:round"
             id="line2d_21">
            <g
               style="stroke-linecap:butt;stroke-linejoin:round"
               id="g7416">
              <use
                 height="100%"
                 width="100%"
                 style="fill:#262626;stroke:#262626;stroke-linecap:butt;stroke-linejoin:round"
                 x="567.73749"
                 xlink:href="#m3d3595af61"
                 y="303.20001"
                 id="use7418" />
            </g>
          </g>
          <g
             style="stroke-linecap:butt;stroke-linejoin:round"
             id="text_16">
            <text
               style="font-style:normal;font-weight:normal;font-size:20px;font-family:Arial;text-anchor:middle;fill:#262626;stroke-linecap:butt;stroke-linejoin:round"
               x="567.73749"
               y="326.51562"
               id="text7421">0.5</text>
          </g>
        </g>
        <g
           style="stroke-linecap:butt;stroke-linejoin:round"
           id="xtick_6">
          <g
             style="stroke-linecap:butt;stroke-linejoin:round"
             id="line2d_22">
            <g
               style="stroke-linecap:butt;stroke-linejoin:round"
               id="g7425">
              <use
                 height="100%"
                 width="100%"
                 style="fill:#262626;stroke:#262626;stroke-linecap:butt;stroke-linejoin:round"
                 x="699.06702"
                 xlink:href="#m3d3595af61"
                 y="303.20001"
                 id="use7427" />
            </g>
          </g>
          <g
             style="stroke-linecap:butt;stroke-linejoin:round"
             id="text_17">
            <text
               style="font-style:normal;font-weight:normal;font-size:20px;font-family:Arial;text-anchor:middle;fill:#262626;stroke-linecap:butt;stroke-linejoin:round"
               x="699.06702"
               y="326.51562"
               id="text7430">1.0</text>
          </g>
        </g>
        <g
           style="stroke-linecap:butt;stroke-linejoin:round"
           id="text_18">
          <text
             style="font-style:normal;font-weight:normal;font-size:22px;font-family:Arial;text-anchor:middle;fill:#262626;stroke-linecap:butt;stroke-linejoin:round"
             x="567.73749"
             y="350.23782"
             id="text7433">Recall</text>
        </g>
      </g>
      <g
         style="stroke-linecap:butt;stroke-linejoin:round"
         id="matplotlib.axis_4">
        <g
           style="stroke-linecap:butt;stroke-linejoin:round"
           id="ytick_7">
          <g
             style="stroke-linecap:butt;stroke-linejoin:round"
             id="line2d_23">
            <g
               style="stroke-linecap:butt;stroke-linejoin:round"
               id="g7438">
              <use
                 height="100%"
                 width="100%"
                 style="fill:#262626;stroke:#262626;stroke-linecap:butt;stroke-linejoin:round"
                 x="423.27499"
                 xlink:href="#m60e99a2783"
                 y="303.20001"
                 id="use7440" />
            </g>
          </g>
          <g
             style="stroke-linecap:butt;stroke-linejoin:round"
             id="text_19">
            <text
               style="font-style:normal;font-weight:normal;font-size:20px;font-family:Arial;text-anchor:end;fill:#262626;stroke-linecap:butt;stroke-linejoin:round"
               x="414.27499"
               y="310.35782"
               id="text7443">0.0</text>
          </g>
        </g>
        <g
           style="stroke-linecap:butt;stroke-linejoin:round"
           id="ytick_8">
          <g
             style="stroke-linecap:butt;stroke-linejoin:round"
             id="line2d_24">
            <g
               style="stroke-linecap:butt;stroke-linejoin:round"
               id="g7447">
              <use
                 height="100%"
                 width="100%"
                 style="fill:#262626;stroke:#262626;stroke-linecap:butt;stroke-linejoin:round"
                 x="423.27499"
                 xlink:href="#m60e99a2783"
                 y="245.02"
                 id="use7449" />
            </g>
          </g>
          <g
             style="stroke-linecap:butt;stroke-linejoin:round"
             id="text_20">
            <text
               style="font-style:normal;font-weight:normal;font-size:20px;font-family:Arial;text-anchor:end;fill:#262626;stroke-linecap:butt;stroke-linejoin:round"
               x="414.27499"
               y="252.17781"
               id="text7452">0.2</text>
          </g>
        </g>
        <g
           style="stroke-linecap:butt;stroke-linejoin:round"
           id="ytick_9">
          <g
             style="stroke-linecap:butt;stroke-linejoin:round"
             id="line2d_25">
            <g
               style="stroke-linecap:butt;stroke-linejoin:round"
               id="g7456">
              <use
                 height="100%"
                 width="100%"
                 style="fill:#262626;stroke:#262626;stroke-linecap:butt;stroke-linejoin:round"
                 x="423.27499"
                 xlink:href="#m60e99a2783"
                 y="186.84"
                 id="use7458" />
            </g>
          </g>
          <g
             style="stroke-linecap:butt;stroke-linejoin:round"
             id="text_21">
            <text
               style="font-style:normal;font-weight:normal;font-size:20px;font-family:Arial;text-anchor:end;fill:#262626;stroke-linecap:butt;stroke-linejoin:round"
               x="414.27499"
               y="193.99782"
               id="text7461">0.4</text>
          </g>
        </g>
        <g
           style="stroke-linecap:butt;stroke-linejoin:round"
           id="ytick_10">
          <g
             style="stroke-linecap:butt;stroke-linejoin:round"
             id="line2d_26">
            <g
               style="stroke-linecap:butt;stroke-linejoin:round"
               id="g7465">
              <use
                 height="100%"
                 width="100%"
                 style="fill:#262626;stroke:#262626;stroke-linecap:butt;stroke-linejoin:round"
                 x="423.27499"
                 xlink:href="#m60e99a2783"
                 y="128.66"
                 id="use7467" />
            </g>
          </g>
          <g
             style="stroke-linecap:butt;stroke-linejoin:round"
             id="text_22">
            <text
               style="font-style:normal;font-weight:normal;font-size:20px;font-family:Arial;text-anchor:end;fill:#262626;stroke-linecap:butt;stroke-linejoin:round"
               x="414.27499"
               y="135.81781"
               id="text7470">0.6</text>
          </g>
        </g>
        <g
           style="stroke-linecap:butt;stroke-linejoin:round"
           id="ytick_11">
          <g
             style="stroke-linecap:butt;stroke-linejoin:round"
             id="line2d_27">
            <g
               style="stroke-linecap:butt;stroke-linejoin:round"
               id="g7474">
              <use
                 height="100%"
                 width="100%"
                 style="fill:#262626;stroke:#262626;stroke-linecap:butt;stroke-linejoin:round"
                 x="423.27499"
                 xlink:href="#m60e99a2783"
                 y="70.480003"
                 id="use7476" />
            </g>
          </g>
          <g
             style="stroke-linecap:butt;stroke-linejoin:round"
             id="text_23">
            <text
               style="font-style:normal;font-weight:normal;font-size:20px;font-family:Arial;text-anchor:end;fill:#262626;stroke-linecap:butt;stroke-linejoin:round"
               x="414.27499"
               y="77.63781"
               id="text7479">0.8</text>
          </g>
        </g>
        <g
           style="stroke-linecap:butt;stroke-linejoin:round"
           id="ytick_12">
          <g
             style="stroke-linecap:butt;stroke-linejoin:round"
             id="line2d_28">
            <g
               style="stroke-linecap:butt;stroke-linejoin:round"
               id="g7483">
              <use
                 height="100%"
                 width="100%"
                 style="fill:#262626;stroke:#262626;stroke-linecap:butt;stroke-linejoin:round"
                 x="423.27499"
                 xlink:href="#m60e99a2783"
                 y="12.3"
                 id="use7485" />
            </g>
          </g>
          <g
             style="stroke-linecap:butt;stroke-linejoin:round"
             id="text_24">
            <text
               style="font-style:normal;font-weight:normal;font-size:20px;font-family:Arial;text-anchor:end;fill:#262626;stroke-linecap:butt;stroke-linejoin:round"
               x="414.27499"
               y="19.457811"
               id="text7488">1.0</text>
          </g>
        </g>
        <g
           style="stroke-linecap:butt;stroke-linejoin:round"
           id="text_25">
          <text
             style="font-style:normal;font-weight:normal;font-size:22px;font-family:Arial;text-anchor:middle;fill:#262626;stroke-linecap:butt;stroke-linejoin:round"
             transform="matrix(0,-1,1,0,220.3525,535.8525)"
             x="378.10251"
             y="157.75"
             id="text7491">Precision</text>
        </g>
      </g>
      <g
         style="stroke-linecap:butt;stroke-linejoin:round"
         id="line2d_29">
        <path
           inkscape:connector-curvature="0"
           clip-path="url(#p3827251809)"
           d="m 699.06704,149.56844 -1.55419,0.43031 0,-6.50855 -3.10839,0.86309 0,-5.96353 -1.5542,0.43181 0,-16.06706 -1.55419,0.41681 0,-5.60401 -1.5542,0.41121 0,-20.04562 -1.55419,0.372317 0,-0.894737 -1.5542,0.373292 0,-6.506396 -1.5542,0.358988 0,-1.940951 -1.55419,0.356661 0,-5.027074 -1.5542,0.344668 0,-3.141783 -1.55419,0.337815 0,-1.07104 -1.5542,0.337535 0,-2.180963 -1.5542,0.333421 0,-5.665364 -1.55419,0.316425 0,-3.552812 -1.5542,0.30616 0,-2.440115 -1.55419,0.29973 0,-1.244422 -1.5542,0.297884 0,-1.262892 -1.5542,0.295888 0,-1.281874 -1.55419,0.293734 0,-2.617161 -1.5542,0.285722 0,-2.687466 -3.10839,0.557137 0,-1.378941 -4.66258,0.840807 0,-1.414344 -6.21679,1.140904 0,-2.934865 -1.55419,0.279505 0,-1.501729 -1.5542,0.275411 0,-3.0751 -1.5542,0.262999 0,-1.574811 -1.55419,0.257994 0,-3.227573 -4.66259,0.740832 0,-1.673005 -9.32517,1.51462 0,-1.755431 -4.66259,0.77367 0,-5.516605 -9.32518,1.437253 0,-3.966818 -1.55419,0.225504 0,-2.043629 -3.10839,0.432887 0,-2.105562 -4.66259,0.629489 0,-2.187367 -12.43357,1.702041 -6.21678,0.94471 0,-2.446406 -3.10839,0.45739 0,-2.535247 -10.87937,1.583129 -1.5542,0.244814 0,-5.619121 -1.5542,0.195453 0,-2.9283 -10.87936,1.273006 -10.87938,1.498601 -1.55419,0.236044 0,-3.535748 -1.5542,0.198838 0,-3.674526 -10.87937,1.197824 -6.21678,0.802114 0,-8.944003 -13.98776,0.796744 0,-5.488679 -80.81818,0 0,0"
           style="fill:none;stroke:#0072b2;stroke-width:3;stroke-linecap:round;stroke-linejoin:round"
           id="path7494" />
      </g>
      <g
         style="stroke-linecap:butt;stroke-linejoin:round"
         id="line2d_30">
        <path
           inkscape:connector-curvature="0"
           clip-path="url(#p3827251809)"
           d="m 699.06704,139.32633 -1.55419,0.42484 0,-2.21626 -1.5542,0.42597 0,-2.27916 -1.55419,0.42693 0,-2.34514 -1.5542,0.42769 0,-3.64768 -3.10839,0.85684 0,-7.1313 -1.55419,0.42412 0,-0.67873 -1.5542,0.42639 0,-1.37507 -1.5542,0.42767 0,-0.69654 -1.55419,0.42995 0,-4.30215 -3.10839,0.85642 0,-8.47734 -1.5542,0.41774 0,-1.6296 -1.5542,0.41791 0,-0.827 -1.55419,0.41976 0,-1.67911 -1.5542,0.41975 0,-1.71239 -1.55419,0.4196 0,-0.86955 -4.66259,1.27542 0,-0.88346 -4.66259,1.30421 0,-1.80391 -1.55419,0.43848 0,-3.71921 -1.5542,0.43329 0,-0.95442 -1.55419,0.43496 0,-0.96615 -3.1084,0.87746 0,-1.97126 -4.66258,1.3327 0,-1.00865 -1.5542,0.45036 0,-1.02173 -1.5542,0.45204 0,-2.080917 -1.55419,0.450622 0,-2.130673 -1.5542,0.448895 0,-1.085508 -1.55419,0.450284 0,-2.212863 -3.1084,0.900988 0,-5.785144 -1.55419,0.43824 0,-1.200311 -1.5542,0.43889 0,-2.450764 -7.77098,2.225821 0,-1.270485 -7.77098,2.337058 0,-2.638196 -1.55419,0.474293 0,-1.3493 -4.66259,1.442537 0,-1.383519 -1.55419,0.487474 0,-2.833442 -6.21679,1.965541 0,-1.470813 -3.10839,1.009927 0,-1.504655 -4.66259,1.54734 0,-1.54734 -3.10839,1.053986 0,-1.584825 -1.55419,0.530839 0,-4.921241 -4.66259,1.564703 0,-1.717299 -1.5542,0.528525 0,-1.753704 -3.10839,1.062816 0,-1.801703 -4.66259,1.628605 0,-1.863202 -1.55419,0.550021 0,-1.905911 -1.5542,0.547834 0,-3.934879 -6.21678,2.187732 0,-6.333408 -3.10839,1.067243 0,-2.221608 -3.10839,1.075913 0,-4.641873 -6.21679,2.137879 0,-4.987759 -3.10839,1.053628 0,-5.293466 -1.55419,0.497265 0,-2.7601 -3.1084,0.976805 0,-2.877118 -4.66258,1.467133 0,-9.331581 -4.66259,1.275049 0,-3.380246 -6.21678,1.701169 -6.21679,1.901307 -6.21678,2.138971 -6.21678,2.424167 -1.5542,0.657401 0,-4.335447 -4.66259,1.915015 -4.66258,2.135979 -4.66259,2.397528 -4.66259,2.710248 -3.10839,2.012154 -3.10839,2.203788 -3.10839,2.424167 -3.1084,2.679342 -3.10839,2.977047 -3.10839,3.327287 0,-7.000267 -3.10839,3.412317 -3.10839,3.882981 0,-8.239778 -3.10839,3.995879 -1.5542,2.237692 0,-20.236522 -1.55419,1.724704 0,-11.96342 -1.5542,1.385238 0,-13.779474 -3.10839,1.801239 -1.5542,1.069485 -1.55419,1.212083 -1.5542,1.385238 -1.5542,1.598352 -1.55419,1.864744 -1.5542,2.203788 -1.55419,2.644545 0,-29.09 -13.98776,0 0,0"
           style="fill:none;stroke:#d55e00;stroke-width:3;stroke-linecap:round;stroke-linejoin:round"
           id="path7497" />
      </g>
      <g
         style="stroke-linecap:butt;stroke-linejoin:round"
         id="line2d_31">
        <path
           inkscape:connector-curvature="0"
           clip-path="url(#p3827251809)"
           d="m 699.06704,158.17906 -1.55419,0.43159 0,-7.65738 -1.5542,0.43329 0,-4.39331 -1.55419,0.43449 0,-17.93062 -1.5542,0.4231 0,-9.22402 -1.55419,0.41372 0,-13.43287 -3.10839,0.78824 0,-7.52194 -1.5542,0.38208 0,-0.87391 -1.5542,0.38326 0,-6.352269 -3.10839,0.743733 0,-6.80288 -1.55419,0.357387 0,-1.011411 -1.5542,0.357674 0,-4.156 -1.5542,0.347918 0,-4.334279 -4.66258,1.020372 0,-2.255786 -3.1084,0.68153 0,-1.153449 -3.10839,0.687263 0,-3.559292 -6.21678,1.364439 0,-1.2306 -6.21678,1.405314 0,-1.263997 -3.10839,0.716163 0,-1.288655 -3.1084,0.72193 0,-1.314278 -1.55419,0.361719 0,-1.335221 -6.21679,1.466877 0,-4.174226 -3.10839,0.722651 0,-1.438773 -4.66258,1.097822 0,-6.025547 -3.1084,0.695933 0,-1.57161 -4.66258,1.054363 0,-1.617894 -3.1084,0.709678 0,-3.339001 -3.10839,0.692516 0,-3.473167 -4.66258,1.015626 0,-1.806242 -9.32518,2.104703 0,-1.902689 -6.21678,1.46623 0,-1.983583 -9.32518,2.304399 0,-2.100516 -1.55419,0.392519 0,-4.342793 -6.21679,1.511536 0,-2.298139 -6.21678,1.553953 0,-2.416925 -3.10839,0.782966 0,-2.505772 -3.10839,0.771776 0,-5.256484 -7.77098,1.831444 -7.77098,2.044404 -3.10839,0.885908 0,-3.045855 -7.77098,2.246679 0,-3.293573 -6.21678,1.863085 -1.5542,0.498116 0,-7.2725 -6.21678,1.76303 -6.21679,1.990518 0,-4.230433 -4.66258,1.479988 0,-4.575559 -3.10839,0.927911 0,-4.897307 -6.21679,1.723852 -4.66259,1.485447 -4.66258,1.688008 -4.66259,1.935033 -4.66259,2.240565 0,-7.034567 -1.55419,0.655181 0,-7.61881 -4.66259,1.558393 -3.10839,1.212083 -3.1084,1.385238 -3.10839,1.598352 -3.10839,1.864744 -3.10839,2.203788 -3.10839,2.644545 -1.5542,1.531053 -1.55419,1.701169 -1.5542,1.901307 -1.55419,2.138971 -1.5542,2.424167 -1.5542,2.770476 -1.55419,3.196703 0,-20.512179 -1.5542,2.203788 -1.55419,2.644545 -1.5542,3.232222 -1.5542,4.040278 -1.55419,5.194643 -1.5542,6.92619 -1.55419,9.696667 -1.5542,14.545 -1.55419,24.24167 0,-96.96667 -3.10839,0 0,0"
           style="fill:none;stroke:#009e73;stroke-width:3;stroke-linecap:round;stroke-linejoin:round"
           id="path7500" />
      </g>
      <g
         style="stroke-linecap:butt;stroke-linejoin:round"
         id="line2d_32">
        <path
           inkscape:connector-curvature="0"
           clip-path="url(#p3827251809)"
           d="m 436.40796,158.17906 262.65908,0"
           style="fill:none;stroke:#555555;stroke-width:1.75;stroke-linecap:butt;stroke-linejoin:round;stroke-dasharray:6.475, 2.8;stroke-dashoffset:0"
           id="path7503" />
      </g>
      <g
         style="stroke-linecap:butt;stroke-linejoin:round"
         id="patch_8">
        <path
           inkscape:connector-curvature="0"
           d="m 423.275,303.2 0,-290.9"
           style="fill:none;stroke:#262626;stroke-width:1.25;stroke-linecap:square;stroke-linejoin:miter"
           id="path7506" />
      </g>
      <g
         style="stroke-linecap:butt;stroke-linejoin:round"
         id="patch_9">
        <path
           inkscape:connector-curvature="0"
           d="m 712.2,303.2 0,-290.9"
           style="fill:none;stroke:#262626;stroke-width:1.25;stroke-linecap:square;stroke-linejoin:miter"
           id="path7509" />
      </g>
      <g
         style="stroke-linecap:butt;stroke-linejoin:round"
         id="patch_10">
        <path
           inkscape:connector-curvature="0"
           d="m 423.275,303.2 288.925,0"
           style="fill:none;stroke:#262626;stroke-width:1.25;stroke-linecap:square;stroke-linejoin:miter"
           id="path7512" />
      </g>
      <g
         style="stroke-linecap:butt;stroke-linejoin:round"
         id="patch_11">
        <path
           inkscape:connector-curvature="0"
           d="m 423.275,12.3 288.925,0"
           style="fill:none;stroke:#262626;stroke-width:1.25;stroke-linecap:square;stroke-linejoin:miter"
           id="path7515" />
      </g>
    </g>
    <text
       xml:space="preserve"
       style="font-style:normal;font-variant:normal;font-weight:normal;font-stretch:normal;font-size:30px;line-height:125%;font-family:Arial;-inkscape-font-specification:'Arial, Normal';text-align:start;letter-spacing:0px;word-spacing:0px;writing-mode:lr-tb;text-anchor:start;fill:#000000;fill-opacity:1;stroke:none;stroke-width:1px;stroke-linecap:butt;stroke-linejoin:miter;stroke-opacity:1"
       x="42.347836"
       y="49.736053"
       id="text5674"
       sodipodi:linespacing="125%"><tspan
         sodipodi:role="line"
         id="tspan5676"
         style="stroke-linecap:butt;stroke-linejoin:round"
         x="42.347836"
         y="49.736053">a</tspan></text>
    <text
       sodipodi:linespacing="125%"
       id="text5678"
       y="49.736053"
       x="372.34784"
       style="font-style:normal;font-variant:normal;font-weight:normal;font-stretch:normal;font-size:30px;line-height:125%;font-family:Arial;-inkscape-font-specification:'Arial, Normal';text-align:start;letter-spacing:0px;word-spacing:0px;writing-mode:lr-tb;text-anchor:start;fill:#000000;fill-opacity:1;stroke:none;stroke-width:1px;stroke-linecap:butt;stroke-linejoin:miter;stroke-opacity:1"
       xml:space="preserve"><tspan
         y="49.736053"
         x="372.34784"
         style="stroke-linecap:butt;stroke-linejoin:round"
         id="tspan5680"
         sodipodi:role="line">b</tspan></text>
  </g>
</svg>
