<?xml version="1.0" encoding="utf-8" standalone="no"?>
<!DOCTYPE svg PUBLIC "-//W3C//DTD SVG 1.1//EN"
  "http://www.w3.org/Graphics/SVG/1.1/DTD/svg11.dtd">
<!-- Created with matplotlib (http://matplotlib.org/) -->
<svg height="360pt" version="1.1" viewBox="0 0 360 360" width="360pt" xmlns="http://www.w3.org/2000/svg" xmlns:xlink="http://www.w3.org/1999/xlink">
 <defs>
  <style type="text/css">
*{stroke-linecap:butt;stroke-linejoin:round;}
  </style>
 </defs>
 <g id="figure_1">
  <g id="patch_1">
   <path d="M 0 360 
L 360 360 
L 360 0 
L 0 0 
z
" style="fill:#ffffff;"/>
  </g>
  <g id="axes_1">
   <g id="patch_2">
    <path d="M 65.675 303.10625 
L 352.2 303.10625 
L 352.2 7.8 
L 65.675 7.8 
z
" style="fill:#ffffff;"/>
   </g>
   <g id="matplotlib.axis_1">
    <g id="xtick_1">
     <g id="line2d_1">
      <defs>
       <path d="M 0 0 
L 0 2 
" id="m9a576a36fe" style="stroke:#262626;"/>
      </defs>
      <g>
       <use style="fill:#262626;stroke:#262626;" x="74.207876" xlink:href="#m9a576a36fe" y="303.10625"/>
      </g>
     </g>
     <g id="text_1">
      <text style="fill:#262626;font-family:Arial;font-size:20px;font-style:normal;font-weight:normal;text-anchor:middle;" transform="rotate(-0, 74.207876, 326.421875)" x="74.207876" y="326.421875">0</text>
     </g>
    </g>
    <g id="xtick_2">
     <g id="line2d_2">
      <g>
       <use style="fill:#262626;stroke:#262626;" x="164.027625" xlink:href="#m9a576a36fe" y="303.10625"/>
      </g>
     </g>
     <g id="text_2">
      <text style="fill:#262626;font-family:Arial;font-size:20px;font-style:normal;font-weight:normal;text-anchor:middle;" transform="rotate(-0, 164.027625, 326.421875)" x="164.027625" y="326.421875">20</text>
     </g>
    </g>
    <g id="xtick_3">
     <g id="line2d_3">
      <g>
       <use style="fill:#262626;stroke:#262626;" x="253.847375" xlink:href="#m9a576a36fe" y="303.10625"/>
      </g>
     </g>
     <g id="text_3">
      <text style="fill:#262626;font-family:Arial;font-size:20px;font-style:normal;font-weight:normal;text-anchor:middle;" transform="rotate(-0, 253.847375, 326.421875)" x="253.847375" y="326.421875">40</text>
     </g>
    </g>
    <g id="xtick_4">
     <g id="line2d_4">
      <g>
       <use style="fill:#262626;stroke:#262626;" x="343.667124" xlink:href="#m9a576a36fe" y="303.10625"/>
      </g>
     </g>
     <g id="text_4">
      <text style="fill:#262626;font-family:Arial;font-size:20px;font-style:normal;font-weight:normal;text-anchor:middle;" transform="rotate(-0, 343.667124, 326.421875)" x="343.667124" y="326.421875">60</text>
     </g>
    </g>
    <g id="text_5">
     <text style="fill:#262626;font-family:Arial;font-size:22px;font-style:normal;font-weight:normal;text-anchor:middle;" transform="rotate(-0, 208.9375, 350.144063)" x="208.9375" y="350.144063">Loop Length</text>
    </g>
   </g>
   <g id="matplotlib.axis_2">
    <g id="ytick_1">
     <g id="line2d_5">
      <defs>
       <path d="M 0 0 
L -2 0 
" id="m860e6cb95e" style="stroke:#262626;"/>
      </defs>
      <g>
       <use style="fill:#262626;stroke:#262626;" x="65.675" xlink:href="#m860e6cb95e" y="247.22298"/>
      </g>
     </g>
     <g id="text_6">
      <text style="fill:#262626;font-family:Arial;font-size:20px;font-style:normal;font-weight:normal;text-anchor:end;" transform="rotate(-0, 56.675, 254.380793)" x="56.675" y="254.380793">0.2</text>
     </g>
    </g>
    <g id="ytick_2">
     <g id="line2d_6">
      <g>
       <use style="fill:#262626;stroke:#262626;" x="65.675" xlink:href="#m860e6cb95e" y="188.995168"/>
      </g>
     </g>
     <g id="text_7">
      <text style="fill:#262626;font-family:Arial;font-size:20px;font-style:normal;font-weight:normal;text-anchor:end;" transform="rotate(-0, 56.675, 196.152981)" x="56.675" y="196.152981">0.4</text>
     </g>
    </g>
    <g id="ytick_3">
     <g id="line2d_7">
      <g>
       <use style="fill:#262626;stroke:#262626;" x="65.675" xlink:href="#m860e6cb95e" y="130.767356"/>
      </g>
     </g>
     <g id="text_8">
      <text style="fill:#262626;font-family:Arial;font-size:20px;font-style:normal;font-weight:normal;text-anchor:end;" transform="rotate(-0, 56.675, 137.925168)" x="56.675" y="137.925168">0.6</text>
     </g>
    </g>
    <g id="ytick_4">
     <g id="line2d_8">
      <g>
       <use style="fill:#262626;stroke:#262626;" x="65.675" xlink:href="#m860e6cb95e" y="72.539543"/>
      </g>
     </g>
     <g id="text_9">
      <text style="fill:#262626;font-family:Arial;font-size:20px;font-style:normal;font-weight:normal;text-anchor:end;" transform="rotate(-0, 56.675, 79.697356)" x="56.675" y="79.697356">0.8</text>
     </g>
    </g>
    <g id="ytick_5">
     <g id="line2d_9">
      <g>
       <use style="fill:#262626;stroke:#262626;" x="65.675" xlink:href="#m860e6cb95e" y="14.311731"/>
      </g>
     </g>
     <g id="text_10">
      <text style="fill:#262626;font-family:Arial;font-size:20px;font-style:normal;font-weight:normal;text-anchor:end;" transform="rotate(-0, 56.675, 21.469543)" x="56.675" y="21.469543">1.0</text>
     </g>
    </g>
    <g id="text_11">
     <text style="fill:#262626;font-family:Arial;font-size:22px;font-style:normal;font-weight:normal;text-anchor:middle;" transform="rotate(-90, 20.244688, 155.453125)" x="20.244688" y="155.453125">G4Seeqer prob(G4)</text>
    </g>
   </g>
   <g id="PolyCollection_1">
    <defs>
     <path d="M 78.698864 -338.034019 
L 78.698864 -318.475193 
L 83.189851 -272.843958 
L 87.680839 -209.742459 
L 92.171826 -177.911558 
L 96.662813 -159.687676 
L 101.153801 -153.537189 
L 105.644788 -145.141918 
L 110.135776 -142.173051 
L 114.626763 -133.140389 
L 119.117751 -129.611154 
L 123.608738 -127.059849 
L 128.099726 -120.474215 
L 132.590713 -114.814562 
L 137.081701 -109.713621 
L 141.572688 -109.661205 
L 146.063676 -103.45703 
L 150.554663 -100.398218 
L 155.04565 -98.579615 
L 159.536638 -96.293149 
L 164.027625 -92.071874 
L 168.518613 -89.944717 
L 173.0096 -88.896278 
L 177.500588 -87.477456 
L 181.991575 -86.925764 
L 186.482563 -87.530683 
L 190.97355 -85.106715 
L 195.464538 -84.894094 
L 199.955525 -84.436979 
L 204.446513 -83.426382 
L 208.9375 -82.041758 
L 213.428487 -82.291736 
L 217.919475 -82.41135 
L 222.410462 -82.024135 
L 226.90145 -81.250911 
L 231.392437 -80.641573 
L 235.883425 -82.248873 
L 240.374412 -81.498709 
L 244.8654 -81.554075 
L 249.356387 -81.517244 
L 253.847375 -82.005306 
L 258.338362 -81.19123 
L 262.82935 -81.466919 
L 267.320337 -80.908307 
L 271.811324 -81.578704 
L 276.302312 -82.604439 
L 280.793299 -82.573231 
L 285.284287 -81.06464 
L 289.775274 -82.249192 
L 294.266262 -81.857682 
L 298.757249 -83.069194 
L 303.248237 -83.464269 
L 307.739224 -83.066872 
L 312.230212 -84.74536 
L 316.721199 -83.712152 
L 321.212187 -84.35859 
L 325.703174 -83.853398 
L 330.194161 -85.022856 
L 334.685149 -84.510972 
L 339.176136 -85.878192 
L 339.176136 -218.833571 
L 339.176136 -218.833571 
L 334.685149 -221.364498 
L 330.194161 -221.22735 
L 325.703174 -223.030419 
L 321.212187 -224.511261 
L 316.721199 -221.028655 
L 312.230212 -221.403913 
L 307.739224 -217.642166 
L 303.248237 -222.981451 
L 298.757249 -221.54105 
L 294.266262 -222.3955 
L 289.775274 -221.767854 
L 285.284287 -222.70492 
L 280.793299 -225.486232 
L 276.302312 -219.736164 
L 271.811324 -223.003658 
L 267.320337 -225.180319 
L 262.82935 -225.576079 
L 258.338362 -225.523505 
L 253.847375 -225.874093 
L 249.356387 -228.565498 
L 244.8654 -227.59473 
L 240.374412 -228.978444 
L 235.883425 -230.98737 
L 231.392437 -235.376001 
L 226.90145 -231.492511 
L 222.410462 -236.574967 
L 217.919475 -236.115269 
L 213.428487 -242.379622 
L 208.9375 -239.616633 
L 204.446513 -247.051226 
L 199.955525 -242.215881 
L 195.464538 -246.882997 
L 190.97355 -246.70515 
L 186.482563 -256.453737 
L 181.991575 -250.237432 
L 177.500588 -253.609942 
L 173.0096 -260.920037 
L 168.518613 -265.043063 
L 164.027625 -266.48852 
L 159.536638 -269.019332 
L 155.04565 -270.426266 
L 150.554663 -276.139883 
L 146.063676 -277.25688 
L 141.572688 -284.487512 
L 137.081701 -283.013007 
L 132.590713 -288.565254 
L 128.099726 -289.004652 
L 123.608738 -292.844329 
L 119.117751 -293.518989 
L 114.626763 -299.727699 
L 110.135776 -302.210387 
L 105.644788 -304.492009 
L 101.153801 -308.226522 
L 96.662813 -311.801699 
L 92.171826 -317.653175 
L 87.680839 -325.079075 
L 83.189851 -333.398694 
L 78.698864 -338.034019 
z
" id="m234c8241e3" style="stroke:#0072b2;stroke-opacity:0.2;stroke-width:0.3;"/>
    </defs>
    <g clip-path="url(#p9ad5ff627b)">
     <use style="fill:#0072b2;fill-opacity:0.2;stroke:#0072b2;stroke-opacity:0.2;stroke-width:0.3;" x="0" xlink:href="#m234c8241e3" y="360"/>
    </g>
   </g>
   <g id="PolyCollection_2">
    <defs>
     <path d="M 78.698864 -338.415606 
L 78.698864 -319.055728 
L 83.189851 -270.877558 
L 87.680839 -206.637627 
L 92.171826 -167.910498 
L 96.662813 -154.174885 
L 101.153801 -146.904211 
L 105.644788 -136.057816 
L 110.135776 -127.641935 
L 114.626763 -121.958253 
L 119.117751 -114.913377 
L 123.608738 -105.653087 
L 128.099726 -99.583754 
L 132.590713 -96.76623 
L 137.081701 -92.125722 
L 141.572688 -88.703129 
L 146.063676 -86.16945 
L 150.554663 -83.317251 
L 155.04565 -80.922323 
L 159.536638 -79.459288 
L 164.027625 -78.22983 
L 168.518613 -76.441101 
L 173.0096 -75.397262 
L 177.500588 -74.250357 
L 181.991575 -73.861832 
L 186.482563 -73.015365 
L 190.97355 -72.499664 
L 195.464538 -71.997392 
L 199.955525 -71.460302 
L 204.446513 -71.671361 
L 208.9375 -71.588176 
L 213.428487 -70.978679 
L 217.919475 -71.052206 
L 222.410462 -70.761567 
L 226.90145 -71.146949 
L 231.392437 -70.520469 
L 235.883425 -70.698014 
L 240.374412 -70.612698 
L 244.8654 -70.494326 
L 249.356387 -70.316761 
L 253.847375 -71.248394 
L 258.338362 -71.165976 
L 262.82935 -71.394602 
L 267.320337 -70.726627 
L 271.811324 -71.361849 
L 276.302312 -71.445351 
L 280.793299 -71.588676 
L 285.284287 -71.468104 
L 289.775274 -71.798947 
L 294.266262 -71.981961 
L 298.757249 -71.890392 
L 303.248237 -72.353847 
L 307.739224 -72.924908 
L 312.230212 -72.658731 
L 316.721199 -73.216446 
L 321.212187 -73.531581 
L 325.703174 -73.497782 
L 330.194161 -73.564602 
L 334.685149 -74.074609 
L 339.176136 -74.525772 
L 339.176136 -157.918686 
L 339.176136 -157.918686 
L 334.685149 -159.780099 
L 330.194161 -149.878383 
L 325.703174 -155.441882 
L 321.212187 -154.022465 
L 316.721199 -154.143142 
L 312.230212 -153.625074 
L 307.739224 -152.241698 
L 303.248237 -149.448666 
L 298.757249 -153.419932 
L 294.266262 -150.787475 
L 289.775274 -150.641059 
L 285.284287 -148.132484 
L 280.793299 -151.029896 
L 276.302312 -147.328021 
L 271.811324 -148.918345 
L 267.320337 -146.087476 
L 262.82935 -152.811809 
L 258.338362 -148.762161 
L 253.847375 -152.442575 
L 249.356387 -149.940257 
L 244.8654 -149.311782 
L 240.374412 -153.351658 
L 235.883425 -153.898865 
L 231.392437 -153.751703 
L 226.90145 -151.720151 
L 222.410462 -161.591554 
L 217.919475 -159.695089 
L 213.428487 -160.104181 
L 208.9375 -169.886548 
L 204.446513 -169.935284 
L 199.955525 -171.256114 
L 195.464538 -180.94061 
L 190.97355 -184.523299 
L 186.482563 -185.702153 
L 181.991575 -199.351737 
L 177.500588 -200.592389 
L 173.0096 -213.458624 
L 168.518613 -216.809648 
L 164.027625 -228.918255 
L 159.536638 -235.657249 
L 155.04565 -247.833891 
L 150.554663 -255.179974 
L 146.063676 -259.905893 
L 141.572688 -263.922251 
L 137.081701 -273.665067 
L 132.590713 -282.65153 
L 128.099726 -289.978345 
L 123.608738 -295.069508 
L 119.117751 -299.219866 
L 114.626763 -302.53732 
L 110.135776 -311.832398 
L 105.644788 -312.324455 
L 101.153801 -316.419747 
L 96.662813 -319.096543 
L 92.171826 -321.489068 
L 87.680839 -325.641367 
L 83.189851 -333.19375 
L 78.698864 -338.415606 
z
" id="m8c67bbb344" style="stroke:#d55e00;stroke-opacity:0.2;stroke-width:0.3;"/>
    </defs>
    <g clip-path="url(#p9ad5ff627b)">
     <use style="fill:#d55e00;fill-opacity:0.2;stroke:#d55e00;stroke-opacity:0.2;stroke-width:0.3;" x="0" xlink:href="#m8c67bbb344" y="360"/>
    </g>
   </g>
   <g id="PolyCollection_3">
    <defs>
     <path d="M 78.698864 -338.776989 
L 78.698864 -321.983273 
L 83.189851 -273.663512 
L 87.680839 -210.085375 
L 92.171826 -178.542348 
L 96.662813 -164.384453 
L 101.153801 -156.744555 
L 105.644788 -150.203198 
L 110.135776 -144.441517 
L 114.626763 -140.521639 
L 119.117751 -132.228008 
L 123.608738 -129.09074 
L 128.099726 -126.320793 
L 132.590713 -119.505471 
L 137.081701 -115.94547 
L 141.572688 -114.751548 
L 146.063676 -109.193266 
L 150.554663 -107.555933 
L 155.04565 -103.39977 
L 159.536638 -101.217628 
L 164.027625 -101.408797 
L 168.518613 -97.181421 
L 173.0096 -96.393703 
L 177.500588 -94.155473 
L 181.991575 -92.399236 
L 186.482563 -91.419935 
L 190.97355 -91.112334 
L 195.464538 -87.829658 
L 199.955525 -87.726627 
L 204.446513 -87.624686 
L 208.9375 -87.351019 
L 213.428487 -85.726636 
L 217.919475 -85.938345 
L 222.410462 -84.44 
L 226.90145 -84.567471 
L 231.392437 -84.422825 
L 235.883425 -83.703915 
L 240.374412 -83.594427 
L 244.8654 -83.794151 
L 249.356387 -84.596224 
L 253.847375 -83.257261 
L 258.338362 -82.958299 
L 262.82935 -83.256453 
L 267.320337 -82.221122 
L 271.811324 -83.80673 
L 276.302312 -83.752388 
L 280.793299 -84.602265 
L 285.284287 -83.771895 
L 289.775274 -84.273268 
L 294.266262 -83.440273 
L 298.757249 -84.260557 
L 303.248237 -84.783986 
L 307.739224 -85.641956 
L 312.230212 -85.016016 
L 316.721199 -85.62197 
L 321.212187 -85.803908 
L 325.703174 -85.791242 
L 330.194161 -88.401151 
L 334.685149 -86.840677 
L 339.176136 -87.359236 
L 339.176136 -233.999098 
L 339.176136 -233.999098 
L 334.685149 -233.900608 
L 330.194161 -237.641716 
L 325.703174 -238.977699 
L 321.212187 -236.728491 
L 316.721199 -233.762362 
L 312.230212 -237.045758 
L 307.739224 -232.173574 
L 303.248237 -231.940382 
L 298.757249 -235.506325 
L 294.266262 -230.984187 
L 289.775274 -232.676636 
L 285.284287 -232.820168 
L 280.793299 -235.694151 
L 276.302312 -235.893651 
L 271.811324 -233.864664 
L 267.320337 -234.379447 
L 262.82935 -234.512266 
L 258.338362 -236.58348 
L 253.847375 -235.295973 
L 249.356387 -239.8833 
L 244.8654 -238.485303 
L 240.374412 -238.338265 
L 235.883425 -236.716342 
L 231.392437 -240.650019 
L 226.90145 -240.038451 
L 222.410462 -239.199371 
L 217.919475 -243.501396 
L 213.428487 -242.909329 
L 208.9375 -248.984137 
L 204.446513 -248.840129 
L 199.955525 -253.2136 
L 195.464538 -251.380188 
L 190.97355 -255.931034 
L 186.482563 -258.923884 
L 181.991575 -258.130832 
L 177.500588 -264.334517 
L 173.0096 -266.996042 
L 168.518613 -267.106867 
L 164.027625 -271.428807 
L 159.536638 -270.876899 
L 155.04565 -275.500351 
L 150.554663 -279.376204 
L 146.063676 -278.17923 
L 141.572688 -291.665798 
L 137.081701 -286.563794 
L 132.590713 -289.73031 
L 128.099726 -295.005546 
L 123.608738 -295.914784 
L 119.117751 -299.85791 
L 114.626763 -302.907632 
L 110.135776 -309.737942 
L 105.644788 -310.932019 
L 101.153801 -313.311367 
L 96.662813 -315.917846 
L 92.171826 -319.235113 
L 87.680839 -324.938987 
L 83.189851 -333.307953 
L 78.698864 -338.776989 
z
" id="m4d98a82ea9" style="stroke:#009e73;stroke-opacity:0.2;stroke-width:0.3;"/>
    </defs>
    <g clip-path="url(#p9ad5ff627b)">
     <use style="fill:#009e73;fill-opacity:0.2;stroke:#009e73;stroke-opacity:0.2;stroke-width:0.3;" x="0" xlink:href="#m4d98a82ea9" y="360"/>
    </g>
   </g>
   <g id="line2d_10">
    <path clip-path="url(#p9ad5ff627b)" d="M 78.698864 27.844968 
L 83.189851 41.227821 
L 87.680839 79.106145 
L 92.171826 101.051799 
L 96.662813 113.956779 
L 101.153801 123.224971 
L 105.644788 132.539739 
L 110.135776 137.055087 
L 114.626763 145.982253 
L 119.117751 152.293141 
L 123.608738 155.904697 
L 128.099726 159.898615 
L 132.590713 168.823013 
L 137.081701 172.930369 
L 141.572688 175.045252 
L 146.063676 182.364988 
L 150.554663 187.064141 
L 155.04565 188.059783 
L 159.536638 193.35384 
L 164.027625 196.184327 
L 168.518613 203.655184 
L 173.0096 205.788912 
L 177.500588 209.251265 
L 181.991575 211.071429 
L 186.482563 210.835694 
L 190.97355 215.822677 
L 195.464538 216.940226 
L 199.955525 219.964028 
L 204.446513 220.295458 
L 208.9375 221.176325 
L 213.428487 222.9479 
L 217.919475 224.878171 
L 222.410462 224.14589 
L 226.90145 226.729519 
L 231.392437 227.900246 
L 235.883425 226.909385 
L 240.374412 226.183855 
L 244.8654 227.203921 
L 249.356387 227.842555 
L 253.847375 228.262087 
L 258.338362 227.451205 
L 262.82935 229.716514 
L 267.320337 230.759687 
L 271.811324 229.279898 
L 276.302312 230.588272 
L 280.793299 227.024098 
L 285.284287 230.871416 
L 289.775274 229.610859 
L 294.266262 230.992776 
L 298.757249 229.502185 
L 303.248237 229.23399 
L 307.739224 228.002969 
L 312.230212 226.647386 
L 316.721199 227.780708 
L 321.212187 226.136229 
L 325.703174 225.626885 
L 330.194161 226.673537 
L 334.685149 227.197778 
L 339.176136 226.526156 
" style="fill:none;stroke:#0072b2;stroke-linecap:round;stroke-width:1.75;"/>
   </g>
   <g id="line2d_11">
    <path clip-path="url(#p9ad5ff627b)" d="M 78.698864 27.350105 
L 83.189851 41.782292 
L 87.680839 75.211505 
L 92.171826 96.928877 
L 96.662813 111.220242 
L 101.153801 118.544611 
L 105.644788 132.811803 
L 110.135776 142.791079 
L 114.626763 156.288395 
L 119.117751 166.055727 
L 123.608738 174.489974 
L 128.099726 183.268484 
L 132.590713 190.077531 
L 137.081701 199.068965 
L 141.572688 210.09354 
L 146.063676 215.923309 
L 150.554663 222.431416 
L 155.04565 226.086303 
L 159.536638 234.515154 
L 164.027625 240.4406 
L 168.518613 244.440591 
L 173.0096 249.260515 
L 177.500588 255.233196 
L 181.991575 257.636169 
L 186.482563 261.275386 
L 190.97355 263.410746 
L 195.464538 264.228825 
L 199.955525 267.653795 
L 204.446513 268.244994 
L 208.9375 268.064477 
L 213.428487 269.439739 
L 217.919475 270.87855 
L 222.410462 270.168139 
L 226.90145 271.921595 
L 231.392437 271.66293 
L 235.883425 271.687725 
L 240.374412 272.189852 
L 244.8654 273.03386 
L 249.356387 272.834434 
L 253.847375 271.433383 
L 258.338362 272.166939 
L 262.82935 271.943009 
L 267.320337 271.957972 
L 271.811324 271.914862 
L 276.302312 271.761906 
L 280.793299 271.803988 
L 285.284287 270.73492 
L 289.775274 270.78111 
L 294.266262 270.464118 
L 298.757249 269.870117 
L 303.248237 270.41247 
L 307.739224 268.488217 
L 312.230212 268.193178 
L 316.721199 268.893849 
L 321.212187 267.658884 
L 325.703174 266.059345 
L 330.194161 267.601068 
L 334.685149 266.169365 
L 339.176136 265.444845 
" style="fill:none;stroke:#d55e00;stroke-linecap:round;stroke-width:1.75;"/>
   </g>
   <g id="line2d_12">
    <path clip-path="url(#p9ad5ff627b)" d="M 78.698864 26.562043 
L 83.189851 41.135294 
L 87.680839 74.483988 
L 92.171826 95.994231 
L 96.662813 107.520045 
L 101.153801 118.08888 
L 105.644788 123.087863 
L 110.135776 130.533843 
L 114.626763 139.873843 
L 119.117751 147.736562 
L 123.608738 152.544381 
L 128.099726 156.912678 
L 132.590713 164.419733 
L 137.081701 171.153215 
L 141.572688 170.292373 
L 146.063676 179.107923 
L 150.554663 179.793671 
L 155.04565 183.988722 
L 159.536638 187.878268 
L 164.027625 189.957308 
L 168.518613 195.15233 
L 173.0096 196.510638 
L 177.500588 200.357053 
L 181.991575 202.814784 
L 186.482563 204.249038 
L 190.97355 208.201238 
L 195.464538 211.775225 
L 199.955525 210.588194 
L 204.446513 212.840436 
L 208.9375 214.334064 
L 213.428487 217.784027 
L 217.919475 220.463454 
L 222.410462 223.382131 
L 226.90145 222.089765 
L 231.392437 221.900771 
L 235.883425 222.06705 
L 240.374412 223.815892 
L 244.8654 224.779257 
L 249.356387 222.11596 
L 253.847375 223.27966 
L 258.338362 223.75198 
L 262.82935 226.559058 
L 267.320337 226.80943 
L 271.811324 225.253773 
L 276.302312 223.993815 
L 280.793299 224.987314 
L 285.284287 227.298427 
L 289.775274 225.591424 
L 294.266262 225.525551 
L 298.757249 223.001383 
L 303.248237 225.964935 
L 307.739224 222.683585 
L 312.230212 220.61166 
L 316.721199 223.029088 
L 321.212187 220.904496 
L 325.703174 218.790723 
L 330.194161 220.222201 
L 334.685149 221.814178 
L 339.176136 220.884826 
" style="fill:none;stroke:#009e73;stroke-linecap:round;stroke-width:1.75;"/>
   </g>
   <g id="patch_3">
    <path d="M 65.675 303.10625 
L 65.675 7.8 
" style="fill:none;stroke:#262626;stroke-linecap:square;stroke-linejoin:miter;stroke-width:1.25;"/>
   </g>
   <g id="patch_4">
    <path d="M 352.2 303.10625 
L 352.2 7.8 
" style="fill:none;stroke:#262626;stroke-linecap:square;stroke-linejoin:miter;stroke-width:1.25;"/>
   </g>
   <g id="patch_5">
    <path d="M 65.675 303.10625 
L 352.2 303.10625 
" style="fill:none;stroke:#262626;stroke-linecap:square;stroke-linejoin:miter;stroke-width:1.25;"/>
   </g>
   <g id="patch_6">
    <path d="M 65.675 7.8 
L 352.2 7.8 
" style="fill:none;stroke:#262626;stroke-linecap:square;stroke-linejoin:miter;stroke-width:1.25;"/>
   </g>
   <g id="legend_1">
    <g id="line2d_13">
     <path d="M 217.034375 33.175 
L 257.034375 33.175 
" style="fill:none;stroke:#0072b2;stroke-linecap:round;stroke-width:1.75;"/>
    </g>
    <g id="line2d_14"/>
    <g id="text_12">
     <text style="fill:#262626;font-family:Arial;font-size:20px;font-style:normal;font-weight:normal;text-anchor:start;" transform="rotate(-0, 273.034375, 40.175)" x="273.034375" y="40.175">Loop 1</text>
    </g>
    <g id="line2d_15">
     <path d="M 217.034375 61.525 
L 257.034375 61.525 
" style="fill:none;stroke:#d55e00;stroke-linecap:round;stroke-width:1.75;"/>
    </g>
    <g id="line2d_16"/>
    <g id="text_13">
     <text style="fill:#262626;font-family:Arial;font-size:20px;font-style:normal;font-weight:normal;text-anchor:start;" transform="rotate(-0, 273.034375, 68.525)" x="273.034375" y="68.525">Loop 2</text>
    </g>
    <g id="line2d_17">
     <path d="M 217.034375 89.875 
L 257.034375 89.875 
" style="fill:none;stroke:#009e73;stroke-linecap:round;stroke-width:1.75;"/>
    </g>
    <g id="line2d_18"/>
    <g id="text_14">
     <text style="fill:#262626;font-family:Arial;font-size:20px;font-style:normal;font-weight:normal;text-anchor:start;" transform="rotate(-0, 273.034375, 96.875)" x="273.034375" y="96.875">Loop 3</text>
    </g>
   </g>
  </g>
 </g>
 <defs>
  <clipPath id="p9ad5ff627b">
   <rect height="295.30625" width="286.525" x="65.675" y="7.8"/>
  </clipPath>
 </defs>
</svg>
