<?xml version="1.0" encoding="utf-8" standalone="no"?>
<!DOCTYPE svg PUBLIC "-//W3C//DTD SVG 1.1//EN"
  "http://www.w3.org/Graphics/SVG/1.1/DTD/svg11.dtd">
<!-- Created with matplotlib (http://matplotlib.org/) -->
<svg height="360pt" version="1.1" viewBox="0 0 360 360" width="360pt" xmlns="http://www.w3.org/2000/svg" xmlns:xlink="http://www.w3.org/1999/xlink">
 <defs>
  <style type="text/css">
*{stroke-linecap:butt;stroke-linejoin:round;}
  </style>
 </defs>
 <g id="figure_1">
  <g id="patch_1">
   <path d="M 0 360 
L 360 360 
L 360 0 
L 0 0 
z
" style="fill:#ffffff;"/>
  </g>
  <g id="axes_1">
   <g id="patch_2">
    <path d="M 65.675 303.10625 
L 352.2 303.10625 
L 352.2 11.733191 
L 65.675 11.733191 
z
" style="fill:#ffffff;"/>
   </g>
   <g id="matplotlib.axis_1">
    <g id="xtick_1">
     <g id="line2d_1">
      <defs>
       <path d="M 0 0 
L 0 2 
" id="m48f34f6a17" style="stroke:#262626;"/>
      </defs>
      <g>
       <use style="fill:#262626;stroke:#262626;" x="74.207876" xlink:href="#m48f34f6a17" y="303.10625"/>
      </g>
     </g>
     <g id="text_1">
      <text style="fill:#262626;font-family:Arial;font-size:20px;font-style:normal;font-weight:normal;text-anchor:middle;" transform="rotate(-0, 74.207876, 326.421875)" x="74.207876" y="326.421875">0</text>
     </g>
    </g>
    <g id="xtick_2">
     <g id="line2d_2">
      <g>
       <use style="fill:#262626;stroke:#262626;" x="164.027625" xlink:href="#m48f34f6a17" y="303.10625"/>
      </g>
     </g>
     <g id="text_2">
      <text style="fill:#262626;font-family:Arial;font-size:20px;font-style:normal;font-weight:normal;text-anchor:middle;" transform="rotate(-0, 164.027625, 326.421875)" x="164.027625" y="326.421875">20</text>
     </g>
    </g>
    <g id="xtick_3">
     <g id="line2d_3">
      <g>
       <use style="fill:#262626;stroke:#262626;" x="253.847375" xlink:href="#m48f34f6a17" y="303.10625"/>
      </g>
     </g>
     <g id="text_3">
      <text style="fill:#262626;font-family:Arial;font-size:20px;font-style:normal;font-weight:normal;text-anchor:middle;" transform="rotate(-0, 253.847375, 326.421875)" x="253.847375" y="326.421875">40</text>
     </g>
    </g>
    <g id="xtick_4">
     <g id="line2d_4">
      <g>
       <use style="fill:#262626;stroke:#262626;" x="343.667124" xlink:href="#m48f34f6a17" y="303.10625"/>
      </g>
     </g>
     <g id="text_4">
      <text style="fill:#262626;font-family:Arial;font-size:20px;font-style:normal;font-weight:normal;text-anchor:middle;" transform="rotate(-0, 343.667124, 326.421875)" x="343.667124" y="326.421875">60</text>
     </g>
    </g>
    <g id="text_5">
     <text style="fill:#262626;font-family:Arial;font-size:22px;font-style:normal;font-weight:normal;text-anchor:middle;" transform="rotate(-0, 208.9375, 350.144063)" x="208.9375" y="350.144063">Loop Length</text>
    </g>
   </g>
   <g id="matplotlib.axis_2">
    <g id="ytick_1">
     <g id="line2d_5">
      <defs>
       <path d="M 0 0 
L -2 0 
" id="m221e18d12b" style="stroke:#262626;"/>
      </defs>
      <g>
       <use style="fill:#262626;stroke:#262626;" x="65.675" xlink:href="#m221e18d12b" y="301.661755"/>
      </g>
     </g>
     <g id="text_6">
      <text style="fill:#262626;font-family:Arial;font-size:20px;font-style:normal;font-weight:normal;text-anchor:end;" transform="rotate(-0, 56.675, 308.819567)" x="56.675" y="308.819567">0.0</text>
     </g>
    </g>
    <g id="ytick_2">
     <g id="line2d_6">
      <g>
       <use style="fill:#262626;stroke:#262626;" x="65.675" xlink:href="#m221e18d12b" y="243.797567"/>
      </g>
     </g>
     <g id="text_7">
      <text style="fill:#262626;font-family:Arial;font-size:20px;font-style:normal;font-weight:normal;text-anchor:end;" transform="rotate(-0, 56.675, 250.95538)" x="56.675" y="250.95538">0.2</text>
     </g>
    </g>
    <g id="ytick_3">
     <g id="line2d_7">
      <g>
       <use style="fill:#262626;stroke:#262626;" x="65.675" xlink:href="#m221e18d12b" y="185.93338"/>
      </g>
     </g>
     <g id="text_8">
      <text style="fill:#262626;font-family:Arial;font-size:20px;font-style:normal;font-weight:normal;text-anchor:end;" transform="rotate(-0, 56.675, 193.091192)" x="56.675" y="193.091192">0.4</text>
     </g>
    </g>
    <g id="ytick_4">
     <g id="line2d_8">
      <g>
       <use style="fill:#262626;stroke:#262626;" x="65.675" xlink:href="#m221e18d12b" y="128.069192"/>
      </g>
     </g>
     <g id="text_9">
      <text style="fill:#262626;font-family:Arial;font-size:20px;font-style:normal;font-weight:normal;text-anchor:end;" transform="rotate(-0, 56.675, 135.227005)" x="56.675" y="135.227005">0.6</text>
     </g>
    </g>
    <g id="ytick_5">
     <g id="line2d_9">
      <g>
       <use style="fill:#262626;stroke:#262626;" x="65.675" xlink:href="#m221e18d12b" y="70.205005"/>
      </g>
     </g>
     <g id="text_10">
      <text style="fill:#262626;font-family:Arial;font-size:20px;font-style:normal;font-weight:normal;text-anchor:end;" transform="rotate(-0, 56.675, 77.362817)" x="56.675" y="77.362817">0.8</text>
     </g>
    </g>
    <g id="ytick_6">
     <g id="line2d_10">
      <g>
       <use style="fill:#262626;stroke:#262626;" x="65.675" xlink:href="#m221e18d12b" y="12.340817"/>
      </g>
     </g>
     <g id="text_11">
      <text style="fill:#262626;font-family:Arial;font-size:20px;font-style:normal;font-weight:normal;text-anchor:end;" transform="rotate(-0, 56.675, 19.49863)" x="56.675" y="19.49863">1.0</text>
     </g>
    </g>
    <g id="text_12">
     <text style="fill:#262626;font-family:Arial;font-size:22px;font-style:normal;font-weight:normal;text-anchor:middle;" transform="rotate(-90, 20.244688, 157.41972)" x="20.244688" y="157.41972">G4Seeqer prob(G4)</text>
    </g>
   </g>
   <g id="PolyCollection_1">
    <defs>
     <path d="M 78.698864 -333.847104 
L 78.698864 -259.788356 
L 83.189851 -146.528033 
L 87.680839 -105.803075 
L 92.171826 -99.231346 
L 96.662813 -92.931217 
L 101.153801 -89.217884 
L 105.644788 -89.634708 
L 110.135776 -86.536228 
L 114.626763 -84.280726 
L 119.117751 -84.852026 
L 123.608738 -81.528856 
L 128.099726 -81.63017 
L 132.590713 -79.534395 
L 137.081701 -77.850796 
L 141.572688 -77.687305 
L 146.063676 -76.464 
L 150.554663 -75.903678 
L 155.04565 -75.441394 
L 159.536638 -74.685662 
L 164.027625 -73.527718 
L 168.518613 -73.552541 
L 173.0096 -72.992873 
L 177.500588 -72.773498 
L 181.991575 -72.6512 
L 186.482563 -72.225035 
L 190.97355 -71.994377 
L 195.464538 -72.116563 
L 199.955525 -71.752862 
L 204.446513 -70.952712 
L 208.9375 -71.226671 
L 213.428487 -71.354947 
L 217.919475 -71.230578 
L 222.410462 -71.077176 
L 226.90145 -70.886281 
L 231.392437 -71.21044 
L 235.883425 -71.275474 
L 240.374412 -71.199636 
L 244.8654 -71.176401 
L 249.356387 -71.57081 
L 253.847375 -71.438541 
L 258.338362 -71.275661 
L 262.82935 -71.458242 
L 267.320337 -71.663926 
L 271.811324 -72.021673 
L 276.302312 -71.74385 
L 280.793299 -71.856849 
L 285.284287 -72.41274 
L 289.775274 -72.101124 
L 294.266262 -72.022899 
L 298.757249 -72.260352 
L 303.248237 -72.815876 
L 307.739224 -73.08385 
L 312.230212 -72.874897 
L 316.721199 -73.345457 
L 321.212187 -73.394555 
L 325.703174 -73.595238 
L 330.194161 -73.879687 
L 334.685149 -74.112639 
L 339.176136 -74.460295 
L 339.176136 -134.361473 
L 339.176136 -134.361473 
L 334.685149 -137.027757 
L 330.194161 -131.704101 
L 325.703174 -134.293408 
L 321.212187 -134.98826 
L 316.721199 -134.688196 
L 312.230212 -133.572561 
L 307.739224 -133.689666 
L 303.248237 -131.418144 
L 298.757249 -136.704834 
L 294.266262 -133.468284 
L 289.775274 -134.10386 
L 285.284287 -134.550197 
L 280.793299 -132.690138 
L 276.302312 -133.376681 
L 271.811324 -131.167323 
L 267.320337 -132.152165 
L 262.82935 -127.824947 
L 258.338362 -134.793811 
L 253.847375 -132.534964 
L 249.356387 -132.789597 
L 244.8654 -133.455647 
L 240.374412 -135.055444 
L 235.883425 -134.909016 
L 231.392437 -136.136148 
L 226.90145 -136.506266 
L 222.410462 -138.208191 
L 217.919475 -136.291526 
L 213.428487 -136.666399 
L 208.9375 -140.621197 
L 204.446513 -138.414419 
L 199.955525 -140.009443 
L 195.464538 -145.028055 
L 190.97355 -143.472298 
L 186.482563 -145.929147 
L 181.991575 -152.508889 
L 177.500588 -154.213929 
L 173.0096 -154.142661 
L 168.518613 -156.915348 
L 164.027625 -157.52549 
L 159.536638 -161.609371 
L 155.04565 -165.647193 
L 150.554663 -167.15937 
L 146.063676 -175.200971 
L 141.572688 -177.443883 
L 137.081701 -189.24378 
L 132.590713 -189.024503 
L 128.099726 -193.623581 
L 123.608738 -202.147863 
L 119.117751 -208.422806 
L 114.626763 -210.063507 
L 110.135776 -212.817895 
L 105.644788 -220.884839 
L 101.153801 -222.555367 
L 96.662813 -232.362775 
L 92.171826 -243.625598 
L 87.680839 -266.54616 
L 83.189851 -306.241867 
L 78.698864 -333.847104 
z
" id="m53017daab8" style="stroke:#0072b2;stroke-opacity:0.2;stroke-width:0.3;"/>
    </defs>
    <g clip-path="url(#p3438144ff2)">
     <use style="fill:#0072b2;fill-opacity:0.2;stroke:#0072b2;stroke-opacity:0.2;stroke-width:0.3;" x="0" xlink:href="#m53017daab8" y="360"/>
    </g>
   </g>
   <g id="PolyCollection_2">
    <defs>
     <path d="M 78.698864 -334.319321 
L 78.698864 -256.253833 
L 83.189851 -148.917107 
L 87.680839 -106.817243 
L 92.171826 -97.010311 
L 96.662813 -91.727688 
L 101.153801 -89.35272 
L 105.644788 -87.829704 
L 110.135776 -85.018474 
L 114.626763 -83.771473 
L 119.117751 -81.06159 
L 123.608738 -80.474165 
L 128.099726 -78.771714 
L 132.590713 -77.528201 
L 137.081701 -76.150554 
L 141.572688 -76.565686 
L 146.063676 -75.144346 
L 150.554663 -74.914689 
L 155.04565 -73.693213 
L 159.536638 -73.028471 
L 164.027625 -73.161768 
L 168.518613 -72.20028 
L 173.0096 -71.867652 
L 177.500588 -71.506672 
L 181.991575 -71.47776 
L 186.482563 -70.941722 
L 190.97355 -70.84313 
L 195.464538 -70.717827 
L 199.955525 -70.675234 
L 204.446513 -70.654949 
L 208.9375 -70.13798 
L 213.428487 -70.370278 
L 217.919475 -70.416594 
L 222.410462 -70.655242 
L 226.90145 -70.165355 
L 231.392437 -70.307271 
L 235.883425 -70.571306 
L 240.374412 -70.435404 
L 244.8654 -70.242634 
L 249.356387 -70.622306 
L 253.847375 -70.344652 
L 258.338362 -70.347939 
L 262.82935 -70.303924 
L 267.320337 -70.46575 
L 271.811324 -70.525219 
L 276.302312 -70.586779 
L 280.793299 -70.536083 
L 285.284287 -70.778365 
L 289.775274 -70.644625 
L 294.266262 -70.978851 
L 298.757249 -71.100088 
L 303.248237 -70.842854 
L 307.739224 -70.961056 
L 312.230212 -71.18107 
L 316.721199 -71.098912 
L 321.212187 -71.347564 
L 325.703174 -71.206114 
L 330.194161 -71.246742 
L 334.685149 -71.29043 
L 339.176136 -71.489986 
L 339.176136 -124.155827 
L 339.176136 -124.155827 
L 334.685149 -123.055508 
L 330.194161 -122.15306 
L 325.703174 -123.537369 
L 321.212187 -119.489338 
L 316.721199 -122.874036 
L 312.230212 -121.578546 
L 307.739224 -122.034835 
L 303.248237 -115.154835 
L 298.757249 -123.512774 
L 294.266262 -119.69308 
L 289.775274 -119.258671 
L 285.284287 -117.034634 
L 280.793299 -117.518916 
L 276.302312 -119.93711 
L 271.811324 -118.92616 
L 267.320337 -119.476274 
L 262.82935 -118.297064 
L 258.338362 -117.427122 
L 253.847375 -117.004935 
L 249.356387 -119.43111 
L 244.8654 -117.659225 
L 240.374412 -121.944893 
L 235.883425 -118.010031 
L 231.392437 -119.749786 
L 226.90145 -118.47269 
L 222.410462 -118.498371 
L 217.919475 -125.092502 
L 213.428487 -119.160542 
L 208.9375 -119.205318 
L 204.446513 -123.529558 
L 199.955525 -128.495653 
L 195.464538 -130.135017 
L 190.97355 -131.648454 
L 186.482563 -132.143276 
L 181.991575 -131.292695 
L 177.500588 -135.618691 
L 173.0096 -142.125074 
L 168.518613 -142.548902 
L 164.027625 -146.498084 
L 159.536638 -152.455159 
L 155.04565 -155.127106 
L 150.554663 -164.024273 
L 146.063676 -165.076539 
L 141.572688 -172.813464 
L 137.081701 -177.243199 
L 132.590713 -186.324948 
L 128.099726 -185.479438 
L 123.608738 -193.658591 
L 119.117751 -197.439519 
L 114.626763 -205.930419 
L 110.135776 -214.144302 
L 105.644788 -216.638447 
L 101.153801 -222.864496 
L 96.662813 -230.271396 
L 92.171826 -243.406244 
L 87.680839 -266.470878 
L 83.189851 -304.025203 
L 78.698864 -334.319321 
z
" id="m3a1affa331" style="stroke:#d55e00;stroke-opacity:0.2;stroke-width:0.3;"/>
    </defs>
    <g clip-path="url(#p3438144ff2)">
     <use style="fill:#d55e00;fill-opacity:0.2;stroke:#d55e00;stroke-opacity:0.2;stroke-width:0.3;" x="0" xlink:href="#m3a1affa331" y="360"/>
    </g>
   </g>
   <g id="PolyCollection_3">
    <defs>
     <path d="M 78.698864 -335.022579 
L 78.698864 -244.126388 
L 83.189851 -142.710832 
L 87.680839 -105.863404 
L 92.171826 -95.980046 
L 96.662813 -90.911127 
L 101.153801 -89.001396 
L 105.644788 -86.740951 
L 110.135776 -85.397045 
L 114.626763 -85.241843 
L 119.117751 -82.762922 
L 123.608738 -81.179932 
L 128.099726 -81.061763 
L 132.590713 -79.280276 
L 137.081701 -78.256569 
L 141.572688 -78.768972 
L 146.063676 -77.095815 
L 150.554663 -76.558168 
L 155.04565 -75.798846 
L 159.536638 -75.910943 
L 164.027625 -74.647636 
L 168.518613 -74.171058 
L 173.0096 -73.981537 
L 177.500588 -73.636006 
L 181.991575 -73.019107 
L 186.482563 -72.94497 
L 190.97355 -72.360885 
L 195.464538 -72.632974 
L 199.955525 -72.052866 
L 204.446513 -71.844461 
L 208.9375 -71.496262 
L 213.428487 -71.377698 
L 217.919475 -70.914832 
L 222.410462 -71.023332 
L 226.90145 -70.727216 
L 231.392437 -70.908763 
L 235.883425 -70.512217 
L 240.374412 -70.580024 
L 244.8654 -70.498586 
L 249.356387 -70.44221 
L 253.847375 -70.532427 
L 258.338362 -70.219934 
L 262.82935 -70.255081 
L 267.320337 -70.411772 
L 271.811324 -70.437777 
L 276.302312 -70.496531 
L 280.793299 -70.237592 
L 285.284287 -70.308291 
L 289.775274 -70.51978 
L 294.266262 -70.148429 
L 298.757249 -70.215871 
L 303.248237 -70.580066 
L 307.739224 -70.230723 
L 312.230212 -70.774719 
L 316.721199 -70.983806 
L 321.212187 -70.738255 
L 325.703174 -70.673535 
L 330.194161 -70.92809 
L 334.685149 -71.211687 
L 339.176136 -71.37831 
L 339.176136 -150.82651 
L 339.176136 -150.82651 
L 334.685149 -147.492227 
L 330.194161 -151.453856 
L 325.703174 -148.321433 
L 321.212187 -149.399738 
L 316.721199 -145.542108 
L 312.230212 -143.295896 
L 307.739224 -144.171085 
L 303.248237 -145.756016 
L 298.757249 -144.82714 
L 294.266262 -142.518874 
L 289.775274 -145.43694 
L 285.284287 -146.109788 
L 280.793299 -144.500449 
L 276.302312 -142.39688 
L 271.811324 -147.917085 
L 267.320337 -141.500818 
L 262.82935 -145.48197 
L 258.338362 -142.516051 
L 253.847375 -143.857788 
L 249.356387 -143.544154 
L 244.8654 -145.413888 
L 240.374412 -140.422745 
L 235.883425 -143.703581 
L 231.392437 -146.745358 
L 226.90145 -142.257565 
L 222.410462 -144.510871 
L 217.919475 -146.646338 
L 213.428487 -147.038494 
L 208.9375 -148.621116 
L 204.446513 -144.572815 
L 199.955525 -148.386093 
L 195.464538 -148.325861 
L 190.97355 -150.618092 
L 186.482563 -153.939737 
L 181.991575 -157.218817 
L 177.500588 -160.383633 
L 173.0096 -163.35585 
L 168.518613 -165.704612 
L 164.027625 -164.751791 
L 159.536638 -172.784192 
L 155.04565 -173.566254 
L 150.554663 -175.629198 
L 146.063676 -183.393414 
L 141.572688 -187.141998 
L 137.081701 -183.896842 
L 132.590713 -193.033025 
L 128.099726 -201.768532 
L 123.608738 -200.894464 
L 119.117751 -205.319352 
L 114.626763 -209.85539 
L 110.135776 -221.172688 
L 105.644788 -222.566624 
L 101.153801 -226.268993 
L 96.662813 -233.677745 
L 92.171826 -249.318579 
L 87.680839 -263.423689 
L 83.189851 -302.20775 
L 78.698864 -335.022579 
z
" id="m91373ed56f" style="stroke:#009e73;stroke-opacity:0.2;stroke-width:0.3;"/>
    </defs>
    <g clip-path="url(#p3438144ff2)">
     <use style="fill:#009e73;fill-opacity:0.2;stroke:#009e73;stroke-opacity:0.2;stroke-width:0.3;" x="0" xlink:href="#m91373ed56f" y="360"/>
    </g>
   </g>
   <g id="line2d_11">
    <path clip-path="url(#p3438144ff2)" d="M 78.698864 46.319975 
L 83.189851 132.281383 
L 87.680839 188.213047 
L 92.171826 202.82329 
L 96.662813 209.850265 
L 101.153801 217.815447 
L 105.644788 219.382868 
L 110.135776 226.956315 
L 114.626763 231.150333 
L 119.117751 232.714033 
L 123.608738 236.635344 
L 128.099726 239.472514 
L 132.590713 245.24686 
L 137.081701 249.042008 
L 141.572688 251.568265 
L 146.063676 253.419631 
L 150.554663 257.548291 
L 155.04565 259.444489 
L 159.536638 261.25095 
L 164.027625 264.691186 
L 168.518613 266.196508 
L 173.0096 266.85746 
L 177.500588 267.242719 
L 181.991575 268.106558 
L 186.482563 269.364813 
L 190.97355 271.098293 
L 195.464538 270.703634 
L 199.955525 272.449127 
L 204.446513 272.613363 
L 208.9375 272.982291 
L 213.428487 272.787595 
L 217.919475 272.673485 
L 222.410462 273.694043 
L 226.90145 273.474057 
L 231.392437 273.208755 
L 235.883425 273.515309 
L 240.374412 273.164826 
L 244.8654 273.158131 
L 249.356387 273.315505 
L 253.847375 273.705653 
L 258.338362 273.598032 
L 262.82935 273.234625 
L 267.320337 272.966131 
L 271.811324 272.906429 
L 276.302312 272.735991 
L 280.793299 272.818931 
L 285.284287 271.943447 
L 289.775274 271.739667 
L 294.266262 272.350571 
L 298.757249 271.56799 
L 303.248237 271.782682 
L 307.739224 270.849523 
L 312.230212 271.72189 
L 316.721199 270.979235 
L 321.212187 270.998366 
L 325.703174 270.404515 
L 330.194161 270.121039 
L 334.685149 269.291988 
L 339.176136 270.062185 
" style="fill:none;stroke:#0072b2;stroke-linecap:round;stroke-width:1.75;"/>
   </g>
   <g id="line2d_12">
    <path clip-path="url(#p3438144ff2)" d="M 78.698864 47.230711 
L 83.189851 130.884393 
L 87.680839 187.044758 
L 92.171826 205.342197 
L 96.662813 213.818206 
L 101.153801 221.684868 
L 105.644788 224.780564 
L 110.135776 229.972456 
L 114.626763 234.315646 
L 119.117751 239.236492 
L 123.608738 242.176122 
L 128.099726 246.875392 
L 132.590713 251.104197 
L 137.081701 256.033324 
L 141.572688 255.178186 
L 146.063676 261.244863 
L 150.554663 262.229096 
L 155.04565 265.935649 
L 159.536638 268.07694 
L 164.027625 269.854141 
L 168.518613 271.86472 
L 173.0096 271.946176 
L 177.500588 274.917782 
L 181.991575 274.891978 
L 186.482563 276.234795 
L 190.97355 276.089308 
L 195.464538 277.233139 
L 199.955525 277.290278 
L 204.446513 277.89057 
L 208.9375 279.188302 
L 213.428487 278.696662 
L 217.919475 278.912902 
L 222.410462 278.707244 
L 226.90145 279.470864 
L 231.392437 279.687796 
L 235.883425 279.129349 
L 240.374412 279.402669 
L 244.8654 279.746484 
L 249.356387 279.728274 
L 253.847375 279.845328 
L 258.338362 279.611515 
L 262.82935 279.232557 
L 267.320337 279.315692 
L 271.811324 279.402842 
L 276.302312 278.878117 
L 280.793299 279.044804 
L 285.284287 279.245754 
L 289.775274 278.804117 
L 294.266262 278.507757 
L 298.757249 278.382549 
L 303.248237 278.838208 
L 307.739224 277.836917 
L 312.230212 277.343948 
L 316.721199 277.544474 
L 321.212187 277.459017 
L 325.703174 277.026798 
L 330.194161 277.613268 
L 334.685149 276.527591 
L 339.176136 276.26346 
" style="fill:none;stroke:#d55e00;stroke-linecap:round;stroke-width:1.75;"/>
   </g>
   <g id="line2d_13">
    <path clip-path="url(#p3438144ff2)" d="M 78.698864 50.897833 
L 83.189851 136.20873 
L 87.680839 186.473367 
L 92.171826 204.564711 
L 96.662813 214.982649 
L 101.153801 221.702889 
L 105.644788 223.856032 
L 110.135776 227.552177 
L 114.626763 231.340539 
L 119.117751 236.170414 
L 123.608738 239.832134 
L 128.099726 241.399326 
L 132.590713 244.066358 
L 137.081701 249.416196 
L 141.572688 248.396692 
L 146.063676 253.52645 
L 150.554663 256.015907 
L 155.04565 257.310247 
L 159.536638 258.620443 
L 164.027625 263.423743 
L 168.518613 262.361067 
L 173.0096 265.651488 
L 177.500588 265.918956 
L 181.991575 267.570902 
L 186.482563 268.902258 
L 190.97355 270.210323 
L 195.464538 270.306982 
L 199.955525 271.065444 
L 204.446513 271.816529 
L 208.9375 271.314359 
L 213.428487 272.925491 
L 217.919475 273.105724 
L 222.410462 273.424165 
L 226.90145 273.555968 
L 231.392437 273.670948 
L 235.883425 273.025181 
L 240.374412 273.701545 
L 244.8654 273.797762 
L 249.356387 274.813028 
L 253.847375 272.976805 
L 258.338362 273.549807 
L 262.82935 272.534395 
L 267.320337 272.261895 
L 271.811324 272.637277 
L 276.302312 272.736755 
L 280.793299 271.899919 
L 285.284287 272.262859 
L 289.775274 271.540708 
L 294.266262 271.654156 
L 298.757249 271.609285 
L 303.248237 270.631065 
L 307.739224 271.401236 
L 312.230212 270.262917 
L 316.721199 270.028363 
L 321.212187 268.395436 
L 325.703174 268.859525 
L 330.194161 268.503369 
L 334.685149 269.125885 
L 339.176136 268.085563 
" style="fill:none;stroke:#009e73;stroke-linecap:round;stroke-width:1.75;"/>
   </g>
   <g id="patch_3">
    <path d="M 65.675 303.10625 
L 65.675 11.733191 
" style="fill:none;stroke:#262626;stroke-linecap:square;stroke-linejoin:miter;stroke-width:1.25;"/>
   </g>
   <g id="patch_4">
    <path d="M 352.2 303.10625 
L 352.2 11.733191 
" style="fill:none;stroke:#262626;stroke-linecap:square;stroke-linejoin:miter;stroke-width:1.25;"/>
   </g>
   <g id="patch_5">
    <path d="M 65.675 303.10625 
L 352.2 303.10625 
" style="fill:none;stroke:#262626;stroke-linecap:square;stroke-linejoin:miter;stroke-width:1.25;"/>
   </g>
   <g id="patch_6">
    <path d="M 65.675 11.733191 
L 352.2 11.733191 
" style="fill:none;stroke:#262626;stroke-linecap:square;stroke-linejoin:miter;stroke-width:1.25;"/>
   </g>
   <g id="legend_1">
    <g id="line2d_14">
     <path d="M 217.034375 37.108191 
L 257.034375 37.108191 
" style="fill:none;stroke:#0072b2;stroke-linecap:round;stroke-width:1.75;"/>
    </g>
    <g id="line2d_15"/>
    <g id="text_13">
     <text style="fill:#262626;font-family:Arial;font-size:20px;font-style:normal;font-weight:normal;text-anchor:start;" transform="rotate(-0, 273.034375, 44.108191)" x="273.034375" y="44.108191">Loop 1</text>
    </g>
    <g id="line2d_16">
     <path d="M 217.034375 65.458191 
L 257.034375 65.458191 
" style="fill:none;stroke:#d55e00;stroke-linecap:round;stroke-width:1.75;"/>
    </g>
    <g id="line2d_17"/>
    <g id="text_14">
     <text style="fill:#262626;font-family:Arial;font-size:20px;font-style:normal;font-weight:normal;text-anchor:start;" transform="rotate(-0, 273.034375, 72.458191)" x="273.034375" y="72.458191">Loop 2</text>
    </g>
    <g id="line2d_18">
     <path d="M 217.034375 93.808191 
L 257.034375 93.808191 
" style="fill:none;stroke:#009e73;stroke-linecap:round;stroke-width:1.75;"/>
    </g>
    <g id="line2d_19"/>
    <g id="text_15">
     <text style="fill:#262626;font-family:Arial;font-size:20px;font-style:normal;font-weight:normal;text-anchor:start;" transform="rotate(-0, 273.034375, 100.808191)" x="273.034375" y="100.808191">Loop 3</text>
    </g>
   </g>
  </g>
 </g>
 <defs>
  <clipPath id="p3438144ff2">
   <rect height="291.373059" width="286.525" x="65.675" y="11.733191"/>
  </clipPath>
 </defs>
</svg>
