<?xml version="1.0" encoding="utf-8" standalone="no"?>
<!DOCTYPE svg PUBLIC "-//W3C//DTD SVG 1.1//EN"
  "http://www.w3.org/Graphics/SVG/1.1/DTD/svg11.dtd">
<!-- Created with matplotlib (http://matplotlib.org/) -->
<svg height="360pt" version="1.1" viewBox="0 0 360 360" width="360pt" xmlns="http://www.w3.org/2000/svg" xmlns:xlink="http://www.w3.org/1999/xlink">
 <defs>
  <style type="text/css">
*{stroke-linecap:butt;stroke-linejoin:round;}
  </style>
 </defs>
 <g id="figure_1">
  <g id="patch_1">
   <path d="M 0 360 
L 360 360 
L 360 0 
L 0 0 
z
" style="fill:#ffffff;"/>
  </g>
  <g id="axes_1">
   <g id="patch_2">
    <path d="M 70.045 281.98625 
L 328.6425 281.98625 
L 328.6425 28.92 
L 70.045 28.92 
z
" style="fill:#ffffff;"/>
   </g>
   <g id="matplotlib.axis_1">
    <g id="xtick_1">
     <g id="line2d_1">
      <defs>
       <path d="M 0 0 
L 0 2 
" id="mbc2f1ae59f" style="stroke:#262626;"/>
      </defs>
      <g>
       <use style="fill:#262626;stroke:#262626;" x="80.068747" xlink:href="#mbc2f1ae59f" y="281.98625"/>
      </g>
     </g>
     <g id="text_1">
      <text style="fill:#262626;font-family:Arial;font-size:20px;font-style:normal;font-weight:normal;text-anchor:middle;" transform="rotate(-0, 80.068747, 305.301875)" x="80.068747" y="305.301875">0.0</text>
     </g>
    </g>
    <g id="xtick_2">
     <g id="line2d_2">
      <g>
       <use style="fill:#262626;stroke:#262626;" x="198.478407" xlink:href="#mbc2f1ae59f" y="281.98625"/>
      </g>
     </g>
     <g id="text_2">
      <text style="fill:#262626;font-family:Arial;font-size:20px;font-style:normal;font-weight:normal;text-anchor:middle;" transform="rotate(-0, 198.478407, 305.301875)" x="198.478407" y="305.301875">0.5</text>
     </g>
    </g>
    <g id="xtick_3">
     <g id="line2d_3">
      <g>
       <use style="fill:#262626;stroke:#262626;" x="316.888068" xlink:href="#mbc2f1ae59f" y="281.98625"/>
      </g>
     </g>
     <g id="text_3">
      <text style="fill:#262626;font-family:Arial;font-size:20px;font-style:normal;font-weight:normal;text-anchor:middle;" transform="rotate(-0, 316.888068, 305.301875)" x="316.888068" y="305.301875">1.0</text>
     </g>
    </g>
    <g id="text_4">
     <text style="fill:#262626;font-family:Arial;font-size:22px;font-style:normal;font-weight:normal;text-anchor:middle;" transform="rotate(-0, 199.34375, 329.292188)" x="199.34375" y="329.292188">Minimum Mappability (75mer)</text>
    </g>
   </g>
   <g id="matplotlib.axis_2">
    <g id="ytick_1">
     <g id="line2d_4">
      <defs>
       <path d="M 0 0 
L -2 0 
" id="mc53f1d4e50" style="stroke:#262626;"/>
      </defs>
      <g>
       <use style="fill:#262626;stroke:#262626;" x="70.045" xlink:href="#mc53f1d4e50" y="268.526823"/>
      </g>
     </g>
     <g id="text_5">
      <text style="fill:#262626;font-family:Arial;font-size:20px;font-style:normal;font-weight:normal;text-anchor:end;" transform="rotate(-0, 61.045, 275.684636)" x="61.045" y="275.684636">0</text>
     </g>
    </g>
    <g id="ytick_2">
     <g id="line2d_5">
      <g>
       <use style="fill:#262626;stroke:#262626;" x="70.045" xlink:href="#mc53f1d4e50" y="211.422823"/>
      </g>
     </g>
     <g id="text_6">
      <text style="fill:#262626;font-family:Arial;font-size:20px;font-style:normal;font-weight:normal;text-anchor:end;" transform="rotate(-0, 61.045, 218.580636)" x="61.045" y="218.580636">2</text>
     </g>
    </g>
    <g id="ytick_3">
     <g id="line2d_6">
      <g>
       <use style="fill:#262626;stroke:#262626;" x="70.045" xlink:href="#mc53f1d4e50" y="154.318823"/>
      </g>
     </g>
     <g id="text_7">
      <text style="fill:#262626;font-family:Arial;font-size:20px;font-style:normal;font-weight:normal;text-anchor:end;" transform="rotate(-0, 61.045, 161.476635)" x="61.045" y="161.476635">4</text>
     </g>
    </g>
    <g id="ytick_4">
     <g id="line2d_7">
      <g>
       <use style="fill:#262626;stroke:#262626;" x="70.045" xlink:href="#mc53f1d4e50" y="97.214823"/>
      </g>
     </g>
     <g id="text_8">
      <text style="fill:#262626;font-family:Arial;font-size:20px;font-style:normal;font-weight:normal;text-anchor:end;" transform="rotate(-0, 61.045, 104.372635)" x="61.045" y="104.372635">6</text>
     </g>
    </g>
    <g id="ytick_5">
     <g id="line2d_8">
      <g>
       <use style="fill:#262626;stroke:#262626;" x="70.045" xlink:href="#mc53f1d4e50" y="40.110823"/>
      </g>
     </g>
     <g id="text_9">
      <text style="fill:#262626;font-family:Arial;font-size:20px;font-style:normal;font-weight:normal;text-anchor:end;" transform="rotate(-0, 61.045, 47.268635)" x="61.045" y="47.268635">8</text>
     </g>
    </g>
    <g id="text_10">
     <text style="fill:#262626;font-family:Arial;font-size:22px;font-style:normal;font-weight:normal;text-anchor:middle;" transform="rotate(-90, 41.550625, 155.453125)" x="41.550625" y="155.453125">% Spliced Reads</text>
    </g>
   </g>
   <g id="LineCollection_1">
    <path clip-path="url(#paca83b8d60)" d="M 198.478407 266.227338 
L 198.478407 263.415641 
" style="fill:none;stroke:#0072b2;stroke-width:1.75;"/>
    <path clip-path="url(#paca83b8d60)" d="M 100.681216 190.29149 
L 100.681216 183.910451 
" style="fill:none;stroke:#0072b2;stroke-width:1.75;"/>
    <path clip-path="url(#paca83b8d60)" d="M 111.715151 79.236814 
L 111.715151 47.75249 
" style="fill:none;stroke:#0072b2;stroke-width:1.75;"/>
    <path clip-path="url(#paca83b8d60)" d="M 316.888068 270.483239 
L 316.888068 230.595479 
" style="fill:none;stroke:#0072b2;stroke-width:1.75;"/>
    <path clip-path="url(#paca83b8d60)" d="M 159.008438 238.499902 
L 159.008438 224.303395 
" style="fill:none;stroke:#0072b2;stroke-width:1.75;"/>
    <path clip-path="url(#paca83b8d60)" d="M 316.888068 267.47092 
L 316.888068 261.195744 
" style="fill:none;stroke:#0072b2;stroke-width:1.75;"/>
    <path clip-path="url(#paca83b8d60)" d="M 91.110495 197.564404 
L 91.110495 163.268406 
" style="fill:none;stroke:#0072b2;stroke-width:1.75;"/>
    <path clip-path="url(#paca83b8d60)" d="M 81.799432 179.374852 
L 81.799432 157.365137 
" style="fill:none;stroke:#0072b2;stroke-width:1.75;"/>
    <path clip-path="url(#paca83b8d60)" d="M 100.681216 145.766998 
L 100.681216 118.598691 
" style="fill:none;stroke:#0072b2;stroke-width:1.75;"/>
    <path clip-path="url(#paca83b8d60)" d="M 316.888068 267.165818 
L 316.888068 260.407286 
" style="fill:none;stroke:#0072b2;stroke-width:1.75;"/>
    <path clip-path="url(#paca83b8d60)" d="M 198.478407 258.118651 
L 198.478407 243.829479 
" style="fill:none;stroke:#0072b2;stroke-width:1.75;"/>
    <path clip-path="url(#paca83b8d60)" d="M 316.888068 252.577379 
L 316.888068 242.221311 
" style="fill:none;stroke:#0072b2;stroke-width:1.75;"/>
    <path clip-path="url(#paca83b8d60)" d="M 198.478407 162.045807 
L 198.478407 148.760222 
" style="fill:none;stroke:#0072b2;stroke-width:1.75;"/>
    <path clip-path="url(#paca83b8d60)" d="M 119.538712 139.083083 
L 119.538712 124.29342 
" style="fill:none;stroke:#0072b2;stroke-width:1.75;"/>
    <path clip-path="url(#paca83b8d60)" d="M 316.888068 267.423212 
L 316.888068 260.044017 
" style="fill:none;stroke:#0072b2;stroke-width:1.75;"/>
    <path clip-path="url(#paca83b8d60)" d="M 91.110495 203.93539 
L 91.110495 195.78292 
" style="fill:none;stroke:#0072b2;stroke-width:1.75;"/>
    <path clip-path="url(#paca83b8d60)" d="M 159.008438 133.982761 
L 159.008438 108.020624 
" style="fill:none;stroke:#0072b2;stroke-width:1.75;"/>
    <path clip-path="url(#paca83b8d60)" d="M 82.193478 250.536186 
L 82.193478 245.757732 
" style="fill:none;stroke:#0072b2;stroke-width:1.75;"/>
    <path clip-path="url(#paca83b8d60)" d="M 93.651258 87.078587 
L 93.651258 40.423011 
" style="fill:none;stroke:#0072b2;stroke-width:1.75;"/>
    <path clip-path="url(#paca83b8d60)" d="M 316.888068 243.945213 
L 316.888068 232.799833 
" style="fill:none;stroke:#0072b2;stroke-width:1.75;"/>
    <path clip-path="url(#paca83b8d60)" d="M 93.651258 102.5385 
L 93.651258 51.190294 
" style="fill:none;stroke:#0072b2;stroke-width:1.75;"/>
    <path clip-path="url(#paca83b8d60)" d="M 316.888068 251.743156 
L 316.888068 240.421969 
" style="fill:none;stroke:#0072b2;stroke-width:1.75;"/>
    <path clip-path="url(#paca83b8d60)" d="M 316.888068 261.868023 
L 316.888068 258.694908 
" style="fill:none;stroke:#0072b2;stroke-width:1.75;"/>
    <path clip-path="url(#paca83b8d60)" d="M 198.478407 243.208058 
L 198.478407 195.015956 
" style="fill:none;stroke:#0072b2;stroke-width:1.75;"/>
   </g>
   <g id="line2d_9">
    <defs>
     <path d="M 0 3.5 
C 0.928211 3.5 1.81853 3.131218 2.474874 2.474874 
C 3.131218 1.81853 3.5 0.928211 3.5 0 
C 3.5 -0.928211 3.131218 -1.81853 2.474874 -2.474874 
C 1.81853 -3.131218 0.928211 -3.5 0 -3.5 
C -0.928211 -3.5 -1.81853 -3.131218 -2.474874 -2.474874 
C -3.131218 -1.81853 -3.5 -0.928211 -3.5 0 
C -3.5 0.928211 -3.131218 1.81853 -2.474874 2.474874 
C -1.81853 3.131218 -0.928211 3.5 0 3.5 
z
" id="m30c5ed71a5"/>
    </defs>
    <g clip-path="url(#paca83b8d60)">
     <use style="fill:#0072b2;" x="198.478407" xlink:href="#m30c5ed71a5" y="264.82149"/>
     <use style="fill:#0072b2;" x="100.681216" xlink:href="#m30c5ed71a5" y="187.100971"/>
     <use style="fill:#0072b2;" x="111.715151" xlink:href="#m30c5ed71a5" y="63.494652"/>
     <use style="fill:#0072b2;" x="316.888068" xlink:href="#m30c5ed71a5" y="250.539359"/>
     <use style="fill:#0072b2;" x="159.008438" xlink:href="#m30c5ed71a5" y="231.401648"/>
     <use style="fill:#0072b2;" x="316.888068" xlink:href="#m30c5ed71a5" y="264.333332"/>
     <use style="fill:#0072b2;" x="91.110495" xlink:href="#m30c5ed71a5" y="180.416405"/>
     <use style="fill:#0072b2;" x="81.799432" xlink:href="#m30c5ed71a5" y="168.369995"/>
     <use style="fill:#0072b2;" x="100.681216" xlink:href="#m30c5ed71a5" y="132.182844"/>
     <use style="fill:#0072b2;" x="316.888068" xlink:href="#m30c5ed71a5" y="263.786552"/>
     <use style="fill:#0072b2;" x="198.478407" xlink:href="#m30c5ed71a5" y="250.974065"/>
     <use style="fill:#0072b2;" x="316.888068" xlink:href="#m30c5ed71a5" y="247.399345"/>
     <use style="fill:#0072b2;" x="198.478407" xlink:href="#m30c5ed71a5" y="155.403014"/>
     <use style="fill:#0072b2;" x="119.538712" xlink:href="#m30c5ed71a5" y="131.688251"/>
     <use style="fill:#0072b2;" x="316.888068" xlink:href="#m30c5ed71a5" y="263.733615"/>
     <use style="fill:#0072b2;" x="91.110495" xlink:href="#m30c5ed71a5" y="199.859155"/>
     <use style="fill:#0072b2;" x="159.008438" xlink:href="#m30c5ed71a5" y="121.001693"/>
     <use style="fill:#0072b2;" x="82.193478" xlink:href="#m30c5ed71a5" y="248.146959"/>
     <use style="fill:#0072b2;" x="93.651258" xlink:href="#m30c5ed71a5" y="63.750799"/>
     <use style="fill:#0072b2;" x="316.888068" xlink:href="#m30c5ed71a5" y="238.372523"/>
     <use style="fill:#0072b2;" x="93.651258" xlink:href="#m30c5ed71a5" y="76.864397"/>
     <use style="fill:#0072b2;" x="316.888068" xlink:href="#m30c5ed71a5" y="246.082562"/>
     <use style="fill:#0072b2;" x="316.888068" xlink:href="#m30c5ed71a5" y="260.281466"/>
     <use style="fill:#0072b2;" x="198.478407" xlink:href="#m30c5ed71a5" y="219.112007"/>
    </g>
   </g>
   <g id="patch_3">
    <path d="M 70.045 281.98625 
L 70.045 28.92 
" style="fill:none;stroke:#262626;stroke-linecap:square;stroke-linejoin:miter;stroke-width:1.25;"/>
   </g>
   <g id="patch_4">
    <path d="M 328.6425 281.98625 
L 328.6425 28.92 
" style="fill:none;stroke:#262626;stroke-linecap:square;stroke-linejoin:miter;stroke-width:1.25;"/>
   </g>
   <g id="patch_5">
    <path d="M 70.045 281.98625 
L 328.6425 281.98625 
" style="fill:none;stroke:#262626;stroke-linecap:square;stroke-linejoin:miter;stroke-width:1.25;"/>
   </g>
   <g id="patch_6">
    <path d="M 70.045 28.92 
L 328.6425 28.92 
" style="fill:none;stroke:#262626;stroke-linecap:square;stroke-linejoin:miter;stroke-width:1.25;"/>
   </g>
  </g>
 </g>
 <defs>
  <clipPath id="paca83b8d60">
   <rect height="253.06625" width="258.5975" x="70.045" y="28.92"/>
  </clipPath>
 </defs>
</svg>
