<?xml version="1.0" encoding="utf-8" standalone="no"?>
<!DOCTYPE svg PUBLIC "-//W3C//DTD SVG 1.1//EN"
  "http://www.w3.org/Graphics/SVG/1.1/DTD/svg11.dtd">
<!-- Created with matplotlib (http://matplotlib.org/) -->
<svg height="360pt" version="1.1" viewBox="0 0 360 360" width="360pt" xmlns="http://www.w3.org/2000/svg" xmlns:xlink="http://www.w3.org/1999/xlink">
 <defs>
  <style type="text/css">
*{stroke-linecap:butt;stroke-linejoin:round;}
  </style>
 </defs>
 <g id="figure_1">
  <g id="patch_1">
   <path d="M 0 360 
L 360 360 
L 360 0 
L 0 0 
z
" style="fill:#ffffff;"/>
  </g>
  <g id="axes_1">
   <g id="patch_2">
    <path d="M 65.675 303.10625 
L 352.2 303.10625 
L 352.2 7.8 
L 65.675 7.8 
z
" style="fill:#ffffff;"/>
   </g>
   <g id="matplotlib.axis_1">
    <g id="xtick_1">
     <g id="line2d_1">
      <defs>
       <path d="M 0 0 
L 0 2 
" id="ma6799f8616" style="stroke:#262626;"/>
      </defs>
      <g>
       <use style="fill:#262626;stroke:#262626;" x="74.207876" xlink:href="#ma6799f8616" y="303.10625"/>
      </g>
     </g>
     <g id="text_1">
      <text style="fill:#262626;font-family:Arial;font-size:20px;font-style:normal;font-weight:normal;text-anchor:middle;" transform="rotate(-0, 74.207876, 326.421875)" x="74.207876" y="326.421875">0</text>
     </g>
    </g>
    <g id="xtick_2">
     <g id="line2d_2">
      <g>
       <use style="fill:#262626;stroke:#262626;" x="164.027625" xlink:href="#ma6799f8616" y="303.10625"/>
      </g>
     </g>
     <g id="text_2">
      <text style="fill:#262626;font-family:Arial;font-size:20px;font-style:normal;font-weight:normal;text-anchor:middle;" transform="rotate(-0, 164.027625, 326.421875)" x="164.027625" y="326.421875">20</text>
     </g>
    </g>
    <g id="xtick_3">
     <g id="line2d_3">
      <g>
       <use style="fill:#262626;stroke:#262626;" x="253.847375" xlink:href="#ma6799f8616" y="303.10625"/>
      </g>
     </g>
     <g id="text_3">
      <text style="fill:#262626;font-family:Arial;font-size:20px;font-style:normal;font-weight:normal;text-anchor:middle;" transform="rotate(-0, 253.847375, 326.421875)" x="253.847375" y="326.421875">40</text>
     </g>
    </g>
    <g id="xtick_4">
     <g id="line2d_4">
      <g>
       <use style="fill:#262626;stroke:#262626;" x="343.667124" xlink:href="#ma6799f8616" y="303.10625"/>
      </g>
     </g>
     <g id="text_4">
      <text style="fill:#262626;font-family:Arial;font-size:20px;font-style:normal;font-weight:normal;text-anchor:middle;" transform="rotate(-0, 343.667124, 326.421875)" x="343.667124" y="326.421875">60</text>
     </g>
    </g>
    <g id="text_5">
     <text style="fill:#262626;font-family:Arial;font-size:22px;font-style:normal;font-weight:normal;text-anchor:middle;" transform="rotate(-0, 208.9375, 350.144063)" x="208.9375" y="350.144063">Loop Length</text>
    </g>
   </g>
   <g id="matplotlib.axis_2">
    <g id="ytick_1">
     <g id="line2d_5">
      <defs>
       <path d="M 0 0 
L -2 0 
" id="m27b4784917" style="stroke:#262626;"/>
      </defs>
      <g>
       <use style="fill:#262626;stroke:#262626;" x="65.675" xlink:href="#m27b4784917" y="277.616182"/>
      </g>
     </g>
     <g id="text_6">
      <text style="fill:#262626;font-family:Arial;font-size:20px;font-style:normal;font-weight:normal;text-anchor:end;" transform="rotate(-0, 56.675, 284.773994)" x="56.675" y="284.773994">0.2</text>
     </g>
    </g>
    <g id="ytick_2">
     <g id="line2d_6">
      <g>
       <use style="fill:#262626;stroke:#262626;" x="65.675" xlink:href="#m27b4784917" y="212.516857"/>
      </g>
     </g>
     <g id="text_7">
      <text style="fill:#262626;font-family:Arial;font-size:20px;font-style:normal;font-weight:normal;text-anchor:end;" transform="rotate(-0, 56.675, 219.67467)" x="56.675" y="219.67467">0.4</text>
     </g>
    </g>
    <g id="ytick_3">
     <g id="line2d_7">
      <g>
       <use style="fill:#262626;stroke:#262626;" x="65.675" xlink:href="#m27b4784917" y="147.417533"/>
      </g>
     </g>
     <g id="text_8">
      <text style="fill:#262626;font-family:Arial;font-size:20px;font-style:normal;font-weight:normal;text-anchor:end;" transform="rotate(-0, 56.675, 154.575345)" x="56.675" y="154.575345">0.6</text>
     </g>
    </g>
    <g id="ytick_4">
     <g id="line2d_8">
      <g>
       <use style="fill:#262626;stroke:#262626;" x="65.675" xlink:href="#m27b4784917" y="82.318208"/>
      </g>
     </g>
     <g id="text_9">
      <text style="fill:#262626;font-family:Arial;font-size:20px;font-style:normal;font-weight:normal;text-anchor:end;" transform="rotate(-0, 56.675, 89.476021)" x="56.675" y="89.476021">0.8</text>
     </g>
    </g>
    <g id="ytick_5">
     <g id="line2d_9">
      <g>
       <use style="fill:#262626;stroke:#262626;" x="65.675" xlink:href="#m27b4784917" y="17.218884"/>
      </g>
     </g>
     <g id="text_10">
      <text style="fill:#262626;font-family:Arial;font-size:20px;font-style:normal;font-weight:normal;text-anchor:end;" transform="rotate(-0, 56.675, 24.376696)" x="56.675" y="24.376696">1.0</text>
     </g>
    </g>
    <g id="text_11">
     <text style="fill:#262626;font-family:Arial;font-size:22px;font-style:normal;font-weight:normal;text-anchor:middle;" transform="rotate(-90, 20.244688, 155.453125)" x="20.244688" y="155.453125">G4Seeqer prob(G4)</text>
    </g>
   </g>
   <g id="PolyCollection_1">
    <defs>
     <path d="M 78.698864 -338.671754 
L 78.698864 -329.69995 
L 83.189851 -326.030928 
L 87.680839 -320.401356 
L 92.171826 -315.444483 
L 96.662813 -311.892129 
L 101.153801 -309.852671 
L 105.644788 -306.078276 
L 110.135776 -303.020203 
L 114.626763 -302.047875 
L 119.117751 -300.576607 
L 123.608738 -298.374899 
L 128.099726 -294.127776 
L 132.590713 -293.214989 
L 137.081701 -292.554384 
L 141.572688 -288.861316 
L 146.063676 -285.308344 
L 150.554663 -285.34614 
L 155.04565 -277.854679 
L 159.536638 -277.764292 
L 164.027625 -278.755808 
L 168.518613 -274.560803 
L 173.0096 -272.539957 
L 177.500588 -271.85413 
L 181.991575 -267.741852 
L 186.482563 -261.942504 
L 190.97355 -264.624598 
L 195.464538 -257.994987 
L 199.955525 -257.836528 
L 204.446513 -252.974564 
L 208.9375 -253.825669 
L 213.428487 -242.186961 
L 217.919475 -246.151687 
L 222.410462 -243.614991 
L 226.90145 -242.363115 
L 231.392437 -237.574107 
L 235.883425 -232.954279 
L 240.374412 -238.101308 
L 244.8654 -232.749294 
L 249.356387 -226.585639 
L 253.847375 -227.063697 
L 258.338362 -221.649956 
L 262.82935 -227.022517 
L 267.320337 -222.392775 
L 271.811324 -217.550237 
L 276.302312 -221.482756 
L 280.793299 -217.815028 
L 285.284287 -212.491042 
L 289.775274 -215.972323 
L 294.266262 -213.303305 
L 298.757249 -214.300642 
L 303.248237 -210.328894 
L 307.739224 -208.232838 
L 312.230212 -208.123988 
L 316.721199 -208.805035 
L 321.212187 -205.411658 
L 325.703174 -206.734395 
L 330.194161 -204.685253 
L 334.685149 -205.606803 
L 339.176136 -201.39653 
L 339.176136 -326.691168 
L 339.176136 -326.691168 
L 334.685149 -327.231583 
L 330.194161 -327.156264 
L 325.703174 -327.092724 
L 321.212187 -327.211914 
L 316.721199 -327.342735 
L 312.230212 -327.419582 
L 307.739224 -327.338275 
L 303.248237 -327.247748 
L 298.757249 -327.788916 
L 294.266262 -327.57156 
L 289.775274 -328.026654 
L 285.284287 -327.485112 
L 280.793299 -327.977125 
L 276.302312 -328.290929 
L 271.811324 -328.190157 
L 267.320337 -327.975451 
L 262.82935 -328.173789 
L 258.338362 -328.404251 
L 253.847375 -328.688961 
L 249.356387 -328.298135 
L 244.8654 -328.868608 
L 240.374412 -328.931758 
L 235.883425 -328.790352 
L 231.392437 -329.288561 
L 226.90145 -329.302905 
L 222.410462 -329.475964 
L 217.919475 -329.762234 
L 213.428487 -329.501564 
L 208.9375 -329.694828 
L 204.446513 -330.172195 
L 199.955525 -330.314275 
L 195.464538 -330.62823 
L 190.97355 -330.510186 
L 186.482563 -330.547038 
L 181.991575 -331.037786 
L 177.500588 -331.10975 
L 173.0096 -331.441525 
L 168.518613 -331.606597 
L 164.027625 -331.950519 
L 159.536638 -331.666406 
L 155.04565 -332.120907 
L 150.554663 -332.242614 
L 146.063676 -332.686565 
L 141.572688 -332.984727 
L 137.081701 -333.233209 
L 132.590713 -333.408463 
L 128.099726 -333.59883 
L 123.608738 -334.081529 
L 119.117751 -333.922262 
L 114.626763 -334.294735 
L 110.135776 -334.529595 
L 105.644788 -334.756505 
L 101.153801 -334.967683 
L 96.662813 -335.300025 
L 92.171826 -335.565614 
L 87.680839 -336.119688 
L 83.189851 -337.114485 
L 78.698864 -338.671754 
z
" id="m0f8e29d521" style="stroke:#0072b2;stroke-opacity:0.2;stroke-width:0.3;"/>
    </defs>
    <g clip-path="url(#p9de4989c27)">
     <use style="fill:#0072b2;fill-opacity:0.2;stroke:#0072b2;stroke-opacity:0.2;stroke-width:0.3;" x="0" xlink:href="#m0f8e29d521" y="360"/>
    </g>
   </g>
   <g id="PolyCollection_2">
    <defs>
     <path d="M 78.698864 -338.689555 
L 78.698864 -329.556665 
L 83.189851 -325.434042 
L 87.680839 -321.154074 
L 92.171826 -318.751577 
L 96.662813 -317.730385 
L 101.153801 -317.225648 
L 105.644788 -316.958028 
L 110.135776 -315.47144 
L 114.626763 -314.06081 
L 119.117751 -313.296992 
L 123.608738 -310.961696 
L 128.099726 -309.213557 
L 132.590713 -308.363802 
L 137.081701 -303.278485 
L 141.572688 -296.625797 
L 146.063676 -293.852895 
L 150.554663 -287.262915 
L 155.04565 -279.473419 
L 159.536638 -270.857422 
L 164.027625 -253.544393 
L 168.518613 -246.637806 
L 173.0096 -222.668609 
L 177.500588 -208.146816 
L 181.991575 -197.949737 
L 186.482563 -177.319153 
L 190.97355 -166.359742 
L 195.464538 -153.712056 
L 199.955525 -139.042761 
L 204.446513 -129.240972 
L 208.9375 -119.488802 
L 213.428487 -114.745575 
L 217.919475 -107.862981 
L 222.410462 -102.531758 
L 226.90145 -98.073225 
L 231.392437 -90.54935 
L 235.883425 -87.335363 
L 240.374412 -83.592892 
L 244.8654 -85.078834 
L 249.356387 -81.590291 
L 253.847375 -78.409262 
L 258.338362 -76.533881 
L 262.82935 -73.295659 
L 267.320337 -75.438032 
L 271.811324 -74.661991 
L 276.302312 -73.768861 
L 280.793299 -74.965961 
L 285.284287 -75.290671 
L 289.775274 -72.619258 
L 294.266262 -71.481516 
L 298.757249 -71.251941 
L 303.248237 -72.286935 
L 307.739224 -72.645753 
L 312.230212 -70.316761 
L 316.721199 -73.971313 
L 321.212187 -71.776136 
L 325.703174 -73.112902 
L 330.194161 -72.890254 
L 334.685149 -74.428739 
L 339.176136 -73.767408 
L 339.176136 -288.844547 
L 339.176136 -288.844547 
L 334.685149 -289.461101 
L 330.194161 -292.2354 
L 325.703174 -293.347732 
L 321.212187 -299.559739 
L 316.721199 -298.407424 
L 312.230212 -300.550022 
L 307.739224 -306.593163 
L 303.248237 -303.953186 
L 298.757249 -306.361036 
L 294.266262 -307.071716 
L 289.775274 -309.43468 
L 285.284287 -309.929879 
L 280.793299 -311.112913 
L 276.302312 -312.862126 
L 271.811324 -314.280554 
L 267.320337 -316.69179 
L 262.82935 -316.624356 
L 258.338362 -318.215846 
L 253.847375 -318.978825 
L 249.356387 -320.08095 
L 244.8654 -320.66156 
L 240.374412 -321.890163 
L 235.883425 -322.313839 
L 231.392437 -322.898232 
L 226.90145 -324.503597 
L 222.410462 -324.495635 
L 217.919475 -325.353065 
L 213.428487 -325.633606 
L 208.9375 -326.643108 
L 204.446513 -326.555512 
L 199.955525 -327.576558 
L 195.464538 -327.552322 
L 190.97355 -327.973459 
L 186.482563 -328.535442 
L 181.991575 -329.574969 
L 177.500588 -329.598627 
L 173.0096 -330.02817 
L 168.518613 -330.478538 
L 164.027625 -330.483987 
L 159.536638 -331.14369 
L 155.04565 -331.605825 
L 150.554663 -332.445458 
L 146.063676 -332.877167 
L 141.572688 -333.275292 
L 137.081701 -333.394302 
L 132.590713 -333.72877 
L 128.099726 -334.165588 
L 123.608738 -334.464638 
L 119.117751 -334.935095 
L 114.626763 -334.871233 
L 110.135776 -334.880931 
L 105.644788 -335.479724 
L 101.153801 -335.423698 
L 96.662813 -335.412392 
L 92.171826 -335.591078 
L 87.680839 -335.958907 
L 83.189851 -336.86417 
L 78.698864 -338.689555 
z
" id="me27f08d432" style="stroke:#d55e00;stroke-opacity:0.2;stroke-width:0.3;"/>
    </defs>
    <g clip-path="url(#p9de4989c27)">
     <use style="fill:#d55e00;fill-opacity:0.2;stroke:#d55e00;stroke-opacity:0.2;stroke-width:0.3;" x="0" xlink:href="#me27f08d432" y="360"/>
    </g>
   </g>
   <g id="PolyCollection_3">
    <defs>
     <path d="M 78.698864 -338.776989 
L 78.698864 -329.644596 
L 83.189851 -325.379643 
L 87.680839 -318.971254 
L 92.171826 -312.516788 
L 96.662813 -309.927541 
L 101.153801 -309.077664 
L 105.644788 -304.645091 
L 110.135776 -303.746012 
L 114.626763 -298.967152 
L 119.117751 -296.999717 
L 123.608738 -292.054542 
L 128.099726 -290.893195 
L 132.590713 -287.82252 
L 137.081701 -285.084881 
L 141.572688 -281.413394 
L 146.063676 -280.761728 
L 150.554663 -276.713204 
L 155.04565 -272.488721 
L 159.536638 -271.463768 
L 164.027625 -270.175692 
L 168.518613 -271.622814 
L 173.0096 -265.808886 
L 177.500588 -265.178835 
L 181.991575 -262.614679 
L 186.482563 -261.511534 
L 190.97355 -258.191397 
L 195.464538 -257.892923 
L 199.955525 -255.333266 
L 204.446513 -253.670981 
L 208.9375 -257.699064 
L 213.428487 -250.551835 
L 217.919475 -250.976083 
L 222.410462 -246.612472 
L 226.90145 -246.327895 
L 231.392437 -245.601108 
L 235.883425 -246.585682 
L 240.374412 -244.59239 
L 244.8654 -243.197764 
L 249.356387 -241.09077 
L 253.847375 -238.968836 
L 258.338362 -241.09583 
L 262.82935 -239.959128 
L 267.320337 -238.866982 
L 271.811324 -239.061143 
L 276.302312 -236.748124 
L 280.793299 -236.577542 
L 285.284287 -238.080901 
L 289.775274 -236.264635 
L 294.266262 -233.507781 
L 298.757249 -236.036567 
L 303.248237 -233.886976 
L 307.739224 -235.988173 
L 312.230212 -235.584356 
L 316.721199 -232.670144 
L 321.212187 -232.941667 
L 325.703174 -234.224809 
L 330.194161 -231.872517 
L 334.685149 -231.771845 
L 339.176136 -232.002297 
L 339.176136 -328.855073 
L 339.176136 -328.855073 
L 334.685149 -328.903883 
L 330.194161 -329.268987 
L 325.703174 -329.186687 
L 321.212187 -329.229864 
L 316.721199 -329.192355 
L 312.230212 -329.44269 
L 307.739224 -329.182405 
L 303.248237 -329.64971 
L 298.757249 -329.321867 
L 294.266262 -329.611687 
L 289.775274 -329.379368 
L 285.284287 -329.817394 
L 280.793299 -329.560517 
L 276.302312 -329.906251 
L 271.811324 -329.330701 
L 267.320337 -329.919691 
L 262.82935 -329.715847 
L 258.338362 -330.170076 
L 253.847375 -329.696218 
L 249.356387 -329.837497 
L 244.8654 -330.047139 
L 240.374412 -329.723977 
L 235.883425 -329.712957 
L 231.392437 -330.133803 
L 226.90145 -330.186377 
L 222.410462 -330.056926 
L 217.919475 -329.921381 
L 213.428487 -330.164919 
L 208.9375 -330.533108 
L 204.446513 -330.267138 
L 199.955525 -330.622904 
L 195.464538 -330.770853 
L 190.97355 -330.921217 
L 186.482563 -330.942635 
L 181.991575 -330.749173 
L 177.500588 -331.408829 
L 173.0096 -331.520803 
L 168.518613 -331.660023 
L 164.027625 -331.811524 
L 159.536638 -332.040141 
L 155.04565 -332.443721 
L 150.554663 -332.747566 
L 146.063676 -332.959231 
L 141.572688 -333.239023 
L 137.081701 -333.310766 
L 132.590713 -333.829508 
L 128.099726 -334.09136 
L 123.608738 -334.203178 
L 119.117751 -334.357003 
L 114.626763 -334.920111 
L 110.135776 -335.003887 
L 105.644788 -335.294455 
L 101.153801 -335.453122 
L 96.662813 -335.693916 
L 92.171826 -335.995909 
L 87.680839 -336.363424 
L 83.189851 -337.360716 
L 78.698864 -338.776989 
z
" id="m2c0b666eef" style="stroke:#009e73;stroke-opacity:0.2;stroke-width:0.3;"/>
    </defs>
    <g clip-path="url(#p9de4989c27)">
     <use style="fill:#009e73;fill-opacity:0.2;stroke:#009e73;stroke-opacity:0.2;stroke-width:0.3;" x="0" xlink:href="#m2c0b666eef" y="360"/>
    </g>
   </g>
   <g id="line2d_10">
    <path clip-path="url(#p9de4989c27)" d="M 78.698864 24.773055 
L 83.189851 27.034429 
L 87.680839 29.138596 
L 92.171826 30.446328 
L 96.662813 31.538029 
L 101.153801 32.086925 
L 105.644788 32.959567 
L 110.135776 33.042313 
L 114.626763 34.016908 
L 119.117751 34.330275 
L 123.608738 34.703281 
L 128.099726 35.140388 
L 132.590713 35.675083 
L 137.081701 36.012351 
L 141.572688 36.894268 
L 146.063676 37.674522 
L 150.554663 38.206016 
L 155.04565 38.765815 
L 159.536638 39.030737 
L 164.027625 39.533828 
L 168.518613 39.994274 
L 173.0096 40.848195 
L 177.500588 41.04044 
L 181.991575 41.252359 
L 186.482563 43.05835 
L 190.97355 42.577959 
L 195.464538 43.254902 
L 199.955525 42.9265 
L 204.446513 43.761271 
L 208.9375 44.983794 
L 213.428487 47.379656 
L 217.919475 45.960116 
L 222.410462 46.15467 
L 226.90145 46.573618 
L 231.392437 47.232596 
L 235.883425 48.01935 
L 240.374412 47.14368 
L 244.8654 49.308049 
L 249.356387 49.465179 
L 253.847375 50.189441 
L 258.338362 50.24877 
L 262.82935 50.880451 
L 267.320337 51.415824 
L 271.811324 50.114359 
L 276.302312 50.863145 
L 280.793299 51.539933 
L 285.284287 53.22168 
L 289.775274 52.484205 
L 294.266262 54.498544 
L 298.757249 52.51579 
L 303.248237 54.820758 
L 307.739224 55.282272 
L 312.230212 57.041642 
L 316.721199 55.585433 
L 321.212187 57.170194 
L 325.703174 56.364621 
L 330.194161 56.685088 
L 334.685149 58.014705 
L 339.176136 58.602811 
" style="fill:none;stroke:#0072b2;stroke-linecap:round;stroke-width:1.75;"/>
   </g>
   <g id="line2d_11">
    <path clip-path="url(#p9de4989c27)" d="M 78.698864 24.849709 
L 83.189851 27.439272 
L 87.680839 28.88772 
L 92.171826 29.566526 
L 96.662813 29.692246 
L 101.153801 29.794722 
L 105.644788 29.912254 
L 110.135776 30.653183 
L 114.626763 31.029176 
L 119.117751 31.023181 
L 123.608738 31.547186 
L 128.099726 32.118122 
L 132.590713 32.909532 
L 137.081701 33.670094 
L 141.572688 34.127417 
L 146.063676 34.858296 
L 150.554663 35.709946 
L 155.04565 36.735547 
L 159.536638 38.098165 
L 164.027625 39.789146 
L 168.518613 40.769116 
L 173.0096 42.219601 
L 177.500588 44.871733 
L 181.991575 46.181153 
L 186.482563 49.797112 
L 190.97355 52.423867 
L 195.464538 56.285852 
L 199.955525 58.707887 
L 204.446513 67.464617 
L 208.9375 76.809123 
L 213.428487 82.740198 
L 217.919475 89.741768 
L 222.410462 102.514431 
L 226.90145 108.598017 
L 231.392437 125.204534 
L 235.883425 130.878874 
L 240.374412 138.397793 
L 244.8654 146.311196 
L 249.356387 155.631412 
L 253.847375 164.387987 
L 258.338362 171.826062 
L 262.82935 176.641554 
L 267.320337 178.77391 
L 271.811324 181.737808 
L 276.302312 184.048723 
L 280.793299 187.316083 
L 285.284287 190.96714 
L 289.775274 189.089791 
L 294.266262 197.073853 
L 298.757249 196.28252 
L 303.248237 198.817081 
L 307.739224 195.894071 
L 312.230212 204.105533 
L 316.721199 202.44601 
L 321.212187 200.062729 
L 325.703174 201.733184 
L 330.194161 202.696624 
L 334.685149 204.460185 
L 339.176136 205.931662 
" style="fill:none;stroke:#d55e00;stroke-linecap:round;stroke-width:1.75;"/>
   </g>
   <g id="line2d_12">
    <path clip-path="url(#p9de4989c27)" d="M 78.698864 24.854404 
L 83.189851 26.96961 
L 87.680839 29.018018 
L 92.171826 30.203116 
L 96.662813 30.655976 
L 101.153801 31.459144 
L 105.644788 31.771075 
L 110.135776 32.328585 
L 114.626763 32.952059 
L 119.117751 34.050938 
L 123.608738 34.337842 
L 128.099726 34.729201 
L 132.590713 35.114662 
L 137.081701 35.93269 
L 141.572688 36.619199 
L 146.063676 37.254217 
L 150.554663 37.921906 
L 155.04565 38.613264 
L 159.536638 39.110321 
L 164.027625 39.59562 
L 168.518613 40.603197 
L 173.0096 41.378117 
L 177.500588 41.474288 
L 181.991575 42.475482 
L 186.482563 42.997818 
L 190.97355 43.688847 
L 195.464538 43.825373 
L 199.955525 44.9745 
L 204.446513 45.16661 
L 208.9375 43.395696 
L 213.428487 47.321259 
L 217.919475 46.886014 
L 222.410462 47.531838 
L 226.90145 46.685174 
L 231.392437 47.859523 
L 235.883425 49.296951 
L 240.374412 49.726919 
L 244.8654 49.740616 
L 249.356387 50.716298 
L 253.847375 52.72602 
L 258.338362 49.37087 
L 262.82935 51.778373 
L 267.320337 52.13741 
L 271.811324 54.721812 
L 276.302312 54.724063 
L 280.793299 57.338867 
L 285.284287 56.628437 
L 289.775274 60.445644 
L 294.266262 59.80339 
L 298.757249 59.841746 
L 303.248237 61.490821 
L 307.739224 61.687044 
L 312.230212 63.120631 
L 316.721199 63.783916 
L 321.212187 66.101068 
L 325.703174 64.723473 
L 330.194161 67.430199 
L 334.685149 69.464173 
L 339.176136 70.22815 
" style="fill:none;stroke:#009e73;stroke-linecap:round;stroke-width:1.75;"/>
   </g>
   <g id="patch_3">
    <path d="M 65.675 303.10625 
L 65.675 7.8 
" style="fill:none;stroke:#262626;stroke-linecap:square;stroke-linejoin:miter;stroke-width:1.25;"/>
   </g>
   <g id="patch_4">
    <path d="M 352.2 303.10625 
L 352.2 7.8 
" style="fill:none;stroke:#262626;stroke-linecap:square;stroke-linejoin:miter;stroke-width:1.25;"/>
   </g>
   <g id="patch_5">
    <path d="M 65.675 303.10625 
L 352.2 303.10625 
" style="fill:none;stroke:#262626;stroke-linecap:square;stroke-linejoin:miter;stroke-width:1.25;"/>
   </g>
   <g id="patch_6">
    <path d="M 65.675 7.8 
L 352.2 7.8 
" style="fill:none;stroke:#262626;stroke-linecap:square;stroke-linejoin:miter;stroke-width:1.25;"/>
   </g>
   <g id="legend_1">
    <g id="line2d_13">
     <path d="M 83.675 217.43125 
L 123.675 217.43125 
" style="fill:none;stroke:#0072b2;stroke-linecap:round;stroke-width:1.75;"/>
    </g>
    <g id="line2d_14"/>
    <g id="text_12">
     <text style="fill:#262626;font-family:Arial;font-size:20px;font-style:normal;font-weight:normal;text-anchor:start;" transform="rotate(-0, 139.675, 224.43125)" x="139.675" y="224.43125">Loop 1</text>
    </g>
    <g id="line2d_15">
     <path d="M 83.675 245.78125 
L 123.675 245.78125 
" style="fill:none;stroke:#d55e00;stroke-linecap:round;stroke-width:1.75;"/>
    </g>
    <g id="line2d_16"/>
    <g id="text_13">
     <text style="fill:#262626;font-family:Arial;font-size:20px;font-style:normal;font-weight:normal;text-anchor:start;" transform="rotate(-0, 139.675, 252.78125)" x="139.675" y="252.78125">Loop 2</text>
    </g>
    <g id="line2d_17">
     <path d="M 83.675 274.13125 
L 123.675 274.13125 
" style="fill:none;stroke:#009e73;stroke-linecap:round;stroke-width:1.75;"/>
    </g>
    <g id="line2d_18"/>
    <g id="text_14">
     <text style="fill:#262626;font-family:Arial;font-size:20px;font-style:normal;font-weight:normal;text-anchor:start;" transform="rotate(-0, 139.675, 281.13125)" x="139.675" y="281.13125">Loop 3</text>
    </g>
   </g>
  </g>
 </g>
 <defs>
  <clipPath id="p9de4989c27">
   <rect height="295.30625" width="286.525" x="65.675" y="7.8"/>
  </clipPath>
 </defs>
</svg>
