<?xml version="1.0" encoding="UTF-8" standalone="no"?>
<!-- Created with Inkscape (http://www.inkscape.org/) -->

<svg
   xmlns:dc="http://purl.org/dc/elements/1.1/"
   xmlns:cc="http://creativecommons.org/ns#"
   xmlns:rdf="http://www.w3.org/1999/02/22-rdf-syntax-ns#"
   xmlns:svg="http://www.w3.org/2000/svg"
   xmlns="http://www.w3.org/2000/svg"
   xmlns:xlink="http://www.w3.org/1999/xlink"
   xmlns:sodipodi="http://sodipodi.sourceforge.net/DTD/sodipodi-0.dtd"
   xmlns:inkscape="http://www.inkscape.org/namespaces/inkscape"
   width="192.71718mm"
   height="167.56908mm"
   viewBox="0 0 682.85614 593.74869"
   id="svg9363"
   version="1.1"
   inkscape:version="0.91 r13725"
   sodipodi:docname="cds_hardcoded_metagene.svg">
  <defs
     id="defs9365"
     style="stroke-linecap:butt;stroke-linejoin:round">
    <style
       id="style10279"
       type="text/css">
*{stroke-linecap:butt;stroke-linejoin:round;}
  </style>
  </defs>
  <sodipodi:namedview
     id="base"
     pagecolor="#ffffff"
     bordercolor="#666666"
     borderopacity="1.0"
     inkscape:pageopacity="0.0"
     inkscape:pageshadow="2"
     inkscape:zoom="1.0713971"
     inkscape:cx="341.55852"
     inkscape:cy="322.07579"
     inkscape:document-units="px"
     inkscape:current-layer="legend_1"
     showgrid="false"
     fit-margin-top="5"
     fit-margin-left="5"
     fit-margin-right="5"
     fit-margin-bottom="5"
     inkscape:window-width="1555"
     inkscape:window-height="1051"
     inkscape:window-x="45"
     inkscape:window-y="0"
     inkscape:window-maximized="1" />
  <metadata
     id="metadata9368">
    <rdf:RDF>
      <cc:Work
         rdf:about="">
        <dc:format>image/svg+xml</dc:format>
        <dc:type
           rdf:resource="http://purl.org/dc/dcmitype/StillImage" />
        <dc:title></dc:title>
      </cc:Work>
    </rdf:RDF>
  </metadata>
  <g
     inkscape:label="Layer 1"
     inkscape:groupmode="layer"
     id="layer1"
     transform="translate(-5.7681058,-1.3742196)">
    <g
       id="figure_1"
       transform="matrix(0.76906671,0,0,0.76906671,15.089805,41.49076)"
       style="stroke-linecap:butt;stroke-linejoin:round">
      <g
         id="axes_1"
         style="stroke-linecap:butt;stroke-linejoin:round"
         transform="translate(18.203883,-26.005548)">
        <g
           id="patch_2"
           style="stroke-linecap:butt;stroke-linejoin:round">
          <path
             id="path10287"
             style="fill:#ffffff;stroke-linecap:butt;stroke-linejoin:round"
             d="m 103.42,320.54 729.4476,0 0,-291.62 -729.4476,0 z"
             inkscape:connector-curvature="0" />
        </g>
        <g
           id="matplotlib.axis_1"
           style="stroke-linecap:butt;stroke-linejoin:round">
          <g
             id="xtick_1"
             style="stroke-linecap:butt;stroke-linejoin:round">
            <g
               id="line2d_1"
               style="stroke-linecap:butt;stroke-linejoin:round">
              <defs
                 id="defs10292">
                <path
                   style="stroke:#262626;stroke-linecap:butt;stroke-linejoin:round"
                   id="m7af69bcac7"
                   d="M 0,0 0,2"
                   inkscape:connector-curvature="0" />
              </defs>
              <g
                 id="g10295"
                 style="stroke-linecap:butt;stroke-linejoin:round">
                <use
                   id="use10297"
                   y="320.54001"
                   xlink:href="#m7af69bcac7"
                   x="136.57671"
                   style="fill:#262626;stroke:#262626;stroke-linecap:butt;stroke-linejoin:round"
                   width="100%"
                   height="100%" />
              </g>
            </g>
          </g>
          <g
             id="xtick_2"
             style="stroke-linecap:butt;stroke-linejoin:round">
            <g
               id="line2d_2"
               style="stroke-linecap:butt;stroke-linejoin:round">
              <g
                 id="g10301"
                 style="stroke-linecap:butt;stroke-linejoin:round">
                <use
                   id="use10303"
                   y="320.54001"
                   xlink:href="#m7af69bcac7"
                   x="806.40924"
                   style="fill:#262626;stroke:#262626;stroke-linecap:butt;stroke-linejoin:round"
                   width="100%"
                   height="100%" />
              </g>
            </g>
          </g>
        </g>
        <g
           id="matplotlib.axis_2"
           style="stroke-linecap:butt;stroke-linejoin:round">
          <g
             id="ytick_1"
             style="stroke-linecap:butt;stroke-linejoin:round">
            <g
               id="line2d_3"
               style="stroke-linecap:butt;stroke-linejoin:round">
              <defs
                 id="defs10308">
                <path
                   style="stroke:#262626;stroke-linecap:butt;stroke-linejoin:round"
                   id="mfeea53ea13"
                   d="M 0,0 -2,0"
                   inkscape:connector-curvature="0" />
              </defs>
              <g
                 id="g10311"
                 style="stroke-linecap:butt;stroke-linejoin:round">
                <use
                   id="use10313"
                   y="307.28455"
                   xlink:href="#mfeea53ea13"
                   x="103.42"
                   style="fill:#262626;stroke:#262626;stroke-linecap:butt;stroke-linejoin:round"
                   width="100%"
                   height="100%" />
              </g>
            </g>
            <g
               id="text_1"
               style="stroke-linecap:butt;stroke-linejoin:round">
              <text
                 id="text10316"
                 y="314.44235"
                 x="94.419998"
                 style="font-style:normal;font-weight:normal;font-size:20px;font-family:Arial;text-anchor:end;fill:#262626;stroke-linecap:butt;stroke-linejoin:round">0</text>
            </g>
          </g>
          <g
             id="ytick_2"
             style="stroke-linecap:butt;stroke-linejoin:round">
            <g
               id="line2d_4"
               style="stroke-linecap:butt;stroke-linejoin:round">
              <g
                 id="g10320"
                 style="stroke-linecap:butt;stroke-linejoin:round">
                <use
                   id="use10322"
                   y="252.69041"
                   xlink:href="#mfeea53ea13"
                   x="103.42"
                   style="fill:#262626;stroke:#262626;stroke-linecap:butt;stroke-linejoin:round"
                   width="100%"
                   height="100%" />
              </g>
            </g>
            <g
               id="text_2"
               style="stroke-linecap:butt;stroke-linejoin:round">
              <text
                 id="text10325"
                 y="259.84824"
                 x="94.419998"
                 style="font-style:normal;font-weight:normal;font-size:20px;font-family:Arial;text-anchor:end;fill:#262626;stroke-linecap:butt;stroke-linejoin:round">1000</text>
            </g>
          </g>
          <g
             id="ytick_3"
             style="stroke-linecap:butt;stroke-linejoin:round">
            <g
               id="line2d_5"
               style="stroke-linecap:butt;stroke-linejoin:round">
              <g
                 id="g10329"
                 style="stroke-linecap:butt;stroke-linejoin:round">
                <use
                   id="use10331"
                   y="198.09628"
                   xlink:href="#mfeea53ea13"
                   x="103.42"
                   style="fill:#262626;stroke:#262626;stroke-linecap:butt;stroke-linejoin:round"
                   width="100%"
                   height="100%" />
              </g>
            </g>
            <g
               id="text_3"
               style="stroke-linecap:butt;stroke-linejoin:round">
              <text
                 id="text10334"
                 y="205.2541"
                 x="94.419998"
                 style="font-style:normal;font-weight:normal;font-size:20px;font-family:Arial;text-anchor:end;fill:#262626;stroke-linecap:butt;stroke-linejoin:round">2000</text>
            </g>
          </g>
          <g
             id="ytick_4"
             style="stroke-linecap:butt;stroke-linejoin:round">
            <g
               id="line2d_6"
               style="stroke-linecap:butt;stroke-linejoin:round">
              <g
                 id="g10338"
                 style="stroke-linecap:butt;stroke-linejoin:round">
                <use
                   id="use10340"
                   y="143.50215"
                   xlink:href="#mfeea53ea13"
                   x="103.42"
                   style="fill:#262626;stroke:#262626;stroke-linecap:butt;stroke-linejoin:round"
                   width="100%"
                   height="100%" />
              </g>
            </g>
            <g
               id="text_4"
               style="stroke-linecap:butt;stroke-linejoin:round">
              <text
                 id="text10343"
                 y="150.65997"
                 x="94.419998"
                 style="font-style:normal;font-weight:normal;font-size:20px;font-family:Arial;text-anchor:end;fill:#262626;stroke-linecap:butt;stroke-linejoin:round">3000</text>
            </g>
          </g>
          <g
             id="ytick_5"
             style="stroke-linecap:butt;stroke-linejoin:round">
            <g
               id="line2d_7"
               style="stroke-linecap:butt;stroke-linejoin:round">
              <g
                 id="g10347"
                 style="stroke-linecap:butt;stroke-linejoin:round">
                <use
                   id="use10349"
                   y="88.908028"
                   xlink:href="#mfeea53ea13"
                   x="103.42"
                   style="fill:#262626;stroke:#262626;stroke-linecap:butt;stroke-linejoin:round"
                   width="100%"
                   height="100%" />
              </g>
            </g>
            <g
               id="text_5"
               style="stroke-linecap:butt;stroke-linejoin:round">
              <text
                 id="text10352"
                 y="96.065842"
                 x="94.419998"
                 style="font-style:normal;font-weight:normal;font-size:20px;font-family:Arial;text-anchor:end;fill:#262626;stroke-linecap:butt;stroke-linejoin:round">4000</text>
            </g>
          </g>
          <g
             id="ytick_6"
             style="stroke-linecap:butt;stroke-linejoin:round">
            <g
               id="line2d_8"
               style="stroke-linecap:butt;stroke-linejoin:round">
              <g
                 id="g10356"
                 style="stroke-linecap:butt;stroke-linejoin:round">
                <use
                   id="use10358"
                   y="34.3139"
                   xlink:href="#mfeea53ea13"
                   x="103.42"
                   style="fill:#262626;stroke:#262626;stroke-linecap:butt;stroke-linejoin:round"
                   width="100%"
                   height="100%" />
              </g>
            </g>
            <g
               id="text_6"
               style="stroke-linecap:butt;stroke-linejoin:round">
              <text
                 id="text10361"
                 y="41.47171"
                 x="94.419998"
                 style="font-style:normal;font-weight:normal;font-size:20px;font-family:Arial;text-anchor:end;fill:#262626;stroke-linecap:butt;stroke-linejoin:round">5000</text>
            </g>
          </g>
          <g
             id="text_7"
             style="stroke-linecap:butt;stroke-linejoin:round">
            <text
               id="text10364"
               y="174.73"
               x="41.560001"
               transform="matrix(0,-1,1,0,-133.17,216.29)"
               style="font-style:normal;font-weight:normal;font-size:22px;font-family:Arial;text-anchor:middle;fill:#262626;stroke-linecap:butt;stroke-linejoin:round">2 tetrad PG4s</text>
          </g>
        </g>
        <g
           id="PolyCollection_1"
           style="stroke-linecap:butt;stroke-linejoin:round">
          <defs
             id="defs10367">
            <path
               style="stroke:#0072b2;stroke-width:0.30000001;stroke-linecap:butt;stroke-linejoin:round"
               id="m8d26a1260d"
               d="m 136.57671,-412.71546 0,0 6.69832,0 6.69833,0 6.69832,0 6.69833,0 6.69832,0 6.69833,0 6.69833,0 6.69832,0 6.69832,0 6.69833,0 6.69832,0 6.69833,0 6.69833,0 6.69832,0 6.69833,0 6.69832,0 6.69833,0 6.69832,0 6.69833,0 6.69832,0 6.69833,0 6.69832,0 6.69833,0 6.69832,0 6.69833,0 6.69832,0 6.69833,0 6.69832,0 6.69833,0 6.69832,0 6.69833,0 6.69832,0 6.69833,0 6.69832,0 6.69833,0 6.69832,0 6.69833,0 6.69832,0 6.69833,0 6.69832,0 6.69833,0 6.69832,0 6.69833,0 6.69832,0 6.69833,0 6.69832,0 6.69833,0 6.69832,0 6.69833,0 6.69832,0 6.69833,0 6.69832,0 6.69833,0 6.69833,0 6.69832,0 6.69832,0 6.69833,0 6.69832,0 6.69833,0 6.69833,0 6.69832,0 6.69833,0 6.69832,0 6.69833,0 6.69832,0 6.69833,0 6.69832,0 6.69833,0 6.69832,0 6.69833,0 6.69832,0 6.69833,0 6.69832,0 6.69833,0 6.69832,0 6.69833,0 6.69832,0 6.69833,0 6.69832,0 6.69833,0 6.69832,0 6.69833,0 6.69832,0 6.69833,0 6.69832,0 6.69833,0 6.69832,0 6.69833,0 6.69832,0 6.69833,0 6.69832,0 6.69833,0 6.69832,0 6.69833,0 6.69832,0 6.69833,0 6.69832,0 6.69833,0 6.69832,0 0,-0.49134 0,0 -6.69832,-4.47672 -6.69833,-6.16914 -6.69832,1.63783 -6.69833,-2.94809 -6.69832,-7.97074 -6.69833,3.22106 -6.69832,-4.09456 -6.69833,-0.0546 -6.69832,2.23836 -6.69833,0.87351 -6.69832,-3.05727 -6.69833,3.11186 -6.69832,-8.02534 -6.69833,1.41945 -6.69832,-1.52864 -6.69833,-1.03728 -6.69832,9.281 -6.69833,2.45673 -6.69832,2.78431 -6.69833,-8.62588 -6.69832,-2.12917 -6.69833,4.09456 -6.69832,2.23836 -6.69833,0.10919 -6.69832,1.69242 -6.69833,0.60053 -6.69832,-4.6405 -6.69833,-0.16378 -6.69832,4.14915 -6.69833,3.00268 -6.69832,-1.14648 -6.69833,3.33025 -6.69832,-1.41945 -6.69833,0.9281 -6.69832,-0.0546 -6.69833,1.9108 -6.69832,-3.16646 -6.69833,2.94808 -6.69832,1.41945 -6.69833,-0.16378 -6.69833,-2.62052 -6.69832,-0.38216 -6.69833,-3.60321 -6.69832,4.36753 -6.69832,-0.0546 -6.69833,-0.21837 -6.69833,-2.40214 -6.69832,0.0546 -6.69833,1.25566 -6.69832,0 -6.69833,0.38216 -6.69832,-1.03728 -6.69833,-1.63783 -6.69832,2.72971 -6.69833,2.51133 -6.69832,-1.52864 -6.69833,1.41945 -6.69832,-1.74701 -6.69833,-0.76432 -6.69832,0.27297 -6.69833,-5.13185 -6.69832,3.38484 -6.69833,-0.16378 -6.69832,4.85887 -6.69833,-3.82159 -6.69832,-3.98537 -6.69833,1.52864 -6.69832,-1.74701 -6.69833,3.43943 -6.69832,3.87618 -6.69833,-1.58323 -6.69832,-1.52864 -6.69833,-4.14915 -6.69832,0.98269 -6.69833,1.80161 -6.69832,1.63782 -6.69833,0.60054 -6.69832,-0.76432 -6.69833,0.32757 -6.69832,-3.49403 -6.69833,2.56593 -6.69832,2.29295 -6.69833,0.16378 -6.69832,-4.31293 -6.69833,0.43675 -6.69832,0.38216 -6.69833,-0.81891 -6.69833,4.5859 -6.69832,-2.7297 -6.69833,-5.78698 -6.69832,3.60321 -6.69832,0 -6.69833,1.31026 -6.69833,0.16378 -6.69832,-3.43943 -6.69833,0.9281 -6.69832,2.62052 -6.69833,7.53399 -6.69832,5.35022 z"
               inkscape:connector-curvature="0" />
          </defs>
          <g
             id="g10370"
             clip-path="url(#pbf87626be3)"
             style="stroke-linecap:butt;stroke-linejoin:round">
            <use
               id="use10372"
               y="720"
               xlink:href="#m8d26a1260d"
               x="0"
               style="fill:#0072b2;stroke:#0072b2;stroke-width:0.30000001;stroke-linecap:butt;stroke-linejoin:round"
               width="100%"
               height="100%" />
          </g>
        </g>
        <g
           id="PolyCollection_2"
           style="stroke-linecap:butt;stroke-linejoin:round">
          <defs
             id="defs10375">
            <path
               style="stroke:#d55e00;stroke-width:0.30000001;stroke-linecap:butt;stroke-linejoin:round"
               id="m74c39a076c"
               d="m 136.57671,-412.71546 0,0 6.69832,-5.35022 6.69833,-7.53399 6.69832,-2.62052 6.69833,-0.9281 6.69832,3.43943 6.69833,-0.16378 6.69833,-1.31026 6.69832,0 6.69832,-3.60321 6.69833,5.78698 6.69832,2.7297 6.69833,-4.5859 6.69833,0.81891 6.69832,-0.38216 6.69833,-0.43675 6.69832,4.31293 6.69833,-0.16378 6.69832,-2.29295 6.69833,-2.56593 6.69832,3.49403 6.69833,-0.32757 6.69832,0.76432 6.69833,-0.60054 6.69832,-1.63782 6.69833,-1.80161 6.69832,-0.98269 6.69833,4.14915 6.69832,1.52864 6.69833,1.58323 6.69832,-3.87618 6.69833,-3.43943 6.69832,1.74701 6.69833,-1.52864 6.69832,3.98537 6.69833,3.82159 6.69832,-4.85887 6.69833,0.16378 6.69832,-3.38484 6.69833,5.13185 6.69832,-0.27297 6.69833,0.76432 6.69832,1.74701 6.69833,-1.41945 6.69832,1.52864 6.69833,-2.51133 6.69832,-2.72971 6.69833,1.63783 6.69832,1.03728 6.69833,-0.38216 6.69832,0 6.69833,-1.25566 6.69832,-0.0546 6.69833,2.40214 6.69833,0.21837 6.69832,0.0546 6.69832,-4.36753 6.69833,3.60321 6.69832,0.38216 6.69833,2.62052 6.69833,0.16378 6.69832,-1.41945 6.69833,-2.94808 6.69832,3.16646 6.69833,-1.9108 6.69832,0.0546 6.69833,-0.9281 6.69832,1.41945 6.69833,-3.33025 6.69832,1.14648 6.69833,-3.00268 6.69832,-4.14915 6.69833,0.16378 6.69832,4.6405 6.69833,-0.60053 6.69832,-1.69242 6.69833,-0.10919 6.69832,-2.23836 6.69833,-4.09456 6.69832,2.12917 6.69833,8.62588 6.69832,-2.78431 6.69833,-2.45673 6.69832,-9.281 6.69833,1.03728 6.69832,1.52864 6.69833,-1.41945 6.69832,8.02534 6.69833,-3.11186 6.69832,3.05727 6.69833,-0.87351 6.69832,-2.23836 6.69833,0.0546 6.69832,4.09456 6.69833,-3.22106 6.69832,7.97074 6.69833,2.94809 6.69832,-1.63783 6.69833,6.16914 6.69832,4.47672 0,-3.43943 0,0 -6.69832,-13.15719 -6.69833,-10.97342 -6.69832,-5.84157 -6.69833,-2.12917 -6.69832,-24.67655 -6.69833,7.09724 -6.69832,-1.69242 -6.69833,2.34755 -6.69832,-0.9281 -6.69833,3.65781 -6.69832,-8.07993 -6.69833,6.76967 -6.69832,-10.31829 -6.69833,4.74969 -6.69832,-6.27833 -6.69833,1.36486 -6.69832,11.90151 -6.69833,7.534 -6.69832,4.25834 -6.69833,-15.45014 -6.69832,-1.69242 -6.69833,3.82159 -6.69832,4.25834 -6.69833,0.32757 -6.69832,5.02266 -6.69833,5.29563 -6.69832,-8.73506 -6.69833,-5.73239 -6.69832,9.60857 -6.69833,7.86155 -6.69832,-1.52863 -6.69833,3.54862 -6.69832,-3.7124 -6.69833,2.01998 -6.69832,0.98269 -6.69833,1.69242 -6.69832,-0.65513 -6.69833,3.33024 -6.69832,1.63783 -6.69833,1.41944 -6.69833,-5.02266 -6.69832,-2.89348 -6.69833,-2.29296 -6.69832,4.96807 -6.69832,-1.25567 -6.69833,-1.52863 -6.69833,0.9281 -6.69832,-4.31294 -6.69833,4.09456 -6.69832,1.03729 -6.69833,0.27297 -6.69832,-0.65513 -6.69833,-3.87618 -6.69832,4.31293 -6.69833,0.87351 -6.69832,1.31026 -6.69833,0 -6.69832,-0.9827 -6.69833,-3.33024 -6.69832,2.56593 -6.69833,-5.73239 -6.69832,4.80429 -6.69833,-0.32757 -6.69832,3.38484 -6.69833,-8.4075 -6.69832,-4.85888 -6.69833,5.13185 -6.69832,-4.74969 -6.69833,10.53667 -6.69832,0.32757 -6.69833,-0.38216 -6.69832,1.03728 -6.69833,-8.73506 -6.69832,2.45674 -6.69833,2.62052 -6.69832,1.74701 -6.69833,-3.11186 -6.69832,3.7124 -6.69833,0.70972 -6.69832,-5.95076 -6.69833,2.34755 -6.69832,3.43943 -6.69833,-1.14648 -6.69832,2.40214 -6.69833,1.96539 -6.69832,-3.33024 -6.69833,-7.69777 -6.69833,6.33291 -6.69832,-1.25566 -6.69833,-3.98537 -6.69832,4.14915 -6.69832,-4.09456 -6.69833,1.58323 -6.69833,-0.9281 -6.69832,-0.76431 -6.69833,-0.43676 -6.69832,-1.25566 -6.69833,11.0826 -6.69832,28.17057 z"
               inkscape:connector-curvature="0" />
          </defs>
          <g
             id="g10378"
             clip-path="url(#pbf87626be3)"
             style="stroke-linecap:butt;stroke-linejoin:round">
            <use
               id="use10380"
               y="720"
               xlink:href="#m74c39a076c"
               x="0"
               style="fill:#d55e00;stroke:#d55e00;stroke-width:0.30000001;stroke-linecap:butt;stroke-linejoin:round"
               width="100%"
               height="100%" />
          </g>
        </g>
        <g
           id="PolyCollection_3"
           style="stroke-linecap:butt;stroke-linejoin:round">
          <defs
             id="defs10383">
            <path
               style="stroke:#009e73;stroke-width:0.30000001;stroke-linecap:butt;stroke-linejoin:round"
               id="mbc6b2eb213"
               d="m 136.57671,-412.71546 0,0 6.69832,-28.17057 6.69833,-11.0826 6.69832,1.25566 6.69833,0.43676 6.69832,0.76431 6.69833,0.9281 6.69833,-1.58323 6.69832,4.09456 6.69832,-4.14915 6.69833,3.98537 6.69832,1.25566 6.69833,-6.33291 6.69833,7.69777 6.69832,3.33024 6.69833,-1.96539 6.69832,-2.40214 6.69833,1.14648 6.69832,-3.43943 6.69833,-2.34755 6.69832,5.95076 6.69833,-0.70972 6.69832,-3.7124 6.69833,3.11186 6.69832,-1.74701 6.69833,-2.62052 6.69832,-2.45674 6.69833,8.73506 6.69832,-1.03728 6.69833,0.38216 6.69832,-0.32757 6.69833,-10.53667 6.69832,4.74969 6.69833,-5.13185 6.69832,4.85888 6.69833,8.4075 6.69832,-3.38484 6.69833,0.32757 6.69832,-4.80429 6.69833,5.73239 6.69832,-2.56593 6.69833,3.33024 6.69832,0.9827 6.69833,0 6.69832,-1.31026 6.69833,-0.87351 6.69832,-4.31293 6.69833,3.87618 6.69832,0.65513 6.69833,-0.27297 6.69832,-1.03729 6.69833,-4.09456 6.69832,4.31294 6.69833,-0.9281 6.69833,1.52863 6.69832,1.25567 6.69832,-4.96807 6.69833,2.29296 6.69832,2.89348 6.69833,5.02266 6.69833,-1.41944 6.69832,-1.63783 6.69833,-3.33024 6.69832,0.65513 6.69833,-1.69242 6.69832,-0.98269 6.69833,-2.01998 6.69832,3.7124 6.69833,-3.54862 6.69832,1.52863 6.69833,-7.86155 6.69832,-9.60857 6.69833,5.73239 6.69832,8.73506 6.69833,-5.29563 6.69832,-5.02266 6.69833,-0.32757 6.69832,-4.25834 6.69833,-3.82159 6.69832,1.69242 6.69833,15.45014 6.69832,-4.25834 6.69833,-7.534 6.69832,-11.90151 6.69833,-1.36486 6.69832,6.27833 6.69833,-4.74969 6.69832,10.31829 6.69833,-6.76967 6.69832,8.07993 6.69833,-3.65781 6.69832,0.9281 6.69833,-2.34755 6.69832,1.69242 6.69833,-7.09724 6.69832,24.67655 6.69833,2.12917 6.69832,5.84157 6.69833,10.97342 6.69832,13.15719 0,-6.76967 0,0 -6.69832,-25.1679 -6.69833,-17.90687 -6.69832,-16.32365 -6.69833,-0.76431 -6.69832,-36.57807 -6.69833,11.1372 -6.69832,-3.60321 -6.69833,5.89617 -6.69832,-8.4075 -6.69833,5.02266 -6.69832,-8.84425 -6.69833,8.3529 -6.69832,-3.76699 -6.69833,3.38483 -6.69832,-9.66316 -6.69833,2.45674 -6.69832,12.22908 -6.69833,10.09992 -6.69832,8.89884 -6.69833,-17.19715 -6.69832,-0.10919 -6.69833,3.93078 -6.69832,6.11454 -6.69833,-3.22105 -6.69832,8.78965 -6.69833,6.5513 -6.69832,-11.35558 -6.69833,-7.69777 -6.69832,18.72578 -6.69833,8.3529 -6.69832,-5.07725 -6.69833,3.54862 -6.69832,-6.00535 -6.69833,-1.69242 -6.69832,9.49938 -6.69833,0.49134 -6.69832,0.38216 -6.69833,3.27565 -6.69832,5.29563 -6.69833,2.83889 -6.69833,-9.11722 -6.69832,-3.43943 -6.69833,-4.53131 -6.69832,4.74969 -6.69832,-4.36753 -6.69833,-0.9281 -6.69833,6.44211 -6.69832,-11.1918 -6.69833,4.6405 -6.69832,7.91615 -6.69833,-2.7843 -6.69832,5.13185 -6.69833,-9.77235 -6.69832,10.2091 -6.69833,-0.98269 -6.69832,3.22105 -6.69833,-7.47939 -6.69832,5.35022 -6.69833,-3.98537 -6.69832,4.58591 -6.69833,-7.20643 -6.69832,2.29295 -6.69833,3.49403 -6.69832,-3.22106 -6.69833,-7.69777 -6.69832,-4.03996 -6.69833,4.31293 -6.69832,-5.13185 -6.69833,12.72044 -6.69832,-0.70973 -6.69833,-0.16378 -6.69832,1.8562 -6.69833,-9.71775 -6.69832,2.12917 -6.69833,2.34754 -6.69832,4.64051 -6.69833,-11.51937 -6.69832,9.82695 -6.69833,1.8016 -6.69832,-14.35825 -6.69833,6.00535 -6.69832,3.767 -6.69833,-1.31026 -6.69832,11.57395 -6.69833,2.89349 -6.69832,0.21838 -6.69833,-16.97878 -6.69833,5.35023 -6.69832,-0.70973 -6.69833,3.82159 -6.69832,1.09189 -6.69832,-3.87619 -6.69833,1.69242 -6.69833,-0.16378 -6.69832,-5.5686 -6.69833,-2.45674 -6.69832,-8.57128 -6.69833,25.1133 -6.69832,51.59145 z"
               inkscape:connector-curvature="0" />
          </defs>
          <g
             id="g10386"
             clip-path="url(#pbf87626be3)"
             style="stroke-linecap:butt;stroke-linejoin:round">
            <use
               id="use10388"
               y="720"
               xlink:href="#mbc6b2eb213"
               x="0"
               style="fill:#009e73;stroke:#009e73;stroke-width:0.30000001;stroke-linecap:butt;stroke-linejoin:round"
               width="100%"
               height="100%" />
          </g>
        </g>
        <g
           id="PolyCollection_4"
           style="stroke-linecap:butt;stroke-linejoin:round">
          <defs
             id="defs10391">
            <path
               style="stroke:#f0e442;stroke-width:0.30000001;stroke-linecap:butt;stroke-linejoin:round"
               id="maa05e38c9f"
               d="m 136.57671,-412.71546 0,0 6.69832,-51.59145 6.69833,-25.1133 6.69832,8.57128 6.69833,2.45674 6.69832,5.5686 6.69833,0.16378 6.69833,-1.69242 6.69832,3.87619 6.69832,-1.09189 6.69833,-3.82159 6.69832,0.70973 6.69833,-5.35023 6.69833,16.97878 6.69832,-0.21838 6.69833,-2.89349 6.69832,-11.57395 6.69833,1.31026 6.69832,-3.767 6.69833,-6.00535 6.69832,14.35825 6.69833,-1.8016 6.69832,-9.82695 6.69833,11.51937 6.69832,-4.64051 6.69833,-2.34754 6.69832,-2.12917 6.69833,9.71775 6.69832,-1.8562 6.69833,0.16378 6.69832,0.70973 6.69833,-12.72044 6.69832,5.13185 6.69833,-4.31293 6.69832,4.03996 6.69833,7.69777 6.69832,3.22106 6.69833,-3.49403 6.69832,-2.29295 6.69833,7.20643 6.69832,-4.58591 6.69833,3.98537 6.69832,-5.35022 6.69833,7.47939 6.69832,-3.22105 6.69833,0.98269 6.69832,-10.2091 6.69833,9.77235 6.69832,-5.13185 6.69833,2.7843 6.69832,-7.91615 6.69833,-4.6405 6.69832,11.1918 6.69833,-6.44211 6.69833,0.9281 6.69832,4.36753 6.69832,-4.74969 6.69833,4.53131 6.69832,3.43943 6.69833,9.11722 6.69833,-2.83889 6.69832,-5.29563 6.69833,-3.27565 6.69832,-0.38216 6.69833,-0.49134 6.69832,-9.49938 6.69833,1.69242 6.69832,6.00535 6.69833,-3.54862 6.69832,5.07725 6.69833,-8.3529 6.69832,-18.72578 6.69833,7.69777 6.69832,11.35558 6.69833,-6.5513 6.69832,-8.78965 6.69833,3.22105 6.69832,-6.11454 6.69833,-3.93078 6.69832,0.10919 6.69833,17.19715 6.69832,-8.89884 6.69833,-10.09992 6.69832,-12.22908 6.69833,-2.45674 6.69832,9.66316 6.69833,-3.38483 6.69832,3.76699 6.69833,-8.3529 6.69832,8.84425 6.69833,-5.02266 6.69832,8.4075 6.69833,-5.89617 6.69832,3.60321 6.69833,-11.1372 6.69832,36.57807 6.69833,0.76431 6.69832,16.32365 6.69833,17.90687 6.69832,25.1679 0,-8.51669 0,0 -6.69832,-45.14934 -6.69833,-29.64461 -6.69832,-20.63659 -6.69833,-5.95076 -6.69832,-35.04943 -6.69833,9.71776 -6.69832,2.07458 -6.69833,-4.85888 -6.69832,-10.2637 -6.69833,0.76432 -6.69832,-4.53131 -6.69833,10.09991 -6.69832,-5.95076 -6.69833,14.08529 -6.69832,-10.42748 -6.69833,-2.18377 -6.69832,9.55397 -6.69833,16.92419 -6.69832,10.37288 -6.69833,-13.48475 -6.69832,-1.20107 -6.69833,10.86423 -6.69832,3.00268 -6.69833,-7.37021 -6.69832,13.32097 -6.69833,3.11186 -6.69832,-10.59126 -6.69833,-7.80696 -6.69832,20.74577 -6.69833,12.72043 -6.69832,-10.75504 -6.69833,1.25566 -6.69832,-10.70045 -6.69833,7.97075 -6.69832,8.62587 -6.69833,6.05995 -6.69832,-6.22373 -6.69833,3.98537 -6.69832,9.99072 -6.69833,5.67779 -6.69833,-16.92418 -6.69832,-1.52863 -6.69833,-9.77235 -6.69832,10.97342 -6.69832,-5.29563 -6.69833,-10.80964 -6.69833,6.4967 -6.69832,-10.04532 -6.69833,11.68315 -6.69832,7.4248 -6.69833,-4.03997 -6.69832,11.41018 -6.69833,-9.06263 -6.69832,12.28368 -6.69833,-6.60589 -6.69832,6.76967 -6.69833,-9.88154 -6.69832,9.44479 -6.69833,-5.73239 -6.69832,3.60322 -6.69833,-5.5686 -6.69832,-0.9827 -6.69833,-1.69242 -6.69832,-0.81891 -6.69833,-4.53131 -6.69832,-9.77235 -6.69833,11.41017 -6.69832,-2.51133 -6.69833,11.35558 -6.69832,0.76432 -6.69833,-5.51401 -6.69832,2.89349 -6.69833,-6.11454 -6.69832,0.0546 -6.69833,3.22106 -6.69832,7.20642 -6.69833,-19.5447 -6.69832,15.55933 -6.69833,-5.40482 -6.69832,-26.47815 -6.69833,13.9215 -6.69832,6.38752 -6.69833,6.27832 -6.69832,12.28368 -6.69833,8.07993 -6.69832,-4.03997 -6.69833,-18.94416 -6.69833,1.47404 -6.69832,2.89349 -6.69833,10.53667 -6.69832,-0.21838 -6.69832,-2.51133 -6.69833,3.11187 -6.69833,1.41944 -6.69832,-17.57931 -6.69833,0.27298 -6.69832,-17.52472 -6.69833,49.95363 -6.69832,71.35452 z"
               inkscape:connector-curvature="0" />
          </defs>
          <g
             id="g10394"
             clip-path="url(#pbf87626be3)"
             style="stroke-linecap:butt;stroke-linejoin:round">
            <use
               id="use10396"
               y="720"
               xlink:href="#maa05e38c9f"
               x="0"
               style="fill:#f0e442;stroke:#f0e442;stroke-width:0.30000001;stroke-linecap:butt;stroke-linejoin:round"
               width="100%"
               height="100%" />
          </g>
        </g>
        <g
           id="PolyCollection_5"
           style="stroke-linecap:butt;stroke-linejoin:round">
          <defs
             id="defs10399">
            <path
               style="stroke:#cc79a7;stroke-width:0.30000001;stroke-linecap:butt;stroke-linejoin:round"
               id="m45e13ae6b5"
               d="m 136.57671,-412.71546 0,0 6.69832,-71.35452 6.69833,-49.95363 6.69832,17.52472 6.69833,-0.27298 6.69832,17.57931 6.69833,-1.41944 6.69833,-3.11187 6.69832,2.51133 6.69832,0.21838 6.69833,-10.53667 6.69832,-2.89349 6.69833,-1.47404 6.69833,18.94416 6.69832,4.03997 6.69833,-8.07993 6.69832,-12.28368 6.69833,-6.27832 6.69832,-6.38752 6.69833,-13.9215 6.69832,26.47815 6.69833,5.40482 6.69832,-15.55933 6.69833,19.5447 6.69832,-7.20642 6.69833,-3.22106 6.69832,-0.0546 6.69833,6.11454 6.69832,-2.89349 6.69833,5.51401 6.69832,-0.76432 6.69833,-11.35558 6.69832,2.51133 6.69833,-11.41017 6.69832,9.77235 6.69833,4.53131 6.69832,0.81891 6.69833,1.69242 6.69832,0.9827 6.69833,5.5686 6.69832,-3.60322 6.69833,5.73239 6.69832,-9.44479 6.69833,9.88154 6.69832,-6.76967 6.69833,6.60589 6.69832,-12.28368 6.69833,9.06263 6.69832,-11.41018 6.69833,4.03997 6.69832,-7.4248 6.69833,-11.68315 6.69832,10.04532 6.69833,-6.4967 6.69833,10.80964 6.69832,5.29563 6.69832,-10.97342 6.69833,9.77235 6.69832,1.52863 6.69833,16.92418 6.69833,-5.67779 6.69832,-9.99072 6.69833,-3.98537 6.69832,6.22373 6.69833,-6.05995 6.69832,-8.62587 6.69833,-7.97075 6.69832,10.70045 6.69833,-1.25566 6.69832,10.75504 6.69833,-12.72043 6.69832,-20.74577 6.69833,7.80696 6.69832,10.59126 6.69833,-3.11186 6.69832,-13.32097 6.69833,7.37021 6.69832,-3.00268 6.69833,-10.86423 6.69832,1.20107 6.69833,13.48475 6.69832,-10.37288 6.69833,-16.92419 6.69832,-9.55397 6.69833,2.18377 6.69832,10.42748 6.69833,-14.08529 6.69832,5.95076 6.69833,-10.09991 6.69832,4.53131 6.69833,-0.76432 6.69832,10.2637 6.69833,4.85888 6.69832,-2.07458 6.69833,-9.71776 6.69832,35.04943 6.69833,5.95076 6.69832,20.63659 6.69833,29.64461 6.69832,45.14934 0,-6.98805 0,0 -6.69832,-95.48513 -6.69833,-50.88173 -6.69832,-43.94827 -6.69833,3.11186 -6.69832,-32.86566 -6.69833,12.1199 -6.69832,14.79501 -6.69833,-14.19448 -6.69832,-4.14915 -6.69833,4.25834 -6.69832,-8.4075 -6.69833,13.37557 -6.69832,-13.64854 -6.69833,29.31705 -6.69832,-23.91223 -6.69833,-9.93613 -6.69832,18.78038 -6.69833,27.51544 -6.69832,2.62052 -6.69833,-13.048 -6.69832,0.76432 -6.69833,18.45282 -6.69832,3.38483 -6.69833,-12.72043 -6.69832,6.5513 -6.69833,8.13452 -6.69832,-5.5686 -6.69833,-12.50206 -6.69832,24.51277 -6.69833,20.74577 -6.69832,-16.37824 -6.69833,12.55665 -6.69832,-28.44354 -6.69833,33.4116 -6.69832,-1.96538 -6.69833,10.53666 -6.69832,-5.45941 -6.69833,2.40214 -6.69832,1.20107 -6.69833,8.78966 -6.69833,-23.91223 -6.69832,-9.11722 -6.69833,-1.03729 -6.69832,7.31561 -6.69832,-0.10919 -6.69833,-14.95879 -6.69833,8.02534 -6.69832,-12.88421 -6.69833,21.83765 -6.69832,-2.72971 -6.69833,3.33024 -6.69832,10.75505 -6.69833,-4.31294 -6.69832,3.82159 -6.69833,-14.57663 -6.69832,1.8562 -6.69833,3.00268 -6.69832,13.70312 -6.69833,-1.41945 -6.69832,-2.56592 -6.69833,-1.41945 -6.69832,-5.02266 -6.69833,-20.4728 -6.69832,18.01607 -6.69833,7.47939 -6.69832,-24.62195 -6.69833,25.22249 -6.69832,10.15451 -6.69833,12.9934 -6.69832,-11.30099 -6.69833,-17.03336 -6.69832,11.30098 -6.69833,9.66316 -6.69832,-6.60589 -6.69833,6.27833 -6.69832,-8.73506 -6.69833,-22.3836 -6.69832,18.72579 -6.69833,-9.39019 -6.69832,-35.54078 -6.69833,16.59662 -6.69832,29.37164 -6.69833,-1.96539 -6.69832,0.65513 -6.69833,13.48475 -6.69832,-2.29295 -6.69833,-38.48887 -6.69833,-2.07457 -6.69832,18.45281 -6.69833,12.72043 -6.69832,-8.40749 -6.69832,11.73774 -6.69833,3.93077 -6.69833,1.47405 -6.69832,-32.31973 -6.69833,11.08261 -6.69832,-31.77378 -6.69833,90.08031 -6.69832,106.78611 z"
               inkscape:connector-curvature="0" />
          </defs>
          <g
             id="g10402"
             clip-path="url(#pbf87626be3)"
             style="stroke-linecap:butt;stroke-linejoin:round">
            <use
               id="use10404"
               y="720"
               xlink:href="#m45e13ae6b5"
               x="0"
               style="fill:#cc79a7;stroke:#cc79a7;stroke-width:0.30000001;stroke-linecap:butt;stroke-linejoin:round"
               width="100%"
               height="100%" />
          </g>
        </g>
        <g
           id="patch_3"
           style="stroke-linecap:butt;stroke-linejoin:round">
          <path
             id="path10407"
             style="fill:none;stroke:#262626;stroke-width:1.25;stroke-linecap:square;stroke-linejoin:miter"
             d="m 103.42,320.54 0,-291.62"
             inkscape:connector-curvature="0" />
        </g>
        <g
           id="patch_4"
           style="stroke-linecap:butt;stroke-linejoin:round">
          <path
             id="path10410"
             style="fill:none;stroke:#262626;stroke-width:1.25;stroke-linecap:square;stroke-linejoin:miter"
             d="m 832.8676,320.54 0,-291.62"
             inkscape:connector-curvature="0" />
        </g>
        <g
           id="patch_5"
           style="stroke-linecap:butt;stroke-linejoin:round">
          <path
             id="path10413"
             style="fill:none;stroke:#262626;stroke-width:1.25;stroke-linecap:square;stroke-linejoin:miter"
             d="m 103.42,320.54 729.4476,0"
             inkscape:connector-curvature="0" />
        </g>
        <g
           id="patch_6"
           style="stroke-linecap:butt;stroke-linejoin:round">
          <path
             id="path10416"
             style="fill:none;stroke:#262626;stroke-width:1.25;stroke-linecap:square;stroke-linejoin:miter"
             d="m 103.42,28.92 729.4476,0"
             inkscape:connector-curvature="0" />
        </g>
      </g>
      <g
         id="axes_2"
         style="stroke-linecap:butt;stroke-linejoin:round"
         transform="translate(18.203883,-26.005548)">
        <g
           id="patch_7"
           style="stroke-linecap:butt;stroke-linejoin:round"
           transform="translate(0,33.807213)">
          <path
             id="path10420"
             style="fill:#ffffff;stroke-linecap:butt;stroke-linejoin:round"
             d="m 103.42,644.08 729.4476,0 0,-291.62 -729.4476,0 z"
             inkscape:connector-curvature="0" />
        </g>
        <g
           id="matplotlib.axis_3"
           style="stroke-linecap:butt;stroke-linejoin:round"
           transform="translate(0,33.807213)">
          <g
             id="xtick_3"
             style="stroke-linecap:butt;stroke-linejoin:round">
            <g
               id="line2d_9"
               style="stroke-linecap:butt;stroke-linejoin:round">
              <g
                 id="g10425"
                 style="stroke-linecap:butt;stroke-linejoin:round">
                <use
                   id="use10427"
                   y="644.08002"
                   xlink:href="#m7af69bcac7"
                   x="136.57671"
                   style="fill:#262626;stroke:#262626;stroke-linecap:butt;stroke-linejoin:round"
                   width="100%"
                   height="100%" />
              </g>
            </g>
            <g
               id="text_8"
               style="stroke-linecap:butt;stroke-linejoin:round">
              <text
                 id="text10430"
                 transform="translate(115.45952,667.39562)"
                 style="font-style:normal;font-weight:normal;font-size:20px;font-family:Arial;fill:#262626;stroke-linecap:butt;stroke-linejoin:round">Start</text>
              <text
                 id="text10432"
                 transform="translate(107.11108,688.54938)"
                 style="font-style:normal;font-weight:normal;font-size:20px;font-family:Arial;fill:#262626;stroke-linecap:butt;stroke-linejoin:round">Codon</text>
            </g>
          </g>
          <g
             id="xtick_4"
             style="stroke-linecap:butt;stroke-linejoin:round">
            <g
               id="line2d_10"
               style="stroke-linecap:butt;stroke-linejoin:round">
              <g
                 id="g10436"
                 style="stroke-linecap:butt;stroke-linejoin:round">
                <use
                   id="use10438"
                   y="644.08002"
                   xlink:href="#m7af69bcac7"
                   x="806.40924"
                   style="fill:#262626;stroke:#262626;stroke-linecap:butt;stroke-linejoin:round"
                   width="100%"
                   height="100%" />
              </g>
            </g>
            <g
               id="text_9"
               style="stroke-linecap:butt;stroke-linejoin:round">
              <text
                 id="text10441"
                 transform="translate(785.83891,667.63937)"
                 style="font-style:normal;font-weight:normal;font-size:20px;font-family:Arial;fill:#262626;stroke-linecap:butt;stroke-linejoin:round">Stop</text>
              <text
                 id="text10443"
                 transform="translate(776.94359,688.79313)"
                 style="font-style:normal;font-weight:normal;font-size:20px;font-family:Arial;fill:#262626;stroke-linecap:butt;stroke-linejoin:round">Codon</text>
            </g>
          </g>
        </g>
        <g
           id="matplotlib.axis_4"
           style="stroke-linecap:butt;stroke-linejoin:round"
           transform="translate(0,33.807213)">
          <g
             id="ytick_7"
             style="stroke-linecap:butt;stroke-linejoin:round">
            <g
               id="line2d_11"
               style="stroke-linecap:butt;stroke-linejoin:round">
              <g
                 id="g10448"
                 style="stroke-linecap:butt;stroke-linejoin:round">
                <use
                   id="use10450"
                   y="630.82452"
                   xlink:href="#mfeea53ea13"
                   x="103.42"
                   style="fill:#262626;stroke:#262626;stroke-linecap:butt;stroke-linejoin:round"
                   width="100%"
                   height="100%" />
              </g>
            </g>
            <g
               id="text_10"
               style="stroke-linecap:butt;stroke-linejoin:round">
              <text
                 id="text10453"
                 y="637.98236"
                 x="94.419998"
                 style="font-style:normal;font-weight:normal;font-size:20px;font-family:Arial;text-anchor:end;fill:#262626;stroke-linecap:butt;stroke-linejoin:round">0</text>
            </g>
          </g>
          <g
             id="ytick_8"
             style="stroke-linecap:butt;stroke-linejoin:round">
            <g
               id="line2d_12"
               style="stroke-linecap:butt;stroke-linejoin:round">
              <g
                 id="g10457"
                 style="stroke-linecap:butt;stroke-linejoin:round">
                <use
                   id="use10459"
                   y="576.23041"
                   xlink:href="#mfeea53ea13"
                   x="103.42"
                   style="fill:#262626;stroke:#262626;stroke-linecap:butt;stroke-linejoin:round"
                   width="100%"
                   height="100%" />
              </g>
            </g>
            <g
               id="text_11"
               style="stroke-linecap:butt;stroke-linejoin:round">
              <text
                 id="text10462"
                 y="583.38824"
                 x="94.419998"
                 style="font-style:normal;font-weight:normal;font-size:20px;font-family:Arial;text-anchor:end;fill:#262626;stroke-linecap:butt;stroke-linejoin:round">1000</text>
            </g>
          </g>
          <g
             id="ytick_9"
             style="stroke-linecap:butt;stroke-linejoin:round">
            <g
               id="line2d_13"
               style="stroke-linecap:butt;stroke-linejoin:round">
              <g
                 id="g10466"
                 style="stroke-linecap:butt;stroke-linejoin:round">
                <use
                   id="use10468"
                   y="521.63629"
                   xlink:href="#mfeea53ea13"
                   x="103.42"
                   style="fill:#262626;stroke:#262626;stroke-linecap:butt;stroke-linejoin:round"
                   width="100%"
                   height="100%" />
              </g>
            </g>
            <g
               id="text_12"
               style="stroke-linecap:butt;stroke-linejoin:round">
              <text
                 id="text10471"
                 y="528.79413"
                 x="94.419998"
                 style="font-style:normal;font-weight:normal;font-size:20px;font-family:Arial;text-anchor:end;fill:#262626;stroke-linecap:butt;stroke-linejoin:round">2000</text>
            </g>
          </g>
          <g
             id="ytick_10"
             style="stroke-linecap:butt;stroke-linejoin:round">
            <g
               id="line2d_14"
               style="stroke-linecap:butt;stroke-linejoin:round">
              <g
                 id="g10475"
                 style="stroke-linecap:butt;stroke-linejoin:round">
                <use
                   id="use10477"
                   y="467.04214"
                   xlink:href="#mfeea53ea13"
                   x="103.42"
                   style="fill:#262626;stroke:#262626;stroke-linecap:butt;stroke-linejoin:round"
                   width="100%"
                   height="100%" />
              </g>
            </g>
            <g
               id="text_13"
               style="stroke-linecap:butt;stroke-linejoin:round">
              <text
                 id="text10480"
                 y="474.19998"
                 x="94.419998"
                 style="font-style:normal;font-weight:normal;font-size:20px;font-family:Arial;text-anchor:end;fill:#262626;stroke-linecap:butt;stroke-linejoin:round">3000</text>
            </g>
          </g>
          <g
             id="ytick_11"
             style="stroke-linecap:butt;stroke-linejoin:round">
            <g
               id="line2d_15"
               style="stroke-linecap:butt;stroke-linejoin:round">
              <g
                 id="g10484"
                 style="stroke-linecap:butt;stroke-linejoin:round">
                <use
                   id="use10486"
                   y="412.44803"
                   xlink:href="#mfeea53ea13"
                   x="103.42"
                   style="fill:#262626;stroke:#262626;stroke-linecap:butt;stroke-linejoin:round"
                   width="100%"
                   height="100%" />
              </g>
            </g>
            <g
               id="text_14"
               style="stroke-linecap:butt;stroke-linejoin:round">
              <text
                 id="text10489"
                 y="419.60583"
                 x="94.419998"
                 style="font-style:normal;font-weight:normal;font-size:20px;font-family:Arial;text-anchor:end;fill:#262626;stroke-linecap:butt;stroke-linejoin:round">4000</text>
            </g>
          </g>
          <g
             id="ytick_12"
             style="stroke-linecap:butt;stroke-linejoin:round">
            <g
               id="line2d_16"
               style="stroke-linecap:butt;stroke-linejoin:round">
              <g
                 id="g10493"
                 style="stroke-linecap:butt;stroke-linejoin:round">
                <use
                   id="use10495"
                   y="357.85391"
                   xlink:href="#mfeea53ea13"
                   x="103.42"
                   style="fill:#262626;stroke:#262626;stroke-linecap:butt;stroke-linejoin:round"
                   width="100%"
                   height="100%" />
              </g>
            </g>
            <g
               id="text_15"
               style="stroke-linecap:butt;stroke-linejoin:round">
              <text
                 id="text10498"
                 y="365.01172"
                 x="94.419998"
                 style="font-style:normal;font-weight:normal;font-size:20px;font-family:Arial;text-anchor:end;fill:#262626;stroke-linecap:butt;stroke-linejoin:round">5000</text>
            </g>
          </g>
          <g
             id="text_16"
             style="stroke-linecap:butt;stroke-linejoin:round">
            <text
               id="text10501"
               y="498.26999"
               x="41.560001"
               transform="matrix(0,-1,1,0,-456.71,539.83)"
               style="font-style:normal;font-weight:normal;font-size:22px;font-family:Arial;text-anchor:middle;fill:#262626;stroke-linecap:butt;stroke-linejoin:round">2 tetrad PG4s</text>
          </g>
        </g>
        <g
           id="PolyCollection_6"
           style="stroke-linecap:butt;stroke-linejoin:round"
           transform="translate(0,33.807213)">
          <defs
             id="defs10504">
            <path
               style="stroke:#0072b2;stroke-width:0.30000001;stroke-linecap:butt;stroke-linejoin:round"
               id="mb6cc4fa51f"
               d="m 136.57671,-89.175455 0,0 6.69832,0 6.69833,0 6.69832,0 6.69833,0 6.69832,0 6.69833,0 6.69833,0 6.69832,0 6.69832,0 6.69833,0 6.69832,0 6.69833,0 6.69833,0 6.69832,0 6.69833,0 6.69832,0 6.69833,0 6.69832,0 6.69833,0 6.69832,0 6.69833,0 6.69832,0 6.69833,0 6.69832,0 6.69833,0 6.69832,0 6.69833,0 6.69832,0 6.69833,0 6.69832,0 6.69833,0 6.69832,0 6.69833,0 6.69832,0 6.69833,0 6.69832,0 6.69833,0 6.69832,0 6.69833,0 6.69832,0 6.69833,0 6.69832,0 6.69833,0 6.69832,0 6.69833,0 6.69832,0 6.69833,0 6.69832,0 6.69833,0 6.69832,0 6.69833,0 6.69832,0 6.69833,0 6.69833,0 6.69832,0 6.69832,0 6.69833,0 6.69832,0 6.69833,0 6.69833,0 6.69832,0 6.69833,0 6.69832,0 6.69833,0 6.69832,0 6.69833,0 6.69832,0 6.69833,0 6.69832,0 6.69833,0 6.69832,0 6.69833,0 6.69832,0 6.69833,0 6.69832,0 6.69833,0 6.69832,0 6.69833,0 6.69832,0 6.69833,0 6.69832,0 6.69833,0 6.69832,0 6.69833,0 6.69832,0 6.69833,0 6.69832,0 6.69833,0 6.69832,0 6.69833,0 6.69832,0 6.69833,0 6.69832,0 6.69833,0 6.69832,0 6.69833,0 6.69832,0 6.69833,0 6.69832,0 0,-6.169136 0,0 -6.69832,-3.548619 -6.69833,-6.11454 -6.69832,6.11454 -6.69833,1.692418 -6.69832,1.692418 -6.69833,-2.347547 -6.69832,1.419447 -6.69833,-1.8562 -6.69832,2.565924 -6.69833,-1.146477 -6.69832,1.255665 -6.69833,-0.818912 -6.69832,-1.419447 -6.69833,-1.58323 -6.69832,0.382159 -6.69833,0.109188 -6.69832,0.709724 -6.69833,-0.709724 -6.69832,2.183766 -6.69833,-0.109189 -6.69832,-1.146476 -6.69833,-0.764318 -6.69832,3.166459 -6.69833,-3.275648 -6.69832,-1.52864 -6.69833,2.402147 -6.69832,-5.186447 -6.69833,0.9281 -6.69832,-2.18376 -6.69833,-0.49135 -6.69832,3.33024 -6.69833,1.747016 -6.69832,0.05459 -6.69833,-2.402136 -6.69832,3.439425 -6.69833,-1.910795 -6.69832,-2.89349 -6.69833,0.87351 -6.69832,3.330239 -6.69833,0.709724 -6.69833,-2.402143 -6.69832,-2.12917 -6.69833,-0.43675 -6.69832,5.732381 -6.69832,-0.491347 -6.69833,-2.238354 -6.69833,-1.63783 -6.69832,-0.27297 -6.69833,2.12917 -6.69832,-3.7124 -6.69833,1.31026 -6.69832,0.43676 -6.69833,3.166452 -6.69832,-5.950752 -6.69833,2.67511 -6.69832,0.8735 -6.69833,-5.40482 -6.69832,2.67512 -6.69833,-0.49135 -6.69832,2.18377 -6.69833,-3.33025 -6.69832,0.38216 -6.69833,1.74701 -6.69832,-1.41944 -6.69833,-1.69242 -6.69832,-6.87886 -6.69833,1.74701 -6.69832,0.27297 -6.69833,-2.7843 -6.69832,4.58591 -6.69833,-1.36485 -6.69832,2.7843 -6.69833,-4.85888 -6.69832,-0.54594 -6.69833,1.36485 -6.69832,-11.1372 -6.69833,1.14647 -6.69832,4.58591 -6.69833,-5.02266 -6.69832,-0.65513 -6.69833,-12.28368 -6.69832,11.51936 -6.69833,-0.60053 -6.69832,-4.09456 -6.69833,-3.22105 -6.69832,-5.73239 -6.69833,-34.33971 -6.69833,10.75505 -6.69832,7.86155 -6.69833,-7.3702 -6.69832,0.70972 -6.69832,11.79233 -6.69833,-8.68047 -6.69833,-9.66316 -6.69832,13.9761 -6.69833,9.11722 -6.69832,10.97342 -6.69833,25.1133 -6.69832,18.725781 z"
               inkscape:connector-curvature="0" />
          </defs>
          <g
             id="g10507"
             clip-path="url(#pb258ef3e71)"
             style="stroke-linecap:butt;stroke-linejoin:round">
            <use
               id="use10509"
               y="720"
               xlink:href="#mb6cc4fa51f"
               x="0"
               style="fill:#0072b2;stroke:#0072b2;stroke-width:0.30000001;stroke-linecap:butt;stroke-linejoin:round"
               width="100%"
               height="100%" />
          </g>
        </g>
        <g
           id="PolyCollection_7"
           style="stroke-linecap:butt;stroke-linejoin:round"
           transform="translate(0,33.807213)">
          <defs
             id="defs10512">
            <path
               style="stroke:#d55e00;stroke-width:0.30000001;stroke-linecap:butt;stroke-linejoin:round"
               id="m891c7d769b"
               d="m 136.57671,-89.175455 0,0 6.69832,-18.725785 6.69833,-25.1133 6.69832,-10.97342 6.69833,-9.11722 6.69832,-13.9761 6.69833,9.66316 6.69833,8.68047 6.69832,-11.79233 6.69832,-0.70972 6.69833,7.3702 6.69832,-7.86155 6.69833,-10.75505 6.69833,34.33971 6.69832,5.73239 6.69833,3.22105 6.69832,4.09456 6.69833,0.60053 6.69832,-11.51936 6.69833,12.28368 6.69832,0.65513 6.69833,5.02266 6.69832,-4.58591 6.69833,-1.14647 6.69832,11.1372 6.69833,-1.36485 6.69832,0.54594 6.69833,4.85888 6.69832,-2.7843 6.69833,1.36485 6.69832,-4.58591 6.69833,2.7843 6.69832,-0.27297 6.69833,-1.74701 6.69832,6.87886 6.69833,1.69242 6.69832,1.41944 6.69833,-1.74701 6.69832,-0.38216 6.69833,3.33025 6.69832,-2.18377 6.69833,0.49135 6.69832,-2.67512 6.69833,5.40482 6.69832,-0.8735 6.69833,-2.67511 6.69832,5.950756 6.69833,-3.166456 6.69832,-0.43676 6.69833,-1.31026 6.69832,3.7124 6.69833,-2.12917 6.69832,0.27297 6.69833,1.63783 6.69833,2.238358 6.69832,0.491347 6.69832,-5.732385 6.69833,0.43675 6.69832,2.12917 6.69833,2.402147 6.69833,-0.709724 6.69832,-3.330243 6.69833,-0.87351 6.69832,2.89349 6.69833,1.910799 6.69832,-3.439429 6.69833,2.40214 6.69832,-0.05459 6.69833,-1.74702 6.69832,-3.33024 6.69833,0.49135 6.69832,2.18376 6.69833,-0.9281 6.69832,5.186451 6.69833,-2.402151 6.69832,1.528644 6.69833,3.275648 6.69832,-3.166459 6.69833,0.764318 6.69832,1.146476 6.69833,0.109189 6.69832,-2.183766 6.69833,0.709724 6.69832,-0.709724 6.69833,-0.109188 6.69832,-0.382159 6.69833,1.58323 6.69832,1.419447 6.69833,0.818912 6.69832,-1.255665 6.69833,1.146477 6.69832,-2.565924 6.69833,1.8562 6.69832,-1.419447 6.69833,2.347547 6.69832,-1.692418 6.69833,-1.692418 6.69832,-6.114544 6.69833,6.114544 6.69832,3.548619 0,-6.114543 0,0 -6.69832,-10.59126 -6.69833,-7.20643 -6.69832,8.62587 -6.69833,2.07458 -6.69832,2.94808 -6.69833,-6.66048 -6.69832,2.89349 -6.69833,1.31026 -6.69832,0.10919 -6.69833,0.16378 -6.69832,2.62052 -6.69833,-3.16646 -6.69832,-1.80161 -6.69833,-1.31026 -6.69832,2.72971 -6.69833,-1.9108 -6.69832,0.27297 -6.69833,-1.74701 -6.69832,3.00268 -6.69833,-0.10919 -6.69832,0.49135 -6.69833,-1.74701 -6.69832,7.4248 -6.69833,-5.89617 -6.69832,-3.38483 -6.69833,3.43943 -6.69832,-12.72044 -6.69833,2.94809 -6.69832,-2.67512 -6.69833,-3.6578 -6.69832,8.78965 -6.69833,3.54862 -6.69832,-0.76432 -6.69833,-1.36485 -6.69832,4.53131 -6.69833,-2.18376 -6.69832,-4.74969 -6.69833,3.22105 -6.69832,1.74701 -6.69833,4.85888 -6.69833,-6.93345 -6.69832,-2.56593 -6.69833,-2.7843 -6.69832,12.88422 -6.69832,-3.16646 -6.69833,-2.56593 -6.69833,-3.22105 -6.69832,1.74701 -6.69833,2.34755 -6.69832,-7.15183 -6.69833,2.07457 -6.69832,-0.76431 -6.69833,6.00535 -6.69832,-6.11454 -6.69833,-1.80161 -6.69832,6.00536 -6.69833,-11.68315 -6.69832,3.87619 -6.69833,0.60053 -6.69832,4.85888 -6.69833,-7.86156 -6.69832,-1.36485 -6.69833,6.66049 -6.69832,-2.40215 -6.69833,-2.12917 -6.69832,-8.89884 -6.69833,0.0546 -6.69832,2.56593 -6.69833,-5.29563 -6.69832,8.02533 -6.69833,-5.67779 -6.69832,3.71241 -6.69833,-1.63783 -6.69832,-1.47404 -6.69833,-3.76699 -6.69832,-9.77235 -6.69833,0.16378 -6.69832,0.43675 -6.69833,-7.75236 -6.69832,-0.54595 -6.69833,-12.28368 -6.69832,5.84158 -6.69833,2.7297 -6.69832,-10.53666 -6.69833,-4.31294 -6.69832,-5.5686 -6.69833,-35.97753 -6.69833,3.60321 -6.69832,9.77235 -6.69833,-9.88154 -6.69832,2.7843 -6.69832,3.82159 -6.69833,-0.54594 -6.69833,-13.26637 -6.69832,14.68582 -6.69833,14.52204 -6.69832,22.92953 -6.69833,46.5142 -6.69832,28.661919 z"
               inkscape:connector-curvature="0" />
          </defs>
          <g
             id="g10515"
             clip-path="url(#pb258ef3e71)"
             style="stroke-linecap:butt;stroke-linejoin:round">
            <use
               id="use10517"
               y="720"
               xlink:href="#m891c7d769b"
               x="0"
               style="fill:#d55e00;stroke:#d55e00;stroke-width:0.30000001;stroke-linecap:butt;stroke-linejoin:round"
               width="100%"
               height="100%" />
          </g>
        </g>
        <g
           id="PolyCollection_8"
           style="stroke-linecap:butt;stroke-linejoin:round"
           transform="translate(0,33.807213)">
          <defs
             id="defs10520">
            <path
               style="stroke:#009e73;stroke-width:0.30000001;stroke-linecap:butt;stroke-linejoin:round"
               id="m8a9d6d6554"
               d="m 136.57671,-89.175455 0,0 6.69832,-28.661915 6.69833,-46.5142 6.69832,-22.92953 6.69833,-14.52204 6.69832,-14.68582 6.69833,13.26637 6.69833,0.54594 6.69832,-3.82159 6.69832,-2.7843 6.69833,9.88154 6.69832,-9.77235 6.69833,-3.60321 6.69833,35.97753 6.69832,5.5686 6.69833,4.31294 6.69832,10.53666 6.69833,-2.7297 6.69832,-5.84158 6.69833,12.28368 6.69832,0.54595 6.69833,7.75236 6.69832,-0.43675 6.69833,-0.16378 6.69832,9.77235 6.69833,3.76699 6.69832,1.47404 6.69833,1.63783 6.69832,-3.71241 6.69833,5.67779 6.69832,-8.02533 6.69833,5.29563 6.69832,-2.56593 6.69833,-0.0546 6.69832,8.89884 6.69833,2.12917 6.69832,2.40215 6.69833,-6.66049 6.69832,1.36485 6.69833,7.86156 6.69832,-4.85888 6.69833,-0.60053 6.69832,-3.87619 6.69833,11.68315 6.69832,-6.00536 6.69833,1.80161 6.69832,6.11454 6.69833,-6.00535 6.69832,0.76431 6.69833,-2.07457 6.69832,7.15183 6.69833,-2.34755 6.69832,-1.74701 6.69833,3.22105 6.69833,2.56593 6.69832,3.16646 6.69832,-12.88422 6.69833,2.7843 6.69832,2.56593 6.69833,6.93345 6.69833,-4.85888 6.69832,-1.74701 6.69833,-3.22105 6.69832,4.74969 6.69833,2.18376 6.69832,-4.53131 6.69833,1.36485 6.69832,0.76432 6.69833,-3.54862 6.69832,-8.78965 6.69833,3.6578 6.69832,2.67512 6.69833,-2.94809 6.69832,12.72044 6.69833,-3.43943 6.69832,3.38483 6.69833,5.89617 6.69832,-7.4248 6.69833,1.74701 6.69832,-0.49135 6.69833,0.10919 6.69832,-3.00268 6.69833,1.74701 6.69832,-0.27297 6.69833,1.9108 6.69832,-2.72971 6.69833,1.31026 6.69832,1.80161 6.69833,3.16646 6.69832,-2.62052 6.69833,-0.16378 6.69832,-0.10919 6.69833,-1.31026 6.69832,-2.89349 6.69833,6.66048 6.69832,-2.94808 6.69833,-2.07458 6.69832,-8.62587 6.69833,7.20643 6.69832,10.59126 0,-5.51401 0,0 -6.69832,-20.63658 -6.69833,-10.48207 -6.69832,9.00803 -6.69833,7.53399 -6.69832,5.62319 -6.69833,-9.77235 -6.69832,0.32757 -6.69833,3.7124 -6.69832,-0.21838 -6.69833,1.9108 -6.69832,1.47404 -6.69833,-5.07726 -6.69832,0.49135 -6.69833,-5.78698 -6.69832,5.45942 -6.69833,-2.34755 -6.69832,-1.8562 -6.69833,-1.14648 -6.69832,2.40214 -6.69833,0.54594 -6.69832,0.21838 -6.69833,-3.16646 -6.69832,15.39555 -6.69833,-9.66317 -6.69832,-3.60321 -6.69833,4.58591 -6.69832,-18.562 -6.69833,6.60589 -6.69832,-4.20375 -6.69833,-5.84157 -6.69832,12.66583 -6.69833,2.56593 -6.69832,1.91079 -6.69833,-0.10919 -6.69832,2.12917 -6.69833,-1.09188 -6.69832,-8.18912 -6.69833,4.58591 -6.69832,1.63782 -6.69833,7.91615 -6.69833,-11.46476 -6.69832,1.03728 -6.69833,-6.27832 -6.69832,20.4728 -6.69832,-5.51401 -6.69833,-1.41945 -6.69833,-11.62855 -6.69832,4.42213 -6.69833,4.74969 -6.69832,-4.42213 -6.69833,-1.14647 -6.69832,-1.74702 -6.69833,6.33292 -6.69832,-6.55129 -6.69833,-0.10919 -6.69832,1.8562 -6.69833,-11.73774 -6.69832,6.33292 -6.69833,-2.56592 -6.69832,6.98805 -6.69833,-10.2637 -6.69832,-0.21838 -6.69833,10.80964 -6.69832,-9.00803 -6.69833,3.98537 -6.69832,-11.84693 -6.69833,0.16379 -6.69832,4.5859 -6.69833,-6.11454 -6.69832,9.71776 -6.69833,-11.41018 -6.69832,5.07726 -6.69833,0.27297 -6.69832,-0.49135 -6.69833,-6.98805 -6.69832,-8.40749 -6.69833,-1.74702 -6.69832,-0.49134 -6.69833,-9.60857 -6.69832,-3.22105 -6.69833,-12.39287 -6.69832,-3.27565 -6.69833,9.93613 -6.69832,-13.15718 -6.69833,-8.73506 -6.69832,-4.09456 -6.69833,-37.06942 -6.69833,3.60322 -6.69832,1.25566 -6.69833,-7.26102 -6.69832,1.36486 -6.69832,3.38483 -6.69833,2.40214 -6.69833,-15.23176 -6.69832,17.74309 -6.69833,14.03069 -6.69832,37.34239 -6.69833,64.53026 -6.69832,34.066735 z"
               inkscape:connector-curvature="0" />
          </defs>
          <g
             id="g10523"
             clip-path="url(#pb258ef3e71)"
             style="stroke-linecap:butt;stroke-linejoin:round">
            <use
               id="use10525"
               y="720"
               xlink:href="#m8a9d6d6554"
               x="0"
               style="fill:#009e73;stroke:#009e73;stroke-width:0.30000001;stroke-linecap:butt;stroke-linejoin:round"
               width="100%"
               height="100%" />
          </g>
        </g>
        <g
           id="PolyCollection_9"
           style="stroke-linecap:butt;stroke-linejoin:round"
           transform="translate(0,33.807213)">
          <defs
             id="defs10528">
            <path
               style="stroke:#f0e442;stroke-width:0.30000001;stroke-linecap:butt;stroke-linejoin:round"
               id="me47bfe16e8"
               d="m 136.57671,-89.175455 0,0 6.69832,-34.066735 6.69833,-64.53026 6.69832,-37.34239 6.69833,-14.03069 6.69832,-17.74309 6.69833,15.23176 6.69833,-2.40214 6.69832,-3.38483 6.69832,-1.36486 6.69833,7.26102 6.69832,-1.25566 6.69833,-3.60322 6.69833,37.06942 6.69832,4.09456 6.69833,8.73506 6.69832,13.15718 6.69833,-9.93613 6.69832,3.27565 6.69833,12.39287 6.69832,3.22105 6.69833,9.60857 6.69832,0.49134 6.69833,1.74702 6.69832,8.40749 6.69833,6.98805 6.69832,0.49135 6.69833,-0.27297 6.69832,-5.07726 6.69833,11.41018 6.69832,-9.71776 6.69833,6.11454 6.69832,-4.5859 6.69833,-0.16379 6.69832,11.84693 6.69833,-3.98537 6.69832,9.00803 6.69833,-10.80964 6.69832,0.21838 6.69833,10.2637 6.69832,-6.98805 6.69833,2.56592 6.69832,-6.33292 6.69833,11.73774 6.69832,-1.8562 6.69833,0.10919 6.69832,6.55129 6.69833,-6.33292 6.69832,1.74702 6.69833,1.14647 6.69832,4.42213 6.69833,-4.74969 6.69832,-4.42213 6.69833,11.62855 6.69833,1.41945 6.69832,5.51401 6.69832,-20.4728 6.69833,6.27832 6.69832,-1.03728 6.69833,11.46476 6.69833,-7.91615 6.69832,-1.63782 6.69833,-4.58591 6.69832,8.18912 6.69833,1.09188 6.69832,-2.12917 6.69833,0.10919 6.69832,-1.91079 6.69833,-2.56593 6.69832,-12.66583 6.69833,5.84157 6.69832,4.20375 6.69833,-6.60589 6.69832,18.562 6.69833,-4.58591 6.69832,3.60321 6.69833,9.66317 6.69832,-15.39555 6.69833,3.16646 6.69832,-0.21838 6.69833,-0.54594 6.69832,-2.40214 6.69833,1.14648 6.69832,1.8562 6.69833,2.34755 6.69832,-5.45942 6.69833,5.78698 6.69832,-0.49135 6.69833,5.07726 6.69832,-1.47404 6.69833,-1.9108 6.69832,0.21838 6.69833,-3.7124 6.69832,-0.32757 6.69833,9.77235 6.69832,-5.62319 6.69833,-7.53399 6.69832,-9.00803 6.69833,10.48207 6.69832,20.63658 0,-5.13185 0,0 -6.69832,-32.26513 -6.69833,-11.46477 -6.69832,7.91615 -6.69833,14.08529 -6.69832,6.4421 -6.69833,-10.48207 -6.69832,-6.33292 -6.69833,9.06263 -6.69832,-3.38484 -6.69833,-1.41944 -6.69832,4.25834 -6.69833,-1.14648 -6.69832,-2.51133 -6.69833,-8.3529 -6.69832,4.42212 -6.69833,-5.45941 -6.69832,-4.85888 -6.69833,1.41945 -6.69832,-0.27297 -6.69833,6.4967 -6.69832,-4.47672 -6.69833,-5.29563 -6.69832,22.82035 -6.69833,-11.73774 -6.69832,-0.21838 -6.69833,-0.16378 -6.69832,-15.06798 -6.69833,5.13185 -6.69832,0.10919 -6.69833,-8.13453 -6.69832,15.55933 -6.69833,3.93078 -6.69832,-3.82159 -6.69833,4.85888 -6.69832,1.14647 -6.69833,0.32757 -6.69832,-23.58467 -6.69833,15.50474 -6.69832,-4.6951 -6.69833,5.51401 -6.69833,-3.00268 -6.69832,5.73238 -6.69833,-8.40749 -6.69832,19.76307 -6.69832,-5.95076 -6.69833,1.20107 -6.69833,-21.3463 -6.69832,8.62587 -6.69833,4.03997 -6.69832,-1.31026 -6.69833,0.54594 -6.69832,-5.84157 -6.69833,5.73238 -6.69832,-4.91347 -6.69833,4.58591 -6.69832,-7.04265 -6.69833,-10.97342 -6.69832,8.95344 -6.69833,0.76432 -6.69832,7.4794 -6.69833,-10.3183 -6.69832,-0.76431 -6.69833,11.02801 -6.69832,-9.71776 -6.69833,6.98805 -6.69832,-13.9215 -6.69833,-5.62319 -6.69832,9.77235 -6.69833,-7.64318 -6.69832,14.24906 -6.69833,-18.88956 -6.69832,3.11186 -6.69833,4.14916 -6.69832,3.27564 -6.69833,-9.39019 -6.69832,-6.05995 -6.69833,-4.14915 -6.69832,-1.80161 -6.69833,-12.0107 -6.69832,-11.46477 -6.69833,-8.89884 -6.69832,-7.15184 -6.69833,9.93614 -6.69832,-13.21178 -6.69833,-11.30099 -6.69832,-10.86423 -6.69833,-26.25978 -6.69833,3.65781 -6.69832,-6.22373 -6.69833,-13.048 -6.69832,13.21178 -6.69832,-4.20374 -6.69833,-2.62052 -6.69833,-6.71508 -6.69832,20.36361 -6.69833,16.92418 -6.69832,47.55149 -6.69833,79.76202 -6.69832,38.707235 z"
               inkscape:connector-curvature="0" />
          </defs>
          <g
             id="g10531"
             clip-path="url(#pb258ef3e71)"
             style="stroke-linecap:butt;stroke-linejoin:round">
            <use
               id="use10533"
               y="720"
               xlink:href="#me47bfe16e8"
               x="0"
               style="fill:#f0e442;stroke:#f0e442;stroke-width:0.30000001;stroke-linecap:butt;stroke-linejoin:round"
               width="100%"
               height="100%" />
          </g>
        </g>
        <g
           id="PolyCollection_10"
           style="stroke-linecap:butt;stroke-linejoin:round"
           transform="translate(0,33.807213)">
          <defs
             id="defs10536">
            <path
               style="stroke:#cc79a7;stroke-width:0.30000001;stroke-linecap:butt;stroke-linejoin:round"
               id="m0290548d25"
               d="m 136.57671,-89.175455 0,0 6.69832,-38.707235 6.69833,-79.76202 6.69832,-47.55149 6.69833,-16.92418 6.69832,-20.36361 6.69833,6.71508 6.69833,2.62052 6.69832,4.20374 6.69832,-13.21178 6.69833,13.048 6.69832,6.22373 6.69833,-3.65781 6.69833,26.25978 6.69832,10.86423 6.69833,11.30099 6.69832,13.21178 6.69833,-9.93614 6.69832,7.15184 6.69833,8.89884 6.69832,11.46477 6.69833,12.0107 6.69832,1.80161 6.69833,4.14915 6.69832,6.05995 6.69833,9.39019 6.69832,-3.27564 6.69833,-4.14916 6.69832,-3.11186 6.69833,18.88956 6.69832,-14.24906 6.69833,7.64318 6.69832,-9.77235 6.69833,5.62319 6.69832,13.9215 6.69833,-6.98805 6.69832,9.71776 6.69833,-11.02801 6.69832,0.76431 6.69833,10.3183 6.69832,-7.4794 6.69833,-0.76432 6.69832,-8.95344 6.69833,10.97342 6.69832,7.04265 6.69833,-4.58591 6.69832,4.91347 6.69833,-5.73238 6.69832,5.84157 6.69833,-0.54594 6.69832,1.31026 6.69833,-4.03997 6.69832,-8.62587 6.69833,21.3463 6.69833,-1.20107 6.69832,5.95076 6.69832,-19.76307 6.69833,8.40749 6.69832,-5.73238 6.69833,3.00268 6.69833,-5.51401 6.69832,4.6951 6.69833,-15.50474 6.69832,23.58467 6.69833,-0.32757 6.69832,-1.14647 6.69833,-4.85888 6.69832,3.82159 6.69833,-3.93078 6.69832,-15.55933 6.69833,8.13453 6.69832,-0.10919 6.69833,-5.13185 6.69832,15.06798 6.69833,0.16378 6.69832,0.21838 6.69833,11.73774 6.69832,-22.82035 6.69833,5.29563 6.69832,4.47672 6.69833,-6.4967 6.69832,0.27297 6.69833,-1.41945 6.69832,4.85888 6.69833,5.45941 6.69832,-4.42212 6.69833,8.3529 6.69832,2.51133 6.69833,1.14648 6.69832,-4.25834 6.69833,1.41944 6.69832,3.38484 6.69833,-9.06263 6.69832,6.33292 6.69833,10.48207 6.69832,-6.4421 6.69833,-14.08529 6.69832,-7.91615 6.69833,11.46477 6.69832,32.26513 0,-4.47672 0,0 -6.69832,-48.3704 -6.69833,-5.67778 -6.69832,2.56592 -6.69833,22.38359 -6.69832,3.7124 -6.69833,-9.06262 -6.69832,-7.04264 -6.69833,6.22373 -6.69832,-15.8323 -6.69833,7.69777 -6.69832,-0.81891 -6.69833,7.75236 -6.69832,0.38216 -6.69833,-17.52471 -6.69832,-3.54862 -6.69833,-10.59126 -6.69832,-3.22105 -6.69833,3.76699 -6.69832,-2.51133 -6.69833,20.85496 -6.69832,-8.84425 -6.69833,-8.07993 -6.69832,22.98412 -6.69833,-8.89884 -6.69832,-2.29295 -6.69833,-4.20375 -6.69832,-12.77502 -6.69833,-2.94809 -6.69832,-2.62052 -6.69833,7.04265 -6.69832,10.91882 -6.69833,5.6232 -6.69832,-9.17182 -6.69833,6.5513 -6.69832,-1.96539 -6.69833,6.93346 -6.69832,-40.12669 -6.69833,22.92953 -6.69832,-9.77234 -6.69833,15.23176 -6.69833,-4.14916 -6.69832,8.07994 -6.69833,-18.50742 -6.69832,19.76308 -6.69832,-6.05995 -6.69833,9.71776 -6.69833,-26.86031 -6.69832,9.99072 -6.69833,0.9281 -6.69832,1.74701 -6.69833,8.73506 -6.69832,-6.38751 -6.69833,-14.8496 -6.69832,-0.32757 -6.69833,11.02802 -6.69832,-9.28101 -6.69833,-21.56468 -6.69832,24.78574 -6.69833,10.26369 -6.69832,2.89349 -6.69833,-18.45281 -6.69832,12.88421 -6.69833,8.02534 -6.69832,-6.71508 -6.69833,2.56593 -6.69832,-9.28101 -6.69833,-11.0826 -6.69832,9.77234 -6.69833,-5.13184 -6.69832,4.85887 -6.69833,-12.72043 -6.69832,5.40482 -6.69833,9.3356 -6.69832,7.75236 -6.69833,-15.50473 -6.69832,-2.51133 -6.69833,-7.4794 -6.69832,-3.43943 -6.69833,-20.69117 -6.69832,-25.38627 -6.69833,-10.97342 -6.69832,-0.70973 -6.69833,6.33292 -6.69832,-8.46209 -6.69833,-20.74576 -6.69832,-16.43284 -6.69833,2.34755 -6.69833,-7.86155 -6.69832,-23.74845 -6.69833,-17.25174 -6.69832,27.13328 -6.69832,-19.70848 -6.69833,-3.38484 -6.69833,-3.65781 -6.69832,23.2571 -6.69833,26.25978 -6.69832,65.23998 -6.69833,105.96721 -6.69832,44.002865 z"
               inkscape:connector-curvature="0" />
          </defs>
          <g
             id="g10539"
             clip-path="url(#pb258ef3e71)"
             style="stroke-linecap:butt;stroke-linejoin:round">
            <use
               id="use10541"
               y="720"
               xlink:href="#m0290548d25"
               x="0"
               style="fill:#cc79a7;stroke:#cc79a7;stroke-width:0.30000001;stroke-linecap:butt;stroke-linejoin:round"
               width="100%"
               height="100%" />
          </g>
        </g>
        <g
           id="patch_8"
           style="stroke-linecap:butt;stroke-linejoin:round"
           transform="translate(0,33.807213)">
          <path
             id="path10544"
             style="fill:none;stroke:#262626;stroke-width:1.25;stroke-linecap:square;stroke-linejoin:miter"
             d="m 103.42,644.08 0,-291.62"
             inkscape:connector-curvature="0" />
        </g>
        <g
           id="patch_9"
           style="stroke-linecap:butt;stroke-linejoin:round"
           transform="translate(0,33.807213)">
          <path
             id="path10547"
             style="fill:none;stroke:#262626;stroke-width:1.25;stroke-linecap:square;stroke-linejoin:miter"
             d="m 832.8676,644.08 0,-291.62"
             inkscape:connector-curvature="0" />
        </g>
        <g
           id="patch_10"
           style="stroke-linecap:butt;stroke-linejoin:round"
           transform="translate(0,33.807213)">
          <path
             id="path10550"
             style="fill:none;stroke:#262626;stroke-width:1.25;stroke-linecap:square;stroke-linejoin:miter"
             d="m 103.42,644.08 729.4476,0"
             inkscape:connector-curvature="0" />
        </g>
        <g
           id="patch_11"
           style="stroke-linecap:butt;stroke-linejoin:round"
           transform="translate(0,33.807213)">
          <path
             id="path10553"
             style="fill:none;stroke:#262626;stroke-width:1.25;stroke-linecap:square;stroke-linejoin:miter"
             d="m 103.42,352.46 729.4476,0"
             inkscape:connector-curvature="0" />
        </g>
        <g
           id="legend_1"
           style="stroke-linecap:butt;stroke-linejoin:round">
          <g
             id="text_17"
             style="stroke-linecap:butt;stroke-linejoin:round"
             transform="translate(0,33.807213)">
            <text
               id="text10557"
               y="387.63876"
               x="573.44263"
               style="font-style:normal;font-weight:normal;font-size:24px;font-family:Arial;text-anchor:start;fill:#262626;stroke-linecap:butt;stroke-linejoin:round">No. G-runs Hardcoded</text>
          </g>
          <g
             id="patch_12"
             style="stroke-linecap:butt;stroke-linejoin:round"
             transform="translate(85.818313,33.807213)">
            <path
               id="path10560"
               style="fill:#0072b2;stroke:#0072b2;stroke-width:0.30000001;stroke-linecap:butt;stroke-linejoin:miter"
               d="m 660.59417,416.72437 40,0 0,-14 -40,0 z"
               inkscape:connector-curvature="0" />
          </g>
          <g
             id="text_18"
             style="stroke-linecap:butt;stroke-linejoin:round"
             transform="translate(85.818313,33.807213)">
            <text
               id="text10563"
               y="416.72437"
               x="716.59418"
               style="font-style:normal;font-weight:normal;font-size:20px;font-family:Arial;text-anchor:start;fill:#262626;stroke-linecap:butt;stroke-linejoin:round">0</text>
          </g>
          <g
             id="patch_13"
             style="stroke-linecap:butt;stroke-linejoin:round"
             transform="translate(85.818313,33.807213)">
            <path
               id="path10566"
               style="fill:#d55e00;stroke:#d55e00;stroke-width:0.30000001;stroke-linecap:butt;stroke-linejoin:miter"
               d="m 660.59417,445.015 40,0 0,-14 -40,0 z"
               inkscape:connector-curvature="0" />
          </g>
          <g
             id="text_19"
             style="stroke-linecap:butt;stroke-linejoin:round"
             transform="translate(85.818313,33.807213)">
            <text
               id="text10569"
               y="445.01501"
               x="716.59418"
               style="font-style:normal;font-weight:normal;font-size:20px;font-family:Arial;text-anchor:start;fill:#262626;stroke-linecap:butt;stroke-linejoin:round">1</text>
          </g>
          <g
             id="patch_14"
             style="stroke-linecap:butt;stroke-linejoin:round"
             transform="translate(85.818313,33.807213)">
            <path
               id="path10572"
               style="fill:#009e73;stroke:#009e73;stroke-width:0.30000001;stroke-linecap:butt;stroke-linejoin:miter"
               d="m 660.59417,473.30563 40,0 0,-14 -40,0 z"
               inkscape:connector-curvature="0" />
          </g>
          <g
             id="text_20"
             style="stroke-linecap:butt;stroke-linejoin:round"
             transform="translate(85.818313,33.807213)">
            <text
               id="text10575"
               y="473.30563"
               x="716.59418"
               style="font-style:normal;font-weight:normal;font-size:20px;font-family:Arial;text-anchor:start;fill:#262626;stroke-linecap:butt;stroke-linejoin:round">2</text>
          </g>
          <g
             id="patch_15"
             style="stroke-linecap:butt;stroke-linejoin:round"
             transform="translate(85.818313,33.807213)">
            <path
               id="path10578"
               style="fill:#f0e442;stroke:#f0e442;stroke-width:0.30000001;stroke-linecap:butt;stroke-linejoin:miter"
               d="m 660.59417,501.59625 40,0 0,-14 -40,0 z"
               inkscape:connector-curvature="0" />
          </g>
          <g
             id="text_21"
             style="stroke-linecap:butt;stroke-linejoin:round"
             transform="translate(85.818313,33.807213)">
            <text
               id="text10581"
               y="501.59625"
               x="716.59418"
               style="font-style:normal;font-weight:normal;font-size:20px;font-family:Arial;text-anchor:start;fill:#262626;stroke-linecap:butt;stroke-linejoin:round">3</text>
          </g>
          <g
             id="patch_16"
             style="stroke-linecap:butt;stroke-linejoin:round"
             transform="translate(85.818313,33.807213)">
            <path
               id="path10584"
               style="fill:#cc79a7;stroke:#cc79a7;stroke-width:0.30000001;stroke-linecap:butt;stroke-linejoin:miter"
               d="m 660.59417,529.88688 40,0 0,-14 -40,0 z"
               inkscape:connector-curvature="0" />
          </g>
          <g
             id="text_22"
             style="stroke-linecap:butt;stroke-linejoin:round"
             transform="translate(85.818313,33.807213)">
            <text
               id="text10587"
               y="529.8869"
               x="716.59418"
               style="font-style:normal;font-weight:normal;font-size:20px;font-family:Arial;text-anchor:start;fill:#262626;stroke-linecap:butt;stroke-linejoin:round">4</text>
          </g>
          <text
             xml:space="preserve"
             style="font-style:normal;font-variant:normal;font-weight:normal;font-stretch:normal;font-size:39.00831985px;line-height:125%;font-family:Arial;-inkscape-font-specification:'Arial, Normal';text-align:start;letter-spacing:0px;word-spacing:0px;writing-mode:lr-tb;text-anchor:start;fill:#000000;fill-opacity:1;stroke:none;stroke-width:1px;stroke-linecap:butt;stroke-linejoin:miter;stroke-opacity:1"
             x="-8.6977482"
             y="17.564405"
             id="text10806"
             sodipodi:linespacing="125%"><tspan
               sodipodi:role="line"
               id="tspan10808"
               style="stroke-linecap:butt;stroke-linejoin:round"
               x="-8.6977482"
               y="17.564405">a</tspan></text>
          <text
             sodipodi:linespacing="125%"
             id="text10810"
             y="376.44095"
             x="-8.6977482"
             style="font-style:normal;font-variant:normal;font-weight:normal;font-stretch:normal;font-size:39.00831985px;line-height:125%;font-family:Arial;-inkscape-font-specification:'Arial, Normal';text-align:start;letter-spacing:0px;word-spacing:0px;writing-mode:lr-tb;text-anchor:start;fill:#000000;fill-opacity:1;stroke:none;stroke-width:1px;stroke-linecap:butt;stroke-linejoin:miter;stroke-opacity:1"
             xml:space="preserve"><tspan
               y="376.44095"
               x="-8.6977482"
               style="stroke-linecap:butt;stroke-linejoin:round"
               id="tspan10812"
               sodipodi:role="line">b</tspan></text>
        </g>
      </g>
    </g>
  </g>
</svg>
