<?xml version="1.0" encoding="utf-8" standalone="no"?>
<!DOCTYPE svg PUBLIC "-//W3C//DTD SVG 1.1//EN"
  "http://www.w3.org/Graphics/SVG/1.1/DTD/svg11.dtd">
<!-- Created with matplotlib (http://matplotlib.org/) -->
<svg height="360pt" version="1.1" viewBox="0 0 720 360" width="720pt" xmlns="http://www.w3.org/2000/svg" xmlns:xlink="http://www.w3.org/1999/xlink">
 <defs>
  <style type="text/css">
*{stroke-linecap:butt;stroke-linejoin:round;}
  </style>
 </defs>
 <g id="figure_1">
  <g id="patch_1">
   <path d="M 0 360 
L 720 360 
L 720 0 
L 0 0 
z
" style="fill:#ffffff;"/>
  </g>
  <g id="axes_1">
   <g id="patch_2">
    <path d="M 90 315 
L 343.636364 315 
L 343.636364 43.2 
L 90 43.2 
z
" style="fill:#ffffff;"/>
   </g>
   <g id="matplotlib.axis_1">
    <g id="xtick_1">
     <g id="line2d_1">
      <defs>
       <path d="M 0 0 
L 0 2 
" id="m4a4dd4c902" style="stroke:#262626;"/>
      </defs>
      <g>
       <use style="fill:#262626;stroke:#262626;" x="174.545455" xlink:href="#m4a4dd4c902" y="315"/>
      </g>
     </g>
     <g id="text_1">
      <text style="fill:#262626;font-family:Arial;font-size:20px;font-style:normal;font-weight:normal;text-anchor:middle;" transform="rotate(-0, 174.545455, 338.315625)" x="174.545455" y="338.315625">0</text>
     </g>
    </g>
    <g id="xtick_2">
     <g id="line2d_2">
      <g>
       <use style="fill:#262626;stroke:#262626;" x="280.227273" xlink:href="#m4a4dd4c902" y="315"/>
      </g>
     </g>
     <g id="text_2">
      <text style="fill:#262626;font-family:Arial;font-size:20px;font-style:normal;font-weight:normal;text-anchor:middle;" transform="rotate(-0, 280.227273, 338.315625)" x="280.227273" y="338.315625">5</text>
     </g>
    </g>
    <g id="text_3">
     <text style="fill:#262626;font-family:Arial;font-size:22px;font-style:normal;font-weight:normal;text-anchor:middle;" transform="rotate(-0, 216.818182, 362.319687)" x="216.818182" y="362.319687">Log2 GRO / RNAseq reads</text>
    </g>
   </g>
   <g id="matplotlib.axis_2">
    <g id="ytick_1">
     <g id="line2d_3">
      <defs>
       <path d="M 0 0 
L -2 0 
" id="m0ee78a5a18" style="stroke:#262626;"/>
      </defs>
      <g>
       <use style="fill:#262626;stroke:#262626;" x="90" xlink:href="#m0ee78a5a18" y="315"/>
      </g>
     </g>
     <g id="text_4">
      <text style="fill:#262626;font-family:Arial;font-size:20px;font-style:normal;font-weight:normal;text-anchor:end;" transform="rotate(-0, 81, 322.157812)" x="81" y="322.157812">0.0</text>
     </g>
    </g>
    <g id="ytick_2">
     <g id="line2d_4">
      <g>
       <use style="fill:#262626;stroke:#262626;" x="90" xlink:href="#m0ee78a5a18" y="240.390205"/>
      </g>
     </g>
     <g id="text_5">
      <text style="fill:#262626;font-family:Arial;font-size:20px;font-style:normal;font-weight:normal;text-anchor:end;" transform="rotate(-0, 81, 247.548018)" x="81" y="247.548018">0.1</text>
     </g>
    </g>
    <g id="ytick_3">
     <g id="line2d_5">
      <g>
       <use style="fill:#262626;stroke:#262626;" x="90" xlink:href="#m0ee78a5a18" y="165.78041"/>
      </g>
     </g>
     <g id="text_6">
      <text style="fill:#262626;font-family:Arial;font-size:20px;font-style:normal;font-weight:normal;text-anchor:end;" transform="rotate(-0, 81, 172.938223)" x="81" y="172.938223">0.2</text>
     </g>
    </g>
    <g id="ytick_4">
     <g id="line2d_6">
      <g>
       <use style="fill:#262626;stroke:#262626;" x="90" xlink:href="#m0ee78a5a18" y="91.170615"/>
      </g>
     </g>
     <g id="text_7">
      <text style="fill:#262626;font-family:Arial;font-size:20px;font-style:normal;font-weight:normal;text-anchor:end;" transform="rotate(-0, 81, 98.328428)" x="81" y="98.328428">0.3</text>
     </g>
    </g>
    <g id="text_8">
     <text style="fill:#262626;font-family:Arial;font-size:22px;font-style:normal;font-weight:normal;text-anchor:middle;" transform="rotate(-90, 44.569688, 179.1)" x="44.569688" y="179.1">Density</text>
    </g>
   </g>
   <g id="patch_3">
    <path clip-path="url(#p84da32e712)" d="M 47.727273 315 
L 65.844156 315 
L 65.844156 314.24273 
L 47.727273 314.24273 
z
" style="fill:#0072b2;opacity:0.4;"/>
   </g>
   <g id="patch_4">
    <path clip-path="url(#p84da32e712)" d="M 65.844156 315 
L 83.961039 315 
L 83.961039 312.865875 
L 65.844156 312.865875 
z
" style="fill:#0072b2;opacity:0.4;"/>
   </g>
   <g id="patch_5">
    <path clip-path="url(#p84da32e712)" d="M 83.961039 315 
L 102.077922 315 
L 102.077922 308.115726 
L 83.961039 308.115726 
z
" style="fill:#0072b2;opacity:0.4;"/>
   </g>
   <g id="patch_6">
    <path clip-path="url(#p84da32e712)" d="M 102.077922 315 
L 120.194805 315 
L 120.194805 289.11513 
L 102.077922 289.11513 
z
" style="fill:#0072b2;opacity:0.4;"/>
   </g>
   <g id="patch_7">
    <path clip-path="url(#p84da32e712)" d="M 120.194805 315 
L 138.311688 315 
L 138.311688 245.537675 
L 120.194805 245.537675 
z
" style="fill:#0072b2;opacity:0.4;"/>
   </g>
   <g id="patch_8">
    <path clip-path="url(#p84da32e712)" d="M 138.311688 315 
L 156.428571 315 
L 156.428571 178.82906 
L 138.311688 178.82906 
z
" style="fill:#0072b2;opacity:0.4;"/>
   </g>
   <g id="patch_9">
    <path clip-path="url(#p84da32e712)" d="M 156.428571 315 
L 174.545455 315 
L 174.545455 119.417775 
L 156.428571 119.417775 
z
" style="fill:#0072b2;opacity:0.4;"/>
   </g>
   <g id="patch_10">
    <path clip-path="url(#p84da32e712)" d="M 174.545455 315 
L 192.662338 315 
L 192.662338 132.979795 
L 174.545455 132.979795 
z
" style="fill:#0072b2;opacity:0.4;"/>
   </g>
   <g id="patch_11">
    <path clip-path="url(#p84da32e712)" d="M 192.662338 315 
L 210.779221 315 
L 210.779221 215.453398 
L 192.662338 215.453398 
z
" style="fill:#0072b2;opacity:0.4;"/>
   </g>
   <g id="patch_12">
    <path clip-path="url(#p84da32e712)" d="M 210.779221 315 
L 228.896104 315 
L 228.896104 254.005332 
L 210.779221 254.005332 
z
" style="fill:#0072b2;opacity:0.4;"/>
   </g>
   <g id="patch_13">
    <path clip-path="url(#p84da32e712)" d="M 228.896104 315 
L 247.012987 315 
L 247.012987 275.002368 
L 228.896104 275.002368 
z
" style="fill:#0072b2;opacity:0.4;"/>
   </g>
   <g id="patch_14">
    <path clip-path="url(#p84da32e712)" d="M 247.012987 315 
L 265.12987 315 
L 265.12987 290.078928 
L 247.012987 290.078928 
z
" style="fill:#0072b2;opacity:0.4;"/>
   </g>
   <g id="patch_15">
    <path clip-path="url(#p84da32e712)" d="M 265.12987 315 
L 283.246753 315 
L 283.246753 297.995843 
L 265.12987 297.995843 
z
" style="fill:#0072b2;opacity:0.4;"/>
   </g>
   <g id="patch_16">
    <path clip-path="url(#p84da32e712)" d="M 283.246753 315 
L 301.363636 315 
L 301.363636 305.912758 
L 283.246753 305.912758 
z
" style="fill:#0072b2;opacity:0.4;"/>
   </g>
   <g id="patch_17">
    <path clip-path="url(#p84da32e712)" d="M 47.727273 315 
L 65.844156 315 
L 65.844156 315 
L 47.727273 315 
z
" style="fill:#d55e00;opacity:0.4;"/>
   </g>
   <g id="patch_18">
    <path clip-path="url(#p84da32e712)" d="M 65.844156 315 
L 83.961039 315 
L 83.961039 300.78861 
L 65.844156 300.78861 
z
" style="fill:#d55e00;opacity:0.4;"/>
   </g>
   <g id="patch_19">
    <path clip-path="url(#p84da32e712)" d="M 83.961039 315 
L 102.077922 315 
L 102.077922 304.341458 
L 83.961039 304.341458 
z
" style="fill:#d55e00;opacity:0.4;"/>
   </g>
   <g id="patch_20">
    <path clip-path="url(#p84da32e712)" d="M 102.077922 315 
L 120.194805 315 
L 120.194805 283.024374 
L 102.077922 283.024374 
z
" style="fill:#d55e00;opacity:0.4;"/>
   </g>
   <g id="patch_21">
    <path clip-path="url(#p84da32e712)" d="M 120.194805 315 
L 138.311688 315 
L 138.311688 275.918679 
L 120.194805 275.918679 
z
" style="fill:#d55e00;opacity:0.4;"/>
   </g>
   <g id="patch_22">
    <path clip-path="url(#p84da32e712)" d="M 138.311688 315 
L 156.428571 315 
L 156.428571 208.414579 
L 138.311688 208.414579 
z
" style="fill:#d55e00;opacity:0.4;"/>
   </g>
   <g id="patch_23">
    <path clip-path="url(#p84da32e712)" d="M 156.428571 315 
L 174.545455 315 
L 174.545455 69.853531 
L 156.428571 69.853531 
z
" style="fill:#d55e00;opacity:0.4;"/>
   </g>
   <g id="patch_24">
    <path clip-path="url(#p84da32e712)" d="M 174.545455 315 
L 192.662338 315 
L 192.662338 80.512073 
L 174.545455 80.512073 
z
" style="fill:#d55e00;opacity:0.4;"/>
   </g>
   <g id="patch_25">
    <path clip-path="url(#p84da32e712)" d="M 192.662338 315 
L 210.779221 315 
L 210.779221 204.861731 
L 192.662338 204.861731 
z
" style="fill:#d55e00;opacity:0.4;"/>
   </g>
   <g id="patch_26">
    <path clip-path="url(#p84da32e712)" d="M 210.779221 315 
L 228.896104 315 
L 228.896104 283.024374 
L 210.779221 283.024374 
z
" style="fill:#d55e00;opacity:0.4;"/>
   </g>
   <g id="patch_27">
    <path clip-path="url(#p84da32e712)" d="M 228.896104 315 
L 247.012987 315 
L 247.012987 293.682916 
L 228.896104 293.682916 
z
" style="fill:#d55e00;opacity:0.4;"/>
   </g>
   <g id="patch_28">
    <path clip-path="url(#p84da32e712)" d="M 247.012987 315 
L 265.12987 315 
L 265.12987 300.78861 
L 247.012987 300.78861 
z
" style="fill:#d55e00;opacity:0.4;"/>
   </g>
   <g id="patch_29">
    <path clip-path="url(#p84da32e712)" d="M 265.12987 315 
L 283.246753 315 
L 283.246753 311.447153 
L 265.12987 311.447153 
z
" style="fill:#d55e00;opacity:0.4;"/>
   </g>
   <g id="patch_30">
    <path clip-path="url(#p84da32e712)" d="M 283.246753 315 
L 301.363636 315 
L 301.363636 307.894305 
L 283.246753 307.894305 
z
" style="fill:#d55e00;opacity:0.4;"/>
   </g>
   <g id="line2d_7">
    <path clip-path="url(#p84da32e712)" d="M 5.69241 314.999132 
L 21.561337 314.879339 
L 37.430263 314.770855 
L 49.331958 314.372223 
L 53.29919 314.201741 
L 61.233653 314.096128 
L 73.135348 313.183333 
L 77.10258 312.795839 
L 81.069811 312.174452 
L 85.037043 311.323841 
L 89.004275 309.98832 
L 92.971506 307.862111 
L 96.938738 305.009886 
L 100.90597 301.551505 
L 104.873201 297.560733 
L 108.840433 293.041795 
L 112.807664 287.396228 
L 116.774896 279.922723 
L 120.742128 270.617603 
L 124.709359 259.87647 
L 128.676591 247.894495 
L 132.643823 234.649389 
L 144.545518 192.638008 
L 148.512749 177.265742 
L 152.479981 160.607086 
L 156.447213 145.076042 
L 160.414444 132.370536 
L 164.381676 123.236944 
L 168.348907 118.256317 
L 172.316139 116.975985 
L 176.283371 118.976285 
L 180.250602 125.222152 
L 184.217834 137.365263 
L 188.185066 155.551034 
L 192.152297 176.420726 
L 196.119529 195.035923 
L 200.086761 209.659482 
L 204.053992 222.405462 
L 208.021224 234.464084 
L 211.988455 243.965008 
L 215.955687 249.585773 
L 219.922919 253.438909 
L 223.89015 258.467682 
L 227.857382 264.679371 
L 231.824614 270.296691 
L 235.791845 274.473418 
L 247.69354 284.108516 
L 251.660772 287.333117 
L 255.628003 289.925733 
L 259.595235 291.544811 
L 263.562467 292.606541 
L 267.529698 294.067267 
L 271.49693 296.379339 
L 279.431393 302.084208 
L 283.398625 304.359228 
L 287.365857 305.518319 
L 291.333088 305.874888 
L 295.30032 306.078695 
L 299.267551 306.497329 
L 303.234783 307.216956 
L 311.169246 308.944011 
L 319.10371 310.962463 
L 323.070941 311.631131 
L 331.005405 312.30648 
L 342.907099 314.132736 
L 346.874331 314.313119 
L 354.808794 314.166962 
L 358.776026 314.039767 
L 362.743258 314.073586 
L 374.644953 314.835486 
L 382.579416 314.919744 
L 410.350037 314.870557 
L 426.218964 314.999173 
L 509.530828 314.999109 
L 509.530828 314.999109 
" style="fill:none;stroke:#0072b2;stroke-linecap:round;stroke-width:1.75;"/>
   </g>
   <g id="line2d_8">
    <path clip-path="url(#p84da32e712)" d="M 44.666281 314.953684 
L 48.022123 314.880262 
L 51.377965 314.680042 
L 54.733807 314.25873 
L 58.089649 313.517373 
L 61.445491 312.400677 
L 64.801333 310.914607 
L 68.157175 309.095949 
L 78.224701 302.80219 
L 81.580543 301.427631 
L 84.936385 300.753688 
L 88.292227 300.3341 
L 91.648069 299.433143 
L 95.003911 297.607394 
L 101.715595 292.462233 
L 105.071437 290.318894 
L 108.427279 288.713234 
L 111.783121 287.350947 
L 115.138963 285.811537 
L 118.494805 283.671683 
L 121.850647 280.541955 
L 125.206489 276.137146 
L 128.562331 270.328102 
L 131.918173 263.110385 
L 135.274015 254.572575 
L 138.629857 244.857617 
L 141.985699 233.90614 
L 145.341541 220.998453 
L 148.697383 204.627139 
L 152.053225 183.227585 
L 155.409067 156.563364 
L 158.764909 126.795812 
L 162.120751 98.19727 
L 165.476593 75.369612 
L 168.832435 61.19241 
L 172.188277 56.142857 
L 175.544119 59.30149 
L 178.899961 69.666692 
L 182.255803 86.383451 
L 185.611645 108.022412 
L 192.32333 155.860593 
L 195.679172 177.072472 
L 199.035014 195.187021 
L 202.390856 210.994499 
L 209.10254 240.271581 
L 212.458382 254.162611 
L 215.814224 266.29618 
L 219.170066 275.504899 
L 222.525908 281.407319 
L 225.88175 284.711642 
L 229.237592 286.868993 
L 232.593434 289.282623 
L 235.949276 292.564301 
L 239.305118 296.348513 
L 242.66096 299.757275 
L 246.016802 302.080542 
L 249.372644 303.166031 
L 252.728486 303.397163 
L 256.084328 303.440327 
L 259.44017 303.91921 
L 262.796012 305.105477 
L 269.507696 308.439601 
L 272.863538 309.633399 
L 276.21938 310.252927 
L 279.575222 310.413947 
L 282.931064 310.202014 
L 286.286906 309.574068 
L 289.642748 308.513804 
L 292.99859 307.226633 
L 296.354432 306.131634 
L 299.710274 305.640391 
L 303.066116 305.923002 
L 306.421958 306.854336 
L 313.133642 309.481875 
L 316.489484 310.570752 
L 319.845326 311.114768 
L 323.201168 310.919486 
L 326.55701 310.092928 
L 329.912852 309.126763 
L 333.268694 308.672163 
L 336.624537 309.124229 
L 339.980379 310.369047 
L 343.336221 311.916676 
L 346.692063 313.267619 
L 350.047905 314.17848 
L 353.403747 314.670997 
L 356.759589 314.888647 
L 363.471273 314.992279 
L 417.164745 314.995679 
L 423.876429 314.939605 
L 427.232271 314.824208 
L 430.588113 314.567278 
L 433.943955 314.099758 
L 444.011481 312.065896 
L 447.367323 311.906607 
L 450.723165 312.252546 
L 460.790691 314.314617 
L 464.146533 314.694085 
L 467.502375 314.883248 
L 470.858217 314.954143 
L 470.858217 314.954143 
" style="fill:none;stroke:#d55e00;stroke-linecap:round;stroke-width:1.75;"/>
   </g>
   <g id="patch_31">
    <path d="M 90 315 
L 90 43.2 
" style="fill:none;stroke:#262626;stroke-linecap:square;stroke-linejoin:miter;stroke-width:1.25;"/>
   </g>
   <g id="patch_32">
    <path d="M 343.636364 315 
L 343.636364 43.2 
" style="fill:none;stroke:#262626;stroke-linecap:square;stroke-linejoin:miter;stroke-width:1.25;"/>
   </g>
   <g id="patch_33">
    <path d="M 90 315 
L 343.636364 315 
" style="fill:none;stroke:#262626;stroke-linecap:square;stroke-linejoin:miter;stroke-width:1.25;"/>
   </g>
   <g id="patch_34">
    <path d="M 90 43.2 
L 343.636364 43.2 
" style="fill:none;stroke:#262626;stroke-linecap:square;stroke-linejoin:miter;stroke-width:1.25;"/>
   </g>
  </g>
  <g id="axes_2">
   <g id="patch_35">
    <path d="M 394.363636 315 
L 648 315 
L 648 43.2 
L 394.363636 43.2 
z
" style="fill:#ffffff;"/>
   </g>
   <g id="matplotlib.axis_3">
    <g id="xtick_3">
     <g id="line2d_9">
      <g>
       <use style="fill:#262626;stroke:#262626;" x="478.909091" xlink:href="#m4a4dd4c902" y="315"/>
      </g>
     </g>
     <g id="text_9">
      <text style="fill:#262626;font-family:Arial;font-size:20px;font-style:normal;font-weight:normal;text-anchor:middle;" transform="rotate(-0, 478.909091, 338.315625)" x="478.909091" y="338.315625">0</text>
     </g>
    </g>
    <g id="xtick_4">
     <g id="line2d_10">
      <g>
       <use style="fill:#262626;stroke:#262626;" x="584.590909" xlink:href="#m4a4dd4c902" y="315"/>
      </g>
     </g>
     <g id="text_10">
      <text style="fill:#262626;font-family:Arial;font-size:20px;font-style:normal;font-weight:normal;text-anchor:middle;" transform="rotate(-0, 584.590909, 338.315625)" x="584.590909" y="338.315625">5</text>
     </g>
    </g>
    <g id="text_11">
     <text style="fill:#262626;font-family:Arial;font-size:22px;font-style:normal;font-weight:normal;text-anchor:middle;" transform="rotate(-0, 521.181818, 362.319687)" x="521.181818" y="362.319687">Log2 GRO / RNAseq reads</text>
    </g>
   </g>
   <g id="matplotlib.axis_4">
    <g id="ytick_5">
     <g id="line2d_11">
      <g>
       <use style="fill:#262626;stroke:#262626;" x="394.363636" xlink:href="#m0ee78a5a18" y="315"/>
      </g>
     </g>
    </g>
    <g id="ytick_6">
     <g id="line2d_12">
      <g>
       <use style="fill:#262626;stroke:#262626;" x="394.363636" xlink:href="#m0ee78a5a18" y="240.390205"/>
      </g>
     </g>
    </g>
    <g id="ytick_7">
     <g id="line2d_13">
      <g>
       <use style="fill:#262626;stroke:#262626;" x="394.363636" xlink:href="#m0ee78a5a18" y="165.78041"/>
      </g>
     </g>
    </g>
    <g id="ytick_8">
     <g id="line2d_14">
      <g>
       <use style="fill:#262626;stroke:#262626;" x="394.363636" xlink:href="#m0ee78a5a18" y="91.170615"/>
      </g>
     </g>
    </g>
   </g>
   <g id="patch_36">
    <path clip-path="url(#pb5a416688e)" d="M 352.090909 315 
L 370.207792 315 
L 370.207792 314.523695 
L 352.090909 314.523695 
z
" style="fill:#0072b2;opacity:0.4;"/>
   </g>
   <g id="patch_37">
    <path clip-path="url(#pb5a416688e)" d="M 370.207792 315 
L 388.324675 315 
L 388.324675 312.975703 
L 370.207792 312.975703 
z
" style="fill:#0072b2;opacity:0.4;"/>
   </g>
   <g id="patch_38">
    <path clip-path="url(#pb5a416688e)" d="M 388.324675 315 
L 406.441558 315 
L 406.441558 308.093576 
L 388.324675 308.093576 
z
" style="fill:#0072b2;opacity:0.4;"/>
   </g>
   <g id="patch_39">
    <path clip-path="url(#pb5a416688e)" d="M 406.441558 315 
L 424.558442 315 
L 424.558442 291.720587 
L 406.441558 291.720587 
z
" style="fill:#0072b2;opacity:0.4;"/>
   </g>
   <g id="patch_40">
    <path clip-path="url(#pb5a416688e)" d="M 424.558442 315 
L 442.675325 315 
L 442.675325 249.746198 
L 424.558442 249.746198 
z
" style="fill:#0072b2;opacity:0.4;"/>
   </g>
   <g id="patch_41">
    <path clip-path="url(#pb5a416688e)" d="M 442.675325 315 
L 460.792208 315 
L 460.792208 181.991795 
L 442.675325 181.991795 
z
" style="fill:#0072b2;opacity:0.4;"/>
   </g>
   <g id="patch_42">
    <path clip-path="url(#pb5a416688e)" d="M 460.792208 315 
L 478.909091 315 
L 478.909091 113.284781 
L 460.792208 113.284781 
z
" style="fill:#0072b2;opacity:0.4;"/>
   </g>
   <g id="patch_43">
    <path clip-path="url(#pb5a416688e)" d="M 478.909091 315 
L 497.025974 315 
L 497.025974 130.431766 
L 478.909091 130.431766 
z
" style="fill:#0072b2;opacity:0.4;"/>
   </g>
   <g id="patch_44">
    <path clip-path="url(#pb5a416688e)" d="M 497.025974 315 
L 515.142857 315 
L 515.142857 216.345302 
L 497.025974 216.345302 
z
" style="fill:#0072b2;opacity:0.4;"/>
   </g>
   <g id="patch_45">
    <path clip-path="url(#pb5a416688e)" d="M 515.142857 315 
L 533.25974 315 
L 533.25974 251.234652 
L 515.142857 251.234652 
z
" style="fill:#0072b2;opacity:0.4;"/>
   </g>
   <g id="patch_46">
    <path clip-path="url(#pb5a416688e)" d="M 533.25974 315 
L 551.376623 315 
L 551.376623 274.811755 
L 533.25974 274.811755 
z
" style="fill:#0072b2;opacity:0.4;"/>
   </g>
   <g id="patch_47">
    <path clip-path="url(#pb5a416688e)" d="M 551.376623 315 
L 569.493506 315 
L 569.493506 290.232134 
L 551.376623 290.232134 
z
" style="fill:#0072b2;opacity:0.4;"/>
   </g>
   <g id="patch_48">
    <path clip-path="url(#pb5a416688e)" d="M 569.493506 315 
L 587.61039 315 
L 587.61039 298.210245 
L 569.493506 298.210245 
z
" style="fill:#0072b2;opacity:0.4;"/>
   </g>
   <g id="patch_49">
    <path clip-path="url(#pb5a416688e)" d="M 587.61039 315 
L 605.727273 315 
L 605.727273 305.950203 
L 587.61039 305.950203 
z
" style="fill:#0072b2;opacity:0.4;"/>
   </g>
   <g id="patch_50">
    <path clip-path="url(#pb5a416688e)" d="M 352.090909 315 
L 370.207792 315 
L 370.207792 315 
L 352.090909 315 
z
" style="fill:#d55e00;opacity:0.4;"/>
   </g>
   <g id="patch_51">
    <path clip-path="url(#pb5a416688e)" d="M 370.207792 315 
L 388.324675 315 
L 388.324675 311.475921 
L 370.207792 311.475921 
z
" style="fill:#d55e00;opacity:0.4;"/>
   </g>
   <g id="patch_52">
    <path clip-path="url(#pb5a416688e)" d="M 388.324675 315 
L 406.441558 315 
L 406.441558 304.427762 
L 388.324675 304.427762 
z
" style="fill:#d55e00;opacity:0.4;"/>
   </g>
   <g id="patch_53">
    <path clip-path="url(#pb5a416688e)" d="M 406.441558 315 
L 424.558442 315 
L 424.558442 311.475921 
L 406.441558 311.475921 
z
" style="fill:#d55e00;opacity:0.4;"/>
   </g>
   <g id="patch_54">
    <path clip-path="url(#pb5a416688e)" d="M 424.558442 315 
L 442.675325 315 
L 442.675325 269.186968 
L 424.558442 269.186968 
z
" style="fill:#d55e00;opacity:0.4;"/>
   </g>
   <g id="patch_55">
    <path clip-path="url(#pb5a416688e)" d="M 442.675325 315 
L 460.792208 315 
L 460.792208 226.898015 
L 442.675325 226.898015 
z
" style="fill:#d55e00;opacity:0.4;"/>
   </g>
   <g id="patch_56">
    <path clip-path="url(#pb5a416688e)" d="M 460.792208 315 
L 478.909091 315 
L 478.909091 121.175634 
L 460.792208 121.175634 
z
" style="fill:#d55e00;opacity:0.4;"/>
   </g>
   <g id="patch_57">
    <path clip-path="url(#pb5a416688e)" d="M 478.909091 315 
L 497.025974 315 
L 497.025974 92.982999 
L 478.909091 92.982999 
z
" style="fill:#d55e00;opacity:0.4;"/>
   </g>
   <g id="patch_58">
    <path clip-path="url(#pb5a416688e)" d="M 497.025974 315 
L 515.142857 315 
L 515.142857 159.940507 
L 497.025974 159.940507 
z
" style="fill:#d55e00;opacity:0.4;"/>
   </g>
   <g id="patch_59">
    <path clip-path="url(#pb5a416688e)" d="M 515.142857 315 
L 533.25974 315 
L 533.25974 251.566571 
L 515.142857 251.566571 
z
" style="fill:#d55e00;opacity:0.4;"/>
   </g>
   <g id="patch_60">
    <path clip-path="url(#pb5a416688e)" d="M 533.25974 315 
L 551.376623 315 
L 551.376623 276.235127 
L 533.25974 276.235127 
z
" style="fill:#d55e00;opacity:0.4;"/>
   </g>
   <g id="patch_61">
    <path clip-path="url(#pb5a416688e)" d="M 551.376623 315 
L 569.493506 315 
L 569.493506 293.855524 
L 551.376623 293.855524 
z
" style="fill:#d55e00;opacity:0.4;"/>
   </g>
   <g id="patch_62">
    <path clip-path="url(#pb5a416688e)" d="M 569.493506 315 
L 587.61039 315 
L 587.61039 297.379603 
L 569.493506 297.379603 
z
" style="fill:#d55e00;opacity:0.4;"/>
   </g>
   <g id="patch_63">
    <path clip-path="url(#pb5a416688e)" d="M 587.61039 315 
L 605.727273 315 
L 605.727273 307.951841 
L 587.61039 307.951841 
z
" style="fill:#d55e00;opacity:0.4;"/>
   </g>
   <g id="line2d_15">
    <path clip-path="url(#pb5a416688e)" d="M 307.993207 314.998269 
L 317.957729 314.886124 
L 327.922251 314.608576 
L 341.20828 314.735484 
L 347.851295 314.605707 
L 361.137324 314.563826 
L 367.780338 314.291933 
L 374.423353 313.672445 
L 387.709382 311.834386 
L 391.030889 311.154603 
L 394.352396 309.849076 
L 397.673904 307.768699 
L 400.995411 305.109933 
L 407.638425 299.407684 
L 410.959933 296.911865 
L 414.28144 294.172864 
L 417.602947 290.188683 
L 420.924455 284.352207 
L 424.245962 276.741732 
L 427.567469 267.914769 
L 430.888976 258.330058 
L 434.210484 248.042511 
L 437.531991 237.155902 
L 444.175005 214.297991 
L 447.496513 202.180476 
L 450.81802 189.018249 
L 454.139527 174.521716 
L 460.782542 143.762836 
L 464.104049 129.735153 
L 467.425556 118.951353 
L 470.747064 112.921683 
L 474.068571 111.549102 
L 477.390078 113.364884 
L 480.711586 116.617017 
L 484.033093 120.914875 
L 487.3546 128.289894 
L 490.676107 141.166703 
L 493.997615 158.914593 
L 497.319122 177.711048 
L 500.640629 194.065316 
L 503.962136 207.595174 
L 507.283644 219.93299 
L 510.605151 231.637602 
L 513.926658 241.204976 
L 517.248166 247.024868 
L 520.569673 249.573172 
L 523.89118 251.247328 
L 527.212687 254.075605 
L 530.534195 258.453184 
L 537.177209 269.308832 
L 540.498716 273.953901 
L 543.820224 277.388852 
L 553.784746 285.252779 
L 557.106253 288.142314 
L 560.42776 290.728515 
L 563.749267 292.625064 
L 567.070775 293.941841 
L 573.713789 296.321218 
L 577.035296 297.705757 
L 580.356804 299.342419 
L 586.999818 303.269961 
L 590.321326 304.773031 
L 593.642833 305.572032 
L 596.96434 305.866414 
L 600.285847 306.039373 
L 603.607355 306.429345 
L 606.928862 307.18049 
L 616.893384 310.087101 
L 620.214891 310.918992 
L 623.536398 311.51182 
L 626.857906 311.810458 
L 633.50092 312.110573 
L 636.822427 312.409751 
L 646.786949 313.913718 
L 650.108457 314.153149 
L 656.751471 314.184057 
L 663.394486 314.082013 
L 666.715993 314.170463 
L 676.680515 314.730333 
L 686.645037 314.900704 
L 721 314.957586 
L 721 314.957586 
" style="fill:none;stroke:#0072b2;stroke-linecap:round;stroke-width:1.75;"/>
   </g>
   <g id="line2d_16">
    <path clip-path="url(#pb5a416688e)" d="M 345.732463 314.959462 
L 352.548895 314.78602 
L 355.957112 314.541996 
L 359.365328 314.140281 
L 372.998194 311.936856 
L 383.222843 311.223464 
L 386.631059 310.684919 
L 390.039276 309.867391 
L 396.855709 307.854172 
L 400.263925 307.029542 
L 403.672141 306.519338 
L 410.488574 305.998135 
L 413.89679 305.112625 
L 417.305007 302.951297 
L 420.713223 299.019921 
L 424.12144 293.268369 
L 427.529656 286.153649 
L 437.754305 262.742298 
L 441.162522 254.550741 
L 444.570738 245.447009 
L 447.978954 235.03474 
L 451.387171 223.146665 
L 454.795387 209.678473 
L 458.203604 194.394837 
L 461.61182 176.983538 
L 465.020036 157.466989 
L 468.428253 136.77333 
L 471.836469 117.013525 
L 475.244686 101.057532 
L 478.652902 91.450794 
L 482.061118 89.283797 
L 485.469335 93.798617 
L 488.877551 103.025744 
L 492.285767 114.949833 
L 495.693984 128.316335 
L 499.1022 142.590319 
L 505.918633 172.126073 
L 509.326849 186.248034 
L 519.551499 226.58832 
L 522.959715 240.501683 
L 526.367931 253.712524 
L 529.776148 264.731239 
L 533.184364 272.367047 
L 536.592581 276.430764 
L 540.000797 277.876353 
L 543.409013 278.284981 
L 546.81723 279.05855 
L 550.225446 280.881422 
L 553.633663 283.726182 
L 557.041879 287.197977 
L 560.450095 290.830569 
L 563.858312 294.187321 
L 567.266528 296.902998 
L 570.674744 298.786876 
L 574.082961 299.914689 
L 584.30761 301.954578 
L 587.715826 303.033813 
L 594.532259 305.603304 
L 597.940476 306.608103 
L 601.348692 307.204118 
L 604.756908 307.441804 
L 614.981558 307.709882 
L 618.389774 308.006241 
L 621.79799 308.476153 
L 625.206207 309.161616 
L 628.614423 310.075045 
L 638.839072 313.241719 
L 642.247289 313.991613 
L 645.655505 314.486451 
L 649.063722 314.768783 
L 655.880154 314.967998 
L 676.329453 314.999996 
L 721 314.983189 
L 721 314.983189 
" style="fill:none;stroke:#d55e00;stroke-linecap:round;stroke-width:1.75;"/>
   </g>
   <g id="patch_64">
    <path d="M 394.363636 315 
L 394.363636 43.2 
" style="fill:none;stroke:#262626;stroke-linecap:square;stroke-linejoin:miter;stroke-width:1.25;"/>
   </g>
   <g id="patch_65">
    <path d="M 648 315 
L 648 43.2 
" style="fill:none;stroke:#262626;stroke-linecap:square;stroke-linejoin:miter;stroke-width:1.25;"/>
   </g>
   <g id="patch_66">
    <path d="M 394.363636 315 
L 648 315 
" style="fill:none;stroke:#262626;stroke-linecap:square;stroke-linejoin:miter;stroke-width:1.25;"/>
   </g>
   <g id="patch_67">
    <path d="M 394.363636 43.2 
L 648 43.2 
" style="fill:none;stroke:#262626;stroke-linecap:square;stroke-linejoin:miter;stroke-width:1.25;"/>
   </g>
   <g id="legend_1">
    <g id="patch_68">
     <path d="M 507.296875 75.515625 
L 547.296875 75.515625 
L 547.296875 61.515625 
L 507.296875 61.515625 
z
" style="fill:#0072b2;opacity:0.4;"/>
    </g>
    <g id="text_12">
     <text style="fill:#262626;font-family:Arial;font-size:20px;font-style:normal;font-weight:normal;text-anchor:start;" transform="rotate(-0, 563.296875, 75.515625)" x="563.296875" y="75.515625">non-G4</text>
    </g>
    <g id="patch_69">
     <path d="M 507.296875 103.80625 
L 547.296875 103.80625 
L 547.296875 89.80625 
L 507.296875 89.80625 
z
" style="fill:#d55e00;opacity:0.4;"/>
    </g>
    <g id="text_13">
     <text style="fill:#262626;font-family:Arial;font-size:20px;font-style:normal;font-weight:normal;text-anchor:start;" transform="rotate(-0, 563.296875, 103.80625)" x="563.296875" y="103.80625">G4</text>
    </g>
   </g>
  </g>
 </g>
 <defs>
  <clipPath id="p84da32e712">
   <rect height="271.8" width="253.636364" x="90" y="43.2"/>
  </clipPath>
  <clipPath id="pb5a416688e">
   <rect height="271.8" width="253.636364" x="394.363636" y="43.2"/>
  </clipPath>
 </defs>
</svg>
