<?xml version="1.0" encoding="utf-8" standalone="no"?>
<!DOCTYPE svg PUBLIC "-//W3C//DTD SVG 1.1//EN"
  "http://www.w3.org/Graphics/SVG/1.1/DTD/svg11.dtd">
<!-- Created with matplotlib (http://matplotlib.org/) -->
<svg height="360pt" version="1.1" viewBox="0 0 720 360" width="720pt" xmlns="http://www.w3.org/2000/svg" xmlns:xlink="http://www.w3.org/1999/xlink">
 <defs>
  <style type="text/css">
*{stroke-linecap:butt;stroke-linejoin:round;}
  </style>
 </defs>
 <g id="figure_1">
  <g id="patch_1">
   <path d="M 0 360 
L 720 360 
L 720 0 
L 0 0 
z
" style="fill:#ffffff;"/>
  </g>
  <g id="axes_1">
   <g id="patch_2">
    <path d="M 90 315 
L 343.636364 315 
L 343.636364 43.2 
L 90 43.2 
z
" style="fill:#ffffff;"/>
   </g>
   <g id="matplotlib.axis_1">
    <g id="xtick_1">
     <g id="line2d_1">
      <defs>
       <path d="M 0 0 
L 0 2 
" id="m6a2732326d" style="stroke:#262626;"/>
      </defs>
      <g>
       <use style="fill:#262626;stroke:#262626;" x="174.545455" xlink:href="#m6a2732326d" y="315"/>
      </g>
     </g>
     <g id="text_1">
      <text style="fill:#262626;font-family:Arial;font-size:20px;font-style:normal;font-weight:normal;text-anchor:middle;" transform="rotate(-0, 174.545455, 338.315625)" x="174.545455" y="338.315625">0</text>
     </g>
    </g>
    <g id="xtick_2">
     <g id="line2d_2">
      <g>
       <use style="fill:#262626;stroke:#262626;" x="280.227273" xlink:href="#m6a2732326d" y="315"/>
      </g>
     </g>
     <g id="text_2">
      <text style="fill:#262626;font-family:Arial;font-size:20px;font-style:normal;font-weight:normal;text-anchor:middle;" transform="rotate(-0, 280.227273, 338.315625)" x="280.227273" y="338.315625">5</text>
     </g>
    </g>
    <g id="text_3">
     <text style="fill:#262626;font-family:Arial;font-size:22px;font-style:normal;font-weight:normal;text-anchor:middle;" transform="rotate(-0, 216.818182, 362.319687)" x="216.818182" y="362.319687">Log2 GRO / RNAseq reads</text>
    </g>
   </g>
   <g id="matplotlib.axis_2">
    <g id="ytick_1">
     <g id="line2d_3">
      <defs>
       <path d="M 0 0 
L -2 0 
" id="m0643f7eca8" style="stroke:#262626;"/>
      </defs>
      <g>
       <use style="fill:#262626;stroke:#262626;" x="90" xlink:href="#m0643f7eca8" y="315"/>
      </g>
     </g>
     <g id="text_4">
      <text style="fill:#262626;font-family:Arial;font-size:20px;font-style:normal;font-weight:normal;text-anchor:end;" transform="rotate(-0, 81, 322.157812)" x="81" y="322.157812">0.0</text>
     </g>
    </g>
    <g id="ytick_2">
     <g id="line2d_4">
      <g>
       <use style="fill:#262626;stroke:#262626;" x="90" xlink:href="#m0643f7eca8" y="226.284543"/>
      </g>
     </g>
     <g id="text_5">
      <text style="fill:#262626;font-family:Arial;font-size:20px;font-style:normal;font-weight:normal;text-anchor:end;" transform="rotate(-0, 81, 233.442356)" x="81" y="233.442356">0.1</text>
     </g>
    </g>
    <g id="ytick_3">
     <g id="line2d_5">
      <g>
       <use style="fill:#262626;stroke:#262626;" x="90" xlink:href="#m0643f7eca8" y="137.569086"/>
      </g>
     </g>
     <g id="text_6">
      <text style="fill:#262626;font-family:Arial;font-size:20px;font-style:normal;font-weight:normal;text-anchor:end;" transform="rotate(-0, 81, 144.726899)" x="81" y="144.726899">0.2</text>
     </g>
    </g>
    <g id="ytick_4">
     <g id="line2d_6">
      <g>
       <use style="fill:#262626;stroke:#262626;" x="90" xlink:href="#m0643f7eca8" y="48.85363"/>
      </g>
     </g>
     <g id="text_7">
      <text style="fill:#262626;font-family:Arial;font-size:20px;font-style:normal;font-weight:normal;text-anchor:end;" transform="rotate(-0, 81, 56.011442)" x="81" y="56.011442">0.3</text>
     </g>
    </g>
    <g id="text_8">
     <text style="fill:#262626;font-family:Arial;font-size:22px;font-style:normal;font-weight:normal;text-anchor:middle;" transform="rotate(-90, 44.569688, 179.1)" x="44.569688" y="179.1">Density</text>
    </g>
   </g>
   <g id="patch_3">
    <path clip-path="url(#pc107f30cde)" d="M 47.727273 315 
L 65.844156 315 
L 65.844156 313.83902 
L 47.727273 313.83902 
z
" style="fill:#0072b2;opacity:0.4;"/>
   </g>
   <g id="patch_4">
    <path clip-path="url(#pc107f30cde)" d="M 65.844156 315 
L 83.961039 315 
L 83.961039 311.904053 
L 65.844156 311.904053 
z
" style="fill:#0072b2;opacity:0.4;"/>
   </g>
   <g id="patch_5">
    <path clip-path="url(#pc107f30cde)" d="M 83.961039 315 
L 102.077922 315 
L 102.077922 306.679643 
L 83.961039 306.679643 
z
" style="fill:#0072b2;opacity:0.4;"/>
   </g>
   <g id="patch_6">
    <path clip-path="url(#pc107f30cde)" d="M 102.077922 315 
L 120.194805 315 
L 120.194805 280.557594 
L 102.077922 280.557594 
z
" style="fill:#0072b2;opacity:0.4;"/>
   </g>
   <g id="patch_7">
    <path clip-path="url(#pc107f30cde)" d="M 120.194805 315 
L 138.311688 315 
L 138.311688 231.602937 
L 120.194805 231.602937 
z
" style="fill:#0072b2;opacity:0.4;"/>
   </g>
   <g id="patch_8">
    <path clip-path="url(#pc107f30cde)" d="M 138.311688 315 
L 156.428571 315 
L 156.428571 161.363648 
L 138.311688 161.363648 
z
" style="fill:#0072b2;opacity:0.4;"/>
   </g>
   <g id="patch_9">
    <path clip-path="url(#pc107f30cde)" d="M 156.428571 315 
L 174.545455 315 
L 174.545455 117.246408 
L 156.428571 117.246408 
z
" style="fill:#0072b2;opacity:0.4;"/>
   </g>
   <g id="patch_10">
    <path clip-path="url(#pc107f30cde)" d="M 174.545455 315 
L 192.662338 315 
L 192.662338 118.020395 
L 174.545455 118.020395 
z
" style="fill:#0072b2;opacity:0.4;"/>
   </g>
   <g id="patch_11">
    <path clip-path="url(#pc107f30cde)" d="M 192.662338 315 
L 210.779221 315 
L 210.779221 189.807658 
L 192.662338 189.807658 
z
" style="fill:#0072b2;opacity:0.4;"/>
   </g>
   <g id="patch_12">
    <path clip-path="url(#pc107f30cde)" d="M 210.779221 315 
L 228.896104 315 
L 228.896104 229.280977 
L 210.779221 229.280977 
z
" style="fill:#0072b2;opacity:0.4;"/>
   </g>
   <g id="patch_13">
    <path clip-path="url(#pc107f30cde)" d="M 228.896104 315 
L 247.012987 315 
L 247.012987 254.822537 
L 228.896104 254.822537 
z
" style="fill:#0072b2;opacity:0.4;"/>
   </g>
   <g id="patch_14">
    <path clip-path="url(#pc107f30cde)" d="M 247.012987 315 
L 265.12987 315 
L 265.12987 274.559197 
L 247.012987 274.559197 
z
" style="fill:#0072b2;opacity:0.4;"/>
   </g>
   <g id="patch_15">
    <path clip-path="url(#pc107f30cde)" d="M 265.12987 315 
L 283.246753 315 
L 283.246753 285.9755 
L 265.12987 285.9755 
z
" style="fill:#0072b2;opacity:0.4;"/>
   </g>
   <g id="patch_16">
    <path clip-path="url(#pc107f30cde)" d="M 283.246753 315 
L 301.363636 315 
L 301.363636 299.32677 
L 283.246753 299.32677 
z
" style="fill:#0072b2;opacity:0.4;"/>
   </g>
   <g id="patch_17">
    <path clip-path="url(#pc107f30cde)" d="M 47.727273 315 
L 65.844156 315 
L 65.844156 315 
L 47.727273 315 
z
" style="fill:#d55e00;opacity:0.4;"/>
   </g>
   <g id="patch_18">
    <path clip-path="url(#pc107f30cde)" d="M 65.844156 315 
L 83.961039 315 
L 83.961039 304.608297 
L 65.844156 304.608297 
z
" style="fill:#d55e00;opacity:0.4;"/>
   </g>
   <g id="patch_19">
    <path clip-path="url(#pc107f30cde)" d="M 83.961039 315 
L 102.077922 315 
L 102.077922 304.608297 
L 83.961039 304.608297 
z
" style="fill:#d55e00;opacity:0.4;"/>
   </g>
   <g id="patch_20">
    <path clip-path="url(#pc107f30cde)" d="M 102.077922 315 
L 120.194805 315 
L 120.194805 285.90323 
L 102.077922 285.90323 
z
" style="fill:#d55e00;opacity:0.4;"/>
   </g>
   <g id="patch_21">
    <path clip-path="url(#pc107f30cde)" d="M 120.194805 315 
L 138.311688 315 
L 138.311688 242.258076 
L 120.194805 242.258076 
z
" style="fill:#d55e00;opacity:0.4;"/>
   </g>
   <g id="patch_22">
    <path clip-path="url(#pc107f30cde)" d="M 138.311688 315 
L 156.428571 315 
L 156.428571 192.377899 
L 138.311688 192.377899 
z
" style="fill:#d55e00;opacity:0.4;"/>
   </g>
   <g id="patch_23">
    <path clip-path="url(#pc107f30cde)" d="M 156.428571 315 
L 174.545455 315 
L 174.545455 90.539206 
L 156.428571 90.539206 
z
" style="fill:#d55e00;opacity:0.4;"/>
   </g>
   <g id="patch_24">
    <path clip-path="url(#pc107f30cde)" d="M 174.545455 315 
L 192.662338 315 
L 192.662338 46.894051 
L 174.545455 46.894051 
z
" style="fill:#d55e00;opacity:0.4;"/>
   </g>
   <g id="patch_25">
    <path clip-path="url(#pc107f30cde)" d="M 192.662338 315 
L 210.779221 315 
L 210.779221 165.35947 
L 192.662338 165.35947 
z
" style="fill:#d55e00;opacity:0.4;"/>
   </g>
   <g id="patch_26">
    <path clip-path="url(#pc107f30cde)" d="M 210.779221 315 
L 228.896104 315 
L 228.896104 254.72812 
L 210.779221 254.72812 
z
" style="fill:#d55e00;opacity:0.4;"/>
   </g>
   <g id="patch_27">
    <path clip-path="url(#pc107f30cde)" d="M 228.896104 315 
L 247.012987 315 
L 247.012987 271.354846 
L 228.896104 271.354846 
z
" style="fill:#d55e00;opacity:0.4;"/>
   </g>
   <g id="patch_28">
    <path clip-path="url(#pc107f30cde)" d="M 247.012987 315 
L 265.12987 315 
L 265.12987 296.294934 
L 247.012987 296.294934 
z
" style="fill:#d55e00;opacity:0.4;"/>
   </g>
   <g id="patch_29">
    <path clip-path="url(#pc107f30cde)" d="M 265.12987 315 
L 283.246753 315 
L 283.246753 302.529956 
L 265.12987 302.529956 
z
" style="fill:#d55e00;opacity:0.4;"/>
   </g>
   <g id="patch_30">
    <path clip-path="url(#pc107f30cde)" d="M 283.246753 315 
L 301.363636 315 
L 301.363636 302.529956 
L 283.246753 302.529956 
z
" style="fill:#d55e00;opacity:0.4;"/>
   </g>
   <g id="line2d_7">
    <path clip-path="url(#pc107f30cde)" d="M 19.878608 314.997247 
L 31.598636 314.927079 
L 39.411988 314.72348 
L 47.225341 314.265402 
L 58.945369 313.403428 
L 66.758721 312.826611 
L 74.572074 312.027612 
L 78.47875 311.537105 
L 82.385426 310.76397 
L 86.292102 309.446829 
L 90.198778 307.354629 
L 94.105455 304.353939 
L 98.012131 300.416176 
L 101.918807 295.55409 
L 105.825483 289.744141 
L 109.732159 282.891221 
L 113.638835 274.892605 
L 117.545512 265.779901 
L 121.452188 255.697535 
L 125.358864 244.626795 
L 129.26554 232.315106 
L 133.172216 218.712265 
L 144.892245 175.485658 
L 148.798921 161.956746 
L 152.705597 149.752234 
L 156.612273 139.256262 
L 160.518949 130.298728 
L 164.425626 122.580194 
L 168.332302 116.331015 
L 172.238978 112.435567 
L 176.145654 112.113754 
L 180.05233 116.524866 
L 183.959006 126.160846 
L 187.865682 139.987128 
L 191.772359 155.376251 
L 195.679035 169.724323 
L 199.585711 182.236154 
L 203.492387 193.618667 
L 207.399063 204.340648 
L 211.305739 213.997153 
L 215.212416 222.213346 
L 219.119092 229.306211 
L 223.025768 235.835291 
L 226.932444 241.974157 
L 230.83912 247.539115 
L 234.745796 252.376872 
L 238.652473 256.567127 
L 250.372501 268.219009 
L 254.279177 272.085917 
L 258.185853 275.38874 
L 262.09253 278.036757 
L 265.999206 280.545767 
L 269.905882 283.635208 
L 273.812558 287.538155 
L 277.719234 291.726759 
L 281.62591 295.291018 
L 285.532586 297.583995 
L 289.439263 298.635456 
L 293.345939 299.085499 
L 297.252615 299.723684 
L 301.159291 300.990416 
L 312.87932 306.386312 
L 316.785996 307.749753 
L 320.692672 308.871033 
L 324.599348 309.82547 
L 332.4127 311.441203 
L 340.226053 312.818611 
L 344.132729 313.296443 
L 348.039405 313.579264 
L 363.66611 314.180221 
L 371.479462 314.686065 
L 379.292814 314.854981 
L 394.919519 314.863886 
L 406.639547 314.828862 
L 414.4529 314.841981 
L 430.079604 314.994592 
L 480.866395 314.954582 
L 496.493099 314.832673 
L 516.02648 314.997267 
L 516.02648 314.997267 
" style="fill:none;stroke:#0072b2;stroke-linecap:round;stroke-width:1.75;"/>
   </g>
   <g id="line2d_8">
    <path clip-path="url(#pc107f30cde)" d="M 42.65523 314.972618 
L 47.878516 314.895477 
L 53.101801 314.606936 
L 55.713444 314.313956 
L 58.325086 313.877978 
L 60.936729 313.268723 
L 63.548372 312.461998 
L 66.160014 311.443885 
L 68.771657 310.219568 
L 79.218228 304.699616 
L 81.82987 303.760702 
L 84.441513 303.112309 
L 89.664798 302.095166 
L 92.276441 301.290156 
L 94.888084 300.071271 
L 97.499726 298.417932 
L 100.111369 296.40594 
L 102.723012 294.129559 
L 105.334654 291.615078 
L 107.946297 288.771563 
L 110.55794 285.403016 
L 113.169582 281.277521 
L 115.781225 276.226621 
L 118.392868 270.235986 
L 121.00451 263.486823 
L 128.839438 242.235861 
L 131.451081 235.74959 
L 136.674366 223.402323 
L 139.286009 216.822774 
L 141.897651 209.352131 
L 144.509294 200.524913 
L 147.120937 189.983003 
L 149.732579 177.593117 
L 152.344222 163.55582 
L 160.17915 118.762672 
L 162.790793 106.131601 
L 165.402435 95.833854 
L 168.014078 87.913235 
L 170.625721 81.951681 
L 173.237363 77.313475 
L 175.849006 73.498618 
L 178.460649 70.447493 
L 181.072291 68.64964 
L 183.683934 69.002396 
L 186.295577 72.487422 
L 188.907219 79.813268 
L 191.518862 91.169239 
L 194.130505 106.163752 
L 196.742147 123.930325 
L 204.577075 182.246578 
L 207.188718 199.726083 
L 209.800361 214.900053 
L 212.412003 227.372943 
L 215.023646 237.051882 
L 217.635289 244.153913 
L 220.246931 249.178172 
L 222.858574 252.82305 
L 228.081859 258.918641 
L 230.693502 262.462731 
L 233.305145 266.621152 
L 238.52843 276.116703 
L 241.140073 280.810808 
L 243.751715 285.040004 
L 246.363358 288.584504 
L 248.975001 291.343355 
L 251.586643 293.342907 
L 254.198286 294.727927 
L 256.809929 295.724919 
L 262.033214 297.453588 
L 269.868142 300.280177 
L 272.479785 300.914042 
L 275.091427 301.250161 
L 277.70307 301.330245 
L 282.926355 301.27785 
L 285.537998 301.486904 
L 288.149641 302.03025 
L 290.761283 302.953574 
L 293.372926 304.217825 
L 301.207854 308.739134 
L 303.819497 309.987451 
L 306.431139 310.952399 
L 309.042782 311.631944 
L 311.654425 312.059816 
L 314.266067 312.269725 
L 316.87771 312.272004 
L 319.489353 312.058105 
L 322.100995 311.630664 
L 329.935923 309.843028 
L 332.547566 309.52656 
L 335.159209 309.518427 
L 337.770851 309.806101 
L 342.994137 310.915599 
L 350.829065 312.709282 
L 356.05235 313.6958 
L 361.275635 314.416879 
L 366.498921 314.807684 
L 371.722206 314.952096 
L 374.333849 314.973086 
L 374.333849 314.973086 
" style="fill:none;stroke:#d55e00;stroke-linecap:round;stroke-width:1.75;"/>
   </g>
   <g id="patch_31">
    <path d="M 90 315 
L 90 43.2 
" style="fill:none;stroke:#262626;stroke-linecap:square;stroke-linejoin:miter;stroke-width:1.25;"/>
   </g>
   <g id="patch_32">
    <path d="M 343.636364 315 
L 343.636364 43.2 
" style="fill:none;stroke:#262626;stroke-linecap:square;stroke-linejoin:miter;stroke-width:1.25;"/>
   </g>
   <g id="patch_33">
    <path d="M 90 315 
L 343.636364 315 
" style="fill:none;stroke:#262626;stroke-linecap:square;stroke-linejoin:miter;stroke-width:1.25;"/>
   </g>
   <g id="patch_34">
    <path d="M 90 43.2 
L 343.636364 43.2 
" style="fill:none;stroke:#262626;stroke-linecap:square;stroke-linejoin:miter;stroke-width:1.25;"/>
   </g>
  </g>
  <g id="axes_2">
   <g id="patch_35">
    <path d="M 394.363636 315 
L 648 315 
L 648 43.2 
L 394.363636 43.2 
z
" style="fill:#ffffff;"/>
   </g>
   <g id="matplotlib.axis_3">
    <g id="xtick_3">
     <g id="line2d_9">
      <g>
       <use style="fill:#262626;stroke:#262626;" x="478.909091" xlink:href="#m6a2732326d" y="315"/>
      </g>
     </g>
     <g id="text_9">
      <text style="fill:#262626;font-family:Arial;font-size:20px;font-style:normal;font-weight:normal;text-anchor:middle;" transform="rotate(-0, 478.909091, 338.315625)" x="478.909091" y="338.315625">0</text>
     </g>
    </g>
    <g id="xtick_4">
     <g id="line2d_10">
      <g>
       <use style="fill:#262626;stroke:#262626;" x="584.590909" xlink:href="#m6a2732326d" y="315"/>
      </g>
     </g>
     <g id="text_10">
      <text style="fill:#262626;font-family:Arial;font-size:20px;font-style:normal;font-weight:normal;text-anchor:middle;" transform="rotate(-0, 584.590909, 338.315625)" x="584.590909" y="338.315625">5</text>
     </g>
    </g>
    <g id="text_11">
     <text style="fill:#262626;font-family:Arial;font-size:22px;font-style:normal;font-weight:normal;text-anchor:middle;" transform="rotate(-0, 521.181818, 362.319687)" x="521.181818" y="362.319687">Log2 GRO / RNAseq reads</text>
    </g>
   </g>
   <g id="matplotlib.axis_4">
    <g id="ytick_5">
     <g id="line2d_11">
      <g>
       <use style="fill:#262626;stroke:#262626;" x="394.363636" xlink:href="#m0643f7eca8" y="315"/>
      </g>
     </g>
    </g>
    <g id="ytick_6">
     <g id="line2d_12">
      <g>
       <use style="fill:#262626;stroke:#262626;" x="394.363636" xlink:href="#m0643f7eca8" y="226.284543"/>
      </g>
     </g>
    </g>
    <g id="ytick_7">
     <g id="line2d_13">
      <g>
       <use style="fill:#262626;stroke:#262626;" x="394.363636" xlink:href="#m0643f7eca8" y="137.569086"/>
      </g>
     </g>
    </g>
    <g id="ytick_8">
     <g id="line2d_14">
      <g>
       <use style="fill:#262626;stroke:#262626;" x="394.363636" xlink:href="#m0643f7eca8" y="48.85363"/>
      </g>
     </g>
    </g>
   </g>
   <g id="patch_36">
    <path clip-path="url(#p587923434f)" d="M 352.090909 315 
L 370.207792 315 
L 370.207792 314.287181 
L 352.090909 314.287181 
z
" style="fill:#0072b2;opacity:0.4;"/>
   </g>
   <g id="patch_37">
    <path clip-path="url(#p587923434f)" d="M 370.207792 315 
L 388.324675 315 
L 388.324675 312.623936 
L 370.207792 312.623936 
z
" style="fill:#0072b2;opacity:0.4;"/>
   </g>
   <g id="patch_38">
    <path clip-path="url(#p587923434f)" d="M 388.324675 315 
L 406.441558 315 
L 406.441558 307.277791 
L 388.324675 307.277791 
z
" style="fill:#0072b2;opacity:0.4;"/>
   </g>
   <g id="patch_39">
    <path clip-path="url(#p587923434f)" d="M 406.441558 315 
L 424.558442 315 
L 424.558442 284.348769 
L 406.441558 284.348769 
z
" style="fill:#0072b2;opacity:0.4;"/>
   </g>
   <g id="patch_40">
    <path clip-path="url(#p587923434f)" d="M 424.558442 315 
L 442.675325 315 
L 442.675325 232.906974 
L 424.558442 232.906974 
z
" style="fill:#0072b2;opacity:0.4;"/>
   </g>
   <g id="patch_41">
    <path clip-path="url(#p587923434f)" d="M 442.675325 315 
L 460.792208 315 
L 460.792208 162.219058 
L 442.675325 162.219058 
z
" style="fill:#0072b2;opacity:0.4;"/>
   </g>
   <g id="patch_42">
    <path clip-path="url(#p587923434f)" d="M 460.792208 315 
L 478.909091 315 
L 478.909091 84.521751 
L 460.792208 84.521751 
z
" style="fill:#0072b2;opacity:0.4;"/>
   </g>
   <g id="patch_43">
    <path clip-path="url(#p587923434f)" d="M 478.909091 315 
L 497.025974 315 
L 497.025974 108.757608 
L 478.909091 108.757608 
z
" style="fill:#0072b2;opacity:0.4;"/>
   </g>
   <g id="patch_44">
    <path clip-path="url(#p587923434f)" d="M 497.025974 315 
L 515.142857 315 
L 515.142857 194.058321 
L 497.025974 194.058321 
z
" style="fill:#0072b2;opacity:0.4;"/>
   </g>
   <g id="patch_45">
    <path clip-path="url(#p587923434f)" d="M 515.142857 315 
L 533.25974 315 
L 533.25974 232.788171 
L 515.142857 232.788171 
z
" style="fill:#0072b2;opacity:0.4;"/>
   </g>
   <g id="patch_46">
    <path clip-path="url(#p587923434f)" d="M 533.25974 315 
L 551.376623 315 
L 551.376623 265.22145 
L 533.25974 265.22145 
z
" style="fill:#0072b2;opacity:0.4;"/>
   </g>
   <g id="patch_47">
    <path clip-path="url(#p587923434f)" d="M 551.376623 315 
L 569.493506 315 
L 569.493506 281.735098 
L 551.376623 281.735098 
z
" style="fill:#0072b2;opacity:0.4;"/>
   </g>
   <g id="patch_48">
    <path clip-path="url(#p587923434f)" d="M 569.493506 315 
L 587.61039 315 
L 587.61039 291.239356 
L 569.493506 291.239356 
z
" style="fill:#0072b2;opacity:0.4;"/>
   </g>
   <g id="patch_49">
    <path clip-path="url(#p587923434f)" d="M 587.61039 315 
L 605.727273 315 
L 605.727273 303.000875 
L 587.61039 303.000875 
z
" style="fill:#0072b2;opacity:0.4;"/>
   </g>
   <g id="patch_50">
    <path clip-path="url(#p587923434f)" d="M 352.090909 315 
L 370.207792 315 
L 370.207792 315 
L 352.090909 315 
z
" style="fill:#d55e00;opacity:0.4;"/>
   </g>
   <g id="patch_51">
    <path clip-path="url(#p587923434f)" d="M 370.207792 315 
L 388.324675 315 
L 388.324675 313.158339 
L 370.207792 313.158339 
z
" style="fill:#d55e00;opacity:0.4;"/>
   </g>
   <g id="patch_52">
    <path clip-path="url(#p587923434f)" d="M 388.324675 315 
L 406.441558 315 
L 406.441558 302.108371 
L 388.324675 302.108371 
z
" style="fill:#d55e00;opacity:0.4;"/>
   </g>
   <g id="patch_53">
    <path clip-path="url(#p587923434f)" d="M 406.441558 315 
L 424.558442 315 
L 424.558442 294.741725 
L 406.441558 294.741725 
z
" style="fill:#d55e00;opacity:0.4;"/>
   </g>
   <g id="patch_54">
    <path clip-path="url(#p587923434f)" d="M 424.558442 315 
L 442.675325 315 
L 442.675325 257.908499 
L 424.558442 257.908499 
z
" style="fill:#d55e00;opacity:0.4;"/>
   </g>
   <g id="patch_55">
    <path clip-path="url(#p587923434f)" d="M 442.675325 315 
L 460.792208 315 
L 460.792208 191.608691 
L 442.675325 191.608691 
z
" style="fill:#d55e00;opacity:0.4;"/>
   </g>
   <g id="patch_56">
    <path clip-path="url(#p587923434f)" d="M 460.792208 315 
L 478.909091 315 
L 478.909091 68.217383 
L 460.792208 68.217383 
z
" style="fill:#d55e00;opacity:0.4;"/>
   </g>
   <g id="patch_57">
    <path clip-path="url(#p587923434f)" d="M 478.909091 315 
L 497.025974 315 
L 497.025974 55.325754 
L 478.909091 55.325754 
z
" style="fill:#d55e00;opacity:0.4;"/>
   </g>
   <g id="patch_58">
    <path clip-path="url(#p587923434f)" d="M 497.025974 315 
L 515.142857 315 
L 515.142857 162.14211 
L 497.025974 162.14211 
z
" style="fill:#d55e00;opacity:0.4;"/>
   </g>
   <g id="patch_59">
    <path clip-path="url(#p587923434f)" d="M 515.142857 315 
L 533.25974 315 
L 533.25974 248.700192 
L 515.142857 248.700192 
z
" style="fill:#d55e00;opacity:0.4;"/>
   </g>
   <g id="patch_60">
    <path clip-path="url(#p587923434f)" d="M 533.25974 315 
L 551.376623 315 
L 551.376623 265.275144 
L 533.25974 265.275144 
z
" style="fill:#d55e00;opacity:0.4;"/>
   </g>
   <g id="patch_61">
    <path clip-path="url(#p587923434f)" d="M 551.376623 315 
L 569.493506 315 
L 569.493506 289.216741 
L 551.376623 289.216741 
z
" style="fill:#d55e00;opacity:0.4;"/>
   </g>
   <g id="patch_62">
    <path clip-path="url(#p587923434f)" d="M 569.493506 315 
L 587.61039 315 
L 587.61039 302.108371 
L 569.493506 302.108371 
z
" style="fill:#d55e00;opacity:0.4;"/>
   </g>
   <g id="patch_63">
    <path clip-path="url(#p587923434f)" d="M 587.61039 315 
L 605.727273 315 
L 605.727273 309.475016 
L 587.61039 309.475016 
z
" style="fill:#d55e00;opacity:0.4;"/>
   </g>
   <g id="line2d_15">
    <path clip-path="url(#p587923434f)" d="M 305.230576 314.997179 
L 314.790726 314.90222 
L 330.724311 314.433215 
L 340.284461 314.566046 
L 353.031329 314.363904 
L 359.404762 314.394384 
L 365.778196 314.168182 
L 372.15163 313.684248 
L 375.338347 313.296876 
L 378.525064 312.753773 
L 388.085214 310.700622 
L 391.271931 309.837181 
L 394.458648 308.494582 
L 397.645365 306.364089 
L 400.832082 303.343564 
L 404.018798 299.633365 
L 407.205515 295.681963 
L 413.578949 288.30092 
L 416.765666 284.14375 
L 419.952383 278.501848 
L 423.1391 270.805852 
L 426.325817 261.057245 
L 429.512533 249.589942 
L 439.072684 211.266487 
L 442.259401 199.806939 
L 445.446118 188.947021 
L 448.632835 177.372266 
L 451.819551 163.9114 
L 455.006268 148.36252 
L 461.379702 115.479372 
L 464.566419 101.839692 
L 467.753136 92.313092 
L 470.939853 87.623579 
L 474.12657 87.502236 
L 477.313286 90.759628 
L 480.500003 95.754754 
L 483.68672 101.537207 
L 486.873437 108.724884 
L 490.060154 118.797076 
L 493.246871 132.328723 
L 502.807021 179.42201 
L 505.993738 193.434396 
L 509.180455 206.289641 
L 512.367172 217.281807 
L 515.553889 225.226276 
L 518.740606 229.628022 
L 521.927322 231.622487 
L 525.114039 233.467036 
L 528.300756 236.958745 
L 531.487473 242.474958 
L 534.67419 249.327175 
L 537.860907 256.541865 
L 541.047624 263.23471 
L 544.234341 268.695325 
L 547.421057 272.578453 
L 550.607774 275.133122 
L 556.981208 279.197049 
L 563.354642 284.017198 
L 566.541359 286.022917 
L 569.728075 287.56151 
L 572.914792 288.89506 
L 576.101509 290.419247 
L 579.288226 292.461005 
L 582.474943 295.06773 
L 585.66166 297.868371 
L 588.848377 300.227505 
L 592.035093 301.684034 
L 595.22181 302.309279 
L 598.408527 302.627574 
L 601.595244 303.169603 
L 604.781961 304.120923 
L 607.968678 305.37128 
L 617.528828 309.562361 
L 620.715545 310.651424 
L 623.902262 311.287518 
L 627.088979 311.469164 
L 633.462413 311.374104 
L 636.64913 311.56425 
L 639.835846 312.008128 
L 646.20928 313.196107 
L 649.395997 313.652038 
L 652.582714 313.915285 
L 658.956148 314.014542 
L 665.329581 314.109585 
L 681.263166 314.818523 
L 703.570184 314.97718 
L 709.943617 314.997723 
L 709.943617 314.997723 
" style="fill:none;stroke:#0072b2;stroke-linecap:round;stroke-width:1.75;"/>
   </g>
   <g id="line2d_16">
    <path clip-path="url(#p587923434f)" d="M 351.678331 314.972885 
L 358.894068 314.82929 
L 363.70456 314.509205 
L 368.515051 313.952915 
L 378.136035 312.498665 
L 380.54128 312.015463 
L 382.946526 311.386421 
L 385.351772 310.560716 
L 387.757018 309.520025 
L 390.162263 308.287571 
L 397.378001 304.067451 
L 409.404229 297.10847 
L 411.809475 295.428906 
L 414.214721 293.533762 
L 416.619967 291.370087 
L 419.025212 288.846784 
L 421.430458 285.820127 
L 423.835704 282.112561 
L 426.24095 277.563915 
L 428.646196 272.090711 
L 431.051441 265.719716 
L 433.456687 258.573967 
L 435.861933 250.81533 
L 438.267179 242.570354 
L 440.672424 233.872932 
L 443.07767 224.646956 
L 445.482916 214.733366 
L 447.888162 203.94848 
L 450.293407 192.150215 
L 452.698653 179.28821 
L 455.103899 165.423809 
L 459.91439 135.449052 
L 464.724882 104.744995 
L 467.130128 90.442855 
L 469.535373 77.815543 
L 471.940619 67.638634 
L 474.345865 60.524239 
L 476.751111 56.743931 
L 479.156357 56.142857 
L 481.561602 58.207121 
L 483.966848 62.272809 
L 486.372094 67.786461 
L 488.77734 74.491903 
L 491.182585 82.452984 
L 493.587831 91.90845 
L 495.993077 103.042446 
L 498.398323 115.791315 
L 503.208814 144.387126 
L 508.019306 172.876199 
L 510.424551 185.841149 
L 512.829797 197.720546 
L 515.235043 208.558878 
L 517.640289 218.458934 
L 520.045534 227.492209 
L 522.45078 235.650227 
L 524.856026 242.842502 
L 527.261272 248.934591 
L 529.666518 253.815075 
L 532.071763 257.473967 
L 534.477009 260.064231 
L 536.882255 261.91295 
L 539.287501 263.462274 
L 541.692746 265.152868 
L 544.097992 267.296528 
L 546.503238 269.996289 
L 548.908484 273.15054 
L 553.718975 279.90682 
L 556.124221 283.103081 
L 558.529467 286.054106 
L 560.934712 288.764186 
L 563.339958 291.263447 
L 565.745204 293.572981 
L 568.15045 295.695614 
L 570.555696 297.625391 
L 572.960941 299.360636 
L 575.366187 300.910321 
L 577.771433 302.292658 
L 582.581924 304.64309 
L 587.392416 306.552328 
L 592.202907 308.057372 
L 597.013399 309.125853 
L 601.82389 309.766852 
L 606.634382 310.075897 
L 613.850119 310.164321 
L 618.660611 310.189261 
L 623.471102 310.484731 
L 628.281594 311.200417 
L 635.497331 312.770733 
L 640.307823 313.763875 
L 645.118314 314.459587 
L 649.928806 314.820157 
L 657.144543 314.972616 
L 657.144543 314.972616 
" style="fill:none;stroke:#d55e00;stroke-linecap:round;stroke-width:1.75;"/>
   </g>
   <g id="patch_64">
    <path d="M 394.363636 315 
L 394.363636 43.2 
" style="fill:none;stroke:#262626;stroke-linecap:square;stroke-linejoin:miter;stroke-width:1.25;"/>
   </g>
   <g id="patch_65">
    <path d="M 648 315 
L 648 43.2 
" style="fill:none;stroke:#262626;stroke-linecap:square;stroke-linejoin:miter;stroke-width:1.25;"/>
   </g>
   <g id="patch_66">
    <path d="M 394.363636 315 
L 648 315 
" style="fill:none;stroke:#262626;stroke-linecap:square;stroke-linejoin:miter;stroke-width:1.25;"/>
   </g>
   <g id="patch_67">
    <path d="M 394.363636 43.2 
L 648 43.2 
" style="fill:none;stroke:#262626;stroke-linecap:square;stroke-linejoin:miter;stroke-width:1.25;"/>
   </g>
   <g id="legend_1">
    <g id="patch_68">
     <path d="M 507.296875 75.515625 
L 547.296875 75.515625 
L 547.296875 61.515625 
L 507.296875 61.515625 
z
" style="fill:#0072b2;opacity:0.4;"/>
    </g>
    <g id="text_12">
     <text style="fill:#262626;font-family:Arial;font-size:20px;font-style:normal;font-weight:normal;text-anchor:start;" transform="rotate(-0, 563.296875, 75.515625)" x="563.296875" y="75.515625">non-G4</text>
    </g>
    <g id="patch_69">
     <path d="M 507.296875 103.80625 
L 547.296875 103.80625 
L 547.296875 89.80625 
L 507.296875 89.80625 
z
" style="fill:#d55e00;opacity:0.4;"/>
    </g>
    <g id="text_13">
     <text style="fill:#262626;font-family:Arial;font-size:20px;font-style:normal;font-weight:normal;text-anchor:start;" transform="rotate(-0, 563.296875, 103.80625)" x="563.296875" y="103.80625">G4</text>
    </g>
   </g>
  </g>
 </g>
 <defs>
  <clipPath id="pc107f30cde">
   <rect height="271.8" width="253.636364" x="90" y="43.2"/>
  </clipPath>
  <clipPath id="p587923434f">
   <rect height="271.8" width="253.636364" x="394.363636" y="43.2"/>
  </clipPath>
 </defs>
</svg>
