<?xml version="1.0" encoding="utf-8" standalone="no"?>
<!DOCTYPE svg PUBLIC "-//W3C//DTD SVG 1.1//EN"
  "http://www.w3.org/Graphics/SVG/1.1/DTD/svg11.dtd">
<!-- Created with matplotlib (http://matplotlib.org/) -->
<svg height="432pt" version="1.1" viewBox="0 0 396 432" width="396pt" xmlns="http://www.w3.org/2000/svg" xmlns:xlink="http://www.w3.org/1999/xlink">
 <defs>
  <style type="text/css">
*{stroke-linecap:butt;stroke-linejoin:round;}
  </style>
 </defs>
 <g id="figure_1">
  <g id="patch_1">
   <path d="M 0 432 
L 396 432 
L 396 0 
L 0 0 
z
" style="fill:#ffffff;"/>
  </g>
  <g id="axes_1">
   <g id="patch_2">
    <path d="M 62.795 378.08 
L 356.1425 378.08 
L 356.1425 88.776 
L 62.795 88.776 
z
" style="fill:#ffffff;"/>
   </g>
   <g id="matplotlib.axis_1">
    <g id="xtick_1">
     <g id="line2d_1">
      <defs>
       <path d="M 0 0 
L 0 2 
" id="m0eac84346f" style="stroke:#262626;"/>
      </defs>
      <g>
       <use style="fill:#262626;stroke:#262626;" x="117.708616" xlink:href="#m0eac84346f" y="378.08"/>
      </g>
     </g>
     <g id="text_1">
      <text style="fill:#262626;font-family:Arial;font-size:20px;font-style:normal;font-weight:normal;text-anchor:middle;" transform="rotate(-0, 117.708616, 401.395625)" x="117.708616" y="401.395625">0.35</text>
     </g>
    </g>
    <g id="xtick_2">
     <g id="line2d_2">
      <g>
       <use style="fill:#262626;stroke:#262626;" x="205.058487" xlink:href="#m0eac84346f" y="378.08"/>
      </g>
     </g>
     <g id="text_2">
      <text style="fill:#262626;font-family:Arial;font-size:20px;font-style:normal;font-weight:normal;text-anchor:middle;" transform="rotate(-0, 205.058487, 401.395625)" x="205.058487" y="401.395625">0.40</text>
     </g>
    </g>
    <g id="xtick_3">
     <g id="line2d_3">
      <g>
       <use style="fill:#262626;stroke:#262626;" x="292.408357" xlink:href="#m0eac84346f" y="378.08"/>
      </g>
     </g>
     <g id="text_3">
      <text style="fill:#262626;font-family:Arial;font-size:20px;font-style:normal;font-weight:normal;text-anchor:middle;" transform="rotate(-0, 292.408357, 401.395625)" x="292.408357" y="401.395625">0.45</text>
     </g>
    </g>
    <g id="text_4">
     <text style="fill:#262626;font-family:Arial;font-size:22px;font-style:normal;font-weight:normal;text-anchor:middle;" transform="rotate(-0, 209.46875, 425.117813)" x="209.46875" y="425.117813">GC content</text>
    </g>
   </g>
   <g id="matplotlib.axis_2">
    <g id="ytick_1">
     <g id="line2d_4">
      <defs>
       <path d="M 0 0 
L -2 0 
" id="m4b2bc542e7" style="stroke:#262626;"/>
      </defs>
      <g>
       <use style="fill:#262626;stroke:#262626;" x="62.795" xlink:href="#m4b2bc542e7" y="378.08"/>
      </g>
     </g>
     <g id="text_5">
      <text style="fill:#262626;font-family:Arial;font-size:20px;font-style:normal;font-weight:normal;text-anchor:end;" transform="rotate(-0, 53.795, 385.237813)" x="53.795" y="385.237813">−0.4</text>
     </g>
    </g>
    <g id="ytick_2">
     <g id="line2d_5">
      <g>
       <use style="fill:#262626;stroke:#262626;" x="62.795" xlink:href="#m4b2bc542e7" y="325.479273"/>
      </g>
     </g>
     <g id="text_6">
      <text style="fill:#262626;font-family:Arial;font-size:20px;font-style:normal;font-weight:normal;text-anchor:end;" transform="rotate(-0, 53.795, 332.637085)" x="53.795" y="332.637085">−0.2</text>
     </g>
    </g>
    <g id="ytick_3">
     <g id="line2d_6">
      <g>
       <use style="fill:#262626;stroke:#262626;" x="62.795" xlink:href="#m4b2bc542e7" y="272.878545"/>
      </g>
     </g>
     <g id="text_7">
      <text style="fill:#262626;font-family:Arial;font-size:20px;font-style:normal;font-weight:normal;text-anchor:end;" transform="rotate(-0, 53.795, 280.036358)" x="53.795" y="280.036358">0.0</text>
     </g>
    </g>
    <g id="ytick_4">
     <g id="line2d_7">
      <g>
       <use style="fill:#262626;stroke:#262626;" x="62.795" xlink:href="#m4b2bc542e7" y="220.277818"/>
      </g>
     </g>
     <g id="text_8">
      <text style="fill:#262626;font-family:Arial;font-size:20px;font-style:normal;font-weight:normal;text-anchor:end;" transform="rotate(-0, 53.795, 227.435631)" x="53.795" y="227.435631">0.2</text>
     </g>
    </g>
    <g id="ytick_5">
     <g id="line2d_8">
      <g>
       <use style="fill:#262626;stroke:#262626;" x="62.795" xlink:href="#m4b2bc542e7" y="167.677091"/>
      </g>
     </g>
     <g id="text_9">
      <text style="fill:#262626;font-family:Arial;font-size:20px;font-style:normal;font-weight:normal;text-anchor:end;" transform="rotate(-0, 53.795, 174.834903)" x="53.795" y="174.834903">0.4</text>
     </g>
    </g>
    <g id="ytick_6">
     <g id="line2d_9">
      <g>
       <use style="fill:#262626;stroke:#262626;" x="62.795" xlink:href="#m4b2bc542e7" y="115.076364"/>
      </g>
     </g>
     <g id="text_10">
      <text style="fill:#262626;font-family:Arial;font-size:20px;font-style:normal;font-weight:normal;text-anchor:end;" transform="rotate(-0, 53.795, 122.234176)" x="53.795" y="122.234176">0.6</text>
     </g>
    </g>
    <g id="text_11">
     <text style="fill:#262626;font-family:Arial;font-size:22px;font-style:normal;font-weight:normal;text-anchor:middle;" transform="rotate(-90, 5.94125, 233.428)" x="5.94125" y="233.428">Partial Dependence</text>
    </g>
   </g>
   <g id="line2d_10">
    <path clip-path="url(#p9a6b053efc)" d="M 62.795 371.447362 
L 65.758106 371.447362 
L 68.721212 371.447362 
L 71.684318 371.447362 
L 74.647424 371.447362 
L 77.61053 371.447362 
L 80.573636 371.447362 
L 83.536742 372.029222 
L 86.499848 372.029222 
L 89.462955 376.798676 
L 92.426061 381.255732 
L 95.389167 376.666923 
L 98.352273 373.990056 
L 101.315379 373.990056 
L 104.278485 373.990056 
L 107.241591 372.91657 
L 110.204697 369.829802 
L 113.167803 373.158211 
L 116.130909 371.620091 
L 119.094015 374.257713 
L 122.057121 371.414269 
L 125.020227 360.589292 
L 127.983333 360.589292 
L 130.946439 361.406745 
L 133.909545 361.406745 
L 136.872652 361.406745 
L 139.835758 361.245907 
L 142.798864 361.249108 
L 145.76197 327.311741 
L 148.725076 328.576688 
L 151.688182 328.576688 
L 154.651288 328.576688 
L 157.614394 328.576688 
L 160.5775 328.576688 
L 163.540606 328.576688 
L 166.503712 313.109244 
L 169.466818 313.109244 
L 172.429924 311.324011 
L 175.39303 311.324011 
L 178.356136 306.806206 
L 181.319242 297.668953 
L 184.282348 280.622862 
L 187.245455 275.761819 
L 190.208561 275.780444 
L 193.171667 275.693598 
L 196.134773 260.03906 
L 199.097879 259.317497 
L 202.060985 257.930014 
L 205.024091 257.930014 
L 207.987197 257.930014 
L 210.950303 249.932505 
L 213.913409 244.835448 
L 216.876515 244.835448 
L 219.839621 244.835448 
L 222.802727 244.915895 
L 225.765833 244.915895 
L 228.728939 244.984284 
L 231.692045 217.741625 
L 234.655152 217.741625 
L 237.618258 217.54177 
L 240.581364 217.54177 
L 243.54447 217.54177 
L 246.507576 193.748578 
L 249.470682 193.748578 
L 252.433788 193.748578 
L 255.396894 193.748578 
L 258.36 193.748578 
L 261.323106 193.738735 
L 264.286212 193.738735 
L 267.249318 178.578023 
L 270.212424 184.501444 
L 273.17553 184.501444 
L 276.138636 176.073333 
L 279.101742 176.073333 
L 282.064848 166.491284 
L 285.027955 153.543669 
L 287.991061 153.543669 
L 290.954167 153.543669 
L 293.917273 153.194903 
L 296.880379 128.244569 
L 299.843485 128.244569 
L 302.806591 128.177847 
L 305.769697 128.177847 
L 308.732803 128.177847 
L 311.695909 108.653228 
L 314.659015 108.653228 
L 317.622121 108.653228 
L 320.585227 108.158248 
L 323.548333 108.158248 
L 326.511439 108.158248 
L 329.474545 108.158248 
L 332.437652 108.158248 
L 335.400758 108.158248 
L 338.363864 108.158248 
L 341.32697 102.068277 
L 344.290076 102.068277 
L 347.253182 102.068277 
L 350.216288 102.079813 
L 353.179394 102.079813 
L 356.1425 102.079813 
" style="fill:none;stroke:#0072b2;stroke-linecap:round;stroke-width:1.75;"/>
   </g>
   <g id="patch_3">
    <path d="M 62.795 378.08 
L 62.795 88.776 
" style="fill:none;stroke:#262626;stroke-linecap:square;stroke-linejoin:miter;stroke-width:1.25;"/>
   </g>
   <g id="patch_4">
    <path d="M 356.1425 378.08 
L 356.1425 88.776 
" style="fill:none;stroke:#262626;stroke-linecap:square;stroke-linejoin:miter;stroke-width:1.25;"/>
   </g>
   <g id="patch_5">
    <path d="M 62.795 378.08 
L 356.1425 378.08 
" style="fill:none;stroke:#262626;stroke-linecap:square;stroke-linejoin:miter;stroke-width:1.25;"/>
   </g>
  </g>
  <g id="axes_2">
   <g id="patch_6">
    <path d="M 62.795 78.8 
L 356.1425 78.8 
L 356.1425 28.92 
L 62.795 28.92 
z
" style="fill:#ffffff;"/>
   </g>
   <g id="matplotlib.axis_3">
    <g id="xtick_4">
     <g id="line2d_11">
      <g>
       <use style="fill:#262626;stroke:#262626;" x="117.708616" xlink:href="#m0eac84346f" y="78.8"/>
      </g>
     </g>
    </g>
    <g id="xtick_5">
     <g id="line2d_12">
      <g>
       <use style="fill:#262626;stroke:#262626;" x="205.058487" xlink:href="#m0eac84346f" y="78.8"/>
      </g>
     </g>
    </g>
    <g id="xtick_6">
     <g id="line2d_13">
      <g>
       <use style="fill:#262626;stroke:#262626;" x="292.408357" xlink:href="#m0eac84346f" y="78.8"/>
      </g>
     </g>
    </g>
   </g>
   <g id="matplotlib.axis_4">
    <g id="ytick_7"/>
    <g id="ytick_8"/>
   </g>
   <g id="patch_7">
    <path clip-path="url(#p07d431aed6)" d="M 62.795 78.8 
L 92.12975 78.8 
L 92.12975 76.105525 
L 62.795 76.105525 
z
" style="fill:#0072b2;"/>
   </g>
   <g id="patch_8">
    <path clip-path="url(#p07d431aed6)" d="M 92.12975 78.8 
L 121.4645 78.8 
L 121.4645 72.169249 
L 92.12975 72.169249 
z
" style="fill:#0072b2;"/>
   </g>
   <g id="patch_9">
    <path clip-path="url(#p07d431aed6)" d="M 121.4645 78.8 
L 150.79925 78.8 
L 150.79925 61.94196 
L 121.4645 61.94196 
z
" style="fill:#0072b2;"/>
   </g>
   <g id="patch_10">
    <path clip-path="url(#p07d431aed6)" d="M 150.79925 78.8 
L 180.134 78.8 
L 180.134 34.821486 
L 150.79925 34.821486 
z
" style="fill:#0072b2;"/>
   </g>
   <g id="patch_11">
    <path clip-path="url(#p07d431aed6)" d="M 180.134 78.8 
L 209.46875 78.8 
L 209.46875 31.295238 
L 180.134 31.295238 
z
" style="fill:#0072b2;"/>
   </g>
   <g id="patch_12">
    <path clip-path="url(#p07d431aed6)" d="M 209.46875 78.8 
L 238.8035 78.8 
L 238.8035 47.30979 
L 209.46875 47.30979 
z
" style="fill:#0072b2;"/>
   </g>
   <g id="patch_13">
    <path clip-path="url(#p07d431aed6)" d="M 238.8035 78.8 
L 268.13825 78.8 
L 268.13825 62.890884 
L 238.8035 62.890884 
z
" style="fill:#0072b2;"/>
   </g>
   <g id="patch_14">
    <path clip-path="url(#p07d431aed6)" d="M 268.13825 78.8 
L 297.473 78.8 
L 297.473 70.986023 
L 268.13825 70.986023 
z
" style="fill:#0072b2;"/>
   </g>
   <g id="patch_15">
    <path clip-path="url(#p07d431aed6)" d="M 297.473 78.8 
L 326.80775 78.8 
L 326.80775 75.203462 
L 297.473 75.203462 
z
" style="fill:#0072b2;"/>
   </g>
   <g id="patch_16">
    <path clip-path="url(#p07d431aed6)" d="M 326.80775 78.8 
L 356.1425 78.8 
L 356.1425 77.159885 
L 326.80775 77.159885 
z
" style="fill:#0072b2;"/>
   </g>
   <g id="patch_17">
    <path d="M 62.795 78.8 
L 356.1425 78.8 
" style="fill:none;stroke:#262626;stroke-linecap:square;stroke-linejoin:miter;stroke-width:1.25;"/>
   </g>
  </g>
 </g>
 <defs>
  <clipPath id="p9a6b053efc">
   <rect height="289.304" width="293.3475" x="62.795" y="88.776"/>
  </clipPath>
  <clipPath id="p07d431aed6">
   <rect height="49.88" width="293.3475" x="62.795" y="28.92"/>
  </clipPath>
 </defs>
</svg>
