<?xml version="1.0" encoding="UTF-8" standalone="no"?>
<!-- Created with Inkscape (http://www.inkscape.org/) -->

<svg
   xmlns:dc="http://purl.org/dc/elements/1.1/"
   xmlns:cc="http://creativecommons.org/ns#"
   xmlns:rdf="http://www.w3.org/1999/02/22-rdf-syntax-ns#"
   xmlns:svg="http://www.w3.org/2000/svg"
   xmlns="http://www.w3.org/2000/svg"
   xmlns:sodipodi="http://sodipodi.sourceforge.net/DTD/sodipodi-0.dtd"
   xmlns:inkscape="http://www.inkscape.org/namespaces/inkscape"
   width="192.66556mm"
   height="90.671646mm"
   viewBox="0 0 682.67324 321.27748"
   id="svg2"
   version="1.1"
   inkscape:version="0.91 r13725"
   sodipodi:docname="zmays_athaliana_nmm_expression_venn.svg">
  <defs
     id="defs4"
     style="stroke-linecap:butt;stroke-linejoin:round">
    <style
       id="style4257"
       type="text/css">
*{stroke-linecap:butt;stroke-linejoin:round;}
  </style>
    <style
       id="style8980"
       type="text/css">
*{stroke-linecap:butt;stroke-linejoin:round;}
  </style>
  </defs>
  <sodipodi:namedview
     id="base"
     pagecolor="#ffffff"
     bordercolor="#666666"
     borderopacity="1.0"
     inkscape:pageopacity="0.0"
     inkscape:pageshadow="2"
     inkscape:zoom="0.93658513"
     inkscape:cx="303.17387"
     inkscape:cy="73.624191"
     inkscape:document-units="px"
     inkscape:current-layer="figure_1"
     showgrid="false"
     fit-margin-top="5"
     fit-margin-left="5"
     fit-margin-right="5"
     fit-margin-bottom="5"
     inkscape:window-width="1555"
     inkscape:window-height="989"
     inkscape:window-x="45"
     inkscape:window-y="0"
     inkscape:window-maximized="1" />
  <metadata
     id="metadata7">
    <rdf:RDF>
      <cc:Work
         rdf:about="">
        <dc:format>image/svg+xml</dc:format>
        <dc:type
           rdf:resource="http://purl.org/dc/dcmitype/StillImage" />
        <dc:title />
      </cc:Work>
    </rdf:RDF>
  </metadata>
  <g
     inkscape:label="Layer 1"
     inkscape:groupmode="layer"
     id="layer1"
     transform="translate(-25.749431,-31.947938)">
    <g
       id="figure_1"
       transform="matrix(1.25,0,0,1.25,7.6447383,26.716934)"
       style="stroke-linecap:butt;stroke-linejoin:round">
      <g
         transform="matrix(0.85140537,0,0,0.85140537,-25.937673,-53.270456)"
         style="stroke-linecap:butt;stroke-linejoin:round"
         id="legend_1">
        <g
           style="stroke-linecap:butt;stroke-linejoin:round"
           id="patch_10">
          <path
             inkscape:connector-curvature="0"
             d="m 522.57375,104.33726 40,0 0,-13.999999 -40,0 z"
             style="fill:#0072b2;stroke-linecap:butt;stroke-linejoin:round"
             id="path4309" />
        </g>
        <g
           style="stroke-linecap:butt;stroke-linejoin:round"
           id="text_7">
          <text
             style="font-style:normal;font-weight:normal;font-size:20px;line-height:125%;font-family:Arial;text-anchor:start;fill:#262626;stroke-linecap:butt;stroke-linejoin:round"
             x="578.57373"
             y="104.33726"
             id="text4312"
             sodipodi:linespacing="125%">
            <tspan
               style="font-style:italic;font-variant:normal;font-weight:normal;font-stretch:normal;font-size:19.99987411px;line-height:125%;font-family:Arial;-inkscape-font-specification:'Arial, Italic';text-align:start;writing-mode:lr-tb;text-anchor:start;stroke-linecap:butt;stroke-linejoin:round"
               id="tspan4443">A. thaliana</tspan>
          </text>
        </g>
        <g
           style="stroke-linecap:butt;stroke-linejoin:round"
           id="patch_11">
          <path
             inkscape:connector-curvature="0"
             d="m 522.57375,132.62789 40,0 0,-14 -40,0 z"
             style="fill:#d55e00;stroke-linecap:butt;stroke-linejoin:round"
             id="path4315" />
        </g>
        <g
           style="stroke-linecap:butt;stroke-linejoin:round"
           id="text_8">
          <text
             style="font-style:normal;font-weight:normal;font-size:20px;line-height:125%;font-family:Arial;text-anchor:start;fill:#262626;stroke-linecap:butt;stroke-linejoin:round"
             x="578.57373"
             y="132.62788"
             id="text4318"
             sodipodi:linespacing="125%">
            <tspan
               style="font-style:italic;font-variant:normal;font-weight:normal;font-stretch:normal;font-size:19.99987411px;line-height:125%;font-family:Arial;-inkscape-font-specification:'Arial, Italic';text-align:start;writing-mode:lr-tb;text-anchor:start;stroke-linecap:butt;stroke-linejoin:round"
               id="tspan4445">Z. mays</tspan>
          </text>
        </g>
      </g>
      <text
         sodipodi:linespacing="125%"
         id="text4402"
         y="35.53772"
         x="27.789795"
         style="font-style:normal;font-variant:normal;font-weight:normal;font-stretch:normal;font-size:24px;line-height:125%;font-family:Arial;-inkscape-font-specification:'Arial, Normal';text-align:start;letter-spacing:0px;word-spacing:0px;writing-mode:lr-tb;text-anchor:start;fill:#000000;fill-opacity:1;stroke:none;stroke-width:1px;stroke-linecap:butt;stroke-linejoin:miter;stroke-opacity:1"
         xml:space="preserve"><tspan
           y="35.53772"
           x="27.789795"
           style="stroke-linecap:butt;stroke-linejoin:round"
           id="tspan4404"
           sodipodi:role="line">a</tspan></text>
      <text
         xml:space="preserve"
         style="font-style:normal;font-variant:normal;font-weight:normal;font-stretch:normal;font-size:24px;line-height:125%;font-family:Arial;-inkscape-font-specification:'Arial, Normal';text-align:start;letter-spacing:0px;word-spacing:0px;writing-mode:lr-tb;text-anchor:start;fill:#000000;fill-opacity:1;stroke:none;stroke-width:1px;stroke-linecap:butt;stroke-linejoin:miter;stroke-opacity:1"
         x="294.98978"
         y="35.53772"
         id="text4406"
         sodipodi:linespacing="125%"><tspan
           sodipodi:role="line"
           id="tspan4408"
           style="stroke-linecap:butt;stroke-linejoin:round"
           x="294.98978"
           y="35.53772">b</tspan></text>
      <text
         sodipodi:linespacing="125%"
         id="text4410"
         y="243.45642"
         x="109.4908"
         style="font-style:normal;font-variant:normal;font-weight:normal;font-stretch:normal;font-size:24px;line-height:125%;font-family:Arial;-inkscape-font-specification:'Arial, Normal';text-align:start;letter-spacing:0px;word-spacing:0px;writing-mode:lr-tb;text-anchor:start;fill:#000000;fill-opacity:1;stroke:none;stroke-width:1px;stroke-linecap:butt;stroke-linejoin:miter;stroke-opacity:1"
         xml:space="preserve"><tspan
           y="243.45642"
           x="109.4908"
           style="font-size:18px;fill:#262626;fill-opacity:1;stroke-linecap:butt;stroke-linejoin:round"
           id="tspan4412"
           sodipodi:role="line">p = 3.9x10<tspan
   id="tspan4416"
   style="font-size:10.99358845px;baseline-shift:super;fill:#262626;fill-opacity:1;stroke-linecap:butt;stroke-linejoin:round">-66</tspan></tspan></text>
      <g
         transform="matrix(0.72711905,0,0,0.72711905,24.484209,13.901079)"
         id="axes_1-1"
         style="stroke-linecap:butt;stroke-linejoin:round">
        <g
           id="patch_2-7"
           style="stroke-linecap:butt;stroke-linejoin:round">
          <path
             id="path8988"
             style="fill:#0072b2;stroke-linecap:butt;stroke-linejoin:round"
             d="M 127.05857,234.17691 C 117.28839,217.79602 112.12891,199.07328 112.12891,180 c 0,-19.07328 5.15948,-37.79602 14.92966,-54.17691 -8.73025,-3.22338 -18.11166,-4.28926 -27.342516,-3.10657 -9.230859,1.18269 -18.040516,4.57928 -25.676133,9.89952 -7.635616,5.32023 -13.873311,12.40811 -18.180035,20.65793 -4.306724,8.24983 -6.556202,17.41971 -6.556202,26.72603 0,9.30632 2.249478,18.4762 6.556202,26.72602 4.306724,8.24983 10.544419,15.33771 18.180035,20.65794 7.635617,5.32024 16.445274,8.71683 25.676133,9.89952 9.230856,1.18269 18.612266,0.11681 27.342516,-3.10657"
             clip-path="url(#pb7492c6069)"
             inkscape:connector-curvature="0" />
        </g>
        <g
           id="patch_3-4"
           style="stroke-linecap:butt;stroke-linejoin:round">
          <path
             id="path8991"
             style="fill:#d55e00;stroke-linecap:butt;stroke-linejoin:round"
             d="m 127.05857,125.82309 c 11.07389,4.08869 20.63237,11.47601 27.38082,21.16141 6.74844,9.68539 10.36777,21.21091 10.36777,33.0155 0,11.80459 -3.61933,23.33011 -10.36777,33.0155 -6.74845,9.6854 -16.30693,17.07272 -27.38082,21.16141 5.89068,9.87642 13.35292,18.72631 22.0924,26.20061 8.73947,7.47431 18.63976,13.47346 29.31038,17.76083 10.67062,4.28738 21.96942,6.80586 33.45074,7.45613 11.48133,0.65026 22.99224,-0.57636 34.07871,-3.63148 11.08648,-3.05513 21.60083,-7.89806 31.12835,-14.33778 9.52752,-6.43973 17.94129,-14.39045 24.90945,-23.53859 6.96817,-9.14814 12.39789,-19.37181 16.07503,-30.2678 3.67713,-10.89598 5.55269,-22.3191 5.55269,-33.81883 0,-11.49973 -1.87556,-22.92285 -5.55269,-33.81883 -3.67714,-10.89599 -9.10686,-21.11966 -16.07503,-30.2678 -6.96816,-9.14814 -15.38193,-17.098862 -24.90945,-23.538585 -9.52752,-6.439724 -20.04187,-11.282654 -31.12835,-14.337781 -11.08647,-3.055126 -22.59738,-4.281747 -34.07871,-3.631483 -11.48132,0.650265 -22.78012,3.168751 -33.45074,7.456127 -10.67062,4.287376 -20.57091,10.286524 -29.31038,17.760829 -8.73948,7.474303 -16.20172,16.324193 -22.0924,26.200613"
             clip-path="url(#pb7492c6069)"
             inkscape:connector-curvature="0" />
        </g>
        <g
           id="patch_4-1"
           style="stroke-linecap:butt;stroke-linejoin:round">
          <path
             id="path8994"
             style="fill:#009e73;stroke:#009e73;stroke-width:0.30000001;stroke-linecap:butt;stroke-linejoin:miter"
             d="m 127.05857,234.17691 c 11.07389,-4.08869 20.63237,-11.47601 27.38082,-21.16141 6.74844,-9.68539 10.36777,-21.21091 10.36777,-33.0155 0,-11.80459 -3.61933,-23.33011 -10.36777,-33.0155 -6.74845,-9.6854 -16.30693,-17.07272 -27.38082,-21.16141 -9.77018,16.38089 -14.92966,35.10363 -14.92966,54.17691 0,19.07328 5.15948,37.79602 14.92966,54.17691"
             clip-path="url(#pb7492c6069)"
             inkscape:connector-curvature="0" />
        </g>
        <g
           id="text_1-7"
           style="stroke-linecap:butt;stroke-linejoin:round">
          <text
             id="text8997"
             y="186.20438"
             x="80.716301"
             style="font-style:normal;font-weight:normal;font-size:24px;font-family:Arial;text-anchor:middle;fill:#262626;stroke-linecap:butt;stroke-linejoin:round">318</text>
        </g>
        <g
           id="text_2-1"
           style="stroke-linecap:butt;stroke-linejoin:round">
          <text
             id="text9000"
             y="186.20438"
             x="244.23174"
             style="font-style:normal;font-weight:normal;font-size:24px;font-family:Arial;text-anchor:middle;fill:#262626;stroke-linecap:butt;stroke-linejoin:round">1542</text>
        </g>
        <g
           id="text_3-1"
           style="stroke-linecap:butt;stroke-linejoin:round">
          <text
             id="text9003"
             y="186.20438"
             x="138.46803"
             style="font-style:normal;font-weight:normal;font-size:24px;font-family:Arial;text-anchor:middle;fill:#262626;stroke-linecap:butt;stroke-linejoin:round">202</text>
        </g>
      </g>
      <g
         id="g9168"
         transform="matrix(0.84806951,0,0,0.84806951,-24.157922,-7.8700021)"
         style="stroke-linecap:butt;stroke-linejoin:round">
        <g
           id="patch_5-7"
           style="stroke-linecap:butt;stroke-linejoin:round">
          <path
             id="path9007"
             style="fill:#0072b2;stroke-linecap:butt;stroke-linejoin:round"
             d="M 505.03183,227.69845 C 496.12215,213.38587 491.3984,196.8592 491.3984,180 c 0,-16.8592 4.72375,-33.38587 13.63343,-47.69845 -9.29658,-8.69288 -20.93484,-14.48111 -33.47642,-16.64932 -12.54159,-2.16822 -25.44763,-0.62326 -37.12307,4.44393 -11.67545,5.06719 -21.61866,13.43889 -28.60075,24.08045 -6.98209,10.64156 -10.70308,23.09576 -10.70308,35.82339 0,12.72763 3.72099,25.18182 10.70308,35.82339 6.98209,10.64156 16.9253,19.01326 28.60075,24.08045 11.67544,5.06719 24.58148,6.61215 37.12307,4.44393 12.54158,-2.16821 24.17984,-7.95644 33.47642,-16.64932"
             clip-path="url(#p9e88aa8bc3)"
             inkscape:connector-curvature="0" />
        </g>
        <g
           id="patch_6-0"
           style="stroke-linecap:butt;stroke-linejoin:round">
          <path
             id="path9010"
             style="fill:#d55e00;stroke-linecap:butt;stroke-linejoin:round"
             d="m 505.03183,132.30155 c 6.53306,6.1088 11.74194,13.49518 15.30284,21.69996 3.5609,8.20477 5.39847,17.05431 5.39847,25.99849 0,8.94418 -1.83757,17.79372 -5.39847,25.99849 -3.5609,8.20477 -8.76978,15.59116 -15.30284,21.69996 5.14825,8.27018 11.60164,15.65257 19.10933,21.86022 7.50769,6.20764 15.97112,11.15905 25.06129,14.66175 9.09018,3.5027 18.68778,5.51071 28.41973,5.94598 9.73194,0.43527 19.47048,-0.70792 28.83706,-3.38512 9.36658,-2.67721 18.23824,-6.85329 26.27013,-12.36592 8.03189,-5.51262 15.11856,-12.28942 20.98456,-20.06698 5.86599,-7.77755 10.4343,-16.45376 13.52734,-25.69137 3.09304,-9.2376 4.67021,-18.91534 4.67021,-28.65701 0,-9.74167 -1.57717,-19.41941 -4.67021,-28.65701 -3.09304,-9.23761 -7.66135,-17.91382 -13.52734,-25.69137 -5.866,-7.77756 -12.95267,-14.55436 -20.98456,-20.06698 -8.03189,-5.51263 -16.90355,-9.68871 -26.27013,-12.365917 -9.36658,-2.677207 -19.10512,-3.820395 -28.83706,-3.385126 -9.73195,0.43527 -19.32955,2.443282 -28.41973,5.945982 -9.09017,3.5027 -17.5536,8.454111 -25.06129,14.661751 -7.50769,6.20765 -13.96108,13.59004 -19.10933,21.86022"
             clip-path="url(#p9e88aa8bc3)"
             inkscape:connector-curvature="0" />
        </g>
        <g
           id="patch_7-4"
           style="stroke-linecap:butt;stroke-linejoin:round">
          <path
             id="path9013"
             style="fill:#009e73;stroke:#009e73;stroke-width:0.30000001;stroke-linecap:butt;stroke-linejoin:miter"
             d="m 505.03183,227.69845 c 6.53306,-6.1088 11.74194,-13.49519 15.30284,-21.69996 3.5609,-8.20477 5.39847,-17.05431 5.39847,-25.99849 0,-8.94418 -1.83757,-17.79372 -5.39847,-25.99849 -3.5609,-8.20478 -8.76978,-15.59116 -15.30284,-21.69996 C 496.12215,146.61413 491.3984,163.1408 491.3984,180 c 0,16.8592 4.72375,33.38587 13.63343,47.69845"
             clip-path="url(#p9e88aa8bc3)"
             inkscape:connector-curvature="0" />
        </g>
        <g
           id="patch_8-0"
           style="stroke-linecap:butt;stroke-linejoin:round">
          <path
             id="path9016"
             style="fill:#0072b2;stroke-linecap:butt;stroke-linejoin:round"
             d="m 540.00138,180 0,0 0,0 0,0 z"
             clip-path="url(#p9e88aa8bc3)"
             inkscape:connector-curvature="0" />
        </g>
        <g
           id="patch_9-8"
           style="stroke-linecap:butt;stroke-linejoin:round">
          <path
             id="path9019"
             style="fill:#d55e00;stroke-linecap:butt;stroke-linejoin:round"
             d="m 540.00138,180 0,0 0,0 0,0 z"
             clip-path="url(#p9e88aa8bc3)"
             inkscape:connector-curvature="0" />
        </g>
        <g
           id="text_4-5"
           style="stroke-linecap:butt;stroke-linejoin:round">
          <text
             id="text9022"
             y="186.20438"
             x="443.26346"
             style="font-style:normal;font-weight:normal;font-size:24px;font-family:Arial;text-anchor:middle;fill:#262626;stroke-linecap:butt;stroke-linejoin:round">566</text>
        </g>
        <g
           id="text_5-1"
           style="stroke-linecap:butt;stroke-linejoin:round">
          <text
             id="text9025"
             y="186.20438"
             x="598.82233"
             style="font-style:normal;font-weight:normal;font-size:24px;font-family:Arial;text-anchor:middle;fill:#262626;stroke-linecap:butt;stroke-linejoin:round">1185</text>
        </g>
        <g
           id="text_6-6"
           style="stroke-linecap:butt;stroke-linejoin:round">
          <text
             id="text9028"
             y="186.20438"
             x="508.56577"
             style="font-style:normal;font-weight:normal;font-size:24px;font-family:Arial;text-anchor:middle;fill:#262626;stroke-linecap:butt;stroke-linejoin:round">114</text>
        </g>
      </g>
      <text
         xml:space="preserve"
         style="font-style:normal;font-variant:normal;font-weight:normal;font-stretch:normal;font-size:24px;line-height:125%;font-family:Arial;-inkscape-font-specification:'Arial, Normal';text-align:start;letter-spacing:0px;word-spacing:0px;writing-mode:lr-tb;text-anchor:start;fill:#000000;fill-opacity:1;stroke:none;stroke-width:1px;stroke-linecap:butt;stroke-linejoin:miter;stroke-opacity:1"
         x="377.73096"
         y="243.45642"
         id="text9264"
         sodipodi:linespacing="125%"><tspan
           sodipodi:role="line"
           id="tspan9266"
           style="font-size:18px;fill:#262626;fill-opacity:1;stroke-linecap:butt;stroke-linejoin:round"
           x="377.73096"
           y="243.45642">p = 1.0x10<tspan
   style="font-size:10.99358845px;baseline-shift:super;fill:#262626;fill-opacity:1;stroke-linecap:butt;stroke-linejoin:round"
   id="tspan9268">-14</tspan></tspan></text>
    </g>
  </g>
</svg>
