<?xml version="1.0" encoding="UTF-8" standalone="no"?>
<!DOCTYPE svg PUBLIC "-//W3C//DTD SVG 1.0//EN"
  "http://www.w3.org/TR/SVG/DTD/svg10.dtd">
<svg xmlns="http://www.w3.org/2000/svg" version="1.2" baseProfile="tiny"
     width="1196px" height="748px" viewport-fill="#ffffff" >
<desc>
Created with Chemtool 1.6.13 from file /home/matthew/Documents/papers_and_thesis/thesis/introduction/figures/raw/drugs/pyridostatin.svg 
</desc>
<g>
<line x1="248" y1="582" x2="302" y2="550"
style="stroke-width:2; stroke:#000000" />
<line x1="302" y1="550" x2="357" y2="582"
style="stroke-width:2; stroke:#000000" />
<line x1="357" y1="582" x2="357" y2="646"
style="stroke-width:2; stroke:#000000" />
<line x1="357" y1="646" x2="302" y2="678"
style="stroke-width:2; stroke:#000000" />
<line x1="304" y1="669" x2="348" y2="644"
style="stroke-width:2; stroke:#000000" />
<line x1="302" y1="678" x2="248" y2="648"
style="stroke-width:2; stroke:#000000" />
<line x1="248" y1="648" x2="248" y2="582"
style="stroke-width:2; stroke:#000000" />
<line x1="255" y1="589" x2="255" y2="641"
style="stroke-width:2; stroke:#000000" />
<line x1="302" y1="550" x2="302" y2="486"
style="stroke-width:2; stroke:#000000" />
<line x1="309" y1="493" x2="309" y2="543"
style="stroke-width:2; stroke:#000000" />
<line x1="302" y1="486" x2="357" y2="454"
style="stroke-width:2; stroke:#000000" />
<line x1="357" y1="454" x2="412" y2="486"
style="stroke-width:2; stroke:#000000" />
<line x1="403" y1="488" x2="359" y2="463"
style="stroke-width:2; stroke:#000000" />
<line x1="412" y1="486" x2="412" y2="537"
style="stroke-width:2; stroke:#000000" />
<line x1="401" y1="555" x2="357" y2="582"
style="stroke-width:2; stroke:#000000" />
<line x1="359" y1="573" x2="392" y2="553"
style="stroke-width:2; stroke:#000000" />
<line x1="412" y1="486" x2="455" y2="461"
style="stroke-width:2; stroke:#000000" />
<line x1="466" y1="443" x2="466" y2="392"
style="stroke-width:2; stroke:#000000" />
<line x1="465" y1="395" x2="421" y2="370"
style="stroke-width:2; stroke:#000000" />
<line x1="467" y1="389" x2="423" y2="364"
style="stroke-width:2; stroke:#000000" />
<line x1="302" y1="486" x2="258" y2="459"
style="stroke-width:2; stroke:#000000" />
<line x1="237" y1="459" x2="193" y2="486"
style="stroke-width:2; stroke:#000000" />
<line x1="193" y1="486" x2="138" y2="454"
style="stroke-width:2; stroke:#000000" />
<line x1="138" y1="454" x2="94" y2="478"
style="stroke-width:2; stroke:#000000" />
<line x1="466" y1="392" x2="520" y2="360"
style="stroke-width:2; stroke:#000000" />
<line x1="520" y1="360" x2="520" y2="296"
style="stroke-width:2; stroke:#000000" />
<line x1="527" y1="303" x2="527" y2="353"
style="stroke-width:2; stroke:#000000" />
<line x1="520" y1="296" x2="575" y2="264"
style="stroke-width:2; stroke:#000000" />
<line x1="520" y1="360" x2="564" y2="386"
style="stroke-width:2; stroke:#000000" />
<line x1="585" y1="386" x2="629" y2="362"
style="stroke-width:2; stroke:#000000" />
<line x1="587" y1="377" x2="620" y2="360"
style="stroke-width:2; stroke:#000000" />
<line x1="629" y1="362" x2="629" y2="298"
style="stroke-width:2; stroke:#000000" />
<line x1="629" y1="298" x2="575" y2="266"
style="stroke-width:2; stroke:#000000" />
<line x1="620" y1="300" x2="577" y2="275"
style="stroke-width:2; stroke:#000000" />
<line x1="575" y1="266" x2="575" y2="214"
style="stroke-width:2; stroke:#000000" />
<line x1="585" y1="196" x2="629" y2="170"
style="stroke-width:2; stroke:#000000" />
<line x1="629" y1="170" x2="629" y2="106"
style="stroke-width:2; stroke:#000000" />
<line x1="629" y1="106" x2="673" y2="79"
style="stroke-width:2; stroke:#000000" />
<line x1="629" y1="362" x2="684" y2="394"
style="stroke-width:2; stroke:#000000" />
<line x1="686" y1="397" x2="730" y2="370"
style="stroke-width:2; stroke:#000000" />
<line x1="682" y1="391" x2="726" y2="364"
style="stroke-width:2; stroke:#000000" />
<line x1="684" y1="394" x2="684" y2="445"
style="stroke-width:2; stroke:#000000" />
<line x1="694" y1="463" x2="739" y2="490"
style="stroke-width:2; stroke:#000000" />
<line x1="739" y1="490" x2="794" y2="458"
style="stroke-width:2; stroke:#000000" />
<line x1="794" y1="458" x2="848" y2="490"
style="stroke-width:2; stroke:#000000" />
<line x1="839" y1="492" x2="796" y2="467"
style="stroke-width:2; stroke:#000000" />
<line x1="848" y1="490" x2="848" y2="554"
style="stroke-width:2; stroke:#000000" />
<line x1="739" y1="490" x2="739" y2="541"
style="stroke-width:2; stroke:#000000" />
<line x1="746" y1="497" x2="746" y2="534"
style="stroke-width:2; stroke:#000000" />
<line x1="749" y1="559" x2="794" y2="586"
style="stroke-width:2; stroke:#000000" />
<line x1="794" y1="586" x2="848" y2="554"
style="stroke-width:2; stroke:#000000" />
<line x1="796" y1="577" x2="839" y2="552"
style="stroke-width:2; stroke:#000000" />
<line x1="794" y1="586" x2="794" y2="650"
style="stroke-width:2; stroke:#000000" />
<line x1="794" y1="650" x2="848" y2="680"
style="stroke-width:2; stroke:#000000" />
<line x1="803" y1="648" x2="846" y2="671"
style="stroke-width:2; stroke:#000000" />
<line x1="848" y1="680" x2="903" y2="648"
style="stroke-width:2; stroke:#000000" />
<line x1="903" y1="648" x2="903" y2="585"
style="stroke-width:2; stroke:#000000" />
<line x1="896" y1="641" x2="896" y2="592"
style="stroke-width:2; stroke:#000000" />
<line x1="903" y1="585" x2="849" y2="555"
style="stroke-width:2; stroke:#000000" />
<line x1="848" y1="490" x2="892" y2="463"
style="stroke-width:2; stroke:#000000" />
<line x1="913" y1="463" x2="958" y2="490"
style="stroke-width:2; stroke:#000000" />
<line x1="958" y1="490" x2="1012" y2="458"
style="stroke-width:2; stroke:#000000" />
<line x1="1012" y1="458" x2="1055" y2="484"
style="stroke-width:2; stroke:#000000" />
<text x="567" y="210" style="font-family:Helvetica; font-size:18pt; fill:#000000;text-anchor:start;" > 
<tspan>
O</tspan>
</text>
<text x="404" y="370" style="font-family:Helvetica; font-size:18pt; fill:#000000;text-anchor:start;" > 
<tspan>
O</tspan>
</text>
<text x="731" y="370" style="font-family:Helvetica; font-size:18pt; fill:#000000;text-anchor:start;" > 
<tspan>
O</tspan>
</text>
<text x="240" y="462" style="font-family:Helvetica; font-size:18pt; fill:#000000;text-anchor:start;" > 
<tspan>
O</tspan>
</text>
<text x="895" y="466" style="font-family:Helvetica; font-size:18pt; fill:#000000;text-anchor:start;" > 
<tspan>
O</tspan>
</text>
<text x="404" y="558" style="font-family:Helvetica; font-size:18pt; fill:#000000;text-anchor:start;" > 
<tspan>
N</tspan>
</text>
<text x="731" y="562" style="font-family:Helvetica; font-size:18pt; fill:#000000;text-anchor:start;" > 
<tspan>
N</tspan>
</text>
<text x="567" y="400" style="font-family:Helvetica; font-size:18pt; fill:#000000;text-anchor:start;" > 
<tspan>
N</tspan>
</text>
<text x="458" y="464" style="font-family:Helvetica; font-size:18pt; fill:#000000;text-anchor:start;" > 
<tspan>
NH</tspan>
</text>
<text x="676" y="466" style="font-family:Helvetica; font-size:18pt; fill:#000000;text-anchor:start;" > 
<tspan>
HN</tspan>
</text>
<text x="76" y="492" style="font-family:Helvetica; font-size:18pt; fill:#000000;text-anchor:start;" > 
<tspan>
H2N</tspan>
</text>
<text x="676" y="82" style="font-family:Helvetica; font-size:18pt; fill:#000000;text-anchor:start;" > 
<tspan>
NH2</tspan>
</text>
<text x="1058" y="498" style="font-family:Helvetica; font-size:18pt; fill:#000000;text-anchor:start;" > 
<tspan>
NH2</tspan>
</text>
</g>
</svg>
