<?xml version="1.0" encoding="utf-8" standalone="no"?>
<!DOCTYPE svg PUBLIC "-//W3C//DTD SVG 1.1//EN"
  "http://www.w3.org/Graphics/SVG/1.1/DTD/svg11.dtd">
<!-- Created with matplotlib (http://matplotlib.org/) -->
<svg height="360pt" version="1.1" viewBox="0 0 360 360" width="360pt" xmlns="http://www.w3.org/2000/svg" xmlns:xlink="http://www.w3.org/1999/xlink">
 <defs>
  <style type="text/css">
*{stroke-linecap:butt;stroke-linejoin:round;}
  </style>
 </defs>
 <g id="figure_1">
  <g id="patch_1">
   <path d="M 0 360 
L 360 360 
L 360 0 
L 0 0 
z
" style="fill:#ffffff;"/>
  </g>
  <g id="axes_1">
   <g id="patch_2">
    <path d="M 65.76875 303.10625 
L 352.2 303.10625 
L 352.2 7.8 
L 65.76875 7.8 
z
" style="fill:#ffffff;"/>
   </g>
   <g id="matplotlib.axis_1">
    <g id="xtick_1">
     <g id="line2d_1">
      <defs>
       <path d="M 0 0 
L 0 2 
" id="m0872b458c9" style="stroke:#262626;"/>
      </defs>
      <g>
       <use style="fill:#262626;stroke:#262626;" x="101.572656" xlink:href="#m0872b458c9" y="303.10625"/>
      </g>
     </g>
     <g id="text_1">
      <text style="fill:#262626;font-family:Arial;font-size:20px;font-style:normal;font-weight:normal;text-anchor:middle;" transform="rotate(-0, 101.572656, 326.421875)" x="101.572656" y="326.421875">−2</text>
     </g>
    </g>
    <g id="xtick_2">
     <g id="line2d_2">
      <g>
       <use style="fill:#262626;stroke:#262626;" x="173.180469" xlink:href="#m0872b458c9" y="303.10625"/>
      </g>
     </g>
     <g id="text_2">
      <text style="fill:#262626;font-family:Arial;font-size:20px;font-style:normal;font-weight:normal;text-anchor:middle;" transform="rotate(-0, 173.180469, 326.421875)" x="173.180469" y="326.421875">0</text>
     </g>
    </g>
    <g id="xtick_3">
     <g id="line2d_3">
      <g>
       <use style="fill:#262626;stroke:#262626;" x="244.788281" xlink:href="#m0872b458c9" y="303.10625"/>
      </g>
     </g>
     <g id="text_3">
      <text style="fill:#262626;font-family:Arial;font-size:20px;font-style:normal;font-weight:normal;text-anchor:middle;" transform="rotate(-0, 244.788281, 326.421875)" x="244.788281" y="326.421875">2</text>
     </g>
    </g>
    <g id="xtick_4">
     <g id="line2d_4">
      <g>
       <use style="fill:#262626;stroke:#262626;" x="316.396094" xlink:href="#m0872b458c9" y="303.10625"/>
      </g>
     </g>
     <g id="text_4">
      <text style="fill:#262626;font-family:Arial;font-size:20px;font-style:normal;font-weight:normal;text-anchor:middle;" transform="rotate(-0, 316.396094, 326.421875)" x="316.396094" y="326.421875">4</text>
     </g>
    </g>
    <g id="text_5">
     <text style="fill:#262626;font-family:Arial;font-size:22px;font-style:normal;font-weight:normal;text-anchor:middle;" transform="rotate(-0, 208.984375, 350.412188)" x="208.984375" y="350.412188">Log %mismatch score</text>
    </g>
   </g>
   <g id="matplotlib.axis_2">
    <g id="ytick_1">
     <g id="line2d_5">
      <defs>
       <path d="M 0 0 
L -2 0 
" id="m91a9f61722" style="stroke:#262626;"/>
      </defs>
      <g>
       <use style="fill:#262626;stroke:#262626;" x="65.76875" xlink:href="#m91a9f61722" y="303.10625"/>
      </g>
     </g>
     <g id="text_6">
      <text style="fill:#262626;font-family:Arial;font-size:20px;font-style:normal;font-weight:normal;text-anchor:end;" transform="rotate(-0, 56.76875, 310.264063)" x="56.76875" y="310.264063">0.0</text>
     </g>
    </g>
    <g id="ytick_2">
     <g id="line2d_6">
      <g>
       <use style="fill:#262626;stroke:#262626;" x="65.76875" xlink:href="#m91a9f61722" y="236.02808"/>
      </g>
     </g>
     <g id="text_7">
      <text style="fill:#262626;font-family:Arial;font-size:20px;font-style:normal;font-weight:normal;text-anchor:end;" transform="rotate(-0, 56.76875, 243.185892)" x="56.76875" y="243.185892">0.1</text>
     </g>
    </g>
    <g id="ytick_3">
     <g id="line2d_7">
      <g>
       <use style="fill:#262626;stroke:#262626;" x="65.76875" xlink:href="#m91a9f61722" y="168.949909"/>
      </g>
     </g>
     <g id="text_8">
      <text style="fill:#262626;font-family:Arial;font-size:20px;font-style:normal;font-weight:normal;text-anchor:end;" transform="rotate(-0, 56.76875, 176.107722)" x="56.76875" y="176.107722">0.2</text>
     </g>
    </g>
    <g id="ytick_4">
     <g id="line2d_8">
      <g>
       <use style="fill:#262626;stroke:#262626;" x="65.76875" xlink:href="#m91a9f61722" y="101.871739"/>
      </g>
     </g>
     <g id="text_9">
      <text style="fill:#262626;font-family:Arial;font-size:20px;font-style:normal;font-weight:normal;text-anchor:end;" transform="rotate(-0, 56.76875, 109.029551)" x="56.76875" y="109.029551">0.3</text>
     </g>
    </g>
    <g id="ytick_5">
     <g id="line2d_9">
      <g>
       <use style="fill:#262626;stroke:#262626;" x="65.76875" xlink:href="#m91a9f61722" y="34.793569"/>
      </g>
     </g>
     <g id="text_10">
      <text style="fill:#262626;font-family:Arial;font-size:20px;font-style:normal;font-weight:normal;text-anchor:end;" transform="rotate(-0, 56.76875, 41.951381)" x="56.76875" y="41.951381">0.4</text>
     </g>
    </g>
    <g id="text_11">
     <text style="fill:#262626;font-family:Arial;font-size:22px;font-style:normal;font-weight:normal;text-anchor:middle;" transform="rotate(-90, 20.338437, 155.453125)" x="20.338437" y="155.453125">Density</text>
    </g>
   </g>
   <g id="patch_3">
    <path clip-path="url(#p9c1a523b73)" d="M -186.9944 303.10625 
L -184.412292 303.10625 
L -184.412292 303.104968 
L -186.9944 303.104968 
z
" style="fill:#0072b2;opacity:0.4;"/>
   </g>
   <g id="patch_4">
    <path clip-path="url(#p9c1a523b73)" d="M -184.412292 303.10625 
L -181.830185 303.10625 
L -181.830185 303.104968 
L -184.412292 303.104968 
z
" style="fill:#0072b2;opacity:0.4;"/>
   </g>
   <g id="patch_5">
    <path clip-path="url(#p9c1a523b73)" d="M -181.830185 303.10625 
L -179.248077 303.10625 
L -179.248077 303.10625 
L -181.830185 303.10625 
z
" style="fill:#0072b2;opacity:0.4;"/>
   </g>
   <g id="patch_6">
    <path clip-path="url(#p9c1a523b73)" d="M -179.248077 303.10625 
L -176.665969 303.10625 
L -176.665969 303.10625 
L -179.248077 303.10625 
z
" style="fill:#0072b2;opacity:0.4;"/>
   </g>
   <g id="patch_7">
    <path clip-path="url(#p9c1a523b73)" d="M -176.665969 303.10625 
L -174.083861 303.10625 
L -174.083861 303.10625 
L -176.665969 303.10625 
z
" style="fill:#0072b2;opacity:0.4;"/>
   </g>
   <g id="patch_8">
    <path clip-path="url(#p9c1a523b73)" d="M -174.083861 303.10625 
L -171.501753 303.10625 
L -171.501753 303.10625 
L -174.083861 303.10625 
z
" style="fill:#0072b2;opacity:0.4;"/>
   </g>
   <g id="patch_9">
    <path clip-path="url(#p9c1a523b73)" d="M -171.501753 303.10625 
L -168.919645 303.10625 
L -168.919645 303.10625 
L -171.501753 303.10625 
z
" style="fill:#0072b2;opacity:0.4;"/>
   </g>
   <g id="patch_10">
    <path clip-path="url(#p9c1a523b73)" d="M -168.919645 303.10625 
L -166.337537 303.10625 
L -166.337537 303.104968 
L -168.919645 303.104968 
z
" style="fill:#0072b2;opacity:0.4;"/>
   </g>
   <g id="patch_11">
    <path clip-path="url(#p9c1a523b73)" d="M -166.337537 303.10625 
L -163.75543 303.10625 
L -163.75543 303.10625 
L -166.337537 303.10625 
z
" style="fill:#0072b2;opacity:0.4;"/>
   </g>
   <g id="patch_12">
    <path clip-path="url(#p9c1a523b73)" d="M -163.75543 303.10625 
L -161.173322 303.10625 
L -161.173322 303.10625 
L -163.75543 303.10625 
z
" style="fill:#0072b2;opacity:0.4;"/>
   </g>
   <g id="patch_13">
    <path clip-path="url(#p9c1a523b73)" d="M -161.173322 303.10625 
L -158.591214 303.10625 
L -158.591214 303.10625 
L -161.173322 303.10625 
z
" style="fill:#0072b2;opacity:0.4;"/>
   </g>
   <g id="patch_14">
    <path clip-path="url(#p9c1a523b73)" d="M -158.591214 303.10625 
L -156.009106 303.10625 
L -156.009106 303.10625 
L -158.591214 303.10625 
z
" style="fill:#0072b2;opacity:0.4;"/>
   </g>
   <g id="patch_15">
    <path clip-path="url(#p9c1a523b73)" d="M -156.009106 303.10625 
L -153.426998 303.10625 
L -153.426998 303.10625 
L -156.009106 303.10625 
z
" style="fill:#0072b2;opacity:0.4;"/>
   </g>
   <g id="patch_16">
    <path clip-path="url(#p9c1a523b73)" d="M -153.426998 303.10625 
L -150.84489 303.10625 
L -150.84489 303.10625 
L -153.426998 303.10625 
z
" style="fill:#0072b2;opacity:0.4;"/>
   </g>
   <g id="patch_17">
    <path clip-path="url(#p9c1a523b73)" d="M -150.84489 303.10625 
L -148.262783 303.10625 
L -148.262783 303.104968 
L -150.84489 303.104968 
z
" style="fill:#0072b2;opacity:0.4;"/>
   </g>
   <g id="patch_18">
    <path clip-path="url(#p9c1a523b73)" d="M -148.262783 303.10625 
L -145.680675 303.10625 
L -145.680675 303.10625 
L -148.262783 303.10625 
z
" style="fill:#0072b2;opacity:0.4;"/>
   </g>
   <g id="patch_19">
    <path clip-path="url(#p9c1a523b73)" d="M -145.680675 303.10625 
L -143.098567 303.10625 
L -143.098567 303.10625 
L -145.680675 303.10625 
z
" style="fill:#0072b2;opacity:0.4;"/>
   </g>
   <g id="patch_20">
    <path clip-path="url(#p9c1a523b73)" d="M -143.098567 303.10625 
L -140.516459 303.10625 
L -140.516459 303.10625 
L -143.098567 303.10625 
z
" style="fill:#0072b2;opacity:0.4;"/>
   </g>
   <g id="patch_21">
    <path clip-path="url(#p9c1a523b73)" d="M -140.516459 303.10625 
L -137.934351 303.10625 
L -137.934351 303.10625 
L -140.516459 303.10625 
z
" style="fill:#0072b2;opacity:0.4;"/>
   </g>
   <g id="patch_22">
    <path clip-path="url(#p9c1a523b73)" d="M -137.934351 303.10625 
L -135.352243 303.10625 
L -135.352243 303.10625 
L -137.934351 303.10625 
z
" style="fill:#0072b2;opacity:0.4;"/>
   </g>
   <g id="patch_23">
    <path clip-path="url(#p9c1a523b73)" d="M -135.352243 303.10625 
L -132.770136 303.10625 
L -132.770136 303.10625 
L -135.352243 303.10625 
z
" style="fill:#0072b2;opacity:0.4;"/>
   </g>
   <g id="patch_24">
    <path clip-path="url(#p9c1a523b73)" d="M -132.770136 303.10625 
L -130.188028 303.10625 
L -130.188028 303.10625 
L -132.770136 303.10625 
z
" style="fill:#0072b2;opacity:0.4;"/>
   </g>
   <g id="patch_25">
    <path clip-path="url(#p9c1a523b73)" d="M -130.188028 303.10625 
L -127.60592 303.10625 
L -127.60592 303.10625 
L -130.188028 303.10625 
z
" style="fill:#0072b2;opacity:0.4;"/>
   </g>
   <g id="patch_26">
    <path clip-path="url(#p9c1a523b73)" d="M -127.60592 303.10625 
L -125.023812 303.10625 
L -125.023812 303.10625 
L -127.60592 303.10625 
z
" style="fill:#0072b2;opacity:0.4;"/>
   </g>
   <g id="patch_27">
    <path clip-path="url(#p9c1a523b73)" d="M -125.023812 303.10625 
L -122.441704 303.10625 
L -122.441704 303.10625 
L -125.023812 303.10625 
z
" style="fill:#0072b2;opacity:0.4;"/>
   </g>
   <g id="patch_28">
    <path clip-path="url(#p9c1a523b73)" d="M -122.441704 303.10625 
L -119.859596 303.10625 
L -119.859596 303.10625 
L -122.441704 303.10625 
z
" style="fill:#0072b2;opacity:0.4;"/>
   </g>
   <g id="patch_29">
    <path clip-path="url(#p9c1a523b73)" d="M -119.859596 303.10625 
L -117.277489 303.10625 
L -117.277489 303.10625 
L -119.859596 303.10625 
z
" style="fill:#0072b2;opacity:0.4;"/>
   </g>
   <g id="patch_30">
    <path clip-path="url(#p9c1a523b73)" d="M -117.277489 303.10625 
L -114.695381 303.10625 
L -114.695381 303.10625 
L -117.277489 303.10625 
z
" style="fill:#0072b2;opacity:0.4;"/>
   </g>
   <g id="patch_31">
    <path clip-path="url(#p9c1a523b73)" d="M -114.695381 303.10625 
L -112.113273 303.10625 
L -112.113273 303.10625 
L -114.695381 303.10625 
z
" style="fill:#0072b2;opacity:0.4;"/>
   </g>
   <g id="patch_32">
    <path clip-path="url(#p9c1a523b73)" d="M -112.113273 303.10625 
L -109.531165 303.10625 
L -109.531165 303.10625 
L -112.113273 303.10625 
z
" style="fill:#0072b2;opacity:0.4;"/>
   </g>
   <g id="patch_33">
    <path clip-path="url(#p9c1a523b73)" d="M -109.531165 303.10625 
L -106.949057 303.10625 
L -106.949057 303.102404 
L -109.531165 303.102404 
z
" style="fill:#0072b2;opacity:0.4;"/>
   </g>
   <g id="patch_34">
    <path clip-path="url(#p9c1a523b73)" d="M -106.949057 303.10625 
L -104.366949 303.10625 
L -104.366949 303.10625 
L -106.949057 303.10625 
z
" style="fill:#0072b2;opacity:0.4;"/>
   </g>
   <g id="patch_35">
    <path clip-path="url(#p9c1a523b73)" d="M -104.366949 303.10625 
L -101.784842 303.10625 
L -101.784842 303.104968 
L -104.366949 303.104968 
z
" style="fill:#0072b2;opacity:0.4;"/>
   </g>
   <g id="patch_36">
    <path clip-path="url(#p9c1a523b73)" d="M -101.784842 303.10625 
L -99.202734 303.10625 
L -99.202734 303.10625 
L -101.784842 303.10625 
z
" style="fill:#0072b2;opacity:0.4;"/>
   </g>
   <g id="patch_37">
    <path clip-path="url(#p9c1a523b73)" d="M -99.202734 303.10625 
L -96.620626 303.10625 
L -96.620626 303.10625 
L -99.202734 303.10625 
z
" style="fill:#0072b2;opacity:0.4;"/>
   </g>
   <g id="patch_38">
    <path clip-path="url(#p9c1a523b73)" d="M -96.620626 303.10625 
L -94.038518 303.10625 
L -94.038518 303.10625 
L -96.620626 303.10625 
z
" style="fill:#0072b2;opacity:0.4;"/>
   </g>
   <g id="patch_39">
    <path clip-path="url(#p9c1a523b73)" d="M -94.038518 303.10625 
L -91.45641 303.10625 
L -91.45641 303.104968 
L -94.038518 303.104968 
z
" style="fill:#0072b2;opacity:0.4;"/>
   </g>
   <g id="patch_40">
    <path clip-path="url(#p9c1a523b73)" d="M -91.45641 303.10625 
L -88.874302 303.10625 
L -88.874302 303.10625 
L -91.45641 303.10625 
z
" style="fill:#0072b2;opacity:0.4;"/>
   </g>
   <g id="patch_41">
    <path clip-path="url(#p9c1a523b73)" d="M -88.874302 303.10625 
L -86.292195 303.10625 
L -86.292195 303.104968 
L -88.874302 303.104968 
z
" style="fill:#0072b2;opacity:0.4;"/>
   </g>
   <g id="patch_42">
    <path clip-path="url(#p9c1a523b73)" d="M -86.292195 303.10625 
L -83.710087 303.10625 
L -83.710087 303.104968 
L -86.292195 303.104968 
z
" style="fill:#0072b2;opacity:0.4;"/>
   </g>
   <g id="patch_43">
    <path clip-path="url(#p9c1a523b73)" d="M -83.710087 303.10625 
L -81.127979 303.10625 
L -81.127979 303.103686 
L -83.710087 303.103686 
z
" style="fill:#0072b2;opacity:0.4;"/>
   </g>
   <g id="patch_44">
    <path clip-path="url(#p9c1a523b73)" d="M -81.127979 303.10625 
L -78.545871 303.10625 
L -78.545871 303.104968 
L -81.127979 303.104968 
z
" style="fill:#0072b2;opacity:0.4;"/>
   </g>
   <g id="patch_45">
    <path clip-path="url(#p9c1a523b73)" d="M -78.545871 303.10625 
L -75.963763 303.10625 
L -75.963763 303.104968 
L -78.545871 303.104968 
z
" style="fill:#0072b2;opacity:0.4;"/>
   </g>
   <g id="patch_46">
    <path clip-path="url(#p9c1a523b73)" d="M -75.963763 303.10625 
L -73.381655 303.10625 
L -73.381655 303.10625 
L -75.963763 303.10625 
z
" style="fill:#0072b2;opacity:0.4;"/>
   </g>
   <g id="patch_47">
    <path clip-path="url(#p9c1a523b73)" d="M -73.381655 303.10625 
L -70.799548 303.10625 
L -70.799548 303.103686 
L -73.381655 303.103686 
z
" style="fill:#0072b2;opacity:0.4;"/>
   </g>
   <g id="patch_48">
    <path clip-path="url(#p9c1a523b73)" d="M -70.799548 303.10625 
L -68.21744 303.10625 
L -68.21744 303.10625 
L -70.799548 303.10625 
z
" style="fill:#0072b2;opacity:0.4;"/>
   </g>
   <g id="patch_49">
    <path clip-path="url(#p9c1a523b73)" d="M -68.21744 303.10625 
L -65.635332 303.10625 
L -65.635332 303.104968 
L -68.21744 303.104968 
z
" style="fill:#0072b2;opacity:0.4;"/>
   </g>
   <g id="patch_50">
    <path clip-path="url(#p9c1a523b73)" d="M -65.635332 303.10625 
L -63.053224 303.10625 
L -63.053224 303.103686 
L -65.635332 303.103686 
z
" style="fill:#0072b2;opacity:0.4;"/>
   </g>
   <g id="patch_51">
    <path clip-path="url(#p9c1a523b73)" d="M -63.053224 303.10625 
L -60.471116 303.10625 
L -60.471116 303.103686 
L -63.053224 303.103686 
z
" style="fill:#0072b2;opacity:0.4;"/>
   </g>
   <g id="patch_52">
    <path clip-path="url(#p9c1a523b73)" d="M -60.471116 303.10625 
L -57.889008 303.10625 
L -57.889008 303.103686 
L -60.471116 303.103686 
z
" style="fill:#0072b2;opacity:0.4;"/>
   </g>
   <g id="patch_53">
    <path clip-path="url(#p9c1a523b73)" d="M -57.889008 303.10625 
L -55.306901 303.10625 
L -55.306901 303.104968 
L -57.889008 303.104968 
z
" style="fill:#0072b2;opacity:0.4;"/>
   </g>
   <g id="patch_54">
    <path clip-path="url(#p9c1a523b73)" d="M -55.306901 303.10625 
L -52.724793 303.10625 
L -52.724793 303.103686 
L -55.306901 303.103686 
z
" style="fill:#0072b2;opacity:0.4;"/>
   </g>
   <g id="patch_55">
    <path clip-path="url(#p9c1a523b73)" d="M -52.724793 303.10625 
L -50.142685 303.10625 
L -50.142685 303.102404 
L -52.724793 303.102404 
z
" style="fill:#0072b2;opacity:0.4;"/>
   </g>
   <g id="patch_56">
    <path clip-path="url(#p9c1a523b73)" d="M -50.142685 303.10625 
L -47.560577 303.10625 
L -47.560577 303.104968 
L -50.142685 303.104968 
z
" style="fill:#0072b2;opacity:0.4;"/>
   </g>
   <g id="patch_57">
    <path clip-path="url(#p9c1a523b73)" d="M -47.560577 303.10625 
L -44.978469 303.10625 
L -44.978469 303.094713 
L -47.560577 303.094713 
z
" style="fill:#0072b2;opacity:0.4;"/>
   </g>
   <g id="patch_58">
    <path clip-path="url(#p9c1a523b73)" d="M -44.978469 303.10625 
L -42.396361 303.10625 
L -42.396361 303.103686 
L -44.978469 303.103686 
z
" style="fill:#0072b2;opacity:0.4;"/>
   </g>
   <g id="patch_59">
    <path clip-path="url(#p9c1a523b73)" d="M -42.396361 303.10625 
L -39.814254 303.10625 
L -39.814254 303.104968 
L -42.396361 303.104968 
z
" style="fill:#0072b2;opacity:0.4;"/>
   </g>
   <g id="patch_60">
    <path clip-path="url(#p9c1a523b73)" d="M -39.814254 303.10625 
L -37.232146 303.10625 
L -37.232146 303.098559 
L -39.814254 303.098559 
z
" style="fill:#0072b2;opacity:0.4;"/>
   </g>
   <g id="patch_61">
    <path clip-path="url(#p9c1a523b73)" d="M -37.232146 303.10625 
L -34.650038 303.10625 
L -34.650038 303.101122 
L -37.232146 303.101122 
z
" style="fill:#0072b2;opacity:0.4;"/>
   </g>
   <g id="patch_62">
    <path clip-path="url(#p9c1a523b73)" d="M -34.650038 303.10625 
L -32.06793 303.10625 
L -32.06793 303.103686 
L -34.650038 303.103686 
z
" style="fill:#0072b2;opacity:0.4;"/>
   </g>
   <g id="patch_63">
    <path clip-path="url(#p9c1a523b73)" d="M -32.06793 303.10625 
L -29.485822 303.10625 
L -29.485822 303.101122 
L -32.06793 303.101122 
z
" style="fill:#0072b2;opacity:0.4;"/>
   </g>
   <g id="patch_64">
    <path clip-path="url(#p9c1a523b73)" d="M -29.485822 303.10625 
L -26.903714 303.10625 
L -26.903714 303.101122 
L -29.485822 303.101122 
z
" style="fill:#0072b2;opacity:0.4;"/>
   </g>
   <g id="patch_65">
    <path clip-path="url(#p9c1a523b73)" d="M -26.903714 303.10625 
L -24.321607 303.10625 
L -24.321607 303.102404 
L -26.903714 303.102404 
z
" style="fill:#0072b2;opacity:0.4;"/>
   </g>
   <g id="patch_66">
    <path clip-path="url(#p9c1a523b73)" d="M -24.321607 303.10625 
L -21.739499 303.10625 
L -21.739499 303.097277 
L -24.321607 303.097277 
z
" style="fill:#0072b2;opacity:0.4;"/>
   </g>
   <g id="patch_67">
    <path clip-path="url(#p9c1a523b73)" d="M -21.739499 303.10625 
L -19.157391 303.10625 
L -19.157391 303.102404 
L -21.739499 303.102404 
z
" style="fill:#0072b2;opacity:0.4;"/>
   </g>
   <g id="patch_68">
    <path clip-path="url(#p9c1a523b73)" d="M -19.157391 303.10625 
L -16.575283 303.10625 
L -16.575283 303.088303 
L -19.157391 303.088303 
z
" style="fill:#0072b2;opacity:0.4;"/>
   </g>
   <g id="patch_69">
    <path clip-path="url(#p9c1a523b73)" d="M -16.575283 303.10625 
L -13.993175 303.10625 
L -13.993175 303.098559 
L -16.575283 303.098559 
z
" style="fill:#0072b2;opacity:0.4;"/>
   </g>
   <g id="patch_70">
    <path clip-path="url(#p9c1a523b73)" d="M -13.993175 303.10625 
L -11.411067 303.10625 
L -11.411067 303.094713 
L -13.993175 303.094713 
z
" style="fill:#0072b2;opacity:0.4;"/>
   </g>
   <g id="patch_71">
    <path clip-path="url(#p9c1a523b73)" d="M -11.411067 303.10625 
L -8.82896 303.10625 
L -8.82896 303.088303 
L -11.411067 303.088303 
z
" style="fill:#0072b2;opacity:0.4;"/>
   </g>
   <g id="patch_72">
    <path clip-path="url(#p9c1a523b73)" d="M -8.82896 303.10625 
L -6.246852 303.10625 
L -6.246852 303.093431 
L -8.82896 303.093431 
z
" style="fill:#0072b2;opacity:0.4;"/>
   </g>
   <g id="patch_73">
    <path clip-path="url(#p9c1a523b73)" d="M -6.246852 303.10625 
L -3.664744 303.10625 
L -3.664744 303.092149 
L -6.246852 303.092149 
z
" style="fill:#0072b2;opacity:0.4;"/>
   </g>
   <g id="patch_74">
    <path clip-path="url(#p9c1a523b73)" d="M -3.664744 303.10625 
L -1.082636 303.10625 
L -1.082636 303.093431 
L -3.664744 303.093431 
z
" style="fill:#0072b2;opacity:0.4;"/>
   </g>
   <g id="patch_75">
    <path clip-path="url(#p9c1a523b73)" d="M -1.082636 303.10625 
L 1.499472 303.10625 
L 1.499472 303.090867 
L -1.082636 303.090867 
z
" style="fill:#0072b2;opacity:0.4;"/>
   </g>
   <g id="patch_76">
    <path clip-path="url(#p9c1a523b73)" d="M 1.499472 303.10625 
L 4.08158 303.10625 
L 4.08158 303.095995 
L 1.499472 303.095995 
z
" style="fill:#0072b2;opacity:0.4;"/>
   </g>
   <g id="patch_77">
    <path clip-path="url(#p9c1a523b73)" d="M 4.08158 303.10625 
L 6.663687 303.10625 
L 6.663687 303.084458 
L 4.08158 303.084458 
z
" style="fill:#0072b2;opacity:0.4;"/>
   </g>
   <g id="patch_78">
    <path clip-path="url(#p9c1a523b73)" d="M 6.663687 303.10625 
L 9.245795 303.10625 
L 9.245795 301.767945 
L 6.663687 301.767945 
z
" style="fill:#0072b2;opacity:0.4;"/>
   </g>
   <g id="patch_79">
    <path clip-path="url(#p9c1a523b73)" d="M 9.245795 303.10625 
L 11.827903 303.10625 
L 11.827903 303.088303 
L 9.245795 303.088303 
z
" style="fill:#0072b2;opacity:0.4;"/>
   </g>
   <g id="patch_80">
    <path clip-path="url(#p9c1a523b73)" d="M 11.827903 303.10625 
L 14.410011 303.10625 
L 14.410011 303.083176 
L 11.827903 303.083176 
z
" style="fill:#0072b2;opacity:0.4;"/>
   </g>
   <g id="patch_81">
    <path clip-path="url(#p9c1a523b73)" d="M 14.410011 303.10625 
L 16.992119 303.10625 
L 16.992119 303.084458 
L 14.410011 303.084458 
z
" style="fill:#0072b2;opacity:0.4;"/>
   </g>
   <g id="patch_82">
    <path clip-path="url(#p9c1a523b73)" d="M 16.992119 303.10625 
L 19.574227 303.10625 
L 19.574227 303.07933 
L 16.992119 303.07933 
z
" style="fill:#0072b2;opacity:0.4;"/>
   </g>
   <g id="patch_83">
    <path clip-path="url(#p9c1a523b73)" d="M 19.574227 303.10625 
L 22.156334 303.10625 
L 22.156334 303.08574 
L 19.574227 303.08574 
z
" style="fill:#0072b2;opacity:0.4;"/>
   </g>
   <g id="patch_84">
    <path clip-path="url(#p9c1a523b73)" d="M 22.156334 303.10625 
L 24.738442 303.10625 
L 24.738442 303.083176 
L 22.156334 303.083176 
z
" style="fill:#0072b2;opacity:0.4;"/>
   </g>
   <g id="patch_85">
    <path clip-path="url(#p9c1a523b73)" d="M 24.738442 303.10625 
L 27.32055 303.10625 
L 27.32055 303.066511 
L 24.738442 303.066511 
z
" style="fill:#0072b2;opacity:0.4;"/>
   </g>
   <g id="patch_86">
    <path clip-path="url(#p9c1a523b73)" d="M 27.32055 303.10625 
L 29.902658 303.10625 
L 29.902658 303.072921 
L 27.32055 303.072921 
z
" style="fill:#0072b2;opacity:0.4;"/>
   </g>
   <g id="patch_87">
    <path clip-path="url(#p9c1a523b73)" d="M 29.902658 303.10625 
L 32.484766 303.10625 
L 32.484766 303.060102 
L 29.902658 303.060102 
z
" style="fill:#0072b2;opacity:0.4;"/>
   </g>
   <g id="patch_88">
    <path clip-path="url(#p9c1a523b73)" d="M 32.484766 303.10625 
L 35.066874 303.10625 
L 35.066874 303.067793 
L 32.484766 303.067793 
z
" style="fill:#0072b2;opacity:0.4;"/>
   </g>
   <g id="patch_89">
    <path clip-path="url(#p9c1a523b73)" d="M 35.066874 303.10625 
L 37.648981 303.10625 
L 37.648981 303.056256 
L 35.066874 303.056256 
z
" style="fill:#0072b2;opacity:0.4;"/>
   </g>
   <g id="patch_90">
    <path clip-path="url(#p9c1a523b73)" d="M 37.648981 303.10625 
L 40.231089 303.10625 
L 40.231089 303.061383 
L 37.648981 303.061383 
z
" style="fill:#0072b2;opacity:0.4;"/>
   </g>
   <g id="patch_91">
    <path clip-path="url(#p9c1a523b73)" d="M 40.231089 303.10625 
L 42.813197 303.10625 
L 42.813197 303.039591 
L 40.231089 303.039591 
z
" style="fill:#0072b2;opacity:0.4;"/>
   </g>
   <g id="patch_92">
    <path clip-path="url(#p9c1a523b73)" d="M 42.813197 303.10625 
L 45.395305 303.10625 
L 45.395305 303.048564 
L 42.813197 303.048564 
z
" style="fill:#0072b2;opacity:0.4;"/>
   </g>
   <g id="patch_93">
    <path clip-path="url(#p9c1a523b73)" d="M 45.395305 303.10625 
L 47.977413 303.10625 
L 47.977413 303.042155 
L 45.395305 303.042155 
z
" style="fill:#0072b2;opacity:0.4;"/>
   </g>
   <g id="patch_94">
    <path clip-path="url(#p9c1a523b73)" d="M 47.977413 303.10625 
L 50.559521 303.10625 
L 50.559521 303.05882 
L 47.977413 303.05882 
z
" style="fill:#0072b2;opacity:0.4;"/>
   </g>
   <g id="patch_95">
    <path clip-path="url(#p9c1a523b73)" d="M 50.559521 303.10625 
L 53.141628 303.10625 
L 53.141628 303.053692 
L 50.559521 303.053692 
z
" style="fill:#0072b2;opacity:0.4;"/>
   </g>
   <g id="patch_96">
    <path clip-path="url(#p9c1a523b73)" d="M 53.141628 303.10625 
L 55.723736 303.10625 
L 55.723736 303.042155 
L 53.141628 303.042155 
z
" style="fill:#0072b2;opacity:0.4;"/>
   </g>
   <g id="patch_97">
    <path clip-path="url(#p9c1a523b73)" d="M 55.723736 303.10625 
L 58.305844 303.10625 
L 58.305844 303.002416 
L 55.723736 303.002416 
z
" style="fill:#0072b2;opacity:0.4;"/>
   </g>
   <g id="patch_98">
    <path clip-path="url(#p9c1a523b73)" d="M 58.305844 303.10625 
L 60.887952 303.10625 
L 60.887952 303.028054 
L 58.305844 303.028054 
z
" style="fill:#0072b2;opacity:0.4;"/>
   </g>
   <g id="patch_99">
    <path clip-path="url(#p9c1a523b73)" d="M 60.887952 303.10625 
L 63.47006 303.10625 
L 63.47006 302.993443 
L 60.887952 302.993443 
z
" style="fill:#0072b2;opacity:0.4;"/>
   </g>
   <g id="patch_100">
    <path clip-path="url(#p9c1a523b73)" d="M 63.47006 303.10625 
L 66.052168 303.10625 
L 66.052168 303.003698 
L 63.47006 303.003698 
z
" style="fill:#0072b2;opacity:0.4;"/>
   </g>
   <g id="patch_101">
    <path clip-path="url(#p9c1a523b73)" d="M 66.052168 303.10625 
L 68.634275 303.10625 
L 68.634275 302.987033 
L 66.052168 302.987033 
z
" style="fill:#0072b2;opacity:0.4;"/>
   </g>
   <g id="patch_102">
    <path clip-path="url(#p9c1a523b73)" d="M 68.634275 303.10625 
L 71.216383 303.10625 
L 71.216383 302.94473 
L 68.634275 302.94473 
z
" style="fill:#0072b2;opacity:0.4;"/>
   </g>
   <g id="patch_103">
    <path clip-path="url(#p9c1a523b73)" d="M 71.216383 303.10625 
L 73.798491 303.10625 
L 73.798491 302.948576 
L 71.216383 302.948576 
z
" style="fill:#0072b2;opacity:0.4;"/>
   </g>
   <g id="patch_104">
    <path clip-path="url(#p9c1a523b73)" d="M 73.798491 303.10625 
L 76.380599 303.10625 
L 76.380599 302.915247 
L 73.798491 302.915247 
z
" style="fill:#0072b2;opacity:0.4;"/>
   </g>
   <g id="patch_105">
    <path clip-path="url(#p9c1a523b73)" d="M 76.380599 303.10625 
L 78.962707 303.10625 
L 78.962707 302.893454 
L 76.380599 302.893454 
z
" style="fill:#0072b2;opacity:0.4;"/>
   </g>
   <g id="patch_106">
    <path clip-path="url(#p9c1a523b73)" d="M 78.962707 303.10625 
L 81.544815 303.10625 
L 81.544815 302.874226 
L 78.962707 302.874226 
z
" style="fill:#0072b2;opacity:0.4;"/>
   </g>
   <g id="patch_107">
    <path clip-path="url(#p9c1a523b73)" d="M 81.544815 303.10625 
L 84.126922 303.10625 
L 84.126922 302.860125 
L 81.544815 302.860125 
z
" style="fill:#0072b2;opacity:0.4;"/>
   </g>
   <g id="patch_108">
    <path clip-path="url(#p9c1a523b73)" d="M 84.126922 303.10625 
L 86.70903 303.10625 
L 86.70903 302.835769 
L 84.126922 302.835769 
z
" style="fill:#0072b2;opacity:0.4;"/>
   </g>
   <g id="patch_109">
    <path clip-path="url(#p9c1a523b73)" d="M 86.70903 303.10625 
L 89.291138 303.10625 
L 89.291138 302.760137 
L 86.70903 302.760137 
z
" style="fill:#0072b2;opacity:0.4;"/>
   </g>
   <g id="patch_110">
    <path clip-path="url(#p9c1a523b73)" d="M 89.291138 303.10625 
L 91.873246 303.10625 
L 91.873246 302.765264 
L 89.291138 302.765264 
z
" style="fill:#0072b2;opacity:0.4;"/>
   </g>
   <g id="patch_111">
    <path clip-path="url(#p9c1a523b73)" d="M 91.873246 303.10625 
L 94.455354 303.10625 
L 94.455354 302.616564 
L 91.873246 302.616564 
z
" style="fill:#0072b2;opacity:0.4;"/>
   </g>
   <g id="patch_112">
    <path clip-path="url(#p9c1a523b73)" d="M 94.455354 303.10625 
L 97.037462 303.10625 
L 97.037462 302.578107 
L 94.455354 302.578107 
z
" style="fill:#0072b2;opacity:0.4;"/>
   </g>
   <g id="patch_113">
    <path clip-path="url(#p9c1a523b73)" d="M 97.037462 303.10625 
L 99.619569 303.10625 
L 99.619569 302.525549 
L 97.037462 302.525549 
z
" style="fill:#0072b2;opacity:0.4;"/>
   </g>
   <g id="patch_114">
    <path clip-path="url(#p9c1a523b73)" d="M 99.619569 303.10625 
L 102.201677 303.10625 
L 102.201677 302.381976 
L 99.619569 302.381976 
z
" style="fill:#0072b2;opacity:0.4;"/>
   </g>
   <g id="patch_115">
    <path clip-path="url(#p9c1a523b73)" d="M 102.201677 303.10625 
L 104.783785 303.10625 
L 104.783785 302.201228 
L 102.201677 302.201228 
z
" style="fill:#0072b2;opacity:0.4;"/>
   </g>
   <g id="patch_116">
    <path clip-path="url(#p9c1a523b73)" d="M 104.783785 303.10625 
L 107.365893 303.10625 
L 107.365893 301.998687 
L 104.783785 301.998687 
z
" style="fill:#0072b2;opacity:0.4;"/>
   </g>
   <g id="patch_117">
    <path clip-path="url(#p9c1a523b73)" d="M 107.365893 303.10625 
L 109.948001 303.10625 
L 109.948001 301.796147 
L 107.365893 301.796147 
z
" style="fill:#0072b2;opacity:0.4;"/>
   </g>
   <g id="patch_118">
    <path clip-path="url(#p9c1a523b73)" d="M 109.948001 303.10625 
L 112.530109 303.10625 
L 112.530109 301.535921 
L 109.948001 301.535921 
z
" style="fill:#0072b2;opacity:0.4;"/>
   </g>
   <g id="patch_119">
    <path clip-path="url(#p9c1a523b73)" d="M 112.530109 303.10625 
L 115.112217 303.10625 
L 115.112217 301.110329 
L 112.530109 301.110329 
z
" style="fill:#0072b2;opacity:0.4;"/>
   </g>
   <g id="patch_120">
    <path clip-path="url(#p9c1a523b73)" d="M 115.112217 303.10625 
L 117.694324 303.10625 
L 117.694324 300.788572 
L 115.112217 300.788572 
z
" style="fill:#0072b2;opacity:0.4;"/>
   </g>
   <g id="patch_121">
    <path clip-path="url(#p9c1a523b73)" d="M 117.694324 303.10625 
L 120.276432 303.10625 
L 120.276432 300.195052 
L 117.694324 300.195052 
z
" style="fill:#0072b2;opacity:0.4;"/>
   </g>
   <g id="patch_122">
    <path clip-path="url(#p9c1a523b73)" d="M 120.276432 303.10625 
L 122.85854 303.10625 
L 122.85854 299.705365 
L 120.276432 299.705365 
z
" style="fill:#0072b2;opacity:0.4;"/>
   </g>
   <g id="patch_123">
    <path clip-path="url(#p9c1a523b73)" d="M 122.85854 303.10625 
L 125.440648 303.10625 
L 125.440648 298.651643 
L 122.85854 298.651643 
z
" style="fill:#0072b2;opacity:0.4;"/>
   </g>
   <g id="patch_124">
    <path clip-path="url(#p9c1a523b73)" d="M 125.440648 303.10625 
L 128.022756 303.10625 
L 128.022756 297.547925 
L 125.440648 297.547925 
z
" style="fill:#0072b2;opacity:0.4;"/>
   </g>
   <g id="patch_125">
    <path clip-path="url(#p9c1a523b73)" d="M 128.022756 303.10625 
L 130.604864 303.10625 
L 130.604864 296.360885 
L 128.022756 296.360885 
z
" style="fill:#0072b2;opacity:0.4;"/>
   </g>
   <g id="patch_126">
    <path clip-path="url(#p9c1a523b73)" d="M 130.604864 303.10625 
L 133.186971 303.10625 
L 133.186971 294.827731 
L 130.604864 294.827731 
z
" style="fill:#0072b2;opacity:0.4;"/>
   </g>
   <g id="patch_127">
    <path clip-path="url(#p9c1a523b73)" d="M 133.186971 303.10625 
L 135.769079 303.10625 
L 135.769079 293.467633 
L 133.186971 293.467633 
z
" style="fill:#0072b2;opacity:0.4;"/>
   </g>
   <g id="patch_128">
    <path clip-path="url(#p9c1a523b73)" d="M 135.769079 303.10625 
L 138.351187 303.10625 
L 138.351187 291.444793 
L 135.769079 291.444793 
z
" style="fill:#0072b2;opacity:0.4;"/>
   </g>
   <g id="patch_129">
    <path clip-path="url(#p9c1a523b73)" d="M 138.351187 303.10625 
L 140.933295 303.10625 
L 140.933295 288.448989 
L 138.351187 288.448989 
z
" style="fill:#0072b2;opacity:0.4;"/>
   </g>
   <g id="patch_130">
    <path clip-path="url(#p9c1a523b73)" d="M 140.933295 303.10625 
L 143.515403 303.10625 
L 143.515403 285.896723 
L 140.933295 285.896723 
z
" style="fill:#0072b2;opacity:0.4;"/>
   </g>
   <g id="patch_131">
    <path clip-path="url(#p9c1a523b73)" d="M 143.515403 303.10625 
L 146.097511 303.10625 
L 146.097511 282.077939 
L 143.515403 282.077939 
z
" style="fill:#0072b2;opacity:0.4;"/>
   </g>
   <g id="patch_132">
    <path clip-path="url(#p9c1a523b73)" d="M 146.097511 303.10625 
L 148.679618 303.10625 
L 148.679618 277.241325 
L 146.097511 277.241325 
z
" style="fill:#0072b2;opacity:0.4;"/>
   </g>
   <g id="patch_133">
    <path clip-path="url(#p9c1a523b73)" d="M 148.679618 303.10625 
L 151.261726 303.10625 
L 151.261726 272.000912 
L 148.679618 272.000912 
z
" style="fill:#0072b2;opacity:0.4;"/>
   </g>
   <g id="patch_134">
    <path clip-path="url(#p9c1a523b73)" d="M 151.261726 303.10625 
L 153.843834 303.10625 
L 153.843834 265.990076 
L 151.261726 265.990076 
z
" style="fill:#0072b2;opacity:0.4;"/>
   </g>
   <g id="patch_135">
    <path clip-path="url(#p9c1a523b73)" d="M 153.843834 303.10625 
L 156.425942 303.10625 
L 156.425942 257.992293 
L 153.843834 257.992293 
z
" style="fill:#0072b2;opacity:0.4;"/>
   </g>
   <g id="patch_136">
    <path clip-path="url(#p9c1a523b73)" d="M 156.425942 303.10625 
L 159.00805 303.10625 
L 159.00805 249.627886 
L 156.425942 249.627886 
z
" style="fill:#0072b2;opacity:0.4;"/>
   </g>
   <g id="patch_137">
    <path clip-path="url(#p9c1a523b73)" d="M 159.00805 303.10625 
L 161.590158 303.10625 
L 161.590158 238.313824 
L 159.00805 238.313824 
z
" style="fill:#0072b2;opacity:0.4;"/>
   </g>
   <g id="patch_138">
    <path clip-path="url(#p9c1a523b73)" d="M 161.590158 303.10625 
L 164.172265 303.10625 
L 164.172265 229.590485 
L 161.590158 229.590485 
z
" style="fill:#0072b2;opacity:0.4;"/>
   </g>
   <g id="patch_139">
    <path clip-path="url(#p9c1a523b73)" d="M 164.172265 303.10625 
L 166.754373 303.10625 
L 166.754373 217.545739 
L 164.172265 217.545739 
z
" style="fill:#0072b2;opacity:0.4;"/>
   </g>
   <g id="patch_140">
    <path clip-path="url(#p9c1a523b73)" d="M 166.754373 303.10625 
L 169.336481 303.10625 
L 169.336481 204.852351 
L 166.754373 204.852351 
z
" style="fill:#0072b2;opacity:0.4;"/>
   </g>
   <g id="patch_141">
    <path clip-path="url(#p9c1a523b73)" d="M 169.336481 303.10625 
L 171.918589 303.10625 
L 171.918589 191.566724 
L 169.336481 191.566724 
z
" style="fill:#0072b2;opacity:0.4;"/>
   </g>
   <g id="patch_142">
    <path clip-path="url(#p9c1a523b73)" d="M 171.918589 303.10625 
L 174.500697 303.10625 
L 174.500697 175.028914 
L 171.918589 175.028914 
z
" style="fill:#0072b2;opacity:0.4;"/>
   </g>
   <g id="patch_143">
    <path clip-path="url(#p9c1a523b73)" d="M 174.500697 303.10625 
L 177.082805 303.10625 
L 177.082805 161.072853 
L 174.500697 161.072853 
z
" style="fill:#0072b2;opacity:0.4;"/>
   </g>
   <g id="patch_144">
    <path clip-path="url(#p9c1a523b73)" d="M 177.082805 303.10625 
L 179.664912 303.10625 
L 179.664912 144.496585 
L 177.082805 144.496585 
z
" style="fill:#0072b2;opacity:0.4;"/>
   </g>
   <g id="patch_145">
    <path clip-path="url(#p9c1a523b73)" d="M 179.664912 303.10625 
L 182.24702 303.10625 
L 182.24702 127.306287 
L 179.664912 127.306287 
z
" style="fill:#0072b2;opacity:0.4;"/>
   </g>
   <g id="patch_146">
    <path clip-path="url(#p9c1a523b73)" d="M 182.24702 303.10625 
L 184.829128 303.10625 
L 184.829128 110.968453 
L 182.24702 110.968453 
z
" style="fill:#0072b2;opacity:0.4;"/>
   </g>
   <g id="patch_147">
    <path clip-path="url(#p9c1a523b73)" d="M 184.829128 303.10625 
L 187.411236 303.10625 
L 187.411236 95.019035 
L 184.829128 95.019035 
z
" style="fill:#0072b2;opacity:0.4;"/>
   </g>
   <g id="patch_148">
    <path clip-path="url(#p9c1a523b73)" d="M 187.411236 303.10625 
L 189.993344 303.10625 
L 189.993344 80.128468 
L 187.411236 80.128468 
z
" style="fill:#0072b2;opacity:0.4;"/>
   </g>
   <g id="patch_149">
    <path clip-path="url(#p9c1a523b73)" d="M 189.993344 303.10625 
L 192.575452 303.10625 
L 192.575452 64.295704 
L 189.993344 64.295704 
z
" style="fill:#0072b2;opacity:0.4;"/>
   </g>
   <g id="patch_150">
    <path clip-path="url(#p9c1a523b73)" d="M 192.575452 303.10625 
L 195.157559 303.10625 
L 195.157559 51.178006 
L 192.575452 51.178006 
z
" style="fill:#0072b2;opacity:0.4;"/>
   </g>
   <g id="patch_151">
    <path clip-path="url(#p9c1a523b73)" d="M 195.157559 303.10625 
L 197.739667 303.10625 
L 197.739667 42.566192 
L 195.157559 42.566192 
z
" style="fill:#0072b2;opacity:0.4;"/>
   </g>
   <g id="patch_152">
    <path clip-path="url(#p9c1a523b73)" d="M 197.739667 303.10625 
L 200.321775 303.10625 
L 200.321775 32.767338 
L 197.739667 32.767338 
z
" style="fill:#0072b2;opacity:0.4;"/>
   </g>
   <g id="patch_153">
    <path clip-path="url(#p9c1a523b73)" d="M 200.321775 303.10625 
L 202.903883 303.10625 
L 202.903883 27.515388 
L 200.321775 27.515388 
z
" style="fill:#0072b2;opacity:0.4;"/>
   </g>
   <g id="patch_154">
    <path clip-path="url(#p9c1a523b73)" d="M 202.903883 303.10625 
L 205.485991 303.10625 
L 205.485991 23.045397 
L 202.903883 23.045397 
z
" style="fill:#0072b2;opacity:0.4;"/>
   </g>
   <g id="patch_155">
    <path clip-path="url(#p9c1a523b73)" d="M 205.485991 303.10625 
L 208.068099 303.10625 
L 208.068099 21.862202 
L 205.485991 21.862202 
z
" style="fill:#0072b2;opacity:0.4;"/>
   </g>
   <g id="patch_156">
    <path clip-path="url(#p9c1a523b73)" d="M 208.068099 303.10625 
L 210.650206 303.10625 
L 210.650206 27.162865 
L 208.068099 27.162865 
z
" style="fill:#0072b2;opacity:0.4;"/>
   </g>
   <g id="patch_157">
    <path clip-path="url(#p9c1a523b73)" d="M 210.650206 303.10625 
L 213.232314 303.10625 
L 213.232314 28.913942 
L 210.650206 28.913942 
z
" style="fill:#0072b2;opacity:0.4;"/>
   </g>
   <g id="patch_158">
    <path clip-path="url(#p9c1a523b73)" d="M 213.232314 303.10625 
L 215.814422 303.10625 
L 215.814422 36.531001 
L 213.232314 36.531001 
z
" style="fill:#0072b2;opacity:0.4;"/>
   </g>
   <g id="patch_159">
    <path clip-path="url(#p9c1a523b73)" d="M 215.814422 303.10625 
L 218.39653 303.10625 
L 218.39653 44.028842 
L 215.814422 44.028842 
z
" style="fill:#0072b2;opacity:0.4;"/>
   </g>
   <g id="patch_160">
    <path clip-path="url(#p9c1a523b73)" d="M 218.39653 303.10625 
L 220.978638 303.10625 
L 220.978638 54.237905 
L 218.39653 54.237905 
z
" style="fill:#0072b2;opacity:0.4;"/>
   </g>
   <g id="patch_161">
    <path clip-path="url(#p9c1a523b73)" d="M 220.978638 303.10625 
L 223.560746 303.10625 
L 223.560746 62.070323 
L 220.978638 62.070323 
z
" style="fill:#0072b2;opacity:0.4;"/>
   </g>
   <g id="patch_162">
    <path clip-path="url(#p9c1a523b73)" d="M 223.560746 303.10625 
L 226.142853 303.10625 
L 226.142853 73.733062 
L 223.560746 73.733062 
z
" style="fill:#0072b2;opacity:0.4;"/>
   </g>
   <g id="patch_163">
    <path clip-path="url(#p9c1a523b73)" d="M 226.142853 303.10625 
L 228.724961 303.10625 
L 228.724961 83.179394 
L 226.142853 83.179394 
z
" style="fill:#0072b2;opacity:0.4;"/>
   </g>
   <g id="patch_164">
    <path clip-path="url(#p9c1a523b73)" d="M 228.724961 303.10625 
L 231.307069 303.10625 
L 231.307069 95.210039 
L 228.724961 95.210039 
z
" style="fill:#0072b2;opacity:0.4;"/>
   </g>
   <g id="patch_165">
    <path clip-path="url(#p9c1a523b73)" d="M 231.307069 303.10625 
L 233.889177 303.10625 
L 233.889177 104.16412 
L 231.307069 104.16412 
z
" style="fill:#0072b2;opacity:0.4;"/>
   </g>
   <g id="patch_166">
    <path clip-path="url(#p9c1a523b73)" d="M 233.889177 303.10625 
L 236.471285 303.10625 
L 236.471285 112.1055 
L 233.889177 112.1055 
z
" style="fill:#0072b2;opacity:0.4;"/>
   </g>
   <g id="patch_167">
    <path clip-path="url(#p9c1a523b73)" d="M 236.471285 303.10625 
L 239.053393 303.10625 
L 239.053393 122.212011 
L 236.471285 122.212011 
z
" style="fill:#0072b2;opacity:0.4;"/>
   </g>
   <g id="patch_168">
    <path clip-path="url(#p9c1a523b73)" d="M 239.053393 303.10625 
L 241.6355 303.10625 
L 241.6355 130.684097 
L 239.053393 130.684097 
z
" style="fill:#0072b2;opacity:0.4;"/>
   </g>
   <g id="patch_169">
    <path clip-path="url(#p9c1a523b73)" d="M 241.6355 303.10625 
L 244.217608 303.10625 
L 244.217608 139.793289 
L 241.6355 139.793289 
z
" style="fill:#0072b2;opacity:0.4;"/>
   </g>
   <g id="patch_170">
    <path clip-path="url(#p9c1a523b73)" d="M 244.217608 303.10625 
L 246.799716 303.10625 
L 246.799716 148.101292 
L 244.217608 148.101292 
z
" style="fill:#0072b2;opacity:0.4;"/>
   </g>
   <g id="patch_171">
    <path clip-path="url(#p9c1a523b73)" d="M 246.799716 303.10625 
L 249.381824 303.10625 
L 249.381824 157.900147 
L 246.799716 157.900147 
z
" style="fill:#0072b2;opacity:0.4;"/>
   </g>
   <g id="patch_172">
    <path clip-path="url(#p9c1a523b73)" d="M 249.381824 303.10625 
L 251.963932 303.10625 
L 251.963932 166.710655 
L 249.381824 166.710655 
z
" style="fill:#0072b2;opacity:0.4;"/>
   </g>
   <g id="patch_173">
    <path clip-path="url(#p9c1a523b73)" d="M 251.963932 303.10625 
L 254.54604 303.10625 
L 254.54604 175.469888 
L 251.963932 175.469888 
z
" style="fill:#0072b2;opacity:0.4;"/>
   </g>
   <g id="patch_174">
    <path clip-path="url(#p9c1a523b73)" d="M 254.54604 303.10625 
L 257.128147 303.10625 
L 257.128147 182.444713 
L 254.54604 182.444713 
z
" style="fill:#0072b2;opacity:0.4;"/>
   </g>
   <g id="patch_175">
    <path clip-path="url(#p9c1a523b73)" d="M 257.128147 303.10625 
L 259.710255 303.10625 
L 259.710255 190.746307 
L 257.128147 190.746307 
z
" style="fill:#0072b2;opacity:0.4;"/>
   </g>
   <g id="patch_176">
    <path clip-path="url(#p9c1a523b73)" d="M 259.710255 303.10625 
L 262.292363 303.10625 
L 262.292363 197.212218 
L 259.710255 197.212218 
z
" style="fill:#0072b2;opacity:0.4;"/>
   </g>
   <g id="patch_177">
    <path clip-path="url(#p9c1a523b73)" d="M 262.292363 303.10625 
L 264.874471 303.10625 
L 264.874471 201.651443 
L 262.292363 201.651443 
z
" style="fill:#0072b2;opacity:0.4;"/>
   </g>
   <g id="patch_178">
    <path clip-path="url(#p9c1a523b73)" d="M 264.874471 303.10625 
L 267.456579 303.10625 
L 267.456579 208.107098 
L 264.874471 208.107098 
z
" style="fill:#0072b2;opacity:0.4;"/>
   </g>
   <g id="patch_179">
    <path clip-path="url(#p9c1a523b73)" d="M 267.456579 303.10625 
L 270.038687 303.10625 
L 270.038687 214.106397 
L 267.456579 214.106397 
z
" style="fill:#0072b2;opacity:0.4;"/>
   </g>
   <g id="patch_180">
    <path clip-path="url(#p9c1a523b73)" d="M 270.038687 303.10625 
L 272.620794 303.10625 
L 272.620794 216.572775 
L 270.038687 216.572775 
z
" style="fill:#0072b2;opacity:0.4;"/>
   </g>
   <g id="patch_181">
    <path clip-path="url(#p9c1a523b73)" d="M 272.620794 303.10625 
L 275.202902 303.10625 
L 275.202902 218.878916 
L 272.620794 218.878916 
z
" style="fill:#0072b2;opacity:0.4;"/>
   </g>
   <g id="patch_182">
    <path clip-path="url(#p9c1a523b73)" d="M 275.202902 303.10625 
L 277.78501 303.10625 
L 277.78501 222.450294 
L 275.202902 222.450294 
z
" style="fill:#0072b2;opacity:0.4;"/>
   </g>
   <g id="patch_183">
    <path clip-path="url(#p9c1a523b73)" d="M 277.78501 303.10625 
L 280.367118 303.10625 
L 280.367118 225.393539 
L 277.78501 225.393539 
z
" style="fill:#0072b2;opacity:0.4;"/>
   </g>
   <g id="patch_184">
    <path clip-path="url(#p9c1a523b73)" d="M 280.367118 303.10625 
L 282.949226 303.10625 
L 282.949226 226.669031 
L 280.367118 226.669031 
z
" style="fill:#0072b2;opacity:0.4;"/>
   </g>
   <g id="patch_185">
    <path clip-path="url(#p9c1a523b73)" d="M 282.949226 303.10625 
L 285.531334 303.10625 
L 285.531334 226.275487 
L 282.949226 226.275487 
z
" style="fill:#0072b2;opacity:0.4;"/>
   </g>
   <g id="patch_186">
    <path clip-path="url(#p9c1a523b73)" d="M 285.531334 303.10625 
L 288.113441 303.10625 
L 288.113441 224.55133 
L 285.531334 224.55133 
z
" style="fill:#0072b2;opacity:0.4;"/>
   </g>
   <g id="patch_187">
    <path clip-path="url(#p9c1a523b73)" d="M 288.113441 303.10625 
L 290.695549 303.10625 
L 290.695549 223.227126 
L 288.113441 223.227126 
z
" style="fill:#0072b2;opacity:0.4;"/>
   </g>
   <g id="patch_188">
    <path clip-path="url(#p9c1a523b73)" d="M 290.695549 303.10625 
L 293.277657 303.10625 
L 293.277657 222.290056 
L 290.695549 222.290056 
z
" style="fill:#0072b2;opacity:0.4;"/>
   </g>
   <g id="patch_189">
    <path clip-path="url(#p9c1a523b73)" d="M 293.277657 303.10625 
L 295.859765 303.10625 
L 295.859765 220.8633 
L 293.277657 220.8633 
z
" style="fill:#0072b2;opacity:0.4;"/>
   </g>
   <g id="patch_190">
    <path clip-path="url(#p9c1a523b73)" d="M 295.859765 303.10625 
L 298.441873 303.10625 
L 298.441873 221.42349 
L 295.859765 221.42349 
z
" style="fill:#0072b2;opacity:0.4;"/>
   </g>
   <g id="patch_191">
    <path clip-path="url(#p9c1a523b73)" d="M 298.441873 303.10625 
L 301.023981 303.10625 
L 301.023981 227.053602 
L 298.441873 227.053602 
z
" style="fill:#0072b2;opacity:0.4;"/>
   </g>
   <g id="patch_192">
    <path clip-path="url(#p9c1a523b73)" d="M 301.023981 303.10625 
L 303.606088 303.10625 
L 303.606088 237.938227 
L 301.023981 237.938227 
z
" style="fill:#0072b2;opacity:0.4;"/>
   </g>
   <g id="patch_193">
    <path clip-path="url(#p9c1a523b73)" d="M 303.606088 303.10625 
L 306.188196 303.10625 
L 306.188196 251.668673 
L 303.606088 251.668673 
z
" style="fill:#0072b2;opacity:0.4;"/>
   </g>
   <g id="patch_194">
    <path clip-path="url(#p9c1a523b73)" d="M 306.188196 303.10625 
L 308.770304 303.10625 
L 308.770304 268.134697 
L 306.188196 268.134697 
z
" style="fill:#0072b2;opacity:0.4;"/>
   </g>
   <g id="patch_195">
    <path clip-path="url(#p9c1a523b73)" d="M 308.770304 303.10625 
L 311.352412 303.10625 
L 311.352412 283.180374 
L 308.770304 283.180374 
z
" style="fill:#0072b2;opacity:0.4;"/>
   </g>
   <g id="patch_196">
    <path clip-path="url(#p9c1a523b73)" d="M 311.352412 303.10625 
L 313.93452 303.10625 
L 313.93452 293.153567 
L 311.352412 293.153567 
z
" style="fill:#0072b2;opacity:0.4;"/>
   </g>
   <g id="patch_197">
    <path clip-path="url(#p9c1a523b73)" d="M 313.93452 303.10625 
L 316.516628 303.10625 
L 316.516628 299.302848 
L 313.93452 299.302848 
z
" style="fill:#0072b2;opacity:0.4;"/>
   </g>
   <g id="patch_198">
    <path clip-path="url(#p9c1a523b73)" d="M 316.516628 303.10625 
L 319.098735 303.10625 
L 319.098735 301.941002 
L 316.516628 301.941002 
z
" style="fill:#0072b2;opacity:0.4;"/>
   </g>
   <g id="patch_199">
    <path clip-path="url(#p9c1a523b73)" d="M 319.098735 303.10625 
L 321.680843 303.10625 
L 321.680843 302.784493 
L 319.098735 302.784493 
z
" style="fill:#0072b2;opacity:0.4;"/>
   </g>
   <g id="patch_200">
    <path clip-path="url(#p9c1a523b73)" d="M 321.680843 303.10625 
L 324.262951 303.10625 
L 324.262951 303.048564 
L 321.680843 303.048564 
z
" style="fill:#0072b2;opacity:0.4;"/>
   </g>
   <g id="patch_201">
    <path clip-path="url(#p9c1a523b73)" d="M 324.262951 303.10625 
L 326.845059 303.10625 
L 326.845059 303.094713 
L 324.262951 303.094713 
z
" style="fill:#0072b2;opacity:0.4;"/>
   </g>
   <g id="patch_202">
    <path clip-path="url(#p9c1a523b73)" d="M 326.845059 303.10625 
L 329.427167 303.10625 
L 329.427167 303.101122 
L 326.845059 303.101122 
z
" style="fill:#0072b2;opacity:0.4;"/>
   </g>
   <g id="line2d_10">
    <path clip-path="url(#p9c1a523b73)" d="M 280.367118 303.10625 
L 280.367118 7.8 
" style="fill:none;stroke:#000000;stroke-dasharray:6.475,2.8;stroke-dashoffset:0;stroke-width:1.75;"/>
   </g>
   <g id="patch_203">
    <path d="M 65.76875 303.10625 
L 65.76875 7.8 
" style="fill:none;stroke:#262626;stroke-linecap:square;stroke-linejoin:miter;stroke-width:1.25;"/>
   </g>
   <g id="patch_204">
    <path d="M 352.2 303.10625 
L 352.2 7.8 
" style="fill:none;stroke:#262626;stroke-linecap:square;stroke-linejoin:miter;stroke-width:1.25;"/>
   </g>
   <g id="patch_205">
    <path d="M 65.76875 303.10625 
L 352.2 303.10625 
" style="fill:none;stroke:#262626;stroke-linecap:square;stroke-linejoin:miter;stroke-width:1.25;"/>
   </g>
   <g id="patch_206">
    <path d="M 65.76875 7.8 
L 352.2 7.8 
" style="fill:none;stroke:#262626;stroke-linecap:square;stroke-linejoin:miter;stroke-width:1.25;"/>
   </g>
  </g>
 </g>
 <defs>
  <clipPath id="p9c1a523b73">
   <rect height="295.30625" width="286.43125" x="65.76875" y="7.8"/>
  </clipPath>
 </defs>
</svg>
