<?xml version="1.0" encoding="UTF-8" standalone="no"?>
<!DOCTYPE svg PUBLIC "-//W3C//DTD SVG 1.0//EN"
  "http://www.w3.org/TR/SVG/DTD/svg10.dtd">
<svg xmlns="http://www.w3.org/2000/svg" version="1.2" baseProfile="tiny"
     width="811px" height="790px" viewport-fill="#ffffff" >
<desc>
Created with Chemtool 1.6.13 from file /home/matthew/Documents/papers_and_thesis/thesis/introduction/figures/raw/g_quartet/g_quartet.svg 
</desc>
<g>
<line x1="238" y1="156" x2="238" y2="220"
style="stroke-width:2; stroke:#000000" />
<line x1="245" y1="163" x2="245" y2="213"
style="stroke-width:2; stroke:#000000" />
<line x1="238" y1="220" x2="293" y2="252"
style="stroke-width:2; stroke:#000000" />
<line x1="293" y1="252" x2="336" y2="225"
style="stroke-width:2; stroke:#000000" />
<line x1="347" y1="207" x2="347" y2="156"
style="stroke-width:2; stroke:#000000" />
<line x1="347" y1="156" x2="302" y2="129"
style="stroke-width:2; stroke:#000000" />
<line x1="338" y1="158" x2="304" y2="138"
style="stroke-width:2; stroke:#000000" />
<line x1="281" y1="129" x2="238" y2="156"
style="stroke-width:2; stroke:#000000" />
<line x1="238" y1="156" x2="189" y2="140"
style="stroke-width:2; stroke:#000000" />
<line x1="170" y1="146" x2="142" y2="187"
style="stroke-width:2; stroke:#000000" />
<line x1="142" y1="187" x2="171" y2="228"
style="stroke-width:2; stroke:#000000" />
<line x1="151" y1="188" x2="172" y2="219"
style="stroke-width:2; stroke:#000000" />
<line x1="190" y1="234" x2="238" y2="220"
style="stroke-width:2; stroke:#000000" />
<line x1="347" y1="156" x2="390" y2="131"
style="stroke-width:2; stroke:#000000" />
<line x1="401" y1="113" x2="401" y2="74"
style="stroke-width:2; stroke:#000000" />
<line x1="411" y1="131" x2="444" y2="151"
style="stroke-width:2; stroke:#000000" />
<line x1="357" y1="225" x2="390" y2="245"
style="stroke-width:2; stroke:#000000" />
<line x1="178" y1="124" x2="178" y2="86"
style="stroke-width:2; stroke:#000000" />
<line x1="142" y1="187" x2="90" y2="187"
style="stroke-width:2; stroke:#000000" />
<line x1="289" y1="252" x2="289" y2="302"
style="stroke-width:2; stroke:#000000" />
<line x1="297" y1="252" x2="297" y2="302"
style="stroke-width:2; stroke:#000000" />
<line x1="630" y1="217" x2="566" y2="217"
style="stroke-width:2; stroke:#000000" />
<line x1="623" y1="224" x2="573" y2="224"
style="stroke-width:2; stroke:#000000" />
<line x1="566" y1="217" x2="534" y2="273"
style="stroke-width:2; stroke:#000000" />
<line x1="534" y1="273" x2="560" y2="315"
style="stroke-width:2; stroke:#000000" />
<line x1="579" y1="326" x2="631" y2="326"
style="stroke-width:2; stroke:#000000" />
<line x1="631" y1="326" x2="656" y2="280"
style="stroke-width:2; stroke:#000000" />
<line x1="629" y1="317" x2="647" y2="282"
style="stroke-width:2; stroke:#000000" />
<line x1="655" y1="259" x2="630" y2="217"
style="stroke-width:2; stroke:#000000" />
<line x1="630" y1="217" x2="644" y2="168"
style="stroke-width:2; stroke:#000000" />
<line x1="638" y1="150" x2="598" y2="121"
style="stroke-width:2; stroke:#000000" />
<line x1="598" y1="121" x2="556" y2="150"
style="stroke-width:2; stroke:#000000" />
<line x1="597" y1="130" x2="565" y2="151"
style="stroke-width:2; stroke:#000000" />
<line x1="550" y1="169" x2="566" y2="217"
style="stroke-width:2; stroke:#000000" />
<line x1="631" y1="326" x2="654" y2="368"
style="stroke-width:2; stroke:#000000" />
<line x1="673" y1="379" x2="712" y2="379"
style="stroke-width:2; stroke:#000000" />
<line x1="655" y1="389" x2="636" y2="423"
style="stroke-width:2; stroke:#000000" />
<line x1="560" y1="336" x2="541" y2="370"
style="stroke-width:2; stroke:#000000" />
<line x1="659" y1="156" x2="699" y2="156"
style="stroke-width:2; stroke:#000000" />
<line x1="598" y1="121" x2="597" y2="68"
style="stroke-width:2; stroke:#000000" />
<line x1="534" y1="276" x2="483" y2="276"
style="stroke-width:2; stroke:#000000" />
<line x1="534" y1="270" x2="483" y2="270"
style="stroke-width:2; stroke:#000000" />
<line x1="571" y1="613" x2="571" y2="549"
style="stroke-width:2; stroke:#000000" />
<line x1="564" y1="606" x2="564" y2="556"
style="stroke-width:2; stroke:#000000" />
<line x1="571" y1="549" x2="516" y2="517"
style="stroke-width:2; stroke:#000000" />
<line x1="516" y1="517" x2="472" y2="543"
style="stroke-width:2; stroke:#000000" />
<line x1="462" y1="561" x2="462" y2="613"
style="stroke-width:2; stroke:#000000" />
<line x1="462" y1="613" x2="506" y2="639"
style="stroke-width:2; stroke:#000000" />
<line x1="471" y1="611" x2="504" y2="630"
style="stroke-width:2; stroke:#000000" />
<line x1="527" y1="639" x2="571" y2="613"
style="stroke-width:2; stroke:#000000" />
<line x1="571" y1="613" x2="619" y2="628"
style="stroke-width:2; stroke:#000000" />
<line x1="638" y1="622" x2="667" y2="582"
style="stroke-width:2; stroke:#000000" />
<line x1="667" y1="582" x2="637" y2="540"
style="stroke-width:2; stroke:#000000" />
<line x1="658" y1="581" x2="636" y2="549"
style="stroke-width:2; stroke:#000000" />
<line x1="618" y1="534" x2="571" y2="549"
style="stroke-width:2; stroke:#000000" />
<line x1="462" y1="613" x2="418" y2="637"
style="stroke-width:2; stroke:#000000" />
<line x1="408" y1="655" x2="408" y2="694"
style="stroke-width:2; stroke:#000000" />
<line x1="397" y1="637" x2="364" y2="617"
style="stroke-width:2; stroke:#000000" />
<line x1="451" y1="543" x2="418" y2="523"
style="stroke-width:2; stroke:#000000" />
<line x1="631" y1="644" x2="631" y2="682"
style="stroke-width:2; stroke:#000000" />
<line x1="667" y1="582" x2="718" y2="582"
style="stroke-width:2; stroke:#000000" />
<line x1="520" y1="517" x2="520" y2="466"
style="stroke-width:2; stroke:#000000" />
<line x1="512" y1="517" x2="512" y2="466"
style="stroke-width:2; stroke:#000000" />
<line x1="175" y1="551" x2="239" y2="551"
style="stroke-width:2; stroke:#000000" />
<line x1="182" y1="544" x2="232" y2="544"
style="stroke-width:2; stroke:#000000" />
<line x1="239" y1="551" x2="271" y2="496"
style="stroke-width:2; stroke:#000000" />
<line x1="271" y1="496" x2="245" y2="452"
style="stroke-width:2; stroke:#000000" />
<line x1="226" y1="442" x2="175" y2="442"
style="stroke-width:2; stroke:#000000" />
<line x1="175" y1="442" x2="149" y2="486"
style="stroke-width:2; stroke:#000000" />
<line x1="177" y1="451" x2="158" y2="484"
style="stroke-width:2; stroke:#000000" />
<line x1="149" y1="507" x2="175" y2="551"
style="stroke-width:2; stroke:#000000" />
<line x1="175" y1="551" x2="159" y2="599"
style="stroke-width:2; stroke:#000000" />
<line x1="165" y1="617" x2="206" y2="647"
style="stroke-width:2; stroke:#000000" />
<line x1="206" y1="647" x2="247" y2="617"
style="stroke-width:2; stroke:#000000" />
<line x1="207" y1="638" x2="238" y2="616"
style="stroke-width:2; stroke:#000000" />
<line x1="253" y1="598" x2="239" y2="551"
style="stroke-width:2; stroke:#000000" />
<line x1="175" y1="442" x2="150" y2="398"
style="stroke-width:2; stroke:#000000" />
<line x1="132" y1="388" x2="93" y2="388"
style="stroke-width:2; stroke:#000000" />
<line x1="151" y1="377" x2="170" y2="344"
style="stroke-width:2; stroke:#000000" />
<line x1="245" y1="431" x2="264" y2="398"
style="stroke-width:2; stroke:#000000" />
<line x1="143" y1="611" x2="105" y2="611"
style="stroke-width:2; stroke:#000000" />
<line x1="206" y1="647" x2="206" y2="698"
style="stroke-width:2; stroke:#000000" />
<line x1="271" y1="493" x2="321" y2="493"
style="stroke-width:2; stroke:#000000" />
<line x1="271" y1="499" x2="321" y2="499"
style="stroke-width:2; stroke:#000000" />
<line x1="175" y1="250" x2="181" y2="250"
style="stroke-width:2; stroke:#000000" />
<line x1="174" y1="257" x2="180" y2="257"
style="stroke-width:2; stroke:#000000" />
<line x1="174" y1="264" x2="180" y2="264"
style="stroke-width:2; stroke:#000000" />
<line x1="174" y1="271" x2="180" y2="271"
style="stroke-width:2; stroke:#000000" />
<line x1="174" y1="278" x2="180" y2="278"
style="stroke-width:2; stroke:#000000" />
<line x1="174" y1="285" x2="180" y2="285"
style="stroke-width:2; stroke:#000000" />
<line x1="174" y1="292" x2="180" y2="292"
style="stroke-width:2; stroke:#000000" />
<line x1="174" y1="299" x2="180" y2="299"
style="stroke-width:2; stroke:#000000" />
<line x1="174" y1="306" x2="180" y2="306"
style="stroke-width:2; stroke:#000000" />
<line x1="174" y1="313" x2="180" y2="313"
style="stroke-width:2; stroke:#000000" />
<line x1="286" y1="325" x2="292" y2="327"
style="stroke-width:2; stroke:#000000" />
<line x1="284" y1="330" x2="290" y2="332"
style="stroke-width:2; stroke:#000000" />
<line x1="283" y1="335" x2="289" y2="337"
style="stroke-width:2; stroke:#000000" />
<line x1="281" y1="340" x2="287" y2="342"
style="stroke-width:2; stroke:#000000" />
<line x1="280" y1="345" x2="286" y2="347"
style="stroke-width:2; stroke:#000000" />
<line x1="278" y1="350" x2="284" y2="352"
style="stroke-width:2; stroke:#000000" />
<line x1="277" y1="355" x2="283" y2="357"
style="stroke-width:2; stroke:#000000" />
<line x1="275" y1="360" x2="281" y2="362"
style="stroke-width:2; stroke:#000000" />
<line x1="274" y1="365" x2="280" y2="367"
style="stroke-width:2; stroke:#000000" />
<line x1="272" y1="370" x2="278" y2="372"
style="stroke-width:2; stroke:#000000" />
<line x1="346" y1="495" x2="344" y2="501"
style="stroke-width:2; stroke:#000000" />
<line x1="351" y1="496" x2="349" y2="502"
style="stroke-width:2; stroke:#000000" />
<line x1="356" y1="498" x2="354" y2="504"
style="stroke-width:2; stroke:#000000" />
<line x1="361" y1="499" x2="359" y2="505"
style="stroke-width:2; stroke:#000000" />
<line x1="366" y1="501" x2="364" y2="507"
style="stroke-width:2; stroke:#000000" />
<line x1="371" y1="503" x2="369" y2="509"
style="stroke-width:2; stroke:#000000" />
<line x1="376" y1="504" x2="374" y2="510"
style="stroke-width:2; stroke:#000000" />
<line x1="381" y1="506" x2="379" y2="512"
style="stroke-width:2; stroke:#000000" />
<line x1="386" y1="507" x2="384" y2="513"
style="stroke-width:2; stroke:#000000" />
<line x1="391" y1="509" x2="389" y2="515"
style="stroke-width:2; stroke:#000000" />
<line x1="340" y1="614" x2="340" y2="608"
style="stroke-width:2; stroke:#000000" />
<line x1="331" y1="614" x2="331" y2="608"
style="stroke-width:2; stroke:#000000" />
<line x1="323" y1="614" x2="323" y2="608"
style="stroke-width:2; stroke:#000000" />
<line x1="315" y1="614" x2="315" y2="608"
style="stroke-width:2; stroke:#000000" />
<line x1="307" y1="614" x2="307" y2="608"
style="stroke-width:2; stroke:#000000" />
<line x1="299" y1="614" x2="299" y2="608"
style="stroke-width:2; stroke:#000000" />
<line x1="291" y1="614" x2="291" y2="608"
style="stroke-width:2; stroke:#000000" />
<line x1="283" y1="614" x2="283" y2="608"
style="stroke-width:2; stroke:#000000" />
<line x1="275" y1="614" x2="275" y2="608"
style="stroke-width:2; stroke:#000000" />
<line x1="267" y1="614" x2="267" y2="608"
style="stroke-width:2; stroke:#000000" />
<line x1="521" y1="443" x2="515" y2="441"
style="stroke-width:2; stroke:#000000" />
<line x1="522" y1="438" x2="516" y2="436"
style="stroke-width:2; stroke:#000000" />
<line x1="523" y1="433" x2="517" y2="431"
style="stroke-width:2; stroke:#000000" />
<line x1="524" y1="428" x2="518" y2="426"
style="stroke-width:2; stroke:#000000" />
<line x1="526" y1="423" x2="520" y2="421"
style="stroke-width:2; stroke:#000000" />
<line x1="527" y1="418" x2="521" y2="416"
style="stroke-width:2; stroke:#000000" />
<line x1="528" y1="413" x2="522" y2="411"
style="stroke-width:2; stroke:#000000" />
<line x1="530" y1="408" x2="524" y2="406"
style="stroke-width:2; stroke:#000000" />
<line x1="531" y1="403" x2="525" y2="401"
style="stroke-width:2; stroke:#000000" />
<line x1="532" y1="398" x2="526" y2="396"
style="stroke-width:2; stroke:#000000" />
<line x1="634" y1="517" x2="626" y2="517"
style="stroke-width:2; stroke:#000000" />
<line x1="634" y1="508" x2="626" y2="508"
style="stroke-width:2; stroke:#000000" />
<line x1="634" y1="500" x2="626" y2="500"
style="stroke-width:2; stroke:#000000" />
<line x1="634" y1="492" x2="626" y2="492"
style="stroke-width:2; stroke:#000000" />
<line x1="634" y1="484" x2="626" y2="484"
style="stroke-width:2; stroke:#000000" />
<line x1="634" y1="476" x2="626" y2="476"
style="stroke-width:2; stroke:#000000" />
<line x1="634" y1="468" x2="626" y2="468"
style="stroke-width:2; stroke:#000000" />
<line x1="634" y1="460" x2="626" y2="460"
style="stroke-width:2; stroke:#000000" />
<line x1="634" y1="452" x2="626" y2="452"
style="stroke-width:2; stroke:#000000" />
<line x1="634" y1="444" x2="626" y2="444"
style="stroke-width:2; stroke:#000000" />
<line x1="413" y1="252" x2="411" y2="258"
style="stroke-width:2; stroke:#000000" />
<line x1="417" y1="253" x2="415" y2="259"
style="stroke-width:2; stroke:#000000" />
<line x1="422" y1="254" x2="420" y2="260"
style="stroke-width:2; stroke:#000000" />
<line x1="427" y1="256" x2="425" y2="262"
style="stroke-width:2; stroke:#000000" />
<line x1="431" y1="257" x2="429" y2="263"
style="stroke-width:2; stroke:#000000" />
<line x1="436" y1="259" x2="434" y2="265"
style="stroke-width:2; stroke:#000000" />
<line x1="441" y1="260" x2="439" y2="266"
style="stroke-width:2; stroke:#000000" />
<line x1="445" y1="261" x2="443" y2="267"
style="stroke-width:2; stroke:#000000" />
<line x1="450" y1="263" x2="448" y2="269"
style="stroke-width:2; stroke:#000000" />
<line x1="455" y1="264" x2="453" y2="270"
style="stroke-width:2; stroke:#000000" />
<line x1="468" y1="155" x2="468" y2="161"
style="stroke-width:2; stroke:#000000" />
<line x1="474" y1="155" x2="474" y2="161"
style="stroke-width:2; stroke:#000000" />
<line x1="481" y1="155" x2="481" y2="161"
style="stroke-width:2; stroke:#000000" />
<line x1="487" y1="155" x2="487" y2="161"
style="stroke-width:2; stroke:#000000" />
<line x1="494" y1="155" x2="494" y2="161"
style="stroke-width:2; stroke:#000000" />
<line x1="500" y1="155" x2="500" y2="161"
style="stroke-width:2; stroke:#000000" />
<line x1="507" y1="155" x2="507" y2="161"
style="stroke-width:2; stroke:#000000" />
<line x1="513" y1="155" x2="513" y2="161"
style="stroke-width:2; stroke:#000000" />
<line x1="520" y1="155" x2="520" y2="161"
style="stroke-width:2; stroke:#000000" />
<line x1="526" y1="155" x2="526" y2="161"
style="stroke-width:2; stroke:#000000" />
<text x="170" y="82" style="font-family:Helvetica; font-size:22pt; fill:#000000;text-anchor:start;" > 
<tspan>
R</tspan>
</text>
<text x="170" y="145" style="font-family:Helvetica; font-size:22pt; fill:#000000;text-anchor:start;" > 
<tspan>
N</tspan>
</text>
<text x="171" y="246" style="font-family:Helvetica; font-size:22pt; fill:#000000;text-anchor:start;" > 
<tspan>
N</tspan>
</text>
<text x="284" y="132" style="font-family:Helvetica; font-size:22pt; fill:#000000;text-anchor:start;" > 
<tspan>
N</tspan>
</text>
<text x="339" y="228" style="font-family:Helvetica; font-size:22pt; fill:#000000;text-anchor:start;" > 
<tspan>
N</tspan>
</text>
<text x="393" y="134" style="font-family:Helvetica; font-size:22pt; fill:#000000;text-anchor:start;" > 
<tspan>
N</tspan>
</text>
<text x="285" y="323" style="font-family:Helvetica; font-size:22pt; fill:#000000;text-anchor:start;" > 
<tspan>
O</tspan>
</text>
<text x="393" y="70" style="font-family:Helvetica; font-size:22pt; fill:#000000;text-anchor:start;" > 
<tspan>
H</tspan>
</text>
<text x="447" y="166" style="font-family:Helvetica; font-size:22pt; fill:#000000;text-anchor:start;" > 
<tspan>
H</tspan>
</text>
<text x="393" y="260" style="font-family:Helvetica; font-size:22pt; fill:#000000;text-anchor:start;" > 
<tspan>
H</tspan>
</text>
<text x="70" y="195" style="font-family:Helvetica; font-size:22pt; fill:#000000;text-anchor:start;" > 
<tspan>
H</tspan>
</text>
<text x="170" y="82" style="font-family:Helvetica; font-size:22pt; fill:#000000;text-anchor:start;" > 
<tspan>
R</tspan>
</text>
<text x="170" y="145" style="font-family:Helvetica; font-size:22pt; fill:#000000;text-anchor:start;" > 
<tspan>
N</tspan>
</text>
<text x="171" y="246" style="font-family:Helvetica; font-size:22pt; fill:#000000;text-anchor:start;" > 
<tspan>
N</tspan>
</text>
<text x="284" y="132" style="font-family:Helvetica; font-size:22pt; fill:#000000;text-anchor:start;" > 
<tspan>
N</tspan>
</text>
<text x="339" y="228" style="font-family:Helvetica; font-size:22pt; fill:#000000;text-anchor:start;" > 
<tspan>
N</tspan>
</text>
<text x="393" y="134" style="font-family:Helvetica; font-size:22pt; fill:#000000;text-anchor:start;" > 
<tspan>
N</tspan>
</text>
<text x="285" y="323" style="font-family:Helvetica; font-size:22pt; fill:#000000;text-anchor:start;" > 
<tspan>
O</tspan>
</text>
<text x="393" y="70" style="font-family:Helvetica; font-size:22pt; fill:#000000;text-anchor:start;" > 
<tspan>
H</tspan>
</text>
<text x="447" y="166" style="font-family:Helvetica; font-size:22pt; fill:#000000;text-anchor:start;" > 
<tspan>
H</tspan>
</text>
<text x="393" y="260" style="font-family:Helvetica; font-size:22pt; fill:#000000;text-anchor:start;" > 
<tspan>
H</tspan>
</text>
<text x="70" y="195" style="font-family:Helvetica; font-size:22pt; fill:#000000;text-anchor:start;" > 
<tspan>
H</tspan>
</text>
<text x="703" y="164" style="font-family:Helvetica; font-size:22pt; fill:#000000;text-anchor:start;" > 
<tspan>
R</tspan>
</text>
<text x="640" y="165" style="font-family:Helvetica; font-size:22pt; fill:#000000;text-anchor:start;" > 
<tspan>
N</tspan>
</text>
<text x="539" y="166" style="font-family:Helvetica; font-size:22pt; fill:#000000;text-anchor:start;" > 
<tspan>
N</tspan>
</text>
<text x="654" y="278" style="font-family:Helvetica; font-size:22pt; fill:#000000;text-anchor:start;" > 
<tspan>
N</tspan>
</text>
<text x="559" y="334" style="font-family:Helvetica; font-size:22pt; fill:#000000;text-anchor:start;" > 
<tspan>
N</tspan>
</text>
<text x="653" y="387" style="font-family:Helvetica; font-size:22pt; fill:#000000;text-anchor:start;" > 
<tspan>
N</tspan>
</text>
<text x="463" y="281" style="font-family:Helvetica; font-size:22pt; fill:#000000;text-anchor:start;" > 
<tspan>
O</tspan>
</text>
<text x="717" y="387" style="font-family:Helvetica; font-size:22pt; fill:#000000;text-anchor:start;" > 
<tspan>
H</tspan>
</text>
<text x="622" y="442" style="font-family:Helvetica; font-size:22pt; fill:#000000;text-anchor:start;" > 
<tspan>
H</tspan>
</text>
<text x="527" y="389" style="font-family:Helvetica; font-size:22pt; fill:#000000;text-anchor:start;" > 
<tspan>
H</tspan>
</text>
<text x="589" y="65" style="font-family:Helvetica; font-size:22pt; fill:#000000;text-anchor:start;" > 
<tspan>
H</tspan>
</text>
<text x="703" y="164" style="font-family:Helvetica; font-size:22pt; fill:#000000;text-anchor:start;" > 
<tspan>
R</tspan>
</text>
<text x="640" y="165" style="font-family:Helvetica; font-size:22pt; fill:#000000;text-anchor:start;" > 
<tspan>
N</tspan>
</text>
<text x="539" y="166" style="font-family:Helvetica; font-size:22pt; fill:#000000;text-anchor:start;" > 
<tspan>
N</tspan>
</text>
<text x="654" y="278" style="font-family:Helvetica; font-size:22pt; fill:#000000;text-anchor:start;" > 
<tspan>
N</tspan>
</text>
<text x="559" y="334" style="font-family:Helvetica; font-size:22pt; fill:#000000;text-anchor:start;" > 
<tspan>
N</tspan>
</text>
<text x="653" y="387" style="font-family:Helvetica; font-size:22pt; fill:#000000;text-anchor:start;" > 
<tspan>
N</tspan>
</text>
<text x="463" y="281" style="font-family:Helvetica; font-size:22pt; fill:#000000;text-anchor:start;" > 
<tspan>
O</tspan>
</text>
<text x="717" y="387" style="font-family:Helvetica; font-size:22pt; fill:#000000;text-anchor:start;" > 
<tspan>
H</tspan>
</text>
<text x="622" y="442" style="font-family:Helvetica; font-size:22pt; fill:#000000;text-anchor:start;" > 
<tspan>
H</tspan>
</text>
<text x="527" y="389" style="font-family:Helvetica; font-size:22pt; fill:#000000;text-anchor:start;" > 
<tspan>
H</tspan>
</text>
<text x="589" y="65" style="font-family:Helvetica; font-size:22pt; fill:#000000;text-anchor:start;" > 
<tspan>
H</tspan>
</text>
<text x="623" y="703" style="font-family:Helvetica; font-size:22pt; fill:#000000;text-anchor:start;" > 
<tspan>
R</tspan>
</text>
<text x="623" y="640" style="font-family:Helvetica; font-size:22pt; fill:#000000;text-anchor:start;" > 
<tspan>
N</tspan>
</text>
<text x="622" y="539" style="font-family:Helvetica; font-size:22pt; fill:#000000;text-anchor:start;" > 
<tspan>
N</tspan>
</text>
<text x="509" y="653" style="font-family:Helvetica; font-size:22pt; fill:#000000;text-anchor:start;" > 
<tspan>
N</tspan>
</text>
<text x="454" y="557" style="font-family:Helvetica; font-size:22pt; fill:#000000;text-anchor:start;" > 
<tspan>
N</tspan>
</text>
<text x="400" y="651" style="font-family:Helvetica; font-size:22pt; fill:#000000;text-anchor:start;" > 
<tspan>
N</tspan>
</text>
<text x="508" y="462" style="font-family:Helvetica; font-size:22pt; fill:#000000;text-anchor:start;" > 
<tspan>
O</tspan>
</text>
<text x="400" y="715" style="font-family:Helvetica; font-size:22pt; fill:#000000;text-anchor:start;" > 
<tspan>
H</tspan>
</text>
<text x="346" y="619" style="font-family:Helvetica; font-size:22pt; fill:#000000;text-anchor:start;" > 
<tspan>
H</tspan>
</text>
<text x="400" y="525" style="font-family:Helvetica; font-size:22pt; fill:#000000;text-anchor:start;" > 
<tspan>
H</tspan>
</text>
<text x="723" y="590" style="font-family:Helvetica; font-size:22pt; fill:#000000;text-anchor:start;" > 
<tspan>
H</tspan>
</text>
<text x="623" y="703" style="font-family:Helvetica; font-size:22pt; fill:#000000;text-anchor:start;" > 
<tspan>
R</tspan>
</text>
<text x="623" y="640" style="font-family:Helvetica; font-size:22pt; fill:#000000;text-anchor:start;" > 
<tspan>
N</tspan>
</text>
<text x="622" y="539" style="font-family:Helvetica; font-size:22pt; fill:#000000;text-anchor:start;" > 
<tspan>
N</tspan>
</text>
<text x="509" y="653" style="font-family:Helvetica; font-size:22pt; fill:#000000;text-anchor:start;" > 
<tspan>
N</tspan>
</text>
<text x="454" y="557" style="font-family:Helvetica; font-size:22pt; fill:#000000;text-anchor:start;" > 
<tspan>
N</tspan>
</text>
<text x="400" y="651" style="font-family:Helvetica; font-size:22pt; fill:#000000;text-anchor:start;" > 
<tspan>
N</tspan>
</text>
<text x="508" y="462" style="font-family:Helvetica; font-size:22pt; fill:#000000;text-anchor:start;" > 
<tspan>
O</tspan>
</text>
<text x="400" y="715" style="font-family:Helvetica; font-size:22pt; fill:#000000;text-anchor:start;" > 
<tspan>
H</tspan>
</text>
<text x="346" y="619" style="font-family:Helvetica; font-size:22pt; fill:#000000;text-anchor:start;" > 
<tspan>
H</tspan>
</text>
<text x="400" y="525" style="font-family:Helvetica; font-size:22pt; fill:#000000;text-anchor:start;" > 
<tspan>
H</tspan>
</text>
<text x="723" y="590" style="font-family:Helvetica; font-size:22pt; fill:#000000;text-anchor:start;" > 
<tspan>
H</tspan>
</text>
<text x="85" y="619" style="font-family:Helvetica; font-size:22pt; fill:#000000;text-anchor:start;" > 
<tspan>
R</tspan>
</text>
<text x="148" y="619" style="font-family:Helvetica; font-size:22pt; fill:#000000;text-anchor:start;" > 
<tspan>
N</tspan>
</text>
<text x="249" y="618" style="font-family:Helvetica; font-size:22pt; fill:#000000;text-anchor:start;" > 
<tspan>
N</tspan>
</text>
<text x="135" y="505" style="font-family:Helvetica; font-size:22pt; fill:#000000;text-anchor:start;" > 
<tspan>
N</tspan>
</text>
<text x="231" y="450" style="font-family:Helvetica; font-size:22pt; fill:#000000;text-anchor:start;" > 
<tspan>
N</tspan>
</text>
<text x="137" y="396" style="font-family:Helvetica; font-size:22pt; fill:#000000;text-anchor:start;" > 
<tspan>
N</tspan>
</text>
<text x="326" y="504" style="font-family:Helvetica; font-size:22pt; fill:#000000;text-anchor:start;" > 
<tspan>
O</tspan>
</text>
<text x="73" y="396" style="font-family:Helvetica; font-size:22pt; fill:#000000;text-anchor:start;" > 
<tspan>
H</tspan>
</text>
<text x="169" y="342" style="font-family:Helvetica; font-size:22pt; fill:#000000;text-anchor:start;" > 
<tspan>
H</tspan>
</text>
<text x="263" y="396" style="font-family:Helvetica; font-size:22pt; fill:#000000;text-anchor:start;" > 
<tspan>
H</tspan>
</text>
<text x="198" y="719" style="font-family:Helvetica; font-size:22pt; fill:#000000;text-anchor:start;" > 
<tspan>
H</tspan>
</text>
<text x="85" y="619" style="font-family:Helvetica; font-size:22pt; fill:#000000;text-anchor:start;" > 
<tspan>
R</tspan>
</text>
<text x="148" y="619" style="font-family:Helvetica; font-size:22pt; fill:#000000;text-anchor:start;" > 
<tspan>
N</tspan>
</text>
<text x="249" y="618" style="font-family:Helvetica; font-size:22pt; fill:#000000;text-anchor:start;" > 
<tspan>
N</tspan>
</text>
<text x="135" y="505" style="font-family:Helvetica; font-size:22pt; fill:#000000;text-anchor:start;" > 
<tspan>
N</tspan>
</text>
<text x="231" y="450" style="font-family:Helvetica; font-size:22pt; fill:#000000;text-anchor:start;" > 
<tspan>
N</tspan>
</text>
<text x="137" y="396" style="font-family:Helvetica; font-size:22pt; fill:#000000;text-anchor:start;" > 
<tspan>
N</tspan>
</text>
<text x="326" y="504" style="font-family:Helvetica; font-size:22pt; fill:#000000;text-anchor:start;" > 
<tspan>
O</tspan>
</text>
<text x="73" y="396" style="font-family:Helvetica; font-size:22pt; fill:#000000;text-anchor:start;" > 
<tspan>
H</tspan>
</text>
<text x="169" y="342" style="font-family:Helvetica; font-size:22pt; fill:#000000;text-anchor:start;" > 
<tspan>
H</tspan>
</text>
<text x="263" y="396" style="font-family:Helvetica; font-size:22pt; fill:#000000;text-anchor:start;" > 
<tspan>
H</tspan>
</text>
<text x="198" y="719" style="font-family:Helvetica; font-size:22pt; fill:#000000;text-anchor:start;" > 
<tspan>
H</tspan>
</text>
<text x="392" y="388" style="font-family:Helvetica; font-size:24pt; fill:#000000;text-anchor:start;" > 
<tspan>
K+</tspan>
</text>
</g>
</svg>
