<?xml version="1.0" encoding="utf-8" standalone="no"?>
<!DOCTYPE svg PUBLIC "-//W3C//DTD SVG 1.1//EN"
  "http://www.w3.org/Graphics/SVG/1.1/DTD/svg11.dtd">
<!-- Created with matplotlib (http://matplotlib.org/) -->
<svg height="360pt" version="1.1" viewBox="0 0 720 360" width="720pt" xmlns="http://www.w3.org/2000/svg" xmlns:xlink="http://www.w3.org/1999/xlink">
 <defs>
  <style type="text/css">
*{stroke-linecap:butt;stroke-linejoin:round;}
  </style>
 </defs>
 <g id="figure_1">
  <g id="patch_1">
   <path d="M 0 360 
L 720 360 
L 720 0 
L 0 0 
z
" style="fill:#ffffff;"/>
  </g>
  <g id="axes_1">
   <g id="patch_2">
    <path d="M 109.045 284.08 
L 359.316813 284.08 
L 359.316813 28.92 
L 109.045 28.92 
z
" style="fill:#ffffff;"/>
   </g>
   <g id="matplotlib.axis_1">
    <g id="xtick_1">
     <g id="line2d_1">
      <defs>
       <path d="M 0 0 
L 0 2 
" id="m5c60468cec" style="stroke:#262626;"/>
      </defs>
      <g>
       <use style="fill:#262626;stroke:#262626;" x="120.420991" xlink:href="#m5c60468cec" y="284.08"/>
      </g>
     </g>
     <g id="text_1">
      <text style="fill:#262626;font-family:Arial;font-size:20px;font-style:normal;font-weight:normal;" transform="translate(99.303804 307.395625)">Start</text>
      <text style="fill:#262626;font-family:Arial;font-size:20px;font-style:normal;font-weight:normal;" transform="translate(90.955366 328.549375)">Codon</text>
     </g>
    </g>
    <g id="xtick_2">
     <g id="line2d_2">
      <g>
       <use style="fill:#262626;stroke:#262626;" x="350.239001" xlink:href="#m5c60468cec" y="284.08"/>
      </g>
     </g>
     <g id="text_2">
      <text style="fill:#262626;font-family:Arial;font-size:20px;font-style:normal;font-weight:normal;" transform="translate(329.668689 307.639375)">Stop</text>
      <text style="fill:#262626;font-family:Arial;font-size:20px;font-style:normal;font-weight:normal;" transform="translate(320.773376 328.793125)">Codon</text>
     </g>
    </g>
   </g>
   <g id="matplotlib.axis_2">
    <g id="ytick_1">
     <g id="line2d_3">
      <defs>
       <path d="M 0 0 
L -2 0 
" id="ma48c27866f" style="stroke:#262626;"/>
      </defs>
      <g>
       <use style="fill:#262626;stroke:#262626;" x="109.045" xlink:href="#ma48c27866f" y="272.481818"/>
      </g>
     </g>
     <g id="text_3">
      <text style="fill:#262626;font-family:Arial;font-size:20px;font-style:normal;font-weight:normal;text-anchor:end;" transform="rotate(-0, 100.045, 279.639631)" x="100.045" y="279.639631">0.000</text>
     </g>
    </g>
    <g id="ytick_2">
     <g id="line2d_4">
      <g>
       <use style="fill:#262626;stroke:#262626;" x="109.045" xlink:href="#ma48c27866f" y="226.891831"/>
      </g>
     </g>
     <g id="text_4">
      <text style="fill:#262626;font-family:Arial;font-size:20px;font-style:normal;font-weight:normal;text-anchor:end;" transform="rotate(-0, 100.045, 234.049644)" x="100.045" y="234.049644">0.002</text>
     </g>
    </g>
    <g id="ytick_3">
     <g id="line2d_5">
      <g>
       <use style="fill:#262626;stroke:#262626;" x="109.045" xlink:href="#ma48c27866f" y="181.301844"/>
      </g>
     </g>
     <g id="text_5">
      <text style="fill:#262626;font-family:Arial;font-size:20px;font-style:normal;font-weight:normal;text-anchor:end;" transform="rotate(-0, 100.045, 188.459657)" x="100.045" y="188.459657">0.004</text>
     </g>
    </g>
    <g id="ytick_4">
     <g id="line2d_6">
      <g>
       <use style="fill:#262626;stroke:#262626;" x="109.045" xlink:href="#ma48c27866f" y="135.711858"/>
      </g>
     </g>
     <g id="text_6">
      <text style="fill:#262626;font-family:Arial;font-size:20px;font-style:normal;font-weight:normal;text-anchor:end;" transform="rotate(-0, 100.045, 142.86967)" x="100.045" y="142.86967">0.006</text>
     </g>
    </g>
    <g id="ytick_5">
     <g id="line2d_7">
      <g>
       <use style="fill:#262626;stroke:#262626;" x="109.045" xlink:href="#ma48c27866f" y="90.121871"/>
      </g>
     </g>
     <g id="text_7">
      <text style="fill:#262626;font-family:Arial;font-size:20px;font-style:normal;font-weight:normal;text-anchor:end;" transform="rotate(-0, 100.045, 97.279683)" x="100.045" y="97.279683">0.008</text>
     </g>
    </g>
    <g id="ytick_6">
     <g id="line2d_8">
      <g>
       <use style="fill:#262626;stroke:#262626;" x="109.045" xlink:href="#ma48c27866f" y="44.531884"/>
      </g>
     </g>
     <g id="text_8">
      <text style="fill:#262626;font-family:Arial;font-size:20px;font-style:normal;font-weight:normal;text-anchor:end;" transform="rotate(-0, 100.045, 51.689696)" x="100.045" y="51.689696">0.010</text>
     </g>
    </g>
    <g id="text_9">
     <text style="fill:#262626;font-family:Arial;font-size:22px;font-style:normal;font-weight:normal;text-anchor:middle;" transform="rotate(-90, 41.62875, 156.5)" x="41.62875" y="156.5">Mean G4Seeqer score</text>
    </g>
   </g>
   <g id="line2d_9">
    <path clip-path="url(#pb251bac5ea)" d="M 120.420991 257.663977 
L 122.719172 208.056423 
L 125.017352 186.796042 
L 127.315532 187.440296 
L 129.613712 186.151788 
L 131.911892 187.440296 
L 134.210072 188.08455 
L 136.508252 172.622455 
L 138.806432 175.843725 
L 141.104612 169.401185 
L 143.402792 184.219026 
L 145.700973 171.978201 
L 147.999153 187.440296 
L 150.297333 185.507534 
L 152.595513 193.238582 
L 154.893693 190.017312 
L 157.191873 181.642011 
L 159.490053 180.997757 
L 161.788233 180.353503 
L 164.086413 177.776487 
L 166.384593 186.151788 
L 168.682774 184.86328 
L 170.980954 177.776487 
L 173.279134 178.420741 
L 175.577314 184.219026 
L 177.875494 176.487979 
L 180.173674 185.507534 
L 182.471854 177.776487 
L 184.770034 169.401185 
L 187.068214 171.333947 
L 189.366394 166.179916 
L 191.664574 166.179916 
L 193.962755 164.891408 
L 196.260935 169.401185 
L 198.559115 166.82417 
L 200.857295 159.093122 
L 203.155475 168.112678 
L 205.453655 170.689693 
L 207.751835 175.199471 
L 210.050015 170.045439 
L 212.348195 158.448868 
L 214.646375 150.717821 
L 216.944556 146.852297 
L 219.242736 155.227598 
L 221.540916 150.717821 
L 223.839096 142.986773 
L 226.137276 140.409757 
L 228.435456 138.476996 
L 230.733636 138.476996 
L 233.031816 139.12125 
L 235.329996 132.034456 
L 237.628176 132.034456 
L 239.926357 133.967218 
L 242.224537 122.370647 
L 244.522717 130.745948 
L 246.820897 134.611472 
L 249.119077 120.437885 
L 251.417257 132.034456 
L 253.715437 139.765504 
L 256.013617 123.659155 
L 258.311797 112.062583 
L 260.609977 124.303409 
L 262.908157 119.793631 
L 265.206338 133.967218 
L 267.504518 124.303409 
L 269.802698 117.860869 
L 272.100878 125.591917 
L 274.399058 130.101694 
L 276.697238 132.034456 
L 278.995418 135.89998 
L 281.293598 120.437885 
L 283.591778 117.860869 
L 285.889958 117.216615 
L 288.188139 114.639599 
L 290.486319 112.706837 
L 292.784499 110.774076 
L 295.082679 107.552806 
L 297.380859 101.75452 
L 299.679039 99.821758 
L 301.977219 98.53325 
L 304.275399 94.023473 
L 306.573579 81.782648 
L 308.871759 80.49414 
L 311.16994 78.561378 
L 313.46812 82.426902 
L 315.7663 82.426902 
L 318.06448 85.648171 
L 320.36266 75.340108 
L 322.66084 90.157949 
L 324.95902 94.023473 
L 327.2572 119.793631 
L 329.55538 130.101694 
L 331.85356 130.101694 
L 334.15174 137.832742 
L 336.449921 164.891408 
L 338.748101 179.709249 
L 341.046281 199.681121 
L 343.344461 231.249565 
L 345.642641 269.260548 
L 347.940821 272.481818 
" style="fill:none;stroke:#0072b2;stroke-linecap:round;stroke-width:1.75;"/>
   </g>
   <g id="line2d_10">
    <path clip-path="url(#pb251bac5ea)" d="M 120.420991 251.653088 
L 122.719172 164.614379 
L 125.017352 122.12583 
L 127.315532 119.793631 
L 129.613712 132.710923 
L 131.911892 134.437523 
L 134.210072 135.333036 
L 136.508252 131.731657 
L 138.806432 130.327183 
L 141.104612 125.302002 
L 143.402792 123.568959 
L 145.700973 126.100877 
L 147.999153 128.272013 
L 150.297333 131.995801 
L 152.595513 130.275643 
L 154.893693 123.961954 
L 157.191873 121.810146 
L 159.490053 121.095024 
L 161.788233 118.324732 
L 164.086413 118.182996 
L 166.384593 118.099243 
L 168.682774 117.616053 
L 170.980954 120.495868 
L 173.279134 124.05215 
L 175.577314 125.250462 
L 177.875494 123.581844 
L 180.173674 120.135086 
L 182.471854 119.999792 
L 184.770034 115.341836 
L 187.068214 115.155002 
L 189.366394 115.129232 
L 191.664574 111.618048 
L 193.962755 104.357306 
L 196.260935 107.346645 
L 198.559115 101.986452 
L 200.857295 99.538287 
L 203.155475 100.466012 
L 205.453655 98.700756 
L 207.751835 100.710829 
L 210.050015 100.852565 
L 212.348195 99.306355 
L 214.646375 94.139438 
L 216.944556 90.112851 
L 219.242736 90.38988 
L 221.540916 94.075013 
L 223.839096 94.77725 
L 226.137276 94.036358 
L 228.435456 94.590416 
L 230.733636 94.551761 
L 233.031816 96.323459 
L 235.329996 94.010588 
L 237.628176 93.740001 
L 239.926357 90.602484 
L 242.224537 84.559382 
L 244.522717 83.283759 
L 246.820897 85.384027 
L 249.119077 85.177866 
L 251.417257 84.701118 
L 253.715437 92.709195 
L 256.013617 92.34197 
L 258.311797 90.492961 
L 260.609977 89.926018 
L 262.908157 89.365517 
L 265.206338 86.131362 
L 267.504518 80.172013 
L 269.802698 73.748801 
L 272.100878 76.306489 
L 274.399058 70.811003 
L 276.697238 70.082996 
L 278.995418 70.901198 
L 281.293598 70.933411 
L 283.591778 72.83396 
L 285.889958 73.478214 
L 288.188139 74.199779 
L 290.486319 74.302859 
L 292.784499 76.441782 
L 295.082679 76.203408 
L 297.380859 77.607882 
L 299.679039 76.119655 
L 301.977219 75.26924 
L 304.275399 68.710735 
L 306.573579 66.913266 
L 308.871759 65.057815 
L 311.16994 60.283893 
L 313.46812 49.834094 
L 315.7663 43.48175 
L 318.06448 40.518182 
L 320.36266 42.972789 
L 322.66084 45.852605 
L 324.95902 50.317284 
L 327.2572 60.773526 
L 329.55538 69.91549 
L 331.85356 79.798345 
L 334.15174 94.01703 
L 336.449921 105.111083 
L 338.748101 126.18463 
L 341.046281 152.251145 
L 343.344461 199.578041 
L 345.642641 261.626139 
L 347.940821 272.481818 
" style="fill:none;stroke:#d55e00;stroke-linecap:round;stroke-width:1.75;"/>
   </g>
   <g id="patch_3">
    <path d="M 109.045 284.08 
L 109.045 28.92 
" style="fill:none;stroke:#262626;stroke-linecap:square;stroke-linejoin:miter;stroke-width:1.25;"/>
   </g>
   <g id="patch_4">
    <path d="M 359.316813 284.08 
L 359.316813 28.92 
" style="fill:none;stroke:#262626;stroke-linecap:square;stroke-linejoin:miter;stroke-width:1.25;"/>
   </g>
   <g id="patch_5">
    <path d="M 109.045 284.08 
L 359.316813 284.08 
" style="fill:none;stroke:#262626;stroke-linecap:square;stroke-linejoin:miter;stroke-width:1.25;"/>
   </g>
   <g id="patch_6">
    <path d="M 109.045 28.92 
L 359.316813 28.92 
" style="fill:none;stroke:#262626;stroke-linecap:square;stroke-linejoin:miter;stroke-width:1.25;"/>
   </g>
  </g>
  <g id="axes_2">
   <g id="patch_7">
    <path d="M 423.508037 284.08 
L 673.77985 284.08 
L 673.77985 28.92 
L 423.508037 28.92 
z
" style="fill:#ffffff;"/>
   </g>
   <g id="matplotlib.axis_3">
    <g id="xtick_3">
     <g id="line2d_11">
      <g>
       <use style="fill:#262626;stroke:#262626;" x="434.884029" xlink:href="#m5c60468cec" y="284.08"/>
      </g>
     </g>
     <g id="text_10">
      <text style="fill:#262626;font-family:Arial;font-size:20px;font-style:normal;font-weight:normal;" transform="translate(413.766841 307.395625)">Start</text>
      <text style="fill:#262626;font-family:Arial;font-size:20px;font-style:normal;font-weight:normal;" transform="translate(405.418404 328.549375)">Codon</text>
     </g>
    </g>
    <g id="xtick_4">
     <g id="line2d_12">
      <g>
       <use style="fill:#262626;stroke:#262626;" x="664.702038" xlink:href="#m5c60468cec" y="284.08"/>
      </g>
     </g>
     <g id="text_11">
      <text style="fill:#262626;font-family:Arial;font-size:20px;font-style:normal;font-weight:normal;" transform="translate(644.131726 307.639375)">Stop</text>
      <text style="fill:#262626;font-family:Arial;font-size:20px;font-style:normal;font-weight:normal;" transform="translate(635.236413 328.793125)">Codon</text>
     </g>
    </g>
   </g>
   <g id="matplotlib.axis_4">
    <g id="ytick_7">
     <g id="line2d_13">
      <g>
       <use style="fill:#262626;stroke:#262626;" x="423.508037" xlink:href="#ma48c27866f" y="272.481818"/>
      </g>
     </g>
    </g>
    <g id="ytick_8">
     <g id="line2d_14">
      <g>
       <use style="fill:#262626;stroke:#262626;" x="423.508037" xlink:href="#ma48c27866f" y="226.891831"/>
      </g>
     </g>
    </g>
    <g id="ytick_9">
     <g id="line2d_15">
      <g>
       <use style="fill:#262626;stroke:#262626;" x="423.508037" xlink:href="#ma48c27866f" y="181.301844"/>
      </g>
     </g>
    </g>
    <g id="ytick_10">
     <g id="line2d_16">
      <g>
       <use style="fill:#262626;stroke:#262626;" x="423.508037" xlink:href="#ma48c27866f" y="135.711858"/>
      </g>
     </g>
    </g>
    <g id="ytick_11">
     <g id="line2d_17">
      <g>
       <use style="fill:#262626;stroke:#262626;" x="423.508037" xlink:href="#ma48c27866f" y="90.121871"/>
      </g>
     </g>
    </g>
    <g id="ytick_12">
     <g id="line2d_18">
      <g>
       <use style="fill:#262626;stroke:#262626;" x="423.508037" xlink:href="#ma48c27866f" y="44.531884"/>
      </g>
     </g>
    </g>
   </g>
   <g id="line2d_19">
    <path clip-path="url(#pae830bb55a)" d="M 434.884029 266.683533 
L 437.182209 204.835153 
L 439.480389 159.737376 
L 441.778569 112.062583 
L 444.076749 91.446457 
L 446.374929 94.023473 
L 448.673109 90.802203 
L 450.971289 85.003917 
L 453.269469 67.609061 
L 455.56765 71.474584 
L 457.86583 71.474584 
L 460.16401 81.782648 
L 462.46219 90.802203 
L 464.76037 89.513695 
L 467.05855 90.157949 
L 469.35673 99.177504 
L 471.65491 109.485568 
L 473.95309 124.947663 
L 476.25127 135.255726 
L 478.549451 125.591917 
L 480.847631 131.390202 
L 483.145811 139.12125 
L 485.443991 144.919535 
L 487.742171 144.919535 
L 490.040351 153.939091 
L 492.338531 150.717821 
L 494.636711 158.448868 
L 496.934891 164.891408 
L 499.233071 162.314392 
L 501.531251 162.958646 
L 503.829432 164.891408 
L 506.127612 166.179916 
L 508.425792 165.535662 
L 510.723972 166.179916 
L 513.022152 168.756931 
L 515.320332 173.266709 
L 517.618512 166.179916 
L 519.916692 164.891408 
L 522.214872 182.286265 
L 524.513052 173.910963 
L 526.811233 176.487979 
L 529.109413 177.132233 
L 531.407593 170.045439 
L 533.705773 181.642011 
L 536.003953 180.997757 
L 538.302133 179.064995 
L 540.600313 181.642011 
L 542.898493 182.286265 
L 545.196673 184.219026 
L 547.494853 186.151788 
L 549.793034 177.776487 
L 552.091214 186.796042 
L 554.389394 184.219026 
L 556.687574 183.574772 
L 558.985754 179.709249 
L 561.283934 193.238582 
L 563.582114 197.104105 
L 565.880294 191.30582 
L 568.178474 193.238582 
L 570.476654 195.171344 
L 572.774834 191.950074 
L 575.073015 191.950074 
L 577.371195 198.392613 
L 579.669375 208.700677 
L 581.967555 200.969629 
L 584.265735 204.190899 
L 586.563915 206.123661 
L 588.862095 200.969629 
L 591.160275 199.036867 
L 593.458455 206.123661 
L 595.756635 199.036867 
L 598.054816 197.104105 
L 600.352996 204.835153 
L 602.651176 202.902391 
L 604.949356 205.479407 
L 607.247536 200.325375 
L 609.545716 205.479407 
L 611.843896 201.613883 
L 614.142076 193.882836 
L 616.440256 191.950074 
L 618.738436 190.017312 
L 621.036617 190.661566 
L 623.334797 199.681121 
L 625.632977 198.392613 
L 627.931157 204.190899 
L 630.229337 210.633439 
L 632.527517 212.5662 
L 634.825697 213.854708 
L 637.123877 217.075978 
L 639.422057 217.075978 
L 641.720237 217.720232 
L 644.018417 222.874264 
L 646.316598 223.518518 
L 648.614778 229.961057 
L 650.912958 228.672549 
L 653.211138 233.826581 
L 655.509318 240.26912 
L 657.807498 242.846136 
L 660.105678 268.616294 
L 662.403858 272.481818 
" style="fill:none;stroke:#0072b2;stroke-linecap:round;stroke-width:1.75;"/>
   </g>
   <g id="line2d_20">
    <path clip-path="url(#pae830bb55a)" d="M 434.884029 264.525282 
L 437.182209 223.215718 
L 439.480389 192.439707 
L 441.778569 178.394971 
L 444.076749 172.435622 
L 446.374929 166.379634 
L 448.673109 161.16762 
L 450.971289 161.322241 
L 453.269469 161.95361 
L 455.56765 162.630076 
L 457.86583 163.27433 
L 460.16401 161.62504 
L 462.46219 161.914954 
L 464.76037 157.86904 
L 467.05855 157.08305 
L 469.35673 161.180505 
L 471.65491 163.879929 
L 473.95309 168.634523 
L 476.25127 170.316026 
L 478.549451 173.06699 
L 480.847631 176.088541 
L 483.145811 181.313441 
L 485.443991 183.18822 
L 487.742171 182.440885 
L 490.040351 183.065812 
L 492.338531 184.721544 
L 494.636711 183.091582 
L 496.934891 182.943404 
L 499.233071 183.755164 
L 501.531251 183.175335 
L 503.829432 184.064405 
L 506.127612 183.098025 
L 508.425792 181.526045 
L 510.723972 182.395788 
L 513.022152 181.687108 
L 515.320332 180.173112 
L 517.618512 179.322696 
L 519.916692 177.828027 
L 522.214872 176.101427 
L 524.513052 176.661928 
L 526.811233 175.727759 
L 529.109413 178.568919 
L 531.407593 181.500275 
L 533.705773 182.29915 
L 536.003953 183.123795 
L 538.302133 181.352096 
L 540.600313 181.783746 
L 542.898493 185.056557 
L 545.196673 187.949257 
L 547.494853 188.206958 
L 549.793034 188.142533 
L 552.091214 190.964365 
L 554.389394 190.89994 
L 556.687574 188.406677 
L 558.985754 187.968584 
L 561.283934 187.929929 
L 563.582114 187.098842 
L 565.880294 186.647864 
L 568.178474 187.015089 
L 570.476654 187.788193 
L 572.774834 188.664379 
L 575.073015 189.141127 
L 577.371195 190.043082 
L 579.669375 194.449779 
L 581.967555 193.580036 
L 584.265735 193.36099 
L 586.563915 190.365209 
L 588.862095 188.87054 
L 591.160275 187.401641 
L 593.458455 187.549819 
L 595.756635 187.852619 
L 598.054816 186.51257 
L 600.352996 187.240577 
L 602.651176 189.952887 
L 604.949356 189.540564 
L 607.247536 188.239171 
L 609.545716 188.967178 
L 611.843896 189.398828 
L 614.142076 190.506945 
L 616.440256 190.990135 
L 618.738436 191.073888 
L 621.036617 191.318705 
L 623.334797 191.524866 
L 625.632977 194.056784 
L 627.931157 197.104105 
L 630.229337 199.429862 
L 632.527517 199.661794 
L 634.825697 200.119214 
L 637.123877 199.674679 
L 639.422057 205.228148 
L 641.720237 208.655579 
L 644.018417 212.16032 
L 646.316598 217.41099 
L 648.614778 222.584349 
L 650.912958 221.128335 
L 653.211138 221.340939 
L 655.509318 226.31458 
L 657.807498 243.264901 
L 660.105678 269.531135 
L 662.403858 272.481818 
" style="fill:none;stroke:#d55e00;stroke-linecap:round;stroke-width:1.75;"/>
   </g>
   <g id="patch_8">
    <path d="M 423.508037 284.08 
L 423.508037 28.92 
" style="fill:none;stroke:#262626;stroke-linecap:square;stroke-linejoin:miter;stroke-width:1.25;"/>
   </g>
   <g id="patch_9">
    <path d="M 673.77985 284.08 
L 673.77985 28.92 
" style="fill:none;stroke:#262626;stroke-linecap:square;stroke-linejoin:miter;stroke-width:1.25;"/>
   </g>
   <g id="patch_10">
    <path d="M 423.508037 284.08 
L 673.77985 284.08 
" style="fill:none;stroke:#262626;stroke-linecap:square;stroke-linejoin:miter;stroke-width:1.25;"/>
   </g>
   <g id="patch_11">
    <path d="M 423.508037 28.92 
L 673.77985 28.92 
" style="fill:none;stroke:#262626;stroke-linecap:square;stroke-linejoin:miter;stroke-width:1.25;"/>
   </g>
   <g id="legend_1">
    <g id="line2d_21">
     <path d="M 506.40485 54.235625 
L 546.40485 54.235625 
" style="fill:none;stroke:#0072b2;stroke-linecap:round;stroke-width:1.75;"/>
    </g>
    <g id="line2d_22"/>
    <g id="text_12">
     <text style="fill:#262626;font-family:Arial;font-size:20px;font-style:normal;font-weight:normal;text-anchor:start;" transform="rotate(-0, 562.40485, 61.235625)" x="562.40485" y="61.235625">Observed</text>
    </g>
    <g id="line2d_23">
     <path d="M 506.40485 82.52625 
L 546.40485 82.52625 
" style="fill:none;stroke:#d55e00;stroke-linecap:round;stroke-width:1.75;"/>
    </g>
    <g id="line2d_24"/>
    <g id="text_13">
     <text style="fill:#262626;font-family:Arial;font-size:20px;font-style:normal;font-weight:normal;text-anchor:start;" transform="rotate(-0, 562.40485, 89.52625)" x="562.40485" y="89.52625">Simulation</text>
    </g>
   </g>
  </g>
 </g>
 <defs>
  <clipPath id="pb251bac5ea">
   <rect height="255.16" width="250.271813" x="109.045" y="28.92"/>
  </clipPath>
  <clipPath id="pae830bb55a">
   <rect height="255.16" width="250.271813" x="423.508037" y="28.92"/>
  </clipPath>
 </defs>
</svg>
