<?xml version="1.0" encoding="utf-8" standalone="no"?>
<!DOCTYPE svg PUBLIC "-//W3C//DTD SVG 1.1//EN"
  "http://www.w3.org/Graphics/SVG/1.1/DTD/svg11.dtd">
<!-- Created with matplotlib (http://matplotlib.org/) -->
<svg height="360pt" version="1.1" viewBox="0 0 720 360" width="720pt" xmlns="http://www.w3.org/2000/svg" xmlns:xlink="http://www.w3.org/1999/xlink">
 <defs>
  <style type="text/css">
*{stroke-linecap:butt;stroke-linejoin:round;}
  </style>
 </defs>
 <g id="figure_1">
  <g id="patch_1">
   <path d="M 0 360 
L 720 360 
L 720 0 
L 0 0 
z
" style="fill:#ffffff;"/>
  </g>
  <g id="axes_1">
   <g id="patch_2">
    <path d="M 109.045 284.08 
L 359.316813 284.08 
L 359.316813 28.92 
L 109.045 28.92 
z
" style="fill:#ffffff;"/>
   </g>
   <g id="matplotlib.axis_1">
    <g id="xtick_1">
     <g id="line2d_1">
      <defs>
       <path d="M 0 0 
L 0 2 
" id="m44ddece738" style="stroke:#262626;"/>
      </defs>
      <g>
       <use style="fill:#262626;stroke:#262626;" x="120.420991" xlink:href="#m44ddece738" y="284.08"/>
      </g>
     </g>
     <g id="text_1">
      <text style="fill:#262626;font-family:Arial;font-size:20px;font-style:normal;font-weight:normal;" transform="translate(99.303804 307.395625)">Start</text>
      <text style="fill:#262626;font-family:Arial;font-size:20px;font-style:normal;font-weight:normal;" transform="translate(90.955366 328.549375)">Codon</text>
     </g>
    </g>
    <g id="xtick_2">
     <g id="line2d_2">
      <g>
       <use style="fill:#262626;stroke:#262626;" x="350.239001" xlink:href="#m44ddece738" y="284.08"/>
      </g>
     </g>
     <g id="text_2">
      <text style="fill:#262626;font-family:Arial;font-size:20px;font-style:normal;font-weight:normal;" transform="translate(329.668689 307.639375)">Stop</text>
      <text style="fill:#262626;font-family:Arial;font-size:20px;font-style:normal;font-weight:normal;" transform="translate(320.773376 328.793125)">Codon</text>
     </g>
    </g>
   </g>
   <g id="matplotlib.axis_2">
    <g id="ytick_1">
     <g id="line2d_3">
      <defs>
       <path d="M 0 0 
L -2 0 
" id="m25697f4907" style="stroke:#262626;"/>
      </defs>
      <g>
       <use style="fill:#262626;stroke:#262626;" x="109.045" xlink:href="#m25697f4907" y="269.531291"/>
      </g>
     </g>
     <g id="text_3">
      <text style="fill:#262626;font-family:Arial;font-size:20px;font-style:normal;font-weight:normal;text-anchor:end;" transform="rotate(-0, 100.045, 276.689103)" x="100.045" y="276.689103">0.150</text>
     </g>
    </g>
    <g id="ytick_2">
     <g id="line2d_4">
      <g>
       <use style="fill:#262626;stroke:#262626;" x="109.045" xlink:href="#m25697f4907" y="217.007762"/>
      </g>
     </g>
     <g id="text_4">
      <text style="fill:#262626;font-family:Arial;font-size:20px;font-style:normal;font-weight:normal;text-anchor:end;" transform="rotate(-0, 100.045, 224.165575)" x="100.045" y="224.165575">0.175</text>
     </g>
    </g>
    <g id="ytick_3">
     <g id="line2d_5">
      <g>
       <use style="fill:#262626;stroke:#262626;" x="109.045" xlink:href="#m25697f4907" y="164.484234"/>
      </g>
     </g>
     <g id="text_5">
      <text style="fill:#262626;font-family:Arial;font-size:20px;font-style:normal;font-weight:normal;text-anchor:end;" transform="rotate(-0, 100.045, 171.642047)" x="100.045" y="171.642047">0.200</text>
     </g>
    </g>
    <g id="ytick_4">
     <g id="line2d_6">
      <g>
       <use style="fill:#262626;stroke:#262626;" x="109.045" xlink:href="#m25697f4907" y="111.960706"/>
      </g>
     </g>
     <g id="text_6">
      <text style="fill:#262626;font-family:Arial;font-size:20px;font-style:normal;font-weight:normal;text-anchor:end;" transform="rotate(-0, 100.045, 119.118519)" x="100.045" y="119.118519">0.225</text>
     </g>
    </g>
    <g id="ytick_5">
     <g id="line2d_7">
      <g>
       <use style="fill:#262626;stroke:#262626;" x="109.045" xlink:href="#m25697f4907" y="59.437178"/>
      </g>
     </g>
     <g id="text_7">
      <text style="fill:#262626;font-family:Arial;font-size:20px;font-style:normal;font-weight:normal;text-anchor:end;" transform="rotate(-0, 100.045, 66.59499)" x="100.045" y="66.59499">0.250</text>
     </g>
    </g>
    <g id="text_8">
     <text style="fill:#262626;font-family:Arial;font-size:22px;font-style:normal;font-weight:normal;text-anchor:middle;" transform="rotate(-90, 41.62875, 156.5)" x="41.62875" y="156.5">GC content</text>
    </g>
   </g>
   <g id="line2d_8">
    <path clip-path="url(#pae401dc5c2)" d="M 120.420991 40.518182 
L 122.719172 131.067585 
L 125.017352 145.608403 
L 127.315532 152.527633 
L 129.613712 155.699478 
L 131.911892 151.959295 
L 134.210072 150.1392 
L 136.508252 149.423284 
L 138.806432 148.643189 
L 141.104612 147.075049 
L 143.402792 146.277923 
L 145.700973 143.905019 
L 147.999153 144.036537 
L 150.297333 140.040487 
L 152.595513 137.900846 
L 154.893693 137.516998 
L 157.191873 134.907823 
L 159.490053 132.636101 
L 161.788233 130.091355 
L 164.086413 129.690288 
L 166.384593 129.538608 
L 168.682774 127.266041 
L 170.980954 124.25414 
L 173.279134 122.619599 
L 175.577314 122.821087 
L 177.875494 121.467239 
L 180.173674 120.232731 
L 182.471854 119.579303 
L 184.770034 120.249418 
L 187.068214 117.614134 
L 189.366394 117.74274 
L 191.664574 117.146352 
L 193.962755 114.80131 
L 196.260935 114.570707 
L 198.559115 113.894581 
L 200.857295 115.49741 
L 203.155475 114.757168 
L 205.453655 114.456626 
L 207.751835 114.091186 
L 210.050015 113.684922 
L 212.348195 114.492065 
L 214.646375 115.209891 
L 216.944556 113.328811 
L 219.242736 112.561959 
L 221.540916 113.531333 
L 223.839096 111.432453 
L 226.137276 113.274933 
L 228.435456 112.816637 
L 230.733636 111.87065 
L 233.031816 113.326494 
L 235.329996 112.818234 
L 237.628176 111.913634 
L 239.926357 109.69554 
L 242.224537 109.723747 
L 244.522717 108.517634 
L 246.820897 109.786266 
L 249.119077 109.984091 
L 251.417257 110.448742 
L 253.715437 112.221846 
L 256.013617 110.491569 
L 258.311797 110.450338 
L 260.609977 109.891361 
L 262.908157 109.581302 
L 265.206338 108.812102 
L 267.504518 107.588552 
L 269.802698 104.820842 
L 272.100878 105.901572 
L 274.399058 104.937208 
L 276.697238 105.379818 
L 278.995418 103.707552 
L 281.293598 107.640239 
L 283.591778 103.051776 
L 285.889958 104.466077 
L 288.188139 106.201018 
L 290.486319 106.807237 
L 292.784499 105.296105 
L 295.082679 103.412426 
L 297.380859 102.642131 
L 299.679039 103.419658 
L 301.977219 99.471099 
L 304.275399 98.833637 
L 306.573579 97.320001 
L 308.871759 97.587671 
L 311.16994 97.985169 
L 313.46812 94.221507 
L 315.7663 93.032299 
L 318.06448 96.525568 
L 320.36266 93.924565 
L 322.66084 94.164341 
L 324.95902 92.89261 
L 327.2572 94.52327 
L 329.55538 94.453174 
L 331.85356 96.407731 
L 334.15174 97.781865 
L 336.449921 103.672614 
L 338.748101 110.925226 
L 341.046281 118.334245 
L 343.344461 134.40955 
L 345.642641 150.031412 
L 347.940821 159.925381 
" style="fill:none;stroke:#0072b2;stroke-linecap:round;stroke-width:1.75;"/>
   </g>
   <g id="line2d_9">
    <path clip-path="url(#pae401dc5c2)" d="M 120.420991 69.663403 
L 122.719172 140.284426 
L 125.017352 150.937108 
L 127.315532 153.122925 
L 129.613712 153.613184 
L 131.911892 148.69353 
L 134.210072 147.02427 
L 136.508252 146.504895 
L 138.806432 145.725959 
L 141.104612 144.544453 
L 143.402792 142.581037 
L 145.700973 138.674679 
L 147.999153 139.504269 
L 150.297333 136.774847 
L 152.595513 135.641083 
L 154.893693 134.696066 
L 157.191873 134.257776 
L 159.490053 133.392277 
L 161.788233 130.903257 
L 164.086413 130.137376 
L 166.384593 130.7327 
L 168.682774 127.493076 
L 170.980954 126.148682 
L 173.279134 125.431232 
L 175.577314 125.814329 
L 177.875494 125.002271 
L 180.173674 124.607653 
L 182.471854 122.73969 
L 184.770034 124.015992 
L 187.068214 122.609393 
L 189.366394 120.797531 
L 191.664574 121.258738 
L 193.962755 118.975808 
L 196.260935 123.684363 
L 198.559115 121.070649 
L 200.857295 120.618646 
L 203.155475 121.000428 
L 205.453655 121.151732 
L 207.751835 121.053681 
L 210.050015 119.922109 
L 212.348195 120.415718 
L 214.646375 121.300094 
L 216.944556 119.784485 
L 219.242736 119.129805 
L 221.540916 120.526668 
L 223.839096 118.388687 
L 226.137276 120.366191 
L 228.435456 120.413463 
L 230.733636 119.032316 
L 233.031816 119.570005 
L 235.329996 120.447994 
L 237.628176 119.449882 
L 239.926357 117.468934 
L 242.224537 117.844393 
L 244.522717 116.482092 
L 246.820897 117.075694 
L 249.119077 116.299544 
L 251.417257 118.618194 
L 253.715437 120.053345 
L 256.013617 118.144152 
L 258.311797 118.419367 
L 260.609977 118.322067 
L 262.908157 118.377072 
L 265.206338 117.714878 
L 267.504518 117.496828 
L 269.802698 114.170736 
L 272.100878 118.599974 
L 274.399058 115.220097 
L 276.697238 115.6479 
L 278.995418 114.574307 
L 281.293598 117.946796 
L 283.591778 114.859321 
L 285.889958 114.76343 
L 288.188139 117.055658 
L 290.486319 116.982025 
L 292.784499 115.356405 
L 295.082679 115.382202 
L 297.380859 114.75648 
L 299.679039 116.988192 
L 301.977219 113.910109 
L 304.275399 112.154286 
L 306.573579 111.853494 
L 308.871759 112.23919 
L 311.16994 113.825582 
L 313.46812 110.276118 
L 315.7663 110.433026 
L 318.06448 112.80471 
L 320.36266 110.007227 
L 322.66084 110.81581 
L 324.95902 110.285792 
L 327.2572 110.520684 
L 329.55538 110.664193 
L 331.85356 111.06526 
L 334.15174 111.708013 
L 336.449921 115.901482 
L 338.748101 120.545577 
L 341.046281 123.532151 
L 343.344461 134.535903 
L 345.642641 143.899008 
L 347.940821 156.442036 
" style="fill:none;stroke:#d55e00;stroke-linecap:round;stroke-width:1.75;"/>
   </g>
   <g id="patch_3">
    <path d="M 109.045 284.08 
L 109.045 28.92 
" style="fill:none;stroke:#262626;stroke-linecap:square;stroke-linejoin:miter;stroke-width:1.25;"/>
   </g>
   <g id="patch_4">
    <path d="M 359.316813 284.08 
L 359.316813 28.92 
" style="fill:none;stroke:#262626;stroke-linecap:square;stroke-linejoin:miter;stroke-width:1.25;"/>
   </g>
   <g id="patch_5">
    <path d="M 109.045 284.08 
L 359.316813 284.08 
" style="fill:none;stroke:#262626;stroke-linecap:square;stroke-linejoin:miter;stroke-width:1.25;"/>
   </g>
   <g id="patch_6">
    <path d="M 109.045 28.92 
L 359.316813 28.92 
" style="fill:none;stroke:#262626;stroke-linecap:square;stroke-linejoin:miter;stroke-width:1.25;"/>
   </g>
  </g>
  <g id="axes_2">
   <g id="patch_7">
    <path d="M 423.508037 284.08 
L 673.77985 284.08 
L 673.77985 28.92 
L 423.508037 28.92 
z
" style="fill:#ffffff;"/>
   </g>
   <g id="matplotlib.axis_3">
    <g id="xtick_3">
     <g id="line2d_10">
      <g>
       <use style="fill:#262626;stroke:#262626;" x="434.884029" xlink:href="#m44ddece738" y="284.08"/>
      </g>
     </g>
     <g id="text_9">
      <text style="fill:#262626;font-family:Arial;font-size:20px;font-style:normal;font-weight:normal;" transform="translate(413.766841 307.395625)">Start</text>
      <text style="fill:#262626;font-family:Arial;font-size:20px;font-style:normal;font-weight:normal;" transform="translate(405.418404 328.549375)">Codon</text>
     </g>
    </g>
    <g id="xtick_4">
     <g id="line2d_11">
      <g>
       <use style="fill:#262626;stroke:#262626;" x="664.702038" xlink:href="#m44ddece738" y="284.08"/>
      </g>
     </g>
     <g id="text_10">
      <text style="fill:#262626;font-family:Arial;font-size:20px;font-style:normal;font-weight:normal;" transform="translate(644.131726 307.639375)">Stop</text>
      <text style="fill:#262626;font-family:Arial;font-size:20px;font-style:normal;font-weight:normal;" transform="translate(635.236413 328.793125)">Codon</text>
     </g>
    </g>
   </g>
   <g id="matplotlib.axis_4">
    <g id="ytick_6">
     <g id="line2d_12">
      <g>
       <use style="fill:#262626;stroke:#262626;" x="423.508037" xlink:href="#m25697f4907" y="269.531291"/>
      </g>
     </g>
    </g>
    <g id="ytick_7">
     <g id="line2d_13">
      <g>
       <use style="fill:#262626;stroke:#262626;" x="423.508037" xlink:href="#m25697f4907" y="217.007762"/>
      </g>
     </g>
    </g>
    <g id="ytick_8">
     <g id="line2d_14">
      <g>
       <use style="fill:#262626;stroke:#262626;" x="423.508037" xlink:href="#m25697f4907" y="164.484234"/>
      </g>
     </g>
    </g>
    <g id="ytick_9">
     <g id="line2d_15">
      <g>
       <use style="fill:#262626;stroke:#262626;" x="423.508037" xlink:href="#m25697f4907" y="111.960706"/>
      </g>
     </g>
    </g>
    <g id="ytick_10">
     <g id="line2d_16">
      <g>
       <use style="fill:#262626;stroke:#262626;" x="423.508037" xlink:href="#m25697f4907" y="59.437178"/>
      </g>
     </g>
    </g>
   </g>
   <g id="line2d_17">
    <path clip-path="url(#pb0b86fbdae)" d="M 434.884029 272.481818 
L 437.182209 160.971205 
L 439.480389 145.613193 
L 441.778569 137.93616 
L 444.076749 129.531001 
L 446.374929 128.359169 
L 448.673109 130.010522 
L 450.971289 129.087263 
L 453.269469 131.421536 
L 455.56765 136.173324 
L 457.86583 135.150135 
L 460.16401 137.489511 
L 462.46219 141.360148 
L 464.76037 142.799556 
L 467.05855 146.375412 
L 469.35673 147.422363 
L 471.65491 152.588492 
L 473.95309 154.759721 
L 476.25127 157.842969 
L 478.549451 161.675788 
L 480.847631 162.944013 
L 483.145811 165.641064 
L 485.443991 169.286796 
L 487.742171 170.330272 
L 490.040351 173.597132 
L 492.338531 173.069931 
L 494.636711 174.155671 
L 496.934891 176.8994 
L 499.233071 175.130992 
L 501.531251 176.627473 
L 503.829432 177.985359 
L 506.127612 178.302807 
L 508.425792 182.051161 
L 510.723972 184.389127 
L 513.022152 184.373161 
L 515.320332 184.536643 
L 517.618512 183.30583 
L 519.916692 186.193538 
L 522.214872 186.295472 
L 524.513052 186.583835 
L 526.811233 186.129641 
L 529.109413 186.904883 
L 531.407593 187.987586 
L 533.705773 188.656417 
L 536.003953 188.927688 
L 538.302133 190.466056 
L 540.600313 190.799877 
L 542.898493 190.997014 
L 545.196673 191.115415 
L 547.494853 190.375893 
L 549.793034 191.047354 
L 552.091214 193.027707 
L 554.389394 194.249849 
L 556.687574 192.778696 
L 558.985754 195.326196 
L 561.283934 192.790811 
L 563.582114 193.495426 
L 565.880294 193.443457 
L 568.178474 192.621975 
L 570.476654 192.117722 
L 572.774834 191.070365 
L 575.073015 192.282801 
L 577.371195 191.210649 
L 579.669375 191.551326 
L 581.967555 190.634109 
L 584.265735 191.418211 
L 586.563915 192.184029 
L 588.862095 194.050959 
L 591.160275 193.049716 
L 593.458455 194.006472 
L 595.756635 193.110701 
L 598.054816 194.941315 
L 600.352996 193.437916 
L 602.651176 190.113169 
L 604.949356 187.22975 
L 607.247536 190.957505 
L 609.545716 190.773767 
L 611.843896 192.323875 
L 614.142076 192.055955 
L 616.440256 194.174275 
L 618.738436 195.085825 
L 621.036617 193.447777 
L 623.334797 195.781674 
L 625.632977 197.656086 
L 627.931157 197.578915 
L 630.229337 198.634569 
L 632.527517 196.867695 
L 634.825697 199.74094 
L 637.123877 199.285118 
L 639.422057 201.416211 
L 641.720237 199.875808 
L 644.018417 200.259187 
L 646.316598 198.945036 
L 648.614778 196.472858 
L 650.912958 191.341572 
L 653.211138 187.591246 
L 655.509318 181.400049 
L 657.807498 171.917854 
L 660.105678 161.979241 
L 662.403858 218.077041 
" style="fill:none;stroke:#0072b2;stroke-linecap:round;stroke-width:1.75;"/>
   </g>
   <g id="line2d_18">
    <path clip-path="url(#pb0b86fbdae)" d="M 434.884029 265.773062 
L 437.182209 174.812449 
L 439.480389 170.997381 
L 441.778569 169.537968 
L 444.076749 164.884669 
L 446.374929 165.625536 
L 448.673109 167.451955 
L 450.971289 167.28841 
L 453.269469 168.788553 
L 455.56765 171.616967 
L 457.86583 172.743186 
L 460.16401 175.948122 
L 462.46219 176.112325 
L 464.76037 176.326649 
L 467.05855 177.351434 
L 469.35673 178.138103 
L 471.65491 178.996245 
L 473.95309 180.034617 
L 476.25127 182.144485 
L 478.549451 183.361211 
L 480.847631 183.575065 
L 483.145811 185.473865 
L 485.443991 186.456105 
L 487.742171 186.513521 
L 490.040351 187.459133 
L 492.338531 186.964084 
L 494.636711 186.955255 
L 496.934891 189.960488 
L 499.233071 187.646752 
L 501.531251 188.425657 
L 503.829432 188.667938 
L 506.127612 189.392933 
L 508.425792 190.944794 
L 510.723972 193.172437 
L 513.022152 191.402651 
L 515.320332 191.204074 
L 517.618512 190.178005 
L 519.916692 192.366296 
L 522.214872 190.996043 
L 524.513052 191.510283 
L 526.811233 191.744549 
L 529.109413 192.768521 
L 531.407593 192.599247 
L 533.705773 193.353795 
L 536.003953 192.695921 
L 538.302133 193.435004 
L 540.600313 193.760748 
L 542.898493 193.489791 
L 545.196673 193.975041 
L 547.494853 192.246674 
L 549.793034 194.025475 
L 552.091214 194.960412 
L 554.389394 195.58964 
L 556.687574 195.764988 
L 558.985754 196.817855 
L 561.283934 196.266549 
L 563.582114 196.134654 
L 565.880294 196.069819 
L 568.178474 195.931319 
L 570.476654 195.911909 
L 572.774834 193.703645 
L 575.073015 194.939812 
L 577.371195 194.927133 
L 579.669375 193.982993 
L 581.967555 194.379771 
L 584.265735 195.74708 
L 586.563915 197.806357 
L 588.862095 196.858241 
L 591.160275 196.856362 
L 593.458455 196.476302 
L 595.756635 195.971892 
L 598.054816 197.819787 
L 600.352996 195.320092 
L 602.651176 194.404409 
L 604.949356 191.84761 
L 607.247536 194.943256 
L 609.545716 195.20072 
L 611.843896 195.885612 
L 614.142076 196.634149 
L 616.440256 197.376832 
L 618.738436 198.16419 
L 621.036617 197.12685 
L 623.334797 197.194723 
L 625.632977 197.852753 
L 627.931157 198.002742 
L 630.229337 199.534348 
L 632.527517 198.372096 
L 634.825697 199.646175 
L 637.123877 199.601376 
L 639.422057 202.651189 
L 641.720237 202.028315 
L 644.018417 200.99827 
L 646.316598 200.390455 
L 648.614778 198.355535 
L 650.912958 196.119471 
L 653.211138 193.958793 
L 655.509318 190.770887 
L 657.807498 185.260386 
L 660.105678 181.024747 
L 662.403858 237.910655 
" style="fill:none;stroke:#d55e00;stroke-linecap:round;stroke-width:1.75;"/>
   </g>
   <g id="patch_8">
    <path d="M 423.508037 284.08 
L 423.508037 28.92 
" style="fill:none;stroke:#262626;stroke-linecap:square;stroke-linejoin:miter;stroke-width:1.25;"/>
   </g>
   <g id="patch_9">
    <path d="M 673.77985 284.08 
L 673.77985 28.92 
" style="fill:none;stroke:#262626;stroke-linecap:square;stroke-linejoin:miter;stroke-width:1.25;"/>
   </g>
   <g id="patch_10">
    <path d="M 423.508037 284.08 
L 673.77985 284.08 
" style="fill:none;stroke:#262626;stroke-linecap:square;stroke-linejoin:miter;stroke-width:1.25;"/>
   </g>
   <g id="patch_11">
    <path d="M 423.508037 28.92 
L 673.77985 28.92 
" style="fill:none;stroke:#262626;stroke-linecap:square;stroke-linejoin:miter;stroke-width:1.25;"/>
   </g>
   <g id="legend_1">
    <g id="line2d_19">
     <path d="M 506.40485 54.235625 
L 546.40485 54.235625 
" style="fill:none;stroke:#0072b2;stroke-linecap:round;stroke-width:1.75;"/>
    </g>
    <g id="line2d_20"/>
    <g id="text_11">
     <text style="fill:#262626;font-family:Arial;font-size:20px;font-style:normal;font-weight:normal;text-anchor:start;" transform="rotate(-0, 562.40485, 61.235625)" x="562.40485" y="61.235625">Observed</text>
    </g>
    <g id="line2d_21">
     <path d="M 506.40485 82.52625 
L 546.40485 82.52625 
" style="fill:none;stroke:#d55e00;stroke-linecap:round;stroke-width:1.75;"/>
    </g>
    <g id="line2d_22"/>
    <g id="text_12">
     <text style="fill:#262626;font-family:Arial;font-size:20px;font-style:normal;font-weight:normal;text-anchor:start;" transform="rotate(-0, 562.40485, 89.52625)" x="562.40485" y="89.52625">Simulation</text>
    </g>
   </g>
  </g>
 </g>
 <defs>
  <clipPath id="pae401dc5c2">
   <rect height="255.16" width="250.271813" x="109.045" y="28.92"/>
  </clipPath>
  <clipPath id="pb0b86fbdae">
   <rect height="255.16" width="250.271813" x="423.508037" y="28.92"/>
  </clipPath>
 </defs>
</svg>
