<?xml version="1.0" encoding="utf-8" standalone="no"?>
<!DOCTYPE svg PUBLIC "-//W3C//DTD SVG 1.1//EN"
  "http://www.w3.org/Graphics/SVG/1.1/DTD/svg11.dtd">
<!-- Created with matplotlib (http://matplotlib.org/) -->
<svg height="360pt" version="1.1" viewBox="0 0 720 360" width="720pt" xmlns="http://www.w3.org/2000/svg" xmlns:xlink="http://www.w3.org/1999/xlink">
 <defs>
  <style type="text/css">
*{stroke-linecap:butt;stroke-linejoin:round;}
  </style>
 </defs>
 <g id="figure_1">
  <g id="patch_1">
   <path d="M 0 360 
L 720 360 
L 720 0 
L 0 0 
z
" style="fill:#ffffff;"/>
  </g>
  <g id="axes_1">
   <g id="patch_2">
    <path d="M 97.92 284.08 
L 353.754313 284.08 
L 353.754313 28.92 
L 97.92 28.92 
z
" style="fill:#ffffff;"/>
   </g>
   <g id="matplotlib.axis_1">
    <g id="xtick_1">
     <g id="line2d_1">
      <defs>
       <path d="M 0 0 
L 0 2 
" id="m75af3fca1b" style="stroke:#262626;"/>
      </defs>
      <g>
       <use style="fill:#262626;stroke:#262626;" x="109.548832" xlink:href="#m75af3fca1b" y="284.08"/>
      </g>
     </g>
     <g id="text_1">
      <text style="fill:#262626;font-family:Arial;font-size:20px;font-style:normal;font-weight:normal;" transform="translate(88.431645 307.395625)">Start</text>
      <text style="fill:#262626;font-family:Arial;font-size:20px;font-style:normal;font-weight:normal;" transform="translate(80.083207 328.549375)">Codon</text>
     </g>
    </g>
    <g id="xtick_2">
     <g id="line2d_2">
      <g>
       <use style="fill:#262626;stroke:#262626;" x="344.474739" xlink:href="#m75af3fca1b" y="284.08"/>
      </g>
     </g>
     <g id="text_2">
      <text style="fill:#262626;font-family:Arial;font-size:20px;font-style:normal;font-weight:normal;" transform="translate(323.904427 307.639375)">Stop</text>
      <text style="fill:#262626;font-family:Arial;font-size:20px;font-style:normal;font-weight:normal;" transform="translate(315.009114 328.793125)">Codon</text>
     </g>
    </g>
   </g>
   <g id="matplotlib.axis_2">
    <g id="ytick_1">
     <g id="line2d_3">
      <defs>
       <path d="M 0 0 
L -2 0 
" id="m7fc61656e7" style="stroke:#262626;"/>
      </defs>
      <g>
       <use style="fill:#262626;stroke:#262626;" x="97.92" xlink:href="#m7fc61656e7" y="272.481818"/>
      </g>
     </g>
     <g id="text_3">
      <text style="fill:#262626;font-family:Arial;font-size:20px;font-style:normal;font-weight:normal;text-anchor:end;" transform="rotate(-0, 88.92, 279.639631)" x="88.92" y="279.639631">0.00</text>
     </g>
    </g>
    <g id="ytick_2">
     <g id="line2d_4">
      <g>
       <use style="fill:#262626;stroke:#262626;" x="97.92" xlink:href="#m7fc61656e7" y="188.989068"/>
      </g>
     </g>
     <g id="text_4">
      <text style="fill:#262626;font-family:Arial;font-size:20px;font-style:normal;font-weight:normal;text-anchor:end;" transform="rotate(-0, 88.92, 196.14688)" x="88.92" y="196.14688">0.01</text>
     </g>
    </g>
    <g id="ytick_3">
     <g id="line2d_5">
      <g>
       <use style="fill:#262626;stroke:#262626;" x="97.92" xlink:href="#m7fc61656e7" y="105.496317"/>
      </g>
     </g>
     <g id="text_5">
      <text style="fill:#262626;font-family:Arial;font-size:20px;font-style:normal;font-weight:normal;text-anchor:end;" transform="rotate(-0, 88.92, 112.65413)" x="88.92" y="112.65413">0.02</text>
     </g>
    </g>
    <g id="text_6">
     <text style="fill:#262626;font-family:Arial;font-size:22px;font-style:normal;font-weight:normal;text-anchor:middle;" transform="rotate(-90, 41.625625, 156.5)" x="41.625625" y="156.5">Mean Quadparser score</text>
    </g>
   </g>
   <g id="line2d_6">
    <path clip-path="url(#p63aedd4ab0)" d="M 109.548832 152.842384 
L 111.898091 88.893101 
L 114.247351 101.871738 
L 116.59661 98.096134 
L 118.945869 113.434523 
L 121.295128 117.446102 
L 123.644387 109.186969 
L 125.993646 116.266226 
L 128.342905 120.041829 
L 130.692164 118.861953 
L 133.041423 108.243069 
L 135.390682 112.018672 
L 137.739941 119.097928 
L 140.0892 129.716813 
L 142.438459 114.614399 
L 144.787718 118.861953 
L 147.136977 107.771118 
L 149.486237 101.399787 
L 151.835496 105.883316 
L 154.184755 109.422945 
L 156.534014 113.670498 
L 158.883273 101.635763 
L 161.232532 118.861953 
L 163.581791 118.390003 
L 165.93105 112.962573 
L 168.280309 116.030251 
L 170.629568 108.007093 
L 172.978827 114.378424 
L 175.328086 112.962573 
L 177.677345 110.13087 
L 180.026604 105.411366 
L 182.375864 111.074771 
L 184.725123 85.825423 
L 187.074382 106.119292 
L 189.423641 95.028456 
L 191.7729 102.579663 
L 194.122159 100.691862 
L 196.471418 102.343688 
L 198.820677 110.366845 
L 201.169936 110.602821 
L 203.519195 111.546722 
L 205.868454 108.950994 
L 208.217713 114.378424 
L 210.566972 102.579663 
L 212.916231 114.142449 
L 215.26549 97.624184 
L 217.61475 108.243069 
L 219.964009 91.724803 
L 222.313268 95.264432 
L 224.662527 108.007093 
L 227.011786 95.736382 
L 229.361045 97.624184 
L 231.710304 97.152233 
L 234.059563 96.916258 
L 236.408822 106.119292 
L 238.758081 105.647341 
L 241.10734 100.455886 
L 243.456599 105.411366 
L 245.805858 113.906474 
L 248.155117 101.871738 
L 250.504376 111.782697 
L 252.853636 96.680283 
L 255.202895 110.838796 
L 257.552154 106.119292 
L 259.901413 103.995515 
L 262.250672 81.341894 
L 264.599931 87.713225 
L 266.94919 93.140655 
L 269.298449 95.264432 
L 271.647708 91.252853 
L 273.996967 92.432729 
L 276.346226 73.790687 
L 278.695485 81.341894 
L 281.044744 86.769324 
L 283.394003 79.218117 
L 285.743263 91.016878 
L 288.092522 81.577869 
L 290.441781 76.62239 
L 292.79104 79.218117 
L 295.140299 76.386415 
L 297.489558 68.599232 
L 299.838817 71.66691 
L 302.188076 54.44072 
L 304.537335 62.227902 
L 306.886594 54.91267 
L 309.235853 48.777314 
L 311.585112 43.113909 
L 313.934371 53.260843 
L 316.28363 40.518182 
L 318.632889 42.405984 
L 320.982149 56.564496 
L 323.331408 63.879728 
L 325.680667 56.564496 
L 328.029926 64.115703 
L 330.379185 76.62239 
L 332.728444 109.186969 
L 335.077703 128.772912 
L 337.426962 168.652724 
L 339.776221 237.557486 
L 342.12548 272.481818 
" style="fill:none;stroke:#0072b2;stroke-linecap:round;stroke-width:1.75;"/>
   </g>
   <g id="line2d_7">
    <path clip-path="url(#p63aedd4ab0)" d="M 109.548832 163.558019 
L 111.898091 94.669774 
L 114.247351 100.644667 
L 116.59661 100.019332 
L 118.945869 114.215601 
L 121.295128 120.22825 
L 123.644387 109.614085 
L 125.993646 112.478824 
L 128.342905 111.801575 
L 130.692164 109.786346 
L 133.041423 103.719424 
L 135.390682 104.507581 
L 137.739941 110.562705 
L 140.0892 111.483008 
L 142.438459 99.023517 
L 144.787718 105.873877 
L 147.136977 100.319021 
L 149.486237 90.844616 
L 151.835496 84.640828 
L 154.184755 97.404727 
L 156.534014 101.84578 
L 158.883273 87.989316 
L 161.232532 97.28202 
L 163.581791 102.843956 
L 165.93105 95.233755 
L 168.280309 98.32267 
L 170.629568 91.668169 
L 172.978827 105.961188 
L 175.328086 108.080246 
L 177.677345 95.95112 
L 180.026604 99.09195 
L 182.375864 95.044975 
L 184.725123 81.146035 
L 187.074382 98.181085 
L 189.423641 91.767279 
L 191.7729 89.716654 
L 194.122159 86.733928 
L 196.471418 87.935042 
L 198.820677 94.200183 
L 201.169936 97.999384 
L 203.519195 93.296398 
L 205.868454 86.167587 
L 208.217713 95.547602 
L 210.566972 88.61229 
L 212.916231 97.352812 
L 215.26549 86.129831 
L 217.61475 95.535803 
L 219.964009 83.538823 
L 222.313268 80.265847 
L 224.662527 96.668484 
L 227.011786 92.104724 
L 229.361045 89.749691 
L 231.710304 83.144745 
L 234.059563 90.960244 
L 236.408822 89.324936 
L 238.758081 89.598667 
L 241.10734 85.879697 
L 243.456599 95.524004 
L 245.805858 88.827028 
L 248.155117 82.387264 
L 250.504376 90.096574 
L 252.853636 88.42115 
L 255.202895 92.848046 
L 257.552154 93.629123 
L 259.901413 93.858019 
L 262.250672 69.29064 
L 264.599931 84.659706 
L 266.94919 77.28548 
L 269.298449 81.861039 
L 271.647708 81.828003 
L 273.996967 80.058189 
L 276.346226 74.767625 
L 278.695485 75.449593 
L 281.044744 78.654136 
L 283.394003 80.322481 
L 285.743263 78.840557 
L 288.092522 82.571325 
L 290.441781 80.737797 
L 292.79104 78.026442 
L 295.140299 76.90556 
L 297.489558 74.217802 
L 299.838817 74.869094 
L 302.188076 71.662191 
L 304.537335 72.90578 
L 306.886594 72.016154 
L 309.235853 55.29259 
L 311.585112 49.820325 
L 313.934371 52.071528 
L 316.28363 48.612132 
L 318.632889 44.63123 
L 320.982149 52.333461 
L 323.331408 52.128162 
L 325.680667 53.529855 
L 328.029926 62.383645 
L 330.379185 73.557072 
L 332.728444 92.626229 
L 335.077703 107.353442 
L 337.426962 147.5471 
L 339.776221 232.649202 
L 342.12548 272.481818 
" style="fill:none;stroke:#d55e00;stroke-linecap:round;stroke-width:1.75;"/>
   </g>
   <g id="patch_3">
    <path d="M 97.92 284.08 
L 97.92 28.92 
" style="fill:none;stroke:#262626;stroke-linecap:square;stroke-linejoin:miter;stroke-width:1.25;"/>
   </g>
   <g id="patch_4">
    <path d="M 353.754313 284.08 
L 353.754313 28.92 
" style="fill:none;stroke:#262626;stroke-linecap:square;stroke-linejoin:miter;stroke-width:1.25;"/>
   </g>
   <g id="patch_5">
    <path d="M 97.92 284.08 
L 353.754313 284.08 
" style="fill:none;stroke:#262626;stroke-linecap:square;stroke-linejoin:miter;stroke-width:1.25;"/>
   </g>
   <g id="patch_6">
    <path d="M 97.92 28.92 
L 353.754313 28.92 
" style="fill:none;stroke:#262626;stroke-linecap:square;stroke-linejoin:miter;stroke-width:1.25;"/>
   </g>
  </g>
  <g id="axes_2">
   <g id="patch_7">
    <path d="M 417.945537 284.08 
L 673.77985 284.08 
L 673.77985 28.92 
L 417.945537 28.92 
z
" style="fill:#ffffff;"/>
   </g>
   <g id="matplotlib.axis_3">
    <g id="xtick_3">
     <g id="line2d_8">
      <g>
       <use style="fill:#262626;stroke:#262626;" x="429.57437" xlink:href="#m75af3fca1b" y="284.08"/>
      </g>
     </g>
     <g id="text_7">
      <text style="fill:#262626;font-family:Arial;font-size:20px;font-style:normal;font-weight:normal;" transform="translate(408.457182 307.395625)">Start</text>
      <text style="fill:#262626;font-family:Arial;font-size:20px;font-style:normal;font-weight:normal;" transform="translate(400.108745 328.549375)">Codon</text>
     </g>
    </g>
    <g id="xtick_4">
     <g id="line2d_9">
      <g>
       <use style="fill:#262626;stroke:#262626;" x="664.500276" xlink:href="#m75af3fca1b" y="284.08"/>
      </g>
     </g>
     <g id="text_8">
      <text style="fill:#262626;font-family:Arial;font-size:20px;font-style:normal;font-weight:normal;" transform="translate(643.929964 307.639375)">Stop</text>
      <text style="fill:#262626;font-family:Arial;font-size:20px;font-style:normal;font-weight:normal;" transform="translate(635.034651 328.793125)">Codon</text>
     </g>
    </g>
   </g>
   <g id="matplotlib.axis_4">
    <g id="ytick_4">
     <g id="line2d_10">
      <g>
       <use style="fill:#262626;stroke:#262626;" x="417.945537" xlink:href="#m7fc61656e7" y="272.481818"/>
      </g>
     </g>
    </g>
    <g id="ytick_5">
     <g id="line2d_11">
      <g>
       <use style="fill:#262626;stroke:#262626;" x="417.945537" xlink:href="#m7fc61656e7" y="188.989068"/>
      </g>
     </g>
    </g>
    <g id="ytick_6">
     <g id="line2d_12">
      <g>
       <use style="fill:#262626;stroke:#262626;" x="417.945537" xlink:href="#m7fc61656e7" y="105.496317"/>
      </g>
     </g>
    </g>
   </g>
   <g id="line2d_13">
    <path clip-path="url(#pe858b75907)" d="M 429.57437 237.557486 
L 431.923629 129.008887 
L 434.272888 92.668704 
L 436.622147 79.218117 
L 438.971406 50.665116 
L 441.320665 60.576075 
L 443.669924 48.069389 
L 446.019183 58.216323 
L 448.368442 59.160224 
L 450.717701 64.823629 
L 453.06696 65.295579 
L 455.416219 79.926043 
L 457.765478 91.252853 
L 460.114737 98.80406 
L 462.463997 99.040035 
L 464.813256 102.343688 
L 467.162515 114.142449 
L 469.511774 113.906474 
L 471.861033 130.660714 
L 474.210292 135.616193 
L 476.559551 140.807648 
L 478.90881 146.943004 
L 481.258069 149.774706 
L 483.607328 155.438112 
L 485.956587 161.809442 
L 488.305846 163.697244 
L 490.655105 158.033839 
L 493.004364 156.382012 
L 495.353623 169.596624 
L 497.702883 159.213715 
L 500.052142 169.360649 
L 502.401401 166.528947 
L 504.75066 169.596624 
L 507.099919 181.63136 
L 509.449178 178.563683 
L 511.798437 182.103311 
L 514.147696 162.753343 
L 516.496955 168.180773 
L 518.846214 181.63136 
L 521.195473 165.349071 
L 523.544732 176.439906 
L 525.893991 170.540525 
L 528.24325 187.05879 
L 530.59251 184.935013 
L 532.941769 183.755137 
L 535.291028 185.642939 
L 537.640287 174.080154 
L 539.989546 184.935013 
L 542.338805 190.362443 
L 544.688064 184.935013 
L 547.037323 187.766716 
L 549.386582 195.553898 
L 551.735841 192.01427 
L 554.0851 192.250245 
L 556.434359 190.126468 
L 558.783618 188.946592 
L 561.132877 179.035633 
L 563.482136 190.362443 
L 565.831396 196.261824 
L 568.180655 189.418542 
L 570.529914 188.946592 
L 572.879173 189.418542 
L 575.228432 192.958171 
L 577.577691 195.081948 
L 579.92695 192.250245 
L 582.276209 194.138047 
L 584.625468 192.722196 
L 586.974727 191.542319 
L 589.323986 194.374022 
L 591.673245 189.418542 
L 594.022504 186.350865 
L 596.371763 193.902072 
L 598.721023 186.350865 
L 601.070282 183.047212 
L 603.419541 198.149625 
L 605.7688 196.733774 
L 608.118059 188.710617 
L 610.467318 183.755137 
L 612.816577 195.789873 
L 615.165836 189.182567 
L 617.515095 180.215509 
L 619.864354 189.654518 
L 622.213613 188.002691 
L 624.562872 203.105105 
L 626.912131 197.4417 
L 629.26139 199.565477 
L 631.610649 201.925229 
L 633.959909 198.149625 
L 636.309168 198.857551 
L 638.658427 200.509378 
L 641.007686 190.126468 
L 643.356945 199.093526 
L 645.706204 195.553898 
L 648.055463 204.756931 
L 650.404722 199.093526 
L 652.753981 184.463063 
L 655.10324 174.316129 
L 657.452499 185.642939 
L 659.801758 241.80504 
L 662.151017 272.481818 
" style="fill:none;stroke:#0072b2;stroke-linecap:round;stroke-width:1.75;"/>
   </g>
   <g id="line2d_14">
    <path clip-path="url(#pe858b75907)" d="M 429.57437 245.61604 
L 431.923629 186.697748 
L 434.272888 168.834424 
L 436.622147 161.696174 
L 438.971406 152.353915 
L 441.320665 153.826401 
L 443.669924 152.530897 
L 446.019183 156.056367 
L 448.368442 152.875421 
L 450.717701 168.20673 
L 453.06696 171.184738 
L 455.416219 172.942753 
L 457.765478 167.000897 
L 460.114737 178.613237 
L 462.463997 176.038748 
L 464.813256 177.841598 
L 467.162515 178.374902 
L 469.511774 179.356559 
L 471.861033 185.222903 
L 474.210292 192.479141 
L 476.559551 191.53288 
L 478.90881 193.375847 
L 481.258069 194.77754 
L 483.607328 197.231682 
L 485.956587 197.205725 
L 488.305846 196.755012 
L 490.655105 196.219348 
L 493.004364 188.20799 
L 495.353623 195.284886 
L 497.702883 195.490185 
L 500.052142 198.58382 
L 502.401401 198.350204 
L 504.75066 193.024244 
L 507.099919 200.020909 
L 509.449178 199.497044 
L 511.798437 200.650963 
L 514.147696 192.854342 
L 516.496955 193.123353 
L 518.846214 195.610532 
L 521.195473 192.186532 
L 523.544732 197.776785 
L 525.893991 198.225138 
L 528.24325 197.526651 
L 530.59251 195.896062 
L 532.941769 198.402119 
L 535.291028 198.510668 
L 537.640287 198.364363 
L 539.989546 199.296465 
L 542.338805 203.317483 
L 544.688064 195.315563 
L 547.037323 200.872779 
L 549.386582 204.499718 
L 551.735841 202.57652 
L 554.0851 201.53587 
L 556.434359 199.938318 
L 558.783618 197.606882 
L 561.132877 196.511957 
L 563.482136 199.813251 
L 565.831396 202.833733 
L 568.180655 201.668016 
L 570.529914 195.015875 
L 572.879173 198.989697 
L 575.228432 201.708132 
L 577.577691 200.20025 
L 579.92695 201.729369 
L 582.276209 199.018014 
L 584.625468 204.282621 
L 586.974727 196.375092 
L 589.323986 201.137072 
L 591.673245 201.63026 
L 594.022504 197.479456 
L 596.371763 197.217523 
L 598.721023 190.813156 
L 601.070282 194.322107 
L 603.419541 200.735914 
L 605.7688 201.849717 
L 608.118059 195.645928 
L 610.467318 192.483861 
L 612.816577 201.500474 
L 615.165836 193.314493 
L 617.515095 193.017165 
L 619.864354 197.989162 
L 622.213613 196.738494 
L 624.562872 206.314368 
L 626.912131 204.086762 
L 629.26139 204.820645 
L 631.610649 206.892507 
L 633.959909 198.345485 
L 636.309168 205.755107 
L 638.658427 207.097806 
L 641.007686 205.191126 
L 643.356945 201.620821 
L 645.706204 202.253234 
L 648.055463 205.05426 
L 650.404722 203.409513 
L 652.753981 199.716501 
L 655.10324 196.174513 
L 657.452499 202.283911 
L 659.801758 249.759765 
L 662.151017 272.481818 
" style="fill:none;stroke:#d55e00;stroke-linecap:round;stroke-width:1.75;"/>
   </g>
   <g id="patch_8">
    <path d="M 417.945537 284.08 
L 417.945537 28.92 
" style="fill:none;stroke:#262626;stroke-linecap:square;stroke-linejoin:miter;stroke-width:1.25;"/>
   </g>
   <g id="patch_9">
    <path d="M 673.77985 284.08 
L 673.77985 28.92 
" style="fill:none;stroke:#262626;stroke-linecap:square;stroke-linejoin:miter;stroke-width:1.25;"/>
   </g>
   <g id="patch_10">
    <path d="M 417.945537 284.08 
L 673.77985 284.08 
" style="fill:none;stroke:#262626;stroke-linecap:square;stroke-linejoin:miter;stroke-width:1.25;"/>
   </g>
   <g id="patch_11">
    <path d="M 417.945537 28.92 
L 673.77985 28.92 
" style="fill:none;stroke:#262626;stroke-linecap:square;stroke-linejoin:miter;stroke-width:1.25;"/>
   </g>
   <g id="legend_1">
    <g id="line2d_15">
     <path d="M 506.40485 54.235625 
L 546.40485 54.235625 
" style="fill:none;stroke:#0072b2;stroke-linecap:round;stroke-width:1.75;"/>
    </g>
    <g id="line2d_16"/>
    <g id="text_9">
     <text style="fill:#262626;font-family:Arial;font-size:20px;font-style:normal;font-weight:normal;text-anchor:start;" transform="rotate(-0, 562.40485, 61.235625)" x="562.40485" y="61.235625">Observed</text>
    </g>
    <g id="line2d_17">
     <path d="M 506.40485 82.52625 
L 546.40485 82.52625 
" style="fill:none;stroke:#d55e00;stroke-linecap:round;stroke-width:1.75;"/>
    </g>
    <g id="line2d_18"/>
    <g id="text_10">
     <text style="fill:#262626;font-family:Arial;font-size:20px;font-style:normal;font-weight:normal;text-anchor:start;" transform="rotate(-0, 562.40485, 89.52625)" x="562.40485" y="89.52625">Simulation</text>
    </g>
   </g>
  </g>
 </g>
 <defs>
  <clipPath id="p63aedd4ab0">
   <rect height="255.16" width="255.834313" x="97.92" y="28.92"/>
  </clipPath>
  <clipPath id="pe858b75907">
   <rect height="255.16" width="255.834313" x="417.945537" y="28.92"/>
  </clipPath>
 </defs>
</svg>
