<?xml version="1.0" encoding="UTF-8" standalone="no"?>
<!-- Created with Inkscape (http://www.inkscape.org/) -->

<svg
   xmlns:dc="http://purl.org/dc/elements/1.1/"
   xmlns:cc="http://creativecommons.org/ns#"
   xmlns:rdf="http://www.w3.org/1999/02/22-rdf-syntax-ns#"
   xmlns:svg="http://www.w3.org/2000/svg"
   xmlns="http://www.w3.org/2000/svg"
   xmlns:xlink="http://www.w3.org/1999/xlink"
   xmlns:sodipodi="http://sodipodi.sourceforge.net/DTD/sodipodi-0.dtd"
   xmlns:inkscape="http://www.inkscape.org/namespaces/inkscape"
   width="256.60681mm"
   height="168.77679mm"
   viewBox="0 0 909.23673 598.02801"
   id="svg2"
   version="1.1"
   inkscape:version="0.91 r13725"
   sodipodi:docname="freshwatercrisis.svg">
  <defs
     id="defs4" />
  <sodipodi:namedview
     id="base"
     pagecolor="#ffffff"
     bordercolor="#666666"
     borderopacity="1.0"
     inkscape:pageopacity="0.0"
     inkscape:pageshadow="2"
     inkscape:zoom="0.80010475"
     inkscape:cx="582.79818"
     inkscape:cy="218.26954"
     inkscape:document-units="px"
     inkscape:current-layer="layer1"
     showgrid="false"
     inkscape:window-width="1875"
     inkscape:window-height="1056"
     inkscape:window-x="45"
     inkscape:window-y="0"
     inkscape:window-maximized="1"
     showguides="false"
     fit-margin-top="10"
     fit-margin-left="10"
     fit-margin-right="10"
     fit-margin-bottom="10" />
  <metadata
     id="metadata7">
    <rdf:RDF>
      <cc:Work
         rdf:about="">
        <dc:format>image/svg+xml</dc:format>
        <dc:type
           rdf:resource="http://purl.org/dc/dcmitype/StillImage" />
        <dc:title></dc:title>
      </cc:Work>
    </rdf:RDF>
  </metadata>
  <g
     inkscape:label="Layer 1"
     inkscape:groupmode="layer"
     id="layer1"
     transform="translate(25.150243,-147.04757)">
    <g
       id="g4727"
       transform="matrix(1.091214,0,0,1.091214,-168.69013,6.1902696)">
      <path
         sodipodi:nodetypes="cssc"
         inkscape:connector-curvature="0"
         id="path4249"
         d="m 461.49815,321.17245 c 0,0 10.81881,9.12428 10.60733,32.91156 -0.1666,18.73789 -8.46214,40.31143 -9.84937,58.93232 -1.42995,19.19431 5.05739,37.91576 10.86667,37.1896"
         style="fill:none;fill-rule:evenodd;stroke:#000000;stroke-width:3;stroke-linecap:butt;stroke-linejoin:miter;stroke-miterlimit:4;stroke-dasharray:none;stroke-opacity:1" />
      <path
         sodipodi:nodetypes="ccsscccscscsscccscscscccccccscsccccsccccscscsccscscsccccccc"
         inkscape:connector-curvature="0"
         id="path4251"
         d="m 472.80142,450.43307 c 14.75418,2.63324 42.1967,28.62117 30.59045,48.45778 -5.57546,9.03233 -19.33061,18.65966 -28.12795,20.33851 -40.58864,7.74576 -71.74785,2.17596 -96.49951,2.46251 -11.36677,0.13159 -20.55918,-2.13641 -30.24082,-9.36078 -16.62899,-14.1343 -25.10183,-29.76289 -4.66843,-43.8133 8.12178,-5.96383 34.13972,-15.46831 34.13972,-15.46831 0,0 2.61862,-20.90021 2.32027,-37.40983 -0.15958,-8.83072 -2.9359,-21.99816 -2.9359,-21.99816 0,0 -35.09983,-5.45108 -49.84213,2.67944 -13.77242,7.59561 -29.06849,13.96392 -29.11201,39.33709 0.46767,4.06383 -1.5982,18.2788 -12.92816,21.08522 -14.76249,3.65665 -70.20579,-1.89178 -80.33931,-12.46645 -9.83715,-10.26539 -15.10381,-25.79986 -14.7723,-40.01386 3.30338,-30.67827 16.70327,-42.44381 42.47155,-49.27004 12.56707,-3.08177 39.71189,-2.4445 39.71189,-2.4445 0,0 34.94064,1.63498 50.87189,-0.85652 18.18474,-2.84393 51.47608,-15.14977 51.47608,-15.14977 0,0 4.88203,-3.16486 9.69978,-9.50886 4.13594,-5.44619 6.58702,-17.15375 11.07762,-17.42481 2.21557,-6.0962 -2.61993,-9.45363 2.40106,-18.90038 4.72216,-8.88453 16.06774,-8.49502 16.06774,-8.49502 1.54058,-11.75701 1.79934,-23.30039 -0.1539,-34.4751 0,0 -9.65055,-0.65532 -13.08207,-12.15863 -5.25092,1.44421 -18.3149,5.23283 -18.3149,5.23283 0,0 4.41335,8.65127 0.26144,14.25389 -11.59732,10.04677 -33.04518,6.62756 -39.96937,-1.32573 -12.03031,-15.41238 0.26169,-34.56743 25.39461,-30.62744 6.104,-0.12707 19.566,-2.07774 22.62428,-3.07814 3.05828,-1.00039 5.59195,-3.84766 7.69534,-5.84845 0,0 -5.91784,-7.94208 -11.09726,-10.45077 -5.65575,-2.73939 -19.68408,-1.55395 -19.68408,-1.55395 -17.49643,-0.84539 -20.6096,-22.66144 -6.7719,-28.93446 11.54125,-5.02893 24.48022,-3.7968 30.43708,9.90495 l 14.04196,5.94744 c 0,0 10.12997,-5.34594 25.51567,-4.2384 22.24347,1.6012 27.73605,8.8556 27.73605,8.8556 l 26.77977,-14.00551 c 0,0 -2.97883,-10.19905 7.22867,-12.91303 22.94226,-2.06744 26.29687,9.90461 24.16829,28.1498 -0.55609,4.90693 -0.17941,10.73587 -10.31382,10.63532 -4.51555,-0.0448 -14.46515,-5.71031 -14.46515,-5.71031 0,0 -7.57183,1.43818 -10.89603,2.77289 -3.4477,1.3843 -9.41966,5.38416 -9.41966,5.38416 0,0 -0.51304,3.70158 -1.46215,5.39846 -0.74387,1.32995 -3.61677,3.68204 -3.61677,3.68204 l 28.62665,8.92659 c 2.6587,-2.47552 3.79045,-4.62565 6.01922,-5.88778 13.43489,-7.60804 20.35832,5.45693 17.99022,18.04641 -1.22875,5.72114 -8.15705,15.54458 -8.15705,15.54458 -4.8629,9.26704 -22.88934,7.84486 -25.2407,-6.31018 -10.26862,-7.68372 -11.19387,-7.21308 -16.00431,-8.47245 -2.25442,-0.59021 -3.78709,-2.66042 -4.7731,-0.60805 -3.13332,5.78165 -6.83645,7.64003 -12.96554,10.24183 -4.44738,1.82879 -7.19623,1.60899 -7.19623,1.60899 -0.35478,14.88997 -1.4398,25.63452 -0.6319,30.06035 6.45808,2.58969 12.06549,6.49683 17.01766,11.31311 3.53197,4.08407 5.0933,11.90921 4.46948,16.96868 -0.59027,3.99774 -4.07942,12.76276 -4.07942,12.76276"
         style="fill:none;fill-rule:evenodd;stroke:#000000;stroke-width:3;stroke-linecap:butt;stroke-linejoin:miter;stroke-miterlimit:4;stroke-dasharray:none;stroke-opacity:1" />
      <path
         sodipodi:nodetypes="cccscc"
         inkscape:connector-curvature="0"
         id="path4253"
         d="m 220.5421,450.65196 c 0,0 9.59352,26.46939 5.09924,38.66923 -10.48703,19.42164 -40.96372,25.55592 -51.15858,46.13045 -26.36766,60.24579 8.57748,108.11986 62.63187,107.69661 79.88311,-0.62549 89.62657,-80.99264 43.76847,-126.63112 -11.81034,-22.39905 -2.54962,-58.64125 -2.54962,-58.64125"
         style="fill:none;fill-rule:evenodd;stroke:#000000;stroke-width:3;stroke-linecap:butt;stroke-linejoin:miter;stroke-miterlimit:4;stroke-dasharray:none;stroke-opacity:1" />
      <path
         sodipodi:nodetypes="cscsscsscssszscsc"
         inkscape:connector-curvature="0"
         id="path4255"
         d="m 291.95608,530.18532 c -2.56224,1.53734 -5.08709,1.79288 -6.16774,1.56928 -1.3909,-0.28779 -4.00858,-1.44498 -4.00858,-1.44498 l -5.67279,-2.56677 c -2.53286,-1.14605 -3.70432,2.45034 -5.7462,2.71197 -21.74353,2.78604 -15.61811,11.91263 -19.56564,16.97553 -0.21019,1.47654 1.41526,4.5118 2.9778,7.8497 1.94278,4.15019 -0.12324,5.39594 6.15713,10.58578 8.10035,6.69379 17.12861,5.04319 17.12861,5.04319 0.81102,0 6.16906,1.08981 7.14187,3.61887 1.93613,5.03343 -1.42724,10.62713 -3.26653,15.61742 -1.43774,3.9008 0.86677,8.16007 0.17654,12.85681 -0.97054,6.60418 -4.99444,11.63455 -4.39429,15.00465 0.60014,3.37011 2.67794,3.60226 4.59178,3.46971 4.99596,-0.34602 11.42237,-10.62342 11.42237,-10.62342 0,0 5.72256,-7.08927 8.18232,-10.91304 2.9966,-4.6583 4.13029,-9.97776 6.8239,-14.35488"
         style="fill:none;fill-rule:evenodd;stroke:#000000;stroke-width:3;stroke-linecap:butt;stroke-linejoin:miter;stroke-miterlimit:4;stroke-dasharray:none;stroke-opacity:1" />
      <path
         sodipodi:nodetypes="ccccccccc"
         inkscape:connector-curvature="0"
         id="path4257"
         d="m 265.20429,496.0085 c -2.53638,-3.5002 -4.57161,-8.58148 -6.54268,-6.99391 -0.49012,1.95529 -2.86749,3.91057 -0.67683,5.86586 0.98509,1.84252 4.3072,2.68973 3.15853,5.86585 -0.0261,0.90684 -0.60542,1.68743 -1.80487,4.06098 l 1.12805,2.82012 c 2.55393,0.44824 3.80033,-0.41105 3.94817,-2.3689 1.52399,-1.43787 2.93499,-1.97182 4.7378,-5.64025 -1.09006,-1.88125 -2.58097,-2.55994 -3.94817,-3.60975 z"
         style="fill:none;fill-rule:evenodd;stroke:#000000;stroke-width:3;stroke-linecap:butt;stroke-linejoin:miter;stroke-miterlimit:4;stroke-dasharray:none;stroke-opacity:1" />
      <path
         sodipodi:nodetypes="ccccccc"
         inkscape:connector-curvature="0"
         id="path4259"
         d="m 250.20441,497.83521 c 0.16355,-0.76353 0.84537,-1.12396 1.57002,-1.45108 0.68752,0.11101 1.12077,0.22203 2.33124,0.33304 0.59069,0.20655 1.21893,0.37242 1.07047,1.37971 1.02745,2.45235 -0.20766,4.07916 0.11894,6.75585 -1.45278,2.17966 -2.06367,1.43546 -2.64049,0.92774 -2.53175,-5.46514 -2.99618,-5.62106 -2.45018,-7.94526 z"
         style="fill:none;fill-rule:evenodd;stroke:#000000;stroke-width:3;stroke-linecap:butt;stroke-linejoin:miter;stroke-miterlimit:4;stroke-dasharray:none;stroke-opacity:1" />
      <path
         sodipodi:nodetypes="ccccssscscsc"
         inkscape:connector-curvature="0"
         id="path4261"
         d="m 275.65936,503.19654 c -1.55484,-0.93741 -2.90816,-0.7664 -4.10428,0.26914 -2.36281,3.07967 -1.21653,5.6467 -3.36416,7.73757 -3.48979,0.86053 -3.76045,1.72106 -4.3019,2.5816 -0.83111,1.45259 -1.97807,2.42591 -5.54644,3.68415 -3.48744,1.22971 -4.86807,5.27615 1.16881,8.06558 2.05875,0.95128 6.7933,1.33982 8.32468,0.0691 3.27178,-2.7148 1.49867,-6.46104 1.49867,-6.46104 0,0 1.0885,-1.45396 1.87769,-1.82892 0.67482,-0.32062 2.22658,-0.25686 2.22658,-0.25686 0,0 4.41719,1.73323 5.64274,2.18192 1.01429,0.37133 3.30593,-0.63441 3.30593,-0.63441"
         style="fill:none;fill-rule:evenodd;stroke:#000000;stroke-width:3;stroke-linecap:butt;stroke-linejoin:miter;stroke-miterlimit:4;stroke-dasharray:none;stroke-opacity:1" />
      <path
         sodipodi:nodetypes="csssc"
         inkscape:connector-curvature="0"
         id="path4263"
         d="m 226.43497,490.06017 c 0,0 1.50458,1.73057 4.71755,2.35279 3.83488,0.74266 9.51908,0.58823 9.96516,3.38265 0.32429,2.03147 -2.5425,3.70488 -5.04045,3.56122 -7.17477,-0.41261 -14.46003,-4.47889 -14.46003,-4.47889"
         style="fill:none;fill-rule:evenodd;stroke:#000000;stroke-width:3;stroke-linecap:butt;stroke-linejoin:miter;stroke-miterlimit:4;stroke-dasharray:none;stroke-opacity:1" />
      <path
         sodipodi:nodetypes="czcscssccsssscczssssssssszzssssssssszzczssssszsc"
         inkscape:connector-curvature="0"
         id="path4265"
         d="m 220.77296,496.67116 c 3.19926,1.15419 1.43672,5.48348 1.21257,7.12445 -0.22415,1.64097 2.86986,3.42671 4.64868,4.74547 4.81183,4.54626 -3.57945,8.66823 -4.43123,6.73736 -0.80704,-1.82946 -0.88097,-1.4369 -2.42112,-4.85477 -4.12504,1.67523 -4.77732,3.33495 -5.68078,4.94984 -1.01236,1.80953 0.28209,3.08957 -5.02841,6.907 -1.78734,1.28483 -0.68123,4.29349 -1.66739,6.26145 -1.312,5.93056 -9.38147,9.20566 -11.19363,14.33942 -1.15975,3.76933 1.35629,7.58039 1.54614,11.41566 0.10593,2.13997 2.24863,5.79195 -1.01181,5.28269 -4.10839,-0.64172 -2.69353,-4.00151 -2.88828,-5.5121 -0.42453,-3.29292 -0.89899,-8.03868 -3.37119,-10.25493 -1.5542,-1.39329 -4.04306,-0.74587 -5.96607,-0.23307 -2.28926,0.89466 -4.79392,2.56859 -6.48767,4.26234 0,0 -1.49386,2.67941 -1.31374,3.90618 0.18012,1.22678 0.11626,2.32048 1.21107,2.71555 1.06207,0.38325 1.80228,-1.97168 3.17802,-1.80153 1.44411,0.1786 3.3785,2.15769 3.3785,3.07536 0,0.91767 0.31136,3.32499 0.19438,4.9832 -0.0602,0.85287 -0.70049,1.99863 -0.29583,2.75179 1.65387,3.07822 2.84962,4.06473 9.47253,3.90132 3.32746,-0.0821 9.92826,6.21132 15.24571,8.62165 3.6966,1.67562 8.56324,3.39402 11.49308,4.02022 3.42516,0.73205 7.20057,-0.6401 10.49286,0.55504 1.96777,0.71432 2.78245,1.6072 4.20921,3.28584 1.42676,1.67864 3.5121,3.94131 3.55512,5.42119 0.043,1.47988 -1.18738,3.50294 -2.01181,4.43749 -2.56881,2.91197 -7.00817,5.33528 -9.03097,7.35845 -2.48578,2.48622 -5.91277,4.46787 -7.29866,7.61403 -0.6041,1.37139 -0.43015,3.46688 -0.85219,4.41414 -0.85335,1.9153 -3.34493,4.32039 -3.80959,5.00562 -1.43527,2.1166 -3.26901,5.99943 -3.48851,6.83301 -0.3855,1.46394 -0.19747,3.72704 -0.0962,4.54053 0.18894,1.51792 0.99761,3.98078 1.02583,4.47278 0.0526,0.91696 -0.11463,2.37399 -0.4224,2.72284 -0.58286,0.66064 -1.30291,1.2043 -2.61467,0.38597 -1.31177,-0.81833 -2.28201,-2.87791 -3.05473,-4.66634 -0.77273,-1.78843 -1.57491,-5.16511 -1.75398,-6.09488 -0.18917,-0.96089 -2.20729,-3.50504 -2.56226,-4.04274 -0.35497,-0.5377 -0.89487,-0.95255 -1.89008,-2.27865 -0.53767,-0.71644 -1.44516,-2.31122 -1.29215,-2.82889 0.39793,-1.34632 -0.89548,-4.77756 -2.42056,-5.40297 -0.70801,-0.29034 -2.82836,-1.72525 -5.12208,-3.8029 -2.5199,-2.28253 -5.50434,-4.64705 -6.55429,-6.41841 -2.00566,-3.38372 -1.59397,-6.18233 -1.59397,-7.32941 0,-1.14709 -0.26269,-3.2477 -0.012,-4.45001 0.29763,-1.42711 -3.88742,-11.32408 -1.68448,-14.07246"
         style="fill:none;fill-rule:evenodd;stroke:#000000;stroke-width:3;stroke-linecap:butt;stroke-linejoin:miter;stroke-miterlimit:4;stroke-dasharray:none;stroke-opacity:1" />
      <path
         sodipodi:nodetypes="cssszssc"
         inkscape:connector-curvature="0"
         id="path4267"
         d="m 169.90834,548.86445 c 0.79471,2.72853 3.5092,7.48267 3.37978,9.03041 -0.12661,1.51418 0.98346,4.65795 1.41921,5.14396 2.34384,2.61415 1.29092,2.17399 2.71088,2.51789 2.55079,0.61779 1.22937,1.33187 1.80516,2.24522 0.57579,0.91335 1.00764,2.05651 1.64805,3.00121 0.68189,1.00589 2.16213,1.60824 2.31865,2.81335 0.10612,0.81708 -1.03266,2.24579 -1.03266,2.24579"
         style="fill:none;fill-rule:evenodd;stroke:#000000;stroke-width:3;stroke-linecap:butt;stroke-linejoin:miter;stroke-miterlimit:4;stroke-dasharray:none;stroke-opacity:1" />
      <path
         sodipodi:nodetypes="cssssc"
         inkscape:connector-curvature="0"
         id="path4269"
         d="m 215.56187,374.72783 c -12.05454,15.29517 -17.54818,56.93816 -6.90703,58.28676 9.51623,1.20603 16.95978,7.78188 22.46948,9.95125 5.22298,2.05649 7.83279,-0.99888 3.0915,-6.57237 -9.49353,-11.15984 -11.09007,-14.11671 -19.11116,-22.5591 -5.54289,-5.83403 8.34819,-47.39952 0.45721,-39.10654 z"
         style="fill:none;fill-rule:evenodd;stroke:#000000;stroke-width:3;stroke-linecap:butt;stroke-linejoin:miter;stroke-miterlimit:4;stroke-dasharray:none;stroke-opacity:1" />
      <path
         sodipodi:nodetypes="ssssssss"
         inkscape:connector-curvature="0"
         id="path4271"
         d="m 399.1688,329.77413 c -6.73016,0.73476 -3.99323,3.38495 -15.01381,11.71972 -5.8934,4.45712 -16.18898,7.1717 -19.42182,9.14005 -2.36562,1.44034 1.40283,2.4166 2.29192,2.8628 1.66276,0.83446 4.95955,1.56423 7.47663,1.30813 7.01015,-0.71326 14.39159,-3.49875 19.57352,-8.05818 2.04614,-1.80034 7.22622,-6.54415 8.30036,-9.96366 1.29521,-4.12329 -2.13706,-7.12564 -3.2068,-7.00886 z"
         style="fill:none;fill-rule:evenodd;stroke:#000000;stroke-width:3;stroke-linecap:butt;stroke-linejoin:miter;stroke-miterlimit:4;stroke-dasharray:none;stroke-opacity:1" />
      <path
         sodipodi:nodetypes="ssssss"
         inkscape:connector-curvature="0"
         id="path4273"
         d="m 349.49346,231.23847 c 1.18081,-0.5893 3.32157,-0.27193 3.90708,1.2676 1.52216,4.00228 2.27392,11.55166 3.11274,15.18526 0.81273,3.52059 2.87616,6.15556 0.93826,6.19394 -16.67445,0.33027 -14.96077,-14.78348 -13.59513,-17.35298 1.50315,-2.82824 2.68723,-3.82167 5.63705,-5.29382 z"
         style="fill:none;fill-rule:evenodd;stroke:#000000;stroke-width:3;stroke-linecap:butt;stroke-linejoin:miter;stroke-miterlimit:4;stroke-dasharray:none;stroke-opacity:1" />
      <path
         sodipodi:nodetypes="sscscs"
         inkscape:connector-curvature="0"
         id="path4275"
         d="m 509.84673,233.12971 c 1.12789,-6.90842 4.34594,-1.63642 2.54937,6.50813 -1.15213,5.22306 -4.36655,13.04397 -11.51707,14.92687 -5.56811,0.83722 -6.72532,-1.71733 -2.57977,-6.6691 2.11913,-2.53125 6.37077,-3.95395 10.67258,-9.40715 z"
         style="fill:none;fill-rule:evenodd;stroke:#000000;stroke-width:3;stroke-linecap:butt;stroke-linejoin:miter;stroke-miterlimit:4;stroke-dasharray:none;stroke-opacity:1" />
      <path
         sodipodi:nodetypes="cccc"
         inkscape:connector-curvature="0"
         id="path4277"
         d="m 364.06688,178.55796 c -10.73514,8.26113 -3.85437,12.82861 3.06214,17.38859 6.26435,2.06531 10.41182,-2.21842 4.9213,-4.59321 -12.40841,-3.69176 -10.06635,-8.25119 -7.98344,-12.79538 z"
         style="fill:none;fill-rule:evenodd;stroke:#000000;stroke-width:3;stroke-linecap:butt;stroke-linejoin:miter;stroke-miterlimit:4;stroke-dasharray:none;stroke-opacity:1" />
      <path
         sodipodi:nodetypes="cc"
         inkscape:connector-curvature="0"
         id="path4279"
         d="m 400.92195,235.64504 c 5.46616,-1.15947 14.04124,-4.43873 10.49877,-12.13921"
         style="fill:none;fill-rule:evenodd;stroke:#000000;stroke-width:3;stroke-linecap:butt;stroke-linejoin:miter;stroke-miterlimit:4;stroke-dasharray:none;stroke-opacity:1" />
      <path
         sodipodi:nodetypes="cssssssc"
         inkscape:connector-curvature="0"
         id="path4281"
         d="m 405.51516,188.83801 c -2.47615,2.28053 -2.6277,5.28471 -4.33861,7.05461 -3.96127,4.09788 -5.74009,7.89122 -3.62635,10.82411 4.69065,6.50842 22.54149,10.06708 35.71553,12.42752 8.15763,1.46164 19.86642,0.42315 24.17225,-3.09294 3.56444,-2.91067 10.48108,-5.1329 10.61224,-11.35266 0.0487,-2.31158 -2.41451,-3.92908 -4.46961,-6.56025 -0.65852,-0.8431 -5.12417,-4.00262 -4.80604,-4.59782"
         style="fill:none;fill-rule:evenodd;stroke:#000000;stroke-width:3;stroke-linecap:butt;stroke-linejoin:miter;stroke-miterlimit:4;stroke-dasharray:none;stroke-opacity:1" />
      <path
         sodipodi:nodetypes="cc"
         inkscape:connector-curvature="0"
         id="path4283"
         d="m 413.60796,247.78425 c 14.25966,4.93096 23.87782,4.91565 31.16824,2.2966"
         style="fill:none;fill-rule:evenodd;stroke:#000000;stroke-width:3;stroke-linecap:butt;stroke-linejoin:miter;stroke-miterlimit:4;stroke-dasharray:none;stroke-opacity:1" />
      <path
         sodipodi:nodetypes="cccccc"
         inkscape:connector-curvature="0"
         id="path4285"
         d="m 414.26414,196.05591 c 7.77828,-2.44764 8.41757,-1.13791 11.04559,-0.87489 13.08897,2.7645 18.97126,5.28877 23.40352,7.76471 2.32318,1.06069 4.84038,4.36543 -1.42171,6.01493 -8.32144,1.53286 -17.64954,-0.45761 -27.12184,-2.95278 -5.89337,-2.00904 -9.57044,-4.75685 -5.90556,-9.95197 z"
         style="fill:none;fill-rule:evenodd;stroke:#000000;stroke-width:3;stroke-linecap:butt;stroke-linejoin:miter;stroke-miterlimit:4;stroke-dasharray:none;stroke-opacity:1" />
      <path
         inkscape:connector-curvature="0"
         id="path4287"
         d="m 414.26414,281.57718 0,5.24939"
         style="fill:none;fill-rule:evenodd;stroke:#000000;stroke-width:3;stroke-linecap:butt;stroke-linejoin:miter;stroke-miterlimit:4;stroke-dasharray:none;stroke-opacity:1" />
      <path
         sodipodi:nodetypes="cc"
         inkscape:connector-curvature="0"
         id="path4289"
         d="m 444.33876,279.82738 c 0.35066,2.84342 -0.62052,5.46811 -1.42172,8.31153"
         style="fill:none;fill-rule:evenodd;stroke:#000000;stroke-width:3;stroke-linecap:butt;stroke-linejoin:miter;stroke-miterlimit:4;stroke-dasharray:none;stroke-opacity:1" />
      <path
         sodipodi:nodetypes="cc"
         inkscape:connector-curvature="0"
         id="path4291"
         d="m 411.53009,283.65506 c 2.72737,16.31568 51.23203,9.558 45.60405,4.37449"
         style="fill:none;fill-rule:evenodd;stroke:#000000;stroke-width:3;stroke-linecap:butt;stroke-linejoin:miter;stroke-miterlimit:4;stroke-dasharray:none;stroke-opacity:1" />
      <path
         sodipodi:nodetypes="sccssss"
         inkscape:connector-curvature="0"
         id="path4293"
         d="m 409.99901,293.16957 c -1.44387,-0.0473 -5.90556,3.93704 -5.90556,3.93704 -1.54635,6.33122 -2.40319,4.76439 -2.2966,8.53026 2.28549,9.84403 2.4477,8.69816 4.0464,10.60814 2.5347,3.02824 6.50852,1.14381 6.12429,-1.09362 -0.84895,-4.94349 -1.50619,-11.07893 -1.57604,-15.86007 -0.0506,-3.46595 3.9553,-5.97916 -0.39249,-6.12175 z"
         style="fill:none;fill-rule:evenodd;stroke:#000000;stroke-width:3;stroke-linecap:butt;stroke-linejoin:miter;stroke-miterlimit:4;stroke-dasharray:none;stroke-opacity:1" />
      <path
         sodipodi:nodetypes="csc"
         inkscape:connector-curvature="0"
         id="path4295"
         d="m 395.78192,309.68327 c 2.87454,13.41489 27.94848,22.85163 42.11281,21.69055 9.23433,-0.75695 17.79424,-5.60817 24.27007,-10.75432"
         style="fill:none;fill-rule:evenodd;stroke:#000000;stroke-width:3;stroke-linecap:butt;stroke-linejoin:miter;stroke-miterlimit:4;stroke-dasharray:none;stroke-opacity:1" />
      <path
         sodipodi:nodetypes="csssc"
         inkscape:connector-curvature="0"
         id="path4297"
         d="m 377.29971,393.56411 c 8.70921,1.4698 16.58442,6.00937 22.75478,8.45891 9.21147,3.65681 14.284,3.54386 19.03291,8.47331 12.48088,12.95536 12.36006,34.34264 14.74398,44.49914 1.03354,4.40329 -0.0831,9.24362 0.77414,12.27878"
         style="fill:none;fill-rule:evenodd;stroke:#000000;stroke-width:3;stroke-linecap:butt;stroke-linejoin:miter;stroke-miterlimit:4;stroke-dasharray:none;stroke-opacity:1" />
      <path
         sodipodi:nodetypes="cssssc"
         inkscape:connector-curvature="0"
         id="path4299"
         d="m 471.89804,450.43247 c 2.21837,4.13743 3.78792,4.82771 1.97115,8.84898 -5.87467,13.00309 -19.25435,24.80935 -28.86032,28.75823 -6.22125,2.55747 -17.9527,3.04733 -25.82036,3.16736 -8.84384,0.13491 -13.87203,-0.42807 -21.35771,-3.51263 -8.69449,-3.58267 -17.18744,-8.5191 -25.01494,-13.85842"
         style="fill:none;fill-rule:evenodd;stroke:#000000;stroke-width:3;stroke-linecap:butt;stroke-linejoin:miter;stroke-miterlimit:4;stroke-dasharray:none;stroke-opacity:1" />
      <path
         inkscape:connector-curvature="0"
         id="path4663"
         d="m 404.7818,521.89498 c -5.77433,-0.30465 -15.5185,-0.68629 -21.65372,-0.84808 -6.13523,-0.16179 -12.89637,-0.57797 -15.02476,-0.92485 -8.5742,-1.39738 -16.39945,-5.54385 -23.45299,-12.42733 -11.05465,-10.78815 -14.40417,-19.89322 -10.29865,-27.99506 4.26543,-8.41743 14.54113,-14.74984 39.15252,-24.12778 2.52627,-0.96261 4.72672,-1.88281 4.8899,-2.04488 0.83041,-0.82476 2.54566,-23.62487 2.54627,-33.84647 4.4e-4,-7.52012 -0.61691,-14.22427 -1.98036,-21.50573 -0.35413,-1.8912 -0.64387,-3.50269 -0.64387,-3.58108 0,-0.0784 1.36676,0.23622 3.03726,0.69913 3.54642,0.98277 7.8594,2.66916 13.36707,5.22658 2.16538,1.00546 7.35442,2.98901 11.53121,4.40789 4.17679,1.41888 8.24357,2.98114 9.03729,3.47168 2.16253,1.33652 6.33828,6.02453 8.20209,9.20828 2.0224,3.45467 3.95443,8.38247 5.36527,13.68455 1.64632,6.18708 4.23236,22.99899 4.58614,29.81458 0.17485,3.36836 0.34305,6.1735 0.37379,6.23365 0.0308,0.0602 0.35117,0.10936 0.71207,0.10936 0.5366,0 0.65457,-0.73732 0.64737,-4.0464 -0.009,-4.33835 -0.0159,-4.39041 -2.34255,-18.91967 -1.58506,-9.89815 -3.04373,-16.27097 -4.66765,-20.39264 -3.26031,-8.27505 -8.12256,-14.77132 -12.96375,-17.3204 -1.40023,-0.73728 -5.00652,-2.13437 -8.01398,-3.10465 -3.00746,-0.97028 -9.10988,-3.33259 -13.56092,-5.24958 -13.80577,-5.9459 -18.75403,-6.81079 -39.15168,-6.8432 -17.79855,-0.0283 -20.92405,0.60632 -31.49632,6.395 -12.49436,6.84109 -17.54032,11.31917 -21.36014,18.95619 -2.32653,4.65148 -3.38622,9.46158 -3.8067,17.27923 -0.21966,4.08385 -0.65684,7.73732 -1.09927,9.18643 -2.37486,7.77845 -6.81284,12.00481 -13.76047,13.10432 -4.16725,0.65949 -19.6628,0.55066 -28.14601,-0.19769 -18.90797,-1.66797 -34.60487,-4.96287 -43.94211,-9.22379 -3.83844,-1.75163 -7.01504,-4.82 -10.45756,-10.10131 -7.87276,-12.07787 -10.85694,-27.0548 -8.10548,-40.67953 4.21377,-20.86579 14.17623,-32.03228 34.46913,-38.63494 12.14182,-3.95056 14.60897,-4.13596 55.30713,-4.15623 25.59356,-0.0127 34.92079,-0.15826 38.05806,-0.59378 6.51556,-0.90448 13.68391,-2.51412 22.83798,-5.12822 8.91666,-2.54631 29.84156,-9.45183 32.06186,-10.58088 2.07156,-1.05342 6.02462,-4.65214 8.69331,-7.91407 1.65602,-2.02415 3.49221,-5.17261 5.67589,-9.73226 1.77537,-3.70707 3.75226,-7.29733 4.39311,-7.97835 l 1.16517,-1.23823 1.52901,3.05631 c 3.7461,7.48803 14.88588,14.34475 28.37018,17.46234 6.39436,1.47838 14.14044,1.5674 19.07154,0.21917 4.37901,-1.19728 9.28097,-3.48049 13.80834,-6.43158 2.04584,-1.33355 3.78285,-2.42464 3.86001,-2.42464 0.0772,0 0.96948,1.1821 1.98294,2.62689 5.82819,8.30864 8.66882,21.08321 7.54838,33.94569 -0.63362,7.27383 -1.64259,12.98486 -4.87485,27.59288 -3.47563,15.70794 -4.39265,21.38402 -4.69705,29.07346 -0.30479,7.69918 0.34736,14.40696 2.06441,21.23382 1.43373,5.70037 4.22669,11.46441 6.33385,13.07163 0.77312,0.58968 2.05666,2.35471 2.85232,3.92229 l 1.44665,2.85013 -2.03974,4.10886 c -4.65349,9.37399 -13.1703,18.36923 -23.11181,24.4101 -5.62305,3.4168 -10.43968,4.46241 -23.9647,5.20237 -15.5496,0.85071 -21.65966,-0.33772 -34.2638,-6.66446 -3.42061,-1.717 -8.86211,-4.77645 -12.09224,-6.79878 -4.34361,-2.71948 -5.9662,-3.53172 -6.23105,-3.11917 -0.41644,0.64868 -0.28042,0.75608 6.13007,4.83965 6.0537,3.85628 17.59376,9.56861 22.61311,11.19349 5.83225,1.88802 11.17084,2.42218 20.9678,2.09794 13.57904,-0.4494 19.96776,-1.50929 25.32733,-4.20178 9.7568,-4.90153 20.93207,-16.08332 25.90201,-25.91712 2.08842,-4.13226 2.26225,-5.77126 0.88482,-8.34257 -0.61221,-1.14283 -1.0276,-2.07788 -0.9231,-2.07788 0.1045,0 1.32929,0.42052 2.72175,0.93448 9.56128,3.52915 20.94833,14.01233 25.83182,23.78138 5.13651,10.27519 4.4467,18.45678 -2.23216,26.47471 -5.28894,6.34935 -15.77615,13.51942 -22.62512,15.46872 -5.2275,1.4878 -19.38982,3.40556 -31.03275,4.20222 -8.35866,0.57193 -28.23163,0.46121 -41.33892,-0.23034 z M 236.58268,443.38973 c 0.4812,-0.48119 0.8749,-1.27492 0.8749,-1.76385 0,-1.468 -1.25713,-4.0193 -3.01034,-6.10937 -0.90859,-1.08316 -4.33393,-5.24111 -7.61188,-9.23989 -3.27795,-3.99878 -7.24378,-8.66951 -8.81295,-10.37941 -1.56917,-1.7099 -2.9444,-3.55632 -3.05606,-4.10316 -0.54658,-2.6767 -0.5777,-3.91834 -0.20001,-7.9785 0.22458,-2.41419 1.18967,-8.98835 2.14463,-14.60925 1.8886,-11.11622 2.14549,-14.92423 1.06718,-15.81915 -2.87412,-2.38531 -9.38778,9.84434 -12.91381,24.24619 -3.36928,13.7616 -3.52549,28.25691 -0.35972,33.37924 1.05384,1.70514 2.47897,2.51719 5.13133,2.92384 3.04477,0.46683 8.19971,2.65851 13.62326,5.7921 8.05746,4.65539 11.24111,5.54357 13.12347,3.66121 z m 142.08344,-88.56501 c 4.30893,-0.90641 8.56078,-2.59836 12.11195,-4.81972 3.62112,-2.26512 9.56928,-8.09851 11.2661,-11.04871 3.34224,-5.81103 -0.85385,-11.86471 -6.2793,-9.0591 -0.72497,0.37489 -3.52033,2.90344 -6.21192,5.61899 -5.78698,5.8385 -8.55259,7.60016 -17.70063,11.27506 -7.3576,2.95567 -8.40945,3.54781 -8.40945,4.73421 0,1.03657 1.29759,1.93332 4.42541,3.05838 2.84313,1.02266 6.67504,1.10814 10.79784,0.24089 z"
         style="opacity:1;fill:#999999;fill-opacity:1;stroke:none;stroke-width:3;stroke-miterlimit:4;stroke-dasharray:none;stroke-opacity:1" />
      <path
         inkscape:connector-curvature="0"
         id="path4667"
         d="m 231.65306,442.32559 c -0.90682,-0.32355 -4.05645,-1.97018 -6.99918,-3.65916 -6.34177,-3.63986 -9.45318,-4.97892 -13.87911,-5.97319 -1.80361,-0.40518 -3.62037,-1.04535 -4.03724,-1.42261 -3.48167,-3.15087 -3.89685,-16.36801 -0.95461,-30.38963 2.0324,-9.68562 5.98844,-19.75527 9.68014,-24.63968 l 1.65315,-2.18725 0.13103,1.78799 c 0.0721,0.98339 -0.782,7.18423 -1.89794,13.77964 -1.53807,9.0903 -2.04605,13.26173 -2.09955,17.24104 -0.0815,6.06131 -0.11437,5.97487 3.96057,10.41526 3.13171,3.41256 15.39774,18.20587 17.23558,20.78676 1.60299,2.2511 1.8705,3.34151 1.02676,4.18525 -0.84116,0.84116 -1.63019,0.85678 -3.8196,0.0756 z"
         style="opacity:1;fill:#afdde9;fill-opacity:1;stroke:none;stroke-width:3;stroke-miterlimit:4;stroke-dasharray:none;stroke-opacity:1" />
      <path
         inkscape:connector-curvature="0"
         id="path4669"
         d="m 369.56716,353.55682 c -2.90539,-0.87158 -4.37449,-1.52503 -4.37449,-1.94576 0,-0.42573 2.58036,-1.64414 7.65536,-3.61475 8.70662,-3.38076 12.03772,-5.55617 18.43013,-12.03598 3.98866,-4.0432 5.16953,-4.99213 6.52992,-5.24734 1.45949,-0.2738 1.78345,-0.16886 2.67366,0.86607 1.34704,1.56602 1.67332,3.06235 1.09133,5.00487 -1.02056,3.40631 -8.35097,10.59062 -13.63306,13.36133 -6.24126,3.27385 -14.25045,4.84822 -18.37285,3.61156 z"
         style="opacity:1;fill:#aaccff;fill-opacity:1;stroke:none;stroke-width:3;stroke-miterlimit:4;stroke-dasharray:none;stroke-opacity:1" />
      <path
         inkscape:connector-curvature="0"
         id="path4671"
         d="m 406.42085,315.54528 c -1.60875,-1.66221 -2.33481,-3.30709 -3.37712,-7.65086 l -0.75994,-3.16702 1.21007,-3.39472 c 0.66553,-1.8671 1.6921,-3.92017 2.28126,-4.56238 1.25734,-1.37057 4.73368,-3.31248 5.1624,-2.88377 0.16324,0.16325 -0.0231,1.09637 -0.41413,2.07361 -0.90751,2.26811 -0.90944,6.36787 -0.007,13.8613 0.77654,6.44451 0.62476,7.14555 -1.54707,7.14555 -0.74946,0 -1.66977,-0.51332 -2.54896,-1.42171 z"
         style="opacity:1;fill:#d7eef4;fill-opacity:1;stroke:none;stroke-width:3;stroke-miterlimit:4;stroke-dasharray:none;stroke-opacity:1" />
      <path
         inkscape:connector-curvature="0"
         id="path4673"
         d="m 351.70757,252.45025 c -2.88423,-0.90009 -5.07398,-2.64862 -6.46855,-5.16517 -1.11413,-2.01049 -1.26262,-2.71573 -1.26262,-5.99676 0,-3.38756 0.11368,-3.88597 1.278,-5.603 1.57267,-2.31921 4.62683,-4.2257 6.15506,-3.84214 1.31661,0.33045 1.93565,2.25003 3.46921,10.75749 0.58549,3.24806 1.37399,6.76693 1.75222,7.81972 0.37824,1.05278 0.6877,2.08625 0.6877,2.2966 0,0.5712 -3.45177,0.40711 -5.61102,-0.26674 z"
         style="opacity:1;fill:#d7e3f4;fill-opacity:1;stroke:none;stroke-width:3;stroke-miterlimit:4;stroke-dasharray:none;stroke-opacity:1" />
      <path
         inkscape:connector-curvature="0"
         id="path4675"
         d="m 366.99933,194.87127 c -2.73051,-1.38666 -6.90736,-5.39444 -7.50303,-7.19933 -0.42882,-1.29932 -0.36726,-1.7887 0.43288,-3.44157 1.4951,-3.08847 1.98262,-3.18201 1.98262,-0.38041 0,2.31659 0.0838,2.49348 2.00345,4.22793 1.26866,1.14628 3.23255,2.27724 5.35474,3.08365 1.84321,0.70041 3.68443,1.64159 4.0916,2.0915 0.67472,0.74557 0.67907,0.87926 0.0491,1.50924 -1.16435,1.16436 -4.23056,1.21648 -6.41135,0.10899 z"
         style="opacity:1;fill:#cccccc;fill-opacity:1;stroke:none;stroke-width:3;stroke-miterlimit:4;stroke-dasharray:none;stroke-opacity:1" />
      <path
         inkscape:connector-curvature="0"
         id="path4677"
         d="m 435.40322,208.43442 c -1.92477,-0.23239 -5.76164,-0.92837 -8.52637,-1.54661 -10.35359,-2.31523 -14.09196,-4.65533 -13.08435,-8.1904 0.50973,-1.78837 1.17295,-2.23349 4.32421,-2.90223 3.2452,-0.68868 5.31218,-0.42844 13.7754,1.73436 11.57546,2.95814 18.6031,6.29127 18.6031,8.82324 0,0.23445 -0.84144,0.79848 -1.86987,1.25341 -2.32788,1.02972 -8.40195,1.4102 -13.22212,0.82823 z"
         style="opacity:1;fill:#5599ff;fill-opacity:1;stroke:none;stroke-width:3;stroke-miterlimit:4;stroke-dasharray:none;stroke-opacity:1" />
      <path
         inkscape:connector-curvature="0"
         id="path4679"
         d="m 496.88222,253.33916 c -1.20084,-1.44693 1.10442,-4.54577 6.29787,-8.46589 5.44489,-4.10993 6.35252,-5.35865 7.11841,-9.79352 0.34402,-1.99207 0.71023,-3.70669 0.8138,-3.81026 0.47201,-0.47201 0.81883,0.64537 0.9764,3.1458 0.29968,4.75551 -2.09223,11.6686 -5.354,15.47404 -2.75039,3.20883 -8.40831,5.18994 -9.85248,3.44983 z"
         style="opacity:1;fill:#cccccc;fill-opacity:1;stroke:none;stroke-width:3;stroke-miterlimit:4;stroke-dasharray:none;stroke-opacity:1" />
      <path
         inkscape:connector-curvature="0"
         id="path4691"
         d="m 431.46618,330.45279 c -10.42613,-0.92508 -22.63562,-6.04384 -29.35532,-12.30706 -4.14199,-3.86061 -5.64485,-6.73708 -5.24326,-10.03557 0.15388,-1.26397 0.0832,-3.82289 -0.15716,-5.6865 -0.73769,-5.72053 0.87815,-10.87643 4.56365,-14.56194 1.92372,-1.92372 5.55769,-3.87202 8.11487,-4.35067 1.34455,-0.25168 1.55372,-0.17385 1.61199,0.59979 0.31714,4.21014 5.37929,7.8337 13.32414,9.53762 4.94681,1.06094 17.6564,1.05909 23.45735,-0.003 5.05074,-0.92509 8.83722,-2.21733 9.75864,-3.33041 0.68337,-0.82551 0.75233,-0.79829 2.48649,0.98116 2.29741,2.35742 3.75184,5.34525 4.69637,9.64772 1.00901,4.59624 0.7064,7.68205 -1.37624,14.03364 l -1.69754,5.17713 -3.06214,2.16259 c -4.24761,2.99982 -11.1432,6.28733 -15.31072,7.29949 -4.26071,1.03479 -7.21641,1.2441 -11.81112,0.83642 z m -19.9894,-12.74461 c 1.20319,-0.94982 1.32706,-1.91876 0.74415,-5.82082 -0.32412,-2.16977 -0.72364,-5.99916 -0.88782,-8.50977 -0.26365,-4.0319 -0.19228,-4.83171 0.6114,-6.8519 1.02525,-2.57715 0.86999,-3.50702 -0.64923,-3.88832 -1.63895,-0.41135 -3.03463,0.13383 -5.46619,2.13518 -1.94586,1.6016 -2.42197,2.32464 -3.50849,5.32824 -0.69142,1.91135 -1.25712,3.94549 -1.25712,4.52033 0,1.15718 1.52592,7.54093 2.23042,9.33103 0.56062,1.42452 3.38109,4.17875 4.55004,4.44319 1.0903,0.24665 2.87837,-0.0916 3.63284,-0.68716 z"
         style="opacity:1;fill:#b7bec8;fill-opacity:1;stroke:none;stroke-width:3;stroke-miterlimit:4;stroke-dasharray:none;stroke-opacity:1" />
      <path
         inkscape:connector-curvature="0"
         id="path4693"
         d="m 429.00194,292.90322 c -5.9298,-0.68005 -10.28069,-2.10973 -13.65242,-4.4861 -0.68387,-0.48199 -1.05135,-0.99763 -0.81662,-1.14587 0.92508,-0.5842 1.73308,-27.39178 1.01033,-33.52013 -0.27726,-2.3509 -0.44978,-4.32856 -0.38338,-4.3948 0.0664,-0.0662 2.2861,0.43583 4.93266,1.11572 8.86106,2.27636 15.9441,2.62506 22.04616,1.08534 l 2.36096,-0.59574 -0.28169,4.24041 c -0.15493,2.33222 -0.40944,9.75226 -0.56558,16.48897 -0.18573,8.01315 -0.4817,12.91727 -0.85595,14.18241 -0.58392,1.97395 -0.46013,2.82724 0.37,2.55052 0.50573,-0.16857 1.6205,-3.51001 1.64202,-4.92181 0.0286,-1.87691 0.6204,-2.11541 2.67466,-1.07794 4.21923,2.13085 9.19928,5.67778 9.05124,6.44653 -0.50948,2.64551 -17.68784,5.16151 -27.53239,4.03249 z"
         style="opacity:1;fill:#999999;fill-opacity:1;stroke:none;stroke-width:3;stroke-miterlimit:4;stroke-dasharray:none;stroke-opacity:1" />
      <path
         sodipodi:nodetypes="cssssscssssssscscsssssssscsccssscssssssscscsssssssscsssssssssscccssccsscccssssssscscsssssscccsssssssssc"
         inkscape:connector-curvature="0"
         id="path4695"
         d="m 357.21081,259.87497 c -9.5966,-1.82065 -15.12435,-6.21614 -17.45113,-13.87657 -3.01656,-9.93137 3.8077,-19.51632 15.65373,-21.98628 2.12859,-0.44383 5.46871,-0.61015 11.1138,-0.5534 5.81923,0.0585 9.53498,-0.13486 13.32,-0.69311 11.7782,-1.73716 13.59151,-2.39698 17.45593,-6.35178 l 2.14521,-2.19539 -0.78862,-1.22896 c -1.47254,-2.29476 -7.97733,-8.37251 -10.11896,-9.45464 -3.33792,-1.6866 -6.69358,-2.16561 -15.69274,-2.24008 -8.07803,-0.0668 -8.38527,-0.1027 -10.93623,-1.27608 -8.98928,-4.13489 -11.59527,-15.44735 -5.19771,-22.56298 2.24406,-2.49594 5.2193,-4.05914 10.10301,-5.30819 9.10564,-2.32883 17.11407,0.3868 21.67875,7.35119 1.06443,1.624 2.04234,3.24802 2.17312,3.60891 0.13079,0.3609 3.19258,1.89465 6.80398,3.40833 l 6.56617,2.75216 -1.73179,3.1534 c -0.95248,1.73438 -2.18088,3.64554 -2.72978,4.24703 -2.6399,2.89283 -4.0217,6.13991 -3.5421,8.32352 1.2207,5.55781 12.76389,10.42805 33.68094,14.21047 5.83803,1.05568 7.30956,1.16355 13.34219,0.97799 8.52876,-0.26233 10.85545,-0.95165 17.10538,-5.06779 5.23547,-3.44802 7.5782,-5.82612 8.26984,-8.39468 0.8174,-3.03559 0.25942,-4.18906 -4.22324,-8.73035 -2.2575,-2.28702 -3.95396,-4.21701 -3.76992,-4.28885 0.18404,-0.0718 6.02459,-3.12404 12.97901,-6.78264 l 12.64437,-6.65201 0.0416,-3.53206 c 0.0366,-3.10206 0.19152,-3.75849 1.27278,-5.39192 1.90249,-2.87405 4.66455,-3.9711 10.01163,-3.97649 12.26462,-0.0123 17.8889,4.5537 19.13681,15.53612 0.43399,3.81933 8.8e-4,11.80498 -0.8792,16.21895 -0.68183,3.41885 -2.78428,5.11337 -6.99519,5.63796 -2.86628,0.35707 -6.94614,-0.83955 -12.6636,-3.71424 -1.91355,-0.96211 -3.84812,-1.74929 -4.29907,-1.74929 -0.45095,0 -2.86676,0.51524 -5.36846,1.14496 -4.69947,1.18295 -7.87084,2.5745 -12.43113,5.45458 -2.54468,1.60712 -2.66587,1.76706 -3.1739,4.18912 -0.44395,2.11653 -0.89105,2.88562 -2.80304,4.82165 -1.25116,1.2669 -2.1803,2.39799 -2.06475,2.51354 0.11554,0.11555 6.89029,2.3026 15.05499,4.86012 l 14.84491,4.65004 2.63606,-2.85571 c 3.44327,-3.73021 6.38074,-5.23216 10.32296,-5.27822 2.44869,-0.0286 3.1494,0.14798 4.72595,1.19107 4.64058,3.07032 6.91378,11.36759 5.06242,18.47799 -1.21343,4.66029 -7.99603,16.21497 -10.61137,18.07726 -4.68974,3.33938 -12.01789,2.87759 -16.60196,-1.0462 -1.7733,-1.51789 -4.47904,-6.164 -4.47904,-7.69113 0,-1.66992 -9.22502,-7.411 -14.43581,-8.98396 -2.04507,-0.61734 -3.90533,-1.2984 -4.13389,-1.51347 -0.22857,-0.21506 -0.95943,-0.39103 -1.62414,-0.39103 -0.98663,0 -1.53388,0.47906 -2.98024,2.60893 -0.97443,1.43491 -2.68032,3.30272 -3.79088,4.15069 -3.55189,2.71207 -9.89865,5.35112 -13.93651,5.79495 -1.20299,0.13223 -3.26208,0.51117 -4.57576,0.8421 -5.79758,1.46048 -15.81096,0.47269 -25.35127,-2.50084 -7.76235,-2.41937 -10.5195,-4.36354 -12.92764,-9.11578 -0.60992,-1.20363 -1.10895,-2.26222 -1.10895,-2.35244 0,-0.0902 0.83662,-0.4142 1.85916,-0.71998 4.50236,-1.34638 8.25046,-4.22268 8.90598,-6.83449 0.33867,-1.3494 -0.0212,-4.92639 -0.54866,-5.45388 -0.20966,-0.20966 -0.62797,-0.22868 -0.92959,-0.0423 -0.42321,0.26157 -0.4367,0.65932 -0.0591,1.74257 0.76987,2.20844 0.16731,4.15346 -1.85186,5.97766 -2.33184,2.10668 -2.62531,2.2171 -15.68748,5.9028 -6.13522,1.73115 -11.29011,3.27596 -11.45532,3.43292 -0.1652,0.15696 0.0939,1.44882 0.57573,2.87081 1.80456,5.32545 1.4542,9.40305 -1.00537,11.70064 -1.62635,1.51923 -5.97048,3.68661 -9.13242,4.55636 -3.52413,0.96937 -11.32977,1.17233 -15.39866,0.40039 l 0,-10e-6 z m 146.21572,-5.49899 c 5.45315,-2.46957 10.06133,-11.21775 10.06133,-19.10045 0,-3.61107 -0.60832,-5.62658 -1.79161,-5.93602 -1.25178,-0.32734 -2.10852,1.25496 -2.78322,5.14029 -0.31617,1.82068 -0.88022,3.77637 -1.25344,4.34599 -0.7578,1.15655 -4.26589,4.19103 -7.3614,6.36757 -2.57662,1.8117 -4.77057,4.84581 -5.05902,6.99636 -0.18659,1.39114 -0.055,1.78342 0.79846,2.38124 1.42177,0.99585 4.96591,0.90233 7.3889,-0.19498 z M 358.9135,253.74699 c 0.14031,-0.36563 -0.1647,-1.79281 -0.67779,-3.1715 -0.5131,-1.37869 -1.42258,-5.26264 -2.02107,-8.631 -1.38711,-7.80677 -2.19606,-10.57989 -3.25095,-11.14446 -2.69519,-1.44242 -7.45916,1.02146 -9.36333,4.84263 -1.49565,3.00138 -1.59917,7.48792 -0.25563,11.07886 1.11423,2.97803 4.37985,6.08971 7.35099,7.00445 2.85873,0.88013 7.88318,0.89298 8.21778,0.021 z m 14.91879,-57.51111 c 1.06683,-0.65047 1.42171,-1.17698 1.42171,-2.10936 0,-1.70124 -1.39511,-2.87667 -4.93706,-4.15965 -3.7613,-1.36243 -6.2012,-3.04756 -6.91794,-4.77793 -0.48964,-1.1821 -0.43895,-1.68986 0.39817,-3.98836 0.70685,-1.9408 0.82382,-2.71751 0.44457,-2.9519 -1.17287,-0.72487 -5.60725,4.04313 -6.28993,6.76317 -0.51867,2.06654 0.20245,4.19704 2.12744,6.28541 1.24207,1.34749 3.76011,3.35147 5.61937,4.55729 0.68017,0.44113 1.27218,0.77544 1.68129,0.93171 1.55643,0.59452 5.06553,0.29519 6.45238,-0.55038 z"
         style="opacity:1;fill:#b3b3b3;fill-opacity:1;stroke:none;stroke-width:3;stroke-miterlimit:4;stroke-dasharray:none;stroke-opacity:1" />
      <path
         inkscape:connector-curvature="0"
         id="path4697"
         d="m 430.15384,217.83782 c -12.10933,-2.27667 -21.64455,-4.95175 -26.61449,-7.4666 -1.16454,-0.58927 -2.98542,-1.87157 -4.0464,-2.84955 -1.68197,-1.55038 -1.92885,-2.00914 -1.92742,-3.58158 0.002,-1.96524 0.86206,-3.64119 3.49472,-6.80817 0.91188,-1.09695 2.18405,-3.12271 2.82705,-4.50168 1.35644,-2.90902 2.58776,-3.62839 9.20603,-5.37842 9.9057,-2.6193 22.31935,-2.26417 33.44326,0.95674 4.25222,1.23122 10.18313,4.17495 11.31778,5.61742 0.42631,0.54196 1.70477,1.79 2.84102,2.77342 1.13625,0.98342 3.04623,2.9083 4.2444,4.27751 2.52082,2.88068 2.78423,4.43732 1.2214,7.21799 -1.15175,2.04926 -9.4323,7.95668 -12.86158,9.17557 -5.68535,2.02078 -14.29295,2.23176 -23.14577,0.56735 z m 18.62316,-8.59561 c 3.06381,-1.28014 3.94552,-3.55253 2.13321,-5.49782 -3.48254,-3.73807 -23.83308,-10.06138 -30.8177,-9.57566 -4.88997,0.34006 -6.38012,1.03397 -7.37358,3.43366 -2.05329,4.95971 1.48855,7.86637 12.72957,10.44667 3.0899,0.70927 6.98747,1.4785 8.66126,1.7094 4.22074,0.58225 12.75727,0.28179 14.66724,-0.51625 z"
         style="opacity:1;fill:#b3b3b3;fill-opacity:1;stroke:none;stroke-width:3;stroke-miterlimit:4;stroke-dasharray:none;stroke-opacity:1" />
      <path
         inkscape:connector-curvature="0"
         id="path4699"
         d="m 439.99644,218.47061 c -6.07814,-0.22953 -8.95267,-0.56479 -13.95211,-1.62725 -3.46322,-0.73599 -6.4484,-1.24444 -6.63374,-1.12989 -0.18533,0.11454 -0.403,0.0594 -0.4837,-0.12255 -0.0807,-0.18195 -2.38579,-0.97507 -5.12242,-1.7625 -7.2567,-2.08803 -10.9416,-3.74891 -13.59086,-6.12578 -1.97297,-1.7701 -2.30299,-2.29262 -2.3015,-3.64397 0.002,-1.76302 0.90493,-3.76203 2.77386,-6.14074 0.68883,-0.87672 1.25241,-1.81176 1.25241,-2.07789 0,-0.26612 0.16557,-0.48386 0.36793,-0.48386 0.20236,0 0.89922,-0.97617 1.54859,-2.16928 1.45684,-2.67669 2.75714,-3.72881 5.78986,-4.68479 1.29522,-0.40829 2.35495,-0.91486 2.35495,-1.12571 0,-0.21086 0.17956,-0.27241 0.39902,-0.13677 0.21946,0.13563 1.84349,-0.0845 3.60895,-0.48911 2.39444,-0.54881 5.32151,-0.73773 11.52146,-0.74364 7.27178,-0.007 8.96822,0.13193 13.56092,1.10997 5.35353,1.14007 10.75867,3.05722 13.89878,4.92975 1.77605,1.05911 9.37152,8.30252 10.81379,10.31256 0.79607,1.10946 1.0203,2.03256 0.92857,3.82262 -0.1703,3.32329 -13.08579,11.92175 -17.90729,11.92175 -0.48427,0 -0.9461,0.14764 -1.0263,0.32808 -0.0802,0.18045 -3.59073,0.198 -7.80117,0.039 z m 7.43663,-8.81803 c 0.60149,-0.1025 1.31094,-0.2115 1.57656,-0.2422 0.26561,-0.0307 1.0038,-0.53856 1.64043,-1.12857 1.71949,-1.59357 1.60765,-3.7943 -0.26421,-5.19908 -1.6593,-1.24525 -5.64281,-3.29579 -6.7674,-3.48356 -0.42823,-0.0715 -1.1723,-0.3445 -1.65349,-0.60666 -1.4536,-0.79193 -8.13714,-2.78566 -8.52818,-2.54399 -0.20064,0.124 -0.43083,0.0476 -0.51152,-0.16989 -0.22629,-0.60974 -8.08166,-2.09266 -11.60884,-2.1915 -4.80833,-0.13474 -8.26184,1.16595 -8.65286,3.25891 -0.0877,0.46946 -0.1945,0.85356 -0.23732,0.85356 -0.0428,0 -0.14512,0.7382 -0.22735,1.64043 -0.0824,0.90388 0.0473,1.64044 0.28892,1.64044 0.24114,0 0.31779,0.1952 0.17034,0.43378 -0.42872,0.69367 1.78173,2.5949 4.32423,3.71932 2.72615,1.20563 12.43805,3.67286 15.36573,3.90355 1.10598,0.0871 2.1474,0.29651 2.31427,0.46527 0.29709,0.30046 10.61312,0.0179 12.77069,-0.34981 z"
         style="opacity:1;fill:#ececec;fill-opacity:1;stroke:none;stroke-width:3;stroke-miterlimit:4;stroke-dasharray:none;stroke-opacity:1" />
      <path
         sodipodi:nodetypes="ccssssscscccccccccsssssssssssscssssssc"
         inkscape:connector-curvature="0"
         id="path4707"
         d="m 410.09876,522.0164 c -0.27776,-0.18307 -2.27669,-0.33961 -4.44206,-0.34786 -2.16538,-0.008 -6.00399,-0.10623 -8.53026,-0.21772 -2.52627,-0.1115 -9.21923,-0.39895 -14.87326,-0.63878 -5.65403,-0.23983 -11.65802,-0.62302 -13.34219,-0.85154 -8.7995,-1.19398 -17.13261,-5.60786 -24.64013,-13.05139 -17.85116,-17.69899 -14.75312,-30.9322 10.05714,-42.95886 1.28399,-0.62241 4.06938,1.32827 4.06938,1.32827 l 4.18081,0.97609 c 4.76978,1.1136 8.67145,6.64479 8.66175,6.86038 -0.0695,1.54673 27.14302,16.83373 28.50405,15.99257 0.20343,-0.12573 0.43589,-0.0363 0.51659,0.19869 0.0807,0.23501 0.63886,0.4823 1.24035,0.54954 0.60149,0.0672 1.20762,0.27628 1.34695,0.46454 0.13932,0.18826 0.94647,0.40449 1.79365,0.48051 0.84718,0.076 1.74693,0.26591 1.99945,0.42197 0.25252,0.15607 0.92176,0.30203 1.48722,0.32436 2.04164,0.0806 20.75511,0.0979 22.46309,0.0207 3.12196,-0.14106 8.73239,-0.99427 9.2247,-1.40285 0.26382,-0.21895 0.59818,-0.27959 0.74302,-0.13475 0.3145,0.3145 5.12426,-1.14044 5.12426,-1.55007 0,-0.15646 0.36738,-0.31215 0.8164,-0.34597 1.38568,-0.10438 6.95645,-3.67846 11.15277,-7.15535 6.9382,-5.74871 12.71819,-12.70925 16.00233,-19.27078 1.92286,-3.84174 2.16563,-5.60051 1.11886,-8.10577 -0.3609,-0.86375 -0.65618,-1.6361 -0.65618,-1.71634 0,-0.34445 3.93135,1.28467 6.47758,2.68425 10.26331,5.64142 19.66096,16.24139 23.10373,26.05959 2.13471,6.08782 1.83217,11.60046 -0.93215,16.9849 -4.0953,7.97696 -17.7134,18.21028 -27.13826,20.39304 -1.91368,0.4432 -3.57784,0.91237 -3.69814,1.0426 -0.1203,0.13022 -1.30141,0.29566 -2.62469,0.36765 -1.32329,0.072 -2.4679,0.30698 -2.5436,0.52223 -0.0757,0.21525 -0.40554,0.28856 -0.73299,0.1629 -0.32745,-0.12566 -2.92303,0.0725 -5.76794,0.44033 -2.84491,0.36783 -7.04266,0.79299 -9.32833,0.94479 -2.28567,0.15181 -4.42975,0.36296 -4.76462,0.46923 -1.08882,0.34553 -35.54901,0.40183 -36.06928,0.0589 z"
         style="opacity:1;fill:#808080;fill-opacity:1;stroke:none;stroke-width:3;stroke-miterlimit:4;stroke-dasharray:none;stroke-opacity:1" />
      <path
         inkscape:connector-curvature="0"
         id="path4709"
         d="m 224.33874,641.58106 c -1.86547,-0.29201 -5.36826,-1.04325 -7.78397,-1.66944 -2.41571,-0.62618 -4.58337,-1.13851 -4.81703,-1.13851 -0.23366,0 0.17626,-0.42102 0.91092,-0.9356 1.27029,-0.88974 1.31413,-1.13301 0.89428,-4.963 -0.87167,-7.9517 -0.29398,-9.98254 4.62462,-16.2575 1.36013,-1.73519 2.47295,-3.7215 2.47295,-4.41401 0,-3.42076 3.86312,-7.75197 13.18047,-14.77756 3.84457,-2.89894 5.53713,-5.39378 5.53713,-8.16177 0,-1.63753 -0.55574,-2.62241 -2.97087,-5.26494 -3.73211,-4.08353 -5.40394,-4.78161 -11.45137,-4.78161 -6.72192,0 -13.5263,-2.46938 -21.96313,-7.97063 -5.82963,-3.80122 -6.53503,-4.10841 -10.43942,-4.54627 -6.68082,-0.74922 -7.30657,-1.39976 -7.09715,-7.37829 0.11617,-3.31629 -0.0374,-3.92966 -1.38412,-5.5302 -1.6378,-1.94642 -3.6569,-2.34741 -4.81195,-0.95566 -0.89141,1.07409 -1.7074,0.58592 -1.70466,-1.01983 0.007,-3.92699 6.21682,-8.16462 11.47215,-7.8283 1.68446,0.10779 3.3624,4.34067 3.70561,9.34802 0.36119,5.26963 1.72102,7.38325 4.54116,7.05839 2.00694,-0.23119 2.23433,-2.12757 0.94452,-7.87721 -1.35032,-6.01939 -1.55331,-7.70174 -1.13185,-9.38097 0.20497,-0.81666 2.42328,-3.51624 4.92958,-5.99907 4.81136,-4.76631 6.69974,-7.93753 6.72025,-11.28554 0.0101,-1.64459 0.44321,-2.42065 2.26268,-4.05401 1.23762,-1.11104 2.86706,-3.41485 3.62097,-5.11958 1.21281,-2.74238 3.20262,-4.95765 4.45308,-4.95765 0.23621,0 0.95032,1.02096 1.58692,2.2688 1.00081,1.96175 1.41336,2.2688 3.04831,2.2688 2.62338,0 4.89249,-2.17321 4.89249,-4.68571 0,-2.18665 -0.57507,-3.03055 -3.57458,-5.24553 -2.13416,-1.57597 -2.15274,-1.62331 -1.78664,-4.55347 0.22927,-1.83499 0.12509,-3.41847 -0.27397,-4.16411 -0.78647,-1.46954 -0.75507,-1.47075 2.456,-0.0943 4.07288,1.74584 10.61985,2.92579 12.7863,2.30446 2.67948,-0.76846 3.43849,-1.60624 3.43849,-3.79531 0,-1.65864 -0.27115,-2.05744 -1.8434,-2.71122 -1.01387,-0.42158 -3.37484,-0.94321 -5.2466,-1.15917 -1.87176,-0.21596 -4.46659,-0.89138 -5.76629,-1.50094 -2.27456,-1.06676 -2.34362,-1.17616 -1.8434,-2.92033 1.4555,-5.07503 0.22773,-17.0563 -2.9117,-28.41392 -0.93881,-3.39635 -1.61,-6.27209 -1.49155,-6.39055 0.11846,-0.11845 2.35935,0.28898 4.97976,0.90541 10.85621,2.55383 29.27739,4.56539 41.83567,4.56838 l 8.14409,0.002 -0.31886,1.2762 c -2.76005,11.0468 -3.72224,27.9404 -2.26136,39.70399 0.33346,2.68516 0.32893,2.6942 -1.35218,2.6942 -2.16445,0 -3.35181,1.34779 -4.45245,5.05403 -0.73591,2.47808 -1.20036,3.10637 -2.78616,3.76896 -1.04668,0.43732 -2.41973,1.52077 -3.05125,2.40765 -0.6315,0.88687 -2.24802,2.08814 -3.59226,2.66948 -3.34315,1.44582 -4.99646,3.03086 -4.99646,4.79015 0,3.4244 4.25085,6.23201 9.46897,6.25407 4.17464,0.0176 5.97533,-1.59782 6.39046,-5.73316 0.26636,-2.65337 0.47661,-3.07017 1.63119,-3.23368 0.72898,-0.10323 2.64328,0.33488 4.254,0.9736 1.61072,0.63871 3.79432,1.10604 4.85245,1.03849 1.778,-0.11348 2.21918,0.24019 5.81899,4.66485 4.34403,5.33941 4.34706,5.99159 0.0278,5.98525 -1.82202,-0.003 -3.89788,-0.58618 -6.55812,-1.8434 -4.62368,-2.18515 -6.18866,-2.28109 -8.53258,-0.5231 -1.06471,0.79855 -3.33621,1.5932 -5.77438,2.02009 -7.39793,1.29528 -11.92801,4.24664 -13.45466,8.76576 -1.92656,5.70292 -2.66167,8.25631 -2.66125,9.24388 2.4e-4,0.58206 0.73625,2.61361 1.63556,4.51458 0.89932,1.90096 2.04804,4.87669 2.55272,6.61272 0.73512,2.52873 1.50373,3.68341 3.865,5.8064 5.00656,4.50132 10.20974,6.50931 16.90307,6.52313 6.31856,0.013 9.45048,2.51138 8.79402,7.015 -0.17541,1.20337 -1.13876,4.26625 -2.14078,6.8064 -1.73154,4.38949 -1.82211,4.99804 -1.82695,12.27564 -0.005,7.35912 -0.0796,7.84488 -1.91808,12.4784 -2.47271,6.23183 -2.58084,8.7232 -0.45785,10.54931 2.55439,2.1972 5.47056,1.70431 9.17855,-1.55135 3.60386,-3.16423 14.80794,-18.59218 17.26245,-23.77029 2.61642,-5.51966 2.93585,-4.54875 0.8601,2.61424 -4.37725,15.10495 -14.97045,27.96261 -29.05417,35.26492 -11.64125,6.0359 -20.60307,8.08171 -36.71449,8.38118 -6.2392,0.11597 -12.8703,-0.0281 -14.73577,-0.32006 l -2e-5,0 z m 40.20232,-134.65914 c 0.34356,-0.61138 1.18071,-1.57271 1.86034,-2.1363 0.67963,-0.56358 1.77887,-1.90359 2.44276,-2.97779 1.38014,-2.2331 0.99574,-3.59439 -1.47144,-5.21095 -0.79194,-0.5189 -2.27322,-2.24618 -3.29176,-3.8384 -3.45448,-5.40022 -4.76048,-5.99919 -6.57866,-3.01716 -1.65885,2.72072 -1.43771,4.44047 0.85701,6.6646 2.21411,2.146 2.44089,3.54353 1.04874,6.46289 -0.79881,1.67512 -0.82859,2.22419 -0.2026,3.73545 0.6497,1.56853 0.96187,1.75205 2.72241,1.60047 1.25873,-0.10837 2.21782,-0.57918 2.6132,-1.28281 z m -9.29907,-0.59274 c 0.41127,-0.49555 0.73777,-2.64404 0.77845,-5.12248 0.0793,-4.83233 -0.36449,-5.47512 -3.6127,-5.23241 -1.5111,0.11291 -2.15251,0.50731 -2.7033,1.66224 -0.61864,1.29721 -0.55239,1.96785 0.46227,4.67978 1.72202,4.60251 3.45122,5.96974 5.07528,4.01287 z"
         style="opacity:1;fill:#0000ff;fill-opacity:1;stroke:none;stroke-width:3;stroke-miterlimit:4;stroke-dasharray:none;stroke-opacity:1" />
      <path
         inkscape:connector-curvature="0"
         id="path4711"
         d="m 202.77372,634.86613 c -20.60398,-10.01238 -33.38028,-28.49823 -36.08875,-52.21625 -0.91795,-8.03854 0.26078,-21.83079 2.52969,-29.59973 l 0.66146,-2.26487 1.20937,3.29732 c 0.66515,1.81353 1.49747,4.52382 1.84961,6.02289 0.69371,2.95317 2.66658,6.06603 3.84453,6.06603 0.40402,0 1.34939,1.21239 2.10083,2.6942 0.75143,1.48181 1.89621,3.1731 2.54395,3.75841 1.06427,0.96172 1.09749,1.17875 0.34491,2.25321 -1.13132,1.61518 -1.03161,4.92507 0.3016,10.01178 0.64349,2.45518 1.12433,6.17273 1.13713,8.7916 0.0154,3.13908 0.3403,5.23685 1.05435,6.80639 1.07476,2.36243 6.32234,7.5734 11.04306,10.96604 2.75045,1.97666 3.78146,3.60721 3.78146,5.9804 0,0.70103 1.14791,2.81933 2.55092,4.70734 1.593,2.1437 3.09227,5.09114 3.99253,7.84901 0.79288,2.42894 1.95951,5.14358 2.5925,6.03254 0.63299,0.88895 0.94208,1.6126 0.68687,1.60812 -0.25521,-0.004 -3.01642,-1.24848 -6.13602,-2.76443 z"
         style="opacity:1;fill:#0066ff;fill-opacity:1;stroke:none;stroke-width:3;stroke-miterlimit:4;stroke-dasharray:none;stroke-opacity:1" />
      <path
         inkscape:connector-curvature="0"
         id="path4713"
         d="m 219.22251,640.18434 c -3.1196,-0.73858 -6.03983,-1.35826 -6.4894,-1.37705 -0.60841,-0.0254 -0.54929,-0.23024 0.2312,-0.80094 0.92846,-0.67891 1.01298,-1.34505 0.73765,-5.8138 -0.40063,-6.50247 0.3462,-9.28522 3.78544,-14.10487 1.50486,-2.10888 3.08373,-4.98937 3.50859,-6.4011 1.04884,-3.48501 3.74124,-6.60732 10.12524,-11.74201 6.70967,-5.39661 8.23688,-7.32093 8.23688,-10.37866 0,-1.83513 -0.46477,-2.89411 -2.27563,-5.18502 -3.10186,-3.92415 -5.34065,-4.93646 -12.001,-5.4265 -7.32565,-0.53899 -12.78301,-2.49691 -21.44333,-7.69316 -6.19082,-3.71453 -7.45185,-4.25036 -11.53021,-4.89932 -2.51854,-0.40076 -4.9761,-1.12559 -5.46125,-1.61074 -0.60678,-0.60677 -0.9459,-2.28718 -1.08653,-5.38392 -0.17123,-3.77062 -0.42074,-4.73523 -1.53616,-5.93878 -1.43459,-1.54796 -4.0709,-1.92826 -5.24284,-0.75631 -0.52939,0.52938 -0.68064,0.28699 -0.68064,-1.09077 0,-3.15973 4.90797,-6.84788 9.47369,-7.11912 1.95128,-0.11592 2.2457,0.0596 3.1297,1.86609 0.53668,1.09672 1.24083,3.90436 1.56476,6.2392 0.74882,5.39729 1.52721,7.2964 3.15839,7.7058 3.66921,0.92092 4.37865,-1.23698 2.84492,-8.65333 -1.66196,-8.03639 -1.50656,-8.5303 4.79063,-15.22651 4.22598,-4.49376 4.97959,-5.73564 5.66102,-9.32884 0.43049,-2.26993 1.12854,-3.62551 2.80162,-5.44059 1.22555,-1.32957 2.78663,-3.52754 3.46906,-4.88438 1.44352,-2.8701 2.72969,-4.45509 3.60711,-4.44517 0.3416,0.004 1.19773,0.89721 1.90251,1.9852 1.04416,1.61192 1.63385,1.97818 3.18491,1.97818 1.06686,0 2.56036,-0.51669 3.39798,-1.17557 1.20527,-0.94806 1.49449,-1.653 1.49449,-3.6426 0,-2.20136 -0.25959,-2.68871 -2.4106,-4.52552 -2.32552,-1.98583 -2.4206,-2.1976 -2.6942,-6.00059 -0.15598,-2.16816 -0.2836,-3.94163 -0.2836,-3.94103 0,0.31017 6.80349,2.37315 9.34824,2.8346 6.11575,1.10899 9.08576,-0.0861 9.08576,-3.65595 0,-2.46746 -0.70342,-2.95823 -5.71429,-3.98681 -2.31644,-0.47549 -5.30357,-1.27094 -6.63808,-1.76767 -2.39492,-0.89142 -2.42073,-0.93001 -1.99134,-2.97719 1.11995,-5.33955 0.062,-15.73952 -2.74222,-26.95785 -0.92573,-3.70337 -1.55884,-6.8577 -1.40691,-7.00964 0.15193,-0.15193 2.74764,0.26728 5.76823,0.93159 10.00925,2.20127 22.0847,3.51276 35.42917,3.84786 l 12.77856,0.32089 -0.95359,4.71016 c -1.54445,7.62859 -2.35095,18.57334 -2.12586,28.84932 l 0.21033,9.60239 -1.77848,0.46481 c -1.76769,0.46197 -2.29096,1.21605 -4.16085,5.9962 -0.3966,1.01387 -0.93685,1.8434 -1.20055,1.8434 -0.2637,0 -1.77047,1.14661 -3.34837,2.54801 -1.57791,1.4014 -3.85696,3.05206 -5.06456,3.66814 -3.1009,1.58196 -4.01559,2.67027 -4.01559,4.77781 0,3.5641 3.87668,6.02204 9.49798,6.02204 4.50583,0 5.59685,-0.8757 6.4418,-5.17049 l 0.67691,-3.44065 2.04305,0.24556 c 1.12369,0.13506 3.19164,0.53706 4.59546,0.89333 1.40382,0.35628 3.2409,0.78096 4.08241,0.94374 1.04366,0.20189 2.5311,1.57541 4.6794,4.32103 1.73216,2.21378 3.14939,4.38182 3.14939,4.81787 0,1.35545 -4.17922,0.92344 -8.7916,-0.90879 -5.0201,-1.9942 -6.38672,-2.08344 -9.2824,-0.60618 -1.18096,0.60249 -4.27973,1.62618 -6.88613,2.27488 -5.4653,1.36023 -9.03409,3.26217 -10.81554,5.76398 -1.40495,1.97308 -3.92814,9.63855 -3.92825,11.9341 -7e-5,1.3195 3.47537,10.9417 5.26337,14.57232 0.90656,1.84081 5.77792,5.64949 9.338,7.30093 2.04218,0.94733 4.79397,1.56186 8.78362,1.96157 6.0794,0.60908 8.51816,1.4508 9.49572,3.27738 0.9556,1.78556 0.68941,3.66985 -1.40119,9.91841 -1.82903,5.46676 -1.9852,6.46918 -1.9852,12.74237 0,6.30897 -0.1512,7.26517 -2.05957,13.02481 -2.21551,6.68663 -2.23035,8.28433 -0.0954,10.27332 1.62794,1.51666 4.53797,1.47729 7.34321,-0.0993 3.45405,-1.94128 13.16877,-14.36212 18.36585,-23.48183 1.39542,-2.44863 2.53712,-4.1622 2.53712,-3.80794 0,1.15825 -3.32177,10.84067 -4.57601,13.33833 -2.66882,5.31459 -7.47627,11.77675 -11.9703,16.09041 -5.94855,5.70981 -8.59473,7.52311 -16.58693,11.36621 -10.98256,5.28102 -20.74272,7.06406 -38.25225,6.98812 -7.85557,-0.0341 -10.39276,-0.2664 -15.11251,-1.38383 z m 47.30521,-135.03353 c 1.5916,-1.74147 3.04917,-3.78525 3.23904,-4.54173 0.35149,-1.40048 -1.00838,-4.20316 -2.0394,-4.20316 -0.29249,0 -1.94748,-1.9143 -3.67778,-4.254 -3.56979,-4.82707 -5.05057,-5.40297 -6.70237,-2.60668 -1.49089,2.52386 -1.23638,4.81976 0.79017,7.12786 1.83605,2.09114 1.84585,2.1873 0.76123,7.46668 -0.5389,2.6231 0.51291,4.17734 2.82694,4.17734 1.59282,0 2.38679,-0.5235 4.80217,-3.16631 z m -10.65798,0.33031 c 0.61406,-2.22528 0.56455,-7.33573 -0.0828,-8.54529 -0.92741,-1.73288 -4.78113,-1.52073 -5.99375,0.32996 -0.80464,1.22805 -0.83782,1.77431 -0.23793,3.91694 1.15595,4.12866 2.62853,6.10162 4.39957,5.89454 1.06398,-0.12441 1.64164,-0.60592 1.91489,-1.59615 z"
         style="opacity:1;fill:#0066ff;fill-opacity:1;stroke:none;stroke-width:3;stroke-miterlimit:4;stroke-dasharray:none;stroke-opacity:1" />
      <path
         inkscape:connector-curvature="0"
         id="path4715"
         d="m 209.55352,635.12533 c -1.19308,-1.82087 -3.093,-6.86221 -3.093,-8.20711 0,-0.58625 -1.18488,-2.67546 -2.63307,-4.64268 -1.51469,-2.05756 -2.94786,-4.79434 -3.37421,-6.44339 -0.55718,-2.15504 -1.26903,-3.28904 -2.86767,-4.56824 -4.80665,-3.8462 -10.08637,-8.60474 -11.18037,-10.07672 -0.93749,-1.2614 -1.24506,-2.81703 -1.56997,-7.9408 -0.22224,-3.50464 -0.80448,-7.77589 -1.29386,-9.49167 -1.07464,-3.76771 -1.12708,-5.82329 -0.21302,-8.35108 0.45275,-1.25204 0.50154,-2.16371 0.1418,-2.64962 -2.03018,-2.74229 -3.66803,-5.55611 -3.66803,-6.30167 0,-0.48186 -0.60458,-1.10597 -1.34352,-1.38691 -1.89612,-0.72091 -3.67575,-3.18727 -4.05233,-5.61606 -0.17648,-1.1382 -1.12005,-4.1077 -2.09683,-6.59887 l -1.77595,-4.52941 1.55884,-4.54579 c 4.74783,-13.84532 8.60787,-18.02766 29.3352,-31.78459 6.74664,-4.47781 13.8215,-9.58102 15.72191,-11.34047 2.00619,-1.85738 3.7279,-3.03051 4.10532,-2.79725 0.44209,0.27322 0.52902,1.47128 0.27175,3.74522 -0.41221,3.64351 -0.62536,3.269 4.42268,7.77104 0.82375,0.73465 1.49772,1.66911 1.49772,2.07657 0,0.77363 -3.13559,3.67769 -3.9709,3.67769 -0.26436,0 -1.07431,-1.26235 -1.79988,-2.80523 -1.07115,-2.27774 -1.53253,-2.74711 -2.45362,-2.49619 -2.13384,0.58131 -5.10421,3.43349 -5.95559,5.71863 -0.46794,1.25597 -2.06319,3.57927 -3.545,5.16289 -2.17478,2.32419 -2.6942,3.27023 -2.6942,4.90702 0,3.26471 -1.27287,5.41322 -5.8609,9.8928 -5.05903,4.93946 -6.30757,7.16495 -5.87442,10.47098 0.30774,2.34886 1.88191,9.99063 2.4371,11.8309 0.21352,0.70774 -0.0171,0.9926 -0.80371,0.9926 -1.72031,0 -2.19363,-1.0766 -2.57974,-5.86776 -0.40544,-5.03115 -1.91667,-9.0235 -3.79648,-10.02955 -3.61718,-1.93585 -12.15912,1.79617 -13.95638,6.09761 -0.98871,2.36632 -0.60895,5.54881 0.72313,6.05997 0.4876,0.18711 1.6189,-0.0924 2.51399,-0.62115 1.5461,-0.91331 1.68661,-0.90779 2.81164,0.11035 1.01703,0.9204 1.16883,1.65275 1.07527,5.18774 -0.16381,6.18891 1.56072,8.13799 7.20044,8.13799 3.18989,0 5.31234,0.88818 10.53449,4.40837 8.7585,5.904 14.60733,8.03214 23.5822,8.58057 l 6.37904,0.3898 2.30648,2.24403 c 1.26856,1.23421 2.8167,3.06546 3.44031,4.06944 1.07424,1.72949 1.08513,1.92803 0.20728,3.77797 -0.58502,1.23283 -3.05461,3.61581 -6.69975,6.4648 -8.15489,6.37373 -10.8995,9.44738 -11.39671,12.76297 -0.27253,1.81738 -1.02501,3.40009 -2.39765,5.04303 -3.2721,3.91645 -5.30803,8.49781 -5.30803,11.94439 0,1.64874 0.25404,3.88352 0.56454,4.96616 1.03941,3.6242 -0.73324,5.4136 -2.57634,2.60068 z"
         style="opacity:1;fill:#2ca02c;fill-opacity:1;stroke:none;stroke-width:3;stroke-miterlimit:4;stroke-dasharray:none;stroke-opacity:1" />
      <path
         inkscape:connector-curvature="0"
         id="path4717"
         d="m 278.13023,619.16058 c -1.05995,-1.61769 -1.1284,-1.3002 2.37487,-11.01627 1.43729,-3.9862 1.5097,-4.63686 1.15033,-10.33597 -0.37873,-6.00612 -0.35838,-6.14905 1.63119,-11.46103 1.38179,-3.68926 2.01469,-6.32719 2.01469,-8.39722 0,-5.49578 -2.4477,-7.22341 -11.1297,-7.85553 -4.39885,-0.32027 -6.47098,-0.76321 -8.86193,-1.89431 -4.5495,-2.15226 -8.09573,-5.49418 -9.23584,-8.70374 -0.52434,-1.47609 -1.72018,-4.51933 -2.65743,-6.76275 l -1.70409,-4.07897 1.31192,-4.96616 c 2.01715,-7.63573 4.70011,-9.92617 13.83831,-11.81372 4.84653,-1.00108 5.1214,-1.10772 6.84941,-2.65736 1.14858,-1.03002 1.26704,-1.01071 5.7697,0.94054 5.93406,2.57155 7.30523,2.81289 10.23895,1.80214 l 2.42117,-0.83416 3.21868,5.46901 c 7.63261,12.9689 12.06165,28.48003 12.06165,42.24162 0,5.09131 -0.0709,5.3681 -3.1244,12.20034 -3.4354,7.6867 -4.13436,8.80151 -12.01051,19.15641 -7.58508,9.97222 -11.76403,12.6192 -14.15697,8.96713 z"
         style="opacity:1;fill:#2ca02c;fill-opacity:1;stroke:none;stroke-width:3;stroke-miterlimit:4;stroke-dasharray:none;stroke-opacity:1" />
      <path
         inkscape:connector-curvature="0"
         id="path4719"
         d="m 261.86757,525.33702 c -3.11632,-0.58253 -5.20986,-2.31813 -5.20986,-4.31911 0,-1.41581 0.43997,-1.87335 3.21355,-3.34199 1.76745,-0.93588 3.97559,-2.53113 4.90697,-3.545 0.93138,-1.01387 2.06193,-1.8434 2.51234,-1.8434 1.23058,0 2.51827,-1.71358 3.19671,-4.254 0.70297,-2.63223 2.10486,-4.82498 3.07679,-4.81251 1.4688,0.0189 2.15534,1.08324 3.25254,5.04262 0.62862,2.26845 1.79104,5.4034 2.58316,6.96657 0.79211,1.56316 1.2863,2.99603 1.09818,3.18414 -0.18811,0.18812 -1.54528,-0.12893 -3.01593,-0.70454 -4.15667,-1.62692 -5.87987,-1.70977 -7.58959,-0.3649 -1.27434,1.00239 -1.45645,1.50035 -1.21286,3.31643 0.49929,3.72252 -2.15707,5.54582 -6.812,4.67569 z"
         style="opacity:1;fill:#2ca02c;fill-opacity:1;stroke:none;stroke-width:3;stroke-miterlimit:4;stroke-dasharray:none;stroke-opacity:1" />
      <path
         inkscape:connector-curvature="0"
         id="path4721"
         d="m 260.65711,506.13968 c -0.18208,-0.57368 0.056,-1.9693 0.52897,-3.10139 1.31677,-3.15145 1.07363,-4.69108 -1.12517,-7.12488 -2.17198,-2.40413 -2.32552,-3.07446 -1.17851,-5.14537 l 0.76648,-1.38388 1.90762,2.80188 c 1.04919,1.54104 2.98996,3.83096 4.31284,5.08872 l 2.40523,2.28683 -1.38451,2.03749 c -0.76148,1.12062 -1.78002,2.18927 -2.26343,2.37477 -0.4834,0.1855 -0.87892,0.71916 -0.87892,1.18591 0,0.46676 -0.4937,1.11287 -1.09711,1.43581 -1.47031,0.78688 -1.60913,0.75514 -1.99349,-0.45589 z"
         style="opacity:1;fill:#2ca02c;fill-opacity:1;stroke:none;stroke-width:3;stroke-miterlimit:4;stroke-dasharray:none;stroke-opacity:1" />
      <path
         inkscape:connector-curvature="0"
         id="path4723"
         d="m 252.14031,502.68497 c -0.79101,-1.56097 -1.4382,-3.19823 -1.4382,-3.63834 0,-1.29553 1.28689,-1.99255 2.6942,-1.45926 1.12706,0.42708 1.2762,0.87954 1.2762,3.8716 0,1.8634 -0.24615,3.54013 -0.547,3.72607 -0.30086,0.18594 -1.1942,-0.93909 -1.9852,-2.50007 z"
         style="opacity:1;fill:#2ca02c;fill-opacity:1;stroke:none;stroke-width:3;stroke-miterlimit:4;stroke-dasharray:none;stroke-opacity:1" />
      <path
         inkscape:connector-curvature="0"
         id="path4725"
         d="m 233.40251,498.29629 c -2.92245,-0.63592 -9.926,-3.27786 -9.926,-3.74438 0,-0.2878 0.51841,-1.2513 1.15201,-2.14111 l 1.152,-1.61784 1.8258,1.05028 c 1.00419,0.57766 3.74009,1.35498 6.07979,1.72738 6.41363,1.02083 8.34421,2.82851 4.76331,4.46008 -1.4179,0.64603 -2.93227,0.72573 -5.04691,0.26559 z"
         style="opacity:1;fill:#2ca02c;fill-opacity:1;stroke:none;stroke-width:3;stroke-miterlimit:4;stroke-dasharray:none;stroke-opacity:1" />
    </g>
    <text
       xml:space="preserve"
       style="font-style:normal;font-weight:normal;font-size:56.50523758px;line-height:125%;font-family:Sans;letter-spacing:0px;word-spacing:0px;fill:#0066ff;fill-opacity:1;stroke:none;stroke-width:1px;stroke-linecap:butt;stroke-linejoin:miter;stroke-opacity:1"
       x="394.58743"
       y="140.88809"
       id="text4778"
       sodipodi:linespacing="125%"
       transform="scale(0.92998912,1.0752814)"><tspan
         sodipodi:role="line"
         id="tspan4780"
         x="394.58743"
         y="140.88809"
         style="font-style:normal;font-variant:normal;font-weight:normal;font-stretch:normal;font-family:'Conventional Wisdom';-inkscape-font-specification:'Conventional Wisdom';fill:#0066ff" /><tspan
         sodipodi:role="line"
         x="394.58743"
         y="211.51964"
         id="tspan4782"
         style="font-style:normal;font-variant:normal;font-weight:normal;font-stretch:normal;font-size:141.2631073px;font-family:'Conventional Wisdom';-inkscape-font-specification:'Conventional Wisdom';fill:#0066ff" /><tspan
         sodipodi:role="line"
         x="394.58743"
         y="282.15118"
         id="tspan4784"
         style="font-style:normal;font-variant:normal;font-weight:normal;font-stretch:normal;font-size:141.2631073px;font-family:'Conventional Wisdom';-inkscape-font-specification:'Conventional Wisdom';fill:#0066ff" /><tspan
         sodipodi:role="line"
         x="394.58743"
         y="438.35559"
         id="tspan4786"
         style="font-style:normal;font-variant:normal;font-weight:normal;font-stretch:normal;font-size:141.2631073px;font-family:'Conventional Wisdom';-inkscape-font-specification:'Conventional Wisdom';fill:#0066ff">CRISIS</tspan><tspan
         sodipodi:role="line"
         x="394.58743"
         y="614.93445"
         id="tspan4790"
         style="font-style:normal;font-variant:normal;font-weight:normal;font-stretch:normal;font-size:141.2631073px;font-family:'Conventional Wisdom';-inkscape-font-specification:'Conventional Wisdom';fill:#0066ff" /></text>
    <text
       xml:space="preserve"
       style="font-style:normal;font-weight:normal;font-size:30px;line-height:125%;font-family:Sans;letter-spacing:0px;word-spacing:0px;fill:#005500;fill-opacity:1;stroke:none;stroke-width:1px;stroke-linecap:butt;stroke-linejoin:miter;stroke-opacity:1"
       id="text4298"
       sodipodi:linespacing="125%"
       transform="matrix(1.6006707,0,0,2.0151951,-358.49878,-607.92978)"><textPath
         xlink:href="#path4312"
         id="textPath4314"><tspan
   style="font-style:normal;font-variant:normal;font-weight:normal;font-stretch:normal;font-family:'Conventional Wisdom';-inkscape-font-specification:'Conventional Wisdom';fill:#005500"
   id="tspan4300">I prevented a</tspan></textPath></text>
    <path
       style="fill:none;fill-rule:evenodd;stroke:none;stroke-width:1px;stroke-linecap:butt;stroke-linejoin:miter;stroke-opacity:1"
       d="m 494.33924,419.44212 c 40.2038,-33.63293 223.6287,37.4276 343.32218,4.63319"
       id="path4312"
       inkscape:connector-curvature="0"
       sodipodi:nodetypes="cc" />
    <text
       xml:space="preserve"
       style="font-style:normal;font-weight:normal;font-size:30px;line-height:125%;font-family:Sans;letter-spacing:0px;word-spacing:0px;fill:#0066ff;fill-opacity:1;stroke:none;stroke-width:1px;stroke-linecap:butt;stroke-linejoin:miter;stroke-opacity:1"
       id="text4317"
       sodipodi:linespacing="125%"
       transform="matrix(1.1727202,0,0,1.3457321,-46.206046,-79.641197)"><textPath
         xlink:href="#path4321"
         id="textPath4323"><tspan
   style="font-style:normal;font-variant:normal;font-weight:normal;font-stretch:normal;font-size:40px;font-family:'Conventional Wisdom';-inkscape-font-specification:'Conventional Wisdom';fill:#0066ff"
   id="tspan4319">GLOBAL</tspan></textPath></text>
    <path
       style="fill:none;fill-rule:evenodd;stroke:none;stroke-width:1px;stroke-linecap:butt;stroke-linejoin:miter;stroke-opacity:1"
       d="m 411.25212,271.18006 c 49.5184,-4.58611 94.2939,-14.24334 205.36625,13.89956"
       id="path4321"
       inkscape:connector-curvature="0"
       sodipodi:nodetypes="cc" />
    <text
       xml:space="preserve"
       style="font-style:normal;font-weight:normal;font-size:30px;line-height:125%;font-family:Sans;letter-spacing:0px;word-spacing:0px;fill:#0066ff;fill-opacity:1;stroke:none;stroke-width:1px;stroke-linecap:butt;stroke-linejoin:miter;stroke-opacity:1"
       id="text4326"
       sodipodi:linespacing="125%"
       transform="matrix(1.1885187,0,0,1.2937408,-80.359887,-88.024762)"><textPath
         xlink:href="#path4330"
         id="textPath4332"><tspan
   style="font-style:normal;font-variant:normal;font-weight:normal;font-stretch:normal;font-size:40px;font-family:'Conventional Wisdom';-inkscape-font-specification:'Conventional Wisdom';fill:#0066ff"
   id="tspan4328">FRESHWATER</tspan></textPath></text>
    <path
       style="fill:none;fill-rule:evenodd;stroke:none;stroke-width:1px;stroke-linecap:butt;stroke-linejoin:miter;stroke-opacity:1"
       d="m 441.03808,326.77833 c -27.59311,-25.75235 88.50824,45.40347 321.37464,-35.52112"
       id="path4330"
       inkscape:connector-curvature="0"
       sodipodi:nodetypes="cc" />
    <path
       style="fill:none;fill-rule:evenodd;stroke:none;stroke-width:0.93539125px;stroke-linecap:butt;stroke-linejoin:miter;stroke-opacity:1"
       d="m 406.5309,283.78277 c -34.0422,-16.57013 139.40085,36.50543 442.12249,1.35116"
       id="path4335"
       inkscape:connector-curvature="0"
       sodipodi:nodetypes="cc" />
    <text
       xml:space="preserve"
       style="font-style:normal;font-weight:normal;font-size:30px;line-height:125%;font-family:Sans;letter-spacing:0px;word-spacing:0px;fill:#005500;fill-opacity:1;stroke:none;stroke-width:1px;stroke-linecap:butt;stroke-linejoin:miter;stroke-opacity:1"
       id="text4306"
       sodipodi:linespacing="125%"
       x="-47.493782"
       y="19.997381"
       transform="matrix(1.7368777,-0.09657801,0.11993134,2.1568683,-463.28808,-398.5141)"><textPath
         xlink:href="#path4350"
         id="textPath4352"><tspan
   style="font-style:normal;font-variant:normal;font-weight:normal;font-stretch:normal;font-family:'Conventional Wisdom';-inkscape-font-specification:'Conventional Wisdom';fill:#005500"
   id="tspan4310">this stupid mug</tspan></textPath></text>
    <text
       xml:space="preserve"
       style="font-style:normal;font-weight:normal;font-size:30px;line-height:125%;font-family:Sans;letter-spacing:0px;word-spacing:0px;fill:#005500;fill-opacity:1;stroke:none;stroke-width:1px;stroke-linecap:butt;stroke-linejoin:miter;stroke-opacity:1"
       id="text4343"
       sodipodi:linespacing="125%"
       x="14.998036"
       y="-96.237396"
       transform="matrix(1.490687,-0.07507114,0.09805166,1.947011,-223.75427,-4.0088128)"><textPath
         xlink:href="#path4335"
         id="textPath4347"><tspan
   style="font-style:normal;font-variant:normal;font-weight:normal;font-stretch:normal;font-family:'Conventional Wisdom';-inkscape-font-specification:'Conventional Wisdom';fill:#005500"
   id="tspan4345">and all I got was</tspan></textPath></text>
    <path
       style="fill:none;fill-rule:evenodd;stroke:none;stroke-width:1px;stroke-linecap:butt;stroke-linejoin:miter;stroke-opacity:1"
       d="m 473.95938,475.04039 c 159.26387,15.96666 250.3624,13.55792 344.88986,4.63318"
       id="path4350"
       inkscape:connector-curvature="0"
       sodipodi:nodetypes="cc" />
  </g>
</svg>
