<?xml version="1.0" encoding="UTF-8" standalone="no"?>
<!-- Created with Inkscape (http://www.inkscape.org/) -->

<svg
   xmlns:dc="http://purl.org/dc/elements/1.1/"
   xmlns:cc="http://creativecommons.org/ns#"
   xmlns:rdf="http://www.w3.org/1999/02/22-rdf-syntax-ns#"
   xmlns:svg="http://www.w3.org/2000/svg"
   xmlns="http://www.w3.org/2000/svg"
   xmlns:xlink="http://www.w3.org/1999/xlink"
   xmlns:sodipodi="http://sodipodi.sourceforge.net/DTD/sodipodi-0.dtd"
   xmlns:inkscape="http://www.inkscape.org/namespaces/inkscape"
   width="192.60425mm"
   height="221.31425mm"
   viewBox="0 0 682.456 784.18436"
   id="svg84951"
   version="1.1"
   inkscape:version="0.91 r13725"
   sodipodi:docname="mechanisms.svg">
  <defs
     id="defs84953">
    <marker
       inkscape:stockid="StopL"
       orient="auto"
       refY="0"
       refX="0"
       id="StopL"
       style="overflow:visible"
       inkscape:isstock="true">
      <path
         id="path85747"
         d="M 0,5.65 0,-5.65"
         style="fill:none;fill-opacity:0.75;fill-rule:evenodd;stroke:#000000;stroke-width:1pt;stroke-opacity:1"
         transform="scale(0.8,0.8)"
         inkscape:connector-curvature="0" />
    </marker>
    <marker
       inkscape:stockid="TriangleOutL"
       orient="auto"
       refY="0"
       refX="0"
       id="TriangleOutL"
       style="overflow:visible"
       inkscape:isstock="true">
      <path
         id="path85720"
         d="m 5.77,0 -8.65,5 0,-10 8.65,5 z"
         style="fill:#000000;fill-opacity:1;fill-rule:evenodd;stroke:#000000;stroke-width:1pt;stroke-opacity:1"
         transform="scale(0.8,0.8)"
         inkscape:connector-curvature="0" />
    </marker>
    <marker
       style="overflow:visible"
       id="DistanceStart"
       refX="0"
       refY="0"
       orient="auto"
       inkscape:stockid="DistanceStart"
       inkscape:isstock="true">
      <g
         id="g2300"
         style="fill:#000000;fill-opacity:1;stroke:#000000;stroke-opacity:1">
        <path
           style="fill:#000000;fill-opacity:1;stroke:#000000;stroke-width:1.14999998;stroke-linecap:square;stroke-opacity:1"
           d="M 0,0 2,0"
           id="path2306"
           inkscape:connector-curvature="0" />
        <path
           style="fill:#000000;fill-opacity:1;fill-rule:evenodd;stroke:#000000;stroke-opacity:1"
           d="M 0,0 13,4 9,0 13,-4 0,0 Z"
           id="path2302"
           inkscape:connector-curvature="0" />
        <path
           style="fill:#000000;fill-opacity:1;stroke:#000000;stroke-width:1;stroke-linecap:square;stroke-opacity:1"
           d="M 0,-4 0,40"
           id="path2304"
           inkscape:connector-curvature="0" />
      </g>
    </marker>
    <marker
       inkscape:stockid="Arrow2Lend"
       orient="auto"
       refY="0"
       refX="0"
       id="marker85928"
       style="overflow:visible"
       inkscape:isstock="true">
      <path
         id="path85930"
         style="fill:#000000;fill-opacity:1;fill-rule:evenodd;stroke:#000000;stroke-width:0.625;stroke-linejoin:round;stroke-opacity:1"
         d="M 8.7185878,4.0337352 -2.2072895,0.01601326 8.7185884,-4.0017078 c -1.7454984,2.3720609 -1.7354408,5.6174519 -6e-7,8.035443 z"
         transform="matrix(-1.1,0,0,-1.1,-1.1,0)"
         inkscape:connector-curvature="0" />
    </marker>
    <marker
       inkscape:stockid="Arrow2Lend"
       orient="auto"
       refY="0"
       refX="0"
       id="Arrow2Lend"
       style="overflow:visible"
       inkscape:isstock="true">
      <path
         id="path85599"
         style="fill:#000000;fill-opacity:1;fill-rule:evenodd;stroke:#000000;stroke-width:0.625;stroke-linejoin:round;stroke-opacity:1"
         d="M 8.7185878,4.0337352 -2.2072895,0.01601326 8.7185884,-4.0017078 c -1.7454984,2.3720609 -1.7354408,5.6174519 -6e-7,8.035443 z"
         transform="matrix(-1.1,0,0,-1.1,-1.1,0)"
         inkscape:connector-curvature="0" />
    </marker>
    <marker
       inkscape:stockid="Arrow1Lend"
       orient="auto"
       refY="0"
       refX="0"
       id="Arrow1Lend"
       style="overflow:visible"
       inkscape:isstock="true">
      <path
         id="path85581"
         d="M 0,0 5,-5 -12.5,0 5,5 0,0 Z"
         style="fill:#000000;fill-opacity:1;fill-rule:evenodd;stroke:#000000;stroke-width:1pt;stroke-opacity:1"
         transform="matrix(-0.8,0,0,-0.8,-10,0)"
         inkscape:connector-curvature="0" />
    </marker>
    <clipPath
       clipPathUnits="userSpaceOnUse"
       id="clipPath87617">
      <rect
         style="opacity:1;fill:none;fill-opacity:1;stroke:#000080;stroke-width:2.70000005;stroke-miterlimit:4;stroke-dasharray:none;stroke-opacity:1"
         id="rect87619"
         width="110.28756"
         height="182.21423"
         x="397.99426"
         y="329.49915" />
    </clipPath>
    <clipPath
       clipPathUnits="userSpaceOnUse"
       id="clipPath87623">
      <rect
         style="opacity:1;fill:none;fill-opacity:1;stroke:#000080;stroke-width:1.30629921;stroke-miterlimit:4;stroke-dasharray:none;stroke-opacity:1"
         id="rect87625"
         width="86.151924"
         height="120.9315"
         x="519.28857"
         y="4.8954372"
         transform="matrix(0.79581215,0.60554357,-0.26547168,0.96411866,0,0)" />
    </clipPath>
  </defs>
  <sodipodi:namedview
     id="base"
     pagecolor="#ffffff"
     bordercolor="#666666"
     borderopacity="1.0"
     inkscape:pageopacity="0.0"
     inkscape:pageshadow="2"
     inkscape:zoom="1.2109028"
     inkscape:cx="341.22801"
     inkscape:cy="317.04115"
     inkscape:document-units="px"
     inkscape:current-layer="layer1"
     showgrid="false"
     fit-margin-top="10"
     fit-margin-left="10"
     fit-margin-right="10"
     fit-margin-bottom="10"
     inkscape:window-width="1875"
     inkscape:window-height="1056"
     inkscape:window-x="45"
     inkscape:window-y="0"
     inkscape:window-maximized="1" />
  <metadata
     id="metadata84956">
    <rdf:RDF>
      <cc:Work
         rdf:about="">
        <dc:format>image/svg+xml</dc:format>
        <dc:type
           rdf:resource="http://purl.org/dc/dcmitype/StillImage" />
        <dc:title></dc:title>
      </cc:Work>
    </rdf:RDF>
  </metadata>
  <g
     inkscape:label="Layer 1"
     inkscape:groupmode="layer"
     id="layer1"
     transform="translate(-36.175496,-9.9570353)">
    <g
       id="g88096"
       transform="translate(14.998036,-349.95418)">
      <g
         transform="translate(0,305.46099)"
         id="g87817">
        <path
           id="path87932"
           transform="translate(0,-305.46099)"
           d="m 311.93164,616.56641 c 0,0 -2.79747,10.55723 -14.74805,20.72656 -10.41763,8.86487 -27.78974,17.40763 -56.375,18.2168 l 0,1.00195 c 28.79445,-0.81467 46.42548,-9.43871 57.02344,-18.45703 12.15322,-10.34177 15.06641,-21.23242 15.06641,-21.23242 l -0.9668,-0.25586 z m -91.21875,38.57617 c -32.81137,-0.25852 -52.46385,10.40437 -63.9707,21.51172 -12.27398,11.84784 -15.30078,24.2207 -15.30078,24.2207 l 0.97265,0.23828 c 0,0 2.93998,-12.07434 15.02344,-23.73828 11.3412,-10.94745 30.72321,-21.51515 63.38086,-21.22852 l 0,-1.00195 c -0.0347,-3e-4 -0.0708,-0.002 -0.10547,-0.002 z"
           style="color:#000000;font-style:normal;font-variant:normal;font-weight:normal;font-stretch:normal;font-size:medium;line-height:normal;font-family:sans-serif;text-indent:0;text-align:start;text-decoration:none;text-decoration-line:none;text-decoration-style:solid;text-decoration-color:#000000;letter-spacing:normal;word-spacing:normal;text-transform:none;direction:ltr;block-progression:tb;writing-mode:lr-tb;baseline-shift:baseline;text-anchor:start;white-space:normal;clip-rule:nonzero;display:inline;overflow:visible;visibility:visible;opacity:1;isolation:auto;mix-blend-mode:normal;color-interpolation:sRGB;color-interpolation-filters:linearRGB;solid-color:#000000;solid-opacity:1;fill:#d55e00;fill-opacity:1;fill-rule:evenodd;stroke:none;stroke-width:1;stroke-linecap:butt;stroke-linejoin:miter;stroke-miterlimit:4;stroke-dasharray:none;stroke-dashoffset:0;stroke-opacity:1;color-rendering:auto;image-rendering:auto;shape-rendering:auto;text-rendering:auto;enable-background:accumulate"
           inkscape:connector-curvature="0" />
        <g
           style="stroke-width:3.44532871;stroke-miterlimit:4;stroke-dasharray:none"
           transform="matrix(0.26039188,0,0,0.32352752,51.380663,111.24366)"
           id="g87819">
          <g
             id="g87821"
             transform="translate(-17.518515,55.058189)"
             style="fill:none;stroke:#800000;stroke-width:3.44532871;stroke-miterlimit:4;stroke-dasharray:none">
            <path
               inkscape:connector-curvature="0"
               id="path87823"
               d="m 43.796287,230.24334 c 0,0 72.576703,-95.10051 161.420603,2.50264 88.84389,97.60315 176.43647,-1.25132 176.43647,-1.25132"
               style="fill:none;fill-rule:evenodd;stroke:#d55e00;stroke-width:3.44532871;stroke-linecap:butt;stroke-linejoin:miter;stroke-miterlimit:4;stroke-dasharray:none;stroke-opacity:1" />
            <path
               style="fill:none;fill-rule:evenodd;stroke:#d55e00;stroke-width:3.44532871;stroke-linecap:butt;stroke-linejoin:miter;stroke-miterlimit:4;stroke-dasharray:none;stroke-opacity:1"
               d="m 379.15071,233.99731 c 0,0 72.5767,-95.10051 161.4206,2.50264 88.84389,97.60315 176.43647,-1.25132 176.43647,-1.25132"
               id="path87825"
               inkscape:connector-curvature="0" />
          </g>
          <g
             style="fill:none;stroke:#000080;stroke-width:3.47788668;stroke-miterlimit:4;stroke-dasharray:none"
             transform="matrix(1.0000324,0,0,-0.98133308,-17.530855,518.95273)"
             id="g87827">
            <path
               style="fill:none;fill-rule:evenodd;stroke:#0072b2;stroke-width:3.47788668;stroke-linecap:butt;stroke-linejoin:miter;stroke-miterlimit:4;stroke-dasharray:none;stroke-opacity:1"
               d="m 43.796287,230.24334 c 0,0 72.576703,-95.10051 161.420603,2.50264 88.84389,97.60315 176.43647,-1.25132 176.43647,-1.25132"
               id="path87829"
               inkscape:connector-curvature="0" />
            <path
               inkscape:connector-curvature="0"
               id="path87831"
               d="m 379.15071,233.99731 c 0,0 72.5767,-95.10051 161.4206,2.50264 88.84389,97.60315 176.43647,-1.25132 176.43647,-1.25132"
               style="fill:none;fill-rule:evenodd;stroke:#0072b2;stroke-width:3.47788668;stroke-linecap:butt;stroke-linejoin:miter;stroke-miterlimit:4;stroke-dasharray:none;stroke-opacity:1" />
          </g>
        </g>
        <path
           id="path87833"
           transform="translate(0,-305.46099)"
           d="m 373.10352,419.25195 c -1.3638,-0.009 -2.72206,0.01 -4.07618,0.0566 -18.05491,0.6234 -35.22868,6.15236 -50.90039,14.20508 -4.83246,2.48311 -9.52066,5.20981 -14.05273,8.10352 l 0.15039,1.05273 c 4.62335,-2.96827 9.40535,-5.7662 14.3418,-8.30273 24.9234,-12.8066 53.54896,-19.15426 83.48047,-9.45508 29.93148,9.69918 61.22357,35.47286 91.38867,87.08789 l 0.82812,-0.48438 c -30.24081,-51.74457 -61.7006,-77.72512 -91.91992,-87.51757 -9.91572,-3.21315 -19.69366,-4.68017 -29.24023,-4.7461 z m -85.31055,33.92969 c -33.34337,26.09665 -54.73828,57.71094 -54.73828,57.71094 l 0.79492,0.53906 c 0,0 21.17329,-31.23293 54.10156,-57.14453 l -0.1582,-1.10547 z"
           style="color:#000000;font-style:normal;font-variant:normal;font-weight:normal;font-stretch:normal;font-size:medium;line-height:normal;font-family:sans-serif;text-indent:0;text-align:start;text-decoration:none;text-decoration-line:none;text-decoration-style:solid;text-decoration-color:#000000;letter-spacing:normal;word-spacing:normal;text-transform:none;direction:ltr;block-progression:tb;writing-mode:lr-tb;baseline-shift:baseline;text-anchor:start;white-space:normal;clip-rule:nonzero;display:inline;overflow:visible;visibility:visible;opacity:1;isolation:auto;mix-blend-mode:normal;color-interpolation:sRGB;color-interpolation-filters:linearRGB;solid-color:#000000;solid-opacity:1;fill:#d55e00;fill-opacity:1;fill-rule:evenodd;stroke:none;stroke-width:1;stroke-linecap:butt;stroke-linejoin:miter;stroke-miterlimit:4;stroke-dasharray:none;stroke-dashoffset:0;stroke-opacity:1;color-rendering:auto;image-rendering:auto;shape-rendering:auto;text-rendering:auto;enable-background:accumulate"
           inkscape:connector-curvature="0" />
        <path
           inkscape:connector-curvature="0"
           id="path87835"
           d="m 233.76758,203.66016 -0.92383,0.46093 c 30.0844,60.16312 61.37642,90.37524 91.47266,101.77344 30.09623,11.3982 58.91826,3.91845 83.87695,-11.07031 49.91737,-29.97753 84.64844,-89.98242 84.64844,-89.98242 l -0.89258,-0.51758 c 0,0 -34.71043,59.84231 -84.28711,89.61523 -24.78834,14.88647 -53.22799,22.25825 -82.98047,10.99024 -29.75248,-11.26801 -60.89594,-41.23898 -90.91406,-101.26953 z"
           style="color:#000000;font-style:normal;font-variant:normal;font-weight:normal;font-stretch:normal;font-size:medium;line-height:normal;font-family:sans-serif;text-indent:0;text-align:start;text-decoration:none;text-decoration-line:none;text-decoration-style:solid;text-decoration-color:#000000;letter-spacing:normal;word-spacing:normal;text-transform:none;direction:ltr;block-progression:tb;writing-mode:lr-tb;baseline-shift:baseline;text-anchor:start;white-space:normal;clip-rule:nonzero;display:inline;overflow:visible;visibility:visible;opacity:1;isolation:auto;mix-blend-mode:normal;color-interpolation:sRGB;color-interpolation-filters:linearRGB;solid-color:#000000;solid-opacity:1;fill:#0072b2;fill-opacity:1;fill-rule:evenodd;stroke:none;stroke-width:1;stroke-linecap:butt;stroke-linejoin:miter;stroke-miterlimit:4;stroke-dasharray:none;stroke-dashoffset:0;stroke-opacity:1;color-rendering:auto;image-rendering:auto;shape-rendering:auto;text-rendering:auto;enable-background:accumulate" />
        <path
           sodipodi:nodetypes="cccc"
           inkscape:connector-curvature="0"
           id="path87837"
           d="m 240.12415,197.806 -11.26395,-10.7224 19.35575,-23.48517 5.76156,-5.95406"
           style="fill:none;fill-rule:evenodd;stroke:#000000;stroke-width:1px;stroke-linecap:butt;stroke-linejoin:miter;stroke-opacity:1;marker-end:url(#Arrow2Lend)" />
        <text
           transform="translate(10.90005,6.72004)"
           y="0.72667003"
           sodipodi:linespacing="125%"
           id="text87839"
           style="font-style:normal;font-weight:normal;font-size:30px;line-height:125%;font-family:Sans;letter-spacing:0px;word-spacing:0px;fill:#000000;fill-opacity:1;stroke:none;stroke-width:1px;stroke-linecap:butt;stroke-linejoin:miter;stroke-opacity:1"
           xml:space="preserve"><textPath
             id="textPath87841"
             xlink:href="#path85555"><tspan
   dx="11.62672"
   id="tspan87843"
   style="font-size:15px">coding</tspan></textPath></text>
        <text
           transform="translate(2,-0.72667)"
           x="0.72667003"
           sodipodi:linespacing="125%"
           id="text87845"
           style="font-style:normal;font-weight:normal;font-size:30px;line-height:125%;font-family:Sans;letter-spacing:0px;word-spacing:0px;fill:#000000;fill-opacity:1;stroke:none;stroke-width:1px;stroke-linecap:butt;stroke-linejoin:miter;stroke-opacity:1"
           xml:space="preserve"><textPath
             id="textPath87847"
             xlink:href="#path85555-1"><tspan
   dx="17.440081 2.9066801"
   id="tspan87849"
   style="font-size:15px">template</tspan></textPath></text>
        <text
           transform="translate(-1.45334,-1.45334)"
           y="-2"
           sodipodi:linespacing="125%"
           id="text87851"
           style="font-style:normal;font-weight:normal;font-size:30px;line-height:125%;font-family:Sans;letter-spacing:0px;word-spacing:0px;fill:#000000;fill-opacity:1;stroke:none;stroke-width:1px;stroke-linecap:butt;stroke-linejoin:miter;stroke-opacity:1"
           xml:space="preserve"><textPath
             id="textPath87853"
             xlink:href="#path85572"><tspan
   dx="18.893419"
   id="tspan87855"
   style="font-size:15px">tss</tspan></textPath></text>
        <g
           style="stroke-width:3.62822223;stroke-miterlimit:4;stroke-dasharray:none"
           id="g87857"
           transform="matrix(0.25993005,0,0,-0.29225082,486.02302,288.80385)">
          <g
             style="fill:none;stroke:#800000;stroke-width:3.62822223;stroke-miterlimit:4;stroke-dasharray:none"
             transform="translate(-17.518515,55.058189)"
             id="g87859">
            <path
               style="fill:none;fill-rule:evenodd;stroke:#d55e00;stroke-width:3.62822223;stroke-linecap:butt;stroke-linejoin:miter;stroke-miterlimit:4;stroke-dasharray:none;stroke-opacity:1"
               d="m 43.796287,230.24334 c 0,0 72.576703,-95.10051 161.420603,2.50264 88.84389,97.60315 176.43647,-1.25132 176.43647,-1.25132"
               id="path87861"
               inkscape:connector-curvature="0" />
            <path
               inkscape:connector-curvature="0"
               id="path87863"
               d="m 379.15071,233.99731 c 0,0 72.5767,-95.10051 161.4206,2.50264 88.84389,97.60315 176.43647,-1.25132 176.43647,-1.25132"
               style="fill:none;fill-rule:evenodd;stroke:#d55e00;stroke-width:3.62822223;stroke-linecap:butt;stroke-linejoin:miter;stroke-miterlimit:4;stroke-dasharray:none;stroke-opacity:1" />
          </g>
          <g
             id="g87865"
             transform="matrix(1.0000324,0,0,-0.98133308,-17.530855,518.95273)"
             style="fill:none;stroke:#000080;stroke-width:3.66250849;stroke-miterlimit:4;stroke-dasharray:none">
            <path
               inkscape:connector-curvature="0"
               id="path87867"
               d="m 43.796287,230.24334 c 0,0 72.576703,-95.10051 161.420603,2.50264 88.84389,97.60315 176.43647,-1.25132 176.43647,-1.25132"
               style="fill:none;fill-rule:evenodd;stroke:#0072b2;stroke-width:3.66250849;stroke-linecap:butt;stroke-linejoin:miter;stroke-miterlimit:4;stroke-dasharray:none;stroke-opacity:1" />
            <path
               style="fill:none;fill-rule:evenodd;stroke:#0072b2;stroke-width:3.66250849;stroke-linecap:butt;stroke-linejoin:miter;stroke-miterlimit:4;stroke-dasharray:none;stroke-opacity:1"
               d="m 379.15071,233.99731 c 0,0 72.5767,-95.10051 161.4206,2.50264 88.84389,97.60315 176.43647,-1.25132 176.43647,-1.25132"
               id="path87869"
               inkscape:connector-curvature="0" />
          </g>
        </g>
        <g
           transform="translate(2.3928075,-5.9820185)"
           id="g87871">
          <g
             id="g87873"
             transform="matrix(0.26536693,0.03139617,-0.01210678,-0.28104724,252.28615,440.25419)"
             style="fill:#009e73;fill-opacity:1">
            <ellipse
               ry="67.131561"
               rx="100.09795"
               cy="499.72562"
               cx="282.31219"
               id="ellipse87875"
               style="opacity:1;fill:#009e73;fill-opacity:1;stroke:none;stroke-width:2.70000005;stroke-miterlimit:4;stroke-dasharray:none;stroke-opacity:1" />
            <path
               transform="matrix(1.7608637,-1.9690075,1.1061654,1.591917,-1065.8947,672.43021)"
               clip-path="url(#clipPath87623)"
               inkscape:connector-curvature="0"
               id="path87877"
               d="m 507.08304,479.34639 c 0,0 -62.33645,-9.59023 -63.53523,-76.72179 -1.19878,-67.13156 -33.56578,-59.93889 -33.56578,-59.93889 0,0 19.18044,0 22.77678,50.34867 3.59633,50.34867 11.98778,80.31812 71.92667,94.70345 59.93889,14.38534 58.74011,14.38534 58.74011,14.38534 l 14.38534,-21.57801"
               style="fill:#009e73;fill-opacity:1;fill-rule:evenodd;stroke:none;stroke-width:1px;stroke-linecap:butt;stroke-linejoin:miter;stroke-opacity:1" />
          </g>
          <text
             xml:space="preserve"
             style="font-style:normal;font-weight:normal;font-size:30px;line-height:125%;font-family:Sans;letter-spacing:0px;word-spacing:0px;fill:#000000;fill-opacity:1;stroke:none;stroke-width:1px;stroke-linecap:butt;stroke-linejoin:miter;stroke-opacity:1"
             x="302.69012"
             y="314.18112"
             id="text87879"
             sodipodi:linespacing="125%"><tspan
               sodipodi:role="line"
               id="tspan87881"
               x="302.69012"
               y="314.18112"
               style="font-size:15px">Pol II</tspan></text>
        </g>
        <g
           transform="matrix(-0.26813582,0.04911977,0.02679968,0.29512137,322.73118,-21.785798)"
           style="stroke-width:3.52565384;stroke-miterlimit:4;stroke-dasharray:none"
           id="g87887" />
        <g
           transform="matrix(-0.25336333,0.05964254,0.03655232,0.29396283,315.48996,-23.071181)"
           id="g87900">
          <path
             style="fill:none;fill-rule:evenodd;stroke:#d55e00;stroke-width:5.06150436;stroke-linecap:butt;stroke-linejoin:miter;stroke-miterlimit:4;stroke-dasharray:none;stroke-opacity:1"
             d="m 177.06775,552.26545 -1.1964,-105.28353 c 0,0 0,-47.85614 43.07053,-53.83816 43.07053,-5.98202 49.05255,47.85615 49.05255,47.85615 l 9.57123,71.78422 c 0,0 0,25.12448 39.48132,50.24896 0,0 45.46335,12.66197 45.46335,-29.9101 l 0,-80.15905 c 0,0 -8.63358,-70.20471 -57.42738,-28.71368 -13.28045,11.29281 -23.84942,32.44358 -28.83973,57.40217 -10.26132,51.32104 -4.65958,114.87996 -4.65958,114.87996"
             id="path87889"
             inkscape:connector-curvature="0"
             sodipodi:nodetypes="ccsccsscssc"
             transform="matrix(0.75981012,1.5584467e-8,0,0.63857952,-16.698543,165.80083)" />
          <rect
             transform="matrix(0.93079491,0.36554182,-0.93079491,0.36554181,8.7193525e-6,-8.0395089e-6)"
             y="512.13239"
             x="713.93341"
             height="77.255188"
             width="77.255188"
             id="rect87891"
             style="opacity:1;fill:#d55e00;fill-opacity:0.8;stroke:none;stroke-width:4.27394676;stroke-miterlimit:4;stroke-dasharray:none;stroke-opacity:1" />
          <rect
             transform="matrix(0.93079492,0.36554182,-0.93079492,0.36554182,0,0)"
             y="556.31732"
             x="758.11835"
             height="77.255188"
             width="77.255188"
             id="rect87893"
             style="opacity:1;fill:#d55e00;fill-opacity:0.8;stroke:none;stroke-width:2.70000005;stroke-miterlimit:4;stroke-dasharray:none;stroke-opacity:1" />
        </g>
        <g
           id="g87964"
           transform="matrix(-0.24053578,-0.09946228,-0.14190894,0.26002322,342.70724,227.52598)">
          <path
             transform="matrix(0.75981012,1.5584467e-8,0,0.63857952,-16.698543,165.80083)"
             sodipodi:nodetypes="ccsccsscssc"
             inkscape:connector-curvature="0"
             id="path87966"
             d="m 177.06775,552.26545 -1.1964,-105.28353 c 0,0 0,-47.85614 43.07053,-53.83816 43.07053,-5.98202 49.05255,47.85615 49.05255,47.85615 l 9.57123,71.78422 c 0,0 0,25.12448 39.48132,50.24896 0,0 45.46335,12.66197 45.46335,-29.9101 l 0,-80.15905 c 0,0 -8.63358,-70.20471 -57.42738,-28.71368 -13.28045,11.29281 -23.84942,32.44358 -28.83973,57.40217 -10.26132,51.32104 -4.65958,114.87996 -4.65958,114.87996"
             style="fill:none;fill-rule:evenodd;stroke:#d55e00;stroke-width:5.06150436;stroke-linecap:butt;stroke-linejoin:miter;stroke-miterlimit:4;stroke-dasharray:none;stroke-opacity:1" />
          <rect
             style="opacity:1;fill:#d55e00;fill-opacity:0.8;stroke:none;stroke-width:4.27394676;stroke-miterlimit:4;stroke-dasharray:none;stroke-opacity:1"
             id="rect87968"
             width="77.255188"
             height="77.255188"
             x="713.93341"
             y="512.13239"
             transform="matrix(0.93079491,0.36554182,-0.93079491,0.36554181,8.7193525e-6,-8.0395089e-6)" />
          <rect
             style="opacity:1;fill:#d55e00;fill-opacity:0.8;stroke:none;stroke-width:2.70000005;stroke-miterlimit:4;stroke-dasharray:none;stroke-opacity:1"
             id="rect87970"
             width="77.255188"
             height="77.255188"
             x="758.11835"
             y="556.31732"
             transform="matrix(0.93079492,0.36554182,-0.93079492,0.36554182,0,0)" />
        </g>
      </g>
      <path
         inkscape:connector-curvature="0"
         id="path87934"
         d="M 97.566301,744.56157 C 133.63661,730.19298 145.11353,692.47546 145.11353,692.47546"
         style="fill:none;fill-rule:evenodd;stroke:none;stroke-width:1.13480484px;stroke-linecap:butt;stroke-linejoin:miter;stroke-opacity:1" />
      <text
         transform="matrix(0.93040909,-0.36652275,0.36652275,0.93040909,-237.05465,73.755299)"
         y="-6.0487328"
         x="-3.0243664"
         sodipodi:linespacing="125%"
         id="text87936"
         style="font-style:normal;font-weight:normal;font-size:30px;line-height:125%;font-family:Sans;letter-spacing:0px;word-spacing:0px;fill:#d55e00;fill-opacity:1;stroke:none;stroke-width:1px;stroke-linecap:butt;stroke-linejoin:miter;stroke-opacity:1"
         xml:space="preserve"><textPath
           id="textPath87940"
           xlink:href="#path87934"><tspan
   id="tspan87938"
   style="font-size:15px;fill:#d55e00;fill-opacity:1">m<tspan
   id="tspan87972"
   style="font-size:64.99999762%;baseline-shift:super">7</tspan>G</tspan></textPath></text>
    </g>
    <g
       id="g88049"
       transform="translate(13.7482,334.95614)">
      <path
         style="fill:none;fill-rule:evenodd;stroke:#d55e00;stroke-width:1;stroke-linecap:butt;stroke-linejoin:miter;stroke-miterlimit:4;stroke-dasharray:none;stroke-opacity:1"
         d="m 136.63518,89.316475 c 0,0 11.93241,-48.89645 85.49735,-45.15067 73.56497,3.74578 84.99009,-39.1493101 84.99009,-39.1493101"
         id="path87956"
         inkscape:connector-curvature="0"
         transform="translate(0,305.46099)" />
      <g
         id="g88003">
        <g
           id="g87777">
          <g
             transform="matrix(0.26039188,0,0,0.32352752,51.380663,111.24366)"
             id="g85519">
            <g
               id="g84963"
               transform="translate(-17.518515,55.058189)"
               style="fill:none;stroke:#800000;stroke-width:2.70000005;stroke-miterlimit:4;stroke-dasharray:none">
              <path
                 inkscape:connector-curvature="0"
                 id="path84959"
                 d="m 43.796287,230.24334 c 0,0 72.576703,-95.10051 161.420603,2.50264 88.84389,97.60315 176.43647,-1.25132 176.43647,-1.25132"
                 style="fill:none;fill-rule:evenodd;stroke:#d55e00;stroke-width:2.70000005;stroke-linecap:butt;stroke-linejoin:miter;stroke-miterlimit:4;stroke-dasharray:none;stroke-opacity:1" />
              <path
                 style="fill:none;fill-rule:evenodd;stroke:#d55e00;stroke-width:2.70000005;stroke-linecap:butt;stroke-linejoin:miter;stroke-miterlimit:4;stroke-dasharray:none;stroke-opacity:1"
                 d="m 379.15071,233.99731 c 0,0 72.5767,-95.10051 161.4206,2.50264 88.84389,97.60315 176.43647,-1.25132 176.43647,-1.25132"
                 id="path84961"
                 inkscape:connector-curvature="0" />
            </g>
            <g
               style="fill:none;stroke:#000080;stroke-width:3.47788668;stroke-miterlimit:4;stroke-dasharray:none"
               transform="matrix(1.0000324,0,0,-0.98133308,-17.530855,518.95273)"
               id="g85507">
              <path
                 style="fill:none;fill-rule:evenodd;stroke:#0072b2;stroke-width:3.47788668;stroke-linecap:butt;stroke-linejoin:miter;stroke-miterlimit:4;stroke-dasharray:none;stroke-opacity:1"
                 d="m 43.796287,230.24334 c 0,0 72.576703,-95.10051 161.420603,2.50264 88.84389,97.60315 176.43647,-1.25132 176.43647,-1.25132"
                 id="path85509"
                 inkscape:connector-curvature="0" />
              <path
                 inkscape:connector-curvature="0"
                 id="path85511"
                 d="m 379.15071,233.99731 c 0,0 72.5767,-95.10051 161.4206,2.50264 88.84389,97.60315 176.43647,-1.25132 176.43647,-1.25132"
                 style="fill:none;fill-rule:evenodd;stroke:#0072b2;stroke-width:3.47788668;stroke-linecap:butt;stroke-linejoin:miter;stroke-miterlimit:4;stroke-dasharray:none;stroke-opacity:1" />
            </g>
          </g>
          <path
             inkscape:connector-curvature="0"
             id="path85555"
             d="m 233.45135,205.70107 c 0,0 139.58666,-206.12349846 260.39848,0.59574"
             style="fill:none;fill-rule:evenodd;stroke:#d55e00;stroke-width:0.96007729px;stroke-linecap:butt;stroke-linejoin:miter;stroke-opacity:1" />
          <path
             style="color:#000000;font-style:normal;font-variant:normal;font-weight:normal;font-stretch:normal;font-size:medium;line-height:normal;font-family:sans-serif;text-indent:0;text-align:start;text-decoration:none;text-decoration-line:none;text-decoration-style:solid;text-decoration-color:#000000;letter-spacing:normal;word-spacing:normal;text-transform:none;direction:ltr;block-progression:tb;writing-mode:lr-tb;baseline-shift:baseline;text-anchor:start;white-space:normal;clip-rule:nonzero;display:inline;overflow:visible;visibility:visible;opacity:1;isolation:auto;mix-blend-mode:normal;color-interpolation:sRGB;color-interpolation-filters:linearRGB;solid-color:#000000;solid-opacity:1;fill:#0072b2;fill-opacity:1;fill-rule:evenodd;stroke:none;stroke-width:1.03270936px;stroke-linecap:butt;stroke-linejoin:miter;stroke-miterlimit:4;stroke-dasharray:none;stroke-dashoffset:0;stroke-opacity:1;color-rendering:auto;image-rendering:auto;shape-rendering:auto;text-rendering:auto;enable-background:accumulate"
             d="m 233.76758,203.66016 -0.92383,0.46093 c 30.0844,60.16312 61.37642,90.37524 91.47266,101.77344 30.09623,11.3982 58.91826,3.91845 83.87695,-11.07031 7.47307,-4.4879 14.59746,-9.65766 21.32422,-15.18945 l -0.15039,-1.21094 c -6.83831,5.66262 -14.09427,10.94501 -21.70508,15.51562 -24.78834,14.88647 -53.22799,22.25825 -82.98047,10.99024 -29.75248,-11.26801 -60.89594,-41.23898 -90.91406,-101.26953 z m 258.18164,0.66406 c 0,0 -18.18026,31.32767 -47.00781,59.92773 l 0.16015,1.30078 c 29.3007,-28.87878 47.74024,-60.71093 47.74024,-60.71093 l -0.89258,-0.51758 z"
             id="path85555-1"
             inkscape:connector-curvature="0" />
          <path
             sodipodi:nodetypes="cccc"
             inkscape:connector-curvature="0"
             id="path85572"
             d="m 240.12415,197.806 -11.26395,-10.7224 19.35575,-23.48517 5.76156,-5.95406"
             style="fill:none;fill-rule:evenodd;stroke:#000000;stroke-width:1px;stroke-linecap:butt;stroke-linejoin:miter;stroke-opacity:1;marker-end:url(#Arrow2Lend)" />
          <text
             transform="translate(10.90005,6.72004)"
             y="0.72667003"
             sodipodi:linespacing="125%"
             id="text86952"
             style="font-style:normal;font-weight:normal;font-size:30px;line-height:125%;font-family:Sans;letter-spacing:0px;word-spacing:0px;fill:#000000;fill-opacity:1;stroke:none;stroke-width:1px;stroke-linecap:butt;stroke-linejoin:miter;stroke-opacity:1"
             xml:space="preserve"><textPath
               id="textPath86980"
               xlink:href="#path85555"><tspan
   dx="11.62672"
   id="tspan86954"
   style="font-size:15px">coding</tspan></textPath></text>
          <text
             transform="translate(2,-0.72667)"
             x="0.72667003"
             sodipodi:linespacing="125%"
             id="text86983"
             style="font-style:normal;font-weight:normal;font-size:30px;line-height:125%;font-family:Sans;letter-spacing:0px;word-spacing:0px;fill:#000000;fill-opacity:1;stroke:none;stroke-width:1px;stroke-linecap:butt;stroke-linejoin:miter;stroke-opacity:1"
             xml:space="preserve"><textPath
               id="textPath86987"
               xlink:href="#path85555-1"><tspan
   dx="17.440081 2.9066801"
   id="tspan86985"
   style="font-size:15px">template</tspan></textPath></text>
          <text
             transform="translate(-1.45334,-1.45334)"
             y="-2"
             sodipodi:linespacing="125%"
             id="text86990"
             style="font-style:normal;font-weight:normal;font-size:30px;line-height:125%;font-family:Sans;letter-spacing:0px;word-spacing:0px;fill:#000000;fill-opacity:1;stroke:none;stroke-width:1px;stroke-linecap:butt;stroke-linejoin:miter;stroke-opacity:1"
             xml:space="preserve"><textPath
               id="textPath87012"
               xlink:href="#path85572"><tspan
   dx="18.893419"
   id="tspan86992"
   style="font-size:15px">tss</tspan></textPath></text>
          <g
             id="g87642"
             transform="matrix(0.25993005,0,0,-0.29225082,486.02302,288.80385)"
             style="stroke-width:3.62822223;stroke-miterlimit:4;stroke-dasharray:none">
            <g
               style="fill:none;stroke:#800000;stroke-width:3.62822223;stroke-miterlimit:4;stroke-dasharray:none"
               transform="translate(-17.518515,55.058189)"
               id="g87644">
              <path
                 style="fill:none;fill-rule:evenodd;stroke:#d55e00;stroke-width:3.62822223;stroke-linecap:butt;stroke-linejoin:miter;stroke-miterlimit:4;stroke-dasharray:none;stroke-opacity:1"
                 d="m 43.796287,230.24334 c 0,0 72.576703,-95.10051 161.420603,2.50264 88.84389,97.60315 176.43647,-1.25132 176.43647,-1.25132"
                 id="path87646"
                 inkscape:connector-curvature="0" />
              <path
                 inkscape:connector-curvature="0"
                 id="path87648"
                 d="m 379.15071,233.99731 c 0,0 72.5767,-95.10051 161.4206,2.50264 88.84389,97.60315 176.43647,-1.25132 176.43647,-1.25132"
                 style="fill:none;fill-rule:evenodd;stroke:#d55e00;stroke-width:3.62822223;stroke-linecap:butt;stroke-linejoin:miter;stroke-miterlimit:4;stroke-dasharray:none;stroke-opacity:1" />
            </g>
            <g
               id="g87650"
               transform="matrix(1.0000324,0,0,-0.98133308,-17.530855,518.95273)"
               style="fill:none;stroke:#000080;stroke-width:3.66250849;stroke-miterlimit:4;stroke-dasharray:none">
              <path
                 inkscape:connector-curvature="0"
                 id="path87652"
                 d="m 43.796287,230.24334 c 0,0 72.576703,-95.10051 161.420603,2.50264 88.84389,97.60315 176.43647,-1.25132 176.43647,-1.25132"
                 style="fill:none;fill-rule:evenodd;stroke:#0072b2;stroke-width:3.66250849;stroke-linecap:butt;stroke-linejoin:miter;stroke-miterlimit:4;stroke-dasharray:none;stroke-opacity:1" />
              <path
                 style="fill:none;fill-rule:evenodd;stroke:#0072b2;stroke-width:3.66250849;stroke-linecap:butt;stroke-linejoin:miter;stroke-miterlimit:4;stroke-dasharray:none;stroke-opacity:1"
                 d="m 379.15071,233.99731 c 0,0 72.5767,-95.10051 161.4206,2.50264 88.84389,97.60315 176.43647,-1.25132 176.43647,-1.25132"
                 id="path87654"
                 inkscape:connector-curvature="0" />
            </g>
          </g>
          <g
             transform="translate(2.3928075,-5.9820185)"
             id="g87664">
            <g
               id="g87656"
               transform="matrix(0.26536693,0.03139617,-0.01210678,-0.28104724,252.28615,440.25419)"
               style="fill:#009e73;fill-opacity:1">
              <ellipse
                 ry="67.131561"
                 rx="100.09795"
                 cy="499.72562"
                 cx="282.31219"
                 id="path87611"
                 style="opacity:1;fill:#009e73;fill-opacity:1;stroke:none;stroke-width:2.70000005;stroke-miterlimit:4;stroke-dasharray:none;stroke-opacity:1" />
              <path
                 transform="matrix(1.7608637,-1.9690075,1.1061654,1.591917,-1065.8947,672.43021)"
                 clip-path="url(#clipPath87623)"
                 inkscape:connector-curvature="0"
                 id="path87613"
                 d="m 507.08304,479.34639 c 0,0 -62.33645,-9.59023 -63.53523,-76.72179 -1.19878,-67.13156 -33.56578,-59.93889 -33.56578,-59.93889 0,0 19.18044,0 22.77678,50.34867 3.59633,50.34867 11.98778,80.31812 71.92667,94.70345 59.93889,14.38534 58.74011,14.38534 58.74011,14.38534 l 14.38534,-21.57801"
                 style="fill:#009e73;fill-opacity:1;fill-rule:evenodd;stroke:none;stroke-width:1px;stroke-linecap:butt;stroke-linejoin:miter;stroke-opacity:1" />
            </g>
            <text
               xml:space="preserve"
               style="font-style:normal;font-weight:normal;font-size:30px;line-height:125%;font-family:Sans;letter-spacing:0px;word-spacing:0px;fill:#000000;fill-opacity:1;stroke:none;stroke-width:1px;stroke-linecap:butt;stroke-linejoin:miter;stroke-opacity:1"
               x="302.69012"
               y="314.18112"
               id="text87660"
               sodipodi:linespacing="125%"><tspan
                 sodipodi:role="line"
                 id="tspan87662"
                 x="302.69012"
                 y="314.18112"
                 style="font-size:15px">Pol II</tspan></text>
          </g>
          <g
             transform="matrix(-0.20227173,0.01826165,0.0137523,0.19173539,483.11584,159.50357)"
             id="g87681">
            <g
               id="g87675"
               transform="matrix(1.2820769,0.39551919,-0.30482063,1.5135184,229.68035,-305.97361)">
              <g
                 style="stroke-width:3.52565384;stroke-miterlimit:4;stroke-dasharray:none"
                 id="g87688">
                <path
                   transform="matrix(0.75981012,0,0,0.63857951,-16.698538,165.80082)"
                   sodipodi:nodetypes="ccsccsscssc"
                   inkscape:connector-curvature="0"
                   id="path87679"
                   d="m 177.06775,552.26545 -1.1964,-105.28353 c 0,0 0,-47.85614 43.07053,-53.83816 43.07053,-5.98202 49.05255,47.85615 49.05255,47.85615 l 9.57123,71.78422 c 0,0 0,25.12448 39.48132,50.24896 0,0 45.46335,12.66197 45.46335,-29.9101 l 0,-80.15905 c 0,0 -8.63358,-70.20471 -57.42738,-28.71368 -13.28045,11.29281 -23.84942,32.44358 -28.83973,57.40217 -10.26132,51.32104 -4.65958,114.87996 -4.65958,114.87996"
                   style="fill:none;fill-rule:evenodd;stroke:#0072b2;stroke-width:5.06150436;stroke-linecap:butt;stroke-linejoin:miter;stroke-miterlimit:4;stroke-dasharray:none;stroke-opacity:1" />
                <rect
                   style="opacity:1;fill:#0072b2;fill-opacity:0.8;stroke:none;stroke-width:4.27394676;stroke-miterlimit:4;stroke-dasharray:none;stroke-opacity:1"
                   id="rect87671"
                   width="77.255188"
                   height="77.255188"
                   x="713.93341"
                   y="512.13239"
                   transform="matrix(0.93079492,0.36554182,-0.93079492,0.36554182,0,0)" />
              </g>
              <rect
                 style="opacity:1;fill:#0072b2;fill-opacity:0.8;stroke:none;stroke-width:2.70000005;stroke-miterlimit:4;stroke-dasharray:none;stroke-opacity:1"
                 id="rect87673"
                 width="77.255188"
                 height="77.255188"
                 x="758.11835"
                 y="556.31732"
                 transform="matrix(0.93079492,0.36554182,-0.93079492,0.36554182,0,0)" />
            </g>
          </g>
        </g>
        <text
           transform="matrix(0.93040909,-0.36652275,0.36652275,0.93040909,-240.80416,-232.45461)"
           y="-6.0487328"
           x="-3.0243664"
           sodipodi:linespacing="125%"
           id="text87995"
           style="font-style:normal;font-weight:normal;font-size:30px;line-height:125%;font-family:Sans;letter-spacing:0px;word-spacing:0px;fill:#d55e00;fill-opacity:1;stroke:none;stroke-width:1px;stroke-linecap:butt;stroke-linejoin:miter;stroke-opacity:1"
           xml:space="preserve"><textPath
             id="textPath87997"
             xlink:href="#path87934"><tspan
   id="tspan87999"
   style="font-size:15px;fill:#d55e00;fill-opacity:1">m<tspan
   id="tspan88001"
   style="font-size:64.99999762%;baseline-shift:super">7</tspan>G</tspan></textPath></text>
      </g>
    </g>
    <path
       style="fill:none;fill-rule:evenodd;stroke:#000000;stroke-width:2.85015893;stroke-linecap:butt;stroke-linejoin:miter;stroke-miterlimit:4;stroke-dasharray:none;stroke-opacity:1;marker-mid:url(#DistanceStart);marker-end:url(#StopL)"
       d="m 420.36758,573.50717 c -4.46106,-0.61686 -47.70011,-33.14448 -71.89054,26.72154"
       id="path88146"
       inkscape:connector-curvature="0" />
    <path
       style="fill:none;fill-rule:evenodd;stroke:#000000;stroke-width:2.89034986;stroke-linecap:butt;stroke-linejoin:miter;stroke-miterlimit:4;stroke-dasharray:none;stroke-opacity:1;marker-end:url(#TriangleOutL)"
       d="m 318.344,102.97367 c 0,0 41.30625,26.2838 26.97551,116.39969"
       id="path88674"
       inkscape:connector-curvature="0" />
    <text
       xml:space="preserve"
       style="font-style:normal;font-weight:normal;font-size:30px;line-height:125%;font-family:Sans;letter-spacing:0px;word-spacing:0px;fill:#000000;fill-opacity:1;stroke:none;stroke-width:1px;stroke-linecap:butt;stroke-linejoin:miter;stroke-opacity:1"
       x="72.67305"
       y="62.191864"
       id="text89373"
       sodipodi:linespacing="125%"><tspan
         sodipodi:role="line"
         id="tspan89375"
         x="72.67305"
         y="62.191864">a</tspan></text>
    <text
       sodipodi:linespacing="125%"
       id="text89377"
       y="433.81543"
       x="72.67305"
       style="font-style:normal;font-weight:normal;font-size:30px;line-height:125%;font-family:Sans;letter-spacing:0px;word-spacing:0px;fill:#000000;fill-opacity:1;stroke:none;stroke-width:1px;stroke-linecap:butt;stroke-linejoin:miter;stroke-opacity:1"
       xml:space="preserve"><tspan
         y="433.81543"
         x="72.67305"
         id="tspan89379"
         sodipodi:role="line">b</tspan></text>
    <path
       style="fill:none;fill-rule:evenodd;stroke:#000000;stroke-width:3;stroke-linecap:butt;stroke-linejoin:miter;stroke-miterlimit:4;stroke-dasharray:none;stroke-opacity:1"
       d="m 259.31066,312.4184 62.76309,23.12324"
       id="path89381"
       inkscape:connector-curvature="0" />
    <path
       style="fill:none;fill-rule:evenodd;stroke:#000000;stroke-width:3;stroke-linecap:butt;stroke-linejoin:miter;stroke-miterlimit:4;stroke-dasharray:none;stroke-opacity:1"
       d="m 241.1424,313.24423 -14.03911,48.72398"
       id="path89383"
       inkscape:connector-curvature="0" />
    <text
       xml:space="preserve"
       style="font-style:normal;font-weight:normal;font-size:30px;line-height:125%;font-family:Sans;letter-spacing:0px;word-spacing:0px;fill:#000000;fill-opacity:1;stroke:none;stroke-width:1px;stroke-linecap:butt;stroke-linejoin:miter;stroke-opacity:1"
       x="183.33429"
       y="383.43979"
       id="text89385"
       sodipodi:linespacing="125%"><tspan
         sodipodi:role="line"
         id="tspan89387"
         x="183.33429"
         y="383.43979"
         style="font-size:15px">Translation?</tspan></text>
    <text
       xml:space="preserve"
       style="font-style:normal;font-weight:normal;font-size:30px;line-height:125%;font-family:Sans;letter-spacing:0px;word-spacing:0px;fill:#000000;fill-opacity:1;stroke:none;stroke-width:1px;stroke-linecap:butt;stroke-linejoin:miter;stroke-opacity:1"
       x="327.85458"
       y="341.32245"
       id="text89389"
       sodipodi:linespacing="125%"><tspan
         sodipodi:role="line"
         id="tspan89391"
         x="327.85458"
         y="341.32245"
         style="font-size:15px">Stability?</tspan></text>
    <path
       style="fill:none;fill-rule:evenodd;stroke:#000000;stroke-width:3.39005017;stroke-linecap:butt;stroke-linejoin:miter;stroke-miterlimit:4;stroke-dasharray:none;stroke-opacity:1"
       d="m 248.7049,314.21754 54.24473,49.25485"
       id="path89393"
       inkscape:connector-curvature="0" />
    <text
       xml:space="preserve"
       style="font-style:normal;font-weight:normal;font-size:30px;line-height:125%;font-family:Sans;letter-spacing:0px;word-spacing:0px;fill:#000000;fill-opacity:1;stroke:none;stroke-width:1px;stroke-linecap:butt;stroke-linejoin:miter;stroke-opacity:1"
       x="303.07965"
       y="376.83316"
       id="text89395"
       sodipodi:linespacing="125%"><tspan
         sodipodi:role="line"
         id="tspan89397"
         x="303.07965"
         y="376.83316"
         style="font-size:15px">Splicing?</tspan></text>
  </g>
</svg>
