<?xml version="1.0" encoding="UTF-8" standalone="no"?>
<!-- Created with Inkscape (http://www.inkscape.org/) -->

<svg
   xmlns:dc="http://purl.org/dc/elements/1.1/"
   xmlns:cc="http://creativecommons.org/ns#"
   xmlns:rdf="http://www.w3.org/1999/02/22-rdf-syntax-ns#"
   xmlns:svg="http://www.w3.org/2000/svg"
   xmlns="http://www.w3.org/2000/svg"
   xmlns:xlink="http://www.w3.org/1999/xlink"
   xmlns:sodipodi="http://sodipodi.sourceforge.net/DTD/sodipodi-0.dtd"
   xmlns:inkscape="http://www.inkscape.org/namespaces/inkscape"
   width="143.10944mm"
   height="180.72058mm"
   viewBox="0 0 507.08068 640.34851"
   id="svg3705"
   version="1.1"
   inkscape:version="0.91 r13725"
   sodipodi:docname="polii_occupancy.svg"
   inkscape:export-filename="/home/matthew/Documents/papers_and_thesis/thesis_LETS_DO_THIS/chapter 5/figures/polii_occupancy.png"
   inkscape:export-xdpi="300"
   inkscape:export-ydpi="300">
  <defs
     id="defs3707"
     style="stroke-linecap:butt;stroke-linejoin:round">
    <style
       id="style4613"
       type="text/css">
*{stroke-linecap:butt;stroke-linejoin:round;}
  </style>
    <style
       id="style4839"
       type="text/css">
*{stroke-linecap:butt;stroke-linejoin:round;}
  </style>
  </defs>
  <sodipodi:namedview
     id="base"
     pagecolor="#ffffff"
     bordercolor="#666666"
     borderopacity="1.0"
     inkscape:pageopacity="0.0"
     inkscape:pageshadow="2"
     inkscape:zoom="1.1785156"
     inkscape:cx="145.05896"
     inkscape:cy="355.47198"
     inkscape:document-units="px"
     inkscape:current-layer="layer1"
     showgrid="false"
     fit-margin-top="10"
     fit-margin-left="10"
     fit-margin-right="10"
     fit-margin-bottom="10"
     inkscape:window-width="1875"
     inkscape:window-height="1056"
     inkscape:window-x="45"
     inkscape:window-y="0"
     inkscape:window-maximized="1" />
  <metadata
     id="metadata3710">
    <rdf:RDF>
      <cc:Work
         rdf:about="">
        <dc:format>image/svg+xml</dc:format>
        <dc:type
           rdf:resource="http://purl.org/dc/dcmitype/StillImage" />
        <dc:title></dc:title>
      </cc:Work>
    </rdf:RDF>
  </metadata>
  <g
     inkscape:label="Layer 1"
     inkscape:groupmode="layer"
     id="layer1"
     transform="translate(-98.843919,-9.8986705)">
    <g
       id="figure_1"
       transform="matrix(0.8613047,0,0,0.8613047,123.45288,34.38358)"
       style="stroke-linecap:butt;stroke-linejoin:round">
      <g
         id="axes_1"
         style="stroke-linecap:butt;stroke-linejoin:round">
        <g
           id="patch_2"
           style="stroke-linecap:butt;stroke-linejoin:round">
          <path
             id="path4621"
             style="fill:#ffffff;stroke-linecap:butt;stroke-linejoin:round"
             d="m 72,315 446.4,0 0,-271.8 -446.4,0 z"
             inkscape:connector-curvature="0" />
        </g>
        <g
           id="line2d_1"
           style="stroke-linecap:butt;stroke-linejoin:round">
          <path
             id="path4624"
             style="fill:none;stroke:#000000;stroke-width:0.80000001;stroke-linecap:round;stroke-linejoin:round"
             d="m 182.47273,315 0,-271.8"
             clip-path="url(#p0f7eb68201)"
             inkscape:connector-curvature="0" />
        </g>
        <g
           id="line2d_2"
           style="stroke-linecap:butt;stroke-linejoin:round">
          <path
             id="path4627"
             style="fill:none;stroke:#000000;stroke-width:0.80000001;stroke-linecap:round;stroke-linejoin:round"
             d="m 407.92727,315 0,-271.8"
             clip-path="url(#p0f7eb68201)"
             inkscape:connector-curvature="0" />
        </g>
        <g
           id="matplotlib.axis_1"
           style="stroke-linecap:butt;stroke-linejoin:round">
          <g
             id="xtick_1"
             style="stroke-linecap:butt;stroke-linejoin:round">
            <g
               id="line2d_3"
               style="stroke-linecap:butt;stroke-linejoin:round">
              <defs
                 id="defs4632">
                <path
                   style="stroke:#262626;stroke-linecap:butt;stroke-linejoin:round"
                   id="mfd3f754a0d"
                   d="M 0,0 0,2"
                   inkscape:connector-curvature="0" />
              </defs>
              <g
                 id="g4635"
                 style="stroke-linecap:butt;stroke-linejoin:round">
                <use
                   id="use4637"
                   y="315"
                   xlink:href="#mfd3f754a0d"
                   x="182.47273"
                   style="fill:#262626;stroke:#262626;stroke-linecap:butt;stroke-linejoin:round"
                   width="100%"
                   height="100%" />
              </g>
            </g>
            <g
               id="text_1"
               style="stroke-linecap:butt;stroke-linejoin:round">
              <text
                 id="text4640"
                 y="338.31561"
                 x="182.47273"
                 style="font-style:normal;font-weight:normal;font-size:20px;font-family:Arial;text-anchor:middle;fill:#262626;stroke-linecap:butt;stroke-linejoin:round">TSS</text>
            </g>
          </g>
          <g
             id="xtick_2"
             style="stroke-linecap:butt;stroke-linejoin:round">
            <g
               id="line2d_4"
               style="stroke-linecap:butt;stroke-linejoin:round">
              <g
                 id="g4644"
                 style="stroke-linecap:butt;stroke-linejoin:round">
                <use
                   id="use4646"
                   y="315"
                   xlink:href="#mfd3f754a0d"
                   x="407.92728"
                   style="fill:#262626;stroke:#262626;stroke-linecap:butt;stroke-linejoin:round"
                   width="100%"
                   height="100%" />
              </g>
            </g>
            <g
               id="text_2"
               style="stroke-linecap:butt;stroke-linejoin:round">
              <text
                 id="text4649"
                 y="338.31561"
                 x="407.92728"
                 style="font-style:normal;font-weight:normal;font-size:20px;font-family:Arial;text-anchor:middle;fill:#262626;stroke-linecap:butt;stroke-linejoin:round">TTS</text>
            </g>
          </g>
        </g>
        <g
           id="matplotlib.axis_2"
           style="stroke-linecap:butt;stroke-linejoin:round">
          <g
             id="ytick_1"
             style="stroke-linecap:butt;stroke-linejoin:round">
            <g
               id="line2d_5"
               style="stroke-linecap:butt;stroke-linejoin:round">
              <defs
                 id="defs4654">
                <path
                   style="stroke:#262626;stroke-linecap:butt;stroke-linejoin:round"
                   id="m21b2f65218"
                   d="M 0,0 -2,0"
                   inkscape:connector-curvature="0" />
              </defs>
              <g
                 id="g4657"
                 style="stroke-linecap:butt;stroke-linejoin:round">
                <use
                   id="use4659"
                   y="292.16989"
                   xlink:href="#m21b2f65218"
                   x="72"
                   style="fill:#262626;stroke:#262626;stroke-linecap:butt;stroke-linejoin:round"
                   width="100%"
                   height="100%" />
              </g>
            </g>
            <g
               id="text_3"
               style="stroke-linecap:butt;stroke-linejoin:round">
              <text
                 id="text4662"
                 y="299.3277"
                 x="63"
                 style="font-style:normal;font-weight:normal;font-size:20px;font-family:Arial;text-anchor:end;fill:#262626;stroke-linecap:butt;stroke-linejoin:round">−0.01</text>
            </g>
          </g>
          <g
             id="ytick_2"
             style="stroke-linecap:butt;stroke-linejoin:round">
            <g
               id="line2d_6"
               style="stroke-linecap:butt;stroke-linejoin:round">
              <g
                 id="g4666"
                 style="stroke-linecap:butt;stroke-linejoin:round">
                <use
                   id="use4668"
                   y="209.45332"
                   xlink:href="#m21b2f65218"
                   x="72"
                   style="fill:#262626;stroke:#262626;stroke-linecap:butt;stroke-linejoin:round"
                   width="100%"
                   height="100%" />
              </g>
            </g>
            <g
               id="text_4"
               style="stroke-linecap:butt;stroke-linejoin:round">
              <text
                 id="text4671"
                 y="216.61115"
                 x="63"
                 style="font-style:normal;font-weight:normal;font-size:20px;font-family:Arial;text-anchor:end;fill:#262626;stroke-linecap:butt;stroke-linejoin:round">0.00</text>
            </g>
          </g>
          <g
             id="ytick_3"
             style="stroke-linecap:butt;stroke-linejoin:round">
            <g
               id="line2d_7"
               style="stroke-linecap:butt;stroke-linejoin:round">
              <g
                 id="g4675"
                 style="stroke-linecap:butt;stroke-linejoin:round">
                <use
                   id="use4677"
                   y="126.73678"
                   xlink:href="#m21b2f65218"
                   x="72"
                   style="fill:#262626;stroke:#262626;stroke-linecap:butt;stroke-linejoin:round"
                   width="100%"
                   height="100%" />
              </g>
            </g>
            <g
               id="text_5"
               style="stroke-linecap:butt;stroke-linejoin:round">
              <text
                 id="text4680"
                 y="133.89459"
                 x="63"
                 style="font-style:normal;font-weight:normal;font-size:20px;font-family:Arial;text-anchor:end;fill:#262626;stroke-linecap:butt;stroke-linejoin:round">0.01</text>
            </g>
          </g>
        </g>
        <g
           id="PolyCollection_1"
           style="stroke-linecap:butt;stroke-linejoin:round">
          <defs
             id="defs4692">
            <path
               style="stroke:#0072b2;stroke-width:0.30000001;stroke-linecap:butt;stroke-linejoin:round;stroke-opacity:0.5"
               id="md51b09fbbc"
               d="m 92.290909,-182.45037 0,68.72945 2.254546,4.60712 2.254545,1.44849 2.254545,-0.48676 2.254545,1.55538 2.25455,-1.20301 2.25454,-1.97005 2.25455,0.94389 2.25454,-4.39364 2.25455,-1.15195 2.25454,-1.3748 2.25455,-0.35768 2.25455,-2.59425 2.25454,1.06197 2.25455,-2.87182 2.25454,-2.71053 2.25455,-1.22314 2.25454,3.04017 2.25455,-0.17576 2.25454,-1.48139 2.25455,-0.58788 2.25454,-1.03728 2.25455,-2.41626 2.25454,-0.69135 2.25455,-3.65402 2.25455,-1.45233 2.25454,-1.9005 2.25455,-1.19127 2.25454,-3.6712 2.25455,-0.3523 2.25454,1.17746 2.25455,1.94583 2.25454,0.53135 2.25455,-0.4988 2.25454,3.02301 2.25455,0.42366 2.25454,1.09901 2.25455,-2.59404 2.25455,-1.92323 2.25454,1.51549 2.25455,2.20145 2.25454,-2.13205 2.25455,1.37144 2.25454,2.37349 2.25455,2.11993 2.25454,2.38024 2.25455,4.36182 2.25454,2.54206 2.25455,8.33974 2.25455,2.96299 2.25454,-0.2976 2.25455,-2.57183 2.25454,0.8485 2.25455,1.10228 2.25454,-0.39633 2.25455,2.48179 2.25454,-2.21616 2.25455,0.0953 2.25454,-0.16996 2.25455,3.886 2.25455,-4.44047 2.25454,-1.48778 2.25455,-2.0759 2.25454,-3.08617 2.25455,-2.47381 2.25454,-0.0833 2.25455,2.75774 2.25454,1.35704 2.25455,-6.35257 2.25454,-0.22695 2.25455,3.5363 2.25455,0.64184 2.25454,-0.87488 2.25455,-2.41333 2.25454,-3.80572 2.25455,-1.52918 2.25454,4.64817 2.25455,1.33725 2.25455,1.24828 2.25454,-2.7187 2.25454,0.35055 2.25455,1.05697 2.25455,-0.14109 2.25454,1.29733 2.25455,2.48828 2.25454,-0.69131 2.25455,-0.90713 2.25454,0.75094 2.25455,4.70315 2.25454,-0.99872 2.25455,-1.87406 2.25454,3.57677 2.25455,3.57384 2.25455,2.93147 2.25454,2.36892 2.25455,0.36855 2.25454,-2.33654 2.25455,-2.7592 2.25454,2.26919 2.25455,0.92389 2.25454,3.24541 2.25455,3.602182 2.25454,2.39617 2.25455,1.679116 2.25455,0.299744 2.25454,-1.272818 2.25455,-0.23596 2.25454,2.228039 2.25455,-1.658434 2.25454,-1.959244 2.25455,1.991823 2.25454,-0.470248 2.25455,-2.157639 2.25455,-5.139031 2.25454,0.10037 2.25455,-1.77101 2.25454,0.0146 2.25455,0.78596 2.25454,-3.40431 2.25455,0.79896 2.25454,-3.27424 2.25455,-6.1898 2.25455,-1.01664 2.25454,-2.14222 2.25454,-4.37833 2.25455,-0.93353 2.25455,-0.80456 2.25454,-1.45256 2.25455,-2.78365 2.25454,-0.38991 2.25455,-3.47235 2.25454,-8.35787 2.25455,-5.30007 2.25455,-2.3567 2.25454,-2.18014 2.25454,0.22806 2.25455,-5.31164 2.25455,-2.82611 2.25454,-0.55369 2.25455,-6.11971 2.25454,-1.71295 2.25455,2.26795 2.25454,-2.96403 2.25455,0.98341 2.25454,0.0692 2.25455,-0.3439 2.25454,-3.38687 2.25455,-1.16246 2.25455,2.79221 2.25454,1.66078 2.25455,-0.0704 2.25454,2.82783 2.25455,4.61436 2.25454,4.51446 2.25455,1.44793 2.25454,1.00684 2.25455,5.25568 2.25454,3.75334 2.25455,1.04886 2.25455,3.82339 2.25454,1.22276 2.25455,-1.27326 2.25454,3.64697 2.25455,0.008 2.25454,6.32831 2.25455,3.01487 2.25454,4.3232 2.25455,-0.20327 2.25455,-1.59629 2.25454,-1.34145 2.25455,1.84977 2.25454,3.81801 2.25455,0.27821 2.25454,2.95636 2.25455,0.26236 2.25454,1.13028 2.25455,0.0815 2.25455,4.35223 2.25454,-0.12205 2.25454,-0.19713 2.25455,0.593 0,-67.93712 0,0 -2.25455,-0.39268 -2.25454,-0.0442 -2.25454,0.61205 -2.25455,-4.64384 -2.25455,-0.20434 -2.25454,-1.3044 -2.25455,-0.19557 -2.25454,-3.05282 -2.25455,0.0248 -2.25454,-3.51816 -2.25455,-1.61783 -2.25454,1.04247 -2.25455,1.53224 -2.25455,-0.12886 -2.25454,-4.47474 -2.25455,-2.48583 -2.25454,-6.30093 -2.25455,0.0362 -2.25454,-3.13166 -2.25455,1.48393 -2.25454,-1.25927 -2.25455,-3.65204 -2.25455,-1.69839 -2.25454,-3.70953 -2.25455,-5.26873 -2.25454,-1.53872 -2.25455,-1.76101 -2.25454,-4.80265 -2.25455,-4.57691 -2.25454,-3.17249 -2.25455,-0.35172 -2.25454,-1.43928 -2.25455,-2.78601 -2.25455,1.2947 -2.25454,3.46967 -2.25455,0.16019 -2.25454,-0.166 -2.25455,-1.04799 -2.25454,2.69234 -2.25455,-2.32165 -2.25454,1.55716 -2.25455,5.98453 -2.25454,0.44901 -2.25455,3.22405 -2.25455,5.0751 -2.25454,-0.13933 -2.25454,1.95593 -2.25455,2.58547 -2.25455,4.72257 -2.25454,8.0503 -2.25455,3.16316 -2.25454,0.31433 -2.25455,2.95185 -2.25454,0.85374 -2.25455,0.59467 -2.25455,0.67463 -2.25454,4.02795 -2.25454,1.64967 -2.25455,0.61339 -2.25455,5.77676 -2.25454,3.04166 -2.25455,-0.98985 -2.25454,3.88776 -2.25455,-0.83476 -2.25454,-0.32005 -2.25455,1.65645 -2.25454,-0.46898 -2.25455,5.02928 -2.25455,2.43656 -2.25454,0.92593 -2.25455,-1.66969 -2.25454,1.92934 -2.25455,1.48297 -2.25454,-1.90422 -2.25455,0.13289 -2.25454,0.88572 -2.25455,-0.34142 -2.25455,-1.62422 -2.25454,-2.47385 -2.25455,-3.82157 -2.25454,-2.82843 -2.25455,-0.34955 -2.25454,-3.00111 -2.25455,2.19711 -2.25454,2.49323 -2.25455,-0.15091 -2.25454,-2.10005 -2.25455,-2.57259 -2.25455,-3.68427 -2.25454,-3.71373 -2.25455,1.93402 -2.25454,0.78727 -2.25455,-4.61747 -2.25454,-0.76888 -2.25455,0.99532 -2.25454,1.29465 -2.25455,-1.96233 -2.25454,-0.77982 -2.25455,0.34625 -2.25455,-0.82505 -2.25454,-0.46651 -2.25454,2.16832 -2.25455,-0.56967 -2.25455,-0.78007 -2.25454,-4.37966 -2.25455,1.80765 -2.25454,4.09385 -2.25455,2.0372 -2.25454,1.01652 -2.25455,-0.99808 -2.25455,-3.57286 -2.25454,0.31022 -2.25455,5.86246 -2.25454,-1.14132 -2.25455,-2.83878 -2.25454,-0.094 -2.25455,2.14112 -2.25454,2.43303 -2.25455,1.8664 -2.25454,0.87263 -2.25455,4.04311 -2.25455,-3.87884 -2.25454,0.0421 -2.25455,-0.51284 -2.25454,2.17118 -2.25455,-3.38415 -2.25454,0.37431 -2.25455,-1.7354 -2.25454,-1.30019 -2.25455,2.73113 -2.25454,0.21582 -2.25455,-2.75692 -2.25455,-7.51166 -2.25454,-2.69386 -2.25455,-4.02618 -2.25454,-2.13223 -2.25455,-1.87129 -2.25454,-2.23755 -2.25455,-0.58504 -2.25454,2.89278 -2.25455,-1.80128 -2.25454,-0.80931 -2.25455,2.04726 -2.25455,2.91651 -2.25454,-0.9002 -2.25455,0.29362 -2.25454,-3.01947 -2.25455,1.34558 -2.25454,0.12666 -2.25455,-1.77621 -2.25454,-0.91825 -2.25455,0.64117 -2.25454,3.41131 -2.25455,1.31067 -2.25454,2.27341 -2.25455,1.45772 -2.25455,3.66917 -2.25454,0.79467 -2.25455,1.89239 -2.25454,0.90582 -2.25455,0.63935 -2.25454,1.23201 -2.25455,0.0715 -2.25454,-2.79486 -2.25455,0.33433 -2.25454,2.18827 -2.25455,3.1668 -2.25454,-1.15585 -2.25455,2.66522 -2.25455,0.43981 -2.25454,1.2891 -2.25455,1.12969 -2.25454,4.34847 -2.25455,-0.95997 -2.25454,1.48532 -2.25455,1.28848 -2.254545,-1.48631 -2.254545,0.82868 -2.254545,-1.15798 -2.254546,-4.47386 z"
               inkscape:connector-curvature="0" />
          </defs>
          <g
             id="g4695"
             clip-path="url(#p0f7eb68201)"
             style="stroke-linecap:butt;stroke-linejoin:round">
            <use
               id="use4697"
               y="360"
               xlink:href="#md51b09fbbc"
               x="0"
               style="fill:#0072b2;fill-opacity:0.5;stroke:#0072b2;stroke-width:0.30000001;stroke-linecap:butt;stroke-linejoin:round;stroke-opacity:0.5"
               width="100%"
               height="100%" />
          </g>
        </g>
        <g
           id="PolyCollection_2"
           style="stroke-linecap:butt;stroke-linejoin:round">
          <defs
             id="defs4700">
            <path
               style="stroke:#d55e00;stroke-width:0.30000001;stroke-linecap:butt;stroke-linejoin:round;stroke-opacity:0.5"
               id="m52eb3a39e4"
               d="m 92.290909,-154.65138 0,19.20404 2.254546,-0.69869 2.254545,0.42802 2.254545,-0.34583 2.254545,1.04992 2.25455,0.0307 2.25454,1.32347 2.25455,-0.0187 2.25454,-0.23575 2.25455,0.76599 2.25454,-0.77647 2.25455,-0.1611 2.25455,0.16794 2.25454,0.28521 2.25455,1.0196 2.25454,-0.75649 2.25455,-1.6725 2.25454,-0.29186 2.25455,1.0723 2.25454,-0.69447 2.25455,-1.18281 2.25454,-0.4911 2.25455,-1.45888 2.25454,-0.82215 2.25455,-1.02669 2.25455,-1.82885 2.25454,-1.96341 2.25455,-1.07742 2.25454,0.20461 2.25455,-0.1666 2.25454,2.88007 2.25455,2.65289 2.25454,3.55506 2.25455,4.07709 2.25454,4.0868 2.25455,3.68788 2.25454,4.53341 2.25455,4.44851 2.25455,3.44197 2.25454,5.23554 2.25455,5.15844 2.25454,5.610761 2.25455,6.253319 2.25454,5.583283 2.25455,4.388147 2.25454,5.096699 2.25455,4.666777 2.25454,4.610781 2.25455,3.164317 2.25455,3.360973 2.25454,0.75004 2.25455,0.172108 2.25454,-0.112497 2.25455,-1.842038 2.25454,-1.94363 2.25455,-1.689217 2.25454,-1.932568 2.25455,-0.782184 2.25454,-2.145596 2.25455,-2.830728 2.25455,-1.341518 2.25454,-1.905365 2.25455,-2.846984 2.25454,-2.968356 2.25455,-1.613233 2.25454,-2.35981 2.25455,-2.096788 2.25454,-2.308694 2.25455,-2.606865 2.25454,-2.785118 2.25455,-3.195414 2.25455,-1.911756 2.25454,-2.678536 2.25455,-2.39387 2.25454,-1.48818 2.25455,-0.87145 2.25454,-1.67999 2.25455,-2.64634 2.25455,-2.68278 2.25454,-1.54086 2.25454,-2.57326 2.25455,-1.60256 2.25455,-0.64595 2.25454,-1.29835 2.25455,-2.04934 2.25454,-0.47619 2.25455,-1.12464 2.25454,-0.73592 2.25455,-0.87121 2.25454,-0.58611 2.25455,-0.0774 2.25454,-0.17334 2.25455,-0.4014 2.25455,0.0555 2.25454,-1.00994 2.25455,-1.42046 2.25454,-0.38151 2.25455,-0.13408 2.25454,-0.13452 2.25455,-1.08797 2.25454,-0.96695 2.25455,-2.78783 2.25454,-2.21325 2.25455,-0.70669 2.25455,-0.98685 2.25454,-2.02326 2.25455,-1.57727 2.25454,-2.73326 2.25455,-2.26025 2.25454,-2.92453 2.25455,-2.34764 2.25454,-2.96232 2.25455,-3.02577 2.25455,-2.87907 2.25454,-3.15184 2.25455,-3.59751 2.25454,-4.23172 2.25455,-3.91714 2.25454,-3.65624 2.25455,-4.04087 2.25454,-4.2036 2.25455,-3.06739 2.25455,-3.75589 2.25454,-6.24938 2.25454,-6.41339 2.25455,-6.16886 2.25455,-7.8403 2.25454,-6.8675 2.25455,-6.2289 2.25454,-6.71977 2.25455,-8.12285 2.25454,-6.51055 2.25455,-5.21501 2.25455,-5.82748 2.25454,-5.48692 2.25454,-4.15744 2.25455,-2.35487 2.25455,-2.69858 2.25454,-1.11227 2.25455,-0.81036 2.25454,1.72242 2.25455,1.00858 2.25454,2.08178 2.25455,4.22137 2.25454,4.25794 2.25455,4.94933 2.25454,7.83028 2.25455,7.34413 2.25455,7.48899 2.25454,8.26374 2.25455,8.99076 2.25454,8.03553 2.25455,6.88868 2.25454,7.32553 2.25455,6.99294 2.25454,6.40007 2.25455,6.05652 2.25454,5.90151 2.25455,4.43135 2.25455,4.97647 2.25454,2.90645 2.25455,2.81261 2.25454,3.22167 2.25455,1.37167 2.25454,2.22881 2.25455,1.68095 2.25454,0.78631 2.25455,0.56389 2.25455,-0.95445 2.25454,-0.0549 2.25455,1.67971 2.25454,0.19142 2.25455,0.55474 2.25454,0.87098 2.25455,1.33492 2.25454,1.76975 2.25455,0.5538 2.25455,0.73509 2.25454,1.23061 2.25454,0.31502 2.25455,0.008 0,-19.43977 0,0 -2.25455,-0.0579 -2.25454,-0.25777 -2.25454,-1.19809 -2.25455,-0.73153 -2.25455,-0.63763 -2.25454,-1.81711 -2.25455,-1.36835 -2.25454,-0.9372 -2.25455,-0.52483 -2.25454,-0.16056 -2.25455,-1.74651 -2.25454,-0.009 -2.25455,0.99059 -2.25455,-0.55988 -2.25454,-0.76875 -2.25455,-1.64692 -2.25454,-2.19128 -2.25455,-1.34421 -2.25454,-3.25192 -2.25455,-2.7212 -2.25454,-2.85536 -2.25455,-4.98279 -2.25455,-4.46662 -2.25454,-5.96558 -2.25455,-6.04025 -2.25454,-6.33199 -2.25455,-6.95816 -2.25454,-7.36074 -2.25455,-6.93984 -2.25454,-8.09518 -2.25455,-9.0248 -2.25454,-8.29955 -2.25455,-7.56085 -2.25455,-7.41825 -2.25454,-7.89162 -2.25455,-5.099 -2.25454,-4.3259 -2.25455,-4.2867 -2.25454,-2.10322 -2.25455,-1.14639 -2.25454,-1.80267 -2.25455,0.72914 -2.25454,1.15841 -2.25455,2.77655 -2.25455,2.36314 -2.25454,4.14641 -2.25454,5.49275 -2.25455,5.94235 -2.25455,5.25052 -2.25454,6.49975 -2.25455,8.23183 -2.25454,6.84107 -2.25455,6.28392 -2.25454,6.96621 -2.25455,7.9578 -2.25455,6.25636 -2.25454,6.44744 -2.25454,6.25056 -2.25455,3.78926 -2.25455,3.11456 -2.25454,4.31749 -2.25455,4.11853 -2.25454,3.62101 -2.25455,3.90386 -2.25454,4.33606 -2.25455,3.59769 -2.25454,3.14983 -2.25455,2.8549 -2.25455,2.98709 -2.25454,2.98385 -2.25455,2.32392 -2.25454,2.89388 -2.25455,2.27434 -2.25454,2.69487 -2.25455,1.53787 -2.25454,1.99235 -2.25455,1.02633 -2.25455,0.70784 -2.25454,2.19095 -2.25455,2.81238 -2.25454,0.97741 -2.25455,1.01449 -2.25454,0.12333 -2.25455,0.15383 -2.25454,0.33942 -2.25455,1.45479 -2.25454,1.01897 -2.25455,-0.041 -2.25455,0.40298 -2.25454,0.1875 -2.25455,0.11861 -2.25454,0.57461 -2.25455,0.83375 -2.25454,0.76736 -2.25455,1.12787 -2.25454,0.54506 -2.25455,2.02035 -2.25454,1.26558 -2.25455,0.68035 -2.25455,1.57433 -2.25454,2.57444 -2.25454,1.57767 -2.25455,2.65882 -2.25455,2.58094 -2.25454,1.6623 -2.25455,0.90353 -2.25454,1.54632 -2.25455,2.37589 -2.25454,2.66672 -2.25455,1.8952 -2.25455,3.2043 -2.25454,2.82088 -2.25455,2.55986 -2.25454,2.30146 -2.25455,2.04773 -2.25454,2.33496 -2.25455,1.575434 -2.25454,3.004364 -2.25455,2.748195 -2.25454,1.967196 -2.25455,1.267485 -2.25455,2.743232 -2.25454,2.167385 -2.25455,0.761672 -2.25454,1.896766 -2.25455,1.571137 -2.25454,1.772146 -2.25455,1.681685 -2.25454,0.02349 -2.25455,-0.208231 -2.25454,-0.791738 -2.25455,-3.36603 -2.25455,-3.131942 -2.25454,-4.585075 -2.25455,-4.618903 -2.25454,-5.055785 -2.25455,-4.306753 -2.25454,-5.55949 -2.25455,-6.17008 -2.25454,-5.60439 -2.25455,-5.06506 -2.25454,-5.10557 -2.25455,-3.40472 -2.25455,-4.37128 -2.25454,-4.43729 -2.25455,-3.6097 -2.25454,-3.95333 -2.25455,-3.8607 -2.25454,-3.43629 -2.25455,-2.57584 -2.25454,-2.84484 -2.25455,0.14328 -2.25454,-0.17811 -2.25455,1.11839 -2.25454,2.00752 -2.25455,1.80975 -2.25455,0.99402 -2.25454,0.76191 -2.25455,1.45823 -2.25454,0.42982 -2.25455,1.09138 -2.25454,0.71105 -2.25455,-1.09376 -2.25454,0.35471 -2.25455,1.63018 -2.25454,0.72412 -2.25455,-1.02658 -2.25454,-0.34638 -2.25455,-0.10799 -2.25455,0.0973 -2.25454,0.70135 -2.25455,-0.75522 -2.25454,0.19721 -2.25455,-0.0506 -2.25454,-1.31771 -2.25455,-0.0961 -2.254545,-1.00646 -2.254545,0.40667 -2.254545,-0.41003 -2.254546,0.75523 z"
               inkscape:connector-curvature="0" />
          </defs>
          <g
             id="g4703"
             clip-path="url(#p0f7eb68201)"
             style="stroke-linecap:butt;stroke-linejoin:round">
            <use
               id="use4705"
               y="360"
               xlink:href="#m52eb3a39e4"
               x="0"
               style="fill:#d55e00;fill-opacity:0.5;stroke:#d55e00;stroke-width:0.30000001;stroke-linecap:butt;stroke-linejoin:round;stroke-opacity:0.5"
               width="100%"
               height="100%" />
          </g>
        </g>
        <g
           id="line2d_9"
           style="stroke-linecap:butt;stroke-linejoin:round">
          <path
             id="path4708"
             style="fill:none;stroke:#0072b2;stroke-width:1.75;stroke-linecap:round;stroke-linejoin:round"
             d="m 92.290909,212.04849 2.254546,4.46996 2.254545,1.32806 2.254545,-0.6395 2.254545,1.55894 2.25455,-1.21964 2.25454,-1.77947 2.25455,0.90298 2.25454,-4.37307 2.25455,-1.1451 2.25454,-1.31674 2.25455,-0.40991 2.25455,-2.69457 2.25454,1.12611 2.25455,-3.03875 2.25454,-2.41956 2.25455,-0.71736 2.25454,2.9231 2.25455,-0.17315 2.25454,-1.38497 2.25455,-0.60348 2.25454,-0.93334 2.25455,-2.17664 2.25454,-0.71185 2.25455,-3.6577 2.25455,-1.38738 2.25454,-2.05339 2.25455,-1.22929 2.25454,-3.49379 2.25455,-0.46485 2.25454,1.00642 2.25455,1.88411 2.25454,0.1993 2.25455,-0.93473 2.25454,2.97526 2.25455,0.0203 2.25454,0.9561 2.25455,-2.74839 2.25455,-1.93585 2.25454,1.1342 2.25455,1.99913 2.25454,-2.50095 2.25455,0.97337 2.25454,2.26019 2.25455,1.96366 2.25454,2.18461 2.25455,4.18567 2.25454,2.59732 2.25455,7.92598 2.25455,2.83783 2.25454,-0.25929 2.25455,-2.63413 2.25454,1.09256 2.25455,1.47038 2.25454,-0.34656 2.25455,2.93711 2.25454,-2.18369 2.25455,0.26558 2.25454,-0.0761 2.25455,3.85811 2.25455,-4.23129 2.25454,-1.17607 2.25455,-2.02128 2.25454,-2.77337 2.25455,-2.32389 2.25454,0.0292 2.25455,2.72883 2.25454,1.18835 2.25455,-6.0992 2.25454,-0.23303 2.25455,3.54234 2.25455,0.71646 2.25454,-0.97863 2.25455,-2.23332 2.25454,-3.97677 2.25455,-1.63124 2.25454,4.46101 2.25455,1.1413 2.25455,0.85666 2.25454,-2.37597 2.25454,0.38895 2.25455,0.91915 2.25455,-0.21424 2.25454,1.05015 2.25455,2.27522 2.25454,-1.06456 2.25455,-0.85568 2.25454,0.80119 2.25455,4.65614 2.25454,-0.85238 2.25455,-1.8766 4.50909,7.40583 2.25455,2.71521 2.25454,2.26191 2.25455,0.22764 2.25454,-2.34688 2.25455,-2.55183 2.25454,2.68919 2.25455,0.58358 2.25454,3.09614 2.25455,3.73932 2.25454,2.37532 2.25455,1.64791 2.25455,0.34759 2.25454,-0.99657 2.25455,-0.1909 2.25454,2.09135 2.25455,-1.58535 2.25454,-1.97753 2.25455,1.80874 2.25454,-0.68777 2.25455,-2.37686 2.25455,-5.09555 2.25454,0.26198 2.25455,-1.67163 2.25454,0.13692 2.25455,0.84032 2.25454,-3.68502 2.25455,0.93855 2.25454,-3.25604 2.25455,-6.02466 2.25455,-0.7367 2.25454,-1.86003 2.25454,-4.20874 4.5091,-1.49058 2.25454,-1.1134 2.25455,-2.83239 2.25454,-0.35271 2.25455,-3.33663 2.25454,-8.13083 2.25455,-4.94174 2.25455,-2.41768 2.25454,-2.06272 2.25454,0.15299 2.25455,-5.2176 2.25455,-3.03842 2.25454,-0.47786 2.25455,-6.07584 2.25454,-1.57705 2.25455,2.3048 2.25454,-2.82382 2.25455,1.0357 2.25454,0.0704 2.25455,-0.31973 2.25454,-3.40366 2.25455,-1.30531 2.25455,2.79019 2.25454,1.5262 2.25455,0.17079 2.25454,2.9435 4.50909,9.08085 2.25455,1.61065 2.25454,1.29247 2.25455,5.32157 2.25454,3.64788 2.25455,1.34731 2.25455,3.70834 2.25454,1.30264 2.25455,-1.3883 2.25454,3.42435 2.25455,-0.0746 2.25454,6.37728 2.25455,2.75446 2.25454,4.38506 2.25455,-0.0149 2.25455,-1.59806 2.25454,-1.1752 2.25455,1.72144 2.25454,3.59087 2.25455,0.11726 2.25454,2.99442 2.25455,0.21771 2.25454,1.18435 2.25455,0.12583 2.25455,4.53209 2.25454,-0.39846 2.25454,-0.0604 2.25455,0.44212 0,0"
             clip-path="url(#p0f7eb68201)"
             inkscape:connector-curvature="0" />
        </g>
        <g
           id="line2d_10"
           style="stroke-linecap:butt;stroke-linejoin:round">
          <path
             id="path4711"
             style="fill:none;stroke:#d55e00;stroke-width:1.75;stroke-linecap:round;stroke-linejoin:round"
             d="m 92.290909,214.92355 2.254546,-0.71778 2.254545,0.4237 2.254545,-0.36706 2.254545,1.01527 2.25455,0.0555 2.25454,1.3356 2.25455,0.0247 2.25454,-0.21599 2.25455,0.77374 2.25454,-0.71603 2.25455,-0.13849 2.25455,0.13651 2.25454,0.30702 2.25455,1.01698 2.25454,-0.74607 2.25455,-1.64161 2.25454,-0.31159 2.25455,1.07638 2.25454,-0.70582 2.25455,-1.14019 2.25454,-0.44983 2.25455,-1.48917 2.25454,-0.82186 2.25455,-0.99659 2.25455,-1.82067 2.25454,-1.97853 2.25455,-1.10126 2.25454,0.19246 2.25455,-0.16499 2.25454,2.845 2.25455,2.62141 2.25454,3.48256 4.50909,7.99213 2.25455,3.65971 4.50909,8.89755 2.25455,3.42301 4.50909,10.30583 2.25454,5.59068 2.25455,6.24478 2.25454,5.57946 2.25455,4.34719 2.25454,5.08106 4.50909,9.23964 2.25455,3.15985 2.25455,3.37642 2.25454,0.76425 2.25455,0.19357 2.25454,-0.0717 9.01818,-7.19585 2.25455,-0.76563 2.25454,-2.12736 2.25455,-2.80255 2.25455,-1.26872 2.25454,-1.92825 2.25455,-2.7958 2.25454,-2.97643 2.25455,-1.60678 2.25454,-2.34183 2.25455,-2.07411 2.25454,-2.2945 2.25455,-2.6167 2.25454,-2.83232 2.25455,-3.1879 2.25455,-1.89952 2.25454,-2.65811 2.25455,-2.38768 2.25454,-1.51193 2.25455,-0.8763 2.25454,-1.65585 4.5091,-5.30536 2.25454,-1.55928 2.25454,-2.61107 2.25455,-1.60204 2.25455,-0.66746 2.25454,-1.28704 2.25455,-2.0188 2.25454,-0.49225 2.25455,-1.13411 4.50909,-1.56109 2.25454,-0.56373 4.50909,-0.28954 2.25455,-0.40858 2.25455,0.0376 2.25454,-1.0149 2.25455,-1.44232 2.25454,-0.36907 4.50909,-0.26404 4.50909,-2.00954 2.25455,-2.80065 2.25454,-2.20439 2.25455,-0.7088 2.25455,-1.0138 2.25454,-2.02956 2.25455,-1.57367 2.25454,-2.72894 2.25455,-2.28683 2.25454,-2.92387 2.25455,-2.33845 9.01818,-11.93196 2.25455,-3.60682 2.25454,-4.26491 2.25455,-3.91126 2.25454,-3.66043 4.50909,-8.35984 2.25455,-3.08054 2.25455,-3.75705 6.76363,-18.91214 2.25455,-7.87107 2.25454,-6.9062 2.25455,-6.25976 2.25454,-6.75972 2.25455,-8.16954 2.25454,-6.522288 2.25455,-5.238108 2.25455,-5.900405 2.25454,-5.502945 2.25454,-4.134559 2.25455,-2.374578 2.25455,-2.744053 2.25454,-1.136989 2.25455,-0.768383 2.25454,1.763752 2.25455,1.058201 2.25454,2.077461 4.50909,8.582868 2.25455,5.030278 2.25454,7.847571 4.5091,14.916667 2.25454,8.27963 2.25455,9.02145 2.25454,8.07454 2.25455,6.91124 4.50909,14.29956 4.50909,12.40558 2.25454,5.94908 2.25455,4.44394 2.25455,4.9909 4.50909,5.6677 2.25454,3.24167 2.25455,1.35691 2.25454,2.23241 2.25455,1.66522 2.25454,0.78695 2.25455,0.55658 2.25455,-0.96806 2.25454,-0.0181 2.25455,1.70204 2.25454,0.18195 2.25455,0.53819 2.25454,0.90154 2.25455,1.33007 2.25454,1.78052 2.25455,0.6038 2.25455,0.73361 2.25454,1.22748 2.25454,0.28452 2.25455,0.0165 0,0"
             clip-path="url(#p0f7eb68201)"
             inkscape:connector-curvature="0" />
        </g>
        <g
           id="patch_3"
           style="stroke-linecap:butt;stroke-linejoin:round">
          <path
             id="path4714"
             style="fill:none;stroke:#262626;stroke-width:1.25;stroke-linecap:square;stroke-linejoin:miter"
             d="M 72,315 72,43.2"
             inkscape:connector-curvature="0" />
        </g>
        <g
           id="patch_4"
           style="stroke-linecap:butt;stroke-linejoin:round">
          <path
             id="path4717"
             style="fill:none;stroke:#262626;stroke-width:1.25;stroke-linecap:square;stroke-linejoin:miter"
             d="m 518.4,315 0,-271.8"
             inkscape:connector-curvature="0" />
        </g>
        <g
           id="patch_5"
           style="stroke-linecap:butt;stroke-linejoin:round">
          <path
             id="path4720"
             style="fill:none;stroke:#262626;stroke-width:1.25;stroke-linecap:square;stroke-linejoin:miter"
             d="m 72,315 446.4,0"
             inkscape:connector-curvature="0" />
        </g>
        <g
           id="patch_6"
           style="stroke-linecap:butt;stroke-linejoin:round">
          <path
             id="path4723"
             style="fill:none;stroke:#262626;stroke-width:1.25;stroke-linecap:square;stroke-linejoin:miter"
             d="m 72,43.2 446.4,0"
             inkscape:connector-curvature="0" />
        </g>
        <g
           id="legend_1"
           style="stroke-linecap:butt;stroke-linejoin:round">
          <g
             id="line2d_11"
             style="stroke-linecap:butt;stroke-linejoin:round">
            <path
               id="path4727"
               style="fill:none;stroke:#0072b2;stroke-width:1.75;stroke-linecap:round;stroke-linejoin:round"
               d="m 205.49531,68.759375 40,0"
               inkscape:connector-curvature="0" />
          </g>
          <g
             id="line2d_12"
             style="stroke-linecap:butt;stroke-linejoin:round" />
          <g
             id="text_7"
             style="stroke-linecap:butt;stroke-linejoin:round">
            <text
               id="text4731"
               y="75.759377"
               x="261.4953"
               style="font-style:normal;font-weight:normal;font-size:20px;font-family:Arial;text-anchor:start;fill:#262626;stroke-linecap:butt;stroke-linejoin:round">G4 containing</text>
          </g>
          <g
             id="line2d_13"
             style="stroke-linecap:butt;stroke-linejoin:round">
            <path
               id="path4734"
               style="fill:none;stroke:#d55e00;stroke-width:1.75;stroke-linecap:round;stroke-linejoin:round"
               d="m 205.49531,97.284375 40,0"
               inkscape:connector-curvature="0" />
          </g>
          <g
             id="line2d_14"
             style="stroke-linecap:butt;stroke-linejoin:round" />
          <g
             id="text_8"
             style="stroke-linecap:butt;stroke-linejoin:round">
            <text
               id="text4738"
               y="104.28438"
               x="261.4953"
               style="font-style:normal;font-weight:normal;font-size:20px;font-family:Arial;text-anchor:start;fill:#262626;stroke-linecap:butt;stroke-linejoin:round">non-G4</text>
          </g>
        </g>
      </g>
    </g>
    <g
       id="figure_1-3"
       transform="matrix(0.8613047,0,0,0.8613047,122.65947,323.211)"
       style="stroke-linecap:butt;stroke-linejoin:round">
      <g
         id="axes_1-7"
         style="stroke-linecap:butt;stroke-linejoin:round">
        <g
           id="patch_2-5"
           style="stroke-linecap:butt;stroke-linejoin:round">
          <path
             id="path4847"
             style="fill:#ffffff;stroke-linecap:butt;stroke-linejoin:round"
             d="m 72,315 446.4,0 0,-271.8 -446.4,0 z"
             inkscape:connector-curvature="0" />
        </g>
        <g
           id="line2d_1-3"
           style="stroke-linecap:butt;stroke-linejoin:round">
          <path
             id="path4850"
             style="fill:none;stroke:#000000;stroke-width:0.80000001;stroke-linecap:round;stroke-linejoin:round"
             d="m 182.47273,315 0,-271.8"
             clip-path="url(#p0797a90038)"
             inkscape:connector-curvature="0" />
        </g>
        <g
           id="line2d_2-5"
           style="stroke-linecap:butt;stroke-linejoin:round">
          <path
             id="path4853"
             style="fill:none;stroke:#000000;stroke-width:0.80000001;stroke-linecap:round;stroke-linejoin:round"
             d="m 407.92727,315 0,-271.8"
             clip-path="url(#p0797a90038)"
             inkscape:connector-curvature="0" />
        </g>
        <g
           id="matplotlib.axis_1-6"
           style="stroke-linecap:butt;stroke-linejoin:round">
          <g
             id="xtick_1-2"
             style="stroke-linecap:butt;stroke-linejoin:round">
            <g
               id="line2d_3-9"
               style="stroke-linecap:butt;stroke-linejoin:round">
              <defs
                 id="defs4858">
                <path
                   style="stroke:#262626;stroke-linecap:butt;stroke-linejoin:round"
                   id="m63fadf5998"
                   d="M 0,0 0,2"
                   inkscape:connector-curvature="0" />
              </defs>
              <g
                 id="g4861"
                 style="stroke-linecap:butt;stroke-linejoin:round">
                <use
                   id="use4863"
                   y="315"
                   xlink:href="#m63fadf5998"
                   x="182.47273"
                   style="fill:#262626;stroke:#262626;stroke-linecap:butt;stroke-linejoin:round"
                   width="100%"
                   height="100%" />
              </g>
            </g>
            <g
               id="text_1-1"
               style="stroke-linecap:butt;stroke-linejoin:round">
              <text
                 id="text4866"
                 y="338.31561"
                 x="182.47273"
                 style="font-style:normal;font-weight:normal;font-size:20px;font-family:Arial;text-anchor:middle;fill:#262626;stroke-linecap:butt;stroke-linejoin:round">TSS</text>
            </g>
          </g>
          <g
             id="xtick_2-2"
             style="stroke-linecap:butt;stroke-linejoin:round">
            <g
               id="line2d_4-7"
               style="stroke-linecap:butt;stroke-linejoin:round">
              <g
                 id="g4870"
                 style="stroke-linecap:butt;stroke-linejoin:round">
                <use
                   id="use4872"
                   y="315"
                   xlink:href="#m63fadf5998"
                   x="407.92728"
                   style="fill:#262626;stroke:#262626;stroke-linecap:butt;stroke-linejoin:round"
                   width="100%"
                   height="100%" />
              </g>
            </g>
            <g
               id="text_2-0"
               style="stroke-linecap:butt;stroke-linejoin:round">
              <text
                 id="text4875"
                 y="338.31561"
                 x="407.92728"
                 style="font-style:normal;font-weight:normal;font-size:20px;font-family:Arial;text-anchor:middle;fill:#262626;stroke-linecap:butt;stroke-linejoin:round">TTS</text>
            </g>
          </g>
        </g>
        <g
           id="matplotlib.axis_2-9"
           style="stroke-linecap:butt;stroke-linejoin:round">
          <g
             id="ytick_1-3"
             style="stroke-linecap:butt;stroke-linejoin:round">
            <g
               id="line2d_5-6"
               style="stroke-linecap:butt;stroke-linejoin:round">
              <defs
                 id="defs4880">
                <path
                   style="stroke:#262626;stroke-linecap:butt;stroke-linejoin:round"
                   id="m043bb4c98b"
                   d="M 0,0 -2,0"
                   inkscape:connector-curvature="0" />
              </defs>
              <g
                 id="g4883"
                 style="stroke-linecap:butt;stroke-linejoin:round">
                <use
                   id="use4885"
                   y="291.24136"
                   xlink:href="#m043bb4c98b"
                   x="72"
                   style="fill:#262626;stroke:#262626;stroke-linecap:butt;stroke-linejoin:round"
                   width="100%"
                   height="100%" />
              </g>
            </g>
            <g
               id="text_3-0"
               style="stroke-linecap:butt;stroke-linejoin:round">
              <text
                 id="text4888"
                 y="298.3992"
                 x="63"
                 style="font-style:normal;font-weight:normal;font-size:20px;font-family:Arial;text-anchor:end;fill:#262626;stroke-linecap:butt;stroke-linejoin:round">−0.01</text>
            </g>
          </g>
          <g
             id="ytick_2-6"
             style="stroke-linecap:butt;stroke-linejoin:round">
            <g
               id="line2d_6-2"
               style="stroke-linecap:butt;stroke-linejoin:round">
              <g
                 id="g4892"
                 style="stroke-linecap:butt;stroke-linejoin:round">
                <use
                   id="use4894"
                   y="204.78586"
                   xlink:href="#m043bb4c98b"
                   x="72"
                   style="fill:#262626;stroke:#262626;stroke-linecap:butt;stroke-linejoin:round"
                   width="100%"
                   height="100%" />
              </g>
            </g>
            <g
               id="text_4-6"
               style="stroke-linecap:butt;stroke-linejoin:round">
              <text
                 id="text4897"
                 y="211.94368"
                 x="63"
                 style="font-style:normal;font-weight:normal;font-size:20px;font-family:Arial;text-anchor:end;fill:#262626;stroke-linecap:butt;stroke-linejoin:round">0.00</text>
            </g>
          </g>
          <g
             id="ytick_3-1"
             style="stroke-linecap:butt;stroke-linejoin:round">
            <g
               id="line2d_7-8"
               style="stroke-linecap:butt;stroke-linejoin:round">
              <g
                 id="g4901"
                 style="stroke-linecap:butt;stroke-linejoin:round">
                <use
                   id="use4903"
                   y="118.33035"
                   xlink:href="#m043bb4c98b"
                   x="72"
                   style="fill:#262626;stroke:#262626;stroke-linecap:butt;stroke-linejoin:round"
                   width="100%"
                   height="100%" />
              </g>
            </g>
            <g
               id="text_5-7"
               style="stroke-linecap:butt;stroke-linejoin:round">
              <text
                 id="text4906"
                 y="125.48817"
                 x="63"
                 style="font-style:normal;font-weight:normal;font-size:20px;font-family:Arial;text-anchor:end;fill:#262626;stroke-linecap:butt;stroke-linejoin:round">0.01</text>
            </g>
          </g>
        </g>
        <g
           id="PolyCollection_1-9"
           style="stroke-linecap:butt;stroke-linejoin:round">
          <defs
             id="defs4909">
            <path
               style="stroke:#0072b2;stroke-width:0.30000001;stroke-linecap:butt;stroke-linejoin:round;stroke-opacity:0.5"
               id="m7cfbd56959"
               d="m 92.290909,-188.56119 0,60.55689 2.254546,-0.44454 2.254545,-2.68556 2.254545,-0.76844 2.254545,-1.75526 2.25455,-3.27146 2.25454,-0.92509 2.25455,1.2494 2.25454,-2.52543 2.25455,0.87606 2.25454,-1.57034 2.25455,1.05815 2.25455,-0.41153 2.25454,-2.50947 2.25455,0.6606 2.25454,0.0897 2.25455,-1.10817 2.25454,2.13482 2.25455,1.98694 2.25454,-1.92454 2.25455,3.97808 2.25454,2.68724 2.25455,0.87704 2.25454,-0.0324 2.25455,4.11036 2.25455,0.97895 2.25454,-6.58081 2.25455,-4.4479 2.25454,-6.05029 2.25455,-4.05972 2.25454,5.2885 2.25455,0.66496 2.25454,-1.53301 2.25455,2.75283 2.25454,-1.53604 2.25455,-0.79003 2.25454,1.13215 2.25455,-1.00641 2.25455,-1.69655 2.25454,1.62454 2.25455,-0.86465 2.25454,-2.31743 2.25455,-0.63363 2.25454,3.00716 2.25455,-1.56782 2.25454,1.75555 2.25455,8.77161 2.25454,6.27763 2.25455,9.56678 2.25455,7.59394 2.25454,-3.423 2.25455,-3.68476 2.25454,1.89739 2.25455,3.17569 2.25454,5.64853 2.25455,2.67293 2.25454,2.17264 2.25455,1.22498 2.25454,0.0672 2.25455,1.81558 2.25455,-2.00848 2.25454,-0.54487 2.25455,2.66786 2.25454,-2.09426 2.25455,-0.31172 2.25454,1.13013 2.25455,-0.0118 2.25454,-0.78646 2.25455,-2.98028 2.25454,-1.51224 2.25455,2.80305 2.25455,2.05321 2.25454,-0.0698 2.25455,-0.51095 2.25454,-1.38323 2.25455,-0.66474 2.25454,-0.45594 2.25455,1.87977 2.25455,2.19897 2.25454,-2.40955 2.25454,-0.0435 2.25455,1.85781 2.25455,-1.27858 2.25454,1.26644 2.25455,0.47982 2.25454,1.32063 2.25455,1.679707 2.25454,1.432654 2.25455,-0.499774 2.25454,-2.525803 2.25455,0.125257 2.25454,3.956835 2.25455,2.003547 2.25455,-1.704716 2.25454,-1.075516 2.25455,0.210996 2.25454,-0.719358 2.25455,-6.649479 2.25454,-0.97101 2.25455,0.4521 2.25454,2.51559 2.25455,-0.0466 2.25454,-1.75861 2.25455,-4.99301 2.25455,-0.60056 2.25454,-2.36031 2.25455,-1.47935 2.25454,-1.48514 2.25455,-1.27173 2.25454,0.8582 2.25455,-2.87527 2.25454,-5.41681 2.25455,-3.85655 2.25455,-5.43001 2.25454,-3.15278 2.25455,-3.45444 2.25454,-4.36767 2.25455,-0.90814 2.25454,-2.58008 2.25455,0.88252 2.25454,-4.01286 2.25455,-5.43161 2.25455,-0.15757 2.25454,0.69576 2.25454,-4.88385 2.25455,-3.91549 2.25455,-5.31395 2.25454,-5.14575 2.25455,-4.14362 2.25454,-4.46979 2.25455,-4.95903 2.25454,-2.91124 2.25455,-4.09205 2.25455,-3.15527 2.25454,-2.13447 2.25454,-1.05308 2.25455,-1.13567 2.25455,0.29388 2.25454,1.62962 2.25455,-2.06184 2.25454,1.77086 2.25455,2.08127 2.25454,-1.47693 2.25455,2.63454 2.25454,2.94236 2.25455,2.8693 2.25454,1.9564 2.25455,1.87507 2.25455,2.29265 2.25454,2.23147 2.25455,6.31963 2.25454,2.84701 2.25455,5.02946 2.25454,3.49525 2.25455,2.07238 2.25454,4.64242 2.25455,2.21462 2.25454,3.92056 2.25455,2.71577 2.25455,-0.48726 2.25454,-0.0141 2.25455,0.54861 2.25454,3.0916 2.25455,0.64407 2.25454,3.08806 2.25455,1.40372 2.25454,1.89541 2.25455,-0.0193 2.25455,2.58284 2.25454,0.44576 2.25455,0.80728 2.25454,2.05363 2.25455,1.51231 2.25454,5.0073 2.25455,2.67068 2.25454,1.25152 2.25455,1.08256 2.25455,1.61424 2.25454,-1.54723 2.25454,1.03178 2.25455,0.98238 0,-58.8957 0,0 -2.25455,-1.11884 -2.25454,-1.26097 -2.25454,1.43906 -2.25455,-1.68547 -2.25455,-1.02668 -2.25454,-1.39081 -2.25455,-2.71536 -2.25454,-4.90487 -2.25455,-1.63957 -2.25454,-2.114 -2.25455,-1.03159 -2.25454,-0.51038 -2.25455,-2.45025 -2.25455,-0.0867 -2.25454,-1.797 -2.25455,-1.45316 -2.25454,-3.0775 -2.25455,-0.67191 -2.25454,-3.10275 -2.25455,-0.47839 -2.25454,0.10093 -2.25455,0.41684 -2.25455,-2.52509 -2.25454,-3.82898 -2.25455,-2.48156 -2.25454,-4.65343 -2.25455,-2.45606 -2.25454,-3.78436 -2.25455,-5.30868 -2.25454,-2.86422 -2.25455,-5.96362 -2.25454,-2.1496 -2.25455,-2.29936 -2.25455,-1.86478 -2.25454,-2.27532 -2.25455,-2.88983 -2.25454,-3.06382 -2.25455,-2.63822 -2.25454,1.27681 -2.25455,-2.26357 -2.25454,-2.1126 -2.25455,1.9392 -2.25454,-1.94639 -2.25455,-0.60253 -2.25455,1.33269 -2.25454,1.04259 -2.25454,2.21072 -2.25455,3.1775 -2.25455,3.97042 -2.25454,2.60659 -2.25455,4.4363 -2.25454,3.8111 -2.25455,3.85286 -2.25454,4.87643 -2.25455,5.57405 -2.25455,3.75894 -2.25454,4.49692 -2.25454,-1.10635 -2.25455,-0.0795 -2.25455,5.16838 -2.25454,3.75712 -2.25455,-0.95545 -2.25454,2.9013 -2.25455,1.03117 -2.25454,4.18185 -2.25455,3.57297 -2.25454,3.08147 -2.25455,5.34244 -2.25455,3.45222 -2.25454,5.37977 -2.25455,2.98552 -2.25454,-0.59768 -2.25455,1.66286 -2.25454,1.59477 -2.25455,1.26763 -2.25454,2.40178 -2.25455,1.06362 -2.25455,5.43816 -2.25454,1.73496 -2.25455,0.31229 -2.25454,-1.99987 -2.25455,-0.41702 -2.25454,0.74013 -2.25455,6.44621 -2.25454,0.5962 -2.25455,-0.45872 -2.25454,1.14019 -2.25455,1.95911 -2.25455,-1.42158 -2.25454,-4.06488 -2.25455,-0.2943 -2.25454,2.88445 -2.25455,0.19155 -2.25454,-1.53654 -2.25455,-1.52363 -2.25454,-1.00754 -2.25455,-0.2361 -2.25454,-1.09373 -2.25455,1.44083 -2.25455,-2.01488 -2.25454,-0.33035 -2.25454,2.31797 -2.25455,-2.07511 -2.25455,-1.66868 -2.25454,0.2579 -2.25455,0.64786 -2.25454,1.26861 -2.25455,0.17938 -2.25454,0.042 -2.25455,-1.81009 -2.25455,-2.25978 -2.25454,1.36363 -2.25455,3.07932 -2.25454,0.48951 -2.25455,-0.216 -2.25454,-1.4801 -2.25455,-0.40839 -2.25454,1.58219 -2.25455,-2.62928 -2.25454,0.47792 -2.25455,2.0695 -2.25455,-1.9029 -2.25454,-0.33138 -2.25455,-1.49601 -2.25454,-2.13901 -2.25455,-2.67946 -2.25454,-5.54307 -2.25455,-3.70534 -2.25454,-2.21674 -2.25455,3.24077 -2.25454,2.98229 -2.25455,-7.43186 -2.25455,-9.38805 -2.25454,-5.61823 -2.25455,-8.46447 -2.25454,-1.76164 -2.25455,1.62474 -2.25454,-2.74418 -2.25455,1.0226 -2.25454,2.56633 -2.25455,0.94819 -2.25454,-1.1272 -2.25455,2.23222 -2.25455,1.37844 -2.25454,-0.73862 -2.25455,1.07606 -2.25454,1.81433 -2.25455,-1.84342 -2.25454,1.81764 -2.25455,-0.28387 -2.25454,-4.69724 -2.25455,3.99791 -2.25454,6.20768 -2.25455,4.25361 -2.25454,6.73574 -2.25455,-1.02301 -2.25455,-3.51005 -2.25454,0.15322 -2.25455,-1.51824 -2.25454,-2.52052 -2.25455,-3.91624 -2.25454,1.9836 -2.25455,-2.09561 -2.25454,-1.98189 -2.25455,0.48358 -2.25454,-0.0292 -2.25455,-0.66782 -2.25454,2.33218 -2.25455,0.69862 -2.25455,-0.81862 -2.25454,1.13588 -2.25455,-0.78132 -2.25454,2.23991 -2.25455,-1.14824 -2.25454,0.60911 -2.25455,3.87063 -2.254545,1.55712 -2.254545,0.67108 -2.254545,2.91444 -2.254546,0.34177 z"
               inkscape:connector-curvature="0" />
          </defs>
          <g
             id="g4912"
             clip-path="url(#p0797a90038)"
             style="stroke-linecap:butt;stroke-linejoin:round">
            <use
               id="use4914"
               y="360"
               xlink:href="#m7cfbd56959"
               x="0"
               style="fill:#0072b2;fill-opacity:0.5;stroke:#0072b2;stroke-width:0.30000001;stroke-linecap:butt;stroke-linejoin:round;stroke-opacity:0.5"
               width="100%"
               height="100%" />
          </g>
        </g>
        <g
           id="PolyCollection_2-2"
           style="stroke-linecap:butt;stroke-linejoin:round">
          <defs
             id="defs4917">
            <path
               style="stroke:#d55e00;stroke-width:0.30000001;stroke-linecap:butt;stroke-linejoin:round;stroke-opacity:0.5"
               id="m5e2d3c5e1f"
               d="m 92.290909,-156.91525 0,25.2884 2.254546,0.87499 2.254545,1.88252 2.254545,0.20573 2.254545,1.16091 2.25455,0.82601 2.25454,0.8172 2.25455,0.53683 2.25454,-0.95506 2.25455,0.93744 2.25454,-0.69055 2.25455,-1.55658 2.25455,0.44559 2.25454,-0.16534 2.25455,0.78032 2.25454,-0.38735 2.25455,-1.45994 2.25454,0.65396 2.25455,1.28385 2.25454,-0.34939 2.25455,-0.88391 2.25454,-0.80596 2.25455,-1.25996 2.25454,-0.2471 2.25455,-1.07652 2.25455,-1.25294 2.25454,-1.40255 2.25455,-0.37563 2.25454,0.58787 2.25455,1.17043 2.25454,3.34995 2.25455,3.84836 2.25454,3.46788 2.25455,4.02091 2.25454,3.90938 2.25455,3.20186 2.25454,3.86857 2.25455,3.35683 2.25455,1.90927 2.25454,3.683559 2.25455,4.727181 2.25454,5.472209 2.25455,5.21654 2.25454,5.038156 2.25455,4.461829 2.25454,4.034026 2.25455,4.290142 2.25454,2.82979 2.25455,2.617423 2.25455,1.67357 2.25454,-0.735272 2.25455,-0.243348 2.25454,-0.72912 2.25455,-1.184824 2.25454,-1.115095 2.25455,-1.222265 2.25454,-1.527112 2.25455,-0.02753 2.25454,-0.553054 2.25455,-0.623364 2.25455,0.121216 2.25454,-1.524212 2.25455,-2.589234 2.25454,-2.696753 2.25455,-1.834446 2.25454,-1.988371 2.25455,-2.978092 2.25454,-2.796339 2.25455,-2.971667 2.25454,-1.791466 2.25455,-2.350112 2.25455,-1.564191 2.25454,-2.243762 2.25455,-2.940879 2.25454,-1.496796 2.25455,-0.908208 2.25454,-1.860619 2.25455,-2.86981 2.25455,-3.17698 2.25454,-2.59714 2.25454,-3.08459 2.25455,-2.82988 2.25455,-1.45561 2.25454,-1.52976 2.25455,-2.02282 2.25454,-0.8682 2.25455,-0.95765 2.25454,-1.09908 2.25455,-1.04177 2.25454,-1.58651 2.25455,-0.49773 2.25454,-0.72583 2.25455,-0.53041 2.25455,0.73644 2.25454,-0.75813 2.25455,-1.42332 2.25454,-0.0531 2.25455,0.52906 2.25454,-0.0419 2.25455,-0.58489 2.25454,-1.19192 2.25455,-2.34775 2.25454,-2.57173 2.25455,-1.19808 2.25455,-1.58332 2.25454,-2.02507 2.25455,-1.57559 2.25454,-1.89169 2.25455,-1.36351 2.25454,-2.25286 2.25455,-1.52972 2.25454,-3.14508 2.25455,-2.06779 2.25455,-3.20804 2.25454,-4.12901 2.25455,-4.21973 2.25454,-4.85629 2.25455,-4.7464 2.25454,-3.41601 2.25455,-4.65896 2.25454,-5.36826 2.25455,-3.27783 2.25455,-3.67485 2.25454,-5.65329 2.25454,-5.61627 2.25455,-5.63628 2.25455,-7.33611 2.25454,-6.7679 2.25455,-6.19159 2.25454,-6.75422 2.25455,-8.05692 2.25454,-6.04852 2.25455,-5.55993 2.25455,-5.48164 2.25454,-4.2165 2.25454,-3.40597 2.25455,-1.84314 2.25455,-2.32404 2.25454,-2.07449 2.25455,-0.1 2.25454,2.97482 2.25455,1.09668 2.25454,3.53128 2.25455,4.99806 2.25454,4.50806 2.25455,4.78907 2.25454,7.97048 2.25455,7.58922 2.25455,6.7555 2.25454,8.17664 2.25455,8.89234 2.25454,7.43852 2.25455,6.27599 2.25454,6.81221 2.25455,6.35012 2.25454,6.34279 2.25455,5.24771 2.25454,5.45927 2.25455,4.14676 2.25455,4.84302 2.25454,3.14035 2.25455,3.77115 2.25454,2.47813 2.25455,0.74036 2.25454,1.83893 2.25455,1.49598 2.25454,0.10599 2.25455,-0.3096 2.25455,-0.51845 2.25454,-0.42302 2.25455,1.1865 2.25454,0.71839 2.25455,0.67297 2.25454,0.53903 2.25455,1.0254 2.25454,1.70473 2.25455,0.74725 2.25455,0.98692 2.25454,1.85987 2.25454,-0.80921 2.25455,-1.6391 0,-25.54969 0,0 -2.25455,1.53643 -2.25454,0.73981 -2.25454,-1.836 -2.25455,-0.97804 -2.25455,-0.7685 -2.25454,-1.66178 -2.25455,-1.0614 -2.25454,-0.3898 -2.25455,-0.65721 -2.25454,-0.79522 -2.25455,-1.17475 -2.25454,0.30582 -2.25455,0.51808 -2.25455,0.26387 -2.25454,-0.0333 -2.25455,-1.41478 -2.25454,-1.83548 -2.25455,-0.66187 -2.25454,-2.50111 -2.25455,-3.85907 -2.25454,-3.09119 -2.25455,-4.85311 -2.25455,-4.15928 -2.25454,-5.45 -2.25455,-5.25134 -2.25454,-6.47909 -2.25455,-6.36672 -2.25454,-6.93153 -2.25455,-6.43638 -2.25454,-7.53641 -2.25455,-9.0386 -2.25454,-8.12087 -2.25455,-6.82688 -2.25455,-7.59521 -2.25454,-8.10095 -2.25455,-4.95101 -2.25454,-4.65898 -2.25455,-5.09095 -2.25454,-3.55151 -2.25455,-1.10151 -2.25454,-2.98569 -2.25455,0.0424 -2.25454,2.04141 -2.25455,2.35058 -2.25455,1.85418 -2.25454,3.47545 -2.25454,4.20533 -2.25455,5.46991 -2.25455,5.69848 -2.25454,6.12081 -2.25455,8.1719 -2.25454,6.8169 -2.25455,6.2509 -2.25454,6.83842 -2.25455,7.35907 -2.25455,5.76134 -2.25454,5.80711 -2.25454,5.70751 -2.25455,3.66893 -2.25455,3.30684 -2.25454,5.42368 -2.25455,4.87324 -2.25454,3.45803 -2.25455,4.75778 -2.25454,4.8873 -2.25455,4.26075 -2.25454,4.0873 -2.25455,3.25333 -2.25455,2.03681 -2.25454,3.17748 -2.25455,1.54754 -2.25454,2.22509 -2.25455,1.35838 -2.25454,1.94586 -2.25455,1.65067 -2.25454,2.02419 -2.25455,1.45835 -2.25455,1.15995 -2.25454,2.63361 -2.25455,2.46294 -2.25454,1.15022 -2.25455,0.50005 -2.25454,0.0128 -2.25455,-0.469 -2.25454,0.064 -2.25455,1.46264 -2.25454,0.82028 -2.25455,-0.6469 -2.25455,0.65381 -2.25454,0.76754 -2.25455,0.56477 -2.25454,1.58907 -2.25455,1.02085 -2.25454,1.08843 -2.25455,0.83247 -2.25454,0.86621 -2.25455,2.07308 -2.25454,1.57971 -2.25455,1.50991 -2.25455,2.76088 -2.25454,3.10802 -2.25454,2.53553 -2.25455,3.16757 -2.25455,2.80657 -2.25454,1.84065 -2.25455,0.86947 -2.25454,1.59317 -2.25455,2.89197 -2.25454,2.17097 -2.25455,1.62864 -2.25455,2.2991 -2.25454,1.8295 -2.25455,3.01811 -2.25454,2.8057 -2.25455,3.08057 -2.25454,2.020155 -2.25455,1.851251 -2.25454,2.689277 -2.25455,2.541964 -2.25454,1.461662 -2.25455,-0.119441 -2.25455,0.640997 -2.25454,0.455677 -2.25455,-0.03087 -2.25454,1.45479 -2.25455,1.149281 -2.25454,0.907987 -2.25455,1.078576 -2.25454,0.637794 -2.25455,0.042 -2.25454,0.592763 -2.25455,-1.813854 -2.25455,-2.697558 -2.25454,-2.948364 -2.25455,-4.231109 -2.25454,-4.059384 -2.25455,-4.397654 -2.25454,-4.98945 -2.25455,-5.25226 -2.25454,-5.38842 -2.25455,-4.69374 -2.25454,-3.63114 -2.25455,-1.76826 -2.25455,-3.27858 -2.25454,-3.71305 -2.25455,-3.06879 -2.25454,-3.75902 -2.25455,-3.91194 -2.25454,-3.33555 -2.25455,-3.74598 -2.25454,-3.21885 -2.25455,-1.04786 -2.25454,-0.5355 -2.25455,0.50568 -2.25454,1.35329 -2.25455,1.33093 -2.25455,1.06514 -2.25454,0.149 -2.25455,1.29727 -2.25454,0.69939 -2.25455,0.90742 -2.25454,0.29857 -2.25455,-1.39302 -2.25454,-0.68462 -2.25455,1.35092 -2.25454,0.3868 -2.25455,-0.71969 -2.25454,0.19489 -2.25455,-0.44766 -2.25455,1.52869 -2.25454,0.71291 -2.25455,-0.92978 -2.25454,0.95026 -2.25455,-0.54687 -2.25454,-0.79158 -2.25455,-0.97184 -2.254545,-1.14752 -2.254545,-0.17035 -2.254545,-1.88407 -2.254546,-0.87757 z"
               inkscape:connector-curvature="0" />
          </defs>
          <g
             id="g4920"
             clip-path="url(#p0797a90038)"
             style="stroke-linecap:butt;stroke-linejoin:round">
            <use
               id="use4922"
               y="360"
               xlink:href="#m5e2d3c5e1f"
               x="0"
               style="fill:#d55e00;fill-opacity:0.5;stroke:#d55e00;stroke-width:0.30000001;stroke-linecap:butt;stroke-linejoin:round;stroke-opacity:0.5"
               width="100%"
               height="100%" />
          </g>
        </g>
        <g
           id="line2d_8-0"
           style="stroke-linecap:butt;stroke-linejoin:round">
          <path
             id="path4925"
             style="fill:none;stroke:#0072b2;stroke-width:1.75;stroke-linecap:round;stroke-linejoin:round"
             d="m 92.290909,201.63167 2.254546,-0.4301 2.254545,-2.7706 2.254545,-0.69675 2.254545,-1.65363 2.25455,-3.56353 2.25454,-0.77308 2.25455,1.28151 2.25454,-2.31008 2.25455,0.84437 2.25454,-1.34241 2.25455,0.95073 2.25455,-0.55043 2.25454,-2.49762 2.25455,0.66418 2.25454,0.0194 2.25455,-0.77593 4.50909,4.03899 2.25454,-1.89912 2.25455,3.92981 2.25454,2.61789 2.25455,1.21284 2.25454,-0.10871 2.25455,3.77552 2.25455,0.99669 2.25454,-6.68933 2.25455,-4.36323 2.25454,-6.1524 2.25455,-3.98468 2.25454,5.02681 2.25455,0.41443 2.25454,-1.64085 2.25455,2.36531 2.25454,-1.72655 2.25455,-0.93165 2.25454,0.90515 2.25455,-1.09964 2.25455,-1.9546 2.25454,1.31375 2.25455,-0.90178 2.25454,-2.49124 2.25455,-0.80809 2.25454,2.86529 2.25455,-1.49579 2.25454,1.76121 2.25455,8.67822 2.25454,5.93228 2.25455,9.54666 2.25455,7.51304 2.25454,-3.2137 2.25455,-3.44733 2.25454,2.0187 2.25455,3.4433 2.25454,5.67863 2.25455,2.74641 2.25454,2.18628 2.25455,1.25714 2.25454,0.20617 2.25455,1.87 2.25455,-2.05951 2.25454,-0.45022 2.25455,2.63476 2.25454,-1.85475 2.25455,-0.0408 2.25454,1.33121 2.25455,0.0291 2.25454,-0.61478 2.25455,-3.10972 2.25454,-1.48441 2.25455,2.57575 2.25455,1.9371 2.25454,-0.0575 2.25455,-0.36475 2.25454,-1.4156 2.25455,-0.69119 2.25454,-0.35864 2.25455,1.77762 2.25455,2.1099 2.25454,-2.344 2.25454,0.13536 2.25455,1.91375 2.25455,-1.38655 2.25454,1.15521 2.25455,0.38898 2.25454,1.13091 4.50909,3.1709 2.25455,-0.36714 2.25454,-2.66644 2.25455,0.15622 2.25454,4.00937 2.25455,1.66267 2.25455,-1.85197 2.25454,-1.07801 2.25455,0.34774 2.25454,-0.70948 2.25455,-6.47722 2.25454,-0.85667 2.25455,0.43939 2.25454,2.28048 2.25455,-0.1642 2.25454,-1.76066 2.25455,-5.19361 2.25455,-0.82392 2.25454,-2.29505 2.25455,-1.41597 2.25454,-1.65305 2.25455,-1.46463 2.25454,0.70398 2.25455,-2.8698 2.25454,-5.37545 2.25455,-3.60317 2.25455,-5.39149 2.25454,-3.04715 2.25455,-3.47401 2.25454,-4.24559 2.25455,-1.02873 2.25454,-2.68796 2.25455,0.92519 2.25454,-3.9123 2.25455,-5.25377 2.25455,-0.009 2.25454,0.9529 2.25454,-4.64228 2.25455,-3.88776 2.25455,-5.38116 2.25454,-4.98847 4.50909,-8.09166 2.25455,-4.74955 2.25454,-2.80707 2.25455,-4.0104 2.25455,-3.1319 2.25454,-2.22297 4.50909,-2.29895 2.25455,0.44751 2.25454,1.78551 2.25455,-2.04017 2.25454,1.93143 2.25455,2.0908 2.25454,-1.35375 2.25455,2.58842 4.50909,5.85877 2.25454,2.13018 2.25455,1.90811 4.50909,4.44569 2.25455,6.08374 2.25454,2.88932 2.25455,5.13623 2.25454,3.6217 2.25455,2.21989 2.25454,4.61738 2.25455,2.37349 2.25454,3.88061 2.25455,2.55136 2.25455,-0.39656 2.25454,-0.0639 2.25455,0.51215 2.25454,3.05231 2.25455,0.64008 2.25454,3.10024 2.25455,1.34219 2.25454,1.89414 2.25455,0.0406 2.25455,2.49242 2.25454,0.50999 2.25455,0.95204 2.25454,2.0777 2.25455,1.5514 2.25454,4.93438 2.25455,2.7483 2.25454,1.34399 2.25455,1.04016 2.25455,1.6946 2.25454,-1.424 4.50909,2.20344 0,0"
             clip-path="url(#p0797a90038)"
             inkscape:connector-curvature="0" />
        </g>
        <g
           id="line2d_9-2"
           style="stroke-linecap:butt;stroke-linejoin:round">
          <path
             id="path4928"
             style="fill:none;stroke:#d55e00;stroke-width:1.75;stroke-linecap:round;stroke-linejoin:round"
             d="m 92.290909,215.81358 2.254546,0.88353 2.254545,1.89974 2.254545,0.17313 2.254545,1.15214 4.50909,1.696 2.25455,0.50313 2.25454,-0.96374 2.25455,0.91697 2.25454,-0.71233 2.25455,-1.55034 2.25455,0.45384 2.25454,-0.17968 2.25455,0.72373 2.25454,-0.39796 2.25455,-1.42441 2.25454,0.64891 2.25455,1.37029 2.25454,-0.33281 2.25455,-0.8845 2.25454,-0.74828 2.25455,-1.32559 2.25454,-0.17209 2.25455,-1.0458 4.50909,-2.67365 2.25455,-0.39035 2.25454,0.55571 2.25455,1.11677 2.25454,3.27049 2.25455,3.8047 2.25454,3.38674 4.50909,7.7962 2.25455,3.1242 2.25454,3.80218 2.25455,3.30846 2.25455,1.82008 2.25454,3.67723 2.25455,4.70543 4.50909,10.67795 2.25454,5.01696 2.25455,4.44513 4.50909,8.31906 2.25454,2.9029 2.25455,2.67024 2.25455,1.73648 2.25454,-0.63858 2.25455,-0.10653 2.25454,-0.69022 6.76364,-3.29911 2.25454,-1.50958 2.25455,0.008 2.25454,-0.49669 2.25455,-0.627 2.25455,0.13183 2.25454,-1.49947 4.50909,-5.26138 4.50909,-3.89961 2.25455,-3.03243 2.25454,-2.83247 2.25455,-3.02958 2.25454,-1.82772 2.25455,-2.33236 2.25455,-1.60829 2.25454,-2.20013 2.25455,-2.92261 2.25454,-1.55219 2.25455,-0.89204 2.25454,-1.8235 2.25455,-2.84249 2.25455,-3.14711 2.25454,-2.5847 2.25454,-3.10925 2.25455,-2.80576 4.50909,-3.04499 2.25455,-2.03445 4.50909,-1.79126 4.50909,-2.07777 2.25454,-1.58892 2.25455,-0.54271 2.25454,-0.7709 2.25455,-0.58854 2.25455,0.70118 2.25454,-0.77351 2.25455,-1.44538 2.25454,-0.0612 2.25455,0.49036 2.25454,-0.0424 2.25455,-0.55287 2.25454,-1.16917 2.25455,-2.37941 2.25454,-2.62049 2.25455,-1.16736 2.25455,-1.54598 2.25454,-2.01266 2.25455,-1.61646 2.25454,-1.91512 2.25455,-1.37832 2.25454,-2.24024 2.25455,-1.52863 2.25454,-3.14324 2.25455,-2.05808 2.25455,-3.2377 4.50909,-8.36883 4.50909,-9.64549 2.25454,-3.46352 2.25455,-4.7589 2.25454,-5.40819 2.25455,-3.34382 2.25455,-3.65452 6.76363,-17.08977 2.25455,-7.33407 2.25454,-6.80079 2.25455,-6.22957 2.25454,-6.75278 2.25455,-8.1092 2.25454,-6.092967 4.5091,-11.061767 2.25454,-4.202223 2.25454,-3.408301 2.25455,-1.840897 2.25455,-2.3198 2.25454,-2.056583 2.25455,-0.08163 2.25454,3.003876 2.25455,1.142149 2.25454,3.539997 2.25455,5.014061 2.25454,4.587926 2.25455,4.880855 2.25454,8.008773 2.25455,7.573471 2.25455,6.78361 2.25454,8.12647 2.25455,8.95294 2.25454,7.48514 2.25455,6.33819 2.25454,6.87575 4.50909,12.72841 4.50909,10.67809 2.25455,4.16089 2.25455,4.87601 2.25454,3.08732 2.25455,3.80372 2.25454,2.48081 2.25455,0.73543 2.25454,1.85234 2.25455,1.44365 2.25454,0.0955 2.25455,-0.26566 2.25455,-0.50802 2.25454,-0.37361 2.25455,1.2038 4.50909,1.462 2.25454,0.4596 2.25455,1.04455 2.25454,1.6895 2.25455,0.76443 2.25455,1.00054 2.25454,1.85464 2.25454,-0.75984 2.25455,-1.56794 0,0"
             clip-path="url(#p0797a90038)"
             inkscape:connector-curvature="0" />
        </g>
        <g
           id="patch_3-3"
           style="stroke-linecap:butt;stroke-linejoin:round">
          <path
             id="path4931"
             style="fill:none;stroke:#262626;stroke-width:1.25;stroke-linecap:square;stroke-linejoin:miter"
             d="M 72,315 72,43.2"
             inkscape:connector-curvature="0" />
        </g>
        <g
           id="patch_4-7"
           style="stroke-linecap:butt;stroke-linejoin:round">
          <path
             id="path4934"
             style="fill:none;stroke:#262626;stroke-width:1.25;stroke-linecap:square;stroke-linejoin:miter"
             d="m 518.4,315 0,-271.8"
             inkscape:connector-curvature="0" />
        </g>
        <g
           id="patch_5-5"
           style="stroke-linecap:butt;stroke-linejoin:round">
          <path
             id="path4937"
             style="fill:none;stroke:#262626;stroke-width:1.25;stroke-linecap:square;stroke-linejoin:miter"
             d="m 72,315 446.4,0"
             inkscape:connector-curvature="0" />
        </g>
        <g
           id="patch_6-9"
           style="stroke-linecap:butt;stroke-linejoin:round">
          <path
             id="path4940"
             style="fill:none;stroke:#262626;stroke-width:1.25;stroke-linecap:square;stroke-linejoin:miter"
             d="m 72,43.2 446.4,0"
             inkscape:connector-curvature="0" />
        </g>
        <g
           id="legend_1-2"
           style="stroke-linecap:butt;stroke-linejoin:round">
          <g
             id="line2d_10-2"
             style="stroke-linecap:butt;stroke-linejoin:round">
            <path
               id="path4944"
               style="fill:none;stroke:#0072b2;stroke-width:1.75;stroke-linecap:round;stroke-linejoin:round"
               d="m 205.49531,68.759375 40,0"
               inkscape:connector-curvature="0" />
          </g>
          <g
             id="line2d_11-8"
             style="stroke-linecap:butt;stroke-linejoin:round" />
          <g
             id="text_6-9"
             style="stroke-linecap:butt;stroke-linejoin:round">
            <text
               id="text4948"
               y="75.759377"
               x="261.4953"
               style="font-style:normal;font-weight:normal;font-size:20px;font-family:Arial;text-anchor:start;fill:#262626;stroke-linecap:butt;stroke-linejoin:round">G4 containing</text>
          </g>
          <g
             id="line2d_12-7"
             style="stroke-linecap:butt;stroke-linejoin:round">
            <path
               id="path4951"
               style="fill:none;stroke:#d55e00;stroke-width:1.75;stroke-linecap:round;stroke-linejoin:round"
               d="m 205.49531,97.284375 40,0"
               inkscape:connector-curvature="0" />
          </g>
          <g
             id="line2d_13-3"
             style="stroke-linecap:butt;stroke-linejoin:round" />
          <g
             id="text_7-6"
             style="stroke-linecap:butt;stroke-linejoin:round">
            <text
               id="text4955"
               y="104.28438"
               x="261.4953"
               style="font-style:normal;font-weight:normal;font-size:20px;font-family:Arial;text-anchor:start;fill:#262626;stroke-linecap:butt;stroke-linejoin:round">non-G4</text>
          </g>
        </g>
      </g>
    </g>
    <text
       xml:space="preserve"
       style="font-style:normal;font-weight:normal;font-size:40px;line-height:125%;font-family:Sans;letter-spacing:0px;word-spacing:0px;fill:#000000;fill-opacity:1;stroke:none;stroke-width:1px;stroke-linecap:butt;stroke-linejoin:miter;stroke-opacity:1"
       x="152.7345"
       y="62.133499"
       id="text5064"
       sodipodi:linespacing="125%"><tspan
         sodipodi:role="line"
         id="tspan5066"
         style="font-size:30px;stroke-linecap:butt;stroke-linejoin:round"
         x="152.7345"
         y="62.133499">a</tspan></text>
    <text
       sodipodi:linespacing="125%"
       id="text5068"
       y="350.63202"
       x="152.7345"
       style="font-style:normal;font-weight:normal;font-size:40px;line-height:125%;font-family:Sans;letter-spacing:0px;word-spacing:0px;fill:#000000;fill-opacity:1;stroke:none;stroke-width:1px;stroke-linecap:butt;stroke-linejoin:miter;stroke-opacity:1"
       xml:space="preserve"><tspan
         y="350.63202"
         x="152.7345"
         style="font-size:30px;stroke-linecap:butt;stroke-linejoin:round"
         id="tspan5070"
         sodipodi:role="line">b</tspan></text>
  </g>
</svg>
