<?xml version="1.0" encoding="UTF-8" standalone="no"?>
<!-- Created with Inkscape (http://www.inkscape.org/) -->

<svg
   xmlns:dc="http://purl.org/dc/elements/1.1/"
   xmlns:cc="http://creativecommons.org/ns#"
   xmlns:rdf="http://www.w3.org/1999/02/22-rdf-syntax-ns#"
   xmlns:svg="http://www.w3.org/2000/svg"
   xmlns="http://www.w3.org/2000/svg"
   xmlns:sodipodi="http://sodipodi.sourceforge.net/DTD/sodipodi-0.dtd"
   xmlns:inkscape="http://www.inkscape.org/namespaces/inkscape"
   width="192.66556mm"
   height="90.671646mm"
   viewBox="0 0 682.67324 321.27748"
   id="svg2"
   version="1.1"
   inkscape:version="0.91 r13725"
   sodipodi:docname="zmays_athaliana_nmm_expression_venn.svg">
  <defs
     id="defs4"
     style="stroke-linecap:butt;stroke-linejoin:round">
    <style
       id="style4257"
       type="text/css">
*{stroke-linecap:butt;stroke-linejoin:round;}
  </style>
  </defs>
  <sodipodi:namedview
     id="base"
     pagecolor="#ffffff"
     bordercolor="#666666"
     borderopacity="1.0"
     inkscape:pageopacity="0.0"
     inkscape:pageshadow="2"
     inkscape:zoom="1.2033415"
     inkscape:cx="350.28651"
     inkscape:cy="73.624191"
     inkscape:document-units="px"
     inkscape:current-layer="axes_2"
     showgrid="false"
     fit-margin-top="5"
     fit-margin-left="5"
     fit-margin-right="5"
     fit-margin-bottom="5"
     inkscape:window-width="1555"
     inkscape:window-height="989"
     inkscape:window-x="45"
     inkscape:window-y="0"
     inkscape:window-maximized="1" />
  <metadata
     id="metadata7">
    <rdf:RDF>
      <cc:Work
         rdf:about="">
        <dc:format>image/svg+xml</dc:format>
        <dc:type
           rdf:resource="http://purl.org/dc/dcmitype/StillImage" />
        <dc:title></dc:title>
      </cc:Work>
    </rdf:RDF>
  </metadata>
  <g
     inkscape:label="Layer 1"
     inkscape:groupmode="layer"
     id="layer1"
     transform="translate(-25.749431,-31.947938)">
    <g
       id="figure_1"
       transform="matrix(1.25,0,0,1.25,7.6447383,26.716934)"
       style="stroke-linecap:butt;stroke-linejoin:round">
      <g
         id="axes_1"
         style="stroke-linecap:butt;stroke-linejoin:round"
         transform="matrix(0.85140537,0,0,0.85140537,1.3072989,-8.47046)">
        <g
           id="patch_2"
           style="stroke-linecap:butt;stroke-linejoin:round">
          <path
             id="path4265"
             style="fill:#0072b2;stroke-linecap:butt;stroke-linejoin:round"
             d="M 175.62062,249.182 C 165.52094,240.70415 157.39918,230.11662 151.82754,218.16529 146.2559,206.21396 143.36837,193.18626 143.36837,180 c 0,-13.18626 2.88753,-26.21396 8.45917,-38.16529 5.57164,-11.95133 13.6934,-22.53886 23.79308,-31.01671 C 163.1991,102.83737 148.85449,98.347507 134.09955,97.821915 119.3446,97.296324 104.71689,100.75415 91.759006,107.83074 78.801127,114.90732 67.985182,125.34485 60.451795,138.0426 52.918409,150.74034 48.942047,165.23569 48.942047,180 c 0,14.7643 3.976362,29.25965 11.509748,41.9574 7.533387,12.69775 18.349332,23.13528 31.307211,30.21186 12.957884,7.07659 27.585594,10.53442 42.340544,10.00882 14.75494,-0.52559 29.09955,-5.01544 41.52107,-12.99608"
             clip-path="url(#p55fb6b6985)"
             inkscape:connector-curvature="0" />
        </g>
        <g
           id="patch_3"
           style="stroke-linecap:butt;stroke-linejoin:round">
          <path
             id="path4268"
             style="fill:#d55e00;stroke-linecap:butt;stroke-linejoin:round"
             d="m 175.62062,110.818 c 11.5868,7.44434 21.11985,17.68164 27.7209,29.76875 6.60104,12.08712 10.06094,25.6411 10.06094,39.41325 0,13.77215 -3.4599,27.32613 -10.06094,39.41325 -6.60105,12.08711 -16.1341,22.32441 -27.7209,29.76875 13.16889,11.05418 29.22425,18.12183 46.27029,20.36841 17.04603,2.24657 34.38431,-0.41998 49.96754,-7.68479 15.58322,-7.26482 28.77291,-18.83023 38.01161,-33.3306 9.2387,-14.50037 14.14789,-31.34158 14.14789,-48.53502 0,-17.19344 -4.90919,-34.03465 -14.14789,-48.53502 -9.2387,-14.50037 -22.42839,-26.06578 -38.01161,-33.330596 -15.58323,-7.264812 -32.92151,-9.931364 -49.96754,-7.68479 -17.04604,2.246574 -33.1014,9.314226 -46.27029,20.368406"
             clip-path="url(#p55fb6b6985)"
             inkscape:connector-curvature="0" />
        </g>
        <g
           id="patch_4"
           style="stroke-linecap:butt;stroke-linejoin:round">
          <path
             id="path4271"
             style="fill:#009e73;stroke:#009e73;stroke-width:0.30000001;stroke-linecap:butt;stroke-linejoin:miter"
             d="m 175.62062,249.182 c 11.5868,-7.44434 21.11985,-17.68164 27.7209,-29.76875 6.60104,-12.08712 10.06094,-25.6411 10.06094,-39.41325 0,-13.77215 -3.4599,-27.32613 -10.06094,-39.41325 -6.60105,-12.08711 -16.1341,-22.32441 -27.7209,-29.76875 -10.09968,8.47785 -18.22144,19.06538 -23.79308,31.01671 -5.57164,11.95133 -8.45917,24.97903 -8.45917,38.16529 0,13.18626 2.88753,26.21396 8.45917,38.16529 5.57164,11.95133 13.6934,22.53886 23.79308,31.01671"
             clip-path="url(#p55fb6b6985)"
             inkscape:connector-curvature="0" />
        </g>
        <g
           id="text_1"
           style="stroke-linecap:butt;stroke-linejoin:round">
          <text
             id="text4274"
             y="186.20438"
             x="96.155205"
             style="font-style:normal;font-weight:normal;font-size:24px;font-family:Arial;text-anchor:middle;fill:#262626;stroke-linecap:butt;stroke-linejoin:round">995</text>
        </g>
        <g
           id="text_2"
           style="stroke-linecap:butt;stroke-linejoin:round">
          <text
             id="text4277"
             y="186.20438"
             x="268.71021"
             style="font-style:normal;font-weight:normal;font-size:24px;font-family:Arial;text-anchor:middle;fill:#262626;stroke-linecap:butt;stroke-linejoin:round">1297</text>
        </g>
        <g
           id="text_3"
           style="stroke-linecap:butt;stroke-linejoin:round">
          <text
             id="text4280"
             y="186.20438"
             x="178.38541"
             style="font-style:normal;font-weight:normal;font-size:24px;font-family:Arial;text-anchor:middle;fill:#262626;stroke-linecap:butt;stroke-linejoin:round">467</text>
        </g>
      </g>
      <g
         id="axes_2"
         style="stroke-linecap:butt;stroke-linejoin:round"
         transform="matrix(0.85140537,0,0,0.85140537,-25.937673,-38.87046)">
        <g
           id="g4375"
           style="stroke-linecap:butt;stroke-linejoin:round">
          <g
             transform="translate(0,35.705673)"
             style="stroke-linecap:butt;stroke-linejoin:round"
             id="patch_5">
            <path
               inkscape:connector-curvature="0"
               clip-path="url(#pa34fe18cc7)"
               d="m 521.51129,243.22845 c -8.44272,-8.22399 -15.15337,-18.0563 -19.73509,-28.91546 -4.58172,-10.85917 -6.94238,-22.52683 -6.94238,-34.31299 0,-11.78616 2.36066,-23.45382 6.94238,-34.31299 4.58172,-10.85916 11.29237,-20.69147 19.73509,-28.91546 -11.72018,-8.71868 -25.6369,-14.00931 -40.18912,-15.27844 -14.55223,-1.26912 -29.1747,1.53255 -42.2272,8.09075 -13.0525,6.55821 -24.02804,16.61821 -31.69548,29.05156 -7.66743,12.43336 -11.72894,26.75712 -11.72894,41.36458 0,14.60746 4.06151,28.93122 11.72894,41.36458 7.66744,12.43335 18.64298,22.49335 31.69548,29.05156 13.0525,6.5582 27.67497,9.35987 42.2272,8.09075 14.55222,-1.26913 28.46894,-6.55976 40.18912,-15.27844"
               style="fill:#0072b2;stroke-linecap:butt;stroke-linejoin:round"
               id="path4284" />
          </g>
          <g
             transform="translate(0,35.705673)"
             style="stroke-linecap:butt;stroke-linejoin:round"
             id="patch_6">
            <path
               inkscape:connector-curvature="0"
               clip-path="url(#pa34fe18cc7)"
               d="m 521.51129,116.77155 c 9.85725,7.33284 17.8645,16.87019 23.38027,27.84799 5.51578,10.9778 8.38875,23.09486 8.38875,35.38046 0,12.2856 -2.87297,24.40266 -8.38875,35.38046 -5.51577,10.9778 -13.52302,20.51515 -23.38027,27.84799 12.43329,12.11117 28.16699,20.29013 45.22304,23.50861 17.05604,3.21849 34.6884,1.33571 50.68029,-5.41162 15.9919,-6.74734 29.64385,-18.06409 39.23951,-32.52752 9.59567,-14.46342 14.71532,-31.44087 14.71532,-48.79792 0,-17.35705 -5.11965,-34.3345 -14.71532,-48.79793 -9.59566,-14.46342 -23.24761,-25.78017 -39.23951,-32.527505 -15.99189,-6.747332 -33.62425,-8.630111 -50.68029,-5.41163 -17.05605,3.21848 -32.78975,11.397445 -45.22304,23.508615"
               style="fill:#d55e00;stroke-linecap:butt;stroke-linejoin:round"
               id="path4287" />
          </g>
          <g
             transform="translate(0,35.705673)"
             style="stroke-linecap:butt;stroke-linejoin:round"
             id="patch_7">
            <path
               inkscape:connector-curvature="0"
               clip-path="url(#pa34fe18cc7)"
               d="m 521.51129,243.22845 c 9.85725,-7.33284 17.8645,-16.87019 23.38027,-27.84799 5.51578,-10.9778 8.38875,-23.09486 8.38875,-35.38046 0,-12.2856 -2.87297,-24.40266 -8.38875,-35.38046 -5.51577,-10.9778 -13.52302,-20.51515 -23.38027,-27.84799 -8.44272,8.22399 -15.15337,18.0563 -19.73509,28.91546 -4.58172,10.85917 -6.94238,22.52683 -6.94238,34.31299 0,11.78616 2.36066,23.45382 6.94238,34.31299 4.58172,10.85916 11.29237,20.69147 19.73509,28.91546"
               style="fill:#009e73;stroke:#009e73;stroke-width:0.30000001;stroke-linecap:butt;stroke-linejoin:miter"
               id="path4290" />
          </g>
          <g
             transform="translate(0,35.705673)"
             style="stroke-linecap:butt;stroke-linejoin:round"
             id="patch_8">
            <path
               inkscape:connector-curvature="0"
               clip-path="url(#pa34fe18cc7)"
               d="m 534.92141,180 0,0 0,0 0,0 z"
               style="fill:#0072b2;stroke-linecap:butt;stroke-linejoin:round"
               id="path4293" />
          </g>
          <g
             transform="translate(0,35.705673)"
             style="stroke-linecap:butt;stroke-linejoin:round"
             id="patch_9">
            <path
               inkscape:connector-curvature="0"
               clip-path="url(#pa34fe18cc7)"
               d="m 534.92141,180 0,0 0,0 0,0 z"
               style="fill:#d55e00;stroke-linecap:butt;stroke-linejoin:round"
               id="path4296" />
          </g>
          <g
             transform="translate(0,35.705673)"
             style="stroke-linecap:butt;stroke-linejoin:round"
             id="text_4">
            <text
               style="font-style:normal;font-weight:normal;font-size:24px;font-family:Arial;text-anchor:middle;fill:#262626;stroke-linecap:butt;stroke-linejoin:round"
               x="445.2522"
               y="186.20438"
               id="text4299">764</text>
          </g>
          <g
             transform="translate(0,35.705673)"
             style="stroke-linecap:butt;stroke-linejoin:round"
             id="text_5">
            <text
               style="font-style:normal;font-weight:normal;font-size:24px;font-family:Arial;text-anchor:middle;fill:#262626;stroke-linecap:butt;stroke-linejoin:round"
               x="612.32489"
               y="186.20438"
               id="text4302">1028</text>
          </g>
          <g
             transform="translate(0,35.705673)"
             style="stroke-linecap:butt;stroke-linejoin:round"
             id="text_6">
            <text
               style="font-style:normal;font-weight:normal;font-size:24px;font-family:Arial;text-anchor:middle;fill:#262626;stroke-linecap:butt;stroke-linejoin:round"
               x="524.05707"
               y="186.20438"
               id="text4305">273</text>
          </g>
          <g
             transform="translate(0,-16.913208)"
             style="stroke-linecap:butt;stroke-linejoin:round"
             id="legend_1">
            <g
               style="stroke-linecap:butt;stroke-linejoin:round"
               id="patch_10">
              <path
                 inkscape:connector-curvature="0"
                 d="m 522.57375,104.33726 40,0 0,-13.999999 -40,0 z"
                 style="fill:#0072b2;stroke-linecap:butt;stroke-linejoin:round"
                 id="path4309" />
            </g>
            <g
               style="stroke-linecap:butt;stroke-linejoin:round"
               id="text_7">
              <text
                 style="font-style:normal;font-weight:normal;font-size:20px;font-family:Arial;text-anchor:start;fill:#262626;stroke-linecap:butt;stroke-linejoin:round"
                 x="578.57373"
                 y="104.33726"
                 id="text4312"
                 sodipodi:linespacing="125%">
                <tspan
                   style="-inkscape-font-specification:'Arial, Italic';font-family:Arial;font-weight:normal;font-style:italic;font-stretch:normal;font-variant:normal;font-size:19.99987371px;text-anchor:start;text-align:start;writing-mode:lr;line-height:125%"
                   id="tspan4443">A. thaliana</tspan>
              </text>
            </g>
            <g
               style="stroke-linecap:butt;stroke-linejoin:round"
               id="patch_11">
              <path
                 inkscape:connector-curvature="0"
                 d="m 522.57375,132.62789 40,0 0,-14 -40,0 z"
                 style="fill:#d55e00;stroke-linecap:butt;stroke-linejoin:round"
                 id="path4315" />
            </g>
            <g
               style="stroke-linecap:butt;stroke-linejoin:round"
               id="text_8">
              <text
                 style="font-style:normal;font-weight:normal;font-size:20px;font-family:Arial;text-anchor:start;fill:#262626;stroke-linecap:butt;stroke-linejoin:round"
                 x="578.57373"
                 y="132.62788"
                 id="text4318"
                 sodipodi:linespacing="125%">
                <tspan
                   style="-inkscape-font-specification:'Arial, Italic';font-family:Arial;font-weight:normal;font-style:italic;font-stretch:normal;font-variant:normal;font-size:19.99987371px;text-anchor:start;text-align:start;writing-mode:lr;line-height:125%"
                   id="tspan4445">Z. mays</tspan>
              </text>
            </g>
          </g>
        </g>
        <text
           xml:space="preserve"
           style="font-style:normal;font-variant:normal;font-weight:normal;font-stretch:normal;font-size:28.18868828px;line-height:125%;font-family:Arial;-inkscape-font-specification:'Arial, Normal';text-align:start;letter-spacing:0px;word-spacing:0px;writing-mode:lr-tb;text-anchor:start;fill:#000000;fill-opacity:1;stroke:none;stroke-width:1px;stroke-linecap:butt;stroke-linejoin:miter;stroke-opacity:1"
           x="63.10445"
           y="87.394539"
           id="text4402"
           sodipodi:linespacing="125%"><tspan
             sodipodi:role="line"
             id="tspan4404"
             style="stroke-linecap:butt;stroke-linejoin:round"
             x="63.10445"
             y="87.394539">a</tspan></text>
        <text
           sodipodi:linespacing="125%"
           id="text4406"
           y="87.394539"
           x="376.93848"
           style="font-style:normal;font-variant:normal;font-weight:normal;font-stretch:normal;font-size:28.18868828px;line-height:125%;font-family:Arial;-inkscape-font-specification:'Arial, Normal';text-align:start;letter-spacing:0px;word-spacing:0px;writing-mode:lr-tb;text-anchor:start;fill:#000000;fill-opacity:1;stroke:none;stroke-width:1px;stroke-linecap:butt;stroke-linejoin:miter;stroke-opacity:1"
           xml:space="preserve"><tspan
             y="87.394539"
             x="376.93848"
             style="stroke-linecap:butt;stroke-linejoin:round"
             id="tspan4408"
             sodipodi:role="line">b</tspan></text>
        <text
           xml:space="preserve"
           style="font-style:normal;font-variant:normal;font-weight:normal;font-stretch:normal;font-size:28.18868828px;line-height:125%;font-family:Arial;-inkscape-font-specification:'Arial, Normal';text-align:start;letter-spacing:0px;word-spacing:0px;writing-mode:lr-tb;text-anchor:start;fill:#000000;fill-opacity:1;stroke:none;stroke-width:1px;stroke-linecap:butt;stroke-linejoin:miter;stroke-opacity:1"
           x="156.02499"
           y="331.60101"
           id="text4410"
           sodipodi:linespacing="125%"><tspan
             sodipodi:role="line"
             id="tspan4412"
             style="font-size:21.14151573px;stroke-linecap:butt;stroke-linejoin:round;fill:#262626;fill-opacity:1"
             x="156.02499"
             y="331.60101">p = 2.4x10<tspan
   style="font-size:61.07549071%;baseline-shift:super;stroke-linecap:butt;stroke-linejoin:round;fill:#262626;fill-opacity:1"
   id="tspan4416">-121</tspan></tspan></text>
        <text
           sodipodi:linespacing="125%"
           id="text4418"
           y="331.60101"
           x="469.85898"
           style="font-style:normal;font-variant:normal;font-weight:normal;font-stretch:normal;font-size:28.18868828px;line-height:125%;font-family:Arial;-inkscape-font-specification:'Arial, Normal';text-align:start;letter-spacing:0px;word-spacing:0px;writing-mode:lr-tb;text-anchor:start;fill:#000000;fill-opacity:1;stroke:none;stroke-width:1px;stroke-linecap:butt;stroke-linejoin:miter;stroke-opacity:1"
           xml:space="preserve"><tspan
             y="331.60101"
             x="469.85898"
             style="font-size:21.14151573px;stroke-linecap:butt;stroke-linejoin:round;fill:#262626;fill-opacity:1"
             id="tspan4420"
             sodipodi:role="line">p = 7.8x10<tspan
   id="tspan4422"
   style="font-size:61.07549071%;baseline-shift:super;stroke-linecap:butt;stroke-linejoin:round;fill:#262626;fill-opacity:1">-78</tspan></tspan></text>
      </g>
    </g>
  </g>
</svg>
